<?xml version="1.0" encoding="UTF-8" standalone="no"?>
<!DOCTYPE svg PUBLIC "-//W3C//DTD SVG 1.1//EN"
 "http://www.w3.org/Graphics/SVG/1.1/DTD/svg11.dtd">
<!-- Generated by graphviz version 2.43.0 (0)
 -->
<!-- Title: app_settings/app_settings.hh Pages: 1 -->
<!--zoomable 364 -->
<svg id="main" version="1.1" xmlns="http://www.w3.org/2000/svg" xmlns:xlink="http://www.w3.org/1999/xlink" xml:space="preserve" onload="init(evt)">
<style type="text/css"><![CDATA[
.edge:hover path { stroke: red; }
.edge:hover polygon { stroke: red; fill: red; }
]]></style>
<script type="text/javascript"><![CDATA[
var edges = document.getElementsByTagName('g');
if (edges && edges.length) {
  for (var i=0;i<edges.length;i++) {
    if (edges[i].id.substr(0,4)=='edge') {
      edges[i].setAttribute('class','edge');
    }
  }
}
]]></script>
        <defs>
                <circle id="rim" cx="0" cy="0" r="7"/>
                <circle id="rim2" cx="0" cy="0" r="3.5"/>
                <g id="zoomPlus">
                        <use xlink:href="#rim" fill="#404040">
                                <set attributeName="fill" to="#808080" begin="zoomplus.mouseover" end="zoomplus.mouseout"/>
                        </use>
                        <path d="M-4,0h8M0,-4v8" fill="none" stroke="white" stroke-width="1.5" pointer-events="none"/>
                </g>
                <g id="zoomMin">
                        <use xlink:href="#rim" fill="#404040">
                                <set attributeName="fill" to="#808080" begin="zoomminus.mouseover" end="zoomminus.mouseout"/>
                        </use>
                        <path d="M-4,0h8" fill="none" stroke="white" stroke-width="1.5" pointer-events="none"/>
                </g>
                <g id="dirArrow">
                        <path fill="none" stroke="white" stroke-width="1.5" d="M0,-3.0v7 M-2.5,-0.5L0,-3.0L2.5,-0.5"/>
                </g>
               <g id="resetDef">
                       <use xlink:href="#rim2" fill="#404040">
                               <set attributeName="fill" to="#808080" begin="reset.mouseover" end="reset.mouseout"/>
                       </use>
               </g>
        </defs>

<script type="text/javascript">
var viewWidth = 1600;
var viewHeight = 364;
var sectionId = 'dynsection-0';
</script>
<script xlink:href="svgpan.js"/>
<svg id="graph" class="graph">
<g id="viewport">
<title>app_settings/app_settings.hh</title>
<!-- Node1 -->
<g id="node1" class="node">
<title>Node1</title>
<g id="a_node1"><a xlink:title="Settings for application components.">
<polygon fill="#bfbfbf" stroke="black" points="722,-336.5 722,-355.5 881,-355.5 881,-336.5 722,-336.5"/>
<text text-anchor="middle" x="801.5" y="-343.5" font-family="Helvetica,sans-Serif" font-size="10.00">app_settings/app_settings.hh</text>
</a>
</g>
</g>
<!-- Node2 -->
<g id="node2" class="node">
<title>Node2</title>
<g id="a_node2"><a xlink:href="options_8hh.html" target="_top" xlink:title="defines strings used in user interface">
<polygon fill="none" stroke="black" points="830,-112.5 830,-131.5 953,-131.5 953,-112.5 830,-112.5"/>
<text text-anchor="middle" x="891.5" y="-119.5" font-family="Helvetica,sans-Serif" font-size="10.00">app_config/options.hh</text>
</a>
</g>
</g>
<!-- Node1&#45;&gt;Node2 -->
<g id="edge1" class="edge">
<title>Node1&#45;&gt;Node2</title>
<path fill="none" stroke="midnightblue" d="M803.59,-336.46C806.74,-323.92 813.15,-299.85 820.5,-280 839.65,-228.28 868.04,-169.63 882.43,-140.85"/>
<polygon fill="midnightblue" stroke="midnightblue" points="885.68,-142.18 887.05,-131.67 879.43,-139.03 885.68,-142.18"/>
</g>
<!-- Node5 -->
<g id="node5" class="node">
<title>Node5</title>
<g id="a_node5"><a xlink:href="so__config_8h_source.html" target="_top" xlink:title=" ">
<polygon fill="none" stroke="black" points="540,-280.5 540,-299.5 659,-299.5 659,-280.5 540,-280.5"/>
<text text-anchor="middle" x="599.5" y="-287.5" font-family="Helvetica,sans-Serif" font-size="10.00">app_uout/so_config.h</text>
</a>
</g>
</g>
<!-- Node1&#45;&gt;Node5 -->
<g id="edge4" class="edge">
<title>Node1&#45;&gt;Node5</title>
<path fill="none" stroke="midnightblue" d="M769.49,-336.44C734.77,-327.16 679.21,-312.31 641.12,-302.13"/>
<polygon fill="midnightblue" stroke="midnightblue" points="641.92,-298.72 631.36,-299.52 640.11,-305.48 641.92,-298.72"/>
</g>
<!-- Node6 -->
<g id="node6" class="node">
<title>Node6</title>
<g id="a_node6"><a xlink:href="int__macros_8h.html" target="_top" xlink:title="Basic helper macros for integers.">
<polygon fill="none" stroke="black" points="463.5,-56.5 463.5,-75.5 595.5,-75.5 595.5,-56.5 463.5,-56.5"/>
<text text-anchor="middle" x="529.5" y="-63.5" font-family="Helvetica,sans-Serif" font-size="10.00">utils_misc/int_macros.h</text>
</a>
</g>
</g>
<!-- Node1&#45;&gt;Node6 -->
<g id="edge5" class="edge">
<title>Node1&#45;&gt;Node6</title>
<path fill="none" stroke="midnightblue" d="M780.86,-336.42C748,-321.23 687.5,-286.29 687.5,-235 687.5,-235 687.5,-235 687.5,-177 687.5,-146.9 689.47,-133.59 668.5,-112 651.72,-94.73 628.27,-84.08 605.4,-77.52"/>
<polygon fill="midnightblue" stroke="midnightblue" points="606.22,-74.11 595.66,-74.94 604.43,-80.88 606.22,-74.11"/>
</g>
<!-- Node7 -->
<g id="node7" class="node">
<title>Node7</title>
<g id="a_node7"><a xlink:href="components_2tronferno_2app__settings_2include_2app__settings_2config_8h.html" target="_top" xlink:title="Application settings.">
<polygon fill="none" stroke="black" points="304,-168.5 304,-187.5 359,-187.5 359,-168.5 304,-168.5"/>
<text text-anchor="middle" x="331.5" y="-175.5" font-family="Helvetica,sans-Serif" font-size="10.00">config.h</text>
</a>
</g>
</g>
<!-- Node1&#45;&gt;Node7 -->
<g id="edge7" class="edge">
<title>Node1&#45;&gt;Node7</title>
<path fill="none" stroke="midnightblue" d="M721.79,-339.68C666.92,-334.11 593.11,-322.81 531.5,-300 459.53,-273.35 384.76,-220.05 350.59,-194.01"/>
<polygon fill="midnightblue" stroke="midnightblue" points="352.49,-191.06 342.44,-187.72 348.22,-196.6 352.49,-191.06"/>
</g>
<!-- Node15 -->
<g id="node15" class="node">
<title>Node15</title>
<g id="a_node15"><a xlink:href="comp__settings_8hh.html" target="_top" xlink:title="Settings for shared components.">
<polygon fill="none" stroke="black" points="829.5,-280.5 829.5,-299.5 987.5,-299.5 987.5,-280.5 829.5,-280.5"/>
<text text-anchor="middle" x="908.5" y="-287.5" font-family="Helvetica,sans-Serif" font-size="10.00">config_kvs/comp_settings.hh</text>
</a>
</g>
</g>
<!-- Node1&#45;&gt;Node15 -->
<g id="edge21" class="edge">
<title>Node1&#45;&gt;Node15</title>
<path fill="none" stroke="midnightblue" d="M818.69,-336.32C835.85,-327.66 862.45,-314.24 882.25,-304.25"/>
<polygon fill="midnightblue" stroke="midnightblue" points="884,-307.28 891.35,-299.65 880.85,-301.04 884,-307.28"/>
</g>
<!-- Node16 -->
<g id="node16" class="node">
<title>Node16</title>
<g id="a_node16"><a xlink:href="settings__template_8hh_source.html" target="_top" xlink:title=" ">
<polygon fill="none" stroke="black" points="998.5,-224.5 998.5,-243.5 1118.5,-243.5 1118.5,-224.5 998.5,-224.5"/>
<text text-anchor="middle" x="1058.5" y="-231.5" font-family="Helvetica,sans-Serif" font-size="10.00">settings_template.hh</text>
</a>
</g>
</g>
<!-- Node1&#45;&gt;Node16 -->
<g id="edge49" class="edge">
<title>Node1&#45;&gt;Node16</title>
<path fill="none" stroke="midnightblue" d="M881.25,-337.25C918.16,-331.06 961.48,-319.95 996.5,-300 1017.37,-288.11 1035.57,-266.99 1046.76,-252.06"/>
<polygon fill="midnightblue" stroke="midnightblue" points="1049.78,-253.86 1052.78,-243.7 1044.1,-249.77 1049.78,-253.86"/>
</g>
<!-- Node27 -->
<g id="node27" class="node">
<title>Node27</title>
<g id="a_node27"><a xlink:title=" ">
<polygon fill="none" stroke="#bfbfbf" points="1535.5,-56.5 1535.5,-75.5 1591.5,-75.5 1591.5,-56.5 1535.5,-56.5"/>
<text text-anchor="middle" x="1563.5" y="-63.5" font-family="Helvetica,sans-Serif" font-size="10.00">assert.h</text>
</a>
</g>
</g>
<!-- Node1&#45;&gt;Node27 -->
<g id="edge50" class="edge">
<title>Node1&#45;&gt;Node27</title>
<path fill="none" stroke="midnightblue" d="M881.27,-338.41C994.04,-326.85 1186.5,-297.91 1186.5,-235 1186.5,-235 1186.5,-235 1186.5,-177 1186.5,-141.93 1430.03,-92.18 1525.63,-74"/>
<polygon fill="midnightblue" stroke="midnightblue" points="1526.3,-77.43 1535.47,-72.14 1525,-70.55 1526.3,-77.43"/>
</g>
<!-- Node3 -->
<g id="node3" class="node">
<title>Node3</title>
<g id="a_node3"><a xlink:title=" ">
<polygon fill="none" stroke="#bfbfbf" points="587,-0.5 587,-19.5 640,-19.5 640,-0.5 587,-0.5"/>
<text text-anchor="middle" x="613.5" y="-7.5" font-family="Helvetica,sans-Serif" font-size="10.00">stdint.h</text>
</a>
</g>
</g>
<!-- Node2&#45;&gt;Node3 -->
<g id="edge2" class="edge">
<title>Node2&#45;&gt;Node3</title>
<path fill="none" stroke="midnightblue" d="M842.18,-112.43C806.6,-105.26 757.92,-93.37 717.5,-76 685.97,-62.45 652.93,-40.2 632.77,-25.58"/>
<polygon fill="midnightblue" stroke="midnightblue" points="634.84,-22.75 624.71,-19.64 630.68,-28.39 634.84,-22.75"/>
</g>
<!-- Node4 -->
<g id="node4" class="node">
<title>Node4</title>
<g id="a_node4"><a xlink:title=" ">
<polygon fill="none" stroke="#bfbfbf" points="613.5,-56.5 613.5,-75.5 669.5,-75.5 669.5,-56.5 613.5,-56.5"/>
<text text-anchor="middle" x="641.5" y="-63.5" font-family="Helvetica,sans-Serif" font-size="10.00">stddef.h</text>
</a>
</g>
</g>
<!-- Node2&#45;&gt;Node4 -->
<g id="edge3" class="edge">
<title>Node2&#45;&gt;Node4</title>
<path fill="none" stroke="midnightblue" d="M851.89,-112.44C804.65,-102.24 726.27,-85.31 679.68,-75.25"/>
<polygon fill="midnightblue" stroke="midnightblue" points="680.19,-71.78 669.68,-73.09 678.71,-78.62 680.19,-71.78"/>
</g>
<!-- Node6&#45;&gt;Node3 -->
<g id="edge6" class="edge">
<title>Node6&#45;&gt;Node3</title>
<path fill="none" stroke="midnightblue" d="M543,-56.32C556.1,-47.9 576.21,-34.97 591.61,-25.07"/>
<polygon fill="midnightblue" stroke="midnightblue" points="593.52,-28.01 600.04,-19.65 589.73,-22.12 593.52,-28.01"/>
</g>
<!-- Node8 -->
<g id="node8" class="node">
<title>Node8</title>
<g id="a_node8"><a xlink:href="external_2components-misc_2components_2config__kvs_2include_2config__kvs_2config_8h.html" target="_top" xlink:title=" ">
<polygon fill="none" stroke="black" points="549.5,-112.5 549.5,-131.5 659.5,-131.5 659.5,-112.5 549.5,-112.5"/>
<text text-anchor="middle" x="604.5" y="-119.5" font-family="Helvetica,sans-Serif" font-size="10.00">config_kvs/config.h</text>
</a>
</g>
</g>
<!-- Node7&#45;&gt;Node8 -->
<g id="edge8" class="edge">
<title>Node7&#45;&gt;Node8</title>
<path fill="none" stroke="midnightblue" d="M359.18,-171.53C404.06,-162.65 493.5,-144.96 551.09,-133.57"/>
<polygon fill="midnightblue" stroke="midnightblue" points="551.97,-136.96 561.1,-131.59 550.61,-130.09 551.97,-136.96"/>
</g>
<!-- Node9 -->
<g id="node9" class="node">
<title>Node9</title>
<g id="a_node9"><a xlink:title=" ">
<polygon fill="none" stroke="#bfbfbf" points="290.5,-0.5 290.5,-19.5 352.5,-19.5 352.5,-0.5 290.5,-0.5"/>
<text text-anchor="middle" x="321.5" y="-7.5" font-family="Helvetica,sans-Serif" font-size="10.00">stdbool.h</text>
</a>
</g>
</g>
<!-- Node7&#45;&gt;Node9 -->
<g id="edge20" class="edge">
<title>Node7&#45;&gt;Node9</title>
<path fill="none" stroke="midnightblue" d="M303.79,-175.52C250.38,-172.03 136.35,-161.25 112.5,-132 90.8,-105.38 127.22,-70.87 147.5,-56 186.6,-27.33 242.34,-16.89 280.12,-13.1"/>
<polygon fill="midnightblue" stroke="midnightblue" points="280.61,-16.57 290.27,-12.2 280,-9.6 280.61,-16.57"/>
</g>
<!-- Node10 -->
<g id="node10" class="node">
<title>Node10</title>
<g id="a_node10"><a xlink:href="fer__pct_8h.html" target="_top" xlink:title="class Pct to represent shutter opening percentage">
<polygon fill="none" stroke="black" points="424,-112.5 424,-131.5 531,-131.5 531,-112.5 424,-112.5"/>
<text text-anchor="middle" x="477.5" y="-119.5" font-family="Helvetica,sans-Serif" font-size="10.00">fernotron/fer_pct.h</text>
</a>
</g>
</g>
<!-- Node7&#45;&gt;Node10 -->
<g id="edge11" class="edge">
<title>Node7&#45;&gt;Node10</title>
<path fill="none" stroke="midnightblue" d="M354.63,-168.44C378.98,-159.44 417.51,-145.19 444.92,-135.05"/>
<polygon fill="midnightblue" stroke="midnightblue" points="446.31,-138.27 454.47,-131.52 443.88,-131.7 446.31,-138.27"/>
</g>
<!-- Node11 -->
<g id="node11" class="node">
<title>Node11</title>
<g id="a_node11"><a xlink:href="astro_8h.html" target="_top" xlink:title="civil dusk timer calculations">
<polygon fill="none" stroke="black" points="122,-112.5 122,-131.5 239,-131.5 239,-112.5 122,-112.5"/>
<text text-anchor="middle" x="180.5" y="-119.5" font-family="Helvetica,sans-Serif" font-size="10.00">fernotron_trx/astro.h</text>
</a>
</g>
</g>
<!-- Node7&#45;&gt;Node11 -->
<g id="edge15" class="edge">
<title>Node7&#45;&gt;Node11</title>
<path fill="none" stroke="midnightblue" d="M307.57,-168.44C282.28,-159.4 242.2,-145.06 213.82,-134.92"/>
<polygon fill="midnightblue" stroke="midnightblue" points="214.91,-131.59 204.31,-131.52 212.55,-138.18 214.91,-131.59"/>
</g>
<!-- Node13 -->
<g id="node13" class="node">
<title>Node13</title>
<g id="a_node13"><a xlink:href="pin_8h_source.html" target="_top" xlink:title=" ">
<polygon fill="none" stroke="black" points="0,-112.5 0,-131.5 65,-131.5 65,-112.5 0,-112.5"/>
<text text-anchor="middle" x="32.5" y="-119.5" font-family="Helvetica,sans-Serif" font-size="10.00">gpio/pin.h</text>
</a>
</g>
</g>
<!-- Node7&#45;&gt;Node13 -->
<g id="edge17" class="edge">
<title>Node7&#45;&gt;Node13</title>
<path fill="none" stroke="midnightblue" d="M303.89,-172.19C257.5,-164.07 161,-147.08 79.5,-132 78.04,-131.73 76.56,-131.46 75.07,-131.18"/>
<polygon fill="midnightblue" stroke="midnightblue" points="75.58,-127.71 65.11,-129.3 74.28,-134.59 75.58,-127.71"/>
</g>
<!-- Node14 -->
<g id="node14" class="node">
<title>Node14</title>
<g id="a_node14"><a xlink:href="network__connection_8hh_source.html" target="_top" xlink:title=" ">
<polygon fill="none" stroke="black" points="257,-112.5 257,-131.5 406,-131.5 406,-112.5 257,-112.5"/>
<text text-anchor="middle" x="331.5" y="-119.5" font-family="Helvetica,sans-Serif" font-size="10.00">net/network_connection.hh</text>
</a>
</g>
</g>
<!-- Node7&#45;&gt;Node14 -->
<g id="edge19" class="edge">
<title>Node7&#45;&gt;Node14</title>
<path fill="none" stroke="midnightblue" d="M331.5,-168.08C331.5,-161.01 331.5,-150.86 331.5,-141.99"/>
<polygon fill="midnightblue" stroke="midnightblue" points="335,-141.75 331.5,-131.75 328,-141.75 335,-141.75"/>
</g>
<!-- Node8&#45;&gt;Node3 -->
<g id="edge9" class="edge">
<title>Node8&#45;&gt;Node3</title>
<path fill="none" stroke="midnightblue" d="M553.74,-112.43C515.09,-104.74 466.55,-92.2 454.5,-76 449.19,-68.87 449.14,-63.09 454.5,-56 469.25,-36.5 534.84,-23.02 577.04,-16.18"/>
<polygon fill="midnightblue" stroke="midnightblue" points="577.62,-19.64 586.95,-14.63 576.53,-12.72 577.62,-19.64"/>
</g>
<!-- Node8&#45;&gt;Node9 -->
<g id="edge10" class="edge">
<title>Node8&#45;&gt;Node9</title>
<path fill="none" stroke="midnightblue" d="M566.44,-112.45C533.98,-104.63 486.39,-91.86 446.5,-76 409.58,-61.32 369.19,-39.1 344.59,-24.82"/>
<polygon fill="midnightblue" stroke="midnightblue" points="346.07,-21.63 335.68,-19.59 342.53,-27.67 346.07,-21.63"/>
</g>
<!-- Node10&#45;&gt;Node3 -->
<g id="edge12" class="edge">
<title>Node10&#45;&gt;Node3</title>
<path fill="none" stroke="midnightblue" d="M467.76,-112.37C454.17,-99.3 432.66,-74.06 446.5,-56 462.22,-35.48 532.35,-22.2 576.58,-15.71"/>
<polygon fill="midnightblue" stroke="midnightblue" points="577.27,-19.15 586.68,-14.28 576.29,-12.22 577.27,-19.15"/>
</g>
<!-- Node10&#45;&gt;Node6 -->
<g id="edge14" class="edge">
<title>Node10&#45;&gt;Node6</title>
<path fill="none" stroke="midnightblue" d="M486.09,-112.08C493.66,-104.22 504.88,-92.57 514.01,-83.08"/>
<polygon fill="midnightblue" stroke="midnightblue" points="516.66,-85.38 521.07,-75.75 511.62,-80.53 516.66,-85.38"/>
</g>
<!-- Node10&#45;&gt;Node9 -->
<g id="edge13" class="edge">
<title>Node10&#45;&gt;Node9</title>
<path fill="none" stroke="midnightblue" d="M423.92,-113.8C397.36,-107.72 366.56,-96.54 345.5,-76 333,-63.81 326.96,-44.54 324.07,-30.14"/>
<polygon fill="midnightblue" stroke="midnightblue" points="327.45,-29.16 322.37,-19.87 320.55,-30.3 327.45,-29.16"/>
</g>
<!-- Node12 -->
<g id="node12" class="node">
<title>Node12</title>
<g id="a_node12"><a xlink:title=" ">
<polygon fill="none" stroke="#bfbfbf" points="156.5,-56.5 156.5,-75.5 204.5,-75.5 204.5,-56.5 156.5,-56.5"/>
<text text-anchor="middle" x="180.5" y="-63.5" font-family="Helvetica,sans-Serif" font-size="10.00">time.h</text>
</a>
</g>
</g>
<!-- Node11&#45;&gt;Node12 -->
<g id="edge16" class="edge">
<title>Node11&#45;&gt;Node12</title>
<path fill="none" stroke="midnightblue" d="M180.5,-112.08C180.5,-105.01 180.5,-94.86 180.5,-85.99"/>
<polygon fill="midnightblue" stroke="midnightblue" points="184,-85.75 180.5,-75.75 177,-85.75 184,-85.75"/>
</g>
<!-- Node13&#45;&gt;Node9 -->
<g id="edge18" class="edge">
<title>Node13&#45;&gt;Node9</title>
<path fill="none" stroke="midnightblue" d="M36.21,-112.19C42.72,-97.89 57.61,-69.85 79.5,-56 112.2,-35.3 219.77,-21.37 279.9,-14.98"/>
<polygon fill="midnightblue" stroke="midnightblue" points="280.6,-18.43 290.19,-13.92 279.88,-11.47 280.6,-18.43"/>
</g>
<!-- Node15&#45;&gt;Node2 -->
<g id="edge45" class="edge">
<title>Node15&#45;&gt;Node2</title>
<path fill="none" stroke="midnightblue" d="M907.59,-280.08C904.91,-253.95 897.05,-177.21 893.4,-141.58"/>
<polygon fill="midnightblue" stroke="midnightblue" points="896.88,-141.16 892.38,-131.57 889.91,-141.87 896.88,-141.16"/>
</g>
<!-- Node15&#45;&gt;Node6 -->
<g id="edge46" class="edge">
<title>Node15&#45;&gt;Node6</title>
<path fill="none" stroke="midnightblue" d="M901.2,-280.46C876.36,-251.93 791.59,-159.09 701.5,-112 669.4,-95.22 630.58,-84.37 597.95,-77.53"/>
<polygon fill="midnightblue" stroke="midnightblue" points="598.53,-74.08 588.04,-75.54 597.15,-80.94 598.53,-74.08"/>
</g>
<!-- Node15&#45;&gt;Node8 -->
<g id="edge47" class="edge">
<title>Node15&#45;&gt;Node8</title>
<path fill="none" stroke="midnightblue" d="M858.47,-280.46C826.1,-273.6 783.75,-262.08 749.5,-244 695.86,-215.69 644.03,-165.12 619.4,-139.23"/>
<polygon fill="midnightblue" stroke="midnightblue" points="621.79,-136.66 612.39,-131.76 616.68,-141.45 621.79,-136.66"/>
</g>
<!-- Node15&#45;&gt;Node16 -->
<g id="edge22" class="edge">
<title>Node15&#45;&gt;Node16</title>
<path fill="none" stroke="midnightblue" d="M932.27,-280.44C957.39,-271.4 997.21,-257.06 1025.4,-246.92"/>
<polygon fill="midnightblue" stroke="midnightblue" points="1026.62,-250.2 1034.84,-243.52 1024.25,-243.61 1026.62,-250.2"/>
</g>
<!-- Node15&#45;&gt;Node27 -->
<g id="edge48" class="edge">
<title>Node15&#45;&gt;Node27</title>
<path fill="none" stroke="midnightblue" d="M918.66,-280.15C933.69,-267.22 962.95,-242.66 989.5,-224 1028.5,-196.58 1127.37,-127.37 1172.5,-112 1314.26,-63.74 1359.08,-95.89 1507.5,-76 1513.31,-75.22 1519.46,-74.32 1525.46,-73.39"/>
<polygon fill="midnightblue" stroke="midnightblue" points="1526.01,-76.84 1535.34,-71.82 1524.92,-69.93 1526.01,-76.84"/>
</g>
<!-- Node17 -->
<g id="node17" class="node">
<title>Node17</title>
<g id="a_node17"><a xlink:href="settings_8hh.html" target="_top" xlink:title=" ">
<polygon fill="none" stroke="black" points="956,-168.5 956,-187.5 1027,-187.5 1027,-168.5 956,-168.5"/>
<text text-anchor="middle" x="991.5" y="-175.5" font-family="Helvetica,sans-Serif" font-size="10.00">settings.hh</text>
</a>
</g>
</g>
<!-- Node16&#45;&gt;Node17 -->
<g id="edge23" class="edge">
<title>Node16&#45;&gt;Node17</title>
<path fill="none" stroke="midnightblue" d="M1047.74,-224.32C1037.73,-216.26 1022.61,-204.08 1010.57,-194.37"/>
<polygon fill="midnightblue" stroke="midnightblue" points="1012.44,-191.38 1002.46,-187.83 1008.05,-196.83 1012.44,-191.38"/>
</g>
<!-- Node17&#45;&gt;Node2 -->
<g id="edge24" class="edge">
<title>Node17&#45;&gt;Node2</title>
<path fill="none" stroke="midnightblue" d="M975.43,-168.32C959.54,-159.74 934.99,-146.49 916.54,-136.52"/>
<polygon fill="midnightblue" stroke="midnightblue" points="917.99,-133.33 907.53,-131.65 914.66,-139.49 917.99,-133.33"/>
</g>
<!-- Node17&#45;&gt;Node6 -->
<g id="edge42" class="edge">
<title>Node17&#45;&gt;Node6</title>
<path fill="none" stroke="midnightblue" d="M955.81,-169.39C921.04,-161.55 866.93,-148.21 821.5,-132 801.27,-124.78 798,-118.41 777.5,-112 744.42,-101.65 657.3,-86.88 595.7,-77.12"/>
<polygon fill="midnightblue" stroke="midnightblue" points="596.08,-73.64 585.66,-75.54 594.99,-80.55 596.08,-73.64"/>
</g>
<!-- Node17&#45;&gt;Node8 -->
<g id="edge43" class="edge">
<title>Node17&#45;&gt;Node8</title>
<path fill="none" stroke="midnightblue" d="M955.79,-172.02C890.67,-162.93 751.8,-143.55 669.5,-132.07"/>
<polygon fill="midnightblue" stroke="midnightblue" points="669.9,-128.59 659.51,-130.68 668.93,-135.52 669.9,-128.59"/>
</g>
<!-- Node18 -->
<g id="node18" class="node">
<title>Node18</title>
<g id="a_node18"><a xlink:href="uout__writer_8hh.html" target="_top" xlink:title="Provide an output class hierarchy which knows about the required format (text or JSON) and write func...">
<polygon fill="none" stroke="black" points="971,-112.5 971,-131.5 1082,-131.5 1082,-112.5 971,-112.5"/>
<text text-anchor="middle" x="1026.5" y="-119.5" font-family="Helvetica,sans-Serif" font-size="10.00">uout/uout_writer.hh</text>
</a>
</g>
</g>
<!-- Node17&#45;&gt;Node18 -->
<g id="edge25" class="edge">
<title>Node17&#45;&gt;Node18</title>
<path fill="none" stroke="midnightblue" d="M997.28,-168.08C1002.17,-160.53 1009.33,-149.49 1015.33,-140.23"/>
<polygon fill="midnightblue" stroke="midnightblue" points="1018.33,-142.05 1020.83,-131.75 1012.45,-138.24 1018.33,-142.05"/>
</g>
<!-- Node17&#45;&gt;Node27 -->
<g id="edge44" class="edge">
<title>Node17&#45;&gt;Node27</title>
<path fill="none" stroke="midnightblue" d="M1010.7,-168.44C1030.86,-159.44 1063.45,-144.83 1091.5,-132 1110.67,-123.23 1114.16,-117.54 1134.5,-112 1295.2,-68.25 1342.31,-97.22 1507.5,-76 1513.32,-75.25 1519.46,-74.37 1525.46,-73.44"/>
<polygon fill="midnightblue" stroke="midnightblue" points="1526.02,-76.9 1535.35,-71.88 1524.92,-69.99 1526.02,-76.9"/>
</g>
<!-- Node18&#45;&gt;Node3 -->
<g id="edge35" class="edge">
<title>Node18&#45;&gt;Node3</title>
<path fill="none" stroke="midnightblue" d="M1010.34,-112.45C983.35,-98.55 927.1,-71.05 876.5,-56 797.58,-32.52 701.46,-19.95 650.07,-14.46"/>
<polygon fill="midnightblue" stroke="midnightblue" points="650.42,-10.98 640.11,-13.43 649.69,-17.94 650.42,-10.98"/>
</g>
<!-- Node19 -->
<g id="node19" class="node">
<title>Node19</title>
<g id="a_node19"><a xlink:href="so__out_8h.html" target="_top" xlink:title="write formatted output to UoutWriter">
<polygon fill="none" stroke="black" points="1285.5,-56.5 1285.5,-75.5 1343.5,-75.5 1343.5,-56.5 1285.5,-56.5"/>
<text text-anchor="middle" x="1314.5" y="-63.5" font-family="Helvetica,sans-Serif" font-size="10.00">so_out.h</text>
</a>
</g>
</g>
<!-- Node18&#45;&gt;Node19 -->
<g id="edge26" class="edge">
<title>Node18&#45;&gt;Node19</title>
<path fill="none" stroke="midnightblue" d="M1078.85,-112.43C1127.37,-104.3 1201.77,-91.34 1275.56,-76.11"/>
<polygon fill="midnightblue" stroke="midnightblue" points="1276.41,-79.5 1285.49,-74.04 1274.99,-72.65 1276.41,-79.5"/>
</g>
<!-- Node20 -->
<g id="node20" class="node">
<title>Node20</title>
<g id="a_node20"><a xlink:href="so__target__bits_8h.html" target="_top" xlink:title="flags to select output formats and targets">
<polygon fill="none" stroke="black" points="1076,-0.5 1076,-19.5 1171,-19.5 1171,-0.5 1076,-0.5"/>
<text text-anchor="middle" x="1123.5" y="-7.5" font-family="Helvetica,sans-Serif" font-size="10.00">so_target_bits.h</text>
</a>
</g>
</g>
<!-- Node18&#45;&gt;Node20 -->
<g id="edge28" class="edge">
<title>Node18&#45;&gt;Node20</title>
<path fill="none" stroke="midnightblue" d="M1002.51,-112.32C974.58,-100.88 934.44,-79.43 952.5,-56 966.41,-37.96 1021.68,-25.71 1065.67,-18.6"/>
<polygon fill="midnightblue" stroke="midnightblue" points="1066.38,-22.03 1075.72,-17.03 1065.3,-15.12 1066.38,-22.03"/>
</g>
<!-- Node21 -->
<g id="node21" class="node">
<title>Node21</title>
<g id="a_node21"><a xlink:href="uout__builder__json_8hh.html" target="_top" xlink:title="Create JSON output from key/val pairs.">
<polygon fill="none" stroke="black" points="1361.5,-56.5 1361.5,-75.5 1479.5,-75.5 1479.5,-56.5 1361.5,-56.5"/>
<text text-anchor="middle" x="1420.5" y="-63.5" font-family="Helvetica,sans-Serif" font-size="10.00">uout_builder_json.hh</text>
</a>
</g>
</g>
<!-- Node18&#45;&gt;Node21 -->
<g id="edge29" class="edge">
<title>Node18&#45;&gt;Node21</title>
<path fill="none" stroke="midnightblue" d="M1082.11,-113.38C1152.76,-103.7 1274.68,-86.99 1351.27,-76.49"/>
<polygon fill="midnightblue" stroke="midnightblue" points="1351.88,-79.94 1361.31,-75.11 1350.93,-73 1351.88,-79.94"/>
</g>
<!-- Node23 -->
<g id="node23" class="node">
<title>Node23</title>
<g id="a_node23"><a xlink:title=" ">
<polygon fill="none" stroke="#bfbfbf" points="1470,-0.5 1470,-19.5 1535,-19.5 1535,-0.5 1470,-0.5"/>
<text text-anchor="middle" x="1502.5" y="-7.5" font-family="Helvetica,sans-Serif" font-size="10.00">functional</text>
</a>
</g>
</g>
<!-- Node18&#45;&gt;Node23 -->
<g id="edge40" class="edge">
<title>Node18&#45;&gt;Node23</title>
<path fill="none" stroke="midnightblue" d="M1082.26,-113.65C1087.08,-113.07 1091.87,-112.51 1096.5,-112 1139.98,-107.21 1455.76,-105.01 1488.5,-76 1501.31,-64.65 1503.98,-44.66 1503.95,-29.83"/>
<polygon fill="midnightblue" stroke="midnightblue" points="1507.45,-29.57 1503.54,-19.73 1500.45,-29.86 1507.45,-29.57"/>
</g>
<!-- Node24 -->
<g id="node24" class="node">
<title>Node24</title>
<g id="a_node24"><a xlink:href="uout__builder__plaintext_8hh_source.html" target="_top" xlink:title=" ">
<polygon fill="none" stroke="black" points="726,-56.5 726,-75.5 867,-75.5 867,-56.5 726,-56.5"/>
<text text-anchor="middle" x="796.5" y="-63.5" font-family="Helvetica,sans-Serif" font-size="10.00">uout_builder_plaintext.hh</text>
</a>
</g>
</g>
<!-- Node18&#45;&gt;Node24 -->
<g id="edge32" class="edge">
<title>Node18&#45;&gt;Node24</title>
<path fill="none" stroke="midnightblue" d="M990.06,-112.44C950.1,-103.06 885.91,-87.99 842.52,-77.8"/>
<polygon fill="midnightblue" stroke="midnightblue" points="843.31,-74.39 832.77,-75.52 841.71,-81.21 843.31,-74.39"/>
</g>
<!-- Node25 -->
<g id="node25" class="node">
<title>Node25</title>
<g id="a_node25"><a xlink:title=" ">
<polygon fill="none" stroke="#bfbfbf" points="961.5,-56.5 961.5,-75.5 1017.5,-75.5 1017.5,-56.5 961.5,-56.5"/>
<text text-anchor="middle" x="989.5" y="-63.5" font-family="Helvetica,sans-Serif" font-size="10.00">unistd.h</text>
</a>
</g>
</g>
<!-- Node18&#45;&gt;Node25 -->
<g id="edge36" class="edge">
<title>Node18&#45;&gt;Node25</title>
<path fill="none" stroke="midnightblue" d="M1020.39,-112.08C1015.22,-104.53 1007.65,-93.49 1001.31,-84.23"/>
<polygon fill="midnightblue" stroke="midnightblue" points="1004.04,-82.02 995.5,-75.75 998.26,-85.98 1004.04,-82.02"/>
</g>
<!-- Node26 -->
<g id="node26" class="node">
<title>Node26</title>
<g id="a_node26"><a xlink:title=" ">
<polygon fill="none" stroke="#bfbfbf" points="1036,-56.5 1036,-75.5 1089,-75.5 1089,-56.5 1036,-56.5"/>
<text text-anchor="middle" x="1062.5" y="-63.5" font-family="Helvetica,sans-Serif" font-size="10.00">string.h</text>
</a>
</g>
</g>
<!-- Node18&#45;&gt;Node26 -->
<g id="edge37" class="edge">
<title>Node18&#45;&gt;Node26</title>
<path fill="none" stroke="midnightblue" d="M1032.44,-112.08C1037.48,-104.53 1044.84,-93.49 1051.01,-84.23"/>
<polygon fill="midnightblue" stroke="midnightblue" points="1054.03,-86.01 1056.67,-75.75 1048.21,-82.13 1054.03,-86.01"/>
</g>
<!-- Node18&#45;&gt;Node27 -->
<g id="edge38" class="edge">
<title>Node18&#45;&gt;Node27</title>
<path fill="none" stroke="midnightblue" d="M1082.26,-113.61C1087.07,-113.04 1091.87,-112.49 1096.5,-112 1285,-91.91 1334,-103.92 1521.5,-76 1522.74,-75.81 1524.01,-75.61 1525.28,-75.4"/>
<polygon fill="midnightblue" stroke="midnightblue" points="1525.92,-78.84 1535.12,-73.59 1524.65,-71.96 1525.92,-78.84"/>
</g>
<!-- Node28 -->
<g id="node28" class="node">
<title>Node28</title>
<g id="a_node28"><a xlink:href="itoa_8h_source.html" target="_top" xlink:title=" ">
<polygon fill="none" stroke="black" points="1107,-56.5 1107,-75.5 1204,-75.5 1204,-56.5 1107,-56.5"/>
<text text-anchor="middle" x="1155.5" y="-63.5" font-family="Helvetica,sans-Serif" font-size="10.00">utils_misc/itoa.h</text>
</a>
</g>
</g>
<!-- Node18&#45;&gt;Node28 -->
<g id="edge39" class="edge">
<title>Node18&#45;&gt;Node28</title>
<path fill="none" stroke="midnightblue" d="M1046.94,-112.44C1068.17,-103.56 1101.6,-89.56 1125.75,-79.45"/>
<polygon fill="midnightblue" stroke="midnightblue" points="1127.28,-82.61 1135.16,-75.52 1124.58,-76.15 1127.28,-82.61"/>
</g>
<!-- Node29 -->
<g id="node29" class="node">
<title>Node29</title>
<g id="a_node29"><a xlink:title=" ">
<polygon fill="none" stroke="#bfbfbf" points="1222,-56.5 1222,-75.5 1267,-75.5 1267,-56.5 1222,-56.5"/>
<text text-anchor="middle" x="1244.5" y="-63.5" font-family="Helvetica,sans-Serif" font-size="10.00">utility</text>
</a>
</g>
</g>
<!-- Node18&#45;&gt;Node29 -->
<g id="edge41" class="edge">
<title>Node18&#45;&gt;Node29</title>
<path fill="none" stroke="midnightblue" d="M1064.24,-112.46C1100.03,-104.24 1155.53,-91.19 1212.03,-76.31"/>
<polygon fill="midnightblue" stroke="midnightblue" points="1213.08,-79.65 1221.85,-73.71 1211.28,-72.89 1213.08,-79.65"/>
</g>
<!-- Node19&#45;&gt;Node20 -->
<g id="edge27" class="edge">
<title>Node19&#45;&gt;Node20</title>
<path fill="none" stroke="midnightblue" d="M1285.49,-56.8C1252.96,-47.6 1200,-32.63 1163.54,-22.32"/>
<polygon fill="midnightblue" stroke="midnightblue" points="1164.3,-18.9 1153.73,-19.55 1162.4,-25.64 1164.3,-18.9"/>
</g>
<!-- Node22 -->
<g id="node22" class="node">
<title>Node22</title>
<g id="a_node22"><a xlink:title=" ">
<polygon fill="none" stroke="#bfbfbf" points="1394,-0.5 1394,-19.5 1447,-19.5 1447,-0.5 1394,-0.5"/>
<text text-anchor="middle" x="1420.5" y="-7.5" font-family="Helvetica,sans-Serif" font-size="10.00">stdlib.h</text>
</a>
</g>
</g>
<!-- Node21&#45;&gt;Node22 -->
<g id="edge30" class="edge">
<title>Node21&#45;&gt;Node22</title>
<path fill="none" stroke="midnightblue" d="M1420.5,-56.08C1420.5,-49.01 1420.5,-38.86 1420.5,-29.99"/>
<polygon fill="midnightblue" stroke="midnightblue" points="1424,-29.75 1420.5,-19.75 1417,-29.75 1424,-29.75"/>
</g>
<!-- Node21&#45;&gt;Node23 -->
<g id="edge31" class="edge">
<title>Node21&#45;&gt;Node23</title>
<path fill="none" stroke="midnightblue" d="M1433.67,-56.32C1446.35,-47.98 1465.73,-35.21 1480.71,-25.35"/>
<polygon fill="midnightblue" stroke="midnightblue" points="1482.93,-28.08 1489.36,-19.65 1479.08,-22.23 1482.93,-28.08"/>
</g>
<!-- Node24&#45;&gt;Node3 -->
<g id="edge33" class="edge">
<title>Node24&#45;&gt;Node3</title>
<path fill="none" stroke="midnightblue" d="M767.5,-56.44C735.67,-47.05 684.51,-31.95 649.98,-21.77"/>
<polygon fill="midnightblue" stroke="midnightblue" points="650.86,-18.37 640.28,-18.9 648.88,-25.09 650.86,-18.37"/>
</g>
<!-- Node24&#45;&gt;Node9 -->
<g id="edge34" class="edge">
<title>Node24&#45;&gt;Node9</title>
<path fill="none" stroke="midnightblue" d="M725.9,-56.97C625.36,-45.54 444.13,-24.94 362.88,-15.7"/>
<polygon fill="midnightblue" stroke="midnightblue" points="362.88,-12.18 352.55,-14.53 362.09,-19.14 362.88,-12.18"/>
</g>
</g>
</svg>
        <g id="navigator" transform="translate(0 0)" fill="#404254">
                <rect fill="#f2f5e9" fill-opacity="0.5" stroke="#606060" stroke-width=".5" x="0" y="0" width="60" height="60"/>
                <use id="zoomplus" xlink:href="#zoomPlus" x="17" y="9" onmousedown="handleZoom(evt,'in')"/>
                <use id="zoomminus" xlink:href="#zoomMin" x="42" y="9" onmousedown="handleZoom(evt,'out')"/>
                <use id="reset" xlink:href="#resetDef" x="30" y="36" onmousedown="handleReset()"/>
                <g id="arrowUp" xlink:href="#dirArrow" transform="translate(30 24)" onmousedown="handlePan(0,-1)">
                  <use xlink:href="#rim" fill="#404040">
                        <set attributeName="fill" to="#808080" begin="arrowUp.mouseover" end="arrowUp.mouseout"/>
                  </use>
                  <path fill="none" stroke="white" stroke-width="1.5" d="M0,-3.0v7 M-2.5,-0.5L0,-3.0L2.5,-0.5"/>
                </g>
                <g id="arrowRight" xlink:href="#dirArrow" transform="rotate(90) translate(36 -43)" onmousedown="handlePan(1,0)">
                  <use xlink:href="#rim" fill="#404040">
                        <set attributeName="fill" to="#808080" begin="arrowRight.mouseover" end="arrowRight.mouseout"/>
                  </use>
                  <path fill="none" stroke="white" stroke-width="1.5" d="M0,-3.0v7 M-2.5,-0.5L0,-3.0L2.5,-0.5"/>
                </g>
                <g id="arrowDown" xlink:href="#dirArrow" transform="rotate(180) translate(-30 -48)" onmousedown="handlePan(0,1)">
                  <use xlink:href="#rim" fill="#404040">
                        <set attributeName="fill" to="#808080" begin="arrowDown.mouseover" end="arrowDown.mouseout"/>
                  </use>
                  <path fill="none" stroke="white" stroke-width="1.5" d="M0,-3.0v7 M-2.5,-0.5L0,-3.0L2.5,-0.5"/>
                </g>
                <g id="arrowLeft" xlink:href="#dirArrow" transform="rotate(270) translate(-36 17)" onmousedown="handlePan(-1,0)">
                  <use xlink:href="#rim" fill="#404040">
                        <set attributeName="fill" to="#808080" begin="arrowLeft.mouseover" end="arrowLeft.mouseout"/>
                  </use>
                  <path fill="none" stroke="white" stroke-width="1.5" d="M0,-3.0v7 M-2.5,-0.5L0,-3.0L2.5,-0.5"/>
                </g>
        </g>
        <svg viewBox="0 0 15 15" width="100%" height="30px" preserveAspectRatio="xMaxYMin meet">
         <g id="arrow_out" transform="scale(0.3 0.3)">
          <a xlink:href="app__settings_8hh__incl_org.svg" target="_base">
           <rect id="button" ry="5" rx="5" y="6" x="6" height="38" width="38"
                fill="#f2f5e9" fill-opacity="0.5" stroke="#606060" stroke-width="1.0"/>
           <path id="arrow"
             d="M 11.500037,31.436501 C 11.940474,20.09759 22.043105,11.32322 32.158766,21.979434 L 37.068811,17.246167 C 37.068811,17.246167 37.088388,32 37.088388,32 L 22.160133,31.978069 C 22.160133,31.978069 26.997745,27.140456 26.997745,27.140456 C 18.528582,18.264221 13.291696,25.230495 11.500037,31.436501 z"
             style="fill:#404040;"/>
          </a>
         </g>
        </svg>
</svg>
