<?xml version="1.0" encoding="UTF-8" standalone="no"?>
<!DOCTYPE svg PUBLIC "-//W3C//DTD SVG 1.1//EN"
 "http://www.w3.org/Graphics/SVG/1.1/DTD/svg11.dtd">
<!-- Generated by graphviz version 2.43.0 (0)
 -->
<!-- Title: app_settings/app_register_settings.hh Pages: 1 -->
<!--zoomable 431 -->
<svg id="main" version="1.1" xmlns="http://www.w3.org/2000/svg" xmlns:xlink="http://www.w3.org/1999/xlink" xml:space="preserve" onload="init(evt)">
<style type="text/css"><![CDATA[
.edge:hover path { stroke: red; }
.edge:hover polygon { stroke: red; fill: red; }
]]></style>
<script type="text/javascript"><![CDATA[
var edges = document.getElementsByTagName('g');
if (edges && edges.length) {
  for (var i=0;i<edges.length;i++) {
    if (edges[i].id.substr(0,4)=='edge') {
      edges[i].setAttribute('class','edge');
    }
  }
}
]]></script>
        <defs>
                <circle id="rim" cx="0" cy="0" r="7"/>
                <circle id="rim2" cx="0" cy="0" r="3.5"/>
                <g id="zoomPlus">
                        <use xlink:href="#rim" fill="#404040">
                                <set attributeName="fill" to="#808080" begin="zoomplus.mouseover" end="zoomplus.mouseout"/>
                        </use>
                        <path d="M-4,0h8M0,-4v8" fill="none" stroke="white" stroke-width="1.5" pointer-events="none"/>
                </g>
                <g id="zoomMin">
                        <use xlink:href="#rim" fill="#404040">
                                <set attributeName="fill" to="#808080" begin="zoomminus.mouseover" end="zoomminus.mouseout"/>
                        </use>
                        <path d="M-4,0h8" fill="none" stroke="white" stroke-width="1.5" pointer-events="none"/>
                </g>
                <g id="dirArrow">
                        <path fill="none" stroke="white" stroke-width="1.5" d="M0,-3.0v7 M-2.5,-0.5L0,-3.0L2.5,-0.5"/>
                </g>
               <g id="resetDef">
                       <use xlink:href="#rim2" fill="#404040">
                               <set attributeName="fill" to="#808080" begin="reset.mouseover" end="reset.mouseout"/>
                       </use>
               </g>
        </defs>

<script type="text/javascript">
var viewWidth = 1769;
var viewHeight = 431;
var sectionId = 'dynsection-0';
</script>
<script xlink:href="svgpan.js"/>
<svg id="graph" class="graph">
<g id="viewport">
<title>app_settings/app_register_settings.hh</title>
<!-- Node1 -->
<g id="node1" class="node">
<title>Node1</title>
<g id="a_node1"><a xlink:title="Settings for application components.">
<polygon fill="#bfbfbf" stroke="black" points="804.5,-392.5 804.5,-422.5 947.5,-422.5 947.5,-392.5 804.5,-392.5"/>
<text text-anchor="start" x="812.5" y="-410.5" font-family="Helvetica,sans-Serif" font-size="10.00">app_settings/app_register</text>
<text text-anchor="middle" x="876" y="-399.5" font-family="Helvetica,sans-Serif" font-size="10.00">_settings.hh</text>
</a>
</g>
</g>
<!-- Node2 -->
<g id="node2" class="node">
<title>Node2</title>
<g id="a_node2"><a xlink:href="app__settings_8hh.html" target="_top" xlink:title="Settings for application components.">
<polygon fill="none" stroke="black" points="860.5,-336.5 860.5,-355.5 1019.5,-355.5 1019.5,-336.5 860.5,-336.5"/>
<text text-anchor="middle" x="940" y="-343.5" font-family="Helvetica,sans-Serif" font-size="10.00">app_settings/app_settings.hh</text>
</a>
</g>
</g>
<!-- Node1&#45;&gt;Node2 -->
<g id="edge1" class="edge">
<title>Node1&#45;&gt;Node2</title>
<path fill="none" stroke="midnightblue" d="M891.17,-392.4C900.75,-383.49 913.16,-371.95 923.07,-362.74"/>
<polygon fill="midnightblue" stroke="midnightblue" points="925.75,-365.03 930.69,-355.66 920.98,-359.9 925.75,-365.03"/>
</g>
<!-- Node3 -->
<g id="node3" class="node">
<title>Node3</title>
<g id="a_node3"><a xlink:href="options_8hh.html" target="_top" xlink:title="defines strings used in user interface">
<polygon fill="none" stroke="black" points="404.5,-112.5 404.5,-131.5 527.5,-131.5 527.5,-112.5 404.5,-112.5"/>
<text text-anchor="middle" x="466" y="-119.5" font-family="Helvetica,sans-Serif" font-size="10.00">app_config/options.hh</text>
</a>
</g>
</g>
<!-- Node1&#45;&gt;Node3 -->
<g id="edge52" class="edge">
<title>Node1&#45;&gt;Node3</title>
<path fill="none" stroke="midnightblue" d="M804.42,-398.83C697.11,-385.32 507,-352.67 507,-291 507,-291 507,-291 507,-233 507,-198.52 489.09,-161.56 476.94,-140.47"/>
<polygon fill="midnightblue" stroke="midnightblue" points="479.84,-138.49 471.7,-131.71 473.84,-142.09 479.84,-138.49"/>
</g>
<!-- Node6 -->
<g id="node6" class="node">
<title>Node6</title>
<g id="a_node6"><a xlink:href="so__config_8h_source.html" target="_top" xlink:title=" ">
<polygon fill="none" stroke="black" points="1063.5,-280.5 1063.5,-299.5 1182.5,-299.5 1182.5,-280.5 1063.5,-280.5"/>
<text text-anchor="middle" x="1123" y="-287.5" font-family="Helvetica,sans-Serif" font-size="10.00">app_uout/so_config.h</text>
</a>
</g>
</g>
<!-- Node1&#45;&gt;Node6 -->
<g id="edge53" class="edge">
<title>Node1&#45;&gt;Node6</title>
<path fill="none" stroke="midnightblue" d="M930.96,-392.5C960.78,-383.89 997.82,-371.52 1029,-356 1057.09,-342.02 1086.34,-320.51 1104.6,-306.11"/>
<polygon fill="midnightblue" stroke="midnightblue" points="1107.02,-308.66 1112.63,-299.67 1102.64,-303.19 1107.02,-308.66"/>
</g>
<!-- Node7 -->
<g id="node7" class="node">
<title>Node7</title>
<g id="a_node7"><a xlink:href="int__macros_8h.html" target="_top" xlink:title="Basic helper macros for integers.">
<polygon fill="none" stroke="black" points="922,-56.5 922,-75.5 1054,-75.5 1054,-56.5 922,-56.5"/>
<text text-anchor="middle" x="988" y="-63.5" font-family="Helvetica,sans-Serif" font-size="10.00">utils_misc/int_macros.h</text>
</a>
</g>
</g>
<!-- Node1&#45;&gt;Node7 -->
<g id="edge54" class="edge">
<title>Node1&#45;&gt;Node7</title>
<path fill="none" stroke="midnightblue" d="M818.99,-392.44C795.69,-384.59 769.66,-372.89 750,-356 722.07,-332 711.3,-316.38 717,-280 731.54,-187.26 764.31,-159.97 845,-112 872,-95.95 905.32,-85.03 933,-77.97"/>
<polygon fill="midnightblue" stroke="midnightblue" points="934.04,-81.32 942.93,-75.55 932.38,-74.52 934.04,-81.32"/>
</g>
<!-- Node9 -->
<g id="node9" class="node">
<title>Node9</title>
<g id="a_node9"><a xlink:href="external_2components-misc_2components_2config__kvs_2include_2config__kvs_2config_8h.html" target="_top" xlink:title=" ">
<polygon fill="none" stroke="black" points="1101,-112.5 1101,-131.5 1211,-131.5 1211,-112.5 1101,-112.5"/>
<text text-anchor="middle" x="1156" y="-119.5" font-family="Helvetica,sans-Serif" font-size="10.00">config_kvs/config.h</text>
</a>
</g>
</g>
<!-- Node1&#45;&gt;Node9 -->
<g id="edge55" class="edge">
<title>Node1&#45;&gt;Node9</title>
<path fill="none" stroke="midnightblue" d="M947.74,-404.59C1037.25,-400.8 1183.6,-389.51 1225,-356 1248.94,-336.63 1249,-321.8 1249,-291 1249,-291 1249,-291 1249,-233 1249,-190.31 1207.65,-155.64 1180.09,-137.28"/>
<polygon fill="midnightblue" stroke="midnightblue" points="1181.67,-134.13 1171.36,-131.69 1177.89,-140.03 1181.67,-134.13"/>
</g>
<!-- Node16 -->
<g id="node16" class="node">
<title>Node16</title>
<g id="a_node16"><a xlink:href="comp__settings_8hh.html" target="_top" xlink:title="Settings for shared components.">
<polygon fill="none" stroke="black" points="735,-280.5 735,-299.5 893,-299.5 893,-280.5 735,-280.5"/>
<text text-anchor="middle" x="814" y="-287.5" font-family="Helvetica,sans-Serif" font-size="10.00">config_kvs/comp_settings.hh</text>
</a>
</g>
</g>
<!-- Node1&#45;&gt;Node16 -->
<g id="edge56" class="edge">
<title>Node1&#45;&gt;Node16</title>
<path fill="none" stroke="midnightblue" d="M868.4,-392.34C857.07,-371.24 835.79,-331.6 823.47,-308.65"/>
<polygon fill="midnightblue" stroke="midnightblue" points="826.47,-306.82 818.65,-299.67 820.3,-310.14 826.47,-306.82"/>
</g>
<!-- Node18 -->
<g id="node18" class="node">
<title>Node18</title>
<g id="a_node18"><a xlink:href="settings_8hh.html" target="_top" xlink:title=" ">
<polygon fill="none" stroke="black" points="821.5,-168.5 821.5,-187.5 892.5,-187.5 892.5,-168.5 821.5,-168.5"/>
<text text-anchor="middle" x="857" y="-175.5" font-family="Helvetica,sans-Serif" font-size="10.00">settings.hh</text>
</a>
</g>
</g>
<!-- Node1&#45;&gt;Node18 -->
<g id="edge57" class="edge">
<title>Node1&#45;&gt;Node18</title>
<path fill="none" stroke="midnightblue" d="M839.45,-392.41C803.17,-376.22 749.67,-345.83 726,-300 700.34,-250.31 776.13,-210.49 822.96,-191.36"/>
<polygon fill="midnightblue" stroke="midnightblue" points="824.46,-194.53 832.47,-187.6 821.89,-188.02 824.46,-194.53"/>
</g>
<!-- Node28 -->
<g id="node28" class="node">
<title>Node28</title>
<g id="a_node28"><a xlink:title=" ">
<polygon fill="none" stroke="#bfbfbf" points="1072,-56.5 1072,-75.5 1128,-75.5 1128,-56.5 1072,-56.5"/>
<text text-anchor="middle" x="1100" y="-63.5" font-family="Helvetica,sans-Serif" font-size="10.00">assert.h</text>
</a>
</g>
</g>
<!-- Node1&#45;&gt;Node28 -->
<g id="edge58" class="edge">
<title>Node1&#45;&gt;Node28</title>
<path fill="none" stroke="midnightblue" d="M947.72,-405.84C1023.51,-400.75 1139.24,-379.46 1192,-300 1196.92,-292.59 1194.6,-288.5 1192,-280 1168.76,-204.09 1115.24,-207.91 1092,-132 1087.32,-116.71 1090.19,-98.61 1093.74,-85.39"/>
<polygon fill="midnightblue" stroke="midnightblue" points="1097.15,-86.2 1096.72,-75.61 1090.46,-84.16 1097.15,-86.2"/>
</g>
<!-- Node2&#45;&gt;Node3 -->
<g id="edge2" class="edge">
<title>Node2&#45;&gt;Node3</title>
<path fill="none" stroke="midnightblue" d="M864.54,-336.47C822.54,-329.93 770.01,-318.74 726,-300 674.1,-277.91 536.64,-176.2 485.51,-137.76"/>
<polygon fill="midnightblue" stroke="midnightblue" points="487.37,-134.78 477.28,-131.56 483.16,-140.37 487.37,-134.78"/>
</g>
<!-- Node2&#45;&gt;Node6 -->
<g id="edge5" class="edge">
<title>Node2&#45;&gt;Node6</title>
<path fill="none" stroke="midnightblue" d="M969,-336.44C1000.18,-327.24 1049.93,-312.56 1084.41,-302.39"/>
<polygon fill="midnightblue" stroke="midnightblue" points="1085.54,-305.7 1094.14,-299.52 1083.56,-298.99 1085.54,-305.7"/>
</g>
<!-- Node2&#45;&gt;Node7 -->
<g id="edge6" class="edge">
<title>Node2&#45;&gt;Node7</title>
<path fill="none" stroke="midnightblue" d="M942.56,-336.25C947.75,-317.74 959,-273.18 959,-235 959,-235 959,-235 959,-177 959,-143.72 971.57,-106.58 980.16,-85.09"/>
<polygon fill="midnightblue" stroke="midnightblue" points="983.48,-86.21 984.09,-75.64 977.02,-83.53 983.48,-86.21"/>
</g>
<!-- Node8 -->
<g id="node8" class="node">
<title>Node8</title>
<g id="a_node8"><a xlink:href="components_2tronferno_2app__settings_2include_2app__settings_2config_8h.html" target="_top" xlink:title="Application settings.">
<polygon fill="none" stroke="black" points="1422.5,-168.5 1422.5,-187.5 1477.5,-187.5 1477.5,-168.5 1422.5,-168.5"/>
<text text-anchor="middle" x="1450" y="-175.5" font-family="Helvetica,sans-Serif" font-size="10.00">config.h</text>
</a>
</g>
</g>
<!-- Node2&#45;&gt;Node8 -->
<g id="edge8" class="edge">
<title>Node2&#45;&gt;Node8</title>
<path fill="none" stroke="midnightblue" d="M952.55,-336.43C973.11,-322.73 1015.64,-295.83 1055,-280 1181.44,-229.15 1341.11,-197.66 1412.52,-185.17"/>
<polygon fill="midnightblue" stroke="midnightblue" points="1413.14,-188.61 1422.4,-183.46 1411.95,-181.72 1413.14,-188.61"/>
</g>
<!-- Node2&#45;&gt;Node16 -->
<g id="edge22" class="edge">
<title>Node2&#45;&gt;Node16</title>
<path fill="none" stroke="midnightblue" d="M920.03,-336.44C899.39,-327.6 866.94,-313.69 843.37,-303.59"/>
<polygon fill="midnightblue" stroke="midnightblue" points="844.44,-300.24 833.87,-299.52 841.68,-306.67 844.44,-300.24"/>
</g>
<!-- Node17 -->
<g id="node17" class="node">
<title>Node17</title>
<g id="a_node17"><a xlink:href="settings__template_8hh_source.html" target="_top" xlink:title=" ">
<polygon fill="none" stroke="black" points="811,-224.5 811,-243.5 931,-243.5 931,-224.5 811,-224.5"/>
<text text-anchor="middle" x="871" y="-231.5" font-family="Helvetica,sans-Serif" font-size="10.00">settings_template.hh</text>
</a>
</g>
</g>
<!-- Node2&#45;&gt;Node17 -->
<g id="edge50" class="edge">
<title>Node2&#45;&gt;Node17</title>
<path fill="none" stroke="midnightblue" d="M935.28,-336.47C928.28,-323.93 914.62,-299.86 902,-280 896.02,-270.59 889,-260.34 883.15,-252"/>
<polygon fill="midnightblue" stroke="midnightblue" points="886.01,-249.98 877.37,-243.83 880.29,-254.02 886.01,-249.98"/>
</g>
<!-- Node2&#45;&gt;Node28 -->
<g id="edge51" class="edge">
<title>Node2&#45;&gt;Node28</title>
<path fill="none" stroke="midnightblue" d="M945.4,-336.5C951.01,-327.54 959.95,-312.97 967,-300 1011.42,-218.26 1006.7,-188.93 1059,-112 1066.11,-101.53 1075.54,-91.01 1083.56,-82.78"/>
<polygon fill="midnightblue" stroke="midnightblue" points="1086.09,-85.2 1090.7,-75.66 1081.15,-80.25 1086.09,-85.2"/>
</g>
<!-- Node4 -->
<g id="node4" class="node">
<title>Node4</title>
<g id="a_node4"><a xlink:title=" ">
<polygon fill="none" stroke="#bfbfbf" points="883.5,-0.5 883.5,-19.5 936.5,-19.5 936.5,-0.5 883.5,-0.5"/>
<text text-anchor="middle" x="910" y="-7.5" font-family="Helvetica,sans-Serif" font-size="10.00">stdint.h</text>
</a>
</g>
</g>
<!-- Node3&#45;&gt;Node4 -->
<g id="edge3" class="edge">
<title>Node3&#45;&gt;Node4</title>
<path fill="none" stroke="midnightblue" d="M404.26,-118.64C334.76,-113.88 236.5,-99.48 277,-56 317.72,-12.28 743.85,-10.34 873.07,-10.77"/>
<polygon fill="midnightblue" stroke="midnightblue" points="873.23,-14.27 883.24,-10.81 873.26,-7.27 873.23,-14.27"/>
</g>
<!-- Node5 -->
<g id="node5" class="node">
<title>Node5</title>
<g id="a_node5"><a xlink:title=" ">
<polygon fill="none" stroke="#bfbfbf" points="0,-56.5 0,-75.5 56,-75.5 56,-56.5 0,-56.5"/>
<text text-anchor="middle" x="28" y="-63.5" font-family="Helvetica,sans-Serif" font-size="10.00">stddef.h</text>
</a>
</g>
</g>
<!-- Node3&#45;&gt;Node5 -->
<g id="edge4" class="edge">
<title>Node3&#45;&gt;Node5</title>
<path fill="none" stroke="midnightblue" d="M404.35,-115.88C326.24,-108.96 187.62,-95.24 70,-76 68.76,-75.8 67.5,-75.58 66.23,-75.36"/>
<polygon fill="midnightblue" stroke="midnightblue" points="66.87,-71.92 56.39,-73.48 65.56,-78.79 66.87,-71.92"/>
</g>
<!-- Node7&#45;&gt;Node4 -->
<g id="edge7" class="edge">
<title>Node7&#45;&gt;Node4</title>
<path fill="none" stroke="midnightblue" d="M975.47,-56.32C963.41,-47.98 944.97,-35.21 930.73,-25.35"/>
<polygon fill="midnightblue" stroke="midnightblue" points="932.72,-22.47 922.5,-19.65 928.73,-28.22 932.72,-22.47"/>
</g>
<!-- Node8&#45;&gt;Node9 -->
<g id="edge9" class="edge">
<title>Node8&#45;&gt;Node9</title>
<path fill="none" stroke="midnightblue" d="M1422.34,-171.92C1374.54,-163.14 1275.57,-144.96 1212.66,-133.41"/>
<polygon fill="midnightblue" stroke="midnightblue" points="1212.97,-129.91 1202.51,-131.54 1211.71,-136.79 1212.97,-129.91"/>
</g>
<!-- Node10 -->
<g id="node10" class="node">
<title>Node10</title>
<g id="a_node10"><a xlink:title=" ">
<polygon fill="none" stroke="#bfbfbf" points="1419,-0.5 1419,-19.5 1481,-19.5 1481,-0.5 1419,-0.5"/>
<text text-anchor="middle" x="1450" y="-7.5" font-family="Helvetica,sans-Serif" font-size="10.00">stdbool.h</text>
</a>
</g>
</g>
<!-- Node8&#45;&gt;Node10 -->
<g id="edge21" class="edge">
<title>Node8&#45;&gt;Node10</title>
<path fill="none" stroke="midnightblue" d="M1477.79,-177.51C1511.98,-176.45 1568.83,-168.81 1596,-132 1631.89,-83.38 1541.23,-42.27 1487.06,-22.9"/>
<polygon fill="midnightblue" stroke="midnightblue" points="1488.01,-19.52 1477.41,-19.54 1485.71,-26.13 1488.01,-19.52"/>
</g>
<!-- Node11 -->
<g id="node11" class="node">
<title>Node11</title>
<g id="a_node11"><a xlink:href="fer__pct_8h.html" target="_top" xlink:title="class Pct to represent shutter opening percentage">
<polygon fill="none" stroke="black" points="1396.5,-112.5 1396.5,-131.5 1503.5,-131.5 1503.5,-112.5 1396.5,-112.5"/>
<text text-anchor="middle" x="1450" y="-119.5" font-family="Helvetica,sans-Serif" font-size="10.00">fernotron/fer_pct.h</text>
</a>
</g>
</g>
<!-- Node8&#45;&gt;Node11 -->
<g id="edge12" class="edge">
<title>Node8&#45;&gt;Node11</title>
<path fill="none" stroke="midnightblue" d="M1450,-168.08C1450,-161.01 1450,-150.86 1450,-141.99"/>
<polygon fill="midnightblue" stroke="midnightblue" points="1453.5,-141.75 1450,-131.75 1446.5,-141.75 1453.5,-141.75"/>
</g>
<!-- Node12 -->
<g id="node12" class="node">
<title>Node12</title>
<g id="a_node12"><a xlink:href="astro_8h.html" target="_top" xlink:title="civil dusk timer calculations">
<polygon fill="none" stroke="black" points="1643.5,-112.5 1643.5,-131.5 1760.5,-131.5 1760.5,-112.5 1643.5,-112.5"/>
<text text-anchor="middle" x="1702" y="-119.5" font-family="Helvetica,sans-Serif" font-size="10.00">fernotron_trx/astro.h</text>
</a>
</g>
</g>
<!-- Node8&#45;&gt;Node12 -->
<g id="edge16" class="edge">
<title>Node8&#45;&gt;Node12</title>
<path fill="none" stroke="midnightblue" d="M1477.93,-171.01C1519.86,-162.03 1599.7,-144.92 1651.88,-133.74"/>
<polygon fill="midnightblue" stroke="midnightblue" points="1652.88,-137.1 1661.93,-131.59 1651.42,-130.26 1652.88,-137.1"/>
</g>
<!-- Node14 -->
<g id="node14" class="node">
<title>Node14</title>
<g id="a_node14"><a xlink:href="pin_8h_source.html" target="_top" xlink:title=" ">
<polygon fill="none" stroke="black" points="1521.5,-112.5 1521.5,-131.5 1586.5,-131.5 1586.5,-112.5 1521.5,-112.5"/>
<text text-anchor="middle" x="1554" y="-119.5" font-family="Helvetica,sans-Serif" font-size="10.00">gpio/pin.h</text>
</a>
</g>
</g>
<!-- Node8&#45;&gt;Node14 -->
<g id="edge18" class="edge">
<title>Node8&#45;&gt;Node14</title>
<path fill="none" stroke="midnightblue" d="M1466.71,-168.32C1483.31,-159.7 1509,-146.36 1528.22,-136.39"/>
<polygon fill="midnightblue" stroke="midnightblue" points="1530.07,-139.37 1537.33,-131.65 1526.84,-133.16 1530.07,-139.37"/>
</g>
<!-- Node15 -->
<g id="node15" class="node">
<title>Node15</title>
<g id="a_node15"><a xlink:href="network__connection_8hh_source.html" target="_top" xlink:title=" ">
<polygon fill="none" stroke="black" points="1229.5,-112.5 1229.5,-131.5 1378.5,-131.5 1378.5,-112.5 1229.5,-112.5"/>
<text text-anchor="middle" x="1304" y="-119.5" font-family="Helvetica,sans-Serif" font-size="10.00">net/network_connection.hh</text>
</a>
</g>
</g>
<!-- Node8&#45;&gt;Node15 -->
<g id="edge20" class="edge">
<title>Node8&#45;&gt;Node15</title>
<path fill="none" stroke="midnightblue" d="M1426.87,-168.44C1402.52,-159.44 1363.99,-145.19 1336.58,-135.05"/>
<polygon fill="midnightblue" stroke="midnightblue" points="1337.62,-131.7 1327.03,-131.52 1335.19,-138.27 1337.62,-131.7"/>
</g>
<!-- Node9&#45;&gt;Node4 -->
<g id="edge10" class="edge">
<title>Node9&#45;&gt;Node4</title>
<path fill="none" stroke="midnightblue" d="M1156.13,-112.39C1155.85,-98.39 1153.13,-70.76 1137,-56 1109.65,-30.98 1003.8,-18.65 946.82,-13.71"/>
<polygon fill="midnightblue" stroke="midnightblue" points="947.03,-10.22 936.78,-12.88 946.45,-17.2 947.03,-10.22"/>
</g>
<!-- Node9&#45;&gt;Node10 -->
<g id="edge11" class="edge">
<title>Node9&#45;&gt;Node10</title>
<path fill="none" stroke="midnightblue" d="M1179.07,-112.37C1231.02,-92.93 1357.32,-45.67 1417.32,-23.23"/>
<polygon fill="midnightblue" stroke="midnightblue" points="1418.9,-26.37 1427.04,-19.59 1416.45,-19.82 1418.9,-26.37"/>
</g>
<!-- Node11&#45;&gt;Node4 -->
<g id="edge13" class="edge">
<title>Node11&#45;&gt;Node4</title>
<path fill="none" stroke="midnightblue" d="M1413.55,-112.45C1358.23,-99.57 1249.7,-74.72 1157,-56 1082.57,-40.97 995.05,-25.56 946.73,-17.24"/>
<polygon fill="midnightblue" stroke="midnightblue" points="947.19,-13.77 936.75,-15.53 946.01,-20.67 947.19,-13.77"/>
</g>
<!-- Node11&#45;&gt;Node7 -->
<g id="edge15" class="edge">
<title>Node11&#45;&gt;Node7</title>
<path fill="none" stroke="midnightblue" d="M1396.25,-113.08C1393.46,-112.71 1390.7,-112.35 1388,-112 1247.08,-93.97 1209.06,-92.71 1064.39,-76.15"/>
<polygon fill="midnightblue" stroke="midnightblue" points="1064.58,-72.65 1054.25,-74.98 1063.78,-79.6 1064.58,-72.65"/>
</g>
<!-- Node11&#45;&gt;Node10 -->
<g id="edge14" class="edge">
<title>Node11&#45;&gt;Node10</title>
<path fill="none" stroke="midnightblue" d="M1450,-112.37C1450,-94.62 1450,-53.67 1450,-29.6"/>
<polygon fill="midnightblue" stroke="midnightblue" points="1453.5,-29.59 1450,-19.59 1446.5,-29.59 1453.5,-29.59"/>
</g>
<!-- Node13 -->
<g id="node13" class="node">
<title>Node13</title>
<g id="a_node13"><a xlink:title=" ">
<polygon fill="none" stroke="#bfbfbf" points="1678,-56.5 1678,-75.5 1726,-75.5 1726,-56.5 1678,-56.5"/>
<text text-anchor="middle" x="1702" y="-63.5" font-family="Helvetica,sans-Serif" font-size="10.00">time.h</text>
</a>
</g>
</g>
<!-- Node12&#45;&gt;Node13 -->
<g id="edge17" class="edge">
<title>Node12&#45;&gt;Node13</title>
<path fill="none" stroke="midnightblue" d="M1702,-112.08C1702,-105.01 1702,-94.86 1702,-85.99"/>
<polygon fill="midnightblue" stroke="midnightblue" points="1705.5,-85.75 1702,-75.75 1698.5,-85.75 1705.5,-85.75"/>
</g>
<!-- Node14&#45;&gt;Node10 -->
<g id="edge19" class="edge">
<title>Node14&#45;&gt;Node10</title>
<path fill="none" stroke="midnightblue" d="M1545.84,-112.37C1528.45,-93.97 1487.51,-50.67 1465.18,-27.05"/>
<polygon fill="midnightblue" stroke="midnightblue" points="1467.54,-24.45 1458.12,-19.59 1462.45,-29.26 1467.54,-24.45"/>
</g>
<!-- Node16&#45;&gt;Node3 -->
<g id="edge46" class="edge">
<title>Node16&#45;&gt;Node3</title>
<path fill="none" stroke="midnightblue" d="M797.64,-280.46C780.79,-271.59 753.86,-257.19 731,-244 675.01,-211.7 665.77,-194.91 607,-168 575.79,-153.71 538.75,-142.08 510.47,-134.22"/>
<polygon fill="midnightblue" stroke="midnightblue" points="511.05,-130.75 500.48,-131.5 509.21,-137.51 511.05,-130.75"/>
</g>
<!-- Node16&#45;&gt;Node7 -->
<g id="edge47" class="edge">
<title>Node16&#45;&gt;Node7</title>
<path fill="none" stroke="midnightblue" d="M800.94,-280.44C790.09,-272.47 775.43,-259.52 769,-244 754.06,-207.94 785.93,-196.11 813,-168 839.69,-140.29 846.16,-132.03 879,-112 901.74,-98.14 929.51,-86.74 951.33,-78.89"/>
<polygon fill="midnightblue" stroke="midnightblue" points="952.62,-82.15 960.9,-75.53 950.3,-75.54 952.62,-82.15"/>
</g>
<!-- Node16&#45;&gt;Node9 -->
<g id="edge48" class="edge">
<title>Node16&#45;&gt;Node9</title>
<path fill="none" stroke="midnightblue" d="M842.06,-280.47C867.95,-272.26 907.23,-258.9 940,-244 1013.4,-210.62 1095.22,-161.18 1133.7,-137.15"/>
<polygon fill="midnightblue" stroke="midnightblue" points="1135.91,-139.89 1142.52,-131.61 1132.19,-133.96 1135.91,-139.89"/>
</g>
<!-- Node16&#45;&gt;Node17 -->
<g id="edge23" class="edge">
<title>Node16&#45;&gt;Node17</title>
<path fill="none" stroke="midnightblue" d="M823.16,-280.32C831.5,-272.42 844.03,-260.55 854.18,-250.94"/>
<polygon fill="midnightblue" stroke="midnightblue" points="856.82,-253.25 861.68,-243.83 852.01,-248.17 856.82,-253.25"/>
</g>
<!-- Node16&#45;&gt;Node28 -->
<g id="edge49" class="edge">
<title>Node16&#45;&gt;Node28</title>
<path fill="none" stroke="midnightblue" d="M808.56,-280.13C801.12,-266.73 789.99,-241.09 802,-224 829.16,-185.35 859.61,-208.84 902,-188 958.32,-160.31 967.27,-144.43 1021,-112 1039.02,-101.12 1059.7,-89.37 1075.38,-80.6"/>
<polygon fill="midnightblue" stroke="midnightblue" points="1077.39,-83.49 1084.43,-75.57 1073.99,-77.37 1077.39,-83.49"/>
</g>
<!-- Node17&#45;&gt;Node18 -->
<g id="edge24" class="edge">
<title>Node17&#45;&gt;Node18</title>
<path fill="none" stroke="midnightblue" d="M868.69,-224.08C866.83,-216.93 864.16,-206.64 861.85,-197.69"/>
<polygon fill="midnightblue" stroke="midnightblue" points="865.17,-196.55 859.27,-187.75 858.39,-198.31 865.17,-196.55"/>
</g>
<!-- Node18&#45;&gt;Node3 -->
<g id="edge25" class="edge">
<title>Node18&#45;&gt;Node3</title>
<path fill="none" stroke="midnightblue" d="M821.26,-172.06C757.14,-163.21 621.4,-144.46 537.51,-132.88"/>
<polygon fill="midnightblue" stroke="midnightblue" points="537.93,-129.4 527.55,-131.5 536.98,-136.34 537.93,-129.4"/>
</g>
<!-- Node18&#45;&gt;Node7 -->
<g id="edge43" class="edge">
<title>Node18&#45;&gt;Node7</title>
<path fill="none" stroke="midnightblue" d="M861.04,-168.42C867.73,-154.95 882.26,-128.66 901,-112 916.51,-98.21 937.01,-87.34 954.21,-79.74"/>
<polygon fill="midnightblue" stroke="midnightblue" points="956.05,-82.77 963.89,-75.65 953.32,-76.32 956.05,-82.77"/>
</g>
<!-- Node18&#45;&gt;Node9 -->
<g id="edge44" class="edge">
<title>Node18&#45;&gt;Node9</title>
<path fill="none" stroke="midnightblue" d="M892.77,-170.54C943.76,-161.33 1037.9,-144.33 1098.68,-133.35"/>
<polygon fill="midnightblue" stroke="midnightblue" points="1099.66,-136.73 1108.88,-131.51 1098.42,-129.84 1099.66,-136.73"/>
</g>
<!-- Node19 -->
<g id="node19" class="node">
<title>Node19</title>
<g id="a_node19"><a xlink:href="uout__writer_8hh.html" target="_top" xlink:title="Provide an output class hierarchy which knows about the required format (text or JSON) and write func...">
<polygon fill="none" stroke="black" points="545.5,-112.5 545.5,-131.5 656.5,-131.5 656.5,-112.5 545.5,-112.5"/>
<text text-anchor="middle" x="601" y="-119.5" font-family="Helvetica,sans-Serif" font-size="10.00">uout/uout_writer.hh</text>
</a>
</g>
</g>
<!-- Node18&#45;&gt;Node19 -->
<g id="edge26" class="edge">
<title>Node18&#45;&gt;Node19</title>
<path fill="none" stroke="midnightblue" d="M821.4,-169.49C777.19,-160.16 701.48,-144.19 651.33,-133.62"/>
<polygon fill="midnightblue" stroke="midnightblue" points="651.86,-130.15 641.35,-131.51 650.41,-137 651.86,-130.15"/>
</g>
<!-- Node18&#45;&gt;Node28 -->
<g id="edge45" class="edge">
<title>Node18&#45;&gt;Node28</title>
<path fill="none" stroke="midnightblue" d="M872.25,-168.44C895.69,-155.45 942.13,-130.34 983,-112 1010.45,-99.68 1042.38,-87.55 1065.94,-78.99"/>
<polygon fill="midnightblue" stroke="midnightblue" points="1067.26,-82.23 1075.48,-75.55 1064.89,-75.64 1067.26,-82.23"/>
</g>
<!-- Node19&#45;&gt;Node4 -->
<g id="edge36" class="edge">
<title>Node19&#45;&gt;Node4</title>
<path fill="none" stroke="midnightblue" d="M624.18,-112.43C647.19,-103.76 683.36,-89.73 714,-76 732.14,-67.87 735.49,-63.23 754,-56 793.92,-40.41 841.45,-27.47 873.47,-19.52"/>
<polygon fill="midnightblue" stroke="midnightblue" points="874.41,-22.9 883.29,-17.12 872.75,-16.1 874.41,-22.9"/>
</g>
<!-- Node20 -->
<g id="node20" class="node">
<title>Node20</title>
<g id="a_node20"><a xlink:href="so__out_8h.html" target="_top" xlink:title="write formatted output to UoutWriter">
<polygon fill="none" stroke="black" points="286,-56.5 286,-75.5 344,-75.5 344,-56.5 286,-56.5"/>
<text text-anchor="middle" x="315" y="-63.5" font-family="Helvetica,sans-Serif" font-size="10.00">so_out.h</text>
</a>
</g>
</g>
<!-- Node19&#45;&gt;Node20 -->
<g id="edge27" class="edge">
<title>Node19&#45;&gt;Node20</title>
<path fill="none" stroke="midnightblue" d="M552.99,-112.45C503.92,-103.63 425.56,-89.32 358,-76 356.74,-75.75 355.45,-75.5 354.16,-75.24"/>
<polygon fill="midnightblue" stroke="midnightblue" points="354.62,-71.76 344.13,-73.19 353.23,-78.62 354.62,-71.76"/>
</g>
<!-- Node21 -->
<g id="node21" class="node">
<title>Node21</title>
<g id="a_node21"><a xlink:href="so__target__bits_8h.html" target="_top" xlink:title="flags to select output formats and targets">
<polygon fill="none" stroke="black" points="295.5,-0.5 295.5,-19.5 390.5,-19.5 390.5,-0.5 295.5,-0.5"/>
<text text-anchor="middle" x="343" y="-7.5" font-family="Helvetica,sans-Serif" font-size="10.00">so_target_bits.h</text>
</a>
</g>
</g>
<!-- Node19&#45;&gt;Node21 -->
<g id="edge29" class="edge">
<title>Node19&#45;&gt;Node21</title>
<path fill="none" stroke="midnightblue" d="M552.61,-112.5C494.9,-102.07 404.49,-84.7 391,-76 373.18,-64.51 359.68,-43.93 351.6,-29"/>
<polygon fill="midnightblue" stroke="midnightblue" points="354.54,-27.07 346.89,-19.75 348.3,-30.25 354.54,-27.07"/>
</g>
<!-- Node22 -->
<g id="node22" class="node">
<title>Node22</title>
<g id="a_node22"><a xlink:href="uout__builder__json_8hh.html" target="_top" xlink:title="Create JSON output from key/val pairs.">
<polygon fill="none" stroke="black" points="112,-56.5 112,-75.5 230,-75.5 230,-56.5 112,-56.5"/>
<text text-anchor="middle" x="171" y="-63.5" font-family="Helvetica,sans-Serif" font-size="10.00">uout_builder_json.hh</text>
</a>
</g>
</g>
<!-- Node19&#45;&gt;Node22 -->
<g id="edge30" class="edge">
<title>Node19&#45;&gt;Node22</title>
<path fill="none" stroke="midnightblue" d="M545.34,-113.24C542.18,-112.81 539.05,-112.4 536,-112 433.06,-98.53 313.63,-84.02 240.19,-75.22"/>
<polygon fill="midnightblue" stroke="midnightblue" points="240.49,-71.73 230.14,-74.02 239.66,-78.68 240.49,-71.73"/>
</g>
<!-- Node24 -->
<g id="node24" class="node">
<title>Node24</title>
<g id="a_node24"><a xlink:title=" ">
<polygon fill="none" stroke="#bfbfbf" points="56.5,-0.5 56.5,-19.5 121.5,-19.5 121.5,-0.5 56.5,-0.5"/>
<text text-anchor="middle" x="89" y="-7.5" font-family="Helvetica,sans-Serif" font-size="10.00">functional</text>
</a>
</g>
</g>
<!-- Node19&#45;&gt;Node24 -->
<g id="edge41" class="edge">
<title>Node19&#45;&gt;Node24</title>
<path fill="none" stroke="midnightblue" d="M545.36,-113.09C542.19,-112.71 539.06,-112.34 536,-112 488.02,-106.69 139.27,-107.86 103,-76 90.15,-64.71 87.48,-44.7 87.52,-29.86"/>
<polygon fill="midnightblue" stroke="midnightblue" points="91.02,-29.88 87.95,-19.74 84.03,-29.59 91.02,-29.88"/>
</g>
<!-- Node25 -->
<g id="node25" class="node">
<title>Node25</title>
<g id="a_node25"><a xlink:href="uout__builder__plaintext_8hh_source.html" target="_top" xlink:title=" ">
<polygon fill="none" stroke="black" points="762.5,-56.5 762.5,-75.5 903.5,-75.5 903.5,-56.5 762.5,-56.5"/>
<text text-anchor="middle" x="833" y="-63.5" font-family="Helvetica,sans-Serif" font-size="10.00">uout_builder_plaintext.hh</text>
</a>
</g>
</g>
<!-- Node19&#45;&gt;Node25 -->
<g id="edge33" class="edge">
<title>Node19&#45;&gt;Node25</title>
<path fill="none" stroke="midnightblue" d="M637.76,-112.44C678.06,-103.06 742.81,-87.99 786.58,-77.8"/>
<polygon fill="midnightblue" stroke="midnightblue" points="787.46,-81.19 796.41,-75.52 785.88,-74.37 787.46,-81.19"/>
</g>
<!-- Node26 -->
<g id="node26" class="node">
<title>Node26</title>
<g id="a_node26"><a xlink:title=" ">
<polygon fill="none" stroke="#bfbfbf" points="400,-56.5 400,-75.5 456,-75.5 456,-56.5 400,-56.5"/>
<text text-anchor="middle" x="428" y="-63.5" font-family="Helvetica,sans-Serif" font-size="10.00">unistd.h</text>
</a>
</g>
</g>
<!-- Node19&#45;&gt;Node26 -->
<g id="edge37" class="edge">
<title>Node19&#45;&gt;Node26</title>
<path fill="none" stroke="midnightblue" d="M573.59,-112.44C544.23,-103.28 497.48,-88.69 464.9,-78.52"/>
<polygon fill="midnightblue" stroke="midnightblue" points="465.87,-75.16 455.28,-75.52 463.79,-81.84 465.87,-75.16"/>
</g>
<!-- Node27 -->
<g id="node27" class="node">
<title>Node27</title>
<g id="a_node27"><a xlink:title=" ">
<polygon fill="none" stroke="#bfbfbf" points="474.5,-56.5 474.5,-75.5 527.5,-75.5 527.5,-56.5 474.5,-56.5"/>
<text text-anchor="middle" x="501" y="-63.5" font-family="Helvetica,sans-Serif" font-size="10.00">string.h</text>
</a>
</g>
</g>
<!-- Node19&#45;&gt;Node27 -->
<g id="edge38" class="edge">
<title>Node19&#45;&gt;Node27</title>
<path fill="none" stroke="midnightblue" d="M584.93,-112.32C569.04,-103.74 544.49,-90.49 526.04,-80.52"/>
<polygon fill="midnightblue" stroke="midnightblue" points="527.49,-77.33 517.03,-75.65 524.16,-83.49 527.49,-77.33"/>
</g>
<!-- Node19&#45;&gt;Node28 -->
<g id="edge39" class="edge">
<title>Node19&#45;&gt;Node28</title>
<path fill="none" stroke="midnightblue" d="M656.81,-118.12C742.12,-113.16 910.18,-101.17 1061.84,-75.97"/>
<polygon fill="midnightblue" stroke="midnightblue" points="1062.52,-79.41 1071.8,-74.29 1061.36,-72.5 1062.52,-79.41"/>
</g>
<!-- Node29 -->
<g id="node29" class="node">
<title>Node29</title>
<g id="a_node29"><a xlink:href="itoa_8h_source.html" target="_top" xlink:title=" ">
<polygon fill="none" stroke="black" points="545.5,-56.5 545.5,-75.5 642.5,-75.5 642.5,-56.5 545.5,-56.5"/>
<text text-anchor="middle" x="594" y="-63.5" font-family="Helvetica,sans-Serif" font-size="10.00">utils_misc/itoa.h</text>
</a>
</g>
</g>
<!-- Node19&#45;&gt;Node29 -->
<g id="edge40" class="edge">
<title>Node19&#45;&gt;Node29</title>
<path fill="none" stroke="midnightblue" d="M599.84,-112.08C598.92,-104.93 597.58,-94.64 596.42,-85.69"/>
<polygon fill="midnightblue" stroke="midnightblue" points="599.89,-85.22 595.13,-75.75 592.95,-86.12 599.89,-85.22"/>
</g>
<!-- Node30 -->
<g id="node30" class="node">
<title>Node30</title>
<g id="a_node30"><a xlink:title=" ">
<polygon fill="none" stroke="#bfbfbf" points="660.5,-56.5 660.5,-75.5 705.5,-75.5 705.5,-56.5 660.5,-56.5"/>
<text text-anchor="middle" x="683" y="-63.5" font-family="Helvetica,sans-Serif" font-size="10.00">utility</text>
</a>
</g>
</g>
<!-- Node19&#45;&gt;Node30 -->
<g id="edge42" class="edge">
<title>Node19&#45;&gt;Node30</title>
<path fill="none" stroke="midnightblue" d="M614.17,-112.32C626.85,-103.98 646.23,-91.21 661.21,-81.35"/>
<polygon fill="midnightblue" stroke="midnightblue" points="663.43,-84.08 669.86,-75.65 659.58,-78.23 663.43,-84.08"/>
</g>
<!-- Node20&#45;&gt;Node21 -->
<g id="edge28" class="edge">
<title>Node20&#45;&gt;Node21</title>
<path fill="none" stroke="midnightblue" d="M319.62,-56.08C323.46,-48.69 329.02,-37.95 333.76,-28.81"/>
<polygon fill="midnightblue" stroke="midnightblue" points="336.97,-30.24 338.46,-19.75 330.75,-27.02 336.97,-30.24"/>
</g>
<!-- Node23 -->
<g id="node23" class="node">
<title>Node23</title>
<g id="a_node23"><a xlink:title=" ">
<polygon fill="none" stroke="#bfbfbf" points="144.5,-0.5 144.5,-19.5 197.5,-19.5 197.5,-0.5 144.5,-0.5"/>
<text text-anchor="middle" x="171" y="-7.5" font-family="Helvetica,sans-Serif" font-size="10.00">stdlib.h</text>
</a>
</g>
</g>
<!-- Node22&#45;&gt;Node23 -->
<g id="edge31" class="edge">
<title>Node22&#45;&gt;Node23</title>
<path fill="none" stroke="midnightblue" d="M171,-56.08C171,-49.01 171,-38.86 171,-29.99"/>
<polygon fill="midnightblue" stroke="midnightblue" points="174.5,-29.75 171,-19.75 167.5,-29.75 174.5,-29.75"/>
</g>
<!-- Node22&#45;&gt;Node24 -->
<g id="edge32" class="edge">
<title>Node22&#45;&gt;Node24</title>
<path fill="none" stroke="midnightblue" d="M157.83,-56.32C145.15,-47.98 125.77,-35.21 110.79,-25.35"/>
<polygon fill="midnightblue" stroke="midnightblue" points="112.42,-22.23 102.14,-19.65 108.57,-28.08 112.42,-22.23"/>
</g>
<!-- Node25&#45;&gt;Node4 -->
<g id="edge34" class="edge">
<title>Node25&#45;&gt;Node4</title>
<path fill="none" stroke="midnightblue" d="M845.37,-56.32C857.16,-48.06 875.13,-35.45 889.14,-25.63"/>
<polygon fill="midnightblue" stroke="midnightblue" points="891.48,-28.26 897.66,-19.65 887.46,-22.53 891.48,-28.26"/>
</g>
<!-- Node25&#45;&gt;Node10 -->
<g id="edge35" class="edge">
<title>Node25&#45;&gt;Node10</title>
<path fill="none" stroke="midnightblue" d="M903.66,-56.94C906.81,-56.62 909.94,-56.3 913,-56 1097.72,-37.87 1318.65,-20.82 1408.73,-14.06"/>
<polygon fill="midnightblue" stroke="midnightblue" points="1409.09,-17.54 1418.8,-13.3 1408.57,-10.56 1409.09,-17.54"/>
</g>
</g>
</svg>
        <g id="navigator" transform="translate(0 0)" fill="#404254">
                <rect fill="#f2f5e9" fill-opacity="0.5" stroke="#606060" stroke-width=".5" x="0" y="0" width="60" height="60"/>
                <use id="zoomplus" xlink:href="#zoomPlus" x="17" y="9" onmousedown="handleZoom(evt,'in')"/>
                <use id="zoomminus" xlink:href="#zoomMin" x="42" y="9" onmousedown="handleZoom(evt,'out')"/>
                <use id="reset" xlink:href="#resetDef" x="30" y="36" onmousedown="handleReset()"/>
                <g id="arrowUp" xlink:href="#dirArrow" transform="translate(30 24)" onmousedown="handlePan(0,-1)">
                  <use xlink:href="#rim" fill="#404040">
                        <set attributeName="fill" to="#808080" begin="arrowUp.mouseover" end="arrowUp.mouseout"/>
                  </use>
                  <path fill="none" stroke="white" stroke-width="1.5" d="M0,-3.0v7 M-2.5,-0.5L0,-3.0L2.5,-0.5"/>
                </g>
                <g id="arrowRight" xlink:href="#dirArrow" transform="rotate(90) translate(36 -43)" onmousedown="handlePan(1,0)">
                  <use xlink:href="#rim" fill="#404040">
                        <set attributeName="fill" to="#808080" begin="arrowRight.mouseover" end="arrowRight.mouseout"/>
                  </use>
                  <path fill="none" stroke="white" stroke-width="1.5" d="M0,-3.0v7 M-2.5,-0.5L0,-3.0L2.5,-0.5"/>
                </g>
                <g id="arrowDown" xlink:href="#dirArrow" transform="rotate(180) translate(-30 -48)" onmousedown="handlePan(0,1)">
                  <use xlink:href="#rim" fill="#404040">
                        <set attributeName="fill" to="#808080" begin="arrowDown.mouseover" end="arrowDown.mouseout"/>
                  </use>
                  <path fill="none" stroke="white" stroke-width="1.5" d="M0,-3.0v7 M-2.5,-0.5L0,-3.0L2.5,-0.5"/>
                </g>
                <g id="arrowLeft" xlink:href="#dirArrow" transform="rotate(270) translate(-36 17)" onmousedown="handlePan(-1,0)">
                  <use xlink:href="#rim" fill="#404040">
                        <set attributeName="fill" to="#808080" begin="arrowLeft.mouseover" end="arrowLeft.mouseout"/>
                  </use>
                  <path fill="none" stroke="white" stroke-width="1.5" d="M0,-3.0v7 M-2.5,-0.5L0,-3.0L2.5,-0.5"/>
                </g>
        </g>
        <svg viewBox="0 0 15 15" width="100%" height="30px" preserveAspectRatio="xMaxYMin meet">
         <g id="arrow_out" transform="scale(0.3 0.3)">
          <a xlink:href="app__register__settings_8hh__incl_org.svg" target="_base">
           <rect id="button" ry="5" rx="5" y="6" x="6" height="38" width="38"
                fill="#f2f5e9" fill-opacity="0.5" stroke="#606060" stroke-width="1.0"/>
           <path id="arrow"
             d="M 11.500037,31.436501 C 11.940474,20.09759 22.043105,11.32322 32.158766,21.979434 L 37.068811,17.246167 C 37.068811,17.246167 37.088388,32 37.088388,32 L 22.160133,31.978069 C 22.160133,31.978069 26.997745,27.140456 26.997745,27.140456 C 18.528582,18.264221 13.291696,25.230495 11.500037,31.436501 z"
             style="fill:#404040;"/>
          </a>
         </g>
        </svg>
</svg>
