<?xml version="1.0" encoding="UTF-8" standalone="no"?>
<!DOCTYPE svg PUBLIC "-//W3C//DTD SVG 1.1//EN"
 "http://www.w3.org/Graphics/SVG/1.1/DTD/svg11.dtd">
<!-- Generated by graphviz version 2.43.0 (0)
 -->
<!-- Title: fernotron_trx/astro.h Pages: 1 -->
<svg width="456pt" height="262pt"
 viewBox="0.00 0.00 455.50 262.00" xmlns="http://www.w3.org/2000/svg" xmlns:xlink="http://www.w3.org/1999/xlink">
<g id="graph0" class="graph" transform="scale(1 1) rotate(0) translate(4 258)">
<title>fernotron_trx/astro.h</title>
<!-- Node1 -->
<g id="node1" class="node">
<title>Node1</title>
<g id="a_node1"><a xlink:title="civil dusk timer calculations">
<polygon fill="#bfbfbf" stroke="black" points="167,-234.5 167,-253.5 284,-253.5 284,-234.5 167,-234.5"/>
<text text-anchor="middle" x="225.5" y="-241.5" font-family="Helvetica,sans-Serif" font-size="10.00">fernotron_trx/astro.h</text>
</a>
</g>
</g>
<!-- Node2 -->
<g id="node2" class="node">
<title>Node2</title>
<g id="a_node2"><a xlink:href="components_2tronferno_2app__settings_2include_2app__settings_2config_8h.html" target="_top" xlink:title="Application settings.">
<polygon fill="none" stroke="black" points="26.5,-156.5 26.5,-175.5 146.5,-175.5 146.5,-156.5 26.5,-156.5"/>
<text text-anchor="middle" x="86.5" y="-163.5" font-family="Helvetica,sans-Serif" font-size="10.00">app_settings/config.h</text>
</a>
</g>
</g>
<!-- Node1&#45;&gt;Node2 -->
<g id="edge1" class="edge">
<title>Node1&#45;&gt;Node2</title>
<path fill="none" stroke="midnightblue" d="M200.9,-229.55C172.44,-213.99 126.41,-188.82 102.33,-175.66"/>
<polygon fill="midnightblue" stroke="midnightblue" points="199.37,-232.7 209.83,-234.43 202.73,-226.56 199.37,-232.7"/>
</g>
<!-- Node5 -->
<g id="node5" class="node">
<title>Node5</title>
<g id="a_node5"><a xlink:href="fer__trx__api_8hh.html" target="_top" xlink:title="C++&#45;API for sending and receiving Fernotron RF messages.">
<polygon fill="none" stroke="black" points="167.5,-151 167.5,-181 283.5,-181 283.5,-151 167.5,-151"/>
<text text-anchor="start" x="175.5" y="-169" font-family="Helvetica,sans-Serif" font-size="10.00">fernotron_trx/fer_trx</text>
<text text-anchor="middle" x="225.5" y="-158" font-family="Helvetica,sans-Serif" font-size="10.00">_api.hh</text>
</a>
</g>
</g>
<!-- Node1&#45;&gt;Node5 -->
<g id="edge4" class="edge">
<title>Node1&#45;&gt;Node5</title>
<path fill="none" stroke="midnightblue" d="M225.5,-224.28C225.5,-210.9 225.5,-193.19 225.5,-181.02"/>
<polygon fill="midnightblue" stroke="midnightblue" points="222,-224.28 225.5,-234.28 229,-224.28 222,-224.28"/>
</g>
<!-- Node7 -->
<g id="node7" class="node">
<title>Node7</title>
<g id="a_node7"><a xlink:href="fer__api_8h_source.html" target="_top" xlink:title=" ">
<polygon fill="none" stroke="black" points="301.5,-134.5 301.5,-197.5 447.5,-197.5 447.5,-134.5 301.5,-134.5"/>
<text text-anchor="start" x="309.5" y="-185.5" font-family="Helvetica,sans-Serif" font-size="10.00">/home/bertw/proj/mcu</text>
<text text-anchor="start" x="309.5" y="-174.5" font-family="Helvetica,sans-Serif" font-size="10.00">/tronferno&#45;mcu/external</text>
<text text-anchor="start" x="309.5" y="-163.5" font-family="Helvetica,sans-Serif" font-size="10.00">/tronferno&#45;lib/components</text>
<text text-anchor="start" x="309.5" y="-152.5" font-family="Helvetica,sans-Serif" font-size="10.00">/fernotron_trx/priv_include</text>
<text text-anchor="middle" x="374.5" y="-141.5" font-family="Helvetica,sans-Serif" font-size="10.00">/fer_api.h</text>
</a>
</g>
</g>
<!-- Node1&#45;&gt;Node7 -->
<g id="edge6" class="edge">
<title>Node1&#45;&gt;Node7</title>
<path fill="none" stroke="midnightblue" d="M251.3,-229.84C268.77,-220.93 292.59,-208.78 314.64,-197.53"/>
<polygon fill="midnightblue" stroke="midnightblue" points="249.62,-226.77 242.3,-234.43 252.8,-233 249.62,-226.77"/>
</g>
<!-- Node3 -->
<g id="node3" class="node">
<title>Node3</title>
<g id="a_node3"><a xlink:href="app__settings_8hh.html" target="_top" xlink:title="Settings for application components.">
<polygon fill="none" stroke="black" points="0,-73 0,-92 159,-92 159,-73 0,-73"/>
<text text-anchor="middle" x="79.5" y="-80" font-family="Helvetica,sans-Serif" font-size="10.00">app_settings/app_settings.hh</text>
</a>
</g>
</g>
<!-- Node2&#45;&gt;Node3 -->
<g id="edge2" class="edge">
<title>Node2&#45;&gt;Node3</title>
<path fill="none" stroke="midnightblue" d="M84.86,-145.88C83.4,-128.9 81.34,-104.87 80.24,-92.16"/>
<polygon fill="midnightblue" stroke="midnightblue" points="81.41,-146.61 85.75,-156.28 88.38,-146.02 81.41,-146.61"/>
</g>
<!-- Node4 -->
<g id="node4" class="node">
<title>Node4</title>
<g id="a_node4"><a xlink:href="app__register__settings_8hh.html" target="_top" xlink:title="Settings for application components.">
<polygon fill="none" stroke="black" points="8,-0.5 8,-30.5 151,-30.5 151,-0.5 8,-0.5"/>
<text text-anchor="start" x="16" y="-18.5" font-family="Helvetica,sans-Serif" font-size="10.00">app_settings/app_register</text>
<text text-anchor="middle" x="79.5" y="-7.5" font-family="Helvetica,sans-Serif" font-size="10.00">_settings.hh</text>
</a>
</g>
</g>
<!-- Node3&#45;&gt;Node4 -->
<g id="edge3" class="edge">
<title>Node3&#45;&gt;Node4</title>
<path fill="none" stroke="midnightblue" d="M79.5,-62.41C79.5,-52.22 79.5,-39.9 79.5,-30.59"/>
<polygon fill="midnightblue" stroke="midnightblue" points="76,-62.73 79.5,-72.73 83,-62.73 76,-62.73"/>
</g>
<!-- Node6 -->
<g id="node6" class="node">
<title>Node6</title>
<g id="a_node6"><a xlink:href="fer__print_8h.html" target="_top" xlink:title="Print raw message as formatted text to standard output (for debug purposes).">
<polygon fill="none" stroke="black" points="177.5,-67.5 177.5,-97.5 281.5,-97.5 281.5,-67.5 177.5,-67.5"/>
<text text-anchor="start" x="185.5" y="-85.5" font-family="Helvetica,sans-Serif" font-size="10.00">fernotron/txtio/fer</text>
<text text-anchor="middle" x="229.5" y="-74.5" font-family="Helvetica,sans-Serif" font-size="10.00">_print.h</text>
</a>
</g>
</g>
<!-- Node5&#45;&gt;Node6 -->
<g id="edge5" class="edge">
<title>Node5&#45;&gt;Node6</title>
<path fill="none" stroke="midnightblue" d="M226.69,-140.78C227.38,-126.68 228.23,-109.4 228.81,-97.53"/>
<polygon fill="midnightblue" stroke="midnightblue" points="223.19,-140.64 226.2,-150.8 230.18,-140.99 223.19,-140.64"/>
</g>
</g>
</svg>
