<?xml version="1.0" encoding="UTF-8" standalone="no"?>
<!DOCTYPE svg PUBLIC "-//W3C//DTD SVG 1.1//EN"
 "http://www.w3.org/Graphics/SVG/1.1/DTD/svg11.dtd">
<!-- Generated by graphviz version 2.43.0 (0)
 -->
<!-- Title: UoutWriter::UoutWriter Pages: 1 -->
<svg width="290pt" height="106pt"
 viewBox="0.00 0.00 290.00 106.00" xmlns="http://www.w3.org/2000/svg" xmlns:xlink="http://www.w3.org/1999/xlink">
<g id="graph0" class="graph" transform="scale(1 1) rotate(0) translate(4 102)">
<title>UoutWriter::UoutWriter</title>
<!-- Node1 -->
<g id="node1" class="node">
<title>Node1</title>
<g id="a_node1"><a xlink:title=" ">
<polygon fill="#bfbfbf" stroke="black" points="153,-39 153,-58 282,-58 282,-39 153,-39"/>
<text text-anchor="middle" x="217.5" y="-46" font-family="Helvetica,sans-Serif" font-size="10.00">UoutWriter::UoutWriter</text>
</a>
</g>
</g>
<!-- Node2 -->
<g id="node2" class="node">
<title>Node2</title>
<g id="a_node2"><a xlink:href="classUoutWriterConsole.html#a3e15e456c39c3be7898416dcd5fa32c2" target="_top" xlink:title="construct for local console (fd = STDOUT_FILENO)">
<polygon fill="none" stroke="black" points="1,-67.5 1,-97.5 116,-97.5 116,-67.5 1,-67.5"/>
<text text-anchor="start" x="9" y="-85.5" font-family="Helvetica,sans-Serif" font-size="10.00">UoutWriterConsole::</text>
<text text-anchor="middle" x="58.5" y="-74.5" font-family="Helvetica,sans-Serif" font-size="10.00">UoutWriterConsole</text>
</a>
</g>
</g>
<!-- Node1&#45;&gt;Node2 -->
<g id="edge1" class="edge">
<title>Node1&#45;&gt;Node2</title>
<path fill="none" stroke="midnightblue" d="M162.29,-60.24C147.41,-63.46 131.25,-66.96 116.24,-70.21"/>
<polygon fill="midnightblue" stroke="midnightblue" points="163.32,-63.6 172.35,-58.06 161.83,-56.76 163.32,-63.6"/>
</g>
<!-- Node3 -->
<g id="node3" class="node">
<title>Node3</title>
<g id="a_node3"><a xlink:href="classUoutWriterFunction.html#ab031267e5f6ddb19a8c77656d759c267" target="_top" xlink:title=" ">
<polygon fill="none" stroke="black" points="0,-0.5 0,-30.5 117,-30.5 117,-0.5 0,-0.5"/>
<text text-anchor="start" x="8" y="-18.5" font-family="Helvetica,sans-Serif" font-size="10.00">UoutWriterFunction</text>
<text text-anchor="middle" x="58.5" y="-7.5" font-family="Helvetica,sans-Serif" font-size="10.00">::UoutWriterFunction</text>
</a>
</g>
</g>
<!-- Node1&#45;&gt;Node3 -->
<g id="edge2" class="edge">
<title>Node1&#45;&gt;Node3</title>
<path fill="none" stroke="midnightblue" d="M160.96,-36.83C146.75,-33.84 131.44,-30.62 117.12,-27.61"/>
<polygon fill="midnightblue" stroke="midnightblue" points="160.58,-40.32 171.09,-38.96 162.02,-33.47 160.58,-40.32"/>
</g>
<!-- Node3&#45;&gt;Node3 -->
<g id="edge3" class="edge">
<title>Node3&#45;&gt;Node3</title>
<path fill="none" stroke="midnightblue" d="M86.57,-40.96C83.09,-45.68 73.73,-49 58.5,-49 33.5,-49 24.33,-40.06 30.97,-30.66"/>
<polygon fill="midnightblue" stroke="midnightblue" points="90.05,-40.46 86.03,-30.66 83.06,-40.83 90.05,-40.46"/>
</g>
</g>
</svg>
