<?xml version="1.0" encoding="UTF-8" standalone="no"?>
<!DOCTYPE svg PUBLIC "-//W3C//DTD SVG 1.1//EN"
 "http://www.w3.org/Graphics/SVG/1.1/DTD/svg11.dtd">
<!-- Generated by graphviz version 2.43.0 (0)
 -->
<!-- Title: ContentReader Pages: 1 -->
<svg width="236pt" height="215pt"
 viewBox="0.00 0.00 236.00 215.00" xmlns="http://www.w3.org/2000/svg" xmlns:xlink="http://www.w3.org/1999/xlink">
<g id="graph0" class="graph" transform="scale(1 1) rotate(0) translate(4 211)">
<title>ContentReader</title>
<!-- Node1 -->
<g id="node1" class="node">
<title>Node1</title>
<g id="a_node1"><a xlink:title="base class for serving file like things">
<polygon fill="#bfbfbf" stroke="black" points="54.5,-116.5 54.5,-206.5 170.5,-206.5 170.5,-116.5 54.5,-116.5"/>
<text text-anchor="middle" x="112.5" y="-194.5" font-family="Helvetica,sans-Serif" font-size="10.00">ContentReader</text>
<polyline fill="none" stroke="black" points="54.5,-187.5 170.5,-187.5 "/>
<text text-anchor="middle" x="112.5" y="-175.5" font-family="Helvetica,sans-Serif" font-size="10.00"> </text>
<polyline fill="none" stroke="black" points="54.5,-168.5 170.5,-168.5 "/>
<text text-anchor="start" x="62.5" y="-156.5" font-family="Helvetica,sans-Serif" font-size="10.00">+ ~ContentReader()</text>
<text text-anchor="start" x="62.5" y="-145.5" font-family="Helvetica,sans-Serif" font-size="10.00">+ open()</text>
<text text-anchor="start" x="62.5" y="-134.5" font-family="Helvetica,sans-Serif" font-size="10.00">+ read()</text>
<text text-anchor="start" x="62.5" y="-123.5" font-family="Helvetica,sans-Serif" font-size="10.00">+ close()</text>
</a>
</g>
</g>
<!-- Node2 -->
<g id="node2" class="node">
<title>Node2</title>
<g id="a_node2"><a xlink:href="classCtjContentReader.html" target="_top" xlink:title=" ">
<polygon fill="none" stroke="black" points="0,-0.5 0,-79.5 103,-79.5 103,-0.5 0,-0.5"/>
<text text-anchor="middle" x="51.5" y="-67.5" font-family="Helvetica,sans-Serif" font-size="10.00">CtjContentReader</text>
<polyline fill="none" stroke="black" points="0,-60.5 103,-60.5 "/>
<text text-anchor="middle" x="51.5" y="-48.5" font-family="Helvetica,sans-Serif" font-size="10.00"> </text>
<polyline fill="none" stroke="black" points="0,-41.5 103,-41.5 "/>
<text text-anchor="start" x="8" y="-29.5" font-family="Helvetica,sans-Serif" font-size="10.00">+ open()</text>
<text text-anchor="start" x="8" y="-18.5" font-family="Helvetica,sans-Serif" font-size="10.00">+ read()</text>
<text text-anchor="start" x="8" y="-7.5" font-family="Helvetica,sans-Serif" font-size="10.00">+ close()</text>
</a>
</g>
</g>
<!-- Node1&#45;&gt;Node2 -->
<g id="edge1" class="edge">
<title>Node1&#45;&gt;Node2</title>
<path fill="none" stroke="midnightblue" d="M85.31,-107.23C80.61,-98.02 75.8,-88.6 71.34,-79.86"/>
<polygon fill="none" stroke="midnightblue" points="82.3,-109.03 89.96,-116.34 88.53,-105.84 82.3,-109.03"/>
</g>
<!-- Node3 -->
<g id="node3" class="node">
<title>Node3</title>
<g id="a_node3"><a xlink:href="classFileContentReader.html" target="_top" xlink:title="ContentReader subclass to server files from file system">
<polygon fill="none" stroke="black" points="121,-0.5 121,-79.5 228,-79.5 228,-0.5 121,-0.5"/>
<text text-anchor="middle" x="174.5" y="-67.5" font-family="Helvetica,sans-Serif" font-size="10.00">FileContentReader</text>
<polyline fill="none" stroke="black" points="121,-60.5 228,-60.5 "/>
<text text-anchor="middle" x="174.5" y="-48.5" font-family="Helvetica,sans-Serif" font-size="10.00"> </text>
<polyline fill="none" stroke="black" points="121,-41.5 228,-41.5 "/>
<text text-anchor="start" x="129" y="-29.5" font-family="Helvetica,sans-Serif" font-size="10.00">+ open()</text>
<text text-anchor="start" x="129" y="-18.5" font-family="Helvetica,sans-Serif" font-size="10.00">+ read()</text>
<text text-anchor="start" x="129" y="-7.5" font-family="Helvetica,sans-Serif" font-size="10.00">+ close()</text>
</a>
</g>
</g>
<!-- Node1&#45;&gt;Node3 -->
<g id="edge2" class="edge">
<title>Node1&#45;&gt;Node3</title>
<path fill="none" stroke="midnightblue" d="M140.14,-107.23C144.92,-98.02 149.81,-88.6 154.34,-79.86"/>
<polygon fill="none" stroke="midnightblue" points="136.91,-105.85 135.41,-116.34 143.12,-109.08 136.91,-105.85"/>
</g>
</g>
</svg>
