<?xml version="1.0" encoding="UTF-8" standalone="no"?>
<!DOCTYPE svg PUBLIC "-//W3C//DTD SVG 1.1//EN"
 "http://www.w3.org/Graphics/SVG/1.1/DTD/svg11.dtd">
<!-- Generated by graphviz version 2.43.0 (0)
 -->
<!-- Title: Fer_GmSet::Fer_GmSet Pages: 1 -->
<svg width="304pt" height="66pt"
 viewBox="0.00 0.00 304.00 66.00" xmlns="http://www.w3.org/2000/svg" xmlns:xlink="http://www.w3.org/1999/xlink">
<g id="graph0" class="graph" transform="scale(1 1) rotate(0) translate(4 62)">
<title>Fer_GmSet::Fer_GmSet</title>
<!-- Node1 -->
<g id="node1" class="node">
<title>Node1</title>
<g id="a_node1"><a xlink:title="Construct set from nibble counter (one group per nibble)">
<polygon fill="#bfbfbf" stroke="black" points="0,-19.5 0,-38.5 129,-38.5 129,-19.5 0,-19.5"/>
<text text-anchor="middle" x="64.5" y="-26.5" font-family="Helvetica,sans-Serif" font-size="10.00">Fer_GmSet::Fer_GmSet</text>
</a>
</g>
</g>
<!-- Node2 -->
<g id="node2" class="node">
<title>Node2</title>
<g id="a_node2"><a xlink:href="classFer__GmSet.html#a37dae6859b13f5ffb7aebfb3332d54ca" target="_top" xlink:title="Make the set empty.">
<polygon fill="none" stroke="black" points="180.5,-38.5 180.5,-57.5 280.5,-57.5 280.5,-38.5 180.5,-38.5"/>
<text text-anchor="middle" x="230.5" y="-45.5" font-family="Helvetica,sans-Serif" font-size="10.00">Fer_GmSet::clear</text>
</a>
</g>
</g>
<!-- Node1&#45;&gt;Node2 -->
<g id="edge1" class="edge">
<title>Node1&#45;&gt;Node2</title>
<path fill="none" stroke="midnightblue" d="M129.38,-36.4C142.85,-37.96 157.01,-39.6 170.3,-41.14"/>
<polygon fill="midnightblue" stroke="midnightblue" points="169.94,-44.62 180.27,-42.3 170.74,-37.67 169.94,-44.62"/>
</g>
<!-- Node3 -->
<g id="node3" class="node">
<title>Node3</title>
<g id="a_node3"><a xlink:href="classFer__GmSet.html#ad138492ce27a2eb44ecc22abadd22907" target="_top" xlink:title="Add member.">
<polygon fill="none" stroke="black" points="165,-0.5 165,-19.5 296,-19.5 296,-0.5 165,-0.5"/>
<text text-anchor="middle" x="230.5" y="-7.5" font-family="Helvetica,sans-Serif" font-size="10.00">Fer_GmSet::setMember</text>
</a>
</g>
</g>
<!-- Node1&#45;&gt;Node3 -->
<g id="edge2" class="edge">
<title>Node1&#45;&gt;Node3</title>
<path fill="none" stroke="midnightblue" d="M129.38,-21.6C137.78,-20.63 146.45,-19.62 155.01,-18.63"/>
<polygon fill="midnightblue" stroke="midnightblue" points="155.46,-22.1 164.99,-17.47 154.65,-15.15 155.46,-22.1"/>
</g>
</g>
</svg>
