<?xml version="1.0" encoding="UTF-8" standalone="no"?>
<!DOCTYPE svg PUBLIC "-//W3C//DTD SVG 1.1//EN"
 "http://www.w3.org/Graphics/SVG/1.1/DTD/svg11.dtd">
<!-- Generated by graphviz version 2.43.0 (0)
 -->
<!-- Title: UoutWriter Pages: 1 -->
<svg width="566pt" height="419pt"
 viewBox="0.00 0.00 565.50 419.00" xmlns="http://www.w3.org/2000/svg" xmlns:xlink="http://www.w3.org/1999/xlink">
<g id="graph0" class="graph" transform="scale(1 1) rotate(0) translate(4 415)">
<title>UoutWriter</title>
<!-- Node1 -->
<g id="node1" class="node">
<title>Node1</title>
<g id="a_node1"><a xlink:title="Abstract class which contains various data builders.">
<polygon fill="#bfbfbf" stroke="black" points="227,-116.5 227,-283.5 322,-283.5 322,-116.5 227,-116.5"/>
<text text-anchor="middle" x="274.5" y="-271.5" font-family="Helvetica,sans-Serif" font-size="10.00">UoutWriter</text>
<polyline fill="none" stroke="black" points="227,-264.5 322,-264.5 "/>
<text text-anchor="start" x="235" y="-252.5" font-family="Helvetica,sans-Serif" font-size="10.00"># myTgt</text>
<text text-anchor="start" x="235" y="-241.5" font-family="Helvetica,sans-Serif" font-size="10.00"># mySj</text>
<text text-anchor="start" x="235" y="-230.5" font-family="Helvetica,sans-Serif" font-size="10.00"># myStxt</text>
<text text-anchor="start" x="235" y="-219.5" font-family="Helvetica,sans-Serif" font-size="10.00"># mySo</text>
<polyline fill="none" stroke="black" points="227,-212.5 322,-212.5 "/>
<text text-anchor="start" x="235" y="-200.5" font-family="Helvetica,sans-Serif" font-size="10.00">+ UoutWriter()</text>
<text text-anchor="start" x="235" y="-189.5" font-family="Helvetica,sans-Serif" font-size="10.00">+ UoutWriter()</text>
<text text-anchor="start" x="235" y="-178.5" font-family="Helvetica,sans-Serif" font-size="10.00">+ operator=()</text>
<text text-anchor="start" x="235" y="-167.5" font-family="Helvetica,sans-Serif" font-size="10.00">+ tgt()</text>
<text text-anchor="start" x="235" y="-156.5" font-family="Helvetica,sans-Serif" font-size="10.00">+ add_tgt_flag()</text>
<text text-anchor="start" x="235" y="-145.5" font-family="Helvetica,sans-Serif" font-size="10.00">+ sj()</text>
<text text-anchor="start" x="235" y="-134.5" font-family="Helvetica,sans-Serif" font-size="10.00">+ st()</text>
<text text-anchor="start" x="235" y="-123.5" font-family="Helvetica,sans-Serif" font-size="10.00">+ so()</text>
</a>
</g>
</g>
<!-- Node3 -->
<g id="node3" class="node">
<title>Node3</title>
<g id="a_node3"><a xlink:href="classUoutWriterBuilder.html" target="_top" xlink:title="Build data without an actual data sink for passing to external builder functions expecting a UoutWrit...">
<polygon fill="none" stroke="black" points="0,-11.5 0,-68.5 123,-68.5 123,-11.5 0,-11.5"/>
<text text-anchor="middle" x="61.5" y="-56.5" font-family="Helvetica,sans-Serif" font-size="10.00">UoutWriterBuilder</text>
<polyline fill="none" stroke="black" points="0,-49.5 123,-49.5 "/>
<text text-anchor="middle" x="61.5" y="-37.5" font-family="Helvetica,sans-Serif" font-size="10.00"> </text>
<polyline fill="none" stroke="black" points="0,-30.5 123,-30.5 "/>
<text text-anchor="start" x="8" y="-18.5" font-family="Helvetica,sans-Serif" font-size="10.00">+ UoutWriterBuilder()</text>
</a>
</g>
</g>
<!-- Node1&#45;&gt;Node3 -->
<g id="edge2" class="edge">
<title>Node1&#45;&gt;Node3</title>
<path fill="none" stroke="midnightblue" d="M218.58,-157.52C180.72,-129.44 131.77,-93.12 98.65,-68.55"/>
<polygon fill="none" stroke="midnightblue" points="216.85,-160.59 226.96,-163.74 221.02,-154.97 216.85,-160.59"/>
</g>
<!-- Node4 -->
<g id="node4" class="node">
<title>Node4</title>
<g id="a_node4"><a xlink:href="classUoutWriterConsole.html" target="_top" xlink:title="build data and write to local or remote console (file or socket descriptor)">
<polygon fill="none" stroke="black" points="141.5,-0.5 141.5,-79.5 269.5,-79.5 269.5,-0.5 141.5,-0.5"/>
<text text-anchor="middle" x="205.5" y="-67.5" font-family="Helvetica,sans-Serif" font-size="10.00">UoutWriterConsole</text>
<polyline fill="none" stroke="black" points="141.5,-60.5 269.5,-60.5 "/>
<text text-anchor="middle" x="205.5" y="-48.5" font-family="Helvetica,sans-Serif" font-size="10.00"> </text>
<polyline fill="none" stroke="black" points="141.5,-41.5 269.5,-41.5 "/>
<text text-anchor="start" x="149.5" y="-29.5" font-family="Helvetica,sans-Serif" font-size="10.00">+ UoutWriterConsole()</text>
<text text-anchor="start" x="149.5" y="-18.5" font-family="Helvetica,sans-Serif" font-size="10.00">+ UoutWriterConsole()</text>
<text text-anchor="start" x="149.5" y="-7.5" font-family="Helvetica,sans-Serif" font-size="10.00">+ UoutWriterConsole()</text>
</a>
</g>
</g>
<!-- Node1&#45;&gt;Node4 -->
<g id="edge3" class="edge">
<title>Node1&#45;&gt;Node4</title>
<path fill="none" stroke="midnightblue" d="M234.33,-107.01C230.12,-97.39 226.04,-88.03 222.32,-79.52"/>
<polygon fill="none" stroke="midnightblue" points="231.17,-108.53 238.38,-116.3 237.59,-105.73 231.17,-108.53"/>
</g>
<!-- Node5 -->
<g id="node5" class="node">
<title>Node5</title>
<g id="a_node5"><a xlink:href="classUoutWriterFile.html" target="_top" xlink:title="Build data and, while building, write them to a file while building.">
<polygon fill="none" stroke="black" points="287.5,-0.5 287.5,-79.5 401.5,-79.5 401.5,-0.5 287.5,-0.5"/>
<text text-anchor="middle" x="344.5" y="-67.5" font-family="Helvetica,sans-Serif" font-size="10.00">UoutWriterFile</text>
<polyline fill="none" stroke="black" points="287.5,-60.5 401.5,-60.5 "/>
<text text-anchor="middle" x="344.5" y="-48.5" font-family="Helvetica,sans-Serif" font-size="10.00"> </text>
<polyline fill="none" stroke="black" points="287.5,-41.5 401.5,-41.5 "/>
<text text-anchor="start" x="295.5" y="-29.5" font-family="Helvetica,sans-Serif" font-size="10.00">+ UoutWriterFile()</text>
<text text-anchor="start" x="295.5" y="-18.5" font-family="Helvetica,sans-Serif" font-size="10.00">+ UoutWriterFile()</text>
<text text-anchor="start" x="295.5" y="-7.5" font-family="Helvetica,sans-Serif" font-size="10.00">+ ~UoutWriterFile()</text>
</a>
</g>
</g>
<!-- Node1&#45;&gt;Node5 -->
<g id="edge4" class="edge">
<title>Node1&#45;&gt;Node5</title>
<path fill="none" stroke="midnightblue" d="M315.26,-107.01C319.52,-97.39 323.67,-88.03 327.43,-79.52"/>
<polygon fill="none" stroke="midnightblue" points="311.99,-105.74 311.14,-116.3 318.39,-108.57 311.99,-105.74"/>
</g>
<!-- Node6 -->
<g id="node6" class="node">
<title>Node6</title>
<g id="a_node6"><a xlink:href="classUoutWriterFunction.html" target="_top" xlink:title="Build data and, while building, write them in chunks using a user provided callback function object (...">
<polygon fill="none" stroke="black" points="419.5,-0.5 419.5,-79.5 557.5,-79.5 557.5,-0.5 419.5,-0.5"/>
<text text-anchor="middle" x="488.5" y="-67.5" font-family="Helvetica,sans-Serif" font-size="10.00">UoutWriterFunction</text>
<polyline fill="none" stroke="black" points="419.5,-60.5 557.5,-60.5 "/>
<text text-anchor="middle" x="488.5" y="-48.5" font-family="Helvetica,sans-Serif" font-size="10.00"> </text>
<polyline fill="none" stroke="black" points="419.5,-41.5 557.5,-41.5 "/>
<text text-anchor="start" x="427.5" y="-29.5" font-family="Helvetica,sans-Serif" font-size="10.00">+ UoutWriterFunction()</text>
<text text-anchor="start" x="427.5" y="-18.5" font-family="Helvetica,sans-Serif" font-size="10.00">+ UoutWriterFunction()</text>
<text text-anchor="start" x="427.5" y="-7.5" font-family="Helvetica,sans-Serif" font-size="10.00">+ ~UoutWriterFunction()</text>
</a>
</g>
</g>
<!-- Node1&#45;&gt;Node6 -->
<g id="edge5" class="edge">
<title>Node1&#45;&gt;Node6</title>
<path fill="none" stroke="midnightblue" d="M330.37,-157.75C363.02,-133.65 403.96,-103.41 436.01,-79.75"/>
<polygon fill="none" stroke="midnightblue" points="328.23,-154.98 322.26,-163.74 332.38,-160.61 328.23,-154.98"/>
</g>
<!-- Node2 -->
<g id="node2" class="node">
<title>Node2</title>
<g id="a_node2"><a xlink:href="classUoutRawWriter.html" target="_top" xlink:title="Abstract class which implements public write methods and operators which then call an abstract privat...">
<polygon fill="none" stroke="black" points="215.5,-320.5 215.5,-410.5 333.5,-410.5 333.5,-320.5 215.5,-320.5"/>
<text text-anchor="middle" x="274.5" y="-398.5" font-family="Helvetica,sans-Serif" font-size="10.00">UoutRawWriter</text>
<polyline fill="none" stroke="black" points="215.5,-391.5 333.5,-391.5 "/>
<text text-anchor="middle" x="274.5" y="-379.5" font-family="Helvetica,sans-Serif" font-size="10.00"> </text>
<polyline fill="none" stroke="black" points="215.5,-372.5 333.5,-372.5 "/>
<text text-anchor="start" x="223.5" y="-360.5" font-family="Helvetica,sans-Serif" font-size="10.00">+ write()</text>
<text text-anchor="start" x="223.5" y="-349.5" font-family="Helvetica,sans-Serif" font-size="10.00">+ writeln()</text>
<text text-anchor="start" x="223.5" y="-338.5" font-family="Helvetica,sans-Serif" font-size="10.00">+ write()</text>
<text text-anchor="start" x="223.5" y="-327.5" font-family="Helvetica,sans-Serif" font-size="10.00"># ~UoutRawWriter()</text>
</a>
</g>
</g>
<!-- Node2&#45;&gt;Node1 -->
<g id="edge1" class="edge">
<title>Node2&#45;&gt;Node1</title>
<path fill="none" stroke="midnightblue" d="M274.5,-310.13C274.5,-301.63 274.5,-292.68 274.5,-283.72"/>
<polygon fill="none" stroke="midnightblue" points="271,-310.25 274.5,-320.25 278,-310.25 271,-310.25"/>
</g>
</g>
</svg>
