<?xml version="1.0" encoding="UTF-8" standalone="no"?>
<!DOCTYPE svg PUBLIC "-//W3C//DTD SVG 1.1//EN"
 "http://www.w3.org/Graphics/SVG/1.1/DTD/svg11.dtd">
<!-- Generated by graphviz version 2.43.0 (0)
 -->
<!-- Title: UoutWriterBuilder Pages: 1 -->
<svg width="131pt" height="397pt"
 viewBox="0.00 0.00 131.00 397.00" xmlns="http://www.w3.org/2000/svg" xmlns:xlink="http://www.w3.org/1999/xlink">
<g id="graph0" class="graph" transform="scale(1 1) rotate(0) translate(4 393)">
<title>UoutWriterBuilder</title>
<!-- Node1 -->
<g id="node1" class="node">
<title>Node1</title>
<g id="a_node1"><a xlink:title="Build data without an actual data sink for passing to external builder functions expecting a UoutWrit...">
<polygon fill="#bfbfbf" stroke="black" points="0,-0.5 0,-57.5 123,-57.5 123,-0.5 0,-0.5"/>
<text text-anchor="middle" x="61.5" y="-45.5" font-family="Helvetica,sans-Serif" font-size="10.00">UoutWriterBuilder</text>
<polyline fill="none" stroke="black" points="0,-38.5 123,-38.5 "/>
<text text-anchor="middle" x="61.5" y="-26.5" font-family="Helvetica,sans-Serif" font-size="10.00"> </text>
<polyline fill="none" stroke="black" points="0,-19.5 123,-19.5 "/>
<text text-anchor="start" x="8" y="-7.5" font-family="Helvetica,sans-Serif" font-size="10.00">+ UoutWriterBuilder()</text>
</a>
</g>
</g>
<!-- Node2 -->
<g id="node2" class="node">
<title>Node2</title>
<g id="a_node2"><a xlink:href="classUoutWriter.html" target="_top" xlink:title="Abstract class which contains various data builders.">
<polygon fill="none" stroke="black" points="14,-94.5 14,-261.5 109,-261.5 109,-94.5 14,-94.5"/>
<text text-anchor="middle" x="61.5" y="-249.5" font-family="Helvetica,sans-Serif" font-size="10.00">UoutWriter</text>
<polyline fill="none" stroke="black" points="14,-242.5 109,-242.5 "/>
<text text-anchor="start" x="22" y="-230.5" font-family="Helvetica,sans-Serif" font-size="10.00"># myTgt</text>
<text text-anchor="start" x="22" y="-219.5" font-family="Helvetica,sans-Serif" font-size="10.00"># mySj</text>
<text text-anchor="start" x="22" y="-208.5" font-family="Helvetica,sans-Serif" font-size="10.00"># myStxt</text>
<text text-anchor="start" x="22" y="-197.5" font-family="Helvetica,sans-Serif" font-size="10.00"># mySo</text>
<polyline fill="none" stroke="black" points="14,-190.5 109,-190.5 "/>
<text text-anchor="start" x="22" y="-178.5" font-family="Helvetica,sans-Serif" font-size="10.00">+ UoutWriter()</text>
<text text-anchor="start" x="22" y="-167.5" font-family="Helvetica,sans-Serif" font-size="10.00">+ UoutWriter()</text>
<text text-anchor="start" x="22" y="-156.5" font-family="Helvetica,sans-Serif" font-size="10.00">+ operator=()</text>
<text text-anchor="start" x="22" y="-145.5" font-family="Helvetica,sans-Serif" font-size="10.00">+ tgt()</text>
<text text-anchor="start" x="22" y="-134.5" font-family="Helvetica,sans-Serif" font-size="10.00">+ add_tgt_flag()</text>
<text text-anchor="start" x="22" y="-123.5" font-family="Helvetica,sans-Serif" font-size="10.00">+ sj()</text>
<text text-anchor="start" x="22" y="-112.5" font-family="Helvetica,sans-Serif" font-size="10.00">+ st()</text>
<text text-anchor="start" x="22" y="-101.5" font-family="Helvetica,sans-Serif" font-size="10.00">+ so()</text>
</a>
</g>
</g>
<!-- Node2&#45;&gt;Node1 -->
<g id="edge1" class="edge">
<title>Node2&#45;&gt;Node1</title>
<path fill="none" stroke="midnightblue" d="M61.5,-84.36C61.5,-74.79 61.5,-65.68 61.5,-57.75"/>
<polygon fill="none" stroke="midnightblue" points="58,-84.48 61.5,-94.48 65,-84.48 58,-84.48"/>
</g>
<!-- Node3 -->
<g id="node3" class="node">
<title>Node3</title>
<g id="a_node3"><a xlink:href="classUoutRawWriter.html" target="_top" xlink:title="Abstract class which implements public write methods and operators which then call an abstract privat...">
<polygon fill="none" stroke="black" points="2.5,-298.5 2.5,-388.5 120.5,-388.5 120.5,-298.5 2.5,-298.5"/>
<text text-anchor="middle" x="61.5" y="-376.5" font-family="Helvetica,sans-Serif" font-size="10.00">UoutRawWriter</text>
<polyline fill="none" stroke="black" points="2.5,-369.5 120.5,-369.5 "/>
<text text-anchor="middle" x="61.5" y="-357.5" font-family="Helvetica,sans-Serif" font-size="10.00"> </text>
<polyline fill="none" stroke="black" points="2.5,-350.5 120.5,-350.5 "/>
<text text-anchor="start" x="10.5" y="-338.5" font-family="Helvetica,sans-Serif" font-size="10.00">+ write()</text>
<text text-anchor="start" x="10.5" y="-327.5" font-family="Helvetica,sans-Serif" font-size="10.00">+ writeln()</text>
<text text-anchor="start" x="10.5" y="-316.5" font-family="Helvetica,sans-Serif" font-size="10.00">+ write()</text>
<text text-anchor="start" x="10.5" y="-305.5" font-family="Helvetica,sans-Serif" font-size="10.00"># ~UoutRawWriter()</text>
</a>
</g>
</g>
<!-- Node3&#45;&gt;Node2 -->
<g id="edge2" class="edge">
<title>Node3&#45;&gt;Node2</title>
<path fill="none" stroke="midnightblue" d="M61.5,-288.13C61.5,-279.63 61.5,-270.68 61.5,-261.72"/>
<polygon fill="none" stroke="midnightblue" points="58,-288.25 61.5,-298.25 65,-288.25 58,-288.25"/>
</g>
</g>
</svg>
