<?xml version="1.0" encoding="UTF-8" standalone="no"?>
<!DOCTYPE svg PUBLIC "-//W3C//DTD SVG 1.1//EN"
 "http://www.w3.org/Graphics/SVG/1.1/DTD/svg11.dtd">
<!-- Generated by graphviz version 2.43.0 (0)
 -->
<!-- Title: UoutWriterFunction::UoutWriterFunction Pages: 1 -->
<svg width="290pt" height="57pt"
 viewBox="0.00 0.00 290.00 57.00" xmlns="http://www.w3.org/2000/svg" xmlns:xlink="http://www.w3.org/1999/xlink">
<g id="graph0" class="graph" transform="scale(1 1) rotate(0) translate(4 53)">
<title>UoutWriterFunction::UoutWriterFunction</title>
<!-- Node1 -->
<g id="node1" class="node">
<title>Node1</title>
<g id="a_node1"><a xlink:title=" ">
<polygon fill="#bfbfbf" stroke="black" points="0,-0.5 0,-30.5 117,-30.5 117,-0.5 0,-0.5"/>
<text text-anchor="start" x="8" y="-18.5" font-family="Helvetica,sans-Serif" font-size="10.00">UoutWriterFunction</text>
<text text-anchor="middle" x="58.5" y="-7.5" font-family="Helvetica,sans-Serif" font-size="10.00">::UoutWriterFunction</text>
</a>
</g>
</g>
<!-- Node1&#45;&gt;Node1 -->
<g id="edge2" class="edge">
<title>Node1&#45;&gt;Node1</title>
<path fill="none" stroke="midnightblue" d="M30.97,-30.66C24.33,-40.06 33.5,-49 58.5,-49 73.73,-49 83.09,-45.68 86.57,-40.96"/>
<polygon fill="midnightblue" stroke="midnightblue" points="90.05,-40.46 86.03,-30.66 83.06,-40.83 90.05,-40.46"/>
</g>
<!-- Node2 -->
<g id="node2" class="node">
<title>Node2</title>
<g id="a_node2"><a xlink:href="classUoutWriter.html#a6b1da36d7a2f40f09c1c4c07111ffd66" target="_top" xlink:title=" ">
<polygon fill="none" stroke="black" points="153,-6 153,-25 282,-25 282,-6 153,-6"/>
<text text-anchor="middle" x="217.5" y="-13" font-family="Helvetica,sans-Serif" font-size="10.00">UoutWriter::UoutWriter</text>
</a>
</g>
</g>
<!-- Node1&#45;&gt;Node2 -->
<g id="edge1" class="edge">
<title>Node1&#45;&gt;Node2</title>
<path fill="none" stroke="midnightblue" d="M117.07,-15.5C125.44,-15.5 134.14,-15.5 142.77,-15.5"/>
<polygon fill="midnightblue" stroke="midnightblue" points="142.85,-19 152.85,-15.5 142.85,-12 142.85,-19"/>
</g>
</g>
</svg>
