<?xml version="1.0" encoding="UTF-8" standalone="no"?>
<!DOCTYPE svg PUBLIC "-//W3C//DTD SVG 1.1//EN"
 "http://www.w3.org/Graphics/SVG/1.1/DTD/svg11.dtd">
<!-- Generated by graphviz version 2.43.0 (0)
 -->
<!-- Title: UoutWriterFunction Pages: 1 -->
<svg width="588pt" height="816pt"
 viewBox="0.00 0.00 587.50 816.00" xmlns="http://www.w3.org/2000/svg" xmlns:xlink="http://www.w3.org/1999/xlink">
<g id="graph0" class="graph" transform="scale(1 1) rotate(0) translate(4 812)">
<title>UoutWriterFunction</title>
<!-- Node1 -->
<g id="node1" class="node">
<title>Node1</title>
<g id="a_node1"><a xlink:title="Build data and, while building, write them in chunks using a user provided callback function object (...">
<polygon fill="#bfbfbf" stroke="black" points="220,-0.5 220,-79.5 358,-79.5 358,-0.5 220,-0.5"/>
<text text-anchor="middle" x="289" y="-67.5" font-family="Helvetica,sans-Serif" font-size="10.00">UoutWriterFunction</text>
<polyline fill="none" stroke="black" points="220,-60.5 358,-60.5 "/>
<text text-anchor="middle" x="289" y="-48.5" font-family="Helvetica,sans-Serif" font-size="10.00"> </text>
<polyline fill="none" stroke="black" points="220,-41.5 358,-41.5 "/>
<text text-anchor="start" x="228" y="-29.5" font-family="Helvetica,sans-Serif" font-size="10.00">+ UoutWriterFunction()</text>
<text text-anchor="start" x="228" y="-18.5" font-family="Helvetica,sans-Serif" font-size="10.00">+ UoutWriterFunction()</text>
<text text-anchor="start" x="228" y="-7.5" font-family="Helvetica,sans-Serif" font-size="10.00">+ ~UoutWriterFunction()</text>
</a>
</g>
</g>
<!-- Node2 -->
<g id="node2" class="node">
<title>Node2</title>
<g id="a_node2"><a xlink:href="classUoutWriter.html" target="_top" xlink:title="Abstract class which contains various data builders.">
<polygon fill="none" stroke="black" points="241.5,-117.5 241.5,-251.5 336.5,-251.5 336.5,-117.5 241.5,-117.5"/>
<text text-anchor="middle" x="289" y="-239.5" font-family="Helvetica,sans-Serif" font-size="10.00">UoutWriter</text>
<polyline fill="none" stroke="black" points="241.5,-232.5 336.5,-232.5 "/>
<text text-anchor="start" x="249.5" y="-220.5" font-family="Helvetica,sans-Serif" font-size="10.00"># myTgt</text>
<polyline fill="none" stroke="black" points="241.5,-213.5 336.5,-213.5 "/>
<text text-anchor="start" x="249.5" y="-201.5" font-family="Helvetica,sans-Serif" font-size="10.00">+ UoutWriter()</text>
<text text-anchor="start" x="249.5" y="-190.5" font-family="Helvetica,sans-Serif" font-size="10.00">+ UoutWriter()</text>
<text text-anchor="start" x="249.5" y="-179.5" font-family="Helvetica,sans-Serif" font-size="10.00">+ operator=()</text>
<text text-anchor="start" x="249.5" y="-168.5" font-family="Helvetica,sans-Serif" font-size="10.00">+ tgt()</text>
<text text-anchor="start" x="249.5" y="-157.5" font-family="Helvetica,sans-Serif" font-size="10.00">+ add_tgt_flag()</text>
<text text-anchor="start" x="249.5" y="-146.5" font-family="Helvetica,sans-Serif" font-size="10.00">+ sj()</text>
<text text-anchor="start" x="249.5" y="-135.5" font-family="Helvetica,sans-Serif" font-size="10.00">+ st()</text>
<text text-anchor="start" x="249.5" y="-124.5" font-family="Helvetica,sans-Serif" font-size="10.00">+ so()</text>
</a>
</g>
</g>
<!-- Node2&#45;&gt;Node1 -->
<g id="edge1" class="edge">
<title>Node2&#45;&gt;Node1</title>
<path fill="none" stroke="midnightblue" d="M289,-107.05C289,-97.66 289,-88.38 289,-79.89"/>
<polygon fill="none" stroke="midnightblue" points="285.5,-107.26 289,-117.26 292.5,-107.26 285.5,-107.26"/>
</g>
<!-- Node3 -->
<g id="node3" class="node">
<title>Node3</title>
<g id="a_node3"><a xlink:href="classUoutRawWriter.html" target="_top" xlink:title="Abstract class which implements public write methods and operators which then call an abstract privat...">
<polygon fill="none" stroke="black" points="0,-508.5 0,-598.5 118,-598.5 118,-508.5 0,-508.5"/>
<text text-anchor="middle" x="59" y="-586.5" font-family="Helvetica,sans-Serif" font-size="10.00">UoutRawWriter</text>
<polyline fill="none" stroke="black" points="0,-579.5 118,-579.5 "/>
<text text-anchor="middle" x="59" y="-567.5" font-family="Helvetica,sans-Serif" font-size="10.00"> </text>
<polyline fill="none" stroke="black" points="0,-560.5 118,-560.5 "/>
<text text-anchor="start" x="8" y="-548.5" font-family="Helvetica,sans-Serif" font-size="10.00">+ write()</text>
<text text-anchor="start" x="8" y="-537.5" font-family="Helvetica,sans-Serif" font-size="10.00">+ writeln()</text>
<text text-anchor="start" x="8" y="-526.5" font-family="Helvetica,sans-Serif" font-size="10.00">+ write()</text>
<text text-anchor="start" x="8" y="-515.5" font-family="Helvetica,sans-Serif" font-size="10.00"># ~UoutRawWriter()</text>
</a>
</g>
</g>
<!-- Node3&#45;&gt;Node2 -->
<g id="edge2" class="edge">
<title>Node3&#45;&gt;Node2</title>
<path fill="none" stroke="midnightblue" d="M62.8,-498.15C68.94,-443.49 85.01,-358.96 127,-299 155.86,-257.79 204.74,-226.58 241.28,-207.41"/>
<polygon fill="none" stroke="midnightblue" points="59.29,-498.02 61.73,-508.33 66.26,-498.75 59.29,-498.02"/>
</g>
<!-- Node4 -->
<g id="node4" class="node">
<title>Node4</title>
<g id="a_node4"><a xlink:href="classUoutBuilderPlaintext.html" target="_top" xlink:title="Print key value pairs as text lines with limited length.">
<polygon fill="none" stroke="black" points="136,-508.5 136,-598.5 276,-598.5 276,-508.5 136,-508.5"/>
<text text-anchor="middle" x="206" y="-586.5" font-family="Helvetica,sans-Serif" font-size="10.00">UoutBuilderPlaintext</text>
<polyline fill="none" stroke="black" points="136,-579.5 276,-579.5 "/>
<text text-anchor="middle" x="206" y="-567.5" font-family="Helvetica,sans-Serif" font-size="10.00"> </text>
<polyline fill="none" stroke="black" points="136,-560.5 276,-560.5 "/>
<text text-anchor="start" x="144" y="-548.5" font-family="Helvetica,sans-Serif" font-size="10.00">+ UoutBuilderPlaintext()</text>
<text text-anchor="start" x="144" y="-537.5" font-family="Helvetica,sans-Serif" font-size="10.00">+ cli_out_set_x()</text>
<text text-anchor="start" x="144" y="-526.5" font-family="Helvetica,sans-Serif" font-size="10.00">+ cli_out_x_reply_entry()</text>
<text text-anchor="start" x="144" y="-515.5" font-family="Helvetica,sans-Serif" font-size="10.00">+ cli_out_close()</text>
</a>
</g>
</g>
<!-- Node4&#45;&gt;Node2 -->
<g id="edge3" class="edge">
<title>Node4&#45;&gt;Node2</title>
<path fill="none" stroke="#404040" d="M216.01,-508.23C229.69,-447.73 254.45,-338.25 271.3,-263.75"/>
<polygon fill="none" stroke="#404040" points="271.39,-263.35 268.82,-256.61 274.04,-251.64 276.62,-258.38 271.39,-263.35"/>
<text text-anchor="middle" x="292.5" y="-273" font-family="Helvetica,sans-Serif" font-size="10.00"> #myStxt</text>
</g>
<!-- Node5 -->
<g id="node5" class="node">
<title>Node5</title>
<g id="a_node5"><a xlink:href="classUoutBuilderJson.html" target="_top" xlink:title="Build JSON output gradually by calling member functions (with key/value parameters).">
<polygon fill="none" stroke="black" points="294,-299.5 294,-807.5 450,-807.5 450,-299.5 294,-299.5"/>
<text text-anchor="middle" x="372" y="-795.5" font-family="Helvetica,sans-Serif" font-size="10.00">UoutBuilderJson</text>
<polyline fill="none" stroke="black" points="294,-788.5 450,-788.5 "/>
<text text-anchor="middle" x="372" y="-776.5" font-family="Helvetica,sans-Serif" font-size="10.00"> </text>
<polyline fill="none" stroke="black" points="294,-769.5 450,-769.5 "/>
<text text-anchor="start" x="302" y="-757.5" font-family="Helvetica,sans-Serif" font-size="10.00">+ UoutBuilderJson()</text>
<text text-anchor="start" x="302" y="-746.5" font-family="Helvetica,sans-Serif" font-size="10.00">+ UoutBuilderJson()</text>
<text text-anchor="start" x="302" y="-735.5" font-family="Helvetica,sans-Serif" font-size="10.00">+ ~UoutBuilderJson()</text>
<text text-anchor="start" x="302" y="-724.5" font-family="Helvetica,sans-Serif" font-size="10.00">+ open_root_object()</text>
<text text-anchor="start" x="302" y="-713.5" font-family="Helvetica,sans-Serif" font-size="10.00">+ open_root_object()</text>
<text text-anchor="start" x="302" y="-702.5" font-family="Helvetica,sans-Serif" font-size="10.00">+ close_root_object()</text>
<text text-anchor="start" x="302" y="-691.5" font-family="Helvetica,sans-Serif" font-size="10.00">+ add_object()</text>
<text text-anchor="start" x="302" y="-680.5" font-family="Helvetica,sans-Serif" font-size="10.00">+ add_object()</text>
<text text-anchor="start" x="302" y="-669.5" font-family="Helvetica,sans-Serif" font-size="10.00">+ close_object()</text>
<text text-anchor="start" x="302" y="-658.5" font-family="Helvetica,sans-Serif" font-size="10.00">+ put_kv()</text>
<text text-anchor="start" x="302" y="-647.5" font-family="Helvetica,sans-Serif" font-size="10.00">+ put_kv()</text>
<text text-anchor="start" x="302" y="-636.5" font-family="Helvetica,sans-Serif" font-size="10.00">+ put_kv()</text>
<text text-anchor="start" x="302" y="-625.5" font-family="Helvetica,sans-Serif" font-size="10.00">+ put_kv()</text>
<text text-anchor="start" x="302" y="-614.5" font-family="Helvetica,sans-Serif" font-size="10.00">+ put_kv()</text>
<text text-anchor="start" x="302" y="-603.5" font-family="Helvetica,sans-Serif" font-size="10.00">+ put_kv()</text>
<text text-anchor="start" x="302" y="-592.5" font-family="Helvetica,sans-Serif" font-size="10.00">+ put_kv()</text>
<text text-anchor="start" x="302" y="-581.5" font-family="Helvetica,sans-Serif" font-size="10.00">+ put_kv()</text>
<text text-anchor="start" x="302" y="-570.5" font-family="Helvetica,sans-Serif" font-size="10.00">+ add_key_value_pair_s()</text>
<text text-anchor="start" x="302" y="-559.5" font-family="Helvetica,sans-Serif" font-size="10.00">+ add_key_value_pair_d()</text>
<text text-anchor="start" x="302" y="-548.5" font-family="Helvetica,sans-Serif" font-size="10.00">+ add_key_value_pair_f()</text>
<text text-anchor="start" x="302" y="-537.5" font-family="Helvetica,sans-Serif" font-size="10.00">+ add_key()</text>
<text text-anchor="start" x="302" y="-526.5" font-family="Helvetica,sans-Serif" font-size="10.00">+ add_array()</text>
<text text-anchor="start" x="302" y="-515.5" font-family="Helvetica,sans-Serif" font-size="10.00">+ add_array()</text>
<text text-anchor="start" x="302" y="-504.5" font-family="Helvetica,sans-Serif" font-size="10.00">+ close_array()</text>
<text text-anchor="start" x="302" y="-493.5" font-family="Helvetica,sans-Serif" font-size="10.00">+ add_value_d()</text>
<text text-anchor="start" x="302" y="-482.5" font-family="Helvetica,sans-Serif" font-size="10.00">+ add_value_s()</text>
<text text-anchor="start" x="302" y="-471.5" font-family="Helvetica,sans-Serif" font-size="10.00">+ add_value()</text>
<text text-anchor="start" x="302" y="-460.5" font-family="Helvetica,sans-Serif" font-size="10.00">+ read_json_from_function()</text>
<text text-anchor="start" x="302" y="-449.5" font-family="Helvetica,sans-Serif" font-size="10.00">+ read_json_arr_from</text>
<text text-anchor="start" x="302" y="-438.5" font-family="Helvetica,sans-Serif" font-size="10.00">_function()</text>
<text text-anchor="start" x="302" y="-427.5" font-family="Helvetica,sans-Serif" font-size="10.00">+ read_json_arr2_from</text>
<text text-anchor="start" x="302" y="-416.5" font-family="Helvetica,sans-Serif" font-size="10.00">_function()</text>
<text text-anchor="start" x="302" y="-405.5" font-family="Helvetica,sans-Serif" font-size="10.00">+ copy_to_buf()</text>
<text text-anchor="start" x="302" y="-394.5" font-family="Helvetica,sans-Serif" font-size="10.00">+ cat_to_buf()</text>
<text text-anchor="start" x="302" y="-383.5" font-family="Helvetica,sans-Serif" font-size="10.00">+ get_json()</text>
<text text-anchor="start" x="302" y="-372.5" font-family="Helvetica,sans-Serif" font-size="10.00">+ writeln_json()</text>
<text text-anchor="start" x="302" y="-361.5" font-family="Helvetica,sans-Serif" font-size="10.00">+ write_json()</text>
<text text-anchor="start" x="302" y="-350.5" font-family="Helvetica,sans-Serif" font-size="10.00">+ write_some_json()</text>
<text text-anchor="start" x="302" y="-339.5" font-family="Helvetica,sans-Serif" font-size="10.00">+ free_buffer()</text>
<text text-anchor="start" x="302" y="-328.5" font-family="Helvetica,sans-Serif" font-size="10.00">+ alloc_bigger_buffer()</text>
<text text-anchor="start" x="302" y="-317.5" font-family="Helvetica,sans-Serif" font-size="10.00">+ get_a_buffer()</text>
<text text-anchor="start" x="302" y="-306.5" font-family="Helvetica,sans-Serif" font-size="10.00">+ advance_position()</text>
</a>
</g>
</g>
<!-- Node5&#45;&gt;Node2 -->
<g id="edge4" class="edge">
<title>Node5&#45;&gt;Node2</title>
<path fill="none" stroke="#404040" d="M327.61,-299.43C325.17,-289.46 322.63,-279.62 320,-270 319.38,-267.74 318.73,-265.45 318.05,-263.15"/>
<polygon fill="none" stroke="#404040" points="318.01,-263.04 312.41,-258.5 314.45,-251.58 320.05,-256.12 318.01,-263.04"/>
<text text-anchor="middle" x="341.5" y="-273" font-family="Helvetica,sans-Serif" font-size="10.00"> #mySj</text>
</g>
<!-- Node6 -->
<g id="node6" class="node">
<title>Node6</title>
<g id="a_node6"><a xlink:href="classUoutPrinter.html" target="_top" xlink:title="Format and print output using the help of UoutWriter.">
<polygon fill="none" stroke="black" points="468.5,-453.5 468.5,-653.5 579.5,-653.5 579.5,-453.5 468.5,-453.5"/>
<text text-anchor="middle" x="524" y="-641.5" font-family="Helvetica,sans-Serif" font-size="10.00">UoutPrinter</text>
<polyline fill="none" stroke="black" points="468.5,-634.5 579.5,-634.5 "/>
<text text-anchor="middle" x="524" y="-622.5" font-family="Helvetica,sans-Serif" font-size="10.00"> </text>
<polyline fill="none" stroke="black" points="468.5,-615.5 579.5,-615.5 "/>
<text text-anchor="start" x="476.5" y="-603.5" font-family="Helvetica,sans-Serif" font-size="10.00">+ UoutPrinter()</text>
<text text-anchor="start" x="476.5" y="-592.5" font-family="Helvetica,sans-Serif" font-size="10.00">+ print()</text>
<text text-anchor="start" x="476.5" y="-581.5" font-family="Helvetica,sans-Serif" font-size="10.00">+ print()</text>
<text text-anchor="start" x="476.5" y="-570.5" font-family="Helvetica,sans-Serif" font-size="10.00">+ print()</text>
<text text-anchor="start" x="476.5" y="-559.5" font-family="Helvetica,sans-Serif" font-size="10.00">+ print()</text>
<text text-anchor="start" x="476.5" y="-548.5" font-family="Helvetica,sans-Serif" font-size="10.00">+ print()</text>
<text text-anchor="start" x="476.5" y="-537.5" font-family="Helvetica,sans-Serif" font-size="10.00">+ print()</text>
<text text-anchor="start" x="476.5" y="-526.5" font-family="Helvetica,sans-Serif" font-size="10.00">+ print()</text>
<text text-anchor="start" x="476.5" y="-515.5" font-family="Helvetica,sans-Serif" font-size="10.00">+ x_open()</text>
<text text-anchor="start" x="476.5" y="-504.5" font-family="Helvetica,sans-Serif" font-size="10.00">+ x_close()</text>
<text text-anchor="start" x="476.5" y="-493.5" font-family="Helvetica,sans-Serif" font-size="10.00">+ root_open()</text>
<text text-anchor="start" x="476.5" y="-482.5" font-family="Helvetica,sans-Serif" font-size="10.00">+ root_close()</text>
<text text-anchor="start" x="476.5" y="-471.5" font-family="Helvetica,sans-Serif" font-size="10.00">+ hasOutput_text()</text>
<text text-anchor="start" x="476.5" y="-460.5" font-family="Helvetica,sans-Serif" font-size="10.00">+ hasOutput_json()</text>
</a>
</g>
</g>
<!-- Node6&#45;&gt;Node2 -->
<g id="edge5" class="edge">
<title>Node6&#45;&gt;Node2</title>
<path fill="none" stroke="#404040" d="M515.46,-453.4C507.18,-403.43 490.92,-344.04 459,-299 431.2,-259.77 385.21,-230.28 348.07,-211.2"/>
<polygon fill="none" stroke="#404040" points="347.6,-210.96 340.44,-211.87 336.86,-205.61 344.01,-204.71 347.6,-210.96"/>
<text text-anchor="middle" x="461" y="-273" font-family="Helvetica,sans-Serif" font-size="10.00"> #mySo</text>
</g>
</g>
</svg>
