<?xml version="1.0" encoding="UTF-8" standalone="no"?>
<!DOCTYPE svg PUBLIC "-//W3C//DTD SVG 1.1//EN"
 "http://www.w3.org/Graphics/SVG/1.1/DTD/svg11.dtd">
<!-- Generated by graphviz version 2.43.0 (0)
 -->
<!-- Title: Fer_GmSet::iteratorT::iteratorT Pages: 1 -->
<svg width="641pt" height="104pt"
 viewBox="0.00 0.00 641.00 104.00" xmlns="http://www.w3.org/2000/svg" xmlns:xlink="http://www.w3.org/1999/xlink">
<g id="graph0" class="graph" transform="scale(1 1) rotate(0) translate(4 100)">
<title>Fer_GmSet::iteratorT::iteratorT</title>
<!-- Node1 -->
<g id="node1" class="node">
<title>Node1</title>
<g id="a_node1"><a xlink:title=" ">
<polygon fill="#bfbfbf" stroke="black" points="0,-33 0,-63 118,-63 118,-33 0,-33"/>
<text text-anchor="start" x="8" y="-51" font-family="Helvetica,sans-Serif" font-size="10.00">Fer_GmSet::iteratorT</text>
<text text-anchor="middle" x="59" y="-40" font-family="Helvetica,sans-Serif" font-size="10.00">::iteratorT</text>
</a>
</g>
</g>
<!-- Node2 -->
<g id="node2" class="node">
<title>Node2</title>
<g id="a_node2"><a xlink:href="classFer__Gm__Counter.html#a740d2f8b3cd62d20c4a725c4ce7fd7c1" target="_top" xlink:title="Get current group.">
<polygon fill="none" stroke="black" points="505.5,-76.5 505.5,-95.5 632.5,-95.5 632.5,-76.5 505.5,-76.5"/>
<text text-anchor="middle" x="569" y="-83.5" font-family="Helvetica,sans-Serif" font-size="10.00">Fer_Gm_Counter::getG</text>
</a>
</g>
</g>
<!-- Node1&#45;&gt;Node2 -->
<g id="edge1" class="edge">
<title>Node1&#45;&gt;Node2</title>
<path fill="none" stroke="midnightblue" d="M110.4,-63.02C124.41,-66.75 139.71,-70.42 154,-73 272.04,-94.3 412,-93.36 495.22,-90.12"/>
<polygon fill="midnightblue" stroke="midnightblue" points="495.48,-93.62 505.33,-89.71 495.2,-86.62 495.48,-93.62"/>
</g>
<!-- Node3 -->
<g id="node3" class="node">
<title>Node3</title>
<g id="a_node3"><a xlink:href="classFer__Gm__Counter.html#a86062316d54ebcdd88bd085217f56ce7" target="_top" xlink:title="Get current member.">
<polygon fill="none" stroke="black" points="505,-0.5 505,-19.5 633,-19.5 633,-0.5 505,-0.5"/>
<text text-anchor="middle" x="569" y="-7.5" font-family="Helvetica,sans-Serif" font-size="10.00">Fer_Gm_Counter::getM</text>
</a>
</g>
</g>
<!-- Node1&#45;&gt;Node3 -->
<g id="edge2" class="edge">
<title>Node1&#45;&gt;Node3</title>
<path fill="none" stroke="midnightblue" d="M109.87,-32.93C124.02,-29.15 139.52,-25.47 154,-23 271.9,-2.9 411.34,-3.43 494.57,-6.27"/>
<polygon fill="midnightblue" stroke="midnightblue" points="494.57,-9.77 504.69,-6.63 494.82,-2.77 494.57,-9.77"/>
</g>
<!-- Node4 -->
<g id="node4" class="node">
<title>Node4</title>
<g id="a_node4"><a xlink:href="classFer__GmSet_1_1iteratorT.html#acb58262d1278e0410463ce5690d45dd3" target="_top" xlink:title="Get next group or member.">
<polygon fill="none" stroke="black" points="154,-33 154,-63 272,-63 272,-33 154,-33"/>
<text text-anchor="start" x="162" y="-51" font-family="Helvetica,sans-Serif" font-size="10.00">Fer_GmSet::iteratorT</text>
<text text-anchor="middle" x="213" y="-40" font-family="Helvetica,sans-Serif" font-size="10.00">::operator++</text>
</a>
</g>
</g>
<!-- Node1&#45;&gt;Node4 -->
<g id="edge3" class="edge">
<title>Node1&#45;&gt;Node4</title>
<path fill="none" stroke="midnightblue" d="M118.33,-48C126.61,-48 135.17,-48 143.62,-48"/>
<polygon fill="midnightblue" stroke="midnightblue" points="143.82,-51.5 153.82,-48 143.82,-44.5 143.82,-51.5"/>
</g>
<!-- Node4&#45;&gt;Node2 -->
<g id="edge4" class="edge">
<title>Node4&#45;&gt;Node2</title>
<path fill="none" stroke="midnightblue" d="M272.22,-60.96C284.02,-63.25 296.37,-65.41 308,-67 370.85,-75.61 442.81,-80.49 495.07,-83.14"/>
<polygon fill="midnightblue" stroke="midnightblue" points="495.09,-86.65 505.25,-83.64 495.44,-79.65 495.09,-86.65"/>
</g>
<!-- Node4&#45;&gt;Node3 -->
<g id="edge5" class="edge">
<title>Node4&#45;&gt;Node3</title>
<path fill="none" stroke="midnightblue" d="M272.22,-35.04C284.02,-32.75 296.37,-30.59 308,-29 370.74,-20.4 442.57,-15.53 494.81,-12.87"/>
<polygon fill="midnightblue" stroke="midnightblue" points="495.17,-16.36 504.99,-12.37 494.83,-9.37 495.17,-16.36"/>
</g>
<!-- Node5 -->
<g id="node5" class="node">
<title>Node5</title>
<g id="a_node5"><a xlink:href="classFer__Gm__Counter.html#ae9aa4e4ca6822e0eae3c478f4d4b31ae" target="_top" xlink:title="Increment counter.">
<polygon fill="none" stroke="black" points="308,-38.5 308,-57.5 469,-57.5 469,-38.5 308,-38.5"/>
<text text-anchor="middle" x="388.5" y="-45.5" font-family="Helvetica,sans-Serif" font-size="10.00">Fer_Gm_Counter::operator++</text>
</a>
</g>
</g>
<!-- Node4&#45;&gt;Node5 -->
<g id="edge6" class="edge">
<title>Node4&#45;&gt;Node5</title>
<path fill="none" stroke="midnightblue" d="M272.26,-48C280.46,-48 289.05,-48 297.69,-48"/>
<polygon fill="midnightblue" stroke="midnightblue" points="297.82,-51.5 307.82,-48 297.82,-44.5 297.82,-51.5"/>
</g>
<!-- Node5&#45;&gt;Node2 -->
<g id="edge7" class="edge">
<title>Node5&#45;&gt;Node2</title>
<path fill="none" stroke="midnightblue" d="M434.54,-57.59C458.52,-62.69 488.2,-69.01 513.47,-74.39"/>
<polygon fill="midnightblue" stroke="midnightblue" points="512.77,-77.82 523.28,-76.48 514.23,-70.97 512.77,-77.82"/>
</g>
<!-- Node5&#45;&gt;Node3 -->
<g id="edge8" class="edge">
<title>Node5&#45;&gt;Node3</title>
<path fill="none" stroke="midnightblue" d="M434.54,-38.41C458.52,-33.31 488.2,-26.99 513.47,-21.61"/>
<polygon fill="midnightblue" stroke="midnightblue" points="514.23,-25.03 523.28,-19.52 512.77,-18.18 514.23,-25.03"/>
</g>
</g>
</svg>
