<?xml version="1.0" encoding="UTF-8" standalone="no"?>
<!DOCTYPE svg PUBLIC "-//W3C//DTD SVG 1.1//EN"
 "http://www.w3.org/Graphics/SVG/1.1/DTD/svg11.dtd">
<!-- Generated by graphviz version 2.43.0 (0)
 -->
<!-- Title: UoutWriterFunction Pages: 1 -->
<svg width="146pt" height="419pt"
 viewBox="0.00 0.00 146.00 419.00" xmlns="http://www.w3.org/2000/svg" xmlns:xlink="http://www.w3.org/1999/xlink">
<g id="graph0" class="graph" transform="scale(1 1) rotate(0) translate(4 415)">
<title>UoutWriterFunction</title>
<!-- Node1 -->
<g id="node1" class="node">
<title>Node1</title>
<g id="a_node1"><a xlink:title="Build data and, while building, write them in chunks using a user provided callback function object (...">
<polygon fill="#bfbfbf" stroke="black" points="0,-0.5 0,-79.5 138,-79.5 138,-0.5 0,-0.5"/>
<text text-anchor="middle" x="69" y="-67.5" font-family="Helvetica,sans-Serif" font-size="10.00">UoutWriterFunction</text>
<polyline fill="none" stroke="black" points="0,-60.5 138,-60.5 "/>
<text text-anchor="middle" x="69" y="-48.5" font-family="Helvetica,sans-Serif" font-size="10.00"> </text>
<polyline fill="none" stroke="black" points="0,-41.5 138,-41.5 "/>
<text text-anchor="start" x="8" y="-29.5" font-family="Helvetica,sans-Serif" font-size="10.00">+ UoutWriterFunction()</text>
<text text-anchor="start" x="8" y="-18.5" font-family="Helvetica,sans-Serif" font-size="10.00">+ UoutWriterFunction()</text>
<text text-anchor="start" x="8" y="-7.5" font-family="Helvetica,sans-Serif" font-size="10.00">+ ~UoutWriterFunction()</text>
</a>
</g>
</g>
<!-- Node2 -->
<g id="node2" class="node">
<title>Node2</title>
<g id="a_node2"><a xlink:href="classUoutWriter.html" target="_top" xlink:title="Abstract class which contains various data builders.">
<polygon fill="none" stroke="black" points="21.5,-116.5 21.5,-283.5 116.5,-283.5 116.5,-116.5 21.5,-116.5"/>
<text text-anchor="middle" x="69" y="-271.5" font-family="Helvetica,sans-Serif" font-size="10.00">UoutWriter</text>
<polyline fill="none" stroke="black" points="21.5,-264.5 116.5,-264.5 "/>
<text text-anchor="start" x="29.5" y="-252.5" font-family="Helvetica,sans-Serif" font-size="10.00"># myTgt</text>
<text text-anchor="start" x="29.5" y="-241.5" font-family="Helvetica,sans-Serif" font-size="10.00"># mySj</text>
<text text-anchor="start" x="29.5" y="-230.5" font-family="Helvetica,sans-Serif" font-size="10.00"># myStxt</text>
<text text-anchor="start" x="29.5" y="-219.5" font-family="Helvetica,sans-Serif" font-size="10.00"># mySo</text>
<polyline fill="none" stroke="black" points="21.5,-212.5 116.5,-212.5 "/>
<text text-anchor="start" x="29.5" y="-200.5" font-family="Helvetica,sans-Serif" font-size="10.00">+ UoutWriter()</text>
<text text-anchor="start" x="29.5" y="-189.5" font-family="Helvetica,sans-Serif" font-size="10.00">+ UoutWriter()</text>
<text text-anchor="start" x="29.5" y="-178.5" font-family="Helvetica,sans-Serif" font-size="10.00">+ operator=()</text>
<text text-anchor="start" x="29.5" y="-167.5" font-family="Helvetica,sans-Serif" font-size="10.00">+ tgt()</text>
<text text-anchor="start" x="29.5" y="-156.5" font-family="Helvetica,sans-Serif" font-size="10.00">+ add_tgt_flag()</text>
<text text-anchor="start" x="29.5" y="-145.5" font-family="Helvetica,sans-Serif" font-size="10.00">+ sj()</text>
<text text-anchor="start" x="29.5" y="-134.5" font-family="Helvetica,sans-Serif" font-size="10.00">+ st()</text>
<text text-anchor="start" x="29.5" y="-123.5" font-family="Helvetica,sans-Serif" font-size="10.00">+ so()</text>
</a>
</g>
</g>
<!-- Node2&#45;&gt;Node1 -->
<g id="edge1" class="edge">
<title>Node2&#45;&gt;Node1</title>
<path fill="none" stroke="midnightblue" d="M69,-106.12C69,-96.81 69,-87.76 69,-79.52"/>
<polygon fill="none" stroke="midnightblue" points="65.5,-106.3 69,-116.3 72.5,-106.3 65.5,-106.3"/>
</g>
<!-- Node3 -->
<g id="node3" class="node">
<title>Node3</title>
<g id="a_node3"><a xlink:href="classUoutRawWriter.html" target="_top" xlink:title="Abstract class which implements public write methods and operators which then call an abstract privat...">
<polygon fill="none" stroke="black" points="10,-320.5 10,-410.5 128,-410.5 128,-320.5 10,-320.5"/>
<text text-anchor="middle" x="69" y="-398.5" font-family="Helvetica,sans-Serif" font-size="10.00">UoutRawWriter</text>
<polyline fill="none" stroke="black" points="10,-391.5 128,-391.5 "/>
<text text-anchor="middle" x="69" y="-379.5" font-family="Helvetica,sans-Serif" font-size="10.00"> </text>
<polyline fill="none" stroke="black" points="10,-372.5 128,-372.5 "/>
<text text-anchor="start" x="18" y="-360.5" font-family="Helvetica,sans-Serif" font-size="10.00">+ write()</text>
<text text-anchor="start" x="18" y="-349.5" font-family="Helvetica,sans-Serif" font-size="10.00">+ writeln()</text>
<text text-anchor="start" x="18" y="-338.5" font-family="Helvetica,sans-Serif" font-size="10.00">+ write()</text>
<text text-anchor="start" x="18" y="-327.5" font-family="Helvetica,sans-Serif" font-size="10.00"># ~UoutRawWriter()</text>
</a>
</g>
</g>
<!-- Node3&#45;&gt;Node2 -->
<g id="edge2" class="edge">
<title>Node3&#45;&gt;Node2</title>
<path fill="none" stroke="midnightblue" d="M69,-310.13C69,-301.63 69,-292.68 69,-283.72"/>
<polygon fill="none" stroke="midnightblue" points="65.5,-310.25 69,-320.25 72.5,-310.25 65.5,-310.25"/>
</g>
</g>
</svg>
