<?xml version="1.0" encoding="UTF-8" standalone="no"?>
<!DOCTYPE svg PUBLIC "-//W3C//DTD SVG 1.1//EN"
 "http://www.w3.org/Graphics/SVG/1.1/DTD/svg11.dtd">
<!-- Generated by graphviz version 2.43.0 (0)
 -->
<!-- Title: Weather_Provider Pages: 1 -->
<svg width="310pt" height="204pt"
 viewBox="0.00 0.00 309.50 204.00" xmlns="http://www.w3.org/2000/svg" xmlns:xlink="http://www.w3.org/1999/xlink">
<g id="graph0" class="graph" transform="scale(1 1) rotate(0) translate(4 200)">
<title>Weather_Provider</title>
<!-- Node1 -->
<g id="node1" class="node">
<title>Node1</title>
<g id="a_node1"><a xlink:title="Interface class of a weather data provider.">
<polygon fill="#bfbfbf" stroke="black" points="81,-127.5 81,-195.5 213,-195.5 213,-127.5 81,-127.5"/>
<text text-anchor="middle" x="147" y="-183.5" font-family="Helvetica,sans-Serif" font-size="10.00">Weather_Provider</text>
<polyline fill="none" stroke="black" points="81,-176.5 213,-176.5 "/>
<text text-anchor="middle" x="147" y="-164.5" font-family="Helvetica,sans-Serif" font-size="10.00"> </text>
<polyline fill="none" stroke="black" points="81,-157.5 213,-157.5 "/>
<text text-anchor="start" x="89" y="-145.5" font-family="Helvetica,sans-Serif" font-size="10.00">+ fetch_weather_data()</text>
<text text-anchor="start" x="89" y="-134.5" font-family="Helvetica,sans-Serif" font-size="10.00">+ ~Weather_Provider()</text>
</a>
</g>
</g>
<!-- Node2 -->
<g id="node2" class="node">
<title>Node2</title>
<g id="a_node2"><a xlink:href="classWeather__Provider__Owm.html" target="_top" xlink:title="Weather_Provider subclass for api.openweathermap.org">
<polygon fill="none" stroke="black" points="0,-0.5 0,-90.5 134,-90.5 134,-0.5 0,-0.5"/>
<text text-anchor="middle" x="67" y="-78.5" font-family="Helvetica,sans-Serif" font-size="10.00">Weather_Provider_Owm</text>
<polyline fill="none" stroke="black" points="0,-71.5 134,-71.5 "/>
<text text-anchor="middle" x="67" y="-59.5" font-family="Helvetica,sans-Serif" font-size="10.00"> </text>
<polyline fill="none" stroke="black" points="0,-52.5 134,-52.5 "/>
<text text-anchor="start" x="8" y="-40.5" font-family="Helvetica,sans-Serif" font-size="10.00">+ fetch_weather_data()</text>
<text text-anchor="start" x="8" y="-29.5" font-family="Helvetica,sans-Serif" font-size="10.00">+ get_url()</text>
<text text-anchor="start" x="8" y="-18.5" font-family="Helvetica,sans-Serif" font-size="10.00">+ set_url()</text>
<text text-anchor="start" x="8" y="-7.5" font-family="Helvetica,sans-Serif" font-size="10.00">+ fetch_owm_data()</text>
</a>
</g>
</g>
<!-- Node1&#45;&gt;Node2 -->
<g id="edge1" class="edge">
<title>Node1&#45;&gt;Node2</title>
<path fill="none" stroke="midnightblue" d="M117.85,-118.95C111.38,-109.74 104.51,-99.95 97.97,-90.64"/>
<polygon fill="none" stroke="midnightblue" points="115.04,-121.04 123.65,-127.22 120.77,-117.02 115.04,-121.04"/>
</g>
<!-- Node3 -->
<g id="node3" class="node">
<title>Node3</title>
<g id="a_node3"><a xlink:href="classWeather__Provider__Random.html" target="_top" xlink:title="Weather_Provider subclass for random mock weather data">
<polygon fill="none" stroke="black" points="152.5,-17 152.5,-74 301.5,-74 301.5,-17 152.5,-17"/>
<text text-anchor="middle" x="227" y="-62" font-family="Helvetica,sans-Serif" font-size="10.00">Weather_Provider_Random</text>
<polyline fill="none" stroke="black" points="152.5,-55 301.5,-55 "/>
<text text-anchor="middle" x="227" y="-43" font-family="Helvetica,sans-Serif" font-size="10.00"> </text>
<polyline fill="none" stroke="black" points="152.5,-36 301.5,-36 "/>
<text text-anchor="start" x="160.5" y="-24" font-family="Helvetica,sans-Serif" font-size="10.00">+ fetch_weather_data()</text>
</a>
</g>
</g>
<!-- Node1&#45;&gt;Node3 -->
<g id="edge2" class="edge">
<title>Node1&#45;&gt;Node3</title>
<path fill="none" stroke="midnightblue" d="M176.33,-118.7C186.73,-103.89 198.16,-87.59 207.53,-74.24"/>
<polygon fill="none" stroke="midnightblue" points="173.23,-117.02 170.35,-127.22 178.96,-121.04 173.23,-117.02"/>
</g>
</g>
</svg>
