<?xml version="1.0" encoding="UTF-8" standalone="no"?>
<!DOCTYPE svg PUBLIC "-//W3C//DTD SVG 1.1//EN"
 "http://www.w3.org/Graphics/SVG/1.1/DTD/svg11.dtd">
<!-- Generated by graphviz version 2.43.0 (0)
 -->
<!-- Title: Fer_GmSet::fromNibbleCounters Pages: 1 -->
<svg width="349pt" height="66pt"
 viewBox="0.00 0.00 349.00 66.00" xmlns="http://www.w3.org/2000/svg" xmlns:xlink="http://www.w3.org/1999/xlink">
<g id="graph0" class="graph" transform="scale(1 1) rotate(0) translate(4 62)">
<title>Fer_GmSet::fromNibbleCounters</title>
<!-- Node1 -->
<g id="node1" class="node">
<title>Node1</title>
<g id="a_node1"><a xlink:title="Construct set from nibble counter (one group per nibble)">
<polygon fill="#bfbfbf" stroke="black" points="0,-19.5 0,-38.5 174,-38.5 174,-19.5 0,-19.5"/>
<text text-anchor="middle" x="87" y="-26.5" font-family="Helvetica,sans-Serif" font-size="10.00">Fer_GmSet::fromNibbleCounters</text>
</a>
</g>
</g>
<!-- Node2 -->
<g id="node2" class="node">
<title>Node2</title>
<g id="a_node2"><a xlink:href="classFer__GmSet.html#a37dae6859b13f5ffb7aebfb3332d54ca" target="_top" xlink:title="Make the set empty.">
<polygon fill="none" stroke="black" points="225.5,-38.5 225.5,-57.5 325.5,-57.5 325.5,-38.5 225.5,-38.5"/>
<text text-anchor="middle" x="275.5" y="-45.5" font-family="Helvetica,sans-Serif" font-size="10.00">Fer_GmSet::clear</text>
</a>
</g>
</g>
<!-- Node1&#45;&gt;Node2 -->
<g id="edge1" class="edge">
<title>Node1&#45;&gt;Node2</title>
<path fill="none" stroke="midnightblue" d="M174.15,-37.78C188.01,-39.19 202.08,-40.62 215.12,-41.95"/>
<polygon fill="midnightblue" stroke="midnightblue" points="215.04,-45.46 225.34,-42.99 215.75,-38.5 215.04,-45.46"/>
</g>
<!-- Node3 -->
<g id="node3" class="node">
<title>Node3</title>
<g id="a_node3"><a xlink:href="classFer__GmSet.html#ad138492ce27a2eb44ecc22abadd22907" target="_top" xlink:title="Add member.">
<polygon fill="none" stroke="black" points="210,-0.5 210,-19.5 341,-19.5 341,-0.5 210,-0.5"/>
<text text-anchor="middle" x="275.5" y="-7.5" font-family="Helvetica,sans-Serif" font-size="10.00">Fer_GmSet::setMember</text>
</a>
</g>
</g>
<!-- Node1&#45;&gt;Node3 -->
<g id="edge2" class="edge">
<title>Node1&#45;&gt;Node3</title>
<path fill="none" stroke="midnightblue" d="M174.15,-20.22C182.7,-19.35 191.33,-18.47 199.75,-17.62"/>
<polygon fill="midnightblue" stroke="midnightblue" points="200.31,-21.08 209.9,-16.58 199.6,-14.11 200.31,-21.08"/>
</g>
</g>
</svg>
