<?xml version="1.0" encoding="UTF-8" standalone="no"?>
<!DOCTYPE svg PUBLIC "-//W3C//DTD SVG 1.1//EN"
 "http://www.w3.org/Graphics/SVG/1.1/DTD/svg11.dtd">
<!-- Generated by graphviz version 2.43.0 (0)
 -->
<!-- Title: Weather_Provider_Random Pages: 1 -->
<svg width="157pt" height="171pt"
 viewBox="0.00 0.00 157.00 171.00" xmlns="http://www.w3.org/2000/svg" xmlns:xlink="http://www.w3.org/1999/xlink">
<g id="graph0" class="graph" transform="scale(1 1) rotate(0) translate(4 167)">
<title>Weather_Provider_Random</title>
<!-- Node1 -->
<g id="node1" class="node">
<title>Node1</title>
<g id="a_node1"><a xlink:title="Weather_Provider subclass for random mock weather data">
<polygon fill="#bfbfbf" stroke="black" points="0,-0.5 0,-57.5 149,-57.5 149,-0.5 0,-0.5"/>
<text text-anchor="middle" x="74.5" y="-45.5" font-family="Helvetica,sans-Serif" font-size="10.00">Weather_Provider_Random</text>
<polyline fill="none" stroke="black" points="0,-38.5 149,-38.5 "/>
<text text-anchor="middle" x="74.5" y="-26.5" font-family="Helvetica,sans-Serif" font-size="10.00"> </text>
<polyline fill="none" stroke="black" points="0,-19.5 149,-19.5 "/>
<text text-anchor="start" x="8" y="-7.5" font-family="Helvetica,sans-Serif" font-size="10.00">+ fetch_weather_data()</text>
</a>
</g>
</g>
<!-- Node2 -->
<g id="node2" class="node">
<title>Node2</title>
<g id="a_node2"><a xlink:href="classWeather__Provider.html" target="_top" xlink:title="Interface class of a weather data provider.">
<polygon fill="none" stroke="black" points="8.5,-94.5 8.5,-162.5 140.5,-162.5 140.5,-94.5 8.5,-94.5"/>
<text text-anchor="middle" x="74.5" y="-150.5" font-family="Helvetica,sans-Serif" font-size="10.00">Weather_Provider</text>
<polyline fill="none" stroke="black" points="8.5,-143.5 140.5,-143.5 "/>
<text text-anchor="middle" x="74.5" y="-131.5" font-family="Helvetica,sans-Serif" font-size="10.00"> </text>
<polyline fill="none" stroke="black" points="8.5,-124.5 140.5,-124.5 "/>
<text text-anchor="start" x="16.5" y="-112.5" font-family="Helvetica,sans-Serif" font-size="10.00">+ fetch_weather_data()</text>
<text text-anchor="start" x="16.5" y="-101.5" font-family="Helvetica,sans-Serif" font-size="10.00">+ ~Weather_Provider()</text>
</a>
</g>
</g>
<!-- Node2&#45;&gt;Node1 -->
<g id="edge1" class="edge">
<title>Node2&#45;&gt;Node1</title>
<path fill="none" stroke="midnightblue" d="M74.5,-84.45C74.5,-75.4 74.5,-66.09 74.5,-57.78"/>
<polygon fill="none" stroke="midnightblue" points="71,-84.49 74.5,-94.49 78,-84.49 71,-84.49"/>
</g>
</g>
</svg>
