<?xml version="1.0" encoding="UTF-8" standalone="no"?>
<!DOCTYPE svg PUBLIC "-//W3C//DTD SVG 1.1//EN"
 "http://www.w3.org/Graphics/SVG/1.1/DTD/svg11.dtd">
<!-- Generated by graphviz version 2.43.0 (0)
 -->
<!-- Title: UoutWriterBuilder Pages: 1 -->
<svg width="588pt" height="794pt"
 viewBox="0.00 0.00 587.50 794.00" xmlns="http://www.w3.org/2000/svg" xmlns:xlink="http://www.w3.org/1999/xlink">
<g id="graph0" class="graph" transform="scale(1 1) rotate(0) translate(4 790)">
<title>UoutWriterBuilder</title>
<!-- Node1 -->
<g id="node1" class="node">
<title>Node1</title>
<g id="a_node1"><a xlink:title="Build data without an actual data sink for passing to external builder functions expecting a UoutWrit...">
<polygon fill="#bfbfbf" stroke="black" points="227.5,-0.5 227.5,-57.5 350.5,-57.5 350.5,-0.5 227.5,-0.5"/>
<text text-anchor="middle" x="289" y="-45.5" font-family="Helvetica,sans-Serif" font-size="10.00">UoutWriterBuilder</text>
<polyline fill="none" stroke="black" points="227.5,-38.5 350.5,-38.5 "/>
<text text-anchor="middle" x="289" y="-26.5" font-family="Helvetica,sans-Serif" font-size="10.00"> </text>
<polyline fill="none" stroke="black" points="227.5,-19.5 350.5,-19.5 "/>
<text text-anchor="start" x="235.5" y="-7.5" font-family="Helvetica,sans-Serif" font-size="10.00">+ UoutWriterBuilder()</text>
</a>
</g>
</g>
<!-- Node2 -->
<g id="node2" class="node">
<title>Node2</title>
<g id="a_node2"><a xlink:href="classUoutWriter.html" target="_top" xlink:title="Abstract class which contains various data builders.">
<polygon fill="none" stroke="black" points="241.5,-95.5 241.5,-229.5 336.5,-229.5 336.5,-95.5 241.5,-95.5"/>
<text text-anchor="middle" x="289" y="-217.5" font-family="Helvetica,sans-Serif" font-size="10.00">UoutWriter</text>
<polyline fill="none" stroke="black" points="241.5,-210.5 336.5,-210.5 "/>
<text text-anchor="start" x="249.5" y="-198.5" font-family="Helvetica,sans-Serif" font-size="10.00"># myTgt</text>
<polyline fill="none" stroke="black" points="241.5,-191.5 336.5,-191.5 "/>
<text text-anchor="start" x="249.5" y="-179.5" font-family="Helvetica,sans-Serif" font-size="10.00">+ UoutWriter()</text>
<text text-anchor="start" x="249.5" y="-168.5" font-family="Helvetica,sans-Serif" font-size="10.00">+ UoutWriter()</text>
<text text-anchor="start" x="249.5" y="-157.5" font-family="Helvetica,sans-Serif" font-size="10.00">+ operator=()</text>
<text text-anchor="start" x="249.5" y="-146.5" font-family="Helvetica,sans-Serif" font-size="10.00">+ tgt()</text>
<text text-anchor="start" x="249.5" y="-135.5" font-family="Helvetica,sans-Serif" font-size="10.00">+ add_tgt_flag()</text>
<text text-anchor="start" x="249.5" y="-124.5" font-family="Helvetica,sans-Serif" font-size="10.00">+ sj()</text>
<text text-anchor="start" x="249.5" y="-113.5" font-family="Helvetica,sans-Serif" font-size="10.00">+ st()</text>
<text text-anchor="start" x="249.5" y="-102.5" font-family="Helvetica,sans-Serif" font-size="10.00">+ so()</text>
</a>
</g>
</g>
<!-- Node2&#45;&gt;Node1 -->
<g id="edge1" class="edge">
<title>Node2&#45;&gt;Node1</title>
<path fill="none" stroke="midnightblue" d="M289,-85.12C289,-75.36 289,-65.92 289,-57.7"/>
<polygon fill="none" stroke="midnightblue" points="285.5,-85.36 289,-95.36 292.5,-85.36 285.5,-85.36"/>
</g>
<!-- Node3 -->
<g id="node3" class="node">
<title>Node3</title>
<g id="a_node3"><a xlink:href="classUoutRawWriter.html" target="_top" xlink:title="Abstract class which implements public write methods and operators which then call an abstract privat...">
<polygon fill="none" stroke="black" points="0,-486.5 0,-576.5 118,-576.5 118,-486.5 0,-486.5"/>
<text text-anchor="middle" x="59" y="-564.5" font-family="Helvetica,sans-Serif" font-size="10.00">UoutRawWriter</text>
<polyline fill="none" stroke="black" points="0,-557.5 118,-557.5 "/>
<text text-anchor="middle" x="59" y="-545.5" font-family="Helvetica,sans-Serif" font-size="10.00"> </text>
<polyline fill="none" stroke="black" points="0,-538.5 118,-538.5 "/>
<text text-anchor="start" x="8" y="-526.5" font-family="Helvetica,sans-Serif" font-size="10.00">+ write()</text>
<text text-anchor="start" x="8" y="-515.5" font-family="Helvetica,sans-Serif" font-size="10.00">+ writeln()</text>
<text text-anchor="start" x="8" y="-504.5" font-family="Helvetica,sans-Serif" font-size="10.00">+ write()</text>
<text text-anchor="start" x="8" y="-493.5" font-family="Helvetica,sans-Serif" font-size="10.00"># ~UoutRawWriter()</text>
</a>
</g>
</g>
<!-- Node3&#45;&gt;Node2 -->
<g id="edge2" class="edge">
<title>Node3&#45;&gt;Node2</title>
<path fill="none" stroke="midnightblue" d="M62.8,-476.15C68.94,-421.49 85.01,-336.96 127,-277 155.86,-235.79 204.74,-204.58 241.28,-185.41"/>
<polygon fill="none" stroke="midnightblue" points="59.29,-476.02 61.73,-486.33 66.26,-476.75 59.29,-476.02"/>
</g>
<!-- Node4 -->
<g id="node4" class="node">
<title>Node4</title>
<g id="a_node4"><a xlink:href="classUoutBuilderPlaintext.html" target="_top" xlink:title="Print key value pairs as text lines with limited length.">
<polygon fill="none" stroke="black" points="136,-486.5 136,-576.5 276,-576.5 276,-486.5 136,-486.5"/>
<text text-anchor="middle" x="206" y="-564.5" font-family="Helvetica,sans-Serif" font-size="10.00">UoutBuilderPlaintext</text>
<polyline fill="none" stroke="black" points="136,-557.5 276,-557.5 "/>
<text text-anchor="middle" x="206" y="-545.5" font-family="Helvetica,sans-Serif" font-size="10.00"> </text>
<polyline fill="none" stroke="black" points="136,-538.5 276,-538.5 "/>
<text text-anchor="start" x="144" y="-526.5" font-family="Helvetica,sans-Serif" font-size="10.00">+ UoutBuilderPlaintext()</text>
<text text-anchor="start" x="144" y="-515.5" font-family="Helvetica,sans-Serif" font-size="10.00">+ cli_out_set_x()</text>
<text text-anchor="start" x="144" y="-504.5" font-family="Helvetica,sans-Serif" font-size="10.00">+ cli_out_x_reply_entry()</text>
<text text-anchor="start" x="144" y="-493.5" font-family="Helvetica,sans-Serif" font-size="10.00">+ cli_out_close()</text>
</a>
</g>
</g>
<!-- Node4&#45;&gt;Node2 -->
<g id="edge3" class="edge">
<title>Node4&#45;&gt;Node2</title>
<path fill="none" stroke="#404040" d="M216.01,-486.23C229.69,-425.73 254.45,-316.25 271.3,-241.75"/>
<polygon fill="none" stroke="#404040" points="271.39,-241.35 268.82,-234.61 274.04,-229.64 276.62,-236.38 271.39,-241.35"/>
<text text-anchor="middle" x="292.5" y="-251" font-family="Helvetica,sans-Serif" font-size="10.00"> #myStxt</text>
</g>
<!-- Node5 -->
<g id="node5" class="node">
<title>Node5</title>
<g id="a_node5"><a xlink:href="classUoutBuilderJson.html" target="_top" xlink:title="Build JSON output gradually by calling member functions (with key/value parameters).">
<polygon fill="none" stroke="black" points="294,-277.5 294,-785.5 450,-785.5 450,-277.5 294,-277.5"/>
<text text-anchor="middle" x="372" y="-773.5" font-family="Helvetica,sans-Serif" font-size="10.00">UoutBuilderJson</text>
<polyline fill="none" stroke="black" points="294,-766.5 450,-766.5 "/>
<text text-anchor="middle" x="372" y="-754.5" font-family="Helvetica,sans-Serif" font-size="10.00"> </text>
<polyline fill="none" stroke="black" points="294,-747.5 450,-747.5 "/>
<text text-anchor="start" x="302" y="-735.5" font-family="Helvetica,sans-Serif" font-size="10.00">+ UoutBuilderJson()</text>
<text text-anchor="start" x="302" y="-724.5" font-family="Helvetica,sans-Serif" font-size="10.00">+ UoutBuilderJson()</text>
<text text-anchor="start" x="302" y="-713.5" font-family="Helvetica,sans-Serif" font-size="10.00">+ ~UoutBuilderJson()</text>
<text text-anchor="start" x="302" y="-702.5" font-family="Helvetica,sans-Serif" font-size="10.00">+ open_root_object()</text>
<text text-anchor="start" x="302" y="-691.5" font-family="Helvetica,sans-Serif" font-size="10.00">+ open_root_object()</text>
<text text-anchor="start" x="302" y="-680.5" font-family="Helvetica,sans-Serif" font-size="10.00">+ close_root_object()</text>
<text text-anchor="start" x="302" y="-669.5" font-family="Helvetica,sans-Serif" font-size="10.00">+ add_object()</text>
<text text-anchor="start" x="302" y="-658.5" font-family="Helvetica,sans-Serif" font-size="10.00">+ add_object()</text>
<text text-anchor="start" x="302" y="-647.5" font-family="Helvetica,sans-Serif" font-size="10.00">+ close_object()</text>
<text text-anchor="start" x="302" y="-636.5" font-family="Helvetica,sans-Serif" font-size="10.00">+ put_kv()</text>
<text text-anchor="start" x="302" y="-625.5" font-family="Helvetica,sans-Serif" font-size="10.00">+ put_kv()</text>
<text text-anchor="start" x="302" y="-614.5" font-family="Helvetica,sans-Serif" font-size="10.00">+ put_kv()</text>
<text text-anchor="start" x="302" y="-603.5" font-family="Helvetica,sans-Serif" font-size="10.00">+ put_kv()</text>
<text text-anchor="start" x="302" y="-592.5" font-family="Helvetica,sans-Serif" font-size="10.00">+ put_kv()</text>
<text text-anchor="start" x="302" y="-581.5" font-family="Helvetica,sans-Serif" font-size="10.00">+ put_kv()</text>
<text text-anchor="start" x="302" y="-570.5" font-family="Helvetica,sans-Serif" font-size="10.00">+ put_kv()</text>
<text text-anchor="start" x="302" y="-559.5" font-family="Helvetica,sans-Serif" font-size="10.00">+ put_kv()</text>
<text text-anchor="start" x="302" y="-548.5" font-family="Helvetica,sans-Serif" font-size="10.00">+ add_key_value_pair_s()</text>
<text text-anchor="start" x="302" y="-537.5" font-family="Helvetica,sans-Serif" font-size="10.00">+ add_key_value_pair_d()</text>
<text text-anchor="start" x="302" y="-526.5" font-family="Helvetica,sans-Serif" font-size="10.00">+ add_key_value_pair_f()</text>
<text text-anchor="start" x="302" y="-515.5" font-family="Helvetica,sans-Serif" font-size="10.00">+ add_key()</text>
<text text-anchor="start" x="302" y="-504.5" font-family="Helvetica,sans-Serif" font-size="10.00">+ add_array()</text>
<text text-anchor="start" x="302" y="-493.5" font-family="Helvetica,sans-Serif" font-size="10.00">+ add_array()</text>
<text text-anchor="start" x="302" y="-482.5" font-family="Helvetica,sans-Serif" font-size="10.00">+ close_array()</text>
<text text-anchor="start" x="302" y="-471.5" font-family="Helvetica,sans-Serif" font-size="10.00">+ add_value_d()</text>
<text text-anchor="start" x="302" y="-460.5" font-family="Helvetica,sans-Serif" font-size="10.00">+ add_value_s()</text>
<text text-anchor="start" x="302" y="-449.5" font-family="Helvetica,sans-Serif" font-size="10.00">+ add_value()</text>
<text text-anchor="start" x="302" y="-438.5" font-family="Helvetica,sans-Serif" font-size="10.00">+ read_json_from_function()</text>
<text text-anchor="start" x="302" y="-427.5" font-family="Helvetica,sans-Serif" font-size="10.00">+ read_json_arr_from</text>
<text text-anchor="start" x="302" y="-416.5" font-family="Helvetica,sans-Serif" font-size="10.00">_function()</text>
<text text-anchor="start" x="302" y="-405.5" font-family="Helvetica,sans-Serif" font-size="10.00">+ read_json_arr2_from</text>
<text text-anchor="start" x="302" y="-394.5" font-family="Helvetica,sans-Serif" font-size="10.00">_function()</text>
<text text-anchor="start" x="302" y="-383.5" font-family="Helvetica,sans-Serif" font-size="10.00">+ copy_to_buf()</text>
<text text-anchor="start" x="302" y="-372.5" font-family="Helvetica,sans-Serif" font-size="10.00">+ cat_to_buf()</text>
<text text-anchor="start" x="302" y="-361.5" font-family="Helvetica,sans-Serif" font-size="10.00">+ get_json()</text>
<text text-anchor="start" x="302" y="-350.5" font-family="Helvetica,sans-Serif" font-size="10.00">+ writeln_json()</text>
<text text-anchor="start" x="302" y="-339.5" font-family="Helvetica,sans-Serif" font-size="10.00">+ write_json()</text>
<text text-anchor="start" x="302" y="-328.5" font-family="Helvetica,sans-Serif" font-size="10.00">+ write_some_json()</text>
<text text-anchor="start" x="302" y="-317.5" font-family="Helvetica,sans-Serif" font-size="10.00">+ free_buffer()</text>
<text text-anchor="start" x="302" y="-306.5" font-family="Helvetica,sans-Serif" font-size="10.00">+ alloc_bigger_buffer()</text>
<text text-anchor="start" x="302" y="-295.5" font-family="Helvetica,sans-Serif" font-size="10.00">+ get_a_buffer()</text>
<text text-anchor="start" x="302" y="-284.5" font-family="Helvetica,sans-Serif" font-size="10.00">+ advance_position()</text>
</a>
</g>
</g>
<!-- Node5&#45;&gt;Node2 -->
<g id="edge4" class="edge">
<title>Node5&#45;&gt;Node2</title>
<path fill="none" stroke="#404040" d="M327.61,-277.43C325.17,-267.46 322.63,-257.62 320,-248 319.38,-245.74 318.73,-243.45 318.05,-241.15"/>
<polygon fill="none" stroke="#404040" points="318.01,-241.04 312.41,-236.5 314.45,-229.58 320.05,-234.12 318.01,-241.04"/>
<text text-anchor="middle" x="341.5" y="-251" font-family="Helvetica,sans-Serif" font-size="10.00"> #mySj</text>
</g>
<!-- Node6 -->
<g id="node6" class="node">
<title>Node6</title>
<g id="a_node6"><a xlink:href="classUoutPrinter.html" target="_top" xlink:title="Format and print output using the help of UoutWriter.">
<polygon fill="none" stroke="black" points="468.5,-431.5 468.5,-631.5 579.5,-631.5 579.5,-431.5 468.5,-431.5"/>
<text text-anchor="middle" x="524" y="-619.5" font-family="Helvetica,sans-Serif" font-size="10.00">UoutPrinter</text>
<polyline fill="none" stroke="black" points="468.5,-612.5 579.5,-612.5 "/>
<text text-anchor="middle" x="524" y="-600.5" font-family="Helvetica,sans-Serif" font-size="10.00"> </text>
<polyline fill="none" stroke="black" points="468.5,-593.5 579.5,-593.5 "/>
<text text-anchor="start" x="476.5" y="-581.5" font-family="Helvetica,sans-Serif" font-size="10.00">+ UoutPrinter()</text>
<text text-anchor="start" x="476.5" y="-570.5" font-family="Helvetica,sans-Serif" font-size="10.00">+ print()</text>
<text text-anchor="start" x="476.5" y="-559.5" font-family="Helvetica,sans-Serif" font-size="10.00">+ print()</text>
<text text-anchor="start" x="476.5" y="-548.5" font-family="Helvetica,sans-Serif" font-size="10.00">+ print()</text>
<text text-anchor="start" x="476.5" y="-537.5" font-family="Helvetica,sans-Serif" font-size="10.00">+ print()</text>
<text text-anchor="start" x="476.5" y="-526.5" font-family="Helvetica,sans-Serif" font-size="10.00">+ print()</text>
<text text-anchor="start" x="476.5" y="-515.5" font-family="Helvetica,sans-Serif" font-size="10.00">+ print()</text>
<text text-anchor="start" x="476.5" y="-504.5" font-family="Helvetica,sans-Serif" font-size="10.00">+ print()</text>
<text text-anchor="start" x="476.5" y="-493.5" font-family="Helvetica,sans-Serif" font-size="10.00">+ x_open()</text>
<text text-anchor="start" x="476.5" y="-482.5" font-family="Helvetica,sans-Serif" font-size="10.00">+ x_close()</text>
<text text-anchor="start" x="476.5" y="-471.5" font-family="Helvetica,sans-Serif" font-size="10.00">+ root_open()</text>
<text text-anchor="start" x="476.5" y="-460.5" font-family="Helvetica,sans-Serif" font-size="10.00">+ root_close()</text>
<text text-anchor="start" x="476.5" y="-449.5" font-family="Helvetica,sans-Serif" font-size="10.00">+ hasOutput_text()</text>
<text text-anchor="start" x="476.5" y="-438.5" font-family="Helvetica,sans-Serif" font-size="10.00">+ hasOutput_json()</text>
</a>
</g>
</g>
<!-- Node6&#45;&gt;Node2 -->
<g id="edge5" class="edge">
<title>Node6&#45;&gt;Node2</title>
<path fill="none" stroke="#404040" d="M515.46,-431.4C507.18,-381.43 490.92,-322.04 459,-277 431.2,-237.77 385.21,-208.28 348.07,-189.2"/>
<polygon fill="none" stroke="#404040" points="347.6,-188.96 340.44,-189.87 336.86,-183.61 344.01,-182.71 347.6,-188.96"/>
<text text-anchor="middle" x="461" y="-251" font-family="Helvetica,sans-Serif" font-size="10.00"> #mySo</text>
</g>
</g>
</svg>
