<?xml version="1.0" encoding="UTF-8" standalone="no"?>
<!DOCTYPE svg PUBLIC "-//W3C//DTD SVG 1.1//EN"
 "http://www.w3.org/Graphics/SVG/1.1/DTD/svg11.dtd">
<!-- Generated by graphviz version 2.43.0 (0)
 -->
<!-- Title: Fer_GmSet::iteratorT&lt; T &gt; Pages: 1 -->
<svg width="154pt" height="248pt"
 viewBox="0.00 0.00 154.00 248.00" xmlns="http://www.w3.org/2000/svg" xmlns:xlink="http://www.w3.org/1999/xlink">
<g id="graph0" class="graph" transform="scale(1 1) rotate(0) translate(4 244)">
<title>Fer_GmSet::iteratorT&lt; T &gt;</title>
<!-- Node1 -->
<g id="node1" class="node">
<title>Node1</title>
<g id="a_node1"><a xlink:title="iterate over an Fer_GmSet">
<polygon fill="#bfbfbf" stroke="black" points="0,-0.5 0,-79.5 146,-79.5 146,-0.5 0,-0.5"/>
<text text-anchor="middle" x="73" y="-67.5" font-family="Helvetica,sans-Serif" font-size="10.00">Fer_GmSet::iteratorT&lt; T &gt;</text>
<polyline fill="none" stroke="black" points="0,-60.5 146,-60.5 "/>
<text text-anchor="middle" x="73" y="-48.5" font-family="Helvetica,sans-Serif" font-size="10.00"> </text>
<polyline fill="none" stroke="black" points="0,-41.5 146,-41.5 "/>
<text text-anchor="start" x="8" y="-29.5" font-family="Helvetica,sans-Serif" font-size="10.00">+ iteratorT()</text>
<text text-anchor="start" x="8" y="-18.5" font-family="Helvetica,sans-Serif" font-size="10.00">+ operator++()</text>
<text text-anchor="start" x="8" y="-7.5" font-family="Helvetica,sans-Serif" font-size="10.00">+ operator&#45;&gt;()</text>
</a>
</g>
</g>
<!-- Node2 -->
<g id="node2" class="node">
<title>Node2</title>
<g id="a_node2"><a xlink:href="classFer__Gm__Counter.html" target="_top" xlink:title="Counter to iterate over all set and unset groups/members.">
<polygon fill="none" stroke="black" points="15,-116.5 15,-239.5 131,-239.5 131,-116.5 15,-116.5"/>
<text text-anchor="middle" x="73" y="-227.5" font-family="Helvetica,sans-Serif" font-size="10.00">Fer_Gm_Counter</text>
<polyline fill="none" stroke="black" points="15,-220.5 131,-220.5 "/>
<text text-anchor="middle" x="73" y="-208.5" font-family="Helvetica,sans-Serif" font-size="10.00"> </text>
<polyline fill="none" stroke="black" points="15,-201.5 131,-201.5 "/>
<text text-anchor="start" x="23" y="-189.5" font-family="Helvetica,sans-Serif" font-size="10.00">+ Fer_Gm_Counter()</text>
<text text-anchor="start" x="23" y="-178.5" font-family="Helvetica,sans-Serif" font-size="10.00">+ operator==()</text>
<text text-anchor="start" x="23" y="-167.5" font-family="Helvetica,sans-Serif" font-size="10.00">+ operator!=()</text>
<text text-anchor="start" x="23" y="-156.5" font-family="Helvetica,sans-Serif" font-size="10.00">+ operator bool()</text>
<text text-anchor="start" x="23" y="-145.5" font-family="Helvetica,sans-Serif" font-size="10.00">+ operator++()</text>
<text text-anchor="start" x="23" y="-134.5" font-family="Helvetica,sans-Serif" font-size="10.00">+ getM()</text>
<text text-anchor="start" x="23" y="-123.5" font-family="Helvetica,sans-Serif" font-size="10.00">+ getG()</text>
</a>
</g>
</g>
<!-- Node2&#45;&gt;Node1 -->
<g id="edge1" class="edge">
<title>Node2&#45;&gt;Node1</title>
<path fill="none" stroke="midnightblue" d="M73,-105.91C73,-96.83 73,-87.82 73,-79.54"/>
<polygon fill="none" stroke="midnightblue" points="69.5,-106.16 73,-116.16 76.5,-106.16 69.5,-106.16"/>
</g>
</g>
</svg>
