<?xml version="1.0" encoding="UTF-8" standalone="no"?>
<!DOCTYPE svg PUBLIC "-//W3C//DTD SVG 1.1//EN"
 "http://www.w3.org/Graphics/SVG/1.1/DTD/svg11.dtd">
<!-- Generated by graphviz version 2.43.0 (0)
 -->
<!-- Title: Settings&lt; CfgItem, Size, Offset &gt; Pages: 1 -->
<svg width="588pt" height="1283pt"
 viewBox="0.00 0.00 587.50 1283.00" xmlns="http://www.w3.org/2000/svg" xmlns:xlink="http://www.w3.org/1999/xlink">
<g id="graph0" class="graph" transform="scale(1 1) rotate(0) translate(4 1279)">
<title>Settings&lt; CfgItem, Size, Offset &gt;</title>
<!-- Node1 -->
<g id="node1" class="node">
<title>Node1</title>
<g id="a_node1"><a xlink:title="Base class template for settings.">
<polygon fill="#bfbfbf" stroke="black" points="164.5,-0.5 164.5,-200.5 283.5,-200.5 283.5,-0.5 164.5,-0.5"/>
<text text-anchor="start" x="172.5" y="-188.5" font-family="Helvetica,sans-Serif" font-size="10.00">Settings&lt; CfgItem,</text>
<text text-anchor="middle" x="224" y="-177.5" font-family="Helvetica,sans-Serif" font-size="10.00"> Size, Offset &gt;</text>
<polyline fill="none" stroke="black" points="164.5,-170.5 283.5,-170.5 "/>
<text text-anchor="middle" x="224" y="-158.5" font-family="Helvetica,sans-Serif" font-size="10.00"> </text>
<polyline fill="none" stroke="black" points="164.5,-151.5 283.5,-151.5 "/>
<text text-anchor="start" x="172.5" y="-139.5" font-family="Helvetica,sans-Serif" font-size="10.00">+ castToConfigItem()</text>
<text text-anchor="start" x="172.5" y="-128.5" font-family="Helvetica,sans-Serif" font-size="10.00">+ get_SettingsData()</text>
<text text-anchor="start" x="172.5" y="-117.5" font-family="Helvetica,sans-Serif" font-size="10.00">+ get_kvsKey()</text>
<text text-anchor="start" x="172.5" y="-106.5" font-family="Helvetica,sans-Serif" font-size="10.00">+ get_kvsType()</text>
<text text-anchor="start" x="172.5" y="-95.5" font-family="Helvetica,sans-Serif" font-size="10.00">+ get_optKey()</text>
<text text-anchor="start" x="172.5" y="-84.5" font-family="Helvetica,sans-Serif" font-size="10.00">+ get_optKeyStr()</text>
<text text-anchor="start" x="172.5" y="-73.5" font-family="Helvetica,sans-Serif" font-size="10.00">+ get_soCfgFun()</text>
<text text-anchor="start" x="172.5" y="-62.5" font-family="Helvetica,sans-Serif" font-size="10.00">+ get_soCfgFun()</text>
<text text-anchor="start" x="172.5" y="-51.5" font-family="Helvetica,sans-Serif" font-size="10.00">+ get_storeFun()</text>
<text text-anchor="start" x="172.5" y="-40.5" font-family="Helvetica,sans-Serif" font-size="10.00">+ get_storeFun()</text>
<text text-anchor="start" x="172.5" y="-29.5" font-family="Helvetica,sans-Serif" font-size="10.00">+ get_item()</text>
<text text-anchor="start" x="172.5" y="-18.5" font-family="Helvetica,sans-Serif" font-size="10.00">+ initField()</text>
<text text-anchor="start" x="172.5" y="-7.5" font-family="Helvetica,sans-Serif" font-size="10.00"># otok2idx()</text>
</a>
</g>
</g>
<!-- Node2 -->
<g id="node2" class="node">
<title>Node2</title>
<g id="a_node2"><a xlink:href="classSettingsBase.html" target="_top" xlink:title=" ">
<polygon fill="none" stroke="black" points="89,-248.5 89,-536.5 231,-536.5 231,-248.5 89,-248.5"/>
<text text-anchor="middle" x="160" y="-524.5" font-family="Helvetica,sans-Serif" font-size="10.00">SettingsBase&lt; CfgItem &gt;</text>
<polyline fill="none" stroke="black" points="89,-517.5 231,-517.5 "/>
<text text-anchor="middle" x="160" y="-505.5" font-family="Helvetica,sans-Serif" font-size="10.00"> </text>
<polyline fill="none" stroke="black" points="89,-498.5 231,-498.5 "/>
<text text-anchor="start" x="97" y="-486.5" font-family="Helvetica,sans-Serif" font-size="10.00">+ get_SettingsData()</text>
<text text-anchor="start" x="97" y="-475.5" font-family="Helvetica,sans-Serif" font-size="10.00">+ get_SettingsData()</text>
<text text-anchor="start" x="97" y="-464.5" font-family="Helvetica,sans-Serif" font-size="10.00">+ get_SettingsData()</text>
<text text-anchor="start" x="97" y="-453.5" font-family="Helvetica,sans-Serif" font-size="10.00">+ get_item()</text>
<text text-anchor="start" x="97" y="-442.5" font-family="Helvetica,sans-Serif" font-size="10.00">+ get_bitMask()</text>
<text text-anchor="start" x="97" y="-431.5" font-family="Helvetica,sans-Serif" font-size="10.00">+ get_kvsKey()</text>
<text text-anchor="start" x="97" y="-420.5" font-family="Helvetica,sans-Serif" font-size="10.00">+ get_kvsKey()</text>
<text text-anchor="start" x="97" y="-409.5" font-family="Helvetica,sans-Serif" font-size="10.00">+ get_kvsKey()</text>
<text text-anchor="start" x="97" y="-398.5" font-family="Helvetica,sans-Serif" font-size="10.00">+ get_kvsType()</text>
<text text-anchor="start" x="97" y="-387.5" font-family="Helvetica,sans-Serif" font-size="10.00">+ get_kvsType()</text>
<text text-anchor="start" x="97" y="-376.5" font-family="Helvetica,sans-Serif" font-size="10.00">+ get_kvsType()</text>
<text text-anchor="start" x="97" y="-365.5" font-family="Helvetica,sans-Serif" font-size="10.00">+ get_optKey()</text>
<text text-anchor="start" x="97" y="-354.5" font-family="Helvetica,sans-Serif" font-size="10.00">+ get_optKey()</text>
<text text-anchor="start" x="97" y="-343.5" font-family="Helvetica,sans-Serif" font-size="10.00">+ get_optKeyStr()</text>
<text text-anchor="start" x="97" y="-332.5" font-family="Helvetica,sans-Serif" font-size="10.00">+ get_optKeyStr()</text>
<text text-anchor="start" x="97" y="-321.5" font-family="Helvetica,sans-Serif" font-size="10.00">+ get_optKeyStr()</text>
<text text-anchor="start" x="97" y="-310.5" font-family="Helvetica,sans-Serif" font-size="10.00">+ get_soCfgFun()</text>
<text text-anchor="start" x="97" y="-299.5" font-family="Helvetica,sans-Serif" font-size="10.00">+ get_soCfgFun()</text>
<text text-anchor="start" x="97" y="-288.5" font-family="Helvetica,sans-Serif" font-size="10.00">+ get_soCfgFun()</text>
<text text-anchor="start" x="97" y="-277.5" font-family="Helvetica,sans-Serif" font-size="10.00">+ get_storeFun()</text>
<text text-anchor="start" x="97" y="-266.5" font-family="Helvetica,sans-Serif" font-size="10.00">+ get_storeFun()</text>
<text text-anchor="start" x="97" y="-255.5" font-family="Helvetica,sans-Serif" font-size="10.00">+ get_storeFun()</text>
</a>
</g>
</g>
<!-- Node2&#45;&gt;Node1 -->
<g id="edge1" class="edge">
<title>Node2&#45;&gt;Node1</title>
<path fill="none" stroke="midnightblue" d="M193.79,-238.38C196.62,-225.54 199.44,-212.8 202.14,-200.54"/>
<polygon fill="none" stroke="midnightblue" points="190.36,-237.68 191.63,-248.2 197.2,-239.19 190.36,-237.68"/>
</g>
<!-- Node3 -->
<g id="node3" class="node">
<title>Node3</title>
<g id="a_node3"><a xlink:href="classSettings1stBase.html" target="_top" xlink:title=" ">
<polygon fill="none" stroke="black" points="100.5,-595.5 100.5,-707.5 219.5,-707.5 219.5,-595.5 100.5,-595.5"/>
<text text-anchor="middle" x="160" y="-695.5" font-family="Helvetica,sans-Serif" font-size="10.00">Settings1stBase</text>
<polyline fill="none" stroke="black" points="100.5,-688.5 219.5,-688.5 "/>
<text text-anchor="middle" x="160" y="-676.5" font-family="Helvetica,sans-Serif" font-size="10.00"> </text>
<polyline fill="none" stroke="black" points="100.5,-669.5 219.5,-669.5 "/>
<text text-anchor="start" x="108.5" y="-657.5" font-family="Helvetica,sans-Serif" font-size="10.00">+ get_SettingsData()</text>
<text text-anchor="start" x="108.5" y="-646.5" font-family="Helvetica,sans-Serif" font-size="10.00">+ get_soCfgFun()</text>
<text text-anchor="start" x="108.5" y="-635.5" font-family="Helvetica,sans-Serif" font-size="10.00">+ get_storeFun()</text>
<text text-anchor="start" x="108.5" y="-624.5" font-family="Helvetica,sans-Serif" font-size="10.00">+ get_kvsKey()</text>
<text text-anchor="start" x="108.5" y="-613.5" font-family="Helvetica,sans-Serif" font-size="10.00">+ get_kvsType()</text>
<text text-anchor="start" x="108.5" y="-602.5" font-family="Helvetica,sans-Serif" font-size="10.00">+ get_bitMask()</text>
</a>
</g>
</g>
<!-- Node3&#45;&gt;Node2 -->
<g id="edge2" class="edge">
<title>Node3&#45;&gt;Node2</title>
<path fill="none" stroke="midnightblue" d="M160,-585.22C160,-570.19 160,-553.61 160,-536.7"/>
<polygon fill="none" stroke="midnightblue" points="156.5,-585.37 160,-595.37 163.5,-585.37 156.5,-585.37"/>
</g>
<!-- Node4 -->
<g id="node4" class="node">
<title>Node4</title>
<g id="a_node4"><a xlink:href="structSettingsData.html" target="_top" xlink:title=" ">
<polygon fill="none" stroke="black" points="249,-342 249,-443 329,-443 329,-342 249,-342"/>
<text text-anchor="middle" x="289" y="-431" font-family="Helvetica,sans-Serif" font-size="10.00">SettingsData</text>
<polyline fill="none" stroke="black" points="249,-424 329,-424 "/>
<text text-anchor="start" x="257" y="-412" font-family="Helvetica,sans-Serif" font-size="10.00">+ kvs_key</text>
<text text-anchor="start" x="257" y="-401" font-family="Helvetica,sans-Serif" font-size="10.00">+ opt_key</text>
<text text-anchor="start" x="257" y="-390" font-family="Helvetica,sans-Serif" font-size="10.00">+ kvs_type</text>
<text text-anchor="start" x="257" y="-379" font-family="Helvetica,sans-Serif" font-size="10.00">+ store_fun</text>
<text text-anchor="start" x="257" y="-368" font-family="Helvetica,sans-Serif" font-size="10.00">+ id_bit</text>
<polyline fill="none" stroke="black" points="249,-361 329,-361 "/>
<text text-anchor="middle" x="289" y="-349" font-family="Helvetica,sans-Serif" font-size="10.00"> </text>
</a>
</g>
</g>
<!-- Node4&#45;&gt;Node1 -->
<g id="edge3" class="edge">
<title>Node4&#45;&gt;Node1</title>
<path fill="none" stroke="#404040" d="M277.9,-341.98C269.94,-306.48 258.91,-257.25 248.9,-212.58"/>
<polygon fill="none" stroke="#404040" points="248.86,-212.43 243.65,-207.45 246.24,-200.72 251.45,-205.7 248.86,-212.43"/>
<text text-anchor="middle" x="277.5" y="-222" font-family="Helvetica,sans-Serif" font-size="10.00"> #m_data</text>
</g>
<!-- Node5 -->
<g id="node5" class="node">
<title>Node5</title>
<g id="a_node5"><a xlink:href="classUoutWriter.html" target="_top" xlink:title="Abstract class which contains various data builders.">
<polygon fill="none" stroke="black" points="241.5,-584.5 241.5,-718.5 336.5,-718.5 336.5,-584.5 241.5,-584.5"/>
<text text-anchor="middle" x="289" y="-706.5" font-family="Helvetica,sans-Serif" font-size="10.00">UoutWriter</text>
<polyline fill="none" stroke="black" points="241.5,-699.5 336.5,-699.5 "/>
<text text-anchor="start" x="249.5" y="-687.5" font-family="Helvetica,sans-Serif" font-size="10.00"># myTgt</text>
<polyline fill="none" stroke="black" points="241.5,-680.5 336.5,-680.5 "/>
<text text-anchor="start" x="249.5" y="-668.5" font-family="Helvetica,sans-Serif" font-size="10.00">+ UoutWriter()</text>
<text text-anchor="start" x="249.5" y="-657.5" font-family="Helvetica,sans-Serif" font-size="10.00">+ UoutWriter()</text>
<text text-anchor="start" x="249.5" y="-646.5" font-family="Helvetica,sans-Serif" font-size="10.00">+ operator=()</text>
<text text-anchor="start" x="249.5" y="-635.5" font-family="Helvetica,sans-Serif" font-size="10.00">+ tgt()</text>
<text text-anchor="start" x="249.5" y="-624.5" font-family="Helvetica,sans-Serif" font-size="10.00">+ add_tgt_flag()</text>
<text text-anchor="start" x="249.5" y="-613.5" font-family="Helvetica,sans-Serif" font-size="10.00">+ sj()</text>
<text text-anchor="start" x="249.5" y="-602.5" font-family="Helvetica,sans-Serif" font-size="10.00">+ st()</text>
<text text-anchor="start" x="249.5" y="-591.5" font-family="Helvetica,sans-Serif" font-size="10.00">+ so()</text>
</a>
</g>
</g>
<!-- Node5&#45;&gt;Node4 -->
<g id="edge4" class="edge">
<title>Node5&#45;&gt;Node4</title>
<path fill="none" stroke="#404040" d="M289,-584.32C289,-544.59 289,-494.39 289,-455.44"/>
<polygon fill="none" stroke="#404040" points="289,-455.22 285,-449.22 289,-443.22 293,-449.22 289,-455.22"/>
<text text-anchor="middle" x="321" y="-558" font-family="Helvetica,sans-Serif" font-size="10.00"> +so_cfg_fun</text>
</g>
<!-- Node6 -->
<g id="node6" class="node">
<title>Node6</title>
<g id="a_node6"><a xlink:href="classUoutRawWriter.html" target="_top" xlink:title="Abstract class which implements public write methods and operators which then call an abstract privat...">
<polygon fill="none" stroke="black" points="0,-975.5 0,-1065.5 118,-1065.5 118,-975.5 0,-975.5"/>
<text text-anchor="middle" x="59" y="-1053.5" font-family="Helvetica,sans-Serif" font-size="10.00">UoutRawWriter</text>
<polyline fill="none" stroke="black" points="0,-1046.5 118,-1046.5 "/>
<text text-anchor="middle" x="59" y="-1034.5" font-family="Helvetica,sans-Serif" font-size="10.00"> </text>
<polyline fill="none" stroke="black" points="0,-1027.5 118,-1027.5 "/>
<text text-anchor="start" x="8" y="-1015.5" font-family="Helvetica,sans-Serif" font-size="10.00">+ write()</text>
<text text-anchor="start" x="8" y="-1004.5" font-family="Helvetica,sans-Serif" font-size="10.00">+ writeln()</text>
<text text-anchor="start" x="8" y="-993.5" font-family="Helvetica,sans-Serif" font-size="10.00">+ write()</text>
<text text-anchor="start" x="8" y="-982.5" font-family="Helvetica,sans-Serif" font-size="10.00"># ~UoutRawWriter()</text>
</a>
</g>
</g>
<!-- Node6&#45;&gt;Node5 -->
<g id="edge5" class="edge">
<title>Node6&#45;&gt;Node5</title>
<path fill="none" stroke="midnightblue" d="M60.54,-965.33C64.83,-909.44 79.41,-822.66 127,-766 158.85,-728.09 188.05,-748.25 228,-719 232.55,-715.67 237.03,-711.96 241.36,-708.04"/>
<polygon fill="none" stroke="midnightblue" points="57.04,-965.18 59.85,-975.39 64.02,-965.66 57.04,-965.18"/>
</g>
<!-- Node7 -->
<g id="node7" class="node">
<title>Node7</title>
<g id="a_node7"><a xlink:href="classUoutBuilderPlaintext.html" target="_top" xlink:title="Print key value pairs as text lines with limited length.">
<polygon fill="none" stroke="black" points="136,-975.5 136,-1065.5 276,-1065.5 276,-975.5 136,-975.5"/>
<text text-anchor="middle" x="206" y="-1053.5" font-family="Helvetica,sans-Serif" font-size="10.00">UoutBuilderPlaintext</text>
<polyline fill="none" stroke="black" points="136,-1046.5 276,-1046.5 "/>
<text text-anchor="middle" x="206" y="-1034.5" font-family="Helvetica,sans-Serif" font-size="10.00"> </text>
<polyline fill="none" stroke="black" points="136,-1027.5 276,-1027.5 "/>
<text text-anchor="start" x="144" y="-1015.5" font-family="Helvetica,sans-Serif" font-size="10.00">+ UoutBuilderPlaintext()</text>
<text text-anchor="start" x="144" y="-1004.5" font-family="Helvetica,sans-Serif" font-size="10.00">+ cli_out_set_x()</text>
<text text-anchor="start" x="144" y="-993.5" font-family="Helvetica,sans-Serif" font-size="10.00">+ cli_out_x_reply_entry()</text>
<text text-anchor="start" x="144" y="-982.5" font-family="Helvetica,sans-Serif" font-size="10.00">+ cli_out_close()</text>
</a>
</g>
</g>
<!-- Node7&#45;&gt;Node5 -->
<g id="edge6" class="edge">
<title>Node7&#45;&gt;Node5</title>
<path fill="none" stroke="#404040" d="M216.01,-975.23C229.69,-914.73 254.45,-805.25 271.3,-730.75"/>
<polygon fill="none" stroke="#404040" points="271.39,-730.35 268.82,-723.61 274.04,-718.64 276.62,-725.38 271.39,-730.35"/>
<text text-anchor="middle" x="292.5" y="-740" font-family="Helvetica,sans-Serif" font-size="10.00"> #myStxt</text>
</g>
<!-- Node8 -->
<g id="node8" class="node">
<title>Node8</title>
<g id="a_node8"><a xlink:href="classUoutBuilderJson.html" target="_top" xlink:title="Build JSON output gradually by calling member functions (with key/value parameters).">
<polygon fill="none" stroke="black" points="294,-766.5 294,-1274.5 450,-1274.5 450,-766.5 294,-766.5"/>
<text text-anchor="middle" x="372" y="-1262.5" font-family="Helvetica,sans-Serif" font-size="10.00">UoutBuilderJson</text>
<polyline fill="none" stroke="black" points="294,-1255.5 450,-1255.5 "/>
<text text-anchor="middle" x="372" y="-1243.5" font-family="Helvetica,sans-Serif" font-size="10.00"> </text>
<polyline fill="none" stroke="black" points="294,-1236.5 450,-1236.5 "/>
<text text-anchor="start" x="302" y="-1224.5" font-family="Helvetica,sans-Serif" font-size="10.00">+ UoutBuilderJson()</text>
<text text-anchor="start" x="302" y="-1213.5" font-family="Helvetica,sans-Serif" font-size="10.00">+ UoutBuilderJson()</text>
<text text-anchor="start" x="302" y="-1202.5" font-family="Helvetica,sans-Serif" font-size="10.00">+ ~UoutBuilderJson()</text>
<text text-anchor="start" x="302" y="-1191.5" font-family="Helvetica,sans-Serif" font-size="10.00">+ open_root_object()</text>
<text text-anchor="start" x="302" y="-1180.5" font-family="Helvetica,sans-Serif" font-size="10.00">+ open_root_object()</text>
<text text-anchor="start" x="302" y="-1169.5" font-family="Helvetica,sans-Serif" font-size="10.00">+ close_root_object()</text>
<text text-anchor="start" x="302" y="-1158.5" font-family="Helvetica,sans-Serif" font-size="10.00">+ add_object()</text>
<text text-anchor="start" x="302" y="-1147.5" font-family="Helvetica,sans-Serif" font-size="10.00">+ add_object()</text>
<text text-anchor="start" x="302" y="-1136.5" font-family="Helvetica,sans-Serif" font-size="10.00">+ close_object()</text>
<text text-anchor="start" x="302" y="-1125.5" font-family="Helvetica,sans-Serif" font-size="10.00">+ put_kv()</text>
<text text-anchor="start" x="302" y="-1114.5" font-family="Helvetica,sans-Serif" font-size="10.00">+ put_kv()</text>
<text text-anchor="start" x="302" y="-1103.5" font-family="Helvetica,sans-Serif" font-size="10.00">+ put_kv()</text>
<text text-anchor="start" x="302" y="-1092.5" font-family="Helvetica,sans-Serif" font-size="10.00">+ put_kv()</text>
<text text-anchor="start" x="302" y="-1081.5" font-family="Helvetica,sans-Serif" font-size="10.00">+ put_kv()</text>
<text text-anchor="start" x="302" y="-1070.5" font-family="Helvetica,sans-Serif" font-size="10.00">+ put_kv()</text>
<text text-anchor="start" x="302" y="-1059.5" font-family="Helvetica,sans-Serif" font-size="10.00">+ put_kv()</text>
<text text-anchor="start" x="302" y="-1048.5" font-family="Helvetica,sans-Serif" font-size="10.00">+ put_kv()</text>
<text text-anchor="start" x="302" y="-1037.5" font-family="Helvetica,sans-Serif" font-size="10.00">+ add_key_value_pair_s()</text>
<text text-anchor="start" x="302" y="-1026.5" font-family="Helvetica,sans-Serif" font-size="10.00">+ add_key_value_pair_d()</text>
<text text-anchor="start" x="302" y="-1015.5" font-family="Helvetica,sans-Serif" font-size="10.00">+ add_key_value_pair_f()</text>
<text text-anchor="start" x="302" y="-1004.5" font-family="Helvetica,sans-Serif" font-size="10.00">+ add_key()</text>
<text text-anchor="start" x="302" y="-993.5" font-family="Helvetica,sans-Serif" font-size="10.00">+ add_array()</text>
<text text-anchor="start" x="302" y="-982.5" font-family="Helvetica,sans-Serif" font-size="10.00">+ add_array()</text>
<text text-anchor="start" x="302" y="-971.5" font-family="Helvetica,sans-Serif" font-size="10.00">+ close_array()</text>
<text text-anchor="start" x="302" y="-960.5" font-family="Helvetica,sans-Serif" font-size="10.00">+ add_value_d()</text>
<text text-anchor="start" x="302" y="-949.5" font-family="Helvetica,sans-Serif" font-size="10.00">+ add_value_s()</text>
<text text-anchor="start" x="302" y="-938.5" font-family="Helvetica,sans-Serif" font-size="10.00">+ add_value()</text>
<text text-anchor="start" x="302" y="-927.5" font-family="Helvetica,sans-Serif" font-size="10.00">+ read_json_from_function()</text>
<text text-anchor="start" x="302" y="-916.5" font-family="Helvetica,sans-Serif" font-size="10.00">+ read_json_arr_from</text>
<text text-anchor="start" x="302" y="-905.5" font-family="Helvetica,sans-Serif" font-size="10.00">_function()</text>
<text text-anchor="start" x="302" y="-894.5" font-family="Helvetica,sans-Serif" font-size="10.00">+ read_json_arr2_from</text>
<text text-anchor="start" x="302" y="-883.5" font-family="Helvetica,sans-Serif" font-size="10.00">_function()</text>
<text text-anchor="start" x="302" y="-872.5" font-family="Helvetica,sans-Serif" font-size="10.00">+ copy_to_buf()</text>
<text text-anchor="start" x="302" y="-861.5" font-family="Helvetica,sans-Serif" font-size="10.00">+ cat_to_buf()</text>
<text text-anchor="start" x="302" y="-850.5" font-family="Helvetica,sans-Serif" font-size="10.00">+ get_json()</text>
<text text-anchor="start" x="302" y="-839.5" font-family="Helvetica,sans-Serif" font-size="10.00">+ writeln_json()</text>
<text text-anchor="start" x="302" y="-828.5" font-family="Helvetica,sans-Serif" font-size="10.00">+ write_json()</text>
<text text-anchor="start" x="302" y="-817.5" font-family="Helvetica,sans-Serif" font-size="10.00">+ write_some_json()</text>
<text text-anchor="start" x="302" y="-806.5" font-family="Helvetica,sans-Serif" font-size="10.00">+ free_buffer()</text>
<text text-anchor="start" x="302" y="-795.5" font-family="Helvetica,sans-Serif" font-size="10.00">+ alloc_bigger_buffer()</text>
<text text-anchor="start" x="302" y="-784.5" font-family="Helvetica,sans-Serif" font-size="10.00">+ get_a_buffer()</text>
<text text-anchor="start" x="302" y="-773.5" font-family="Helvetica,sans-Serif" font-size="10.00">+ advance_position()</text>
</a>
</g>
</g>
<!-- Node8&#45;&gt;Node5 -->
<g id="edge7" class="edge">
<title>Node8&#45;&gt;Node5</title>
<path fill="none" stroke="#404040" d="M327.61,-766.43C325.17,-756.46 322.63,-746.62 320,-737 319.38,-734.74 318.73,-732.45 318.05,-730.15"/>
<polygon fill="none" stroke="#404040" points="318.01,-730.04 312.41,-725.5 314.45,-718.58 320.05,-723.12 318.01,-730.04"/>
<text text-anchor="middle" x="341.5" y="-740" font-family="Helvetica,sans-Serif" font-size="10.00"> #mySj</text>
</g>
<!-- Node9 -->
<g id="node9" class="node">
<title>Node9</title>
<g id="a_node9"><a xlink:href="classUoutPrinter.html" target="_top" xlink:title="Format and print output using the help of UoutWriter.">
<polygon fill="none" stroke="black" points="468.5,-920.5 468.5,-1120.5 579.5,-1120.5 579.5,-920.5 468.5,-920.5"/>
<text text-anchor="middle" x="524" y="-1108.5" font-family="Helvetica,sans-Serif" font-size="10.00">UoutPrinter</text>
<polyline fill="none" stroke="black" points="468.5,-1101.5 579.5,-1101.5 "/>
<text text-anchor="middle" x="524" y="-1089.5" font-family="Helvetica,sans-Serif" font-size="10.00"> </text>
<polyline fill="none" stroke="black" points="468.5,-1082.5 579.5,-1082.5 "/>
<text text-anchor="start" x="476.5" y="-1070.5" font-family="Helvetica,sans-Serif" font-size="10.00">+ UoutPrinter()</text>
<text text-anchor="start" x="476.5" y="-1059.5" font-family="Helvetica,sans-Serif" font-size="10.00">+ print()</text>
<text text-anchor="start" x="476.5" y="-1048.5" font-family="Helvetica,sans-Serif" font-size="10.00">+ print()</text>
<text text-anchor="start" x="476.5" y="-1037.5" font-family="Helvetica,sans-Serif" font-size="10.00">+ print()</text>
<text text-anchor="start" x="476.5" y="-1026.5" font-family="Helvetica,sans-Serif" font-size="10.00">+ print()</text>
<text text-anchor="start" x="476.5" y="-1015.5" font-family="Helvetica,sans-Serif" font-size="10.00">+ print()</text>
<text text-anchor="start" x="476.5" y="-1004.5" font-family="Helvetica,sans-Serif" font-size="10.00">+ print()</text>
<text text-anchor="start" x="476.5" y="-993.5" font-family="Helvetica,sans-Serif" font-size="10.00">+ print()</text>
<text text-anchor="start" x="476.5" y="-982.5" font-family="Helvetica,sans-Serif" font-size="10.00">+ x_open()</text>
<text text-anchor="start" x="476.5" y="-971.5" font-family="Helvetica,sans-Serif" font-size="10.00">+ x_close()</text>
<text text-anchor="start" x="476.5" y="-960.5" font-family="Helvetica,sans-Serif" font-size="10.00">+ root_open()</text>
<text text-anchor="start" x="476.5" y="-949.5" font-family="Helvetica,sans-Serif" font-size="10.00">+ root_close()</text>
<text text-anchor="start" x="476.5" y="-938.5" font-family="Helvetica,sans-Serif" font-size="10.00">+ hasOutput_text()</text>
<text text-anchor="start" x="476.5" y="-927.5" font-family="Helvetica,sans-Serif" font-size="10.00">+ hasOutput_json()</text>
</a>
</g>
</g>
<!-- Node9&#45;&gt;Node5 -->
<g id="edge8" class="edge">
<title>Node9&#45;&gt;Node5</title>
<path fill="none" stroke="#404040" d="M515.46,-920.4C507.18,-870.43 490.92,-811.04 459,-766 431.2,-726.77 385.21,-697.28 348.07,-678.2"/>
<polygon fill="none" stroke="#404040" points="347.6,-677.96 340.44,-678.87 336.86,-672.61 344.01,-671.71 347.6,-677.96"/>
<text text-anchor="middle" x="461" y="-740" font-family="Helvetica,sans-Serif" font-size="10.00"> #mySo</text>
</g>
</g>
</svg>
