<?xml version="1.0" encoding="UTF-8" standalone="no"?>
<!DOCTYPE svg PUBLIC "-//W3C//DTD SVG 1.1//EN"
 "http://www.w3.org/Graphics/SVG/1.1/DTD/svg11.dtd">
<!-- Generated by graphviz version 2.43.0 (0)
 -->
<!-- Title: cli/cli.h Pages: 1 -->
<!--zoomable 252 -->
<svg id="main" version="1.1" xmlns="http://www.w3.org/2000/svg" xmlns:xlink="http://www.w3.org/1999/xlink" xml:space="preserve" onload="init(evt)">
<style type="text/css"><![CDATA[
.edge:hover path { stroke: red; }
.edge:hover polygon { stroke: red; fill: red; }
]]></style>
<script type="text/javascript"><![CDATA[
var edges = document.getElementsByTagName('g');
if (edges && edges.length) {
  for (var i=0;i<edges.length;i++) {
    if (edges[i].id.substr(0,4)=='edge') {
      edges[i].setAttribute('class','edge');
    }
  }
}
]]></script>
        <defs>
                <circle id="rim" cx="0" cy="0" r="7"/>
                <circle id="rim2" cx="0" cy="0" r="3.5"/>
                <g id="zoomPlus">
                        <use xlink:href="#rim" fill="#404040">
                                <set attributeName="fill" to="#808080" begin="zoomplus.mouseover" end="zoomplus.mouseout"/>
                        </use>
                        <path d="M-4,0h8M0,-4v8" fill="none" stroke="white" stroke-width="1.5" pointer-events="none"/>
                </g>
                <g id="zoomMin">
                        <use xlink:href="#rim" fill="#404040">
                                <set attributeName="fill" to="#808080" begin="zoomminus.mouseover" end="zoomminus.mouseout"/>
                        </use>
                        <path d="M-4,0h8" fill="none" stroke="white" stroke-width="1.5" pointer-events="none"/>
                </g>
                <g id="dirArrow">
                        <path fill="none" stroke="white" stroke-width="1.5" d="M0,-3.0v7 M-2.5,-0.5L0,-3.0L2.5,-0.5"/>
                </g>
               <g id="resetDef">
                       <use xlink:href="#rim2" fill="#404040">
                               <set attributeName="fill" to="#808080" begin="reset.mouseover" end="reset.mouseout"/>
                       </use>
               </g>
        </defs>

<script type="text/javascript">
var viewWidth = 1525;
var viewHeight = 252;
var sectionId = 'dynsection-0';
</script>
<script xlink:href="svgpan.js"/>
<svg id="graph" class="graph">
<g id="viewport">
<title>cli/cli.h</title>
<!-- Node1 -->
<g id="node1" class="node">
<title>Node1</title>
<g id="a_node1"><a xlink:title="cli framework">
<polygon fill="#bfbfbf" stroke="black" points="951,-224.5 951,-243.5 1002,-243.5 1002,-224.5 951,-224.5"/>
<text text-anchor="middle" x="976.5" y="-231.5" font-family="Helvetica,sans-Serif" font-size="10.00">cli/cli.h</text>
</a>
</g>
</g>
<!-- Node2 -->
<g id="node2" class="node">
<title>Node2</title>
<g id="a_node2"><a xlink:href="uo__types_8h.html" target="_top" xlink:title="API parameter and return types.">
<polygon fill="none" stroke="black" points="549,-168.5 549,-187.5 644,-187.5 644,-168.5 549,-168.5"/>
<text text-anchor="middle" x="596.5" y="-175.5" font-family="Helvetica,sans-Serif" font-size="10.00">uout/uo_types.h</text>
</a>
</g>
</g>
<!-- Node1&#45;&gt;Node2 -->
<g id="edge1" class="edge">
<title>Node1&#45;&gt;Node2</title>
<path fill="none" stroke="midnightblue" d="M950.98,-229.37C890.67,-220.8 738.16,-199.13 654.17,-187.2"/>
<polygon fill="midnightblue" stroke="midnightblue" points="654.42,-183.7 644.03,-185.75 653.44,-190.63 654.42,-183.7"/>
</g>
<!-- Node17 -->
<g id="node17" class="node">
<title>Node17</title>
<g id="a_node17"><a xlink:href="cli__types_8h.html" target="_top" xlink:title="cli framework: vocabulary types">
<polygon fill="none" stroke="black" points="942,-56.5 942,-75.5 1011,-75.5 1011,-56.5 942,-56.5"/>
<text text-anchor="middle" x="976.5" y="-63.5" font-family="Helvetica,sans-Serif" font-size="10.00">cli_types.h</text>
</a>
</g>
</g>
<!-- Node1&#45;&gt;Node17 -->
<g id="edge25" class="edge">
<title>Node1&#45;&gt;Node17</title>
<path fill="none" stroke="midnightblue" d="M976.5,-224.08C976.5,-197.95 976.5,-121.21 976.5,-85.58"/>
<polygon fill="midnightblue" stroke="midnightblue" points="980,-85.57 976.5,-75.57 973,-85.57 980,-85.57"/>
</g>
<!-- Node18 -->
<g id="node18" class="node">
<title>Node18</title>
<g id="a_node18"><a xlink:href="jsmn__iterate_8hh.html" target="_top" xlink:title="deprecated header for backward compatibility">
<polygon fill="none" stroke="black" points="1007.5,-168.5 1007.5,-187.5 1127.5,-187.5 1127.5,-168.5 1007.5,-168.5"/>
<text text-anchor="middle" x="1067.5" y="-175.5" font-family="Helvetica,sans-Serif" font-size="10.00">jsmn/jsmn_iterate.hh</text>
</a>
</g>
</g>
<!-- Node1&#45;&gt;Node18 -->
<g id="edge28" class="edge">
<title>Node1&#45;&gt;Node18</title>
<path fill="none" stroke="midnightblue" d="M991.12,-224.32C1005.45,-215.82 1027.51,-202.73 1044.25,-192.8"/>
<polygon fill="midnightblue" stroke="midnightblue" points="1046.1,-195.77 1052.92,-187.65 1042.53,-189.75 1046.1,-195.77"/>
</g>
<!-- Node3 -->
<g id="node3" class="node">
<title>Node3</title>
<g id="a_node3"><a xlink:href="so__target__bits_8h.html" target="_top" xlink:title="flags to select output formats and targets">
<polygon fill="none" stroke="black" points="0,-0.5 0,-19.5 95,-19.5 95,-0.5 0,-0.5"/>
<text text-anchor="middle" x="47.5" y="-7.5" font-family="Helvetica,sans-Serif" font-size="10.00">so_target_bits.h</text>
</a>
</g>
</g>
<!-- Node2&#45;&gt;Node3 -->
<g id="edge2" class="edge">
<title>Node2&#45;&gt;Node3</title>
<path fill="none" stroke="midnightblue" d="M548.94,-176.54C421.32,-174.18 76.46,-159.99 9.5,-76 -2.94,-60.39 12.98,-40.27 27.86,-26.58"/>
<polygon fill="midnightblue" stroke="midnightblue" points="30.54,-28.89 35.83,-19.7 25.97,-23.59 30.54,-28.89"/>
</g>
<!-- Node4 -->
<g id="node4" class="node">
<title>Node4</title>
<g id="a_node4"><a xlink:href="uout__writer_8hh.html" target="_top" xlink:title="Provide an output class hierarchy which knows about the required format (text or JSON) and write func...">
<polygon fill="none" stroke="black" points="442.5,-112.5 442.5,-131.5 528.5,-131.5 528.5,-112.5 442.5,-112.5"/>
<text text-anchor="middle" x="485.5" y="-119.5" font-family="Helvetica,sans-Serif" font-size="10.00">uout_writer.hh</text>
</a>
</g>
</g>
<!-- Node2&#45;&gt;Node4 -->
<g id="edge3" class="edge">
<title>Node2&#45;&gt;Node4</title>
<path fill="none" stroke="midnightblue" d="M578.67,-168.32C560.78,-159.62 533.02,-146.12 512.45,-136.11"/>
<polygon fill="midnightblue" stroke="midnightblue" points="513.81,-132.88 503.29,-131.65 510.75,-139.18 513.81,-132.88"/>
</g>
<!-- Node5 -->
<g id="node5" class="node">
<title>Node5</title>
<g id="a_node5"><a xlink:href="so__out_8h.html" target="_top" xlink:title="write formatted output to UoutWriter">
<polygon fill="none" stroke="black" points="18.5,-56.5 18.5,-75.5 76.5,-75.5 76.5,-56.5 18.5,-56.5"/>
<text text-anchor="middle" x="47.5" y="-63.5" font-family="Helvetica,sans-Serif" font-size="10.00">so_out.h</text>
</a>
</g>
</g>
<!-- Node2&#45;&gt;Node5 -->
<g id="edge20" class="edge">
<title>Node2&#45;&gt;Node5</title>
<path fill="none" stroke="midnightblue" d="M548.68,-168.46C499.82,-159.66 421.77,-145.36 354.5,-132 236.43,-108.55 207.24,-101.06 89.5,-76 88.61,-75.81 87.7,-75.62 86.79,-75.42"/>
<polygon fill="midnightblue" stroke="midnightblue" points="87.38,-71.97 76.87,-73.3 85.92,-78.82 87.38,-71.97"/>
</g>
<!-- Node6 -->
<g id="node6" class="node">
<title>Node6</title>
<g id="a_node6"><a xlink:href="uout__builder__json_8hh.html" target="_top" xlink:title="Create JSON output from key/val pairs.">
<polygon fill="none" stroke="black" points="132.5,-56.5 132.5,-75.5 250.5,-75.5 250.5,-56.5 132.5,-56.5"/>
<text text-anchor="middle" x="191.5" y="-63.5" font-family="Helvetica,sans-Serif" font-size="10.00">uout_builder_json.hh</text>
</a>
</g>
</g>
<!-- Node2&#45;&gt;Node6 -->
<g id="edge21" class="edge">
<title>Node2&#45;&gt;Node6</title>
<path fill="none" stroke="midnightblue" d="M565.06,-168.46C492.61,-148.78 313.93,-100.25 232.78,-78.21"/>
<polygon fill="midnightblue" stroke="midnightblue" points="233.49,-74.78 222.92,-75.53 231.66,-81.53 233.49,-74.78"/>
</g>
<!-- Node10 -->
<g id="node10" class="node">
<title>Node10</title>
<g id="a_node10"><a xlink:title=" ">
<polygon fill="none" stroke="#bfbfbf" points="509,-0.5 509,-19.5 562,-19.5 562,-0.5 509,-0.5"/>
<text text-anchor="middle" x="535.5" y="-7.5" font-family="Helvetica,sans-Serif" font-size="10.00">stdint.h</text>
</a>
</g>
</g>
<!-- Node2&#45;&gt;Node10 -->
<g id="edge22" class="edge">
<title>Node2&#45;&gt;Node10</title>
<path fill="none" stroke="midnightblue" d="M644.25,-174.09C745.57,-166.25 966.98,-139.3 893.5,-56 872.47,-32.16 659.62,-17.83 572.43,-12.92"/>
<polygon fill="midnightblue" stroke="midnightblue" points="572.38,-9.41 562.21,-12.35 572,-16.4 572.38,-9.41"/>
</g>
<!-- Node12 -->
<g id="node12" class="node">
<title>Node12</title>
<g id="a_node12"><a xlink:title=" ">
<polygon fill="none" stroke="#bfbfbf" points="757.5,-56.5 757.5,-75.5 813.5,-75.5 813.5,-56.5 757.5,-56.5"/>
<text text-anchor="middle" x="785.5" y="-63.5" font-family="Helvetica,sans-Serif" font-size="10.00">unistd.h</text>
</a>
</g>
</g>
<!-- Node2&#45;&gt;Node12 -->
<g id="edge23" class="edge">
<title>Node2&#45;&gt;Node12</title>
<path fill="none" stroke="midnightblue" d="M611.33,-168.37C644.04,-149.33 722.59,-103.62 762.05,-80.65"/>
<polygon fill="midnightblue" stroke="midnightblue" points="763.86,-83.65 770.74,-75.59 760.34,-77.6 763.86,-83.65"/>
</g>
<!-- Node13 -->
<g id="node13" class="node">
<title>Node13</title>
<g id="a_node13"><a xlink:title=" ">
<polygon fill="none" stroke="#bfbfbf" points="832,-56.5 832,-75.5 885,-75.5 885,-56.5 832,-56.5"/>
<text text-anchor="middle" x="858.5" y="-63.5" font-family="Helvetica,sans-Serif" font-size="10.00">string.h</text>
</a>
</g>
</g>
<!-- Node2&#45;&gt;Node13 -->
<g id="edge24" class="edge">
<title>Node2&#45;&gt;Node13</title>
<path fill="none" stroke="midnightblue" d="M617.42,-168.44C639.39,-159.43 674.91,-144.81 705.5,-132 748.5,-113.99 798.14,-92.83 828.93,-79.67"/>
<polygon fill="midnightblue" stroke="midnightblue" points="830.42,-82.84 838.23,-75.69 827.66,-76.4 830.42,-82.84"/>
</g>
<!-- Node4&#45;&gt;Node3 -->
<g id="edge6" class="edge">
<title>Node4&#45;&gt;Node3</title>
<path fill="none" stroke="midnightblue" d="M442.3,-118.74C359.07,-113.89 179.77,-100.83 123.5,-76 98.3,-64.88 75.15,-42.58 61.19,-27.23"/>
<polygon fill="midnightblue" stroke="midnightblue" points="63.65,-24.73 54.42,-19.53 58.39,-29.35 63.65,-24.73"/>
</g>
<!-- Node4&#45;&gt;Node5 -->
<g id="edge4" class="edge">
<title>Node4&#45;&gt;Node5</title>
<path fill="none" stroke="midnightblue" d="M442.36,-117.41C369.55,-111.05 217.75,-96.52 90.5,-76 89.23,-75.8 87.94,-75.58 86.64,-75.35"/>
<polygon fill="midnightblue" stroke="midnightblue" points="87.05,-71.87 76.58,-73.47 85.76,-78.75 87.05,-71.87"/>
</g>
<!-- Node4&#45;&gt;Node6 -->
<g id="edge7" class="edge">
<title>Node4&#45;&gt;Node6</title>
<path fill="none" stroke="midnightblue" d="M442.44,-113.09C390.98,-103.64 304.73,-87.8 247.97,-77.37"/>
<polygon fill="midnightblue" stroke="midnightblue" points="248.55,-73.92 238.08,-75.56 247.28,-80.8 248.55,-73.92"/>
</g>
<!-- Node8 -->
<g id="node8" class="node">
<title>Node8</title>
<g id="a_node8"><a xlink:title=" ">
<polygon fill="none" stroke="#bfbfbf" points="241,-0.5 241,-19.5 306,-19.5 306,-0.5 241,-0.5"/>
<text text-anchor="middle" x="273.5" y="-7.5" font-family="Helvetica,sans-Serif" font-size="10.00">functional</text>
</a>
</g>
</g>
<!-- Node4&#45;&gt;Node8 -->
<g id="edge18" class="edge">
<title>Node4&#45;&gt;Node8</title>
<path fill="none" stroke="midnightblue" d="M442.41,-116.21C408.37,-110.79 360.86,-99.43 325.5,-76 307.12,-63.82 292.18,-43.07 283.1,-28.29"/>
<polygon fill="midnightblue" stroke="midnightblue" points="286.08,-26.45 278.01,-19.59 280.04,-29.99 286.08,-26.45"/>
</g>
<!-- Node9 -->
<g id="node9" class="node">
<title>Node9</title>
<g id="a_node9"><a xlink:href="uout__builder__plaintext_8hh_source.html" target="_top" xlink:title=" ">
<polygon fill="none" stroke="black" points="345,-56.5 345,-75.5 486,-75.5 486,-56.5 345,-56.5"/>
<text text-anchor="middle" x="415.5" y="-63.5" font-family="Helvetica,sans-Serif" font-size="10.00">uout_builder_plaintext.hh</text>
</a>
</g>
</g>
<!-- Node4&#45;&gt;Node9 -->
<g id="edge10" class="edge">
<title>Node4&#45;&gt;Node9</title>
<path fill="none" stroke="midnightblue" d="M474.25,-112.32C463.7,-104.18 447.7,-91.84 435.06,-82.09"/>
<polygon fill="midnightblue" stroke="midnightblue" points="437.01,-79.17 426.95,-75.83 432.73,-84.71 437.01,-79.17"/>
</g>
<!-- Node4&#45;&gt;Node10 -->
<g id="edge13" class="edge">
<title>Node4&#45;&gt;Node10</title>
<path fill="none" stroke="midnightblue" d="M442.5,-117.46C387.84,-111.28 304.12,-95.23 335.5,-56 355.52,-30.97 446.35,-18.89 498.46,-13.92"/>
<polygon fill="midnightblue" stroke="midnightblue" points="499,-17.39 508.64,-13 498.36,-10.42 499,-17.39"/>
</g>
<!-- Node4&#45;&gt;Node12 -->
<g id="edge14" class="edge">
<title>Node4&#45;&gt;Node12</title>
<path fill="none" stroke="midnightblue" d="M528.77,-114.42C580.84,-106.3 670.85,-91.64 747.5,-76 747.6,-75.98 747.7,-75.96 747.8,-75.94"/>
<polygon fill="midnightblue" stroke="midnightblue" points="748.29,-79.41 757.32,-73.88 746.81,-72.57 748.29,-79.41"/>
</g>
<!-- Node4&#45;&gt;Node13 -->
<g id="edge15" class="edge">
<title>Node4&#45;&gt;Node13</title>
<path fill="none" stroke="midnightblue" d="M528.57,-116.81C591.01,-110.4 710.45,-96.85 821.78,-75.93"/>
<polygon fill="midnightblue" stroke="midnightblue" points="822.67,-79.33 831.84,-74.02 821.36,-72.45 822.67,-79.33"/>
</g>
<!-- Node14 -->
<g id="node14" class="node">
<title>Node14</title>
<g id="a_node14"><a xlink:title=" ">
<polygon fill="none" stroke="#bfbfbf" points="504.5,-56.5 504.5,-75.5 560.5,-75.5 560.5,-56.5 504.5,-56.5"/>
<text text-anchor="middle" x="532.5" y="-63.5" font-family="Helvetica,sans-Serif" font-size="10.00">assert.h</text>
</a>
</g>
</g>
<!-- Node4&#45;&gt;Node14 -->
<g id="edge16" class="edge">
<title>Node4&#45;&gt;Node14</title>
<path fill="none" stroke="midnightblue" d="M493.26,-112.08C500.04,-104.3 510.04,-92.8 518.26,-83.37"/>
<polygon fill="midnightblue" stroke="midnightblue" points="520.96,-85.59 524.88,-75.75 515.68,-81 520.96,-85.59"/>
</g>
<!-- Node15 -->
<g id="node15" class="node">
<title>Node15</title>
<g id="a_node15"><a xlink:href="itoa_8h_source.html" target="_top" xlink:title=" ">
<polygon fill="none" stroke="black" points="579,-56.5 579,-75.5 676,-75.5 676,-56.5 579,-56.5"/>
<text text-anchor="middle" x="627.5" y="-63.5" font-family="Helvetica,sans-Serif" font-size="10.00">utils_misc/itoa.h</text>
</a>
</g>
</g>
<!-- Node4&#45;&gt;Node15 -->
<g id="edge17" class="edge">
<title>Node4&#45;&gt;Node15</title>
<path fill="none" stroke="midnightblue" d="M508,-112.44C531.58,-103.48 568.82,-89.31 595.46,-79.18"/>
<polygon fill="midnightblue" stroke="midnightblue" points="597,-82.34 605.1,-75.52 594.51,-75.8 597,-82.34"/>
</g>
<!-- Node16 -->
<g id="node16" class="node">
<title>Node16</title>
<g id="a_node16"><a xlink:title=" ">
<polygon fill="none" stroke="#bfbfbf" points="694,-56.5 694,-75.5 739,-75.5 739,-56.5 694,-56.5"/>
<text text-anchor="middle" x="716.5" y="-63.5" font-family="Helvetica,sans-Serif" font-size="10.00">utility</text>
</a>
</g>
</g>
<!-- Node4&#45;&gt;Node16 -->
<g id="edge19" class="edge">
<title>Node4&#45;&gt;Node16</title>
<path fill="none" stroke="midnightblue" d="M526.05,-112.47C564.32,-104.29 623.51,-91.25 684.08,-76"/>
<polygon fill="midnightblue" stroke="midnightblue" points="684.98,-79.39 693.81,-73.54 683.26,-72.6 684.98,-79.39"/>
</g>
<!-- Node5&#45;&gt;Node3 -->
<g id="edge5" class="edge">
<title>Node5&#45;&gt;Node3</title>
<path fill="none" stroke="midnightblue" d="M47.5,-56.08C47.5,-49.01 47.5,-38.86 47.5,-29.99"/>
<polygon fill="midnightblue" stroke="midnightblue" points="51,-29.75 47.5,-19.75 44,-29.75 51,-29.75"/>
</g>
<!-- Node7 -->
<g id="node7" class="node">
<title>Node7</title>
<g id="a_node7"><a xlink:title=" ">
<polygon fill="none" stroke="#bfbfbf" points="165,-0.5 165,-19.5 218,-19.5 218,-0.5 165,-0.5"/>
<text text-anchor="middle" x="191.5" y="-7.5" font-family="Helvetica,sans-Serif" font-size="10.00">stdlib.h</text>
</a>
</g>
</g>
<!-- Node6&#45;&gt;Node7 -->
<g id="edge8" class="edge">
<title>Node6&#45;&gt;Node7</title>
<path fill="none" stroke="midnightblue" d="M191.5,-56.08C191.5,-49.01 191.5,-38.86 191.5,-29.99"/>
<polygon fill="midnightblue" stroke="midnightblue" points="195,-29.75 191.5,-19.75 188,-29.75 195,-29.75"/>
</g>
<!-- Node6&#45;&gt;Node8 -->
<g id="edge9" class="edge">
<title>Node6&#45;&gt;Node8</title>
<path fill="none" stroke="midnightblue" d="M204.67,-56.32C217.35,-47.98 236.73,-35.21 251.71,-25.35"/>
<polygon fill="midnightblue" stroke="midnightblue" points="253.93,-28.08 260.36,-19.65 250.08,-22.23 253.93,-28.08"/>
</g>
<!-- Node9&#45;&gt;Node10 -->
<g id="edge11" class="edge">
<title>Node9&#45;&gt;Node10</title>
<path fill="none" stroke="midnightblue" d="M434.51,-56.44C454.09,-47.64 484.81,-33.81 507.23,-23.72"/>
<polygon fill="midnightblue" stroke="midnightblue" points="508.89,-26.81 516.57,-19.52 506.02,-20.43 508.89,-26.81"/>
</g>
<!-- Node11 -->
<g id="node11" class="node">
<title>Node11</title>
<g id="a_node11"><a xlink:title=" ">
<polygon fill="none" stroke="#bfbfbf" points="700.5,-0.5 700.5,-19.5 762.5,-19.5 762.5,-0.5 700.5,-0.5"/>
<text text-anchor="middle" x="731.5" y="-7.5" font-family="Helvetica,sans-Serif" font-size="10.00">stdbool.h</text>
</a>
</g>
</g>
<!-- Node9&#45;&gt;Node11 -->
<g id="edge12" class="edge">
<title>Node9&#45;&gt;Node11</title>
<path fill="none" stroke="midnightblue" d="M465.57,-56.44C527.79,-45.81 632.79,-27.87 690.48,-18.01"/>
<polygon fill="midnightblue" stroke="midnightblue" points="691.07,-21.46 700.34,-16.32 689.89,-14.56 691.07,-21.46"/>
</g>
<!-- Node17&#45;&gt;Node10 -->
<g id="edge26" class="edge">
<title>Node17&#45;&gt;Node10</title>
<path fill="none" stroke="midnightblue" d="M941.75,-58.32C936.97,-57.49 932.12,-56.69 927.5,-56 797.32,-36.6 641.73,-20.97 572.21,-14.38"/>
<polygon fill="midnightblue" stroke="midnightblue" points="572.48,-10.89 562.2,-13.44 571.83,-17.86 572.48,-10.89"/>
</g>
<!-- Node17&#45;&gt;Node11 -->
<g id="edge27" class="edge">
<title>Node17&#45;&gt;Node11</title>
<path fill="none" stroke="midnightblue" d="M941.92,-57.38C897.43,-47.57 820.25,-30.56 772.76,-20.09"/>
<polygon fill="midnightblue" stroke="midnightblue" points="773.32,-16.63 762.8,-17.9 771.82,-23.47 773.32,-16.63"/>
</g>
<!-- Node19 -->
<g id="node19" class="node">
<title>Node19</title>
<g id="a_node19"><a xlink:href="jsmn_8h_source.html" target="_top" xlink:title=" ">
<polygon fill="none" stroke="black" points="1029,-56.5 1029,-75.5 1106,-75.5 1106,-56.5 1029,-56.5"/>
<text text-anchor="middle" x="1067.5" y="-63.5" font-family="Helvetica,sans-Serif" font-size="10.00">jsmn/jsmn.h</text>
</a>
</g>
</g>
<!-- Node18&#45;&gt;Node19 -->
<g id="edge29" class="edge">
<title>Node18&#45;&gt;Node19</title>
<path fill="none" stroke="midnightblue" d="M1067.5,-168.37C1067.5,-150.62 1067.5,-109.67 1067.5,-85.6"/>
<polygon fill="midnightblue" stroke="midnightblue" points="1071,-85.59 1067.5,-75.59 1064,-85.59 1071,-85.59"/>
</g>
<!-- Node21 -->
<g id="node21" class="node">
<title>Node21</title>
<g id="a_node21"><a xlink:href="jsoneat_8hh.html" target="_top" xlink:title="helper class to iterate the JSMN token array and extract data">
<polygon fill="none" stroke="black" points="1203,-112.5 1203,-131.5 1310,-131.5 1310,-112.5 1203,-112.5"/>
<text text-anchor="middle" x="1256.5" y="-119.5" font-family="Helvetica,sans-Serif" font-size="10.00">jsoneat/jsoneat.hh</text>
</a>
</g>
</g>
<!-- Node18&#45;&gt;Node21 -->
<g id="edge31" class="edge">
<title>Node18&#45;&gt;Node21</title>
<path fill="none" stroke="midnightblue" d="M1097.45,-168.44C1129.66,-159.24 1181.03,-144.56 1216.64,-134.39"/>
<polygon fill="midnightblue" stroke="midnightblue" points="1218.04,-137.63 1226.69,-131.52 1216.12,-130.9 1218.04,-137.63"/>
</g>
<!-- Node20 -->
<g id="node20" class="node">
<title>Node20</title>
<g id="a_node20"><a xlink:title=" ">
<polygon fill="none" stroke="#bfbfbf" points="1020,-0.5 1020,-19.5 1115,-19.5 1115,-0.5 1020,-0.5"/>
<text text-anchor="middle" x="1067.5" y="-7.5" font-family="Helvetica,sans-Serif" font-size="10.00">../../jsmn/jsmn.h</text>
</a>
</g>
</g>
<!-- Node19&#45;&gt;Node20 -->
<g id="edge30" class="edge">
<title>Node19&#45;&gt;Node20</title>
<path fill="none" stroke="midnightblue" d="M1067.5,-56.08C1067.5,-49.01 1067.5,-38.86 1067.5,-29.99"/>
<polygon fill="midnightblue" stroke="midnightblue" points="1071,-29.75 1067.5,-19.75 1064,-29.75 1071,-29.75"/>
</g>
<!-- Node21&#45;&gt;Node19 -->
<g id="edge32" class="edge">
<title>Node21&#45;&gt;Node19</title>
<path fill="none" stroke="midnightblue" d="M1226.55,-112.44C1194.34,-103.24 1142.97,-88.56 1107.36,-78.39"/>
<polygon fill="midnightblue" stroke="midnightblue" points="1107.88,-74.9 1097.31,-75.52 1105.96,-81.63 1107.88,-74.9"/>
</g>
<!-- Node22 -->
<g id="node22" class="node">
<title>Node22</title>
<g id="a_node22"><a xlink:title=" ">
<polygon fill="none" stroke="#bfbfbf" points="1124,-56.5 1124,-75.5 1177,-75.5 1177,-56.5 1124,-56.5"/>
<text text-anchor="middle" x="1150.5" y="-63.5" font-family="Helvetica,sans-Serif" font-size="10.00">iterator</text>
</a>
</g>
</g>
<!-- Node21&#45;&gt;Node22 -->
<g id="edge33" class="edge">
<title>Node21&#45;&gt;Node22</title>
<path fill="none" stroke="midnightblue" d="M1239.47,-112.32C1222.47,-103.66 1196.12,-90.24 1176.51,-80.25"/>
<polygon fill="midnightblue" stroke="midnightblue" points="1177.99,-77.08 1167.49,-75.65 1174.81,-83.31 1177.99,-77.08"/>
</g>
<!-- Node23 -->
<g id="node23" class="node">
<title>Node23</title>
<g id="a_node23"><a xlink:title=" ">
<polygon fill="none" stroke="#bfbfbf" points="1195,-56.5 1195,-75.5 1248,-75.5 1248,-56.5 1195,-56.5"/>
<text text-anchor="middle" x="1221.5" y="-63.5" font-family="Helvetica,sans-Serif" font-size="10.00">cstddef</text>
</a>
</g>
</g>
<!-- Node21&#45;&gt;Node23 -->
<g id="edge34" class="edge">
<title>Node21&#45;&gt;Node23</title>
<path fill="none" stroke="midnightblue" d="M1250.72,-112.08C1245.83,-104.53 1238.67,-93.49 1232.67,-84.23"/>
<polygon fill="midnightblue" stroke="midnightblue" points="1235.55,-82.24 1227.17,-75.75 1229.67,-86.05 1235.55,-82.24"/>
</g>
<!-- Node24 -->
<g id="node24" class="node">
<title>Node24</title>
<g id="a_node24"><a xlink:title=" ">
<polygon fill="none" stroke="#bfbfbf" points="1266.5,-56.5 1266.5,-75.5 1316.5,-75.5 1316.5,-56.5 1266.5,-56.5"/>
<text text-anchor="middle" x="1291.5" y="-63.5" font-family="Helvetica,sans-Serif" font-size="10.00">cstring</text>
</a>
</g>
</g>
<!-- Node21&#45;&gt;Node24 -->
<g id="edge35" class="edge">
<title>Node21&#45;&gt;Node24</title>
<path fill="none" stroke="midnightblue" d="M1262.28,-112.08C1267.17,-104.53 1274.33,-93.49 1280.33,-84.23"/>
<polygon fill="midnightblue" stroke="midnightblue" points="1283.33,-86.05 1285.83,-75.75 1277.45,-82.24 1283.33,-86.05"/>
</g>
<!-- Node25 -->
<g id="node25" class="node">
<title>Node25</title>
<g id="a_node25"><a xlink:title=" ">
<polygon fill="none" stroke="#bfbfbf" points="1335,-56.5 1335,-75.5 1384,-75.5 1384,-56.5 1335,-56.5"/>
<text text-anchor="middle" x="1359.5" y="-63.5" font-family="Helvetica,sans-Serif" font-size="10.00">cstdlib</text>
</a>
</g>
</g>
<!-- Node21&#45;&gt;Node25 -->
<g id="edge36" class="edge">
<title>Node21&#45;&gt;Node25</title>
<path fill="none" stroke="midnightblue" d="M1273.05,-112.32C1289.49,-103.7 1314.93,-90.36 1333.97,-80.39"/>
<polygon fill="midnightblue" stroke="midnightblue" points="1335.76,-83.4 1342.99,-75.65 1332.51,-77.2 1335.76,-83.4"/>
</g>
<!-- Node26 -->
<g id="node26" class="node">
<title>Node26</title>
<g id="a_node26"><a xlink:title=" ">
<polygon fill="none" stroke="#bfbfbf" points="1402.5,-56.5 1402.5,-75.5 1454.5,-75.5 1454.5,-56.5 1402.5,-56.5"/>
<text text-anchor="middle" x="1428.5" y="-63.5" font-family="Helvetica,sans-Serif" font-size="10.00">cassert</text>
</a>
</g>
</g>
<!-- Node21&#45;&gt;Node26 -->
<g id="edge37" class="edge">
<title>Node21&#45;&gt;Node26</title>
<path fill="none" stroke="midnightblue" d="M1283.75,-112.44C1313.28,-103.17 1360.52,-88.34 1392.95,-78.16"/>
<polygon fill="midnightblue" stroke="midnightblue" points="1394.01,-81.5 1402.5,-75.16 1391.91,-74.82 1394.01,-81.5"/>
</g>
<!-- Node27 -->
<g id="node27" class="node">
<title>Node27</title>
<g id="a_node27"><a xlink:title=" ">
<polygon fill="none" stroke="#bfbfbf" points="1472.5,-56.5 1472.5,-75.5 1516.5,-75.5 1516.5,-56.5 1472.5,-56.5"/>
<text text-anchor="middle" x="1494.5" y="-63.5" font-family="Helvetica,sans-Serif" font-size="10.00">string</text>
</a>
</g>
</g>
<!-- Node21&#45;&gt;Node27 -->
<g id="edge38" class="edge">
<title>Node21&#45;&gt;Node27</title>
<path fill="none" stroke="midnightblue" d="M1299.92,-112.46C1339.81,-104.42 1400.77,-91.62 1462.32,-76.17"/>
<polygon fill="midnightblue" stroke="midnightblue" points="1463.36,-79.52 1472.2,-73.67 1461.65,-72.73 1463.36,-79.52"/>
</g>
</g>
</svg>
        <g id="navigator" transform="translate(0 0)" fill="#404254">
                <rect fill="#f2f5e9" fill-opacity="0.5" stroke="#606060" stroke-width=".5" x="0" y="0" width="60" height="60"/>
                <use id="zoomplus" xlink:href="#zoomPlus" x="17" y="9" onmousedown="handleZoom(evt,'in')"/>
                <use id="zoomminus" xlink:href="#zoomMin" x="42" y="9" onmousedown="handleZoom(evt,'out')"/>
                <use id="reset" xlink:href="#resetDef" x="30" y="36" onmousedown="handleReset()"/>
                <g id="arrowUp" xlink:href="#dirArrow" transform="translate(30 24)" onmousedown="handlePan(0,-1)">
                  <use xlink:href="#rim" fill="#404040">
                        <set attributeName="fill" to="#808080" begin="arrowUp.mouseover" end="arrowUp.mouseout"/>
                  </use>
                  <path fill="none" stroke="white" stroke-width="1.5" d="M0,-3.0v7 M-2.5,-0.5L0,-3.0L2.5,-0.5"/>
                </g>
                <g id="arrowRight" xlink:href="#dirArrow" transform="rotate(90) translate(36 -43)" onmousedown="handlePan(1,0)">
                  <use xlink:href="#rim" fill="#404040">
                        <set attributeName="fill" to="#808080" begin="arrowRight.mouseover" end="arrowRight.mouseout"/>
                  </use>
                  <path fill="none" stroke="white" stroke-width="1.5" d="M0,-3.0v7 M-2.5,-0.5L0,-3.0L2.5,-0.5"/>
                </g>
                <g id="arrowDown" xlink:href="#dirArrow" transform="rotate(180) translate(-30 -48)" onmousedown="handlePan(0,1)">
                  <use xlink:href="#rim" fill="#404040">
                        <set attributeName="fill" to="#808080" begin="arrowDown.mouseover" end="arrowDown.mouseout"/>
                  </use>
                  <path fill="none" stroke="white" stroke-width="1.5" d="M0,-3.0v7 M-2.5,-0.5L0,-3.0L2.5,-0.5"/>
                </g>
                <g id="arrowLeft" xlink:href="#dirArrow" transform="rotate(270) translate(-36 17)" onmousedown="handlePan(-1,0)">
                  <use xlink:href="#rim" fill="#404040">
                        <set attributeName="fill" to="#808080" begin="arrowLeft.mouseover" end="arrowLeft.mouseout"/>
                  </use>
                  <path fill="none" stroke="white" stroke-width="1.5" d="M0,-3.0v7 M-2.5,-0.5L0,-3.0L2.5,-0.5"/>
                </g>
        </g>
        <svg viewBox="0 0 15 15" width="100%" height="30px" preserveAspectRatio="xMaxYMin meet">
         <g id="arrow_out" transform="scale(0.3 0.3)">
          <a xlink:href="cli_8h__incl_org.svg" target="_base">
           <rect id="button" ry="5" rx="5" y="6" x="6" height="38" width="38"
                fill="#f2f5e9" fill-opacity="0.5" stroke="#606060" stroke-width="1.0"/>
           <path id="arrow"
             d="M 11.500037,31.436501 C 11.940474,20.09759 22.043105,11.32322 32.158766,21.979434 L 37.068811,17.246167 C 37.068811,17.246167 37.088388,32 37.088388,32 L 22.160133,31.978069 C 22.160133,31.978069 26.997745,27.140456 26.997745,27.140456 C 18.528582,18.264221 13.291696,25.230495 11.500037,31.436501 z"
             style="fill:#404040;"/>
          </a>
         </g>
        </svg>
</svg>
