<?xml version="1.0" encoding="UTF-8" standalone="no"?>
<!DOCTYPE svg PUBLIC "-//W3C//DTD SVG 1.1//EN"
 "http://www.w3.org/Graphics/SVG/1.1/DTD/svg11.dtd">
<!-- Generated by graphviz version 2.43.0 (0)
 -->
<!-- Title: fernotron/pos/commands.h Pages: 1 -->
<!--zoomable 464 -->
<svg id="main" version="1.1" xmlns="http://www.w3.org/2000/svg" xmlns:xlink="http://www.w3.org/1999/xlink" xml:space="preserve" onload="init(evt)">
<style type="text/css"><![CDATA[
.edge:hover path { stroke: red; }
.edge:hover polygon { stroke: red; fill: red; }
]]></style>
<script type="text/javascript"><![CDATA[
var edges = document.getElementsByTagName('g');
if (edges && edges.length) {
  for (var i=0;i<edges.length;i++) {
    if (edges[i].id.substr(0,4)=='edge') {
      edges[i].setAttribute('class','edge');
    }
  }
}
]]></script>
        <defs>
                <circle id="rim" cx="0" cy="0" r="7"/>
                <circle id="rim2" cx="0" cy="0" r="3.5"/>
                <g id="zoomPlus">
                        <use xlink:href="#rim" fill="#404040">
                                <set attributeName="fill" to="#808080" begin="zoomplus.mouseover" end="zoomplus.mouseout"/>
                        </use>
                        <path d="M-4,0h8M0,-4v8" fill="none" stroke="white" stroke-width="1.5" pointer-events="none"/>
                </g>
                <g id="zoomMin">
                        <use xlink:href="#rim" fill="#404040">
                                <set attributeName="fill" to="#808080" begin="zoomminus.mouseover" end="zoomminus.mouseout"/>
                        </use>
                        <path d="M-4,0h8" fill="none" stroke="white" stroke-width="1.5" pointer-events="none"/>
                </g>
                <g id="dirArrow">
                        <path fill="none" stroke="white" stroke-width="1.5" d="M0,-3.0v7 M-2.5,-0.5L0,-3.0L2.5,-0.5"/>
                </g>
               <g id="resetDef">
                       <use xlink:href="#rim2" fill="#404040">
                               <set attributeName="fill" to="#808080" begin="reset.mouseover" end="reset.mouseout"/>
                       </use>
               </g>
        </defs>

<script type="text/javascript">
var viewWidth = 893;
var viewHeight = 464;
var sectionId = 'dynsection-0';
</script>
<script xlink:href="svgpan.js"/>
<svg id="graph" class="graph">
<g id="viewport">
<title>fernotron/pos/commands.h</title>
<!-- Node1 -->
<g id="node1" class="node">
<title>Node1</title>
<g id="a_node1"><a xlink:title="commands to move or stop a shutter with position support">
<polygon fill="#bfbfbf" stroke="black" points="298,-436.5 298,-455.5 446,-455.5 446,-436.5 298,-436.5"/>
<text text-anchor="middle" x="372" y="-443.5" font-family="Helvetica,sans-Serif" font-size="10.00">fernotron/pos/commands.h</text>
</a>
</g>
</g>
<!-- Node2 -->
<g id="node2" class="node">
<title>Node2</title>
<g id="a_node2"><a xlink:href="fer__msg__plain_8h.html" target="_top" xlink:title="Data structure of plain messages or header of extended messages.">
<polygon fill="none" stroke="black" points="211,-313.5 211,-343.5 329,-343.5 329,-313.5 211,-313.5"/>
<text text-anchor="start" x="219" y="-331.5" font-family="Helvetica,sans-Serif" font-size="10.00">fernotron_trx/raw/fer</text>
<text text-anchor="middle" x="270" y="-320.5" font-family="Helvetica,sans-Serif" font-size="10.00">_msg_plain.h</text>
</a>
</g>
</g>
<!-- Node1&#45;&gt;Node2 -->
<g id="edge1" class="edge">
<title>Node1&#45;&gt;Node2</title>
<path fill="none" stroke="midnightblue" d="M364.33,-436.32C348.53,-418.42 311.92,-376.97 289.23,-351.28"/>
<polygon fill="midnightblue" stroke="midnightblue" points="291.65,-348.72 282.4,-343.55 286.4,-353.36 291.65,-348.72"/>
</g>
<!-- Node4 -->
<g id="node4" class="node">
<title>Node4</title>
<g id="a_node4"><a xlink:title=" ">
<polygon fill="none" stroke="#bfbfbf" points="205.5,-118 205.5,-137 258.5,-137 258.5,-118 205.5,-118"/>
<text text-anchor="middle" x="232" y="-125" font-family="Helvetica,sans-Serif" font-size="10.00">stdint.h</text>
</a>
</g>
</g>
<!-- Node1&#45;&gt;Node4 -->
<g id="edge30" class="edge">
<title>Node1&#45;&gt;Node4</title>
<path fill="none" stroke="midnightblue" d="M297.61,-437.16C189.06,-423.63 0,-391.21 0,-329.5 0,-329.5 0,-329.5 0,-260.5 0,-171.83 129.61,-141.97 195.08,-132.54"/>
<polygon fill="midnightblue" stroke="midnightblue" points="195.94,-135.95 205.39,-131.15 195.01,-129.02 195.94,-135.95"/>
</g>
<!-- Node8 -->
<g id="node8" class="node">
<title>Node8</title>
<g id="a_node8"><a xlink:title=" ">
<polygon fill="none" stroke="#bfbfbf" points="703,-118 703,-137 765,-137 765,-118 703,-118"/>
<text text-anchor="middle" x="734" y="-125" font-family="Helvetica,sans-Serif" font-size="10.00">stdbool.h</text>
</a>
</g>
</g>
<!-- Node1&#45;&gt;Node8 -->
<g id="edge31" class="edge">
<title>Node1&#45;&gt;Node8</title>
<path fill="none" stroke="midnightblue" d="M446.36,-436.46C552.04,-422.22 733,-389.13 733,-329.5 733,-329.5 733,-329.5 733,-260.5 733,-220.16 733.47,-172.88 733.77,-147.28"/>
<polygon fill="midnightblue" stroke="midnightblue" points="737.27,-147.19 733.89,-137.15 730.27,-147.11 737.27,-147.19"/>
</g>
<!-- Node27 -->
<g id="node27" class="node">
<title>Node27</title>
<g id="a_node27"><a xlink:href="shutter__pct_8h.html" target="_top" xlink:title="include positions_static.h and positions_dynamic.h">
<polygon fill="none" stroke="black" points="366,-380.5 366,-399.5 446,-399.5 446,-380.5 366,-380.5"/>
<text text-anchor="middle" x="406" y="-387.5" font-family="Helvetica,sans-Serif" font-size="10.00">shutter_pct.h</text>
</a>
</g>
</g>
<!-- Node1&#45;&gt;Node27 -->
<g id="edge32" class="edge">
<title>Node1&#45;&gt;Node27</title>
<path fill="none" stroke="midnightblue" d="M377.61,-436.08C382.37,-428.53 389.32,-417.49 395.15,-408.23"/>
<polygon fill="midnightblue" stroke="midnightblue" points="398.12,-410.08 400.49,-399.75 392.2,-406.35 398.12,-410.08"/>
</g>
<!-- Node3 -->
<g id="node3" class="node">
<title>Node3</title>
<g id="a_node3"><a xlink:href="fer__msg__type_8h.html" target="_top" xlink:title="kinds of messages">
<polygon fill="none" stroke="black" points="174,-252 174,-271 266,-271 266,-252 174,-252"/>
<text text-anchor="middle" x="220" y="-259" font-family="Helvetica,sans-Serif" font-size="10.00">fer_msg_type.h</text>
</a>
</g>
</g>
<!-- Node2&#45;&gt;Node3 -->
<g id="edge2" class="edge">
<title>Node2&#45;&gt;Node3</title>
<path fill="none" stroke="midnightblue" d="M259.15,-313.4C251.43,-303.36 241.03,-289.84 232.89,-279.25"/>
<polygon fill="midnightblue" stroke="midnightblue" points="235.56,-276.99 226.69,-271.19 230.01,-281.25 235.56,-276.99"/>
</g>
<!-- Node5 -->
<g id="node5" class="node">
<title>Node5</title>
<g id="a_node5"><a xlink:href="fer__msg__plain__enum_8h.html" target="_top" xlink:title="Raw message for plain commands.">
<polygon fill="none" stroke="black" points="28,-252 28,-271 156,-271 156,-252 28,-252"/>
<text text-anchor="middle" x="92" y="-259" font-family="Helvetica,sans-Serif" font-size="10.00">fer_msg_plain_enum.h</text>
</a>
</g>
</g>
<!-- Node2&#45;&gt;Node5 -->
<g id="edge4" class="edge">
<title>Node2&#45;&gt;Node5</title>
<path fill="none" stroke="midnightblue" d="M231.38,-313.4C199.59,-301.79 155.02,-285.51 124.91,-274.52"/>
<polygon fill="midnightblue" stroke="midnightblue" points="125.89,-271.15 115.3,-271.01 123.49,-277.72 125.89,-271.15"/>
</g>
<!-- Node6 -->
<g id="node6" class="node">
<title>Node6</title>
<g id="a_node6"><a xlink:href="fer__trx__c__api_8h.html" target="_top" xlink:title="C&#45;API for sending and receiving Fernotron RF messages.">
<polygon fill="none" stroke="black" points="322,-246.5 322,-276.5 438,-276.5 438,-246.5 322,-246.5"/>
<text text-anchor="start" x="330" y="-264.5" font-family="Helvetica,sans-Serif" font-size="10.00">fernotron_trx/fer_trx</text>
<text text-anchor="middle" x="380" y="-253.5" font-family="Helvetica,sans-Serif" font-size="10.00">_c_api.h</text>
</a>
</g>
</g>
<!-- Node2&#45;&gt;Node6 -->
<g id="edge5" class="edge">
<title>Node2&#45;&gt;Node6</title>
<path fill="none" stroke="midnightblue" d="M293.87,-313.4C309.58,-304.11 330.35,-291.84 347.55,-281.67"/>
<polygon fill="midnightblue" stroke="midnightblue" points="349.35,-284.68 356.18,-276.58 345.79,-278.65 349.35,-284.68"/>
</g>
<!-- Node26 -->
<g id="node26" class="node">
<title>Node26</title>
<g id="a_node26"><a xlink:href="int__macros_8h.html" target="_top" xlink:title="Basic helper macros for integers.">
<polygon fill="none" stroke="black" points="168,-185 168,-204 300,-204 300,-185 168,-185"/>
<text text-anchor="middle" x="234" y="-192" font-family="Helvetica,sans-Serif" font-size="10.00">utils_misc/int_macros.h</text>
</a>
</g>
</g>
<!-- Node2&#45;&gt;Node26 -->
<g id="edge28" class="edge">
<title>Node2&#45;&gt;Node26</title>
<path fill="none" stroke="midnightblue" d="M274.12,-313.48C278.27,-296.86 283.01,-268.58 275,-246 270.33,-232.83 260.59,-220.59 251.78,-211.46"/>
<polygon fill="midnightblue" stroke="midnightblue" points="254.03,-208.77 244.42,-204.29 249.14,-213.78 254.03,-208.77"/>
</g>
<!-- Node3&#45;&gt;Node4 -->
<g id="edge3" class="edge">
<title>Node3&#45;&gt;Node4</title>
<path fill="none" stroke="midnightblue" d="M187.12,-251.95C153.27,-242.4 103.96,-226.15 93,-210 85.26,-198.6 85.09,-190.28 93,-179 115.93,-146.27 162.37,-134.67 195.24,-130.61"/>
<polygon fill="midnightblue" stroke="midnightblue" points="195.82,-134.07 205.39,-129.54 195.08,-127.11 195.82,-134.07"/>
</g>
<!-- Node7 -->
<g id="node7" class="node">
<title>Node7</title>
<g id="a_node7"><a xlink:href="int__types_8h_source.html" target="_top" xlink:title=" ">
<polygon fill="none" stroke="black" points="318.5,-185 318.5,-204 441.5,-204 441.5,-185 318.5,-185"/>
<text text-anchor="middle" x="380" y="-192" font-family="Helvetica,sans-Serif" font-size="10.00">utils_misc/int_types.h</text>
</a>
</g>
</g>
<!-- Node6&#45;&gt;Node7 -->
<g id="edge6" class="edge">
<title>Node6&#45;&gt;Node7</title>
<path fill="none" stroke="midnightblue" d="M380,-246.4C380,-237.06 380,-224.71 380,-214.52"/>
<polygon fill="midnightblue" stroke="midnightblue" points="383.5,-214.19 380,-204.19 376.5,-214.19 383.5,-214.19"/>
</g>
<!-- Node9 -->
<g id="node9" class="node">
<title>Node9</title>
<g id="a_node9"><a xlink:href="timer__data_8h.html" target="_top" xlink:title="vocabulary types to program Fernotron automatic (timers)">
<polygon fill="none" stroke="black" points="498,-179.5 498,-209.5 608,-209.5 608,-179.5 498,-179.5"/>
<text text-anchor="start" x="506" y="-197.5" font-family="Helvetica,sans-Serif" font-size="10.00">fernotron_trx/timer</text>
<text text-anchor="middle" x="553" y="-186.5" font-family="Helvetica,sans-Serif" font-size="10.00">_data.h</text>
</a>
</g>
</g>
<!-- Node6&#45;&gt;Node9 -->
<g id="edge9" class="edge">
<title>Node6&#45;&gt;Node9</title>
<path fill="none" stroke="midnightblue" d="M417.54,-246.4C443.5,-236.64 478.22,-223.59 506.02,-213.15"/>
<polygon fill="midnightblue" stroke="midnightblue" points="507.4,-216.37 515.53,-209.58 504.94,-209.82 507.4,-216.37"/>
</g>
<!-- Node25 -->
<g id="node25" class="node">
<title>Node25</title>
<g id="a_node25"><a xlink:title=" ">
<polygon fill="none" stroke="#bfbfbf" points="102,-185 102,-204 150,-204 150,-185 102,-185"/>
<text text-anchor="middle" x="126" y="-192" font-family="Helvetica,sans-Serif" font-size="10.00">time.h</text>
</a>
</g>
</g>
<!-- Node6&#45;&gt;Node25 -->
<g id="edge27" class="edge">
<title>Node6&#45;&gt;Node25</title>
<path fill="none" stroke="midnightblue" d="M321.94,-250.35C276.89,-241.74 213.18,-227.91 159,-210 157.13,-209.38 155.22,-208.7 153.31,-207.97"/>
<polygon fill="midnightblue" stroke="midnightblue" points="154.49,-204.67 143.91,-204.11 151.83,-211.15 154.49,-204.67"/>
</g>
<!-- Node7&#45;&gt;Node4 -->
<g id="edge7" class="edge">
<title>Node7&#45;&gt;Node4</title>
<path fill="none" stroke="midnightblue" d="M360.35,-184.87C334.91,-173.7 290.4,-154.15 261.05,-141.26"/>
<polygon fill="midnightblue" stroke="midnightblue" points="262.3,-137.98 251.73,-137.17 259.48,-144.39 262.3,-137.98"/>
</g>
<!-- Node7&#45;&gt;Node8 -->
<g id="edge8" class="edge">
<title>Node7&#45;&gt;Node8</title>
<path fill="none" stroke="midnightblue" d="M441.7,-184.99C519.15,-174.05 647.5,-155.05 694,-143 696.98,-142.23 700.05,-141.32 703.1,-140.35"/>
<polygon fill="midnightblue" stroke="midnightblue" points="704.32,-143.63 712.64,-137.08 702.05,-137.01 704.32,-143.63"/>
</g>
<!-- Node9&#45;&gt;Node4 -->
<g id="edge10" class="edge">
<title>Node9&#45;&gt;Node4</title>
<path fill="none" stroke="midnightblue" d="M497.68,-181.66C493.06,-180.73 488.45,-179.84 484,-179 387.92,-160.94 360.99,-169.88 267,-143 264.71,-142.34 262.36,-141.58 260.02,-140.76"/>
<polygon fill="midnightblue" stroke="midnightblue" points="261.2,-137.46 250.61,-137.13 258.68,-143.99 261.2,-137.46"/>
</g>
<!-- Node9&#45;&gt;Node8 -->
<g id="edge11" class="edge">
<title>Node9&#45;&gt;Node8</title>
<path fill="none" stroke="midnightblue" d="M592.22,-179.5C620.52,-169.39 659.63,-155.38 694,-143 696.23,-142.2 698.53,-141.37 700.84,-140.53"/>
<polygon fill="midnightblue" stroke="midnightblue" points="702.1,-143.8 710.32,-137.1 699.72,-137.21 702.1,-143.8"/>
</g>
<!-- Node10 -->
<g id="node10" class="node">
<title>Node10</title>
<g id="a_node10"><a xlink:title=" ">
<polygon fill="none" stroke="#bfbfbf" points="276.5,-118 276.5,-137 329.5,-137 329.5,-118 276.5,-118"/>
<text text-anchor="middle" x="303" y="-125" font-family="Helvetica,sans-Serif" font-size="10.00">string.h</text>
</a>
</g>
</g>
<!-- Node9&#45;&gt;Node10 -->
<g id="edge12" class="edge">
<title>Node9&#45;&gt;Node10</title>
<path fill="none" stroke="midnightblue" d="M497.79,-181.6C444.36,-169.89 367.29,-152.44 338,-143 335.86,-142.31 333.68,-141.55 331.49,-140.74"/>
<polygon fill="midnightblue" stroke="midnightblue" points="332.63,-137.44 322.05,-137.05 330.08,-143.95 332.63,-137.44"/>
</g>
<!-- Node11 -->
<g id="node11" class="node">
<title>Node11</title>
<g id="a_node11"><a xlink:title=" ">
<polygon fill="none" stroke="#bfbfbf" points="347.5,-118 347.5,-137 400.5,-137 400.5,-118 347.5,-118"/>
<text text-anchor="middle" x="374" y="-125" font-family="Helvetica,sans-Serif" font-size="10.00">ctype.h</text>
</a>
</g>
</g>
<!-- Node9&#45;&gt;Node11 -->
<g id="edge13" class="edge">
<title>Node9&#45;&gt;Node11</title>
<path fill="none" stroke="midnightblue" d="M511.84,-179.49C483.17,-169.61 444.11,-155.89 410,-143 408.16,-142.3 406.26,-141.58 404.36,-140.84"/>
<polygon fill="midnightblue" stroke="midnightblue" points="405.47,-137.51 394.88,-137.09 402.89,-144.02 405.47,-137.51"/>
</g>
<!-- Node12 -->
<g id="node12" class="node">
<title>Node12</title>
<g id="a_node12"><a xlink:title=" ">
<polygon fill="none" stroke="#bfbfbf" points="419,-118 419,-137 469,-137 469,-118 419,-118"/>
<text text-anchor="middle" x="444" y="-125" font-family="Helvetica,sans-Serif" font-size="10.00">stdio.h</text>
</a>
</g>
</g>
<!-- Node9&#45;&gt;Node12 -->
<g id="edge14" class="edge">
<title>Node9&#45;&gt;Node12</title>
<path fill="none" stroke="midnightblue" d="M529.35,-179.4C510.82,-168.34 485.19,-153.06 466.86,-142.13"/>
<polygon fill="midnightblue" stroke="midnightblue" points="468.65,-139.12 458.27,-137.01 465.06,-145.13 468.65,-139.12"/>
</g>
<!-- Node13 -->
<g id="node13" class="node">
<title>Node13</title>
<g id="a_node13"><a xlink:href="cstring__utils_8hh_source.html" target="_top" xlink:title=" ">
<polygon fill="none" stroke="black" points="487,-112.5 487,-142.5 589,-142.5 589,-112.5 487,-112.5"/>
<text text-anchor="start" x="495" y="-130.5" font-family="Helvetica,sans-Serif" font-size="10.00">utils_misc/cstring</text>
<text text-anchor="middle" x="538" y="-119.5" font-family="Helvetica,sans-Serif" font-size="10.00">_utils.hh</text>
</a>
</g>
</g>
<!-- Node9&#45;&gt;Node13 -->
<g id="edge15" class="edge">
<title>Node9&#45;&gt;Node13</title>
<path fill="none" stroke="midnightblue" d="M549.75,-179.4C547.94,-171.56 545.64,-161.6 543.55,-152.57"/>
<polygon fill="midnightblue" stroke="midnightblue" points="546.91,-151.53 541.25,-142.58 540.09,-153.11 546.91,-151.53"/>
</g>
<!-- Node19 -->
<g id="node19" class="node">
<title>Node19</title>
<g id="a_node19"><a xlink:href="dbg_8h_source.html" target="_top" xlink:title=" ">
<polygon fill="none" stroke="black" points="607.5,-118 607.5,-137 684.5,-137 684.5,-118 607.5,-118"/>
<text text-anchor="middle" x="646" y="-125" font-family="Helvetica,sans-Serif" font-size="10.00">debug/dbg.h</text>
</a>
</g>
</g>
<!-- Node9&#45;&gt;Node19 -->
<g id="edge21" class="edge">
<title>Node9&#45;&gt;Node19</title>
<path fill="none" stroke="midnightblue" d="M573.18,-179.4C588.63,-168.6 609.86,-153.76 625.42,-142.89"/>
<polygon fill="midnightblue" stroke="midnightblue" points="627.64,-145.6 633.83,-137.01 623.63,-139.87 627.64,-145.6"/>
</g>
<!-- Node14 -->
<g id="node14" class="node">
<title>Node14</title>
<g id="a_node14"><a xlink:title=" ">
<polygon fill="none" stroke="#bfbfbf" points="326,-56.5 326,-75.5 376,-75.5 376,-56.5 326,-56.5"/>
<text text-anchor="middle" x="351" y="-63.5" font-family="Helvetica,sans-Serif" font-size="10.00">cstring</text>
</a>
</g>
</g>
<!-- Node13&#45;&gt;Node14 -->
<g id="edge16" class="edge">
<title>Node13&#45;&gt;Node14</title>
<path fill="none" stroke="midnightblue" d="M493.68,-112.4C460.69,-101.9 416.28,-87.77 385.82,-78.08"/>
<polygon fill="midnightblue" stroke="midnightblue" points="386.65,-74.67 376.06,-74.97 384.52,-81.34 386.65,-74.67"/>
</g>
<!-- Node15 -->
<g id="node15" class="node">
<title>Node15</title>
<g id="a_node15"><a xlink:title=" ">
<polygon fill="none" stroke="#bfbfbf" points="394.5,-56.5 394.5,-75.5 463.5,-75.5 463.5,-56.5 394.5,-56.5"/>
<text text-anchor="middle" x="429" y="-63.5" font-family="Helvetica,sans-Serif" font-size="10.00">type_traits</text>
</a>
</g>
</g>
<!-- Node13&#45;&gt;Node15 -->
<g id="edge17" class="edge">
<title>Node13&#45;&gt;Node15</title>
<path fill="none" stroke="midnightblue" d="M512.17,-112.4C494.53,-102.77 471.3,-90.09 453.87,-80.58"/>
<polygon fill="midnightblue" stroke="midnightblue" points="455.31,-77.38 444.86,-75.66 451.96,-83.52 455.31,-77.38"/>
</g>
<!-- Node16 -->
<g id="node16" class="node">
<title>Node16</title>
<g id="a_node16"><a xlink:href="allocator__malloc_8hh_source.html" target="_top" xlink:title=" ">
<polygon fill="none" stroke="black" points="481.5,-56.5 481.5,-75.5 594.5,-75.5 594.5,-56.5 481.5,-56.5"/>
<text text-anchor="middle" x="538" y="-63.5" font-family="Helvetica,sans-Serif" font-size="10.00">allocator_malloc.hh</text>
</a>
</g>
</g>
<!-- Node13&#45;&gt;Node16 -->
<g id="edge18" class="edge">
<title>Node13&#45;&gt;Node16</title>
<path fill="none" stroke="midnightblue" d="M538,-112.4C538,-104.47 538,-94.46 538,-85.86"/>
<polygon fill="midnightblue" stroke="midnightblue" points="541.5,-85.66 538,-75.66 534.5,-85.66 541.5,-85.66"/>
</g>
<!-- Node17 -->
<g id="node17" class="node">
<title>Node17</title>
<g id="a_node17"><a xlink:title=" ">
<polygon fill="none" stroke="#bfbfbf" points="548,-0.5 548,-19.5 606,-19.5 606,-0.5 548,-0.5"/>
<text text-anchor="middle" x="577" y="-7.5" font-family="Helvetica,sans-Serif" font-size="10.00">memory</text>
</a>
</g>
</g>
<!-- Node16&#45;&gt;Node17 -->
<g id="edge19" class="edge">
<title>Node16&#45;&gt;Node17</title>
<path fill="none" stroke="midnightblue" d="M544.44,-56.08C549.95,-48.46 558.03,-37.26 564.76,-27.94"/>
<polygon fill="midnightblue" stroke="midnightblue" points="567.66,-29.91 570.68,-19.75 561.99,-25.81 567.66,-29.91"/>
</g>
<!-- Node18 -->
<g id="node18" class="node">
<title>Node18</title>
<g id="a_node18"><a xlink:title=" ">
<polygon fill="none" stroke="#bfbfbf" points="470.5,-0.5 470.5,-19.5 529.5,-19.5 529.5,-0.5 470.5,-0.5"/>
<text text-anchor="middle" x="500" y="-7.5" font-family="Helvetica,sans-Serif" font-size="10.00">malloc.h</text>
</a>
</g>
</g>
<!-- Node16&#45;&gt;Node18 -->
<g id="edge20" class="edge">
<title>Node16&#45;&gt;Node18</title>
<path fill="none" stroke="midnightblue" d="M531.73,-56.08C526.36,-48.46 518.48,-37.26 511.92,-27.94"/>
<polygon fill="midnightblue" stroke="midnightblue" points="514.78,-25.91 506.16,-19.75 509.05,-29.94 514.78,-25.91"/>
</g>
<!-- Node20 -->
<g id="node20" class="node">
<title>Node20</title>
<g id="a_node20"><a xlink:href="log_8h_source.html" target="_top" xlink:title=" ">
<polygon fill="none" stroke="black" points="832.5,-56.5 832.5,-75.5 873.5,-75.5 873.5,-56.5 832.5,-56.5"/>
<text text-anchor="middle" x="853" y="-63.5" font-family="Helvetica,sans-Serif" font-size="10.00">log.h</text>
</a>
</g>
</g>
<!-- Node19&#45;&gt;Node20 -->
<g id="edge22" class="edge">
<title>Node19&#45;&gt;Node20</title>
<path fill="none" stroke="midnightblue" d="M673.89,-117.97C680.48,-115.98 687.48,-113.89 694,-112 748.26,-96.24 764.22,-92.88 822.61,-76.07"/>
<polygon fill="midnightblue" stroke="midnightblue" points="823.72,-79.39 832.36,-73.25 821.78,-72.66 823.72,-79.39"/>
</g>
<!-- Node22 -->
<g id="node22" class="node">
<title>Node22</title>
<g id="a_node22"><a xlink:title=" ">
<polygon fill="none" stroke="#bfbfbf" points="612.5,-56.5 612.5,-75.5 665.5,-75.5 665.5,-56.5 612.5,-56.5"/>
<text text-anchor="middle" x="639" y="-63.5" font-family="Helvetica,sans-Serif" font-size="10.00">stdlib.h</text>
</a>
</g>
</g>
<!-- Node19&#45;&gt;Node22 -->
<g id="edge24" class="edge">
<title>Node19&#45;&gt;Node22</title>
<path fill="none" stroke="midnightblue" d="M645,-117.98C644.01,-109.58 642.47,-96.48 641.2,-85.66"/>
<polygon fill="midnightblue" stroke="midnightblue" points="644.65,-85.03 640,-75.51 637.69,-85.85 644.65,-85.03"/>
</g>
<!-- Node23 -->
<g id="node23" class="node">
<title>Node23</title>
<g id="a_node23"><a xlink:title=" ">
<polygon fill="none" stroke="#bfbfbf" points="684,-56.5 684,-75.5 740,-75.5 740,-56.5 684,-56.5"/>
<text text-anchor="middle" x="712" y="-63.5" font-family="Helvetica,sans-Serif" font-size="10.00">unistd.h</text>
</a>
</g>
</g>
<!-- Node19&#45;&gt;Node23 -->
<g id="edge25" class="edge">
<title>Node19&#45;&gt;Node23</title>
<path fill="none" stroke="midnightblue" d="M655.46,-117.98C665.75,-108.7 682.42,-93.67 694.99,-82.33"/>
<polygon fill="midnightblue" stroke="midnightblue" points="697.48,-84.8 702.56,-75.51 692.79,-79.61 697.48,-84.8"/>
</g>
<!-- Node24 -->
<g id="node24" class="node">
<title>Node24</title>
<g id="a_node24"><a xlink:title=" ">
<polygon fill="none" stroke="#bfbfbf" points="758,-56.5 758,-75.5 814,-75.5 814,-56.5 758,-56.5"/>
<text text-anchor="middle" x="786" y="-63.5" font-family="Helvetica,sans-Serif" font-size="10.00">assert.h</text>
</a>
</g>
</g>
<!-- Node19&#45;&gt;Node24 -->
<g id="edge26" class="edge">
<title>Node19&#45;&gt;Node24</title>
<path fill="none" stroke="midnightblue" d="M666.06,-117.98C689.76,-107.9 729.41,-91.05 756.58,-79.5"/>
<polygon fill="midnightblue" stroke="midnightblue" points="758.14,-82.64 765.98,-75.51 755.41,-76.2 758.14,-82.64"/>
</g>
<!-- Node21 -->
<g id="node21" class="node">
<title>Node21</title>
<g id="a_node21"><a xlink:title=" ">
<polygon fill="none" stroke="#bfbfbf" points="821.5,-0.5 821.5,-19.5 884.5,-19.5 884.5,-0.5 821.5,-0.5"/>
<text text-anchor="middle" x="853" y="-7.5" font-family="Helvetica,sans-Serif" font-size="10.00">esp_log.h</text>
</a>
</g>
</g>
<!-- Node20&#45;&gt;Node21 -->
<g id="edge23" class="edge">
<title>Node20&#45;&gt;Node21</title>
<path fill="none" stroke="midnightblue" d="M853,-56.08C853,-49.01 853,-38.86 853,-29.99"/>
<polygon fill="midnightblue" stroke="midnightblue" points="856.5,-29.75 853,-19.75 849.5,-29.75 856.5,-29.75"/>
</g>
<!-- Node26&#45;&gt;Node4 -->
<g id="edge29" class="edge">
<title>Node26&#45;&gt;Node4</title>
<path fill="none" stroke="midnightblue" d="M233.73,-184.73C233.44,-175.18 232.96,-159.62 232.58,-147.28"/>
<polygon fill="midnightblue" stroke="midnightblue" points="236.07,-147.01 232.27,-137.13 229.07,-147.23 236.07,-147.01"/>
</g>
<!-- Node28 -->
<g id="node28" class="node">
<title>Node28</title>
<g id="a_node28"><a xlink:href="positions__static_8h.html" target="_top" xlink:title="Store and retrieve shutter positions (persistently)">
<polygon fill="none" stroke="black" points="483,-319 483,-338 585,-338 585,-319 483,-319"/>
<text text-anchor="middle" x="534" y="-326" font-family="Helvetica,sans-Serif" font-size="10.00">positions_static.h</text>
</a>
</g>
</g>
<!-- Node27&#45;&gt;Node28 -->
<g id="edge33" class="edge">
<title>Node27&#45;&gt;Node28</title>
<path fill="none" stroke="midnightblue" d="M424.34,-380.48C445.82,-370.49 481.62,-353.85 506.45,-342.31"/>
<polygon fill="midnightblue" stroke="midnightblue" points="508.1,-345.4 515.69,-338.01 505.15,-339.05 508.1,-345.4"/>
</g>
<!-- Node30 -->
<g id="node30" class="node">
<title>Node30</title>
<g id="a_node30"><a xlink:href="positions__dynamic_8h.html" target="_top" xlink:title="Keep track of positions for a currently moving shutter.">
<polygon fill="none" stroke="black" points="347.5,-319 347.5,-338 464.5,-338 464.5,-319 347.5,-319"/>
<text text-anchor="middle" x="406" y="-326" font-family="Helvetica,sans-Serif" font-size="10.00">positions_dynamic.h</text>
</a>
</g>
</g>
<!-- Node27&#45;&gt;Node30 -->
<g id="edge39" class="edge">
<title>Node27&#45;&gt;Node30</title>
<path fill="none" stroke="midnightblue" d="M406,-380.48C406,-372.08 406,-358.98 406,-348.16"/>
<polygon fill="midnightblue" stroke="midnightblue" points="409.5,-348.01 406,-338.01 402.5,-348.01 409.5,-348.01"/>
</g>
<!-- Node28&#45;&gt;Node8 -->
<g id="edge38" class="edge">
<title>Node28&#45;&gt;Node8</title>
<path fill="none" stroke="midnightblue" d="M543.09,-318.72C563.21,-299.26 612.95,-251 654,-210 676.66,-187.36 702.59,-160.84 718.62,-144.35"/>
<polygon fill="midnightblue" stroke="midnightblue" points="721.19,-146.73 725.65,-137.12 716.17,-141.85 721.19,-146.73"/>
</g>
<!-- Node29 -->
<g id="node29" class="node">
<title>Node29</title>
<g id="a_node29"><a xlink:href="fer__pct_8h.html" target="_top" xlink:title="class Pct to represent shutter opening percentage">
<polygon fill="none" stroke="black" points="456.5,-252 456.5,-271 563.5,-271 563.5,-252 456.5,-252"/>
<text text-anchor="middle" x="510" y="-259" font-family="Helvetica,sans-Serif" font-size="10.00">fernotron/fer_pct.h</text>
</a>
</g>
</g>
<!-- Node28&#45;&gt;Node29 -->
<g id="edge34" class="edge">
<title>Node28&#45;&gt;Node29</title>
<path fill="none" stroke="midnightblue" d="M530.76,-318.73C527.16,-308.99 521.25,-292.98 516.66,-280.53"/>
<polygon fill="midnightblue" stroke="midnightblue" points="519.93,-279.3 513.19,-271.13 513.37,-281.72 519.93,-279.3"/>
</g>
<!-- Node29&#45;&gt;Node4 -->
<g id="edge35" class="edge">
<title>Node29&#45;&gt;Node4</title>
<path fill="none" stroke="midnightblue" d="M506.44,-251.95C498.91,-235.03 479.7,-197.34 451,-179 380.79,-134.12 346.78,-167.07 267,-143 264.72,-142.31 262.38,-141.53 260.04,-140.69"/>
<polygon fill="midnightblue" stroke="midnightblue" points="261.23,-137.39 250.64,-137.03 258.69,-143.92 261.23,-137.39"/>
</g>
<!-- Node29&#45;&gt;Node8 -->
<g id="edge36" class="edge">
<title>Node29&#45;&gt;Node8</title>
<path fill="none" stroke="midnightblue" d="M530.63,-251.99C552.57,-242.66 588.02,-226.77 617,-210 653.13,-189.09 692.42,-160.37 715.04,-143.2"/>
<polygon fill="midnightblue" stroke="midnightblue" points="717.3,-145.87 723.12,-137.01 713.05,-140.31 717.3,-145.87"/>
</g>
<!-- Node29&#45;&gt;Node26 -->
<g id="edge37" class="edge">
<title>Node29&#45;&gt;Node26</title>
<path fill="none" stroke="midnightblue" d="M473.63,-251.94C423.89,-240.22 334.6,-219.19 280.18,-206.38"/>
<polygon fill="midnightblue" stroke="midnightblue" points="280.98,-202.97 270.45,-204.08 279.38,-209.78 280.98,-202.97"/>
</g>
<!-- Node30&#45;&gt;Node6 -->
<g id="edge41" class="edge">
<title>Node30&#45;&gt;Node6</title>
<path fill="none" stroke="midnightblue" d="M402.49,-318.73C399.15,-310.37 393.96,-297.4 389.41,-286.02"/>
<polygon fill="midnightblue" stroke="midnightblue" points="392.6,-284.57 385.64,-276.59 386.1,-287.17 392.6,-284.57"/>
</g>
<!-- Node30&#45;&gt;Node29 -->
<g id="edge40" class="edge">
<title>Node30&#45;&gt;Node29</title>
<path fill="none" stroke="midnightblue" d="M420.03,-318.73C437.33,-307.92 466.99,-289.38 487.49,-276.57"/>
<polygon fill="midnightblue" stroke="midnightblue" points="489.57,-279.4 496.2,-271.13 485.86,-273.46 489.57,-279.4"/>
</g>
</g>
</svg>
        <g id="navigator" transform="translate(0 0)" fill="#404254">
                <rect fill="#f2f5e9" fill-opacity="0.5" stroke="#606060" stroke-width=".5" x="0" y="0" width="60" height="60"/>
                <use id="zoomplus" xlink:href="#zoomPlus" x="17" y="9" onmousedown="handleZoom(evt,'in')"/>
                <use id="zoomminus" xlink:href="#zoomMin" x="42" y="9" onmousedown="handleZoom(evt,'out')"/>
                <use id="reset" xlink:href="#resetDef" x="30" y="36" onmousedown="handleReset()"/>
                <g id="arrowUp" xlink:href="#dirArrow" transform="translate(30 24)" onmousedown="handlePan(0,-1)">
                  <use xlink:href="#rim" fill="#404040">
                        <set attributeName="fill" to="#808080" begin="arrowUp.mouseover" end="arrowUp.mouseout"/>
                  </use>
                  <path fill="none" stroke="white" stroke-width="1.5" d="M0,-3.0v7 M-2.5,-0.5L0,-3.0L2.5,-0.5"/>
                </g>
                <g id="arrowRight" xlink:href="#dirArrow" transform="rotate(90) translate(36 -43)" onmousedown="handlePan(1,0)">
                  <use xlink:href="#rim" fill="#404040">
                        <set attributeName="fill" to="#808080" begin="arrowRight.mouseover" end="arrowRight.mouseout"/>
                  </use>
                  <path fill="none" stroke="white" stroke-width="1.5" d="M0,-3.0v7 M-2.5,-0.5L0,-3.0L2.5,-0.5"/>
                </g>
                <g id="arrowDown" xlink:href="#dirArrow" transform="rotate(180) translate(-30 -48)" onmousedown="handlePan(0,1)">
                  <use xlink:href="#rim" fill="#404040">
                        <set attributeName="fill" to="#808080" begin="arrowDown.mouseover" end="arrowDown.mouseout"/>
                  </use>
                  <path fill="none" stroke="white" stroke-width="1.5" d="M0,-3.0v7 M-2.5,-0.5L0,-3.0L2.5,-0.5"/>
                </g>
                <g id="arrowLeft" xlink:href="#dirArrow" transform="rotate(270) translate(-36 17)" onmousedown="handlePan(-1,0)">
                  <use xlink:href="#rim" fill="#404040">
                        <set attributeName="fill" to="#808080" begin="arrowLeft.mouseover" end="arrowLeft.mouseout"/>
                  </use>
                  <path fill="none" stroke="white" stroke-width="1.5" d="M0,-3.0v7 M-2.5,-0.5L0,-3.0L2.5,-0.5"/>
                </g>
        </g>
        <svg viewBox="0 0 15 15" width="100%" height="30px" preserveAspectRatio="xMaxYMin meet">
         <g id="arrow_out" transform="scale(0.3 0.3)">
          <a xlink:href="commands_8h__incl_org.svg" target="_base">
           <rect id="button" ry="5" rx="5" y="6" x="6" height="38" width="38"
                fill="#f2f5e9" fill-opacity="0.5" stroke="#606060" stroke-width="1.0"/>
           <path id="arrow"
             d="M 11.500037,31.436501 C 11.940474,20.09759 22.043105,11.32322 32.158766,21.979434 L 37.068811,17.246167 C 37.068811,17.246167 37.088388,32 37.088388,32 L 22.160133,31.978069 C 22.160133,31.978069 26.997745,27.140456 26.997745,27.140456 C 18.528582,18.264221 13.291696,25.230495 11.500037,31.436501 z"
             style="fill:#404040;"/>
          </a>
         </g>
        </svg>
</svg>
