<?xml version="1.0" encoding="UTF-8" standalone="no"?>
<!DOCTYPE svg PUBLIC "-//W3C//DTD SVG 1.1//EN"
 "http://www.w3.org/Graphics/SVG/1.1/DTD/svg11.dtd">
<!-- Generated by graphviz version 2.43.0 (0)
 -->
<!-- Title: config_kvs/comp_settings.hh Pages: 1 -->
<!--zoomable 308 -->
<svg id="main" version="1.1" xmlns="http://www.w3.org/2000/svg" xmlns:xlink="http://www.w3.org/1999/xlink" xml:space="preserve" onload="init(evt)">
<style type="text/css"><![CDATA[
.edge:hover path { stroke: red; }
.edge:hover polygon { stroke: red; fill: red; }
]]></style>
<script type="text/javascript"><![CDATA[
var edges = document.getElementsByTagName('g');
if (edges && edges.length) {
  for (var i=0;i<edges.length;i++) {
    if (edges[i].id.substr(0,4)=='edge') {
      edges[i].setAttribute('class','edge');
    }
  }
}
]]></script>
        <defs>
                <circle id="rim" cx="0" cy="0" r="7"/>
                <circle id="rim2" cx="0" cy="0" r="3.5"/>
                <g id="zoomPlus">
                        <use xlink:href="#rim" fill="#404040">
                                <set attributeName="fill" to="#808080" begin="zoomplus.mouseover" end="zoomplus.mouseout"/>
                        </use>
                        <path d="M-4,0h8M0,-4v8" fill="none" stroke="white" stroke-width="1.5" pointer-events="none"/>
                </g>
                <g id="zoomMin">
                        <use xlink:href="#rim" fill="#404040">
                                <set attributeName="fill" to="#808080" begin="zoomminus.mouseover" end="zoomminus.mouseout"/>
                        </use>
                        <path d="M-4,0h8" fill="none" stroke="white" stroke-width="1.5" pointer-events="none"/>
                </g>
                <g id="dirArrow">
                        <path fill="none" stroke="white" stroke-width="1.5" d="M0,-3.0v7 M-2.5,-0.5L0,-3.0L2.5,-0.5"/>
                </g>
               <g id="resetDef">
                       <use xlink:href="#rim2" fill="#404040">
                               <set attributeName="fill" to="#808080" begin="reset.mouseover" end="reset.mouseout"/>
                       </use>
               </g>
        </defs>

<script type="text/javascript">
var viewWidth = 1106;
var viewHeight = 308;
var sectionId = 'dynsection-0';
</script>
<script xlink:href="svgpan.js"/>
<svg id="graph" class="graph">
<g id="viewport">
<title>config_kvs/comp_settings.hh</title>
<!-- Node1 -->
<g id="node1" class="node">
<title>Node1</title>
<g id="a_node1"><a xlink:title="Settings for shared components.">
<polygon fill="#bfbfbf" stroke="black" points="166.5,-280.5 166.5,-299.5 324.5,-299.5 324.5,-280.5 166.5,-280.5"/>
<text text-anchor="middle" x="245.5" y="-287.5" font-family="Helvetica,sans-Serif" font-size="10.00">config_kvs/comp_settings.hh</text>
</a>
</g>
</g>
<!-- Node2 -->
<g id="node2" class="node">
<title>Node2</title>
<g id="a_node2"><a xlink:href="settings__template_8hh_source.html" target="_top" xlink:title=" ">
<polygon fill="none" stroke="black" points="273.5,-224.5 273.5,-243.5 393.5,-243.5 393.5,-224.5 273.5,-224.5"/>
<text text-anchor="middle" x="333.5" y="-231.5" font-family="Helvetica,sans-Serif" font-size="10.00">settings_template.hh</text>
</a>
</g>
</g>
<!-- Node1&#45;&gt;Node2 -->
<g id="edge1" class="edge">
<title>Node1&#45;&gt;Node2</title>
<path fill="none" stroke="midnightblue" d="M259.64,-280.32C273.37,-271.9 294.44,-258.97 310.56,-249.07"/>
<polygon fill="midnightblue" stroke="midnightblue" points="312.7,-251.87 319.4,-243.65 309.04,-245.9 312.7,-251.87"/>
</g>
<!-- Node4 -->
<g id="node4" class="node">
<title>Node4</title>
<g id="a_node4"><a xlink:href="options_8hh.html" target="_top" xlink:title="defines strings used in user interface">
<polygon fill="none" stroke="black" points="0,-112.5 0,-131.5 123,-131.5 123,-112.5 0,-112.5"/>
<text text-anchor="middle" x="61.5" y="-119.5" font-family="Helvetica,sans-Serif" font-size="10.00">app_config/options.hh</text>
</a>
</g>
</g>
<!-- Node1&#45;&gt;Node4 -->
<g id="edge29" class="edge">
<title>Node1&#45;&gt;Node4</title>
<path fill="none" stroke="midnightblue" d="M235.87,-280.31C206.31,-253.64 116.61,-172.72 78.7,-138.52"/>
<polygon fill="midnightblue" stroke="midnightblue" points="80.81,-135.7 71.04,-131.61 76.12,-140.9 80.81,-135.7"/>
</g>
<!-- Node17 -->
<g id="node17" class="node">
<title>Node17</title>
<g id="a_node17"><a xlink:title=" ">
<polygon fill="none" stroke="#bfbfbf" points="1041.5,-56.5 1041.5,-75.5 1097.5,-75.5 1097.5,-56.5 1041.5,-56.5"/>
<text text-anchor="middle" x="1069.5" y="-63.5" font-family="Helvetica,sans-Serif" font-size="10.00">assert.h</text>
</a>
</g>
</g>
<!-- Node1&#45;&gt;Node17 -->
<g id="edge32" class="edge">
<title>Node1&#45;&gt;Node17</title>
<path fill="none" stroke="midnightblue" d="M277.3,-280.43C406.42,-245.65 891.33,-115 1031.4,-77.27"/>
<polygon fill="midnightblue" stroke="midnightblue" points="1032.51,-80.59 1041.25,-74.61 1030.69,-73.83 1032.51,-80.59"/>
</g>
<!-- Node20 -->
<g id="node20" class="node">
<title>Node20</title>
<g id="a_node20"><a xlink:href="int__macros_8h.html" target="_top" xlink:title="Basic helper macros for integers.">
<polygon fill="none" stroke="black" points="141.5,-112.5 141.5,-131.5 273.5,-131.5 273.5,-112.5 141.5,-112.5"/>
<text text-anchor="middle" x="207.5" y="-119.5" font-family="Helvetica,sans-Serif" font-size="10.00">utils_misc/int_macros.h</text>
</a>
</g>
</g>
<!-- Node1&#45;&gt;Node20 -->
<g id="edge30" class="edge">
<title>Node1&#45;&gt;Node20</title>
<path fill="none" stroke="midnightblue" d="M242.54,-280.45C239.5,-271.45 234.76,-256.85 231.5,-244 222.39,-208.15 214.65,-165.59 210.58,-141.7"/>
<polygon fill="midnightblue" stroke="midnightblue" points="213.98,-140.86 208.88,-131.58 207.08,-142.02 213.98,-140.86"/>
</g>
<!-- Node21 -->
<g id="node21" class="node">
<title>Node21</title>
<g id="a_node21"><a xlink:href="external_2components-misc_2components_2config__kvs_2include_2config__kvs_2config_8h.html" target="_top" xlink:title=" ">
<polygon fill="none" stroke="black" points="292,-112.5 292,-131.5 347,-131.5 347,-112.5 292,-112.5"/>
<text text-anchor="middle" x="319.5" y="-119.5" font-family="Helvetica,sans-Serif" font-size="10.00">config.h</text>
</a>
</g>
</g>
<!-- Node1&#45;&gt;Node21 -->
<g id="edge31" class="edge">
<title>Node1&#45;&gt;Node21</title>
<path fill="none" stroke="midnightblue" d="M246.91,-280.32C250.5,-259.77 261.24,-206.95 282.5,-168 288.24,-157.48 296.6,-147.06 303.91,-138.9"/>
<polygon fill="midnightblue" stroke="midnightblue" points="306.49,-141.27 310.75,-131.57 301.37,-136.49 306.49,-141.27"/>
</g>
<!-- Node3 -->
<g id="node3" class="node">
<title>Node3</title>
<g id="a_node3"><a xlink:href="settings_8hh.html" target="_top" xlink:title=" ">
<polygon fill="none" stroke="black" points="291,-168.5 291,-187.5 362,-187.5 362,-168.5 291,-168.5"/>
<text text-anchor="middle" x="326.5" y="-175.5" font-family="Helvetica,sans-Serif" font-size="10.00">settings.hh</text>
</a>
</g>
</g>
<!-- Node2&#45;&gt;Node3 -->
<g id="edge2" class="edge">
<title>Node2&#45;&gt;Node3</title>
<path fill="none" stroke="midnightblue" d="M332.34,-224.08C331.42,-216.93 330.08,-206.64 328.92,-197.69"/>
<polygon fill="midnightblue" stroke="midnightblue" points="332.39,-197.22 327.63,-187.75 325.45,-198.12 332.39,-197.22"/>
</g>
<!-- Node3&#45;&gt;Node4 -->
<g id="edge3" class="edge">
<title>Node3&#45;&gt;Node4</title>
<path fill="none" stroke="midnightblue" d="M290.76,-169.72C245.2,-160.43 166.07,-144.31 113.75,-133.65"/>
<polygon fill="midnightblue" stroke="midnightblue" points="114.15,-130.16 103.65,-131.59 112.75,-137.02 114.15,-130.16"/>
</g>
<!-- Node7 -->
<g id="node7" class="node">
<title>Node7</title>
<g id="a_node7"><a xlink:href="uout__writer_8hh.html" target="_top" xlink:title="Provide an output class hierarchy which knows about the required format (text or JSON) and write func...">
<polygon fill="none" stroke="black" points="590,-112.5 590,-131.5 701,-131.5 701,-112.5 590,-112.5"/>
<text text-anchor="middle" x="645.5" y="-119.5" font-family="Helvetica,sans-Serif" font-size="10.00">uout/uout_writer.hh</text>
</a>
</g>
</g>
<!-- Node3&#45;&gt;Node7 -->
<g id="edge6" class="edge">
<title>Node3&#45;&gt;Node7</title>
<path fill="none" stroke="midnightblue" d="M362.16,-170.96C416.1,-161.83 519.1,-144.4 584.93,-133.25"/>
<polygon fill="midnightblue" stroke="midnightblue" points="585.89,-136.64 595.17,-131.52 584.72,-129.74 585.89,-136.64"/>
</g>
<!-- Node3&#45;&gt;Node17 -->
<g id="edge28" class="edge">
<title>Node3&#45;&gt;Node17</title>
<path fill="none" stroke="midnightblue" d="M362.07,-173.58C429.97,-166.89 582.7,-151.04 710.5,-132 827.95,-114.5 965.9,-87.77 1031.34,-74.72"/>
<polygon fill="midnightblue" stroke="midnightblue" points="1032.09,-78.14 1041.21,-72.74 1030.72,-71.27 1032.09,-78.14"/>
</g>
<!-- Node3&#45;&gt;Node20 -->
<g id="edge23" class="edge">
<title>Node3&#45;&gt;Node20</title>
<path fill="none" stroke="midnightblue" d="M307.64,-168.44C288.23,-159.64 257.77,-145.81 235.54,-135.72"/>
<polygon fill="midnightblue" stroke="midnightblue" points="236.82,-132.46 226.27,-131.52 233.93,-138.84 236.82,-132.46"/>
</g>
<!-- Node3&#45;&gt;Node21 -->
<g id="edge25" class="edge">
<title>Node3&#45;&gt;Node21</title>
<path fill="none" stroke="midnightblue" d="M325.34,-168.08C324.42,-160.93 323.08,-150.64 321.92,-141.69"/>
<polygon fill="midnightblue" stroke="midnightblue" points="325.39,-141.22 320.63,-131.75 318.45,-142.12 325.39,-141.22"/>
</g>
<!-- Node5 -->
<g id="node5" class="node">
<title>Node5</title>
<g id="a_node5"><a xlink:title=" ">
<polygon fill="none" stroke="#bfbfbf" points="139,-0.5 139,-19.5 192,-19.5 192,-0.5 139,-0.5"/>
<text text-anchor="middle" x="165.5" y="-7.5" font-family="Helvetica,sans-Serif" font-size="10.00">stdint.h</text>
</a>
</g>
</g>
<!-- Node4&#45;&gt;Node5 -->
<g id="edge4" class="edge">
<title>Node4&#45;&gt;Node5</title>
<path fill="none" stroke="midnightblue" d="M69.66,-112.37C87.05,-93.97 127.99,-50.67 150.32,-27.05"/>
<polygon fill="midnightblue" stroke="midnightblue" points="153.05,-29.26 157.38,-19.59 147.96,-24.45 153.05,-29.26"/>
</g>
<!-- Node6 -->
<g id="node6" class="node">
<title>Node6</title>
<g id="a_node6"><a xlink:title=" ">
<polygon fill="none" stroke="#bfbfbf" points="5.5,-56.5 5.5,-75.5 61.5,-75.5 61.5,-56.5 5.5,-56.5"/>
<text text-anchor="middle" x="33.5" y="-63.5" font-family="Helvetica,sans-Serif" font-size="10.00">stddef.h</text>
</a>
</g>
</g>
<!-- Node4&#45;&gt;Node6 -->
<g id="edge5" class="edge">
<title>Node4&#45;&gt;Node6</title>
<path fill="none" stroke="midnightblue" d="M56.88,-112.08C53.04,-104.69 47.48,-93.95 42.74,-84.81"/>
<polygon fill="midnightblue" stroke="midnightblue" points="45.75,-83.02 38.04,-75.75 39.53,-86.24 45.75,-83.02"/>
</g>
<!-- Node7&#45;&gt;Node5 -->
<g id="edge16" class="edge">
<title>Node7&#45;&gt;Node5</title>
<path fill="none" stroke="midnightblue" d="M589.67,-117.72C498.11,-111.8 320.33,-97.87 261.5,-76 231.02,-64.67 200.78,-41.75 182.61,-26.38"/>
<polygon fill="midnightblue" stroke="midnightblue" points="184.56,-23.44 174.71,-19.53 179.97,-28.73 184.56,-23.44"/>
</g>
<!-- Node8 -->
<g id="node8" class="node">
<title>Node8</title>
<g id="a_node8"><a xlink:href="so__out_8h.html" target="_top" xlink:title="write formatted output to UoutWriter">
<polygon fill="none" stroke="black" points="429.5,-56.5 429.5,-75.5 487.5,-75.5 487.5,-56.5 429.5,-56.5"/>
<text text-anchor="middle" x="458.5" y="-63.5" font-family="Helvetica,sans-Serif" font-size="10.00">so_out.h</text>
</a>
</g>
</g>
<!-- Node7&#45;&gt;Node8 -->
<g id="edge7" class="edge">
<title>Node7&#45;&gt;Node8</title>
<path fill="none" stroke="midnightblue" d="M615.87,-112.44C583.91,-103.21 532.87,-88.48 497.63,-78.3"/>
<polygon fill="midnightblue" stroke="midnightblue" points="498.26,-74.84 487.68,-75.43 496.32,-81.56 498.26,-74.84"/>
</g>
<!-- Node9 -->
<g id="node9" class="node">
<title>Node9</title>
<g id="a_node9"><a xlink:href="so__target__bits_8h.html" target="_top" xlink:title="flags to select output formats and targets">
<polygon fill="none" stroke="black" points="437,-0.5 437,-19.5 532,-19.5 532,-0.5 437,-0.5"/>
<text text-anchor="middle" x="484.5" y="-7.5" font-family="Helvetica,sans-Serif" font-size="10.00">so_target_bits.h</text>
</a>
</g>
</g>
<!-- Node7&#45;&gt;Node9 -->
<g id="edge9" class="edge">
<title>Node7&#45;&gt;Node9</title>
<path fill="none" stroke="midnightblue" d="M611.81,-112.43C588.48,-105.34 557.59,-93.56 534.5,-76 517.56,-63.12 503.35,-43.11 494.46,-28.7"/>
<polygon fill="midnightblue" stroke="midnightblue" points="497.29,-26.6 489.19,-19.77 491.26,-30.16 497.29,-26.6"/>
</g>
<!-- Node10 -->
<g id="node10" class="node">
<title>Node10</title>
<g id="a_node10"><a xlink:href="uout__builder__json_8hh.html" target="_top" xlink:title="Create JSON output from key/val pairs.">
<polygon fill="none" stroke="black" points="543.5,-56.5 543.5,-75.5 661.5,-75.5 661.5,-56.5 543.5,-56.5"/>
<text text-anchor="middle" x="602.5" y="-63.5" font-family="Helvetica,sans-Serif" font-size="10.00">uout_builder_json.hh</text>
</a>
</g>
</g>
<!-- Node7&#45;&gt;Node10 -->
<g id="edge10" class="edge">
<title>Node7&#45;&gt;Node10</title>
<path fill="none" stroke="midnightblue" d="M638.4,-112.08C632.26,-104.38 623.23,-93.03 615.76,-83.65"/>
<polygon fill="midnightblue" stroke="midnightblue" points="618.44,-81.39 609.47,-75.75 612.96,-85.75 618.44,-81.39"/>
</g>
<!-- Node12 -->
<g id="node12" class="node">
<title>Node12</title>
<g id="a_node12"><a xlink:title=" ">
<polygon fill="none" stroke="#bfbfbf" points="814,-0.5 814,-19.5 879,-19.5 879,-0.5 814,-0.5"/>
<text text-anchor="middle" x="846.5" y="-7.5" font-family="Helvetica,sans-Serif" font-size="10.00">functional</text>
</a>
</g>
</g>
<!-- Node7&#45;&gt;Node12 -->
<g id="edge21" class="edge">
<title>Node7&#45;&gt;Node12</title>
<path fill="none" stroke="midnightblue" d="M701.16,-117.8C794.78,-111.84 975.46,-97.65 994.5,-76 1027.32,-38.68 943.91,-21.89 889.37,-15.08"/>
<polygon fill="midnightblue" stroke="midnightblue" points="889.57,-11.58 879.23,-13.89 888.75,-18.53 889.57,-11.58"/>
</g>
<!-- Node13 -->
<g id="node13" class="node">
<title>Node13</title>
<g id="a_node13"><a xlink:href="uout__builder__plaintext_8hh_source.html" target="_top" xlink:title=" ">
<polygon fill="none" stroke="black" points="270,-56.5 270,-75.5 411,-75.5 411,-56.5 270,-56.5"/>
<text text-anchor="middle" x="340.5" y="-63.5" font-family="Helvetica,sans-Serif" font-size="10.00">uout_builder_plaintext.hh</text>
</a>
</g>
</g>
<!-- Node7&#45;&gt;Node13 -->
<g id="edge13" class="edge">
<title>Node7&#45;&gt;Node13</title>
<path fill="none" stroke="midnightblue" d="M597.17,-112.44C543.3,-102.9 456.19,-87.48 398.64,-77.29"/>
<polygon fill="midnightblue" stroke="midnightblue" points="399.06,-73.81 388.6,-75.52 397.84,-80.71 399.06,-73.81"/>
</g>
<!-- Node15 -->
<g id="node15" class="node">
<title>Node15</title>
<g id="a_node15"><a xlink:title=" ">
<polygon fill="none" stroke="#bfbfbf" points="679.5,-56.5 679.5,-75.5 735.5,-75.5 735.5,-56.5 679.5,-56.5"/>
<text text-anchor="middle" x="707.5" y="-63.5" font-family="Helvetica,sans-Serif" font-size="10.00">unistd.h</text>
</a>
</g>
</g>
<!-- Node7&#45;&gt;Node15 -->
<g id="edge17" class="edge">
<title>Node7&#45;&gt;Node15</title>
<path fill="none" stroke="midnightblue" d="M655.46,-112.32C664.63,-104.34 678.44,-92.31 689.53,-82.65"/>
<polygon fill="midnightblue" stroke="midnightblue" points="692.12,-85.04 697.36,-75.83 687.52,-79.76 692.12,-85.04"/>
</g>
<!-- Node16 -->
<g id="node16" class="node">
<title>Node16</title>
<g id="a_node16"><a xlink:title=" ">
<polygon fill="none" stroke="#bfbfbf" points="754,-56.5 754,-75.5 807,-75.5 807,-56.5 754,-56.5"/>
<text text-anchor="middle" x="780.5" y="-63.5" font-family="Helvetica,sans-Serif" font-size="10.00">string.h</text>
</a>
</g>
</g>
<!-- Node7&#45;&gt;Node16 -->
<g id="edge18" class="edge">
<title>Node7&#45;&gt;Node16</title>
<path fill="none" stroke="midnightblue" d="M666.89,-112.44C689.21,-103.52 724.4,-89.44 749.71,-79.32"/>
<polygon fill="midnightblue" stroke="midnightblue" points="751.22,-82.48 759.21,-75.52 748.62,-75.98 751.22,-82.48"/>
</g>
<!-- Node7&#45;&gt;Node17 -->
<g id="edge19" class="edge">
<title>Node7&#45;&gt;Node17</title>
<path fill="none" stroke="midnightblue" d="M701.08,-116.1C775.65,-109.16 912.05,-95.13 1027.5,-76 1028.74,-75.79 1030,-75.58 1031.27,-75.35"/>
<polygon fill="midnightblue" stroke="midnightblue" points="1031.94,-78.79 1041.1,-73.46 1030.62,-71.91 1031.94,-78.79"/>
</g>
<!-- Node18 -->
<g id="node18" class="node">
<title>Node18</title>
<g id="a_node18"><a xlink:href="itoa_8h_source.html" target="_top" xlink:title=" ">
<polygon fill="none" stroke="black" points="825,-56.5 825,-75.5 922,-75.5 922,-56.5 825,-56.5"/>
<text text-anchor="middle" x="873.5" y="-63.5" font-family="Helvetica,sans-Serif" font-size="10.00">utils_misc/itoa.h</text>
</a>
</g>
</g>
<!-- Node7&#45;&gt;Node18 -->
<g id="edge20" class="edge">
<title>Node7&#45;&gt;Node18</title>
<path fill="none" stroke="midnightblue" d="M681.63,-112.44C721.15,-103.08 784.6,-88.06 827.61,-77.87"/>
<polygon fill="midnightblue" stroke="midnightblue" points="828.62,-81.23 837.54,-75.52 827,-74.42 828.62,-81.23"/>
</g>
<!-- Node19 -->
<g id="node19" class="node">
<title>Node19</title>
<g id="a_node19"><a xlink:title=" ">
<polygon fill="none" stroke="#bfbfbf" points="940,-56.5 940,-75.5 985,-75.5 985,-56.5 940,-56.5"/>
<text text-anchor="middle" x="962.5" y="-63.5" font-family="Helvetica,sans-Serif" font-size="10.00">utility</text>
</a>
</g>
</g>
<!-- Node7&#45;&gt;Node19 -->
<g id="edge22" class="edge">
<title>Node7&#45;&gt;Node19</title>
<path fill="none" stroke="midnightblue" d="M701.25,-114.35C757.03,-107.22 845.41,-94.64 930.12,-76.09"/>
<polygon fill="midnightblue" stroke="midnightblue" points="930.9,-79.5 939.9,-73.92 929.38,-72.67 930.9,-79.5"/>
</g>
<!-- Node8&#45;&gt;Node9 -->
<g id="edge8" class="edge">
<title>Node8&#45;&gt;Node9</title>
<path fill="none" stroke="midnightblue" d="M462.79,-56.08C466.35,-48.69 471.52,-37.95 475.92,-28.81"/>
<polygon fill="midnightblue" stroke="midnightblue" points="479.1,-30.28 480.29,-19.75 472.79,-27.24 479.1,-30.28"/>
</g>
<!-- Node11 -->
<g id="node11" class="node">
<title>Node11</title>
<g id="a_node11"><a xlink:title=" ">
<polygon fill="none" stroke="#bfbfbf" points="576,-0.5 576,-19.5 629,-19.5 629,-0.5 576,-0.5"/>
<text text-anchor="middle" x="602.5" y="-7.5" font-family="Helvetica,sans-Serif" font-size="10.00">stdlib.h</text>
</a>
</g>
</g>
<!-- Node10&#45;&gt;Node11 -->
<g id="edge11" class="edge">
<title>Node10&#45;&gt;Node11</title>
<path fill="none" stroke="midnightblue" d="M602.5,-56.08C602.5,-49.01 602.5,-38.86 602.5,-29.99"/>
<polygon fill="midnightblue" stroke="midnightblue" points="606,-29.75 602.5,-19.75 599,-29.75 606,-29.75"/>
</g>
<!-- Node10&#45;&gt;Node12 -->
<g id="edge12" class="edge">
<title>Node10&#45;&gt;Node12</title>
<path fill="none" stroke="midnightblue" d="M641.16,-56.44C685.51,-46.63 758.01,-30.58 803.93,-20.42"/>
<polygon fill="midnightblue" stroke="midnightblue" points="804.87,-23.8 813.87,-18.22 803.35,-16.96 804.87,-23.8"/>
</g>
<!-- Node13&#45;&gt;Node5 -->
<g id="edge14" class="edge">
<title>Node13&#45;&gt;Node5</title>
<path fill="none" stroke="midnightblue" d="M312.77,-56.44C282.81,-47.2 234.95,-32.43 201.96,-22.25"/>
<polygon fill="midnightblue" stroke="midnightblue" points="202.83,-18.85 192.24,-19.25 200.76,-25.54 202.83,-18.85"/>
</g>
<!-- Node14 -->
<g id="node14" class="node">
<title>Node14</title>
<g id="a_node14"><a xlink:title=" ">
<polygon fill="none" stroke="#bfbfbf" points="260.5,-0.5 260.5,-19.5 322.5,-19.5 322.5,-0.5 260.5,-0.5"/>
<text text-anchor="middle" x="291.5" y="-7.5" font-family="Helvetica,sans-Serif" font-size="10.00">stdbool.h</text>
</a>
</g>
</g>
<!-- Node13&#45;&gt;Node14 -->
<g id="edge15" class="edge">
<title>Node13&#45;&gt;Node14</title>
<path fill="none" stroke="midnightblue" d="M332.41,-56.08C325.34,-48.3 314.91,-36.8 306.35,-27.37"/>
<polygon fill="midnightblue" stroke="midnightblue" points="308.75,-24.8 299.44,-19.75 303.57,-29.51 308.75,-24.8"/>
</g>
<!-- Node20&#45;&gt;Node5 -->
<g id="edge24" class="edge">
<title>Node20&#45;&gt;Node5</title>
<path fill="none" stroke="midnightblue" d="M190,-112.46C176.71,-104.92 159.42,-92.53 151.5,-76 144.34,-61.07 149.6,-42.46 155.61,-28.99"/>
<polygon fill="midnightblue" stroke="midnightblue" points="158.84,-30.34 160.16,-19.83 152.57,-27.23 158.84,-30.34"/>
</g>
<!-- Node21&#45;&gt;Node5 -->
<g id="edge26" class="edge">
<title>Node21&#45;&gt;Node5</title>
<path fill="none" stroke="midnightblue" d="M291.73,-114.36C258.12,-105.84 204.21,-90.42 189.5,-76 177.02,-63.78 170.98,-44.51 168.09,-30.12"/>
<polygon fill="midnightblue" stroke="midnightblue" points="171.47,-29.15 166.38,-19.86 164.57,-30.3 171.47,-29.15"/>
</g>
<!-- Node21&#45;&gt;Node14 -->
<g id="edge27" class="edge">
<title>Node21&#45;&gt;Node14</title>
<path fill="none" stroke="midnightblue" d="M301.11,-112.47C287.4,-105 269.69,-92.71 261.5,-76 253.52,-59.7 264.4,-40.85 275.23,-27.66"/>
<polygon fill="midnightblue" stroke="midnightblue" points="278.1,-29.69 282.13,-19.89 272.87,-25.04 278.1,-29.69"/>
</g>
</g>
</svg>
        <g id="navigator" transform="translate(0 0)" fill="#404254">
                <rect fill="#f2f5e9" fill-opacity="0.5" stroke="#606060" stroke-width=".5" x="0" y="0" width="60" height="60"/>
                <use id="zoomplus" xlink:href="#zoomPlus" x="17" y="9" onmousedown="handleZoom(evt,'in')"/>
                <use id="zoomminus" xlink:href="#zoomMin" x="42" y="9" onmousedown="handleZoom(evt,'out')"/>
                <use id="reset" xlink:href="#resetDef" x="30" y="36" onmousedown="handleReset()"/>
                <g id="arrowUp" xlink:href="#dirArrow" transform="translate(30 24)" onmousedown="handlePan(0,-1)">
                  <use xlink:href="#rim" fill="#404040">
                        <set attributeName="fill" to="#808080" begin="arrowUp.mouseover" end="arrowUp.mouseout"/>
                  </use>
                  <path fill="none" stroke="white" stroke-width="1.5" d="M0,-3.0v7 M-2.5,-0.5L0,-3.0L2.5,-0.5"/>
                </g>
                <g id="arrowRight" xlink:href="#dirArrow" transform="rotate(90) translate(36 -43)" onmousedown="handlePan(1,0)">
                  <use xlink:href="#rim" fill="#404040">
                        <set attributeName="fill" to="#808080" begin="arrowRight.mouseover" end="arrowRight.mouseout"/>
                  </use>
                  <path fill="none" stroke="white" stroke-width="1.5" d="M0,-3.0v7 M-2.5,-0.5L0,-3.0L2.5,-0.5"/>
                </g>
                <g id="arrowDown" xlink:href="#dirArrow" transform="rotate(180) translate(-30 -48)" onmousedown="handlePan(0,1)">
                  <use xlink:href="#rim" fill="#404040">
                        <set attributeName="fill" to="#808080" begin="arrowDown.mouseover" end="arrowDown.mouseout"/>
                  </use>
                  <path fill="none" stroke="white" stroke-width="1.5" d="M0,-3.0v7 M-2.5,-0.5L0,-3.0L2.5,-0.5"/>
                </g>
                <g id="arrowLeft" xlink:href="#dirArrow" transform="rotate(270) translate(-36 17)" onmousedown="handlePan(-1,0)">
                  <use xlink:href="#rim" fill="#404040">
                        <set attributeName="fill" to="#808080" begin="arrowLeft.mouseover" end="arrowLeft.mouseout"/>
                  </use>
                  <path fill="none" stroke="white" stroke-width="1.5" d="M0,-3.0v7 M-2.5,-0.5L0,-3.0L2.5,-0.5"/>
                </g>
        </g>
        <svg viewBox="0 0 15 15" width="100%" height="30px" preserveAspectRatio="xMaxYMin meet">
         <g id="arrow_out" transform="scale(0.3 0.3)">
          <a xlink:href="comp__settings_8hh__incl_org.svg" target="_base">
           <rect id="button" ry="5" rx="5" y="6" x="6" height="38" width="38"
                fill="#f2f5e9" fill-opacity="0.5" stroke="#606060" stroke-width="1.0"/>
           <path id="arrow"
             d="M 11.500037,31.436501 C 11.940474,20.09759 22.043105,11.32322 32.158766,21.979434 L 37.068811,17.246167 C 37.068811,17.246167 37.088388,32 37.088388,32 L 22.160133,31.978069 C 22.160133,31.978069 26.997745,27.140456 26.997745,27.140456 C 18.528582,18.264221 13.291696,25.230495 11.500037,31.436501 z"
             style="fill:#404040;"/>
          </a>
         </g>
        </svg>
</svg>
