<?xml version="1.0" encoding="UTF-8" standalone="no"?>
<!DOCTYPE svg PUBLIC "-//W3C//DTD SVG 1.1//EN"
 "http://www.w3.org/Graphics/SVG/1.1/DTD/svg11.dtd">
<!-- Generated by graphviz version 2.43.0 (0)
 -->
<!-- Title: config_kvs/comp_settings.hh Pages: 1 -->
<svg width="364pt" height="151pt"
 viewBox="0.00 0.00 363.50 151.00" xmlns="http://www.w3.org/2000/svg" xmlns:xlink="http://www.w3.org/1999/xlink">
<g id="graph0" class="graph" transform="scale(1 1) rotate(0) translate(4 147)">
<title>config_kvs/comp_settings.hh</title>
<!-- Node1 -->
<g id="node1" class="node">
<title>Node1</title>
<g id="a_node1"><a xlink:title="Settings for shared components.">
<polygon fill="#bfbfbf" stroke="black" points="46.5,-123.5 46.5,-142.5 204.5,-142.5 204.5,-123.5 46.5,-123.5"/>
<text text-anchor="middle" x="125.5" y="-130.5" font-family="Helvetica,sans-Serif" font-size="10.00">config_kvs/comp_settings.hh</text>
</a>
</g>
</g>
<!-- Node2 -->
<g id="node2" class="node">
<title>Node2</title>
<g id="a_node2"><a xlink:href="app__register__settings_8hh.html" target="_top" xlink:title="Settings for application components.">
<polygon fill="none" stroke="black" points="0,-0.5 0,-30.5 143,-30.5 143,-0.5 0,-0.5"/>
<text text-anchor="start" x="8" y="-18.5" font-family="Helvetica,sans-Serif" font-size="10.00">app_settings/app_register</text>
<text text-anchor="middle" x="71.5" y="-7.5" font-family="Helvetica,sans-Serif" font-size="10.00">_settings.hh</text>
</a>
</g>
</g>
<!-- Node1&#45;&gt;Node2 -->
<g id="edge1" class="edge">
<title>Node1&#45;&gt;Node2</title>
<path fill="none" stroke="midnightblue" d="M80.12,-119.77C63.76,-112.93 47.01,-102.54 37.5,-87 26.08,-68.34 42.47,-45.26 56.21,-30.71"/>
<polygon fill="midnightblue" stroke="midnightblue" points="79.06,-123.11 89.65,-123.4 81.55,-116.57 79.06,-123.11"/>
</g>
<!-- Node3 -->
<g id="node3" class="node">
<title>Node3</title>
<g id="a_node3"><a xlink:href="app__settings_8hh.html" target="_top" xlink:title="Settings for application components.">
<polygon fill="none" stroke="black" points="46,-67.5 46,-86.5 205,-86.5 205,-67.5 46,-67.5"/>
<text text-anchor="middle" x="125.5" y="-74.5" font-family="Helvetica,sans-Serif" font-size="10.00">app_settings/app_settings.hh</text>
</a>
</g>
</g>
<!-- Node1&#45;&gt;Node3 -->
<g id="edge2" class="edge">
<title>Node1&#45;&gt;Node3</title>
<path fill="none" stroke="midnightblue" d="M125.5,-112.8C125.5,-103.91 125.5,-93.78 125.5,-86.75"/>
<polygon fill="midnightblue" stroke="midnightblue" points="122,-113.08 125.5,-123.08 129,-113.08 122,-113.08"/>
</g>
<!-- Node4 -->
<g id="node4" class="node">
<title>Node4</title>
<g id="a_node4"><a xlink:href="config__kvs_8h.html" target="_top" xlink:title="read settings from kvs storage by cb_type">
<polygon fill="none" stroke="black" points="223.5,-67.5 223.5,-86.5 355.5,-86.5 355.5,-67.5 223.5,-67.5"/>
<text text-anchor="middle" x="289.5" y="-74.5" font-family="Helvetica,sans-Serif" font-size="10.00">config_kvs/config_kvs.h</text>
</a>
</g>
</g>
<!-- Node1&#45;&gt;Node4 -->
<g id="edge4" class="edge">
<title>Node1&#45;&gt;Node4</title>
<path fill="none" stroke="midnightblue" d="M161.02,-120.3C191.92,-110.13 235.97,-95.62 263.64,-86.52"/>
<polygon fill="midnightblue" stroke="midnightblue" points="159.89,-116.99 151.49,-123.44 162.08,-123.64 159.89,-116.99"/>
</g>
<!-- Node3&#45;&gt;Node2 -->
<g id="edge3" class="edge">
<title>Node3&#45;&gt;Node2</title>
<path fill="none" stroke="midnightblue" d="M110.81,-59.81C102.49,-50.65 92.2,-39.3 84.23,-30.52"/>
<polygon fill="midnightblue" stroke="midnightblue" points="108.45,-62.42 117.76,-67.48 113.63,-57.72 108.45,-62.42"/>
</g>
</g>
</svg>
