<?xml version="1.0" encoding="UTF-8" standalone="no"?>
<!DOCTYPE svg PUBLIC "-//W3C//DTD SVG 1.1//EN"
 "http://www.w3.org/Graphics/SVG/1.1/DTD/svg11.dtd">
<!-- Generated by graphviz version 2.43.0 (0)
 -->
<!-- Title: app_settings/config.h Pages: 1 -->
<svg width="667pt" height="196pt"
 viewBox="0.00 0.00 666.50 196.00" xmlns="http://www.w3.org/2000/svg" xmlns:xlink="http://www.w3.org/1999/xlink">
<g id="graph0" class="graph" transform="scale(1 1) rotate(0) translate(4 192)">
<title>app_settings/config.h</title>
<!-- Node1 -->
<g id="node1" class="node">
<title>Node1</title>
<g id="a_node1"><a xlink:title="Application settings.">
<polygon fill="#bfbfbf" stroke="black" points="191,-168.5 191,-187.5 311,-187.5 311,-168.5 191,-168.5"/>
<text text-anchor="middle" x="251" y="-175.5" font-family="Helvetica,sans-Serif" font-size="10.00">app_settings/config.h</text>
</a>
</g>
</g>
<!-- Node2 -->
<g id="node2" class="node">
<title>Node2</title>
<g id="a_node2"><a xlink:href="external_2components-misc_2components_2config__kvs_2include_2config__kvs_2config_8h.html" target="_top" xlink:title=" ">
<polygon fill="none" stroke="black" points="0,-112.5 0,-131.5 110,-131.5 110,-112.5 0,-112.5"/>
<text text-anchor="middle" x="55" y="-119.5" font-family="Helvetica,sans-Serif" font-size="10.00">config_kvs/config.h</text>
</a>
</g>
</g>
<!-- Node1&#45;&gt;Node2 -->
<g id="edge1" class="edge">
<title>Node1&#45;&gt;Node2</title>
<path fill="none" stroke="midnightblue" d="M219.94,-168.44C186.4,-159.2 132.8,-144.44 95.86,-134.26"/>
<polygon fill="midnightblue" stroke="midnightblue" points="96.48,-130.8 85.91,-131.52 94.62,-137.55 96.48,-130.8"/>
</g>
<!-- Node4 -->
<g id="node4" class="node">
<title>Node4</title>
<g id="a_node4"><a xlink:title=" ">
<polygon fill="none" stroke="#bfbfbf" points="113,-56.5 113,-75.5 175,-75.5 175,-56.5 113,-56.5"/>
<text text-anchor="middle" x="144" y="-63.5" font-family="Helvetica,sans-Serif" font-size="10.00">stdbool.h</text>
</a>
</g>
</g>
<!-- Node1&#45;&gt;Node4 -->
<g id="edge14" class="edge">
<title>Node1&#45;&gt;Node4</title>
<path fill="none" stroke="midnightblue" d="M216.06,-168.35C196.17,-161.65 172.41,-150.33 158,-132 147.64,-118.82 144.53,-99.69 143.78,-85.59"/>
<polygon fill="midnightblue" stroke="midnightblue" points="147.28,-85.5 143.58,-75.57 140.28,-85.64 147.28,-85.5"/>
</g>
<!-- Node5 -->
<g id="node5" class="node">
<title>Node5</title>
<g id="a_node5"><a xlink:href="fer__pct_8h.html" target="_top" xlink:title="class Pct to represent shutter opening percentage">
<polygon fill="none" stroke="black" points="249.5,-112.5 249.5,-131.5 356.5,-131.5 356.5,-112.5 249.5,-112.5"/>
<text text-anchor="middle" x="303" y="-119.5" font-family="Helvetica,sans-Serif" font-size="10.00">fernotron/fer_pct.h</text>
</a>
</g>
</g>
<!-- Node1&#45;&gt;Node5 -->
<g id="edge4" class="edge">
<title>Node1&#45;&gt;Node5</title>
<path fill="none" stroke="midnightblue" d="M259.59,-168.08C267.16,-160.22 278.38,-148.57 287.51,-139.08"/>
<polygon fill="midnightblue" stroke="midnightblue" points="290.16,-141.38 294.57,-131.75 285.12,-136.53 290.16,-141.38"/>
</g>
<!-- Node7 -->
<g id="node7" class="node">
<title>Node7</title>
<g id="a_node7"><a xlink:href="astro_8h.html" target="_top" xlink:title="civil dusk timer calculations">
<polygon fill="none" stroke="black" points="374.5,-112.5 374.5,-131.5 491.5,-131.5 491.5,-112.5 374.5,-112.5"/>
<text text-anchor="middle" x="433" y="-119.5" font-family="Helvetica,sans-Serif" font-size="10.00">fernotron_trx/astro.h</text>
</a>
</g>
</g>
<!-- Node1&#45;&gt;Node7 -->
<g id="edge9" class="edge">
<title>Node1&#45;&gt;Node7</title>
<path fill="none" stroke="midnightblue" d="M279.84,-168.44C310.86,-159.24 360.33,-144.56 394.62,-134.39"/>
<polygon fill="midnightblue" stroke="midnightblue" points="395.71,-137.72 404.3,-131.52 393.71,-131.01 395.71,-137.72"/>
</g>
<!-- Node9 -->
<g id="node9" class="node">
<title>Node9</title>
<g id="a_node9"><a xlink:href="pin_8h_source.html" target="_top" xlink:title=" ">
<polygon fill="none" stroke="black" points="166.5,-112.5 166.5,-131.5 231.5,-131.5 231.5,-112.5 166.5,-112.5"/>
<text text-anchor="middle" x="199" y="-119.5" font-family="Helvetica,sans-Serif" font-size="10.00">gpio/pin.h</text>
</a>
</g>
</g>
<!-- Node1&#45;&gt;Node9 -->
<g id="edge11" class="edge">
<title>Node1&#45;&gt;Node9</title>
<path fill="none" stroke="midnightblue" d="M242.41,-168.08C234.84,-160.22 223.62,-148.57 214.49,-139.08"/>
<polygon fill="midnightblue" stroke="midnightblue" points="216.88,-136.53 207.43,-131.75 211.84,-141.38 216.88,-136.53"/>
</g>
<!-- Node10 -->
<g id="node10" class="node">
<title>Node10</title>
<g id="a_node10"><a xlink:href="network__connection_8hh_source.html" target="_top" xlink:title=" ">
<polygon fill="none" stroke="black" points="509.5,-112.5 509.5,-131.5 658.5,-131.5 658.5,-112.5 509.5,-112.5"/>
<text text-anchor="middle" x="584" y="-119.5" font-family="Helvetica,sans-Serif" font-size="10.00">net/network_connection.hh</text>
</a>
</g>
</g>
<!-- Node1&#45;&gt;Node10 -->
<g id="edge13" class="edge">
<title>Node1&#45;&gt;Node10</title>
<path fill="none" stroke="midnightblue" d="M303.76,-168.44C362.83,-158.87 458.47,-143.36 521.31,-133.17"/>
<polygon fill="midnightblue" stroke="midnightblue" points="522.17,-136.57 531.48,-131.52 521.05,-129.66 522.17,-136.57"/>
</g>
<!-- Node3 -->
<g id="node3" class="node">
<title>Node3</title>
<g id="a_node3"><a xlink:title=" ">
<polygon fill="none" stroke="#bfbfbf" points="182.5,-0.5 182.5,-19.5 235.5,-19.5 235.5,-0.5 182.5,-0.5"/>
<text text-anchor="middle" x="209" y="-7.5" font-family="Helvetica,sans-Serif" font-size="10.00">stdint.h</text>
</a>
</g>
</g>
<!-- Node2&#45;&gt;Node3 -->
<g id="edge2" class="edge">
<title>Node2&#45;&gt;Node3</title>
<path fill="none" stroke="midnightblue" d="M59.59,-112.27C67.18,-98.6 83.54,-72.04 104,-56 124.35,-40.05 151.2,-28.68 172.65,-21.35"/>
<polygon fill="midnightblue" stroke="midnightblue" points="173.97,-24.6 182.39,-18.18 171.8,-17.95 173.97,-24.6"/>
</g>
<!-- Node2&#45;&gt;Node4 -->
<g id="edge3" class="edge">
<title>Node2&#45;&gt;Node4</title>
<path fill="none" stroke="midnightblue" d="M69.3,-112.32C83.18,-103.9 104.49,-90.97 120.8,-81.07"/>
<polygon fill="midnightblue" stroke="midnightblue" points="123,-83.83 129.74,-75.65 119.37,-77.85 123,-83.83"/>
</g>
<!-- Node5&#45;&gt;Node3 -->
<g id="edge5" class="edge">
<title>Node5&#45;&gt;Node3</title>
<path fill="none" stroke="midnightblue" d="M279.82,-112.48C263.12,-105.22 241.27,-93.19 228,-76 217.68,-62.63 212.96,-43.81 210.81,-29.86"/>
<polygon fill="midnightblue" stroke="midnightblue" points="214.28,-29.4 209.57,-19.91 207.33,-30.26 214.28,-29.4"/>
</g>
<!-- Node5&#45;&gt;Node4 -->
<g id="edge6" class="edge">
<title>Node5&#45;&gt;Node4</title>
<path fill="none" stroke="midnightblue" d="M277.81,-112.44C251.06,-103.36 208.6,-88.94 178.69,-78.78"/>
<polygon fill="midnightblue" stroke="midnightblue" points="179.67,-75.42 169.08,-75.52 177.42,-82.05 179.67,-75.42"/>
</g>
<!-- Node6 -->
<g id="node6" class="node">
<title>Node6</title>
<g id="a_node6"><a xlink:href="int__macros_8h.html" target="_top" xlink:title="Basic helper macros for integers.">
<polygon fill="none" stroke="black" points="237,-56.5 237,-75.5 369,-75.5 369,-56.5 237,-56.5"/>
<text text-anchor="middle" x="303" y="-63.5" font-family="Helvetica,sans-Serif" font-size="10.00">utils_misc/int_macros.h</text>
</a>
</g>
</g>
<!-- Node5&#45;&gt;Node6 -->
<g id="edge7" class="edge">
<title>Node5&#45;&gt;Node6</title>
<path fill="none" stroke="midnightblue" d="M303,-112.08C303,-105.01 303,-94.86 303,-85.99"/>
<polygon fill="midnightblue" stroke="midnightblue" points="306.5,-85.75 303,-75.75 299.5,-85.75 306.5,-85.75"/>
</g>
<!-- Node6&#45;&gt;Node3 -->
<g id="edge8" class="edge">
<title>Node6&#45;&gt;Node3</title>
<path fill="none" stroke="midnightblue" d="M287.9,-56.32C273.1,-47.82 250.31,-34.73 233.02,-24.8"/>
<polygon fill="midnightblue" stroke="midnightblue" points="234.48,-21.6 224.07,-19.65 230.99,-27.67 234.48,-21.6"/>
</g>
<!-- Node8 -->
<g id="node8" class="node">
<title>Node8</title>
<g id="a_node8"><a xlink:title=" ">
<polygon fill="none" stroke="#bfbfbf" points="409,-56.5 409,-75.5 457,-75.5 457,-56.5 409,-56.5"/>
<text text-anchor="middle" x="433" y="-63.5" font-family="Helvetica,sans-Serif" font-size="10.00">time.h</text>
</a>
</g>
</g>
<!-- Node7&#45;&gt;Node8 -->
<g id="edge10" class="edge">
<title>Node7&#45;&gt;Node8</title>
<path fill="none" stroke="midnightblue" d="M433,-112.08C433,-105.01 433,-94.86 433,-85.99"/>
<polygon fill="midnightblue" stroke="midnightblue" points="436.5,-85.75 433,-75.75 429.5,-85.75 436.5,-85.75"/>
</g>
<!-- Node9&#45;&gt;Node4 -->
<g id="edge12" class="edge">
<title>Node9&#45;&gt;Node4</title>
<path fill="none" stroke="midnightblue" d="M189.92,-112.08C181.83,-104.14 169.8,-92.34 160.09,-82.8"/>
<polygon fill="midnightblue" stroke="midnightblue" points="162.5,-80.26 152.91,-75.75 157.6,-85.25 162.5,-80.26"/>
</g>
</g>
</svg>
