<?xml version="1.0" encoding="UTF-8" standalone="no"?>
<!DOCTYPE svg PUBLIC "-//W3C//DTD SVG 1.1//EN"
 "http://www.w3.org/Graphics/SVG/1.1/DTD/svg11.dtd">
<!-- Generated by graphviz version 2.43.0 (0)
 -->
<!-- Title: config_kvs/config_kvs.h Pages: 1 -->
<svg width="1157pt" height="364pt"
 viewBox="0.00 0.00 1156.50 364.00" xmlns="http://www.w3.org/2000/svg" xmlns:xlink="http://www.w3.org/1999/xlink">
<g id="graph0" class="graph" transform="scale(1 1) rotate(0) translate(4 360)">
<title>config_kvs/config_kvs.h</title>
<!-- Node1 -->
<g id="node1" class="node">
<title>Node1</title>
<g id="a_node1"><a xlink:title="read settings from kvs storage by cb_type">
<polygon fill="#bfbfbf" stroke="black" points="116,-336.5 116,-355.5 248,-355.5 248,-336.5 116,-336.5"/>
<text text-anchor="middle" x="182" y="-343.5" font-family="Helvetica,sans-Serif" font-size="10.00">config_kvs/config_kvs.h</text>
</a>
</g>
</g>
<!-- Node2 -->
<g id="node2" class="node">
<title>Node2</title>
<g id="a_node2"><a xlink:href="external_2components-misc_2components_2config__kvs_2include_2config__kvs_2config_8h.html" target="_top" xlink:title=" ">
<polygon fill="none" stroke="black" points="0,-112.5 0,-131.5 110,-131.5 110,-112.5 0,-112.5"/>
<text text-anchor="middle" x="55" y="-119.5" font-family="Helvetica,sans-Serif" font-size="10.00">config_kvs/config.h</text>
</a>
</g>
</g>
<!-- Node1&#45;&gt;Node2 -->
<g id="edge1" class="edge">
<title>Node1&#45;&gt;Node2</title>
<path fill="none" stroke="midnightblue" d="M177.02,-336.3C158.18,-303.36 90.98,-185.9 65.19,-140.81"/>
<polygon fill="midnightblue" stroke="midnightblue" points="68.09,-138.83 60.08,-131.88 62.01,-142.3 68.09,-138.83"/>
</g>
<!-- Node5 -->
<g id="node5" class="node">
<title>Node5</title>
<g id="a_node5"><a xlink:href="kvs__wrapper_8h_source.html" target="_top" xlink:title=" ">
<polygon fill="none" stroke="black" points="128.5,-112.5 128.5,-131.5 235.5,-131.5 235.5,-112.5 128.5,-112.5"/>
<text text-anchor="middle" x="182" y="-119.5" font-family="Helvetica,sans-Serif" font-size="10.00">kvs/kvs_wrapper.h</text>
</a>
</g>
</g>
<!-- Node1&#45;&gt;Node5 -->
<g id="edge4" class="edge">
<title>Node1&#45;&gt;Node5</title>
<path fill="none" stroke="midnightblue" d="M182,-336.3C182,-303.63 182,-187.87 182,-141.96"/>
<polygon fill="midnightblue" stroke="midnightblue" points="185.5,-141.88 182,-131.88 178.5,-141.88 185.5,-141.88"/>
</g>
<!-- Node7 -->
<g id="node7" class="node">
<title>Node7</title>
<g id="a_node7"><a xlink:href="comp__settings_8hh.html" target="_top" xlink:title="Settings for shared components.">
<polygon fill="none" stroke="black" points="481,-280.5 481,-299.5 639,-299.5 639,-280.5 481,-280.5"/>
<text text-anchor="middle" x="560" y="-287.5" font-family="Helvetica,sans-Serif" font-size="10.00">config_kvs/comp_settings.hh</text>
</a>
</g>
</g>
<!-- Node1&#45;&gt;Node7 -->
<g id="edge8" class="edge">
<title>Node1&#45;&gt;Node7</title>
<path fill="none" stroke="midnightblue" d="M241.9,-336.44C309.36,-326.81 418.86,-311.16 490.15,-300.98"/>
<polygon fill="midnightblue" stroke="midnightblue" points="490.98,-304.4 500.38,-299.52 489.99,-297.47 490.98,-304.4"/>
</g>
<!-- Node3 -->
<g id="node3" class="node">
<title>Node3</title>
<g id="a_node3"><a xlink:title=" ">
<polygon fill="none" stroke="#bfbfbf" points="263.5,-0.5 263.5,-19.5 316.5,-19.5 316.5,-0.5 263.5,-0.5"/>
<text text-anchor="middle" x="290" y="-7.5" font-family="Helvetica,sans-Serif" font-size="10.00">stdint.h</text>
</a>
</g>
</g>
<!-- Node2&#45;&gt;Node3 -->
<g id="edge2" class="edge">
<title>Node2&#45;&gt;Node3</title>
<path fill="none" stroke="midnightblue" d="M64.16,-112.16C78.97,-98.32 109.56,-71.55 140,-56 176.55,-37.34 222.14,-25.04 253.41,-18.09"/>
<polygon fill="midnightblue" stroke="midnightblue" points="254.39,-21.46 263.43,-15.93 252.92,-14.61 254.39,-21.46"/>
</g>
<!-- Node4 -->
<g id="node4" class="node">
<title>Node4</title>
<g id="a_node4"><a xlink:title=" ">
<polygon fill="none" stroke="#bfbfbf" points="60,-0.5 60,-19.5 122,-19.5 122,-0.5 60,-0.5"/>
<text text-anchor="middle" x="91" y="-7.5" font-family="Helvetica,sans-Serif" font-size="10.00">stdbool.h</text>
</a>
</g>
</g>
<!-- Node2&#45;&gt;Node4 -->
<g id="edge3" class="edge">
<title>Node2&#45;&gt;Node4</title>
<path fill="none" stroke="midnightblue" d="M49.31,-112.25C41.75,-99.43 30.3,-75.03 39,-56 44.78,-43.36 56.05,-32.91 66.63,-25.27"/>
<polygon fill="midnightblue" stroke="midnightblue" points="68.85,-28 75.22,-19.53 64.96,-22.18 68.85,-28"/>
</g>
<!-- Node5&#45;&gt;Node3 -->
<g id="edge5" class="edge">
<title>Node5&#45;&gt;Node3</title>
<path fill="none" stroke="midnightblue" d="M171.21,-112.11C156.77,-99.12 134.46,-74.5 148,-56 171.85,-23.43 219.41,-13.85 252.9,-11.33"/>
<polygon fill="midnightblue" stroke="midnightblue" points="253.45,-14.8 263.23,-10.74 253.05,-7.81 253.45,-14.8"/>
</g>
<!-- Node5&#45;&gt;Node4 -->
<g id="edge7" class="edge">
<title>Node5&#45;&gt;Node4</title>
<path fill="none" stroke="midnightblue" d="M163.13,-112.43C148.21,-104.79 127.82,-92.3 115,-76 104.32,-62.42 98.07,-43.62 94.64,-29.73"/>
<polygon fill="midnightblue" stroke="midnightblue" points="98.03,-28.85 92.46,-19.84 91.19,-30.36 98.03,-28.85"/>
</g>
<!-- Node6 -->
<g id="node6" class="node">
<title>Node6</title>
<g id="a_node6"><a xlink:title=" ">
<polygon fill="none" stroke="#bfbfbf" points="157,-56.5 157,-75.5 213,-75.5 213,-56.5 157,-56.5"/>
<text text-anchor="middle" x="185" y="-63.5" font-family="Helvetica,sans-Serif" font-size="10.00">stddef.h</text>
</a>
</g>
</g>
<!-- Node5&#45;&gt;Node6 -->
<g id="edge6" class="edge">
<title>Node5&#45;&gt;Node6</title>
<path fill="none" stroke="midnightblue" d="M182.5,-112.08C182.89,-105.01 183.45,-94.86 183.95,-85.99"/>
<polygon fill="midnightblue" stroke="midnightblue" points="187.45,-85.93 184.51,-75.75 180.46,-85.54 187.45,-85.93"/>
</g>
<!-- Node7&#45;&gt;Node2 -->
<g id="edge37" class="edge">
<title>Node7&#45;&gt;Node2</title>
<path fill="none" stroke="midnightblue" d="M533.91,-280.42C449.94,-252.82 186.52,-166.23 90.48,-134.66"/>
<polygon fill="midnightblue" stroke="midnightblue" points="91.52,-131.32 80.93,-131.52 89.34,-137.97 91.52,-131.32"/>
</g>
<!-- Node8 -->
<g id="node8" class="node">
<title>Node8</title>
<g id="a_node8"><a xlink:href="settings__template_8hh_source.html" target="_top" xlink:title=" ">
<polygon fill="none" stroke="black" points="545,-224.5 545,-243.5 665,-243.5 665,-224.5 545,-224.5"/>
<text text-anchor="middle" x="605" y="-231.5" font-family="Helvetica,sans-Serif" font-size="10.00">settings_template.hh</text>
</a>
</g>
</g>
<!-- Node7&#45;&gt;Node8 -->
<g id="edge9" class="edge">
<title>Node7&#45;&gt;Node8</title>
<path fill="none" stroke="midnightblue" d="M567.43,-280.08C573.85,-272.38 583.31,-261.03 591.12,-251.65"/>
<polygon fill="midnightblue" stroke="midnightblue" points="593.99,-253.67 597.71,-243.75 588.62,-249.19 593.99,-253.67"/>
</g>
<!-- Node10 -->
<g id="node10" class="node">
<title>Node10</title>
<g id="a_node10"><a xlink:href="options_8hh.html" target="_top" xlink:title="defines strings used in user interface">
<polygon fill="none" stroke="black" points="382.5,-112.5 382.5,-131.5 505.5,-131.5 505.5,-112.5 382.5,-112.5"/>
<text text-anchor="middle" x="444" y="-119.5" font-family="Helvetica,sans-Serif" font-size="10.00">app_config/options.hh</text>
</a>
</g>
</g>
<!-- Node7&#45;&gt;Node10 -->
<g id="edge35" class="edge">
<title>Node7&#45;&gt;Node10</title>
<path fill="none" stroke="midnightblue" d="M553.76,-280.08C535.27,-253.61 480.48,-175.21 456.03,-140.21"/>
<polygon fill="midnightblue" stroke="midnightblue" points="458.58,-137.76 449.99,-131.57 452.85,-141.77 458.58,-137.76"/>
</g>
<!-- Node20 -->
<g id="node20" class="node">
<title>Node20</title>
<g id="a_node20"><a xlink:title=" ">
<polygon fill="none" stroke="#bfbfbf" points="1079,-56.5 1079,-75.5 1135,-75.5 1135,-56.5 1079,-56.5"/>
<text text-anchor="middle" x="1107" y="-63.5" font-family="Helvetica,sans-Serif" font-size="10.00">assert.h</text>
</a>
</g>
</g>
<!-- Node7&#45;&gt;Node20 -->
<g id="edge38" class="edge">
<title>Node7&#45;&gt;Node20</title>
<path fill="none" stroke="midnightblue" d="M594.47,-280.43C618.36,-273.34 650.06,-261.55 674,-244 734.9,-199.34 714.97,-148.65 781,-112 891.3,-50.77 940.18,-96.86 1068.59,-75.99"/>
<polygon fill="midnightblue" stroke="midnightblue" points="1069.54,-79.37 1078.79,-74.21 1068.34,-72.48 1069.54,-79.37"/>
</g>
<!-- Node23 -->
<g id="node23" class="node">
<title>Node23</title>
<g id="a_node23"><a xlink:href="int__macros_8h.html" target="_top" xlink:title="Basic helper macros for integers.">
<polygon fill="none" stroke="black" points="790,-112.5 790,-131.5 922,-131.5 922,-112.5 790,-112.5"/>
<text text-anchor="middle" x="856" y="-119.5" font-family="Helvetica,sans-Serif" font-size="10.00">utils_misc/int_macros.h</text>
</a>
</g>
</g>
<!-- Node7&#45;&gt;Node23 -->
<g id="edge36" class="edge">
<title>Node7&#45;&gt;Node23</title>
<path fill="none" stroke="midnightblue" d="M639.11,-286.99C682.69,-282.51 735.9,-271.2 776,-244 813.9,-218.29 838.33,-168.05 849.29,-141.1"/>
<polygon fill="midnightblue" stroke="midnightblue" points="852.58,-142.3 852.95,-131.71 846.06,-139.76 852.58,-142.3"/>
</g>
<!-- Node9 -->
<g id="node9" class="node">
<title>Node9</title>
<g id="a_node9"><a xlink:href="settings_8hh.html" target="_top" xlink:title=" ">
<polygon fill="none" stroke="black" points="581.5,-168.5 581.5,-187.5 652.5,-187.5 652.5,-168.5 581.5,-168.5"/>
<text text-anchor="middle" x="617" y="-175.5" font-family="Helvetica,sans-Serif" font-size="10.00">settings.hh</text>
</a>
</g>
</g>
<!-- Node8&#45;&gt;Node9 -->
<g id="edge10" class="edge">
<title>Node8&#45;&gt;Node9</title>
<path fill="none" stroke="midnightblue" d="M606.98,-224.08C608.57,-216.93 610.86,-206.64 612.85,-197.69"/>
<polygon fill="midnightblue" stroke="midnightblue" points="616.3,-198.27 615.06,-187.75 609.47,-196.75 616.3,-198.27"/>
</g>
<!-- Node9&#45;&gt;Node2 -->
<g id="edge33" class="edge">
<title>Node9&#45;&gt;Node2</title>
<path fill="none" stroke="midnightblue" d="M581.38,-174.36C501.21,-168.28 300.22,-152.36 120.47,-132"/>
<polygon fill="midnightblue" stroke="midnightblue" points="120.63,-128.49 110.3,-130.84 119.84,-135.45 120.63,-128.49"/>
</g>
<!-- Node9&#45;&gt;Node10 -->
<g id="edge11" class="edge">
<title>Node9&#45;&gt;Node10</title>
<path fill="none" stroke="midnightblue" d="M589.59,-168.44C560.23,-159.28 513.48,-144.69 480.9,-134.52"/>
<polygon fill="midnightblue" stroke="midnightblue" points="481.87,-131.16 471.28,-131.52 479.79,-137.84 481.87,-131.16"/>
</g>
<!-- Node11 -->
<g id="node11" class="node">
<title>Node11</title>
<g id="a_node11"><a xlink:href="uout__writer_8hh.html" target="_top" xlink:title="Provide an output class hierarchy which knows about the required format (text or JSON) and write func...">
<polygon fill="none" stroke="black" points="584.5,-112.5 584.5,-131.5 695.5,-131.5 695.5,-112.5 584.5,-112.5"/>
<text text-anchor="middle" x="640" y="-119.5" font-family="Helvetica,sans-Serif" font-size="10.00">uout/uout_writer.hh</text>
</a>
</g>
</g>
<!-- Node9&#45;&gt;Node11 -->
<g id="edge14" class="edge">
<title>Node9&#45;&gt;Node11</title>
<path fill="none" stroke="midnightblue" d="M620.8,-168.08C623.91,-160.77 628.42,-150.18 632.29,-141.1"/>
<polygon fill="midnightblue" stroke="midnightblue" points="635.57,-142.32 636.27,-131.75 629.13,-139.58 635.57,-142.32"/>
</g>
<!-- Node9&#45;&gt;Node20 -->
<g id="edge34" class="edge">
<title>Node9&#45;&gt;Node20</title>
<path fill="none" stroke="midnightblue" d="M633.97,-168.38C668.04,-151.11 742.02,-113.76 748,-112 883.05,-72.29 926.26,-99.77 1068.81,-75.97"/>
<polygon fill="midnightblue" stroke="midnightblue" points="1069.54,-79.4 1078.8,-74.25 1068.35,-72.5 1069.54,-79.4"/>
</g>
<!-- Node9&#45;&gt;Node23 -->
<g id="edge31" class="edge">
<title>Node9&#45;&gt;Node23</title>
<path fill="none" stroke="midnightblue" d="M652.52,-168.97C693.87,-159.63 762.33,-144.16 808.29,-133.78"/>
<polygon fill="midnightblue" stroke="midnightblue" points="809.33,-137.13 818.31,-131.52 807.78,-130.31 809.33,-137.13"/>
</g>
<!-- Node10&#45;&gt;Node3 -->
<g id="edge12" class="edge">
<title>Node10&#45;&gt;Node3</title>
<path fill="none" stroke="midnightblue" d="M382.22,-113.97C335.16,-107.2 275.99,-95.12 261,-76 249.4,-61.2 261.83,-41.04 273.83,-27.11"/>
<polygon fill="midnightblue" stroke="midnightblue" points="276.44,-29.44 280.65,-19.72 271.3,-24.69 276.44,-29.44"/>
</g>
<!-- Node10&#45;&gt;Node6 -->
<g id="edge13" class="edge">
<title>Node10&#45;&gt;Node6</title>
<path fill="none" stroke="midnightblue" d="M402.38,-112.45C358.69,-103.46 287.99,-88.86 227,-76 225.73,-75.73 224.43,-75.46 223.13,-75.18"/>
<polygon fill="midnightblue" stroke="midnightblue" points="223.52,-71.69 213.01,-73.03 222.06,-78.53 223.52,-71.69"/>
</g>
<!-- Node11&#45;&gt;Node3 -->
<g id="edge24" class="edge">
<title>Node11&#45;&gt;Node3</title>
<path fill="none" stroke="midnightblue" d="M592.29,-112.5C555.01,-105.07 502.27,-92.84 458,-76 440.16,-69.22 437.51,-63.59 420,-56 389.01,-42.57 352.58,-30.25 326.18,-21.9"/>
<polygon fill="midnightblue" stroke="midnightblue" points="327.18,-18.55 316.59,-18.91 325.09,-25.23 327.18,-18.55"/>
</g>
<!-- Node12 -->
<g id="node12" class="node">
<title>Node12</title>
<g id="a_node12"><a xlink:href="so__out_8h.html" target="_top" xlink:title="write formatted output to UoutWriter">
<polygon fill="none" stroke="black" points="467,-56.5 467,-75.5 525,-75.5 525,-56.5 467,-56.5"/>
<text text-anchor="middle" x="496" y="-63.5" font-family="Helvetica,sans-Serif" font-size="10.00">so_out.h</text>
</a>
</g>
</g>
<!-- Node11&#45;&gt;Node12 -->
<g id="edge15" class="edge">
<title>Node11&#45;&gt;Node12</title>
<path fill="none" stroke="midnightblue" d="M617.18,-112.44C593.17,-103.44 555.17,-89.19 528.13,-79.05"/>
<polygon fill="midnightblue" stroke="midnightblue" points="529.3,-75.75 518.71,-75.52 526.84,-82.3 529.3,-75.75"/>
</g>
<!-- Node13 -->
<g id="node13" class="node">
<title>Node13</title>
<g id="a_node13"><a xlink:href="so__target__bits_8h.html" target="_top" xlink:title="flags to select output formats and targets">
<polygon fill="none" stroke="black" points="474.5,-0.5 474.5,-19.5 569.5,-19.5 569.5,-0.5 474.5,-0.5"/>
<text text-anchor="middle" x="522" y="-7.5" font-family="Helvetica,sans-Serif" font-size="10.00">so_target_bits.h</text>
</a>
</g>
</g>
<!-- Node11&#45;&gt;Node13 -->
<g id="edge17" class="edge">
<title>Node11&#45;&gt;Node13</title>
<path fill="none" stroke="midnightblue" d="M624.1,-112.5C609.6,-104.3 588.06,-90.95 572,-76 556.59,-61.65 542.3,-42.19 532.98,-28.31"/>
<polygon fill="midnightblue" stroke="midnightblue" points="535.77,-26.18 527.37,-19.73 529.91,-30.01 535.77,-26.18"/>
</g>
<!-- Node14 -->
<g id="node14" class="node">
<title>Node14</title>
<g id="a_node14"><a xlink:href="uout__builder__json_8hh.html" target="_top" xlink:title="Create JSON output from key/val pairs.">
<polygon fill="none" stroke="black" points="581,-56.5 581,-75.5 699,-75.5 699,-56.5 581,-56.5"/>
<text text-anchor="middle" x="640" y="-63.5" font-family="Helvetica,sans-Serif" font-size="10.00">uout_builder_json.hh</text>
</a>
</g>
</g>
<!-- Node11&#45;&gt;Node14 -->
<g id="edge18" class="edge">
<title>Node11&#45;&gt;Node14</title>
<path fill="none" stroke="midnightblue" d="M640,-112.08C640,-105.01 640,-94.86 640,-85.99"/>
<polygon fill="midnightblue" stroke="midnightblue" points="643.5,-85.75 640,-75.75 636.5,-85.75 643.5,-85.75"/>
</g>
<!-- Node16 -->
<g id="node16" class="node">
<title>Node16</title>
<g id="a_node16"><a xlink:title=" ">
<polygon fill="none" stroke="#bfbfbf" points="689.5,-0.5 689.5,-19.5 754.5,-19.5 754.5,-0.5 689.5,-0.5"/>
<text text-anchor="middle" x="722" y="-7.5" font-family="Helvetica,sans-Serif" font-size="10.00">functional</text>
</a>
</g>
</g>
<!-- Node11&#45;&gt;Node16 -->
<g id="edge29" class="edge">
<title>Node11&#45;&gt;Node16</title>
<path fill="none" stroke="midnightblue" d="M661.06,-112.36C676.42,-104.97 696.5,-92.83 708,-76 717.26,-62.45 720.55,-43.9 721.65,-30.08"/>
<polygon fill="midnightblue" stroke="midnightblue" points="725.16,-29.96 722.14,-19.8 718.17,-29.63 725.16,-29.96"/>
</g>
<!-- Node17 -->
<g id="node17" class="node">
<title>Node17</title>
<g id="a_node17"><a xlink:href="uout__builder__plaintext_8hh_source.html" target="_top" xlink:title=" ">
<polygon fill="none" stroke="black" points="269.5,-56.5 269.5,-75.5 410.5,-75.5 410.5,-56.5 269.5,-56.5"/>
<text text-anchor="middle" x="340" y="-63.5" font-family="Helvetica,sans-Serif" font-size="10.00">uout_builder_plaintext.hh</text>
</a>
</g>
</g>
<!-- Node11&#45;&gt;Node17 -->
<g id="edge21" class="edge">
<title>Node11&#45;&gt;Node17</title>
<path fill="none" stroke="midnightblue" d="M592.46,-112.44C539.47,-102.9 453.8,-87.48 397.18,-77.29"/>
<polygon fill="midnightblue" stroke="midnightblue" points="397.78,-73.84 387.31,-75.52 396.54,-80.73 397.78,-73.84"/>
</g>
<!-- Node18 -->
<g id="node18" class="node">
<title>Node18</title>
<g id="a_node18"><a xlink:title=" ">
<polygon fill="none" stroke="#bfbfbf" points="755,-56.5 755,-75.5 811,-75.5 811,-56.5 755,-56.5"/>
<text text-anchor="middle" x="783" y="-63.5" font-family="Helvetica,sans-Serif" font-size="10.00">unistd.h</text>
</a>
</g>
</g>
<!-- Node11&#45;&gt;Node18 -->
<g id="edge25" class="edge">
<title>Node11&#45;&gt;Node18</title>
<path fill="none" stroke="midnightblue" d="M662.66,-112.44C686.4,-103.48 723.91,-89.31 750.74,-79.18"/>
<polygon fill="midnightblue" stroke="midnightblue" points="752.33,-82.32 760.45,-75.52 749.86,-75.77 752.33,-82.32"/>
</g>
<!-- Node19 -->
<g id="node19" class="node">
<title>Node19</title>
<g id="a_node19"><a xlink:title=" ">
<polygon fill="none" stroke="#bfbfbf" points="829.5,-56.5 829.5,-75.5 882.5,-75.5 882.5,-56.5 829.5,-56.5"/>
<text text-anchor="middle" x="856" y="-63.5" font-family="Helvetica,sans-Serif" font-size="10.00">string.h</text>
</a>
</g>
</g>
<!-- Node11&#45;&gt;Node19 -->
<g id="edge26" class="edge">
<title>Node11&#45;&gt;Node19</title>
<path fill="none" stroke="midnightblue" d="M674.23,-112.44C713.92,-102.52 779.1,-86.23 819.67,-76.08"/>
<polygon fill="midnightblue" stroke="midnightblue" points="820.57,-79.46 829.42,-73.64 818.87,-72.67 820.57,-79.46"/>
</g>
<!-- Node11&#45;&gt;Node20 -->
<g id="edge27" class="edge">
<title>Node11&#45;&gt;Node20</title>
<path fill="none" stroke="midnightblue" d="M695.77,-113.69C700.58,-113.1 705.37,-112.53 710,-112 866.48,-94.12 909.74,-102.7 1068.67,-76.01"/>
<polygon fill="midnightblue" stroke="midnightblue" points="1069.53,-79.41 1078.8,-74.29 1068.36,-72.51 1069.53,-79.41"/>
</g>
<!-- Node21 -->
<g id="node21" class="node">
<title>Node21</title>
<g id="a_node21"><a xlink:href="itoa_8h_source.html" target="_top" xlink:title=" ">
<polygon fill="none" stroke="black" points="900.5,-56.5 900.5,-75.5 997.5,-75.5 997.5,-56.5 900.5,-56.5"/>
<text text-anchor="middle" x="949" y="-63.5" font-family="Helvetica,sans-Serif" font-size="10.00">utils_misc/itoa.h</text>
</a>
</g>
</g>
<!-- Node11&#45;&gt;Node21 -->
<g id="edge28" class="edge">
<title>Node11&#45;&gt;Node21</title>
<path fill="none" stroke="midnightblue" d="M688.96,-112.44C743.54,-102.9 831.79,-87.48 890.1,-77.29"/>
<polygon fill="midnightblue" stroke="midnightblue" points="891.02,-80.69 900.27,-75.52 889.81,-73.79 891.02,-80.69"/>
</g>
<!-- Node22 -->
<g id="node22" class="node">
<title>Node22</title>
<g id="a_node22"><a xlink:title=" ">
<polygon fill="none" stroke="#bfbfbf" points="1015.5,-56.5 1015.5,-75.5 1060.5,-75.5 1060.5,-56.5 1015.5,-56.5"/>
<text text-anchor="middle" x="1038" y="-63.5" font-family="Helvetica,sans-Serif" font-size="10.00">utility</text>
</a>
</g>
</g>
<!-- Node11&#45;&gt;Node22 -->
<g id="edge30" class="edge">
<title>Node11&#45;&gt;Node22</title>
<path fill="none" stroke="midnightblue" d="M695.78,-113.79C700.59,-113.18 705.38,-112.58 710,-112 838.72,-95.92 874.97,-102.29 1005.44,-76.05"/>
<polygon fill="midnightblue" stroke="midnightblue" points="1006.32,-79.44 1015.42,-74.01 1004.92,-72.58 1006.32,-79.44"/>
</g>
<!-- Node12&#45;&gt;Node13 -->
<g id="edge16" class="edge">
<title>Node12&#45;&gt;Node13</title>
<path fill="none" stroke="midnightblue" d="M500.29,-56.08C503.85,-48.69 509.02,-37.95 513.42,-28.81"/>
<polygon fill="midnightblue" stroke="midnightblue" points="516.6,-30.28 517.79,-19.75 510.29,-27.24 516.6,-30.28"/>
</g>
<!-- Node15 -->
<g id="node15" class="node">
<title>Node15</title>
<g id="a_node15"><a xlink:title=" ">
<polygon fill="none" stroke="#bfbfbf" points="613.5,-0.5 613.5,-19.5 666.5,-19.5 666.5,-0.5 613.5,-0.5"/>
<text text-anchor="middle" x="640" y="-7.5" font-family="Helvetica,sans-Serif" font-size="10.00">stdlib.h</text>
</a>
</g>
</g>
<!-- Node14&#45;&gt;Node15 -->
<g id="edge19" class="edge">
<title>Node14&#45;&gt;Node15</title>
<path fill="none" stroke="midnightblue" d="M640,-56.08C640,-49.01 640,-38.86 640,-29.99"/>
<polygon fill="midnightblue" stroke="midnightblue" points="643.5,-29.75 640,-19.75 636.5,-29.75 643.5,-29.75"/>
</g>
<!-- Node14&#45;&gt;Node16 -->
<g id="edge20" class="edge">
<title>Node14&#45;&gt;Node16</title>
<path fill="none" stroke="midnightblue" d="M653.17,-56.32C665.85,-47.98 685.23,-35.21 700.21,-25.35"/>
<polygon fill="midnightblue" stroke="midnightblue" points="702.43,-28.08 708.86,-19.65 698.58,-22.23 702.43,-28.08"/>
</g>
<!-- Node17&#45;&gt;Node3 -->
<g id="edge22" class="edge">
<title>Node17&#45;&gt;Node3</title>
<path fill="none" stroke="midnightblue" d="M331.74,-56.08C324.54,-48.3 313.89,-36.8 305.15,-27.37"/>
<polygon fill="midnightblue" stroke="midnightblue" points="307.47,-24.71 298.1,-19.75 302.33,-29.47 307.47,-24.71"/>
</g>
<!-- Node17&#45;&gt;Node4 -->
<g id="edge23" class="edge">
<title>Node17&#45;&gt;Node4</title>
<path fill="none" stroke="midnightblue" d="M300.55,-56.44C254.42,-46.44 178.48,-29.97 131.79,-19.85"/>
<polygon fill="midnightblue" stroke="midnightblue" points="132.52,-16.42 122.01,-17.73 131.04,-23.27 132.52,-16.42"/>
</g>
<!-- Node23&#45;&gt;Node3 -->
<g id="edge32" class="edge">
<title>Node23&#45;&gt;Node3</title>
<path fill="none" stroke="midnightblue" d="M922.2,-120.24C998.21,-117.8 1116.03,-108.68 1144,-76 1149.78,-69.25 1150.12,-62.45 1144,-56 1143.11,-55.06 490.89,-21.36 327.01,-12.91"/>
<polygon fill="midnightblue" stroke="midnightblue" points="327.1,-9.41 316.94,-12.39 326.74,-16.4 327.1,-9.41"/>
</g>
</g>
</svg>
