<?xml version="1.0" encoding="UTF-8" standalone="no"?>
<!DOCTYPE svg PUBLIC "-//W3C//DTD SVG 1.1//EN"
 "http://www.w3.org/Graphics/SVG/1.1/DTD/svg11.dtd">
<!-- Generated by graphviz version 2.43.0 (0)
 -->
<!-- Title: /home/bertw/proj/mcu/tronferno&#45;mcu/external/mbed&#45;net&#45;lib/components/net_http_server/include/net_http_server/content.hh Pages: 1 -->
<svg width="308pt" height="161pt"
 viewBox="0.00 0.00 308.00 161.00" xmlns="http://www.w3.org/2000/svg" xmlns:xlink="http://www.w3.org/1999/xlink">
<g id="graph0" class="graph" transform="scale(1 1) rotate(0) translate(4 157)">
<title>/home/bertw/proj/mcu/tronferno&#45;mcu/external/mbed&#45;net&#45;lib/components/net_http_server/include/net_http_server/content.hh</title>
<!-- Node1 -->
<g id="node1" class="node">
<title>Node1</title>
<g id="a_node1"><a xlink:title="embedded files we want to serve. classes to serve files. (XXX)">
<polygon fill="#bfbfbf" stroke="black" points="84,-89.5 84,-152.5 235,-152.5 235,-89.5 84,-89.5"/>
<text text-anchor="start" x="92" y="-140.5" font-family="Helvetica,sans-Serif" font-size="10.00">/home/bertw/proj/mcu</text>
<text text-anchor="start" x="92" y="-129.5" font-family="Helvetica,sans-Serif" font-size="10.00">/tronferno&#45;mcu/external</text>
<text text-anchor="start" x="92" y="-118.5" font-family="Helvetica,sans-Serif" font-size="10.00">/mbed&#45;net&#45;lib/components</text>
<text text-anchor="start" x="92" y="-107.5" font-family="Helvetica,sans-Serif" font-size="10.00">/net_http_server/include</text>
<text text-anchor="middle" x="159.5" y="-96.5" font-family="Helvetica,sans-Serif" font-size="10.00">/net_http_server/content.hh</text>
</a>
</g>
</g>
<!-- Node2 -->
<g id="node2" class="node">
<title>Node2</title>
<g id="a_node2"><a xlink:href="content_8h.html" target="_top" xlink:title="Definitions to make embedded files accessible from C code.">
<polygon fill="none" stroke="black" points="0,-0.5 0,-52.5 161,-52.5 161,-0.5 0,-0.5"/>
<text text-anchor="start" x="8" y="-40.5" font-family="Helvetica,sans-Serif" font-size="10.00">/home/bertw/proj/mcu</text>
<text text-anchor="start" x="8" y="-29.5" font-family="Helvetica,sans-Serif" font-size="10.00">/tronferno&#45;mcu/components</text>
<text text-anchor="start" x="8" y="-18.5" font-family="Helvetica,sans-Serif" font-size="10.00">/app_webapp/include/webapp</text>
<text text-anchor="middle" x="80.5" y="-7.5" font-family="Helvetica,sans-Serif" font-size="10.00">/content.h</text>
</a>
</g>
</g>
<!-- Node1&#45;&gt;Node2 -->
<g id="edge1" class="edge">
<title>Node1&#45;&gt;Node2</title>
<path fill="none" stroke="midnightblue" d="M126.84,-81.75C118.49,-71.98 109.71,-61.71 102.08,-52.77"/>
<polygon fill="midnightblue" stroke="midnightblue" points="124.26,-84.12 133.41,-89.46 129.58,-79.58 124.26,-84.12"/>
</g>
<!-- Node3 -->
<g id="node3" class="node">
<title>Node3</title>
<g id="a_node3"><a xlink:href="cli__to__json_8hh_source.html" target="_top" xlink:title=" ">
<polygon fill="none" stroke="black" points="179,-17 179,-36 300,-36 300,-17 179,-17"/>
<text text-anchor="middle" x="239.5" y="-24" font-family="Helvetica,sans-Serif" font-size="10.00">app_cli/cli_to_json.hh</text>
</a>
</g>
</g>
<!-- Node1&#45;&gt;Node3 -->
<g id="edge2" class="edge">
<title>Node1&#45;&gt;Node3</title>
<path fill="none" stroke="midnightblue" d="M192.52,-81.82C207.16,-64.9 223.08,-46.49 232.12,-36.03"/>
<polygon fill="midnightblue" stroke="midnightblue" points="189.81,-79.6 185.92,-89.46 195.11,-84.18 189.81,-79.6"/>
</g>
</g>
</svg>
