<?xml version="1.0" encoding="UTF-8" standalone="no"?>
<!DOCTYPE svg PUBLIC "-//W3C//DTD SVG 1.1//EN"
 "http://www.w3.org/Graphics/SVG/1.1/DTD/svg11.dtd">
<!-- Generated by graphviz version 2.43.0 (0)
 -->
<!-- Title: /home/bertw/proj/mcu/tronferno&#45;mcu/components/app_webapp/include/webapp/content.h Pages: 1 -->
<svg width="302pt" height="173pt"
 viewBox="0.00 0.00 302.00 173.00" xmlns="http://www.w3.org/2000/svg" xmlns:xlink="http://www.w3.org/1999/xlink">
<g id="graph0" class="graph" transform="scale(1 1) rotate(0) translate(4 169)">
<title>/home/bertw/proj/mcu/tronferno&#45;mcu/components/app_webapp/include/webapp/content.h</title>
<!-- Node1 -->
<g id="node1" class="node">
<title>Node1</title>
<g id="a_node1"><a xlink:title="Definitions to make embedded files accessible from C code.">
<polygon fill="#bfbfbf" stroke="black" points="78.5,-112.5 78.5,-164.5 239.5,-164.5 239.5,-112.5 78.5,-112.5"/>
<text text-anchor="start" x="86.5" y="-152.5" font-family="Helvetica,sans-Serif" font-size="10.00">/home/bertw/proj/mcu</text>
<text text-anchor="start" x="86.5" y="-141.5" font-family="Helvetica,sans-Serif" font-size="10.00">/tronferno&#45;mcu/components</text>
<text text-anchor="start" x="86.5" y="-130.5" font-family="Helvetica,sans-Serif" font-size="10.00">/app_webapp/include/webapp</text>
<text text-anchor="middle" x="159" y="-119.5" font-family="Helvetica,sans-Serif" font-size="10.00">/content.h</text>
</a>
</g>
</g>
<!-- Node2 -->
<g id="node2" class="node">
<title>Node2</title>
<g id="a_node2"><a xlink:href="content_8hh.html" target="_top" xlink:title="embedded files we want to serve. classes to serve files. (XXX)">
<polygon fill="none" stroke="black" points="85,-56.5 85,-75.5 233,-75.5 233,-56.5 85,-56.5"/>
<text text-anchor="middle" x="159" y="-63.5" font-family="Helvetica,sans-Serif" font-size="10.00">net_http_server/content.hh</text>
</a>
</g>
</g>
<!-- Node1&#45;&gt;Node2 -->
<g id="edge1" class="edge">
<title>Node1&#45;&gt;Node2</title>
<path fill="none" stroke="midnightblue" d="M159,-112.45C159,-103.73 159,-94.1 159,-85.96"/>
<polygon fill="midnightblue" stroke="midnightblue" points="162.5,-85.7 159,-75.7 155.5,-85.7 162.5,-85.7"/>
</g>
<!-- Node3 -->
<g id="node3" class="node">
<title>Node3</title>
<g id="a_node3"><a xlink:title=" ">
<polygon fill="none" stroke="#bfbfbf" points="0,-0.5 0,-19.5 72,-19.5 72,-0.5 0,-0.5"/>
<text text-anchor="middle" x="36" y="-7.5" font-family="Helvetica,sans-Serif" font-size="10.00">sys/types.h</text>
</a>
</g>
</g>
<!-- Node2&#45;&gt;Node3 -->
<g id="edge2" class="edge">
<title>Node2&#45;&gt;Node3</title>
<path fill="none" stroke="midnightblue" d="M139.51,-56.44C119.36,-47.6 87.68,-33.69 64.67,-23.59"/>
<polygon fill="midnightblue" stroke="midnightblue" points="65.96,-20.33 55.4,-19.52 63.15,-26.74 65.96,-20.33"/>
</g>
<!-- Node4 -->
<g id="node4" class="node">
<title>Node4</title>
<g id="a_node4"><a xlink:title=" ">
<polygon fill="none" stroke="#bfbfbf" points="90,-0.5 90,-19.5 154,-19.5 154,-0.5 90,-0.5"/>
<text text-anchor="middle" x="122" y="-7.5" font-family="Helvetica,sans-Serif" font-size="10.00">sys/stat.h</text>
</a>
</g>
</g>
<!-- Node2&#45;&gt;Node4 -->
<g id="edge3" class="edge">
<title>Node2&#45;&gt;Node4</title>
<path fill="none" stroke="midnightblue" d="M152.89,-56.08C147.72,-48.53 140.15,-37.49 133.81,-28.23"/>
<polygon fill="midnightblue" stroke="midnightblue" points="136.54,-26.02 128,-19.75 130.76,-29.98 136.54,-26.02"/>
</g>
<!-- Node5 -->
<g id="node5" class="node">
<title>Node5</title>
<g id="a_node5"><a xlink:title=" ">
<polygon fill="none" stroke="#bfbfbf" points="172.5,-0.5 172.5,-19.5 219.5,-19.5 219.5,-0.5 172.5,-0.5"/>
<text text-anchor="middle" x="196" y="-7.5" font-family="Helvetica,sans-Serif" font-size="10.00">fcntl.h</text>
</a>
</g>
</g>
<!-- Node2&#45;&gt;Node5 -->
<g id="edge4" class="edge">
<title>Node2&#45;&gt;Node5</title>
<path fill="none" stroke="midnightblue" d="M165.11,-56.08C170.28,-48.53 177.85,-37.49 184.19,-28.23"/>
<polygon fill="midnightblue" stroke="midnightblue" points="187.24,-29.98 190,-19.75 181.46,-26.02 187.24,-29.98"/>
</g>
<!-- Node6 -->
<g id="node6" class="node">
<title>Node6</title>
<g id="a_node6"><a xlink:title=" ">
<polygon fill="none" stroke="#bfbfbf" points="238,-0.5 238,-19.5 294,-19.5 294,-0.5 238,-0.5"/>
<text text-anchor="middle" x="266" y="-7.5" font-family="Helvetica,sans-Serif" font-size="10.00">unistd.h</text>
</a>
</g>
</g>
<!-- Node2&#45;&gt;Node6 -->
<g id="edge5" class="edge">
<title>Node2&#45;&gt;Node6</title>
<path fill="none" stroke="midnightblue" d="M176.19,-56.32C193.35,-47.66 219.95,-34.24 239.75,-24.25"/>
<polygon fill="midnightblue" stroke="midnightblue" points="241.5,-27.28 248.85,-19.65 238.35,-21.04 241.5,-27.28"/>
</g>
</g>
</svg>
