<?xml version="1.0" encoding="UTF-8" standalone="no"?>
<!DOCTYPE svg PUBLIC "-//W3C//DTD SVG 1.1//EN"
 "http://www.w3.org/Graphics/SVG/1.1/DTD/svg11.dtd">
<!-- Generated by graphviz version 2.43.0 (0)
 -->
<!-- Title: fernotron/auto Pages: 1 -->
<svg width="94pt" height="151pt"
 viewBox="0.00 0.00 94.00 151.00" xmlns="http://www.w3.org/2000/svg" xmlns:xlink="http://www.w3.org/1999/xlink">
<g id="graph0" class="graph" transform="scale(1 1) rotate(0) translate(4 147)">
<title>fernotron/auto</title>
<g id="clust1" class="cluster">
<title>clusterdir_a79599a21c415120241a198b95c2c35d</title>
<g id="a_clust1"><a xlink:href="dir_a79599a21c415120241a198b95c2c35d.html" target="_top" xlink:title="fernotron">
<polygon fill="#ddddee" stroke="black" points="8,-64 8,-135 78,-135 78,-64 8,-64"/>
<text text-anchor="middle" x="43" y="-123" font-family="Helvetica,sans-Serif" font-size="10.00">fernotron</text>
</a>
</g>
</g>
<!-- dir_e8a34b863fa7e0e75079e520e02a15f9 -->
<g id="node1" class="node">
<title>dir_e8a34b863fa7e0e75079e520e02a15f9</title>
<g id="a_node1"><a xlink:href="dir_e8a34b863fa7e0e75079e520e02a15f9.html" target="_top" xlink:title="auto">
<polygon fill="#eeeeff" stroke="black" points="70,-108 16,-108 16,-72 70,-72 70,-108"/>
<text text-anchor="middle" x="43" y="-87.5" font-family="Helvetica,sans-Serif" font-size="10.00">auto</text>
</a>
</g>
</g>
<!-- dir_7f852cf003bf0a82b92f7cba237f50d9 -->
<g id="node2" class="node">
<title>dir_7f852cf003bf0a82b92f7cba237f50d9</title>
<g id="a_node2"><a xlink:href="dir_7f852cf003bf0a82b92f7cba237f50d9.html" target="_top" xlink:title="fernotron_trx">
<polygon fill="none" stroke="red" points="83,-36 3,-36 3,0 83,0 83,-36"/>
<text text-anchor="middle" x="43" y="-15.5" font-family="Helvetica,sans-Serif" font-size="10.00">fernotron_trx</text>
</a>
</g>
</g>
<!-- dir_e8a34b863fa7e0e75079e520e02a15f9&#45;&gt;dir_7f852cf003bf0a82b92f7cba237f50d9 -->
<g id="edge1" class="edge">
<title>dir_e8a34b863fa7e0e75079e520e02a15f9&#45;&gt;dir_7f852cf003bf0a82b92f7cba237f50d9</title>
<path fill="none" stroke="black" d="M43,-71.7C43,-63.98 43,-54.71 43,-46.11"/>
<polygon fill="black" stroke="black" points="46.5,-46.1 43,-36.1 39.5,-46.1 46.5,-46.1"/>
<g id="a_edge1&#45;headlabel"><a xlink:href="dir_000048_000053.html" target="_top" xlink:title="2">
<text text-anchor="middle" x="49.34" y="-47.2" font-family="Helvetica,sans-Serif" font-size="10.00">2</text>
</a>
</g>
</g>
</g>
</svg>
