<?xml version="1.0" encoding="UTF-8" standalone="no"?>
<!DOCTYPE svg PUBLIC "-//W3C//DTD SVG 1.1//EN"
 "http://www.w3.org/Graphics/SVG/1.1/DTD/svg11.dtd">
<!-- Generated by graphviz version 2.43.0 (0)
 -->
<!-- Title: app_cli Pages: 1 -->
<svg width="278pt" height="188pt"
 viewBox="0.00 0.00 278.00 188.00" xmlns="http://www.w3.org/2000/svg" xmlns:xlink="http://www.w3.org/1999/xlink">
<g id="graph0" class="graph" transform="scale(1 1) rotate(0) translate(4 184)">
<title>app_cli</title>
<!-- dir_2ae8b97c32cdd4ae7d5cda943016e1fd -->
<g id="node1" class="node">
<title>dir_2ae8b97c32cdd4ae7d5cda943016e1fd</title>
<g id="a_node1"><a xlink:href="dir_2ae8b97c32cdd4ae7d5cda943016e1fd.html" target="_top" xlink:title="app_cli">
<polygon fill="#eeeeff" stroke="black" points="162,-180 108,-180 108,-144 162,-144 162,-180"/>
<text text-anchor="middle" x="135" y="-159.5" font-family="Helvetica,sans-Serif" font-size="10.00">app_cli</text>
</a>
</g>
</g>
<!-- dir_4a3e0e1cdaf67627fc8b50e1b923130f -->
<g id="node2" class="node">
<title>dir_4a3e0e1cdaf67627fc8b50e1b923130f</title>
<g id="a_node2"><a xlink:href="dir_4a3e0e1cdaf67627fc8b50e1b923130f.html" target="_top" xlink:title="mbed&#45;net&#45;lib">
<polygon fill="none" stroke="red" points="80,-108 0,-108 0,-72 80,-72 80,-108"/>
<text text-anchor="middle" x="40" y="-87.5" font-family="Helvetica,sans-Serif" font-size="10.00">mbed&#45;net&#45;lib</text>
</a>
</g>
</g>
<!-- dir_2ae8b97c32cdd4ae7d5cda943016e1fd&#45;&gt;dir_4a3e0e1cdaf67627fc8b50e1b923130f -->
<g id="edge2" class="edge">
<title>dir_2ae8b97c32cdd4ae7d5cda943016e1fd&#45;&gt;dir_4a3e0e1cdaf67627fc8b50e1b923130f</title>
<path fill="none" stroke="black" d="M111.52,-143.7C99.44,-134.8 84.55,-123.82 71.48,-114.2"/>
<polygon fill="black" stroke="black" points="73.34,-111.22 63.21,-108.1 69.19,-116.85 73.34,-111.22"/>
<g id="a_edge2&#45;headlabel"><a xlink:href="dir_000005_000024.html" target="_top" xlink:title="1">
<text text-anchor="middle" x="77.92" y="-108.57" font-family="Helvetica,sans-Serif" font-size="10.00">1</text>
</a>
</g>
</g>
<!-- dir_7f852cf003bf0a82b92f7cba237f50d9 -->
<g id="node3" class="node">
<title>dir_7f852cf003bf0a82b92f7cba237f50d9</title>
<g id="a_node3"><a xlink:href="dir_7f852cf003bf0a82b92f7cba237f50d9.html" target="_top" xlink:title="fernotron_trx">
<polygon fill="none" stroke="red" points="213,-36 133,-36 133,0 213,0 213,-36"/>
<text text-anchor="middle" x="173" y="-15.5" font-family="Helvetica,sans-Serif" font-size="10.00">fernotron_trx</text>
</a>
</g>
</g>
<!-- dir_2ae8b97c32cdd4ae7d5cda943016e1fd&#45;&gt;dir_7f852cf003bf0a82b92f7cba237f50d9 -->
<g id="edge3" class="edge">
<title>dir_2ae8b97c32cdd4ae7d5cda943016e1fd&#45;&gt;dir_7f852cf003bf0a82b92f7cba237f50d9</title>
<path fill="none" stroke="black" d="M129.1,-143.68C123.82,-125.29 118.15,-95.69 127,-72 130.88,-61.62 137.8,-51.93 145.12,-43.74"/>
<polygon fill="black" stroke="black" points="147.78,-46.03 152.18,-36.38 142.73,-41.18 147.78,-46.03"/>
<g id="a_edge3&#45;headlabel"><a xlink:href="dir_000005_000053.html" target="_top" xlink:title="1">
<text text-anchor="middle" x="147.35" y="-48.09" font-family="Helvetica,sans-Serif" font-size="10.00">1</text>
</a>
</g>
</g>
<!-- dir_a51e1161a1f26633b9318a96ee2e22ff -->
<g id="node4" class="node">
<title>dir_a51e1161a1f26633b9318a96ee2e22ff</title>
<g id="a_node4"><a xlink:href="dir_a51e1161a1f26633b9318a96ee2e22ff.html" target="_top" xlink:title="cli">
<polygon fill="none" stroke="black" points="190,-108 136,-108 136,-72 190,-72 190,-108"/>
<text text-anchor="middle" x="163" y="-87.5" font-family="Helvetica,sans-Serif" font-size="10.00">cli</text>
</a>
</g>
</g>
<!-- dir_2ae8b97c32cdd4ae7d5cda943016e1fd&#45;&gt;dir_a51e1161a1f26633b9318a96ee2e22ff -->
<g id="edge4" class="edge">
<title>dir_2ae8b97c32cdd4ae7d5cda943016e1fd&#45;&gt;dir_a51e1161a1f26633b9318a96ee2e22ff</title>
<path fill="none" stroke="black" d="M141.92,-143.7C145.07,-135.81 148.88,-126.3 152.38,-117.55"/>
<polygon fill="black" stroke="black" points="155.69,-118.69 156.16,-108.1 149.19,-116.09 155.69,-118.69"/>
<g id="a_edge4&#45;headlabel"><a xlink:href="dir_000005_000015.html" target="_top" xlink:title="1">
<text text-anchor="middle" x="157" y="-120.58" font-family="Helvetica,sans-Serif" font-size="10.00">1</text>
</a>
</g>
</g>
<!-- dir_a79599a21c415120241a198b95c2c35d -->
<g id="node5" class="node">
<title>dir_a79599a21c415120241a198b95c2c35d</title>
<g id="a_node5"><a xlink:href="dir_a79599a21c415120241a198b95c2c35d.html" target="_top" xlink:title="fernotron">
<polygon fill="none" stroke="red" points="270,-108 208,-108 208,-72 270,-72 270,-108"/>
<text text-anchor="middle" x="239" y="-87.5" font-family="Helvetica,sans-Serif" font-size="10.00">fernotron</text>
</a>
</g>
</g>
<!-- dir_2ae8b97c32cdd4ae7d5cda943016e1fd&#45;&gt;dir_a79599a21c415120241a198b95c2c35d -->
<g id="edge5" class="edge">
<title>dir_2ae8b97c32cdd4ae7d5cda943016e1fd&#45;&gt;dir_a79599a21c415120241a198b95c2c35d</title>
<path fill="none" stroke="black" d="M160.44,-143.88C173.79,-134.89 190.32,-123.76 204.78,-114.03"/>
<polygon fill="black" stroke="black" points="207.12,-116.68 213.46,-108.19 203.21,-110.87 207.12,-116.68"/>
<g id="a_edge5&#45;headlabel"><a xlink:href="dir_000005_000046.html" target="_top" xlink:title="1">
<text text-anchor="middle" x="205.72" y="-118.54" font-family="Helvetica,sans-Serif" font-size="10.00">1</text>
</a>
</g>
</g>
<!-- dir_a79599a21c415120241a198b95c2c35d&#45;&gt;dir_7f852cf003bf0a82b92f7cba237f50d9 -->
<g id="edge1" class="edge">
<title>dir_a79599a21c415120241a198b95c2c35d&#45;&gt;dir_7f852cf003bf0a82b92f7cba237f50d9</title>
<path fill="none" stroke="black" d="M222.69,-71.7C214.69,-63.22 204.93,-52.86 196.18,-43.58"/>
<polygon fill="black" stroke="black" points="198.53,-40.98 189.13,-36.1 193.44,-45.78 198.53,-40.98"/>
<g id="a_edge1&#45;headlabel"><a xlink:href="dir_000046_000053.html" target="_top" xlink:title="7">
<text text-anchor="middle" x="203.07" y="-39.15" font-family="Helvetica,sans-Serif" font-size="10.00">7</text>
</a>
</g>
</g>
</g>
</svg>
