<?xml version="1.0" encoding="UTF-8" standalone="no"?>
<!DOCTYPE svg PUBLIC "-//W3C//DTD SVG 1.1//EN"
 "http://www.w3.org/Graphics/SVG/1.1/DTD/svg11.dtd">
<!-- Generated by graphviz version 2.43.0 (0)
 -->
<!-- Title: app_settings Pages: 1 -->
<svg width="288pt" height="260pt"
 viewBox="0.00 0.00 288.00 260.00" xmlns="http://www.w3.org/2000/svg" xmlns:xlink="http://www.w3.org/1999/xlink">
<g id="graph0" class="graph" transform="scale(1 1) rotate(0) translate(4 256)">
<title>app_settings</title>
<!-- dir_d5ab540a0f1a46eeb09591e85a946aef -->
<g id="node1" class="node">
<title>dir_d5ab540a0f1a46eeb09591e85a946aef</title>
<g id="a_node1"><a xlink:href="dir_d5ab540a0f1a46eeb09591e85a946aef.html" target="_top" xlink:title="app_settings">
<polygon fill="#eeeeff" stroke="black" points="185.5,-252 106.5,-252 106.5,-216 185.5,-216 185.5,-252"/>
<text text-anchor="middle" x="146" y="-231.5" font-family="Helvetica,sans-Serif" font-size="10.00">app_settings</text>
</a>
</g>
</g>
<!-- dir_7f852cf003bf0a82b92f7cba237f50d9 -->
<g id="node2" class="node">
<title>dir_7f852cf003bf0a82b92f7cba237f50d9</title>
<g id="a_node2"><a xlink:href="dir_7f852cf003bf0a82b92f7cba237f50d9.html" target="_top" xlink:title="fernotron_trx">
<polygon fill="none" stroke="red" points="80,-108 0,-108 0,-72 80,-72 80,-108"/>
<text text-anchor="middle" x="40" y="-87.5" font-family="Helvetica,sans-Serif" font-size="10.00">fernotron_trx</text>
</a>
</g>
</g>
<!-- dir_d5ab540a0f1a46eeb09591e85a946aef&#45;&gt;dir_7f852cf003bf0a82b92f7cba237f50d9 -->
<g id="edge4" class="edge">
<title>dir_d5ab540a0f1a46eeb09591e85a946aef&#45;&gt;dir_7f852cf003bf0a82b92f7cba237f50d9</title>
<path fill="none" stroke="black" d="M106.49,-222.07C85.21,-214.04 60.6,-200.81 47,-180 35.18,-161.91 34.16,-137.13 35.68,-118.31"/>
<polygon fill="black" stroke="black" points="39.17,-118.6 36.77,-108.28 32.21,-117.84 39.17,-118.6"/>
<g id="a_edge4&#45;headlabel"><a xlink:href="dir_000010_000053.html" target="_top" xlink:title="1">
<text text-anchor="middle" x="41.6" y="-119.98" font-family="Helvetica,sans-Serif" font-size="10.00">1</text>
</a>
</g>
</g>
<!-- dir_98438063e3988470581efef61b04cf9b -->
<g id="node3" class="node">
<title>dir_98438063e3988470581efef61b04cf9b</title>
<g id="a_node3"><a xlink:href="dir_98438063e3988470581efef61b04cf9b.html" target="_top" xlink:title="config_kvs">
<polygon fill="none" stroke="black" points="280,-180 212,-180 212,-144 280,-144 280,-180"/>
<text text-anchor="middle" x="246" y="-159.5" font-family="Helvetica,sans-Serif" font-size="10.00">config_kvs</text>
</a>
</g>
</g>
<!-- dir_d5ab540a0f1a46eeb09591e85a946aef&#45;&gt;dir_98438063e3988470581efef61b04cf9b -->
<g id="edge5" class="edge">
<title>dir_d5ab540a0f1a46eeb09591e85a946aef&#45;&gt;dir_98438063e3988470581efef61b04cf9b</title>
<path fill="none" stroke="black" d="M170.46,-215.88C183.3,-206.89 199.2,-195.76 213.09,-186.03"/>
<polygon fill="black" stroke="black" points="215.26,-188.79 221.44,-180.19 211.24,-183.06 215.26,-188.79"/>
<g id="a_edge5&#45;headlabel"><a xlink:href="dir_000010_000011.html" target="_top" xlink:title="5">
<text text-anchor="middle" x="213.94" y="-190.68" font-family="Helvetica,sans-Serif" font-size="10.00">5</text>
</a>
</g>
</g>
<!-- dir_a79599a21c415120241a198b95c2c35d -->
<g id="node4" class="node">
<title>dir_a79599a21c415120241a198b95c2c35d</title>
<g id="a_node4"><a xlink:href="dir_a79599a21c415120241a198b95c2c35d.html" target="_top" xlink:title="fernotron">
<polygon fill="none" stroke="red" points="118,-180 56,-180 56,-144 118,-144 118,-180"/>
<text text-anchor="middle" x="87" y="-159.5" font-family="Helvetica,sans-Serif" font-size="10.00">fernotron</text>
</a>
</g>
</g>
<!-- dir_d5ab540a0f1a46eeb09591e85a946aef&#45;&gt;dir_a79599a21c415120241a198b95c2c35d -->
<g id="edge6" class="edge">
<title>dir_d5ab540a0f1a46eeb09591e85a946aef&#45;&gt;dir_a79599a21c415120241a198b95c2c35d</title>
<path fill="none" stroke="black" d="M131.42,-215.7C124.34,-207.3 115.72,-197.07 107.95,-187.86"/>
<polygon fill="black" stroke="black" points="110.54,-185.49 101.42,-180.1 105.19,-190.01 110.54,-185.49"/>
<g id="a_edge6&#45;headlabel"><a xlink:href="dir_000010_000046.html" target="_top" xlink:title="1">
<text text-anchor="middle" x="115.03" y="-183.91" font-family="Helvetica,sans-Serif" font-size="10.00">1</text>
</a>
</g>
</g>
<!-- dir_caef551bd632be6ebe9ef36c30380f1c -->
<g id="node5" class="node">
<title>dir_caef551bd632be6ebe9ef36c30380f1c</title>
<g id="a_node5"><a xlink:href="dir_caef551bd632be6ebe9ef36c30380f1c.html" target="_top" xlink:title="utils_misc">
<polygon fill="none" stroke="black" points="160,-36 94,-36 94,0 160,0 160,-36"/>
<text text-anchor="middle" x="127" y="-15.5" font-family="Helvetica,sans-Serif" font-size="10.00">utils_misc</text>
</a>
</g>
</g>
<!-- dir_d5ab540a0f1a46eeb09591e85a946aef&#45;&gt;dir_caef551bd632be6ebe9ef36c30380f1c -->
<g id="edge7" class="edge">
<title>dir_d5ab540a0f1a46eeb09591e85a946aef&#45;&gt;dir_caef551bd632be6ebe9ef36c30380f1c</title>
<path fill="none" stroke="black" d="M144.48,-215.85C141.19,-178.83 133.41,-91.18 129.43,-46.39"/>
<polygon fill="black" stroke="black" points="132.9,-45.88 128.53,-36.23 125.93,-46.5 132.9,-45.88"/>
<g id="a_edge7&#45;headlabel"><a xlink:href="dir_000010_000017.html" target="_top" xlink:title="2">
<text text-anchor="middle" x="136.05" y="-46.71" font-family="Helvetica,sans-Serif" font-size="10.00">2</text>
</a>
</g>
</g>
<!-- dir_f498004299f8484a07de79a6be8d1f27 -->
<g id="node6" class="node">
<title>dir_f498004299f8484a07de79a6be8d1f27</title>
<g id="a_node6"><a xlink:href="dir_f498004299f8484a07de79a6be8d1f27.html" target="_top" xlink:title="app_config">
<polygon fill="none" stroke="black" points="243.5,-108 174.5,-108 174.5,-72 243.5,-72 243.5,-108"/>
<text text-anchor="middle" x="209" y="-87.5" font-family="Helvetica,sans-Serif" font-size="10.00">app_config</text>
</a>
</g>
</g>
<!-- dir_d5ab540a0f1a46eeb09591e85a946aef&#45;&gt;dir_f498004299f8484a07de79a6be8d1f27 -->
<g id="edge8" class="edge">
<title>dir_d5ab540a0f1a46eeb09591e85a946aef&#45;&gt;dir_f498004299f8484a07de79a6be8d1f27</title>
<path fill="none" stroke="black" d="M153.6,-215.87C164.43,-191.46 184.41,-146.43 197.18,-117.64"/>
<polygon fill="black" stroke="black" points="200.52,-118.75 201.37,-108.19 194.12,-115.91 200.52,-118.75"/>
<g id="a_edge8&#45;headlabel"><a xlink:href="dir_000010_000000.html" target="_top" xlink:title="2">
<text text-anchor="middle" x="201.66" y="-120.69" font-family="Helvetica,sans-Serif" font-size="10.00">2</text>
</a>
</g>
</g>
<!-- dir_7f852cf003bf0a82b92f7cba237f50d9&#45;&gt;dir_caef551bd632be6ebe9ef36c30380f1c -->
<g id="edge3" class="edge">
<title>dir_7f852cf003bf0a82b92f7cba237f50d9&#45;&gt;dir_caef551bd632be6ebe9ef36c30380f1c</title>
<path fill="none" stroke="black" d="M61.51,-71.7C72.46,-62.88 85.95,-52.03 97.82,-42.47"/>
<polygon fill="black" stroke="black" points="100.14,-45.1 105.74,-36.1 95.76,-39.65 100.14,-45.1"/>
<g id="a_edge3&#45;headlabel"><a xlink:href="dir_000053_000017.html" target="_top" xlink:title="2">
<text text-anchor="middle" x="99.12" y="-47.07" font-family="Helvetica,sans-Serif" font-size="10.00">2</text>
</a>
</g>
</g>
<!-- dir_98438063e3988470581efef61b04cf9b&#45;&gt;dir_caef551bd632be6ebe9ef36c30380f1c -->
<g id="edge9" class="edge">
<title>dir_98438063e3988470581efef61b04cf9b&#45;&gt;dir_caef551bd632be6ebe9ef36c30380f1c</title>
<path fill="none" stroke="black" d="M253.27,-143.68C260.07,-124.49 267.24,-93.43 253,-72 234.68,-44.41 198.89,-31.15 170.12,-24.8"/>
<polygon fill="black" stroke="black" points="170.77,-21.36 160.28,-22.83 169.4,-28.22 170.77,-21.36"/>
<g id="a_edge9&#45;headlabel"><a xlink:href="dir_000011_000017.html" target="_top" xlink:title="2">
<text text-anchor="middle" x="174.86" y="-16.78" font-family="Helvetica,sans-Serif" font-size="10.00">2</text>
</a>
</g>
</g>
<!-- dir_98438063e3988470581efef61b04cf9b&#45;&gt;dir_f498004299f8484a07de79a6be8d1f27 -->
<g id="edge10" class="edge">
<title>dir_98438063e3988470581efef61b04cf9b&#45;&gt;dir_f498004299f8484a07de79a6be8d1f27</title>
<path fill="none" stroke="black" d="M236.85,-143.7C232.6,-135.64 227.44,-125.89 222.73,-116.98"/>
<polygon fill="black" stroke="black" points="225.81,-115.31 218.04,-108.1 219.62,-118.58 225.81,-115.31"/>
<g id="a_edge10&#45;headlabel"><a xlink:href="dir_000011_000000.html" target="_top" xlink:title="2">
<text text-anchor="middle" x="230" y="-114.66" font-family="Helvetica,sans-Serif" font-size="10.00">2</text>
</a>
</g>
</g>
<!-- dir_a79599a21c415120241a198b95c2c35d&#45;&gt;dir_7f852cf003bf0a82b92f7cba237f50d9 -->
<g id="edge1" class="edge">
<title>dir_a79599a21c415120241a198b95c2c35d&#45;&gt;dir_7f852cf003bf0a82b92f7cba237f50d9</title>
<path fill="none" stroke="black" d="M75.38,-143.7C69.86,-135.47 63.15,-125.48 57.07,-116.42"/>
<polygon fill="black" stroke="black" points="59.96,-114.46 51.48,-108.1 54.15,-118.36 59.96,-114.46"/>
<g id="a_edge1&#45;headlabel"><a xlink:href="dir_000046_000053.html" target="_top" xlink:title="7">
<text text-anchor="middle" x="64.33" y="-113.36" font-family="Helvetica,sans-Serif" font-size="10.00">7</text>
</a>
</g>
</g>
<!-- dir_a79599a21c415120241a198b95c2c35d&#45;&gt;dir_caef551bd632be6ebe9ef36c30380f1c -->
<g id="edge2" class="edge">
<title>dir_a79599a21c415120241a198b95c2c35d&#45;&gt;dir_caef551bd632be6ebe9ef36c30380f1c</title>
<path fill="none" stroke="black" d="M91.82,-143.87C98.67,-119.56 111.28,-74.82 119.39,-46.01"/>
<polygon fill="black" stroke="black" points="122.82,-46.76 122.16,-36.19 116.08,-44.87 122.82,-46.76"/>
<g id="a_edge2&#45;headlabel"><a xlink:href="dir_000046_000017.html" target="_top" xlink:title="2">
<text text-anchor="middle" x="124.57" y="-48.49" font-family="Helvetica,sans-Serif" font-size="10.00">2</text>
</a>
</g>
</g>
</g>
</svg>
