<?xml version="1.0" encoding="UTF-8" standalone="no"?>
<!DOCTYPE svg PUBLIC "-//W3C//DTD SVG 1.1//EN"
 "http://www.w3.org/Graphics/SVG/1.1/DTD/svg11.dtd">
<!-- Generated by graphviz version 2.43.0 (0)
 -->
<!-- Title: config_kvs Pages: 1 -->
<svg width="234pt" height="116pt"
 viewBox="0.00 0.00 233.50 116.00" xmlns="http://www.w3.org/2000/svg" xmlns:xlink="http://www.w3.org/1999/xlink">
<g id="graph0" class="graph" transform="scale(1 1) rotate(0) translate(4 112)">
<title>config_kvs</title>
<!-- dir_98438063e3988470581efef61b04cf9b -->
<g id="node1" class="node">
<title>dir_98438063e3988470581efef61b04cf9b</title>
<g id="a_node1"><a xlink:href="dir_98438063e3988470581efef61b04cf9b.html" target="_top" xlink:title="config_kvs">
<polygon fill="#eeeeff" stroke="black" points="139,-108 71,-108 71,-72 139,-72 139,-108"/>
<text text-anchor="middle" x="105" y="-87.5" font-family="Helvetica,sans-Serif" font-size="10.00">config_kvs</text>
</a>
</g>
</g>
<!-- dir_64366b1bc208abb5a041ce622a6ec32c -->
<g id="node2" class="node">
<title>dir_64366b1bc208abb5a041ce622a6ec32c</title>
<g id="a_node2"><a xlink:href="dir_64366b1bc208abb5a041ce622a6ec32c.html" target="_top" xlink:title="uout">
<polygon fill="none" stroke="black" points="54,-36 0,-36 0,0 54,0 54,-36"/>
<text text-anchor="middle" x="27" y="-15.5" font-family="Helvetica,sans-Serif" font-size="10.00">uout</text>
</a>
</g>
</g>
<!-- dir_98438063e3988470581efef61b04cf9b&#45;&gt;dir_64366b1bc208abb5a041ce622a6ec32c -->
<g id="edge1" class="edge">
<title>dir_98438063e3988470581efef61b04cf9b&#45;&gt;dir_64366b1bc208abb5a041ce622a6ec32c</title>
<path fill="none" stroke="black" d="M85.72,-71.7C76.08,-63.05 64.27,-52.45 53.77,-43.03"/>
<polygon fill="black" stroke="black" points="55.84,-40.18 46.06,-36.1 51.16,-45.39 55.84,-40.18"/>
<g id="a_edge1&#45;headlabel"><a xlink:href="dir_000011_000016.html" target="_top" xlink:title="1">
<text text-anchor="middle" x="60.41" y="-37.97" font-family="Helvetica,sans-Serif" font-size="10.00">1</text>
</a>
</g>
</g>
<!-- dir_caef551bd632be6ebe9ef36c30380f1c -->
<g id="node3" class="node">
<title>dir_caef551bd632be6ebe9ef36c30380f1c</title>
<g id="a_node3"><a xlink:href="dir_caef551bd632be6ebe9ef36c30380f1c.html" target="_top" xlink:title="utils_misc">
<polygon fill="none" stroke="black" points="138,-36 72,-36 72,0 138,0 138,-36"/>
<text text-anchor="middle" x="105" y="-15.5" font-family="Helvetica,sans-Serif" font-size="10.00">utils_misc</text>
</a>
</g>
</g>
<!-- dir_98438063e3988470581efef61b04cf9b&#45;&gt;dir_caef551bd632be6ebe9ef36c30380f1c -->
<g id="edge2" class="edge">
<title>dir_98438063e3988470581efef61b04cf9b&#45;&gt;dir_caef551bd632be6ebe9ef36c30380f1c</title>
<path fill="none" stroke="black" d="M105,-71.7C105,-63.98 105,-54.71 105,-46.11"/>
<polygon fill="black" stroke="black" points="108.5,-46.1 105,-36.1 101.5,-46.1 108.5,-46.1"/>
<g id="a_edge2&#45;headlabel"><a xlink:href="dir_000011_000017.html" target="_top" xlink:title="2">
<text text-anchor="middle" x="111.34" y="-47.2" font-family="Helvetica,sans-Serif" font-size="10.00">2</text>
</a>
</g>
</g>
<!-- dir_f498004299f8484a07de79a6be8d1f27 -->
<g id="node4" class="node">
<title>dir_f498004299f8484a07de79a6be8d1f27</title>
<g id="a_node4"><a xlink:href="dir_f498004299f8484a07de79a6be8d1f27.html" target="_top" xlink:title="app_config">
<polygon fill="none" stroke="black" points="225.5,-36 156.5,-36 156.5,0 225.5,0 225.5,-36"/>
<text text-anchor="middle" x="191" y="-15.5" font-family="Helvetica,sans-Serif" font-size="10.00">app_config</text>
</a>
</g>
</g>
<!-- dir_98438063e3988470581efef61b04cf9b&#45;&gt;dir_f498004299f8484a07de79a6be8d1f27 -->
<g id="edge3" class="edge">
<title>dir_98438063e3988470581efef61b04cf9b&#45;&gt;dir_f498004299f8484a07de79a6be8d1f27</title>
<path fill="none" stroke="black" d="M126.26,-71.7C137.09,-62.88 150.42,-52.03 162.16,-42.47"/>
<polygon fill="black" stroke="black" points="164.44,-45.13 169.99,-36.1 160.02,-39.7 164.44,-45.13"/>
<g id="a_edge3&#45;headlabel"><a xlink:href="dir_000011_000000.html" target="_top" xlink:title="2">
<text text-anchor="middle" x="163.44" y="-47.1" font-family="Helvetica,sans-Serif" font-size="10.00">2</text>
</a>
</g>
</g>
</g>
</svg>
