<?xml version="1.0" encoding="UTF-8" standalone="no"?>
<!DOCTYPE svg PUBLIC "-//W3C//DTD SVG 1.1//EN"
 "http://www.w3.org/Graphics/SVG/1.1/DTD/svg11.dtd">
<!-- Generated by graphviz version 2.43.0 (0)
 -->
<!-- Title: cli Pages: 1 -->
<svg width="134pt" height="116pt"
 viewBox="0.00 0.00 134.00 116.00" xmlns="http://www.w3.org/2000/svg" xmlns:xlink="http://www.w3.org/1999/xlink">
<g id="graph0" class="graph" transform="scale(1 1) rotate(0) translate(4 112)">
<title>cli</title>
<!-- dir_a51e1161a1f26633b9318a96ee2e22ff -->
<g id="node1" class="node">
<title>dir_a51e1161a1f26633b9318a96ee2e22ff</title>
<g id="a_node1"><a xlink:href="dir_a51e1161a1f26633b9318a96ee2e22ff.html" target="_top" xlink:title="cli">
<polygon fill="#eeeeff" stroke="black" points="90,-108 36,-108 36,-72 90,-72 90,-108"/>
<text text-anchor="middle" x="63" y="-87.5" font-family="Helvetica,sans-Serif" font-size="10.00">cli</text>
</a>
</g>
</g>
<!-- dir_64366b1bc208abb5a041ce622a6ec32c -->
<g id="node2" class="node">
<title>dir_64366b1bc208abb5a041ce622a6ec32c</title>
<g id="a_node2"><a xlink:href="dir_64366b1bc208abb5a041ce622a6ec32c.html" target="_top" xlink:title="uout">
<polygon fill="none" stroke="black" points="54,-36 0,-36 0,0 54,0 54,-36"/>
<text text-anchor="middle" x="27" y="-15.5" font-family="Helvetica,sans-Serif" font-size="10.00">uout</text>
</a>
</g>
</g>
<!-- dir_a51e1161a1f26633b9318a96ee2e22ff&#45;&gt;dir_64366b1bc208abb5a041ce622a6ec32c -->
<g id="edge1" class="edge">
<title>dir_a51e1161a1f26633b9318a96ee2e22ff&#45;&gt;dir_64366b1bc208abb5a041ce622a6ec32c</title>
<path fill="none" stroke="black" d="M54.1,-71.7C50,-63.73 45.05,-54.1 40.51,-45.26"/>
<polygon fill="black" stroke="black" points="43.48,-43.4 35.8,-36.1 37.26,-46.6 43.48,-43.4"/>
<g id="a_edge1&#45;headlabel"><a xlink:href="dir_000015_000016.html" target="_top" xlink:title="1">
<text text-anchor="middle" x="47.65" y="-42.79" font-family="Helvetica,sans-Serif" font-size="10.00">1</text>
</a>
</g>
</g>
<!-- dir_adba638626a146b68b50760f83514fd6 -->
<g id="node3" class="node">
<title>dir_adba638626a146b68b50760f83514fd6</title>
<g id="a_node3"><a xlink:href="dir_adba638626a146b68b50760f83514fd6.html" target="_top" xlink:title="jsmn">
<polygon fill="none" stroke="black" points="126,-36 72,-36 72,0 126,0 126,-36"/>
<text text-anchor="middle" x="99" y="-15.5" font-family="Helvetica,sans-Serif" font-size="10.00">jsmn</text>
</a>
</g>
</g>
<!-- dir_a51e1161a1f26633b9318a96ee2e22ff&#45;&gt;dir_adba638626a146b68b50760f83514fd6 -->
<g id="edge2" class="edge">
<title>dir_a51e1161a1f26633b9318a96ee2e22ff&#45;&gt;dir_adba638626a146b68b50760f83514fd6</title>
<path fill="none" stroke="black" d="M71.9,-71.7C76,-63.73 80.95,-54.1 85.49,-45.26"/>
<polygon fill="black" stroke="black" points="88.74,-46.6 90.2,-36.1 82.52,-43.4 88.74,-46.6"/>
<g id="a_edge2&#45;headlabel"><a xlink:href="dir_000015_000038.html" target="_top" xlink:title="1">
<text text-anchor="middle" x="89.62" y="-48.59" font-family="Helvetica,sans-Serif" font-size="10.00">1</text>
</a>
</g>
</g>
</g>
</svg>
