<?xml version="1.0" encoding="UTF-8" standalone="no"?>
<!DOCTYPE svg PUBLIC "-//W3C//DTD SVG 1.1//EN"
 "http://www.w3.org/Graphics/SVG/1.1/DTD/svg11.dtd">
<!-- Generated by graphviz version 2.43.0 (0)
 -->
<!-- Title: app_misc Pages: 1 -->
<svg width="160pt" height="116pt"
 viewBox="0.00 0.00 160.00 116.00" xmlns="http://www.w3.org/2000/svg" xmlns:xlink="http://www.w3.org/1999/xlink">
<g id="graph0" class="graph" transform="scale(1 1) rotate(0) translate(4 112)">
<title>app_misc</title>
<!-- dir_b9adbb3171c591c46f51831e245221b7 -->
<g id="node1" class="node">
<title>dir_b9adbb3171c591c46f51831e245221b7</title>
<g id="a_node1"><a xlink:href="dir_b9adbb3171c591c46f51831e245221b7.html" target="_top" xlink:title="app_misc">
<polygon fill="#eeeeff" stroke="black" points="106,-108 43,-108 43,-72 106,-72 106,-108"/>
<text text-anchor="middle" x="74.5" y="-87.5" font-family="Helvetica,sans-Serif" font-size="10.00">app_misc</text>
</a>
</g>
</g>
<!-- dir_df3a3baa47788f0e1a7cdb113c05bc01 -->
<g id="node2" class="node">
<title>dir_df3a3baa47788f0e1a7cdb113c05bc01</title>
<g id="a_node2"><a xlink:href="dir_df3a3baa47788f0e1a7cdb113c05bc01.html" target="_top" xlink:title="utils_time">
<polygon fill="none" stroke="black" points="65,-36 0,-36 0,0 65,0 65,-36"/>
<text text-anchor="middle" x="32.5" y="-15.5" font-family="Helvetica,sans-Serif" font-size="10.00">utils_time</text>
</a>
</g>
</g>
<!-- dir_b9adbb3171c591c46f51831e245221b7&#45;&gt;dir_df3a3baa47788f0e1a7cdb113c05bc01 -->
<g id="edge1" class="edge">
<title>dir_b9adbb3171c591c46f51831e245221b7&#45;&gt;dir_df3a3baa47788f0e1a7cdb113c05bc01</title>
<path fill="none" stroke="black" d="M64.12,-71.7C59.24,-63.56 53.31,-53.69 47.92,-44.7"/>
<polygon fill="black" stroke="black" points="50.91,-42.88 42.76,-36.1 44.91,-46.48 50.91,-42.88"/>
<g id="a_edge1&#45;headlabel"><a xlink:href="dir_000008_000058.html" target="_top" xlink:title="1">
<text text-anchor="middle" x="55.19" y="-42" font-family="Helvetica,sans-Serif" font-size="10.00">1</text>
</a>
</g>
</g>
<!-- dir_f498004299f8484a07de79a6be8d1f27 -->
<g id="node3" class="node">
<title>dir_f498004299f8484a07de79a6be8d1f27</title>
<g id="a_node3"><a xlink:href="dir_f498004299f8484a07de79a6be8d1f27.html" target="_top" xlink:title="app_config">
<polygon fill="none" stroke="black" points="152,-36 83,-36 83,0 152,0 152,-36"/>
<text text-anchor="middle" x="117.5" y="-15.5" font-family="Helvetica,sans-Serif" font-size="10.00">app_config</text>
</a>
</g>
</g>
<!-- dir_b9adbb3171c591c46f51831e245221b7&#45;&gt;dir_f498004299f8484a07de79a6be8d1f27 -->
<g id="edge2" class="edge">
<title>dir_b9adbb3171c591c46f51831e245221b7&#45;&gt;dir_f498004299f8484a07de79a6be8d1f27</title>
<path fill="none" stroke="black" d="M85.13,-71.7C90.13,-63.56 96.19,-53.69 101.71,-44.7"/>
<polygon fill="black" stroke="black" points="104.74,-46.46 106.99,-36.1 98.78,-42.79 104.74,-46.46"/>
<g id="a_edge2&#45;headlabel"><a xlink:href="dir_000008_000000.html" target="_top" xlink:title="1">
<text text-anchor="middle" x="105.28" y="-48.51" font-family="Helvetica,sans-Serif" font-size="10.00">1</text>
</a>
</g>
</g>
</g>
</svg>
