<?xml version="1.0" encoding="UTF-8" standalone="no"?>
<!DOCTYPE svg PUBLIC "-//W3C//DTD SVG 1.1//EN"
 "http://www.w3.org/Graphics/SVG/1.1/DTD/svg11.dtd">
<!-- Generated by graphviz version 2.43.0 (0)
 -->
<!-- Title: fernotron_trx Pages: 1 -->
<svg width="196pt" height="204pt"
 viewBox="0.00 0.00 196.00 204.00" xmlns="http://www.w3.org/2000/svg" xmlns:xlink="http://www.w3.org/1999/xlink">
<g id="graph0" class="graph" transform="scale(1 1) rotate(0) translate(4 200)">
<title>fernotron_trx</title>
<g id="clust1" class="cluster">
<title>clusterdir_7f852cf003bf0a82b92f7cba237f50d9</title>
<g id="a_clust1"><a xlink:href="dir_7f852cf003bf0a82b92f7cba237f50d9.html" target="_top">
<polygon fill="#eeeeff" stroke="black" points="8,-64 8,-188 180,-188 180,-64 8,-64"/>
</a>
</g>
</g>
<!-- dir_7f852cf003bf0a82b92f7cba237f50d9 -->
<g id="node1" class="node">
<title>dir_7f852cf003bf0a82b92f7cba237f50d9</title>
<text text-anchor="middle" x="132" y="-159.5" font-family="Helvetica,sans-Serif" font-size="10.00">fernotron_trx</text>
</g>
<!-- dir_eef5bab3cf3c9806bfc62cec3998283d -->
<g id="node2" class="node">
<title>dir_eef5bab3cf3c9806bfc62cec3998283d</title>
<g id="a_node2"><a xlink:href="dir_eef5bab3cf3c9806bfc62cec3998283d.html" target="_top" xlink:title="raw">
<polygon fill="white" stroke="black" points="72,-108 18,-108 18,-72 72,-72 72,-108"/>
<text text-anchor="middle" x="45" y="-87.5" font-family="Helvetica,sans-Serif" font-size="10.00">raw</text>
</a>
</g>
</g>
<!-- dir_caef551bd632be6ebe9ef36c30380f1c -->
<g id="node4" class="node">
<title>dir_caef551bd632be6ebe9ef36c30380f1c</title>
<g id="a_node4"><a xlink:href="dir_caef551bd632be6ebe9ef36c30380f1c.html" target="_top" xlink:title="utils_misc">
<polygon fill="none" stroke="black" points="78,-36 12,-36 12,0 78,0 78,-36"/>
<text text-anchor="middle" x="45" y="-15.5" font-family="Helvetica,sans-Serif" font-size="10.00">utils_misc</text>
</a>
</g>
</g>
<!-- dir_eef5bab3cf3c9806bfc62cec3998283d&#45;&gt;dir_caef551bd632be6ebe9ef36c30380f1c -->
<g id="edge1" class="edge">
<title>dir_eef5bab3cf3c9806bfc62cec3998283d&#45;&gt;dir_caef551bd632be6ebe9ef36c30380f1c</title>
<path fill="none" stroke="black" d="M45,-71.7C45,-63.98 45,-54.71 45,-46.11"/>
<polygon fill="black" stroke="black" points="48.5,-46.1 45,-36.1 41.5,-46.1 48.5,-46.1"/>
<g id="a_edge1&#45;headlabel"><a xlink:href="dir_000054_000017.html" target="_top" xlink:title="2">
<text text-anchor="middle" x="51.34" y="-47.2" font-family="Helvetica,sans-Serif" font-size="10.00">2</text>
</a>
</g>
</g>
<!-- dir_d596331ba7e4ebdeb83119a881eda5df -->
<g id="node3" class="node">
<title>dir_d596331ba7e4ebdeb83119a881eda5df</title>
<g id="a_node3"><a xlink:href="dir_d596331ba7e4ebdeb83119a881eda5df.html" target="_top" xlink:title="repeater">
<polygon fill="white" stroke="black" points="74,-180 16,-180 16,-144 74,-144 74,-180"/>
<text text-anchor="middle" x="45" y="-159.5" font-family="Helvetica,sans-Serif" font-size="10.00">repeater</text>
</a>
</g>
</g>
<!-- dir_d596331ba7e4ebdeb83119a881eda5df&#45;&gt;dir_eef5bab3cf3c9806bfc62cec3998283d -->
<g id="edge2" class="edge">
<title>dir_d596331ba7e4ebdeb83119a881eda5df&#45;&gt;dir_eef5bab3cf3c9806bfc62cec3998283d</title>
<path fill="none" stroke="black" d="M45,-143.7C45,-135.98 45,-126.71 45,-118.11"/>
<polygon fill="black" stroke="black" points="48.5,-118.1 45,-108.1 41.5,-118.1 48.5,-118.1"/>
<g id="a_edge2&#45;headlabel"><a xlink:href="dir_000055_000054.html" target="_top" xlink:title="1">
<text text-anchor="middle" x="51.34" y="-119.2" font-family="Helvetica,sans-Serif" font-size="10.00">1</text>
</a>
</g>
</g>
</g>
</svg>
