<?xml version="1.0" encoding="UTF-8" standalone="no"?>
<!DOCTYPE svg PUBLIC "-//W3C//DTD SVG 1.1//EN"
 "http://www.w3.org/Graphics/SVG/1.1/DTD/svg11.dtd">
<!-- Generated by graphviz version 2.43.0 (0)
 -->
<!-- Title: fernotron Pages: 1 -->
<!--zoomable 204 -->
<svg id="main" version="1.1" xmlns="http://www.w3.org/2000/svg" xmlns:xlink="http://www.w3.org/1999/xlink" xml:space="preserve" onload="init(evt)">
<style type="text/css"><![CDATA[
.edge:hover path { stroke: red; }
.edge:hover polygon { stroke: red; fill: red; }
]]></style>
<script type="text/javascript"><![CDATA[
var edges = document.getElementsByTagName('g');
if (edges && edges.length) {
  for (var i=0;i<edges.length;i++) {
    if (edges[i].id.substr(0,4)=='edge') {
      edges[i].setAttribute('class','edge');
    }
  }
}
]]></script>
        <defs>
                <circle id="rim" cx="0" cy="0" r="7"/>
                <circle id="rim2" cx="0" cy="0" r="3.5"/>
                <g id="zoomPlus">
                        <use xlink:href="#rim" fill="#404040">
                                <set attributeName="fill" to="#808080" begin="zoomplus.mouseover" end="zoomplus.mouseout"/>
                        </use>
                        <path d="M-4,0h8M0,-4v8" fill="none" stroke="white" stroke-width="1.5" pointer-events="none"/>
                </g>
                <g id="zoomMin">
                        <use xlink:href="#rim" fill="#404040">
                                <set attributeName="fill" to="#808080" begin="zoomminus.mouseover" end="zoomminus.mouseout"/>
                        </use>
                        <path d="M-4,0h8" fill="none" stroke="white" stroke-width="1.5" pointer-events="none"/>
                </g>
                <g id="dirArrow">
                        <path fill="none" stroke="white" stroke-width="1.5" d="M0,-3.0v7 M-2.5,-0.5L0,-3.0L2.5,-0.5"/>
                </g>
               <g id="resetDef">
                       <use xlink:href="#rim2" fill="#404040">
                               <set attributeName="fill" to="#808080" begin="reset.mouseover" end="reset.mouseout"/>
                       </use>
               </g>
        </defs>

<script type="text/javascript">
var viewWidth = 534;
var viewHeight = 204;
var sectionId = 'dynsection-0';
</script>
<script xlink:href="svgpan.js"/>
<svg id="graph" class="graph">
<g id="viewport">
<title>fernotron</title>
<g id="clust1" class="cluster">
<title>clusterdir_a79599a21c415120241a198b95c2c35d</title>
<g id="a_clust1"><a xlink:href="dir_a79599a21c415120241a198b95c2c35d.html" target="_top">
<polygon fill="#eeeeff" stroke="black" points="8,-136 8,-188 518,-188 518,-136 8,-136"/>
</a>
</g>
</g>
<!-- dir_a79599a21c415120241a198b95c2c35d -->
<g id="node1" class="node">
<title>dir_a79599a21c415120241a198b95c2c35d</title>
<text text-anchor="middle" x="47" y="-159.5" font-family="Helvetica,sans-Serif" font-size="10.00">fernotron</text>
</g>
<!-- dir_caef551bd632be6ebe9ef36c30380f1c -->
<g id="node9" class="node">
<title>dir_caef551bd632be6ebe9ef36c30380f1c</title>
<g id="a_node9"><a xlink:href="dir_caef551bd632be6ebe9ef36c30380f1c.html" target="_top" xlink:title="utils_misc">
<polygon fill="none" stroke="black" points="154,-36 88,-36 88,0 154,0 154,-36"/>
<text text-anchor="middle" x="121" y="-15.5" font-family="Helvetica,sans-Serif" font-size="10.00">utils_misc</text>
</a>
</g>
</g>
<!-- dir_a79599a21c415120241a198b95c2c35d&#45;&gt;dir_caef551bd632be6ebe9ef36c30380f1c -->
<g id="edge1" class="edge">
<title>dir_a79599a21c415120241a198b95c2c35d&#45;&gt;dir_caef551bd632be6ebe9ef36c30380f1c</title>
<path fill="none" stroke="black" d="M55.93,-143.87C68.7,-119.35 92.32,-74.03 107.32,-45.26"/>
<polygon fill="black" stroke="black" points="110.52,-46.67 112.04,-36.19 104.32,-43.44 110.52,-46.67"/>
<g id="a_edge1&#45;headlabel"><a xlink:href="dir_000046_000017.html" target="_top" xlink:title="2">
<text text-anchor="middle" x="111.38" y="-48.67" font-family="Helvetica,sans-Serif" font-size="10.00">2</text>
</a>
</g>
</g>
<!-- dir_464fa7da672f3c2983eb1f2f00558baf -->
<g id="node2" class="node">
<title>dir_464fa7da672f3c2983eb1f2f00558baf</title>
<g id="a_node2"><a xlink:href="dir_464fa7da672f3c2983eb1f2f00558baf.html" target="_top" xlink:title="alias">
<polygon fill="white" stroke="black" points="438,-180 384,-180 384,-144 438,-144 438,-180"/>
<text text-anchor="middle" x="411" y="-159.5" font-family="Helvetica,sans-Serif" font-size="10.00">alias</text>
</a>
</g>
</g>
<!-- dir_e8a34b863fa7e0e75079e520e02a15f9 -->
<g id="node3" class="node">
<title>dir_e8a34b863fa7e0e75079e520e02a15f9</title>
<g id="a_node3"><a xlink:href="dir_e8a34b863fa7e0e75079e520e02a15f9.html" target="_top" xlink:title="auto">
<polygon fill="white" stroke="black" points="150,-180 96,-180 96,-144 150,-144 150,-180"/>
<text text-anchor="middle" x="123" y="-159.5" font-family="Helvetica,sans-Serif" font-size="10.00">auto</text>
</a>
</g>
</g>
<!-- dir_7f852cf003bf0a82b92f7cba237f50d9 -->
<g id="node8" class="node">
<title>dir_7f852cf003bf0a82b92f7cba237f50d9</title>
<g id="a_node8"><a xlink:href="dir_7f852cf003bf0a82b92f7cba237f50d9.html" target="_top" xlink:title="fernotron_trx">
<polygon fill="none" stroke="red" points="235,-108 155,-108 155,-72 235,-72 235,-108"/>
<text text-anchor="middle" x="195" y="-87.5" font-family="Helvetica,sans-Serif" font-size="10.00">fernotron_trx</text>
</a>
</g>
</g>
<!-- dir_e8a34b863fa7e0e75079e520e02a15f9&#45;&gt;dir_7f852cf003bf0a82b92f7cba237f50d9 -->
<g id="edge4" class="edge">
<title>dir_e8a34b863fa7e0e75079e520e02a15f9&#45;&gt;dir_7f852cf003bf0a82b92f7cba237f50d9</title>
<path fill="none" stroke="black" d="M140.8,-143.7C149.6,-135.14 160.38,-124.66 170,-115.3"/>
<polygon fill="black" stroke="black" points="172.68,-117.58 177.41,-108.1 167.8,-112.57 172.68,-117.58"/>
<g id="a_edge4&#45;headlabel"><a xlink:href="dir_000048_000053.html" target="_top" xlink:title="2">
<text text-anchor="middle" x="172.08" y="-119.63" font-family="Helvetica,sans-Serif" font-size="10.00">2</text>
</a>
</g>
</g>
<!-- dir_e359c05d483b0c1489cc230aa0141ada -->
<g id="node4" class="node">
<title>dir_e359c05d483b0c1489cc230aa0141ada</title>
<g id="a_node4"><a xlink:href="dir_e359c05d483b0c1489cc230aa0141ada.html" target="_top" xlink:title="cuas">
<polygon fill="white" stroke="black" points="294,-180 240,-180 240,-144 294,-144 294,-180"/>
<text text-anchor="middle" x="267" y="-159.5" font-family="Helvetica,sans-Serif" font-size="10.00">cuas</text>
</a>
</g>
</g>
<!-- dir_dfe4dd123c73ded3d956553b16783fb4 -->
<g id="node5" class="node">
<title>dir_dfe4dd123c73ded3d956553b16783fb4</title>
<g id="a_node5"><a xlink:href="dir_dfe4dd123c73ded3d956553b16783fb4.html" target="_top" xlink:title="pos">
<polygon fill="white" stroke="black" points="510,-180 456,-180 456,-144 510,-144 510,-180"/>
<text text-anchor="middle" x="483" y="-159.5" font-family="Helvetica,sans-Serif" font-size="10.00">pos</text>
</a>
</g>
</g>
<!-- dir_dfe4dd123c73ded3d956553b16783fb4&#45;&gt;dir_7f852cf003bf0a82b92f7cba237f50d9 -->
<g id="edge3" class="edge">
<title>dir_dfe4dd123c73ded3d956553b16783fb4&#45;&gt;dir_7f852cf003bf0a82b92f7cba237f50d9</title>
<path fill="none" stroke="black" d="M461.4,-143.81C456.85,-140.83 451.92,-138.03 447,-136 380.58,-108.55 297.51,-97.83 245.34,-93.65"/>
<polygon fill="black" stroke="black" points="245.56,-90.15 235.33,-92.9 245.04,-97.13 245.56,-90.15"/>
<g id="a_edge3&#45;headlabel"><a xlink:href="dir_000050_000053.html" target="_top" xlink:title="2">
<text text-anchor="middle" x="249.36" y="-85.09" font-family="Helvetica,sans-Serif" font-size="10.00">2</text>
</a>
</g>
</g>
<!-- dir_cf9303cd1c1130f4652b4d2e757dcdfe -->
<g id="node6" class="node">
<title>dir_cf9303cd1c1130f4652b4d2e757dcdfe</title>
<g id="a_node6"><a xlink:href="dir_cf9303cd1c1130f4652b4d2e757dcdfe.html" target="_top" xlink:title="sep">
<polygon fill="white" stroke="black" points="366,-180 312,-180 312,-144 366,-144 366,-180"/>
<text text-anchor="middle" x="339" y="-159.5" font-family="Helvetica,sans-Serif" font-size="10.00">sep</text>
</a>
</g>
</g>
<!-- dir_cf9303cd1c1130f4652b4d2e757dcdfe&#45;&gt;dir_7f852cf003bf0a82b92f7cba237f50d9 -->
<g id="edge5" class="edge">
<title>dir_cf9303cd1c1130f4652b4d2e757dcdfe&#45;&gt;dir_7f852cf003bf0a82b92f7cba237f50d9</title>
<path fill="none" stroke="black" d="M315.83,-143.85C311.66,-141.07 307.27,-138.34 303,-136 284.57,-125.91 263.39,-116.62 244.7,-109.14"/>
<polygon fill="black" stroke="black" points="245.77,-105.8 235.18,-105.4 243.21,-112.31 245.77,-105.8"/>
<g id="a_edge5&#45;headlabel"><a xlink:href="dir_000051_000053.html" target="_top" xlink:title="1">
<text text-anchor="middle" x="250.15" y="-101.97" font-family="Helvetica,sans-Serif" font-size="10.00">1</text>
</a>
</g>
</g>
<!-- dir_39c70edb99bbad105dde7580ad4a434e -->
<g id="node7" class="node">
<title>dir_39c70edb99bbad105dde7580ad4a434e</title>
<g id="a_node7"><a xlink:href="dir_39c70edb99bbad105dde7580ad4a434e.html" target="_top" xlink:title="txtio">
<polygon fill="white" stroke="black" points="222,-180 168,-180 168,-144 222,-144 222,-180"/>
<text text-anchor="middle" x="195" y="-159.5" font-family="Helvetica,sans-Serif" font-size="10.00">txtio</text>
</a>
</g>
</g>
<!-- dir_39c70edb99bbad105dde7580ad4a434e&#45;&gt;dir_7f852cf003bf0a82b92f7cba237f50d9 -->
<g id="edge6" class="edge">
<title>dir_39c70edb99bbad105dde7580ad4a434e&#45;&gt;dir_7f852cf003bf0a82b92f7cba237f50d9</title>
<path fill="none" stroke="black" d="M195,-143.7C195,-135.98 195,-126.71 195,-118.11"/>
<polygon fill="black" stroke="black" points="198.5,-118.1 195,-108.1 191.5,-118.1 198.5,-118.1"/>
<g id="a_edge6&#45;headlabel"><a xlink:href="dir_000052_000053.html" target="_top" xlink:title="2">
<text text-anchor="middle" x="201.34" y="-119.2" font-family="Helvetica,sans-Serif" font-size="10.00">2</text>
</a>
</g>
</g>
<!-- dir_7f852cf003bf0a82b92f7cba237f50d9&#45;&gt;dir_caef551bd632be6ebe9ef36c30380f1c -->
<g id="edge2" class="edge">
<title>dir_7f852cf003bf0a82b92f7cba237f50d9&#45;&gt;dir_caef551bd632be6ebe9ef36c30380f1c</title>
<path fill="none" stroke="black" d="M176.71,-71.7C167.57,-63.05 156.36,-52.45 146.4,-43.03"/>
<polygon fill="black" stroke="black" points="148.75,-40.43 139.08,-36.1 143.94,-45.52 148.75,-40.43"/>
<g id="a_edge2&#45;headlabel"><a xlink:href="dir_000053_000017.html" target="_top" xlink:title="2">
<text text-anchor="middle" x="153.31" y="-38.34" font-family="Helvetica,sans-Serif" font-size="10.00">2</text>
</a>
</g>
</g>
</g>
</svg>
        <g id="navigator" transform="translate(0 0)" fill="#404254">
                <rect fill="#f2f5e9" fill-opacity="0.5" stroke="#606060" stroke-width=".5" x="0" y="0" width="60" height="60"/>
                <use id="zoomplus" xlink:href="#zoomPlus" x="17" y="9" onmousedown="handleZoom(evt,'in')"/>
                <use id="zoomminus" xlink:href="#zoomMin" x="42" y="9" onmousedown="handleZoom(evt,'out')"/>
                <use id="reset" xlink:href="#resetDef" x="30" y="36" onmousedown="handleReset()"/>
                <g id="arrowUp" xlink:href="#dirArrow" transform="translate(30 24)" onmousedown="handlePan(0,-1)">
                  <use xlink:href="#rim" fill="#404040">
                        <set attributeName="fill" to="#808080" begin="arrowUp.mouseover" end="arrowUp.mouseout"/>
                  </use>
                  <path fill="none" stroke="white" stroke-width="1.5" d="M0,-3.0v7 M-2.5,-0.5L0,-3.0L2.5,-0.5"/>
                </g>
                <g id="arrowRight" xlink:href="#dirArrow" transform="rotate(90) translate(36 -43)" onmousedown="handlePan(1,0)">
                  <use xlink:href="#rim" fill="#404040">
                        <set attributeName="fill" to="#808080" begin="arrowRight.mouseover" end="arrowRight.mouseout"/>
                  </use>
                  <path fill="none" stroke="white" stroke-width="1.5" d="M0,-3.0v7 M-2.5,-0.5L0,-3.0L2.5,-0.5"/>
                </g>
                <g id="arrowDown" xlink:href="#dirArrow" transform="rotate(180) translate(-30 -48)" onmousedown="handlePan(0,1)">
                  <use xlink:href="#rim" fill="#404040">
                        <set attributeName="fill" to="#808080" begin="arrowDown.mouseover" end="arrowDown.mouseout"/>
                  </use>
                  <path fill="none" stroke="white" stroke-width="1.5" d="M0,-3.0v7 M-2.5,-0.5L0,-3.0L2.5,-0.5"/>
                </g>
                <g id="arrowLeft" xlink:href="#dirArrow" transform="rotate(270) translate(-36 17)" onmousedown="handlePan(-1,0)">
                  <use xlink:href="#rim" fill="#404040">
                        <set attributeName="fill" to="#808080" begin="arrowLeft.mouseover" end="arrowLeft.mouseout"/>
                  </use>
                  <path fill="none" stroke="white" stroke-width="1.5" d="M0,-3.0v7 M-2.5,-0.5L0,-3.0L2.5,-0.5"/>
                </g>
        </g>
        <svg viewBox="0 0 15 15" width="100%" height="30px" preserveAspectRatio="xMaxYMin meet">
         <g id="arrow_out" transform="scale(0.3 0.3)">
          <a xlink:href="dir_a79599a21c415120241a198b95c2c35d_dep_org.svg" target="_base">
           <rect id="button" ry="5" rx="5" y="6" x="6" height="38" width="38"
                fill="#f2f5e9" fill-opacity="0.5" stroke="#606060" stroke-width="1.0"/>
           <path id="arrow"
             d="M 11.500037,31.436501 C 11.940474,20.09759 22.043105,11.32322 32.158766,21.979434 L 37.068811,17.246167 C 37.068811,17.246167 37.088388,32 37.088388,32 L 22.160133,31.978069 C 22.160133,31.978069 26.997745,27.140456 26.997745,27.140456 C 18.528582,18.264221 13.291696,25.230495 11.500037,31.436501 z"
             style="fill:#404040;"/>
          </a>
         </g>
        </svg>
</svg>
