<?xml version="1.0" encoding="UTF-8" standalone="no"?>
<!DOCTYPE svg PUBLIC "-//W3C//DTD SVG 1.1//EN"
 "http://www.w3.org/Graphics/SVG/1.1/DTD/svg11.dtd">
<!-- Generated by graphviz version 2.43.0 (0)
 -->
<!-- Title: app_uout Pages: 1 -->
<svg width="120pt" height="188pt"
 viewBox="0.00 0.00 119.50 188.00" xmlns="http://www.w3.org/2000/svg" xmlns:xlink="http://www.w3.org/1999/xlink">
<g id="graph0" class="graph" transform="scale(1 1) rotate(0) translate(4 184)">
<title>app_uout</title>
<!-- dir_76bd210cce74f132ce36c31e6fb4a7a3 -->
<g id="node1" class="node">
<title>dir_76bd210cce74f132ce36c31e6fb4a7a3</title>
<g id="a_node1"><a xlink:href="dir_76bd210cce74f132ce36c31e6fb4a7a3.html" target="_top" xlink:title="app_uout">
<polygon fill="#eeeeff" stroke="black" points="111.5,-180 49.5,-180 49.5,-144 111.5,-144 111.5,-180"/>
<text text-anchor="middle" x="80.5" y="-159.5" font-family="Helvetica,sans-Serif" font-size="10.00">app_uout</text>
</a>
</g>
</g>
<!-- dir_4e758616188876e76f8d8ff17ee7b74e -->
<g id="node2" class="node">
<title>dir_4e758616188876e76f8d8ff17ee7b74e</title>
<g id="a_node2"><a xlink:href="dir_4e758616188876e76f8d8ff17ee7b74e.html" target="_top" xlink:title="fernotron_uout">
<polygon fill="none" stroke="black" points="89,-108 0,-108 0,-72 89,-72 89,-108"/>
<text text-anchor="middle" x="44.5" y="-87.5" font-family="Helvetica,sans-Serif" font-size="10.00">fernotron_uout</text>
</a>
</g>
</g>
<!-- dir_76bd210cce74f132ce36c31e6fb4a7a3&#45;&gt;dir_4e758616188876e76f8d8ff17ee7b74e -->
<g id="edge1" class="edge">
<title>dir_76bd210cce74f132ce36c31e6fb4a7a3&#45;&gt;dir_4e758616188876e76f8d8ff17ee7b74e</title>
<path fill="none" stroke="black" d="M71.6,-143.7C67.5,-135.73 62.55,-126.1 58.01,-117.26"/>
<polygon fill="black" stroke="black" points="60.98,-115.4 53.3,-108.1 54.76,-118.6 60.98,-115.4"/>
<g id="a_edge1&#45;headlabel"><a xlink:href="dir_000012_000013.html" target="_top" xlink:title="1">
<text text-anchor="middle" x="65.15" y="-114.79" font-family="Helvetica,sans-Serif" font-size="10.00">1</text>
</a>
</g>
</g>
<!-- dir_64366b1bc208abb5a041ce622a6ec32c -->
<g id="node3" class="node">
<title>dir_64366b1bc208abb5a041ce622a6ec32c</title>
<g id="a_node3"><a xlink:href="dir_64366b1bc208abb5a041ce622a6ec32c.html" target="_top" xlink:title="uout">
<polygon fill="none" stroke="black" points="107.5,-36 53.5,-36 53.5,0 107.5,0 107.5,-36"/>
<text text-anchor="middle" x="80.5" y="-15.5" font-family="Helvetica,sans-Serif" font-size="10.00">uout</text>
</a>
</g>
</g>
<!-- dir_76bd210cce74f132ce36c31e6fb4a7a3&#45;&gt;dir_64366b1bc208abb5a041ce622a6ec32c -->
<g id="edge2" class="edge">
<title>dir_76bd210cce74f132ce36c31e6fb4a7a3&#45;&gt;dir_64366b1bc208abb5a041ce622a6ec32c</title>
<path fill="none" stroke="black" d="M87.57,-143.67C91.34,-133.47 95.59,-120.22 97.5,-108 99.97,-92.19 99.97,-87.81 97.5,-72 96.14,-63.31 93.6,-54.1 90.89,-45.84"/>
<polygon fill="black" stroke="black" points="94.17,-44.62 87.57,-36.33 87.56,-46.93 94.17,-44.62"/>
<g id="a_edge2&#45;headlabel"><a xlink:href="dir_000012_000016.html" target="_top" xlink:title="2">
<text text-anchor="middle" x="98.04" y="-44.58" font-family="Helvetica,sans-Serif" font-size="10.00">2</text>
</a>
</g>
</g>
<!-- dir_4e758616188876e76f8d8ff17ee7b74e&#45;&gt;dir_64366b1bc208abb5a041ce622a6ec32c -->
<g id="edge3" class="edge">
<title>dir_4e758616188876e76f8d8ff17ee7b74e&#45;&gt;dir_64366b1bc208abb5a041ce622a6ec32c</title>
<path fill="none" stroke="black" d="M53.4,-71.7C57.5,-63.73 62.45,-54.1 66.99,-45.26"/>
<polygon fill="black" stroke="black" points="70.24,-46.6 71.7,-36.1 64.02,-43.4 70.24,-46.6"/>
<g id="a_edge3&#45;headlabel"><a xlink:href="dir_000013_000016.html" target="_top" xlink:title="1">
<text text-anchor="middle" x="71.12" y="-48.59" font-family="Helvetica,sans-Serif" font-size="10.00">1</text>
</a>
</g>
</g>
</g>
</svg>
