<?xml version="1.0" encoding="UTF-8" standalone="no"?>
<!DOCTYPE svg PUBLIC "-//W3C//DTD SVG 1.1//EN"
 "http://www.w3.org/Graphics/SVG/1.1/DTD/svg11.dtd">
<!-- Generated by graphviz version 2.43.0 (0)
 -->
<!-- Title: config_kvs/config.h Pages: 1 -->
<svg width="437pt" height="330pt"
 viewBox="0.00 0.00 437.00 330.00" xmlns="http://www.w3.org/2000/svg" xmlns:xlink="http://www.w3.org/1999/xlink">
<g id="graph0" class="graph" transform="scale(1 1) rotate(0) translate(4 326)">
<title>config_kvs/config.h</title>
<!-- Node1 -->
<g id="node1" class="node">
<title>Node1</title>
<g id="a_node1"><a xlink:title=" ">
<polygon fill="#bfbfbf" stroke="black" points="120,-302.5 120,-321.5 230,-321.5 230,-302.5 120,-302.5"/>
<text text-anchor="middle" x="175" y="-309.5" font-family="Helvetica,sans-Serif" font-size="10.00">config_kvs/config.h</text>
</a>
</g>
</g>
<!-- Node2 -->
<g id="node2" class="node">
<title>Node2</title>
<g id="a_node2"><a xlink:href="app__register__settings_8hh.html" target="_top" xlink:title="Settings for application components.">
<polygon fill="none" stroke="black" points="265.5,-0.5 265.5,-30.5 408.5,-30.5 408.5,-0.5 265.5,-0.5"/>
<text text-anchor="start" x="273.5" y="-18.5" font-family="Helvetica,sans-Serif" font-size="10.00">app_settings/app_register</text>
<text text-anchor="middle" x="337" y="-7.5" font-family="Helvetica,sans-Serif" font-size="10.00">_settings.hh</text>
</a>
</g>
</g>
<!-- Node1&#45;&gt;Node2 -->
<g id="edge1" class="edge">
<title>Node1&#45;&gt;Node2</title>
<path fill="none" stroke="midnightblue" d="M240.47,-308.65C315.72,-302.03 429,-278.32 429,-195.5 429,-195.5 429,-195.5 429,-132 429,-87.39 386.5,-50.07 359.27,-30.73"/>
<polygon fill="midnightblue" stroke="midnightblue" points="239.8,-305.19 230.11,-309.47 240.36,-312.17 239.8,-305.19"/>
</g>
<!-- Node3 -->
<g id="node3" class="node">
<title>Node3</title>
<g id="a_node3"><a xlink:href="components_2tronferno_2app__settings_2include_2app__settings_2config_8h.html" target="_top" xlink:title="Application settings.">
<polygon fill="none" stroke="black" points="115,-185 115,-204 235,-204 235,-185 115,-185"/>
<text text-anchor="middle" x="175" y="-192" font-family="Helvetica,sans-Serif" font-size="10.00">app_settings/config.h</text>
</a>
</g>
</g>
<!-- Node1&#45;&gt;Node3 -->
<g id="edge2" class="edge">
<title>Node1&#45;&gt;Node3</title>
<path fill="none" stroke="midnightblue" d="M175,-292.16C175,-266.87 175,-222.94 175,-204.28"/>
<polygon fill="midnightblue" stroke="midnightblue" points="171.5,-292.32 175,-302.32 178.5,-292.32 171.5,-292.32"/>
</g>
<!-- Node5 -->
<g id="node5" class="node">
<title>Node5</title>
<g id="a_node5"><a xlink:href="comp__settings_8hh.html" target="_top" xlink:title="Settings for shared components.">
<polygon fill="none" stroke="black" points="84,-123.5 84,-142.5 242,-142.5 242,-123.5 84,-123.5"/>
<text text-anchor="middle" x="163" y="-130.5" font-family="Helvetica,sans-Serif" font-size="10.00">config_kvs/comp_settings.hh</text>
</a>
</g>
</g>
<!-- Node1&#45;&gt;Node5 -->
<g id="edge5" class="edge">
<title>Node1&#45;&gt;Node5</title>
<path fill="none" stroke="midnightblue" d="M159.39,-294.94C142.45,-276.3 116.43,-243.76 106,-210 101.93,-196.84 99.99,-191.4 106,-179 114.03,-162.43 131.44,-150.13 144.92,-142.61"/>
<polygon fill="midnightblue" stroke="midnightblue" points="156.85,-297.35 166.23,-302.27 161.96,-292.57 156.85,-297.35"/>
</g>
<!-- Node6 -->
<g id="node6" class="node">
<title>Node6</title>
<g id="a_node6"><a xlink:href="config__kvs_8h.html" target="_top" xlink:title="read settings from kvs storage by cb_type">
<polygon fill="none" stroke="black" points="0,-67.5 0,-86.5 132,-86.5 132,-67.5 0,-67.5"/>
<text text-anchor="middle" x="66" y="-74.5" font-family="Helvetica,sans-Serif" font-size="10.00">config_kvs/config_kvs.h</text>
</a>
</g>
</g>
<!-- Node1&#45;&gt;Node6 -->
<g id="edge9" class="edge">
<title>Node1&#45;&gt;Node6</title>
<path fill="none" stroke="midnightblue" d="M151.71,-296.7C140.51,-288.83 127.68,-278.19 119,-266 76.91,-206.88 68.15,-115.23 66.41,-86.75"/>
<polygon fill="midnightblue" stroke="midnightblue" points="149.97,-299.75 160.23,-302.4 153.86,-293.93 149.97,-299.75"/>
</g>
<!-- Node7 -->
<g id="node7" class="node">
<title>Node7</title>
<g id="a_node7"><a xlink:href="settings_8hh.html" target="_top" xlink:title=" ">
<polygon fill="none" stroke="black" points="245.5,-246.5 245.5,-265.5 370.5,-265.5 370.5,-246.5 245.5,-246.5"/>
<text text-anchor="middle" x="308" y="-253.5" font-family="Helvetica,sans-Serif" font-size="10.00">config_kvs/settings.hh</text>
</a>
</g>
</g>
<!-- Node1&#45;&gt;Node7 -->
<g id="edge10" class="edge">
<title>Node1&#45;&gt;Node7</title>
<path fill="none" stroke="midnightblue" d="M205.45,-298.64C230.41,-288.5 265.08,-274.43 287.02,-265.52"/>
<polygon fill="midnightblue" stroke="midnightblue" points="204.02,-295.44 196.07,-302.44 206.66,-301.92 204.02,-295.44"/>
</g>
<!-- Node4 -->
<g id="node4" class="node">
<title>Node4</title>
<g id="a_node4"><a xlink:href="app__settings_8hh.html" target="_top" xlink:title="Settings for application components.">
<polygon fill="none" stroke="black" points="197.5,-67.5 197.5,-86.5 356.5,-86.5 356.5,-67.5 197.5,-67.5"/>
<text text-anchor="middle" x="277" y="-74.5" font-family="Helvetica,sans-Serif" font-size="10.00">app_settings/app_settings.hh</text>
</a>
</g>
</g>
<!-- Node3&#45;&gt;Node4 -->
<g id="edge3" class="edge">
<title>Node3&#45;&gt;Node4</title>
<path fill="none" stroke="midnightblue" d="M203.14,-180.2C218.99,-171.51 238.14,-158.83 251,-143 264.95,-125.83 272.21,-100.22 275.24,-86.85"/>
<polygon fill="midnightblue" stroke="midnightblue" points="201.49,-177.11 194.25,-184.85 204.74,-183.32 201.49,-177.11"/>
</g>
<!-- Node4&#45;&gt;Node2 -->
<g id="edge4" class="edge">
<title>Node4&#45;&gt;Node2</title>
<path fill="none" stroke="midnightblue" d="M292.76,-60.37C302.1,-51.11 313.82,-39.48 322.86,-30.52"/>
<polygon fill="midnightblue" stroke="midnightblue" points="290.23,-57.95 285.6,-67.48 295.16,-62.92 290.23,-57.95"/>
</g>
<!-- Node5&#45;&gt;Node2 -->
<g id="edge6" class="edge">
<title>Node5&#45;&gt;Node2</title>
<path fill="none" stroke="midnightblue" d="M165.79,-113.27C168.87,-98.82 175.21,-79.28 188,-67 208.98,-46.85 238.29,-34.73 265.37,-27.44"/>
<polygon fill="midnightblue" stroke="midnightblue" points="162.34,-112.66 164.01,-123.12 169.23,-113.9 162.34,-112.66"/>
</g>
<!-- Node5&#45;&gt;Node4 -->
<g id="edge7" class="edge">
<title>Node5&#45;&gt;Node4</title>
<path fill="none" stroke="midnightblue" d="M190.24,-119.1C211.54,-109.01 240.54,-95.27 259.02,-86.52"/>
<polygon fill="midnightblue" stroke="midnightblue" points="188.6,-116 181.06,-123.44 191.6,-122.33 188.6,-116"/>
</g>
<!-- Node5&#45;&gt;Node6 -->
<g id="edge8" class="edge">
<title>Node5&#45;&gt;Node6</title>
<path fill="none" stroke="midnightblue" d="M138.66,-118.45C120.76,-108.48 96.95,-95.23 81.55,-86.65"/>
<polygon fill="midnightblue" stroke="midnightblue" points="136.98,-121.52 147.42,-123.32 140.38,-115.4 136.98,-121.52"/>
</g>
<!-- Node7&#45;&gt;Node2 -->
<g id="edge11" class="edge">
<title>Node7&#45;&gt;Node2</title>
<path fill="none" stroke="midnightblue" d="M338.55,-241.56C351.33,-234.22 364.85,-223.77 372,-210 382.43,-189.91 392.58,-161.36 365,-67 361.18,-53.91 353.51,-40.48 347.17,-30.76"/>
<polygon fill="midnightblue" stroke="midnightblue" points="336.68,-238.59 329.48,-246.36 339.96,-244.77 336.68,-238.59"/>
</g>
<!-- Node8 -->
<g id="node8" class="node">
<title>Node8</title>
<g id="a_node8"><a xlink:href="settings__template_8hh_source.html" target="_top" xlink:title=" ">
<polygon fill="none" stroke="black" points="253,-179.5 253,-209.5 363,-209.5 363,-179.5 253,-179.5"/>
<text text-anchor="start" x="261" y="-197.5" font-family="Helvetica,sans-Serif" font-size="10.00">config_kvs/settings</text>
<text text-anchor="middle" x="308" y="-186.5" font-family="Helvetica,sans-Serif" font-size="10.00">_template.hh</text>
</a>
</g>
</g>
<!-- Node7&#45;&gt;Node8 -->
<g id="edge12" class="edge">
<title>Node7&#45;&gt;Node8</title>
<path fill="none" stroke="midnightblue" d="M308,-236.23C308,-227.59 308,-217.5 308,-209.52"/>
<polygon fill="midnightblue" stroke="midnightblue" points="304.5,-236.48 308,-246.48 311.5,-236.48 304.5,-236.48"/>
</g>
<!-- Node8&#45;&gt;Node4 -->
<g id="edge13" class="edge">
<title>Node8&#45;&gt;Node4</title>
<path fill="none" stroke="midnightblue" d="M301.57,-169.56C294.65,-143.76 284,-104.06 279.33,-86.67"/>
<polygon fill="midnightblue" stroke="midnightblue" points="298.23,-170.59 304.2,-179.34 304.99,-168.77 298.23,-170.59"/>
</g>
<!-- Node8&#45;&gt;Node5 -->
<g id="edge14" class="edge">
<title>Node8&#45;&gt;Node5</title>
<path fill="none" stroke="midnightblue" d="M264.17,-175.52C237.64,-164.63 205,-151.23 184.1,-142.66"/>
<polygon fill="midnightblue" stroke="midnightblue" points="263.06,-178.84 273.64,-179.4 265.71,-172.37 263.06,-178.84"/>
</g>
</g>
</svg>
