<?xml version="1.0" encoding="UTF-8" standalone="no"?>
<!DOCTYPE svg PUBLIC "-//W3C//DTD SVG 1.1//EN"
 "http://www.w3.org/Graphics/SVG/1.1/DTD/svg11.dtd">
<!-- Generated by graphviz version 2.43.0 (0)
 -->
<!-- Title: fernotron/auto/fau_tminutes.h Pages: 1 -->
<svg width="706pt" height="285pt"
 viewBox="0.00 0.00 706.15 285.00" xmlns="http://www.w3.org/2000/svg" xmlns:xlink="http://www.w3.org/1999/xlink">
<g id="graph0" class="graph" transform="scale(1 1) rotate(0) translate(4 281)">
<title>fernotron/auto/fau_tminutes.h</title>
<!-- Node1 -->
<g id="node1" class="node">
<title>Node1</title>
<g id="a_node1"><a xlink:title="Represent when each kind of timer will be scheduled for a given day and g/m. Calculate the next event...">
<polygon fill="#bfbfbf" stroke="black" points="150.65,-246.5 150.65,-276.5 255.65,-276.5 255.65,-246.5 150.65,-246.5"/>
<text text-anchor="start" x="158.65" y="-264.5" font-family="Helvetica,sans-Serif" font-size="10.00">fernotron/auto/fau</text>
<text text-anchor="middle" x="203.15" y="-253.5" font-family="Helvetica,sans-Serif" font-size="10.00">_tminutes.h</text>
</a>
</g>
</g>
<!-- Node2 -->
<g id="node2" class="node">
<title>Node2</title>
<g id="a_node2"><a xlink:href="fer__pct_8h.html" target="_top" xlink:title="class Pct to represent shutter opening percentage">
<polygon fill="none" stroke="black" points="51.65,-185 51.65,-204 158.65,-204 158.65,-185 51.65,-185"/>
<text text-anchor="middle" x="105.15" y="-192" font-family="Helvetica,sans-Serif" font-size="10.00">fernotron/fer_pct.h</text>
</a>
</g>
</g>
<!-- Node1&#45;&gt;Node2 -->
<g id="edge1" class="edge">
<title>Node1&#45;&gt;Node2</title>
<path fill="none" stroke="midnightblue" d="M181.88,-246.4C165.45,-235.5 142.81,-220.48 126.38,-209.58"/>
<polygon fill="midnightblue" stroke="midnightblue" points="128.24,-206.62 117.97,-204.01 124.37,-212.45 128.24,-206.62"/>
</g>
<!-- Node3 -->
<g id="node3" class="node">
<title>Node3</title>
<g id="a_node3"><a xlink:title=" ">
<polygon fill="none" stroke="#bfbfbf" points="1.65,-56.5 1.65,-75.5 54.65,-75.5 54.65,-56.5 1.65,-56.5"/>
<text text-anchor="middle" x="28.15" y="-63.5" font-family="Helvetica,sans-Serif" font-size="10.00">stdint.h</text>
</a>
</g>
</g>
<!-- Node1&#45;&gt;Node3 -->
<g id="edge24" class="edge">
<title>Node1&#45;&gt;Node3</title>
<path fill="none" stroke="midnightblue" d="M150.61,-254.12C116.64,-247.72 73.14,-235.03 42.15,-210 5.8,-180.65 -7.18,-157.32 4.15,-112 6.58,-102.25 11.58,-92.29 16.39,-84.23"/>
<polygon fill="midnightblue" stroke="midnightblue" points="19.36,-86.08 21.78,-75.77 13.45,-82.32 19.36,-86.08"/>
</g>
<!-- Node4 -->
<g id="node4" class="node">
<title>Node4</title>
<g id="a_node4"><a xlink:title=" ">
<polygon fill="none" stroke="#bfbfbf" points="172.15,-118 172.15,-137 234.15,-137 234.15,-118 172.15,-118"/>
<text text-anchor="middle" x="203.15" y="-125" font-family="Helvetica,sans-Serif" font-size="10.00">stdbool.h</text>
</a>
</g>
</g>
<!-- Node1&#45;&gt;Node4 -->
<g id="edge25" class="edge">
<title>Node1&#45;&gt;Node4</title>
<path fill="none" stroke="midnightblue" d="M203.15,-246.37C203.15,-222.5 203.15,-174.18 203.15,-147.41"/>
<polygon fill="midnightblue" stroke="midnightblue" points="206.65,-147.1 203.15,-137.1 199.65,-147.1 206.65,-147.1"/>
</g>
<!-- Node6 -->
<g id="node6" class="node">
<title>Node6</title>
<g id="a_node6"><a xlink:href="timer__data_8h.html" target="_top" xlink:title="vocabulary types to program Fernotron automatic (timers)">
<polygon fill="none" stroke="black" points="286.15,-179.5 286.15,-209.5 396.15,-209.5 396.15,-179.5 286.15,-179.5"/>
<text text-anchor="start" x="294.15" y="-197.5" font-family="Helvetica,sans-Serif" font-size="10.00">fernotron_trx/timer</text>
<text text-anchor="middle" x="341.15" y="-186.5" font-family="Helvetica,sans-Serif" font-size="10.00">_data.h</text>
</a>
</g>
</g>
<!-- Node1&#45;&gt;Node6 -->
<g id="edge6" class="edge">
<title>Node1&#45;&gt;Node6</title>
<path fill="none" stroke="midnightblue" d="M233.09,-246.4C253.34,-236.86 280.29,-224.16 302.21,-213.84"/>
<polygon fill="midnightblue" stroke="midnightblue" points="303.7,-217 311.26,-209.58 300.72,-210.67 303.7,-217"/>
</g>
<!-- Node22 -->
<g id="node22" class="node">
<title>Node22</title>
<g id="a_node22"><a xlink:title=" ">
<polygon fill="none" stroke="#bfbfbf" points="414.15,-185 414.15,-204 462.15,-204 462.15,-185 414.15,-185"/>
<text text-anchor="middle" x="438.15" y="-192" font-family="Helvetica,sans-Serif" font-size="10.00">time.h</text>
</a>
</g>
</g>
<!-- Node1&#45;&gt;Node22 -->
<g id="edge26" class="edge">
<title>Node1&#45;&gt;Node22</title>
<path fill="none" stroke="midnightblue" d="M255.74,-249.91C296.93,-241 355.38,-227.02 405.15,-210 407.01,-209.36 408.92,-208.66 410.82,-207.92"/>
<polygon fill="midnightblue" stroke="midnightblue" points="412.31,-211.1 420.21,-204.04 409.63,-204.63 412.31,-211.1"/>
</g>
<!-- Node2&#45;&gt;Node3 -->
<g id="edge2" class="edge">
<title>Node2&#45;&gt;Node3</title>
<path fill="none" stroke="midnightblue" d="M72.69,-185C51.69,-177.62 25.95,-164.64 13.15,-143 2.48,-124.98 10.34,-100.77 18.13,-84.56"/>
<polygon fill="midnightblue" stroke="midnightblue" points="21.27,-86.11 22.81,-75.63 15.07,-82.87 21.27,-86.11"/>
</g>
<!-- Node2&#45;&gt;Node4 -->
<g id="edge3" class="edge">
<title>Node2&#45;&gt;Node4</title>
<path fill="none" stroke="midnightblue" d="M118.36,-184.73C134.6,-173.96 162.36,-155.55 181.68,-142.74"/>
<polygon fill="midnightblue" stroke="midnightblue" points="183.74,-145.57 190.14,-137.13 179.87,-139.74 183.74,-145.57"/>
</g>
<!-- Node5 -->
<g id="node5" class="node">
<title>Node5</title>
<g id="a_node5"><a xlink:href="int__macros_8h.html" target="_top" xlink:title="Basic helper macros for integers.">
<polygon fill="none" stroke="black" points="22.15,-118 22.15,-137 154.15,-137 154.15,-118 22.15,-118"/>
<text text-anchor="middle" x="88.15" y="-125" font-family="Helvetica,sans-Serif" font-size="10.00">utils_misc/int_macros.h</text>
</a>
</g>
</g>
<!-- Node2&#45;&gt;Node5 -->
<g id="edge4" class="edge">
<title>Node2&#45;&gt;Node5</title>
<path fill="none" stroke="midnightblue" d="M102.85,-184.73C100.33,-175.09 96.2,-159.3 92.96,-146.91"/>
<polygon fill="midnightblue" stroke="midnightblue" points="96.32,-145.92 90.4,-137.13 89.55,-147.69 96.32,-145.92"/>
</g>
<!-- Node5&#45;&gt;Node3 -->
<g id="edge5" class="edge">
<title>Node5&#45;&gt;Node3</title>
<path fill="none" stroke="midnightblue" d="M79.55,-117.98C70.28,-108.78 55.33,-93.96 43.93,-82.66"/>
<polygon fill="midnightblue" stroke="midnightblue" points="46.29,-80.07 36.73,-75.51 41.36,-85.04 46.29,-80.07"/>
</g>
<!-- Node6&#45;&gt;Node3 -->
<g id="edge7" class="edge">
<title>Node6&#45;&gt;Node3</title>
<path fill="none" stroke="midnightblue" d="M324.13,-179.17C296.69,-156.09 245.47,-113.13 243.15,-112 212.08,-96.99 117.52,-80.72 64.75,-72.47"/>
<polygon fill="midnightblue" stroke="midnightblue" points="65.2,-68.99 54.78,-70.93 64.13,-75.91 65.2,-68.99"/>
</g>
<!-- Node6&#45;&gt;Node4 -->
<g id="edge8" class="edge">
<title>Node6&#45;&gt;Node4</title>
<path fill="none" stroke="midnightblue" d="M311.2,-179.4C287.2,-168.09 253.8,-152.36 230.51,-141.39"/>
<polygon fill="midnightblue" stroke="midnightblue" points="231.74,-138.1 221.21,-137.01 228.76,-144.43 231.74,-138.1"/>
</g>
<!-- Node7 -->
<g id="node7" class="node">
<title>Node7</title>
<g id="a_node7"><a xlink:title=" ">
<polygon fill="none" stroke="#bfbfbf" points="505.65,-118 505.65,-137 558.65,-137 558.65,-118 505.65,-118"/>
<text text-anchor="middle" x="532.15" y="-125" font-family="Helvetica,sans-Serif" font-size="10.00">string.h</text>
</a>
</g>
</g>
<!-- Node6&#45;&gt;Node7 -->
<g id="edge9" class="edge">
<title>Node6&#45;&gt;Node7</title>
<path fill="none" stroke="midnightblue" d="M387.2,-179.4C418.18,-169.69 459.84,-156.21 496.15,-143 498.04,-142.31 499.99,-141.58 501.95,-140.83"/>
<polygon fill="midnightblue" stroke="midnightblue" points="503.64,-143.93 511.68,-137.02 501.09,-137.41 503.64,-143.93"/>
</g>
<!-- Node8 -->
<g id="node8" class="node">
<title>Node8</title>
<g id="a_node8"><a xlink:title=" ">
<polygon fill="none" stroke="#bfbfbf" points="576.65,-118 576.65,-137 629.65,-137 629.65,-118 576.65,-118"/>
<text text-anchor="middle" x="603.15" y="-125" font-family="Helvetica,sans-Serif" font-size="10.00">ctype.h</text>
</a>
</g>
</g>
<!-- Node6&#45;&gt;Node8 -->
<g id="edge10" class="edge">
<title>Node6&#45;&gt;Node8</title>
<path fill="none" stroke="midnightblue" d="M396.3,-180.99C399.29,-180.31 402.25,-179.65 405.15,-179 477.11,-162.85 496.7,-164.85 567.15,-143 569.43,-142.29 571.76,-141.5 574.1,-140.67"/>
<polygon fill="midnightblue" stroke="midnightblue" points="575.45,-143.9 583.55,-137.07 572.96,-137.36 575.45,-143.9"/>
</g>
<!-- Node9 -->
<g id="node9" class="node">
<title>Node9</title>
<g id="a_node9"><a xlink:title=" ">
<polygon fill="none" stroke="#bfbfbf" points="648.15,-118 648.15,-137 698.15,-137 698.15,-118 648.15,-118"/>
<text text-anchor="middle" x="673.15" y="-125" font-family="Helvetica,sans-Serif" font-size="10.00">stdio.h</text>
</a>
</g>
</g>
<!-- Node6&#45;&gt;Node9 -->
<g id="edge11" class="edge">
<title>Node6&#45;&gt;Node9</title>
<path fill="none" stroke="midnightblue" d="M396.25,-180.76C399.26,-180.14 402.24,-179.55 405.15,-179 508.08,-159.41 537.24,-171.25 638.15,-143 640.58,-142.32 643.08,-141.51 645.56,-140.64"/>
<polygon fill="midnightblue" stroke="midnightblue" points="646.85,-143.89 654.91,-137.02 644.32,-137.36 646.85,-143.89"/>
</g>
<!-- Node10 -->
<g id="node10" class="node">
<title>Node10</title>
<g id="a_node10"><a xlink:href="cstring__utils_8hh_source.html" target="_top" xlink:title=" ">
<polygon fill="none" stroke="black" points="290.15,-112.5 290.15,-142.5 392.15,-142.5 392.15,-112.5 290.15,-112.5"/>
<text text-anchor="start" x="298.15" y="-130.5" font-family="Helvetica,sans-Serif" font-size="10.00">utils_misc/cstring</text>
<text text-anchor="middle" x="341.15" y="-119.5" font-family="Helvetica,sans-Serif" font-size="10.00">_utils.hh</text>
</a>
</g>
</g>
<!-- Node6&#45;&gt;Node10 -->
<g id="edge12" class="edge">
<title>Node6&#45;&gt;Node10</title>
<path fill="none" stroke="midnightblue" d="M341.15,-179.4C341.15,-171.64 341.15,-161.81 341.15,-152.86"/>
<polygon fill="midnightblue" stroke="midnightblue" points="344.65,-152.58 341.15,-142.58 337.65,-152.58 344.65,-152.58"/>
</g>
<!-- Node16 -->
<g id="node16" class="node">
<title>Node16</title>
<g id="a_node16"><a xlink:href="dbg_8h_source.html" target="_top" xlink:title=" ">
<polygon fill="none" stroke="black" points="410.65,-118 410.65,-137 487.65,-137 487.65,-118 410.65,-118"/>
<text text-anchor="middle" x="449.15" y="-125" font-family="Helvetica,sans-Serif" font-size="10.00">debug/dbg.h</text>
</a>
</g>
</g>
<!-- Node6&#45;&gt;Node16 -->
<g id="edge18" class="edge">
<title>Node6&#45;&gt;Node16</title>
<path fill="none" stroke="midnightblue" d="M364.58,-179.4C382.86,-168.39 408.1,-153.2 426.25,-142.28"/>
<polygon fill="midnightblue" stroke="midnightblue" points="428.25,-145.16 435.01,-137.01 424.64,-139.16 428.25,-145.16"/>
</g>
<!-- Node11 -->
<g id="node11" class="node">
<title>Node11</title>
<g id="a_node11"><a xlink:title=" ">
<polygon fill="none" stroke="#bfbfbf" points="238.15,-56.5 238.15,-75.5 288.15,-75.5 288.15,-56.5 238.15,-56.5"/>
<text text-anchor="middle" x="263.15" y="-63.5" font-family="Helvetica,sans-Serif" font-size="10.00">cstring</text>
</a>
</g>
</g>
<!-- Node10&#45;&gt;Node11 -->
<g id="edge13" class="edge">
<title>Node10&#45;&gt;Node11</title>
<path fill="none" stroke="midnightblue" d="M322.66,-112.4C310.62,-103.22 294.95,-91.26 282.7,-81.92"/>
<polygon fill="midnightblue" stroke="midnightblue" points="284.57,-78.94 274.49,-75.66 280.32,-84.51 284.57,-78.94"/>
</g>
<!-- Node12 -->
<g id="node12" class="node">
<title>Node12</title>
<g id="a_node12"><a xlink:title=" ">
<polygon fill="none" stroke="#bfbfbf" points="306.65,-56.5 306.65,-75.5 375.65,-75.5 375.65,-56.5 306.65,-56.5"/>
<text text-anchor="middle" x="341.15" y="-63.5" font-family="Helvetica,sans-Serif" font-size="10.00">type_traits</text>
</a>
</g>
</g>
<!-- Node10&#45;&gt;Node12 -->
<g id="edge14" class="edge">
<title>Node10&#45;&gt;Node12</title>
<path fill="none" stroke="midnightblue" d="M341.15,-112.4C341.15,-104.47 341.15,-94.46 341.15,-85.86"/>
<polygon fill="midnightblue" stroke="midnightblue" points="344.65,-85.66 341.15,-75.66 337.65,-85.66 344.65,-85.66"/>
</g>
<!-- Node13 -->
<g id="node13" class="node">
<title>Node13</title>
<g id="a_node13"><a xlink:href="allocator__malloc_8hh_source.html" target="_top" xlink:title=" ">
<polygon fill="none" stroke="black" points="106.65,-56.5 106.65,-75.5 219.65,-75.5 219.65,-56.5 106.65,-56.5"/>
<text text-anchor="middle" x="163.15" y="-63.5" font-family="Helvetica,sans-Serif" font-size="10.00">allocator_malloc.hh</text>
</a>
</g>
</g>
<!-- Node10&#45;&gt;Node13 -->
<g id="edge15" class="edge">
<title>Node10&#45;&gt;Node13</title>
<path fill="none" stroke="midnightblue" d="M298.96,-112.4C268.34,-102.16 227.38,-88.47 198.47,-78.81"/>
<polygon fill="midnightblue" stroke="midnightblue" points="199.38,-75.42 188.79,-75.57 197.16,-82.06 199.38,-75.42"/>
</g>
<!-- Node14 -->
<g id="node14" class="node">
<title>Node14</title>
<g id="a_node14"><a xlink:title=" ">
<polygon fill="none" stroke="#bfbfbf" points="173.15,-0.5 173.15,-19.5 231.15,-19.5 231.15,-0.5 173.15,-0.5"/>
<text text-anchor="middle" x="202.15" y="-7.5" font-family="Helvetica,sans-Serif" font-size="10.00">memory</text>
</a>
</g>
</g>
<!-- Node13&#45;&gt;Node14 -->
<g id="edge16" class="edge">
<title>Node13&#45;&gt;Node14</title>
<path fill="none" stroke="midnightblue" d="M169.59,-56.08C175.09,-48.46 183.18,-37.26 189.91,-27.94"/>
<polygon fill="midnightblue" stroke="midnightblue" points="192.81,-29.91 195.82,-19.75 187.13,-25.81 192.81,-29.91"/>
</g>
<!-- Node15 -->
<g id="node15" class="node">
<title>Node15</title>
<g id="a_node15"><a xlink:title=" ">
<polygon fill="none" stroke="#bfbfbf" points="95.65,-0.5 95.65,-19.5 154.65,-19.5 154.65,-0.5 95.65,-0.5"/>
<text text-anchor="middle" x="125.15" y="-7.5" font-family="Helvetica,sans-Serif" font-size="10.00">malloc.h</text>
</a>
</g>
</g>
<!-- Node13&#45;&gt;Node15 -->
<g id="edge17" class="edge">
<title>Node13&#45;&gt;Node15</title>
<path fill="none" stroke="midnightblue" d="M156.87,-56.08C151.5,-48.46 143.63,-37.26 137.07,-27.94"/>
<polygon fill="midnightblue" stroke="midnightblue" points="139.92,-25.91 131.3,-19.75 134.2,-29.94 139.92,-25.91"/>
</g>
<!-- Node17 -->
<g id="node17" class="node">
<title>Node17</title>
<g id="a_node17"><a xlink:href="log_8h_source.html" target="_top" xlink:title=" ">
<polygon fill="none" stroke="black" points="393.65,-56.5 393.65,-75.5 434.65,-75.5 434.65,-56.5 393.65,-56.5"/>
<text text-anchor="middle" x="414.15" y="-63.5" font-family="Helvetica,sans-Serif" font-size="10.00">log.h</text>
</a>
</g>
</g>
<!-- Node16&#45;&gt;Node17 -->
<g id="edge19" class="edge">
<title>Node16&#45;&gt;Node17</title>
<path fill="none" stroke="midnightblue" d="M444.13,-117.98C438.98,-109.23 430.83,-95.37 424.33,-84.31"/>
<polygon fill="midnightblue" stroke="midnightblue" points="427.24,-82.35 419.15,-75.51 421.2,-85.9 427.24,-82.35"/>
</g>
<!-- Node19 -->
<g id="node19" class="node">
<title>Node19</title>
<g id="a_node19"><a xlink:title=" ">
<polygon fill="none" stroke="#bfbfbf" points="452.65,-56.5 452.65,-75.5 505.65,-75.5 505.65,-56.5 452.65,-56.5"/>
<text text-anchor="middle" x="479.15" y="-63.5" font-family="Helvetica,sans-Serif" font-size="10.00">stdlib.h</text>
</a>
</g>
</g>
<!-- Node16&#45;&gt;Node19 -->
<g id="edge21" class="edge">
<title>Node16&#45;&gt;Node19</title>
<path fill="none" stroke="midnightblue" d="M453.44,-117.98C457.81,-109.32 464.7,-95.65 470.25,-84.65"/>
<polygon fill="midnightblue" stroke="midnightblue" points="473.48,-86.01 474.85,-75.51 467.23,-82.86 473.48,-86.01"/>
</g>
<!-- Node20 -->
<g id="node20" class="node">
<title>Node20</title>
<g id="a_node20"><a xlink:title=" ">
<polygon fill="none" stroke="#bfbfbf" points="524.15,-56.5 524.15,-75.5 580.15,-75.5 580.15,-56.5 524.15,-56.5"/>
<text text-anchor="middle" x="552.15" y="-63.5" font-family="Helvetica,sans-Serif" font-size="10.00">unistd.h</text>
</a>
</g>
</g>
<!-- Node16&#45;&gt;Node20 -->
<g id="edge22" class="edge">
<title>Node16&#45;&gt;Node20</title>
<path fill="none" stroke="midnightblue" d="M463.9,-117.98C480.81,-108.21 508.73,-92.08 528.64,-80.58"/>
<polygon fill="midnightblue" stroke="midnightblue" points="530.51,-83.54 537.42,-75.51 527.01,-77.48 530.51,-83.54"/>
</g>
<!-- Node21 -->
<g id="node21" class="node">
<title>Node21</title>
<g id="a_node21"><a xlink:title=" ">
<polygon fill="none" stroke="#bfbfbf" points="598.15,-56.5 598.15,-75.5 654.15,-75.5 654.15,-56.5 598.15,-56.5"/>
<text text-anchor="middle" x="626.15" y="-63.5" font-family="Helvetica,sans-Serif" font-size="10.00">assert.h</text>
</a>
</g>
</g>
<!-- Node16&#45;&gt;Node21 -->
<g id="edge23" class="edge">
<title>Node16&#45;&gt;Node21</title>
<path fill="none" stroke="midnightblue" d="M474.5,-117.98C505.13,-107.68 556.8,-90.31 591.19,-78.75"/>
<polygon fill="midnightblue" stroke="midnightblue" points="592.47,-82.01 600.83,-75.51 590.24,-75.38 592.47,-82.01"/>
</g>
<!-- Node18 -->
<g id="node18" class="node">
<title>Node18</title>
<g id="a_node18"><a xlink:title=" ">
<polygon fill="none" stroke="#bfbfbf" points="382.65,-0.5 382.65,-19.5 445.65,-19.5 445.65,-0.5 382.65,-0.5"/>
<text text-anchor="middle" x="414.15" y="-7.5" font-family="Helvetica,sans-Serif" font-size="10.00">esp_log.h</text>
</a>
</g>
</g>
<!-- Node17&#45;&gt;Node18 -->
<g id="edge20" class="edge">
<title>Node17&#45;&gt;Node18</title>
<path fill="none" stroke="midnightblue" d="M414.15,-56.08C414.15,-49.01 414.15,-38.86 414.15,-29.99"/>
<polygon fill="midnightblue" stroke="midnightblue" points="417.65,-29.75 414.15,-19.75 410.65,-29.75 417.65,-29.75"/>
</g>
</g>
</svg>
