<?xml version="1.0" encoding="UTF-8" standalone="no"?>
<!DOCTYPE svg PUBLIC "-//W3C//DTD SVG 1.1//EN"
 "http://www.w3.org/Graphics/SVG/1.1/DTD/svg11.dtd">
<!-- Generated by graphviz version 2.43.0 (0)
 -->
<!-- Title: fernotron/auto/fau_tdata_store.h Pages: 1 -->
<svg width="812pt" height="285pt"
 viewBox="0.00 0.00 811.50 285.00" xmlns="http://www.w3.org/2000/svg" xmlns:xlink="http://www.w3.org/1999/xlink">
<g id="graph0" class="graph" transform="scale(1 1) rotate(0) translate(4 281)">
<title>fernotron/auto/fau_tdata_store.h</title>
<!-- Node1 -->
<g id="node1" class="node">
<title>Node1</title>
<g id="a_node1"><a xlink:title="Persistent timer data storage.">
<polygon fill="#bfbfbf" stroke="black" points="197,-246.5 197,-276.5 302,-276.5 302,-246.5 197,-246.5"/>
<text text-anchor="start" x="205" y="-264.5" font-family="Helvetica,sans-Serif" font-size="10.00">fernotron/auto/fau</text>
<text text-anchor="middle" x="249.5" y="-253.5" font-family="Helvetica,sans-Serif" font-size="10.00">_tdata_store.h</text>
</a>
</g>
</g>
<!-- Node2 -->
<g id="node2" class="node">
<title>Node2</title>
<g id="a_node2"><a xlink:href="timer__data_8h.html" target="_top" xlink:title="vocabulary types to program Fernotron automatic (timers)">
<polygon fill="none" stroke="black" points="194.5,-179.5 194.5,-209.5 304.5,-209.5 304.5,-179.5 194.5,-179.5"/>
<text text-anchor="start" x="202.5" y="-197.5" font-family="Helvetica,sans-Serif" font-size="10.00">fernotron_trx/timer</text>
<text text-anchor="middle" x="249.5" y="-186.5" font-family="Helvetica,sans-Serif" font-size="10.00">_data.h</text>
</a>
</g>
</g>
<!-- Node1&#45;&gt;Node2 -->
<g id="edge1" class="edge">
<title>Node1&#45;&gt;Node2</title>
<path fill="none" stroke="midnightblue" d="M249.5,-246.4C249.5,-238.64 249.5,-228.81 249.5,-219.86"/>
<polygon fill="midnightblue" stroke="midnightblue" points="253,-219.58 249.5,-209.58 246,-219.58 253,-219.58"/>
</g>
<!-- Node3 -->
<g id="node3" class="node">
<title>Node3</title>
<g id="a_node3"><a xlink:title=" ">
<polygon fill="none" stroke="#bfbfbf" points="0,-118 0,-137 53,-137 53,-118 0,-118"/>
<text text-anchor="middle" x="26.5" y="-125" font-family="Helvetica,sans-Serif" font-size="10.00">stdint.h</text>
</a>
</g>
</g>
<!-- Node2&#45;&gt;Node3 -->
<g id="edge2" class="edge">
<title>Node2&#45;&gt;Node3</title>
<path fill="none" stroke="midnightblue" d="M194.16,-180.4C156.67,-171.07 106.18,-157.64 62.5,-143 60.37,-142.29 58.19,-141.51 56,-140.71"/>
<polygon fill="midnightblue" stroke="midnightblue" points="57.11,-137.39 46.52,-137.06 54.6,-143.92 57.11,-137.39"/>
</g>
<!-- Node4 -->
<g id="node4" class="node">
<title>Node4</title>
<g id="a_node4"><a xlink:title=" ">
<polygon fill="none" stroke="#bfbfbf" points="71.5,-118 71.5,-137 133.5,-137 133.5,-118 71.5,-118"/>
<text text-anchor="middle" x="102.5" y="-125" font-family="Helvetica,sans-Serif" font-size="10.00">stdbool.h</text>
</a>
</g>
</g>
<!-- Node2&#45;&gt;Node4 -->
<g id="edge3" class="edge">
<title>Node2&#45;&gt;Node4</title>
<path fill="none" stroke="midnightblue" d="M217.6,-179.4C191.81,-167.99 155.83,-152.08 130.99,-141.1"/>
<polygon fill="midnightblue" stroke="midnightblue" points="132.3,-137.85 121.74,-137.01 129.47,-144.25 132.3,-137.85"/>
</g>
<!-- Node5 -->
<g id="node5" class="node">
<title>Node5</title>
<g id="a_node5"><a xlink:title=" ">
<polygon fill="none" stroke="#bfbfbf" points="152,-118 152,-137 205,-137 205,-118 152,-118"/>
<text text-anchor="middle" x="178.5" y="-125" font-family="Helvetica,sans-Serif" font-size="10.00">string.h</text>
</a>
</g>
</g>
<!-- Node2&#45;&gt;Node5 -->
<g id="edge4" class="edge">
<title>Node2&#45;&gt;Node5</title>
<path fill="none" stroke="midnightblue" d="M234.09,-179.4C222.69,-168.96 207.17,-154.75 195.43,-144"/>
<polygon fill="midnightblue" stroke="midnightblue" points="197.74,-141.37 188,-137.19 193.01,-146.53 197.74,-141.37"/>
</g>
<!-- Node6 -->
<g id="node6" class="node">
<title>Node6</title>
<g id="a_node6"><a xlink:title=" ">
<polygon fill="none" stroke="#bfbfbf" points="223,-118 223,-137 276,-137 276,-118 223,-118"/>
<text text-anchor="middle" x="249.5" y="-125" font-family="Helvetica,sans-Serif" font-size="10.00">ctype.h</text>
</a>
</g>
</g>
<!-- Node2&#45;&gt;Node6 -->
<g id="edge5" class="edge">
<title>Node2&#45;&gt;Node6</title>
<path fill="none" stroke="midnightblue" d="M249.5,-179.4C249.5,-170.06 249.5,-157.71 249.5,-147.52"/>
<polygon fill="midnightblue" stroke="midnightblue" points="253,-147.19 249.5,-137.19 246,-147.19 253,-147.19"/>
</g>
<!-- Node7 -->
<g id="node7" class="node">
<title>Node7</title>
<g id="a_node7"><a xlink:title=" ">
<polygon fill="none" stroke="#bfbfbf" points="294.5,-118 294.5,-137 344.5,-137 344.5,-118 294.5,-118"/>
<text text-anchor="middle" x="319.5" y="-125" font-family="Helvetica,sans-Serif" font-size="10.00">stdio.h</text>
</a>
</g>
</g>
<!-- Node2&#45;&gt;Node7 -->
<g id="edge6" class="edge">
<title>Node2&#45;&gt;Node7</title>
<path fill="none" stroke="midnightblue" d="M264.69,-179.4C275.82,-169.06 290.94,-155.02 302.47,-144.31"/>
<polygon fill="midnightblue" stroke="midnightblue" points="305.19,-146.56 310.14,-137.19 300.43,-141.43 305.19,-146.56"/>
</g>
<!-- Node8 -->
<g id="node8" class="node">
<title>Node8</title>
<g id="a_node8"><a xlink:href="cstring__utils_8hh_source.html" target="_top" xlink:title=" ">
<polygon fill="none" stroke="black" points="362.5,-112.5 362.5,-142.5 464.5,-142.5 464.5,-112.5 362.5,-112.5"/>
<text text-anchor="start" x="370.5" y="-130.5" font-family="Helvetica,sans-Serif" font-size="10.00">utils_misc/cstring</text>
<text text-anchor="middle" x="413.5" y="-119.5" font-family="Helvetica,sans-Serif" font-size="10.00">_utils.hh</text>
</a>
</g>
</g>
<!-- Node2&#45;&gt;Node8 -->
<g id="edge7" class="edge">
<title>Node2&#45;&gt;Node8</title>
<path fill="none" stroke="midnightblue" d="M285.09,-179.4C309.59,-169.69 342.33,-156.71 368.62,-146.29"/>
<polygon fill="midnightblue" stroke="midnightblue" points="369.98,-149.51 377.98,-142.58 367.4,-143.01 369.98,-149.51"/>
</g>
<!-- Node14 -->
<g id="node14" class="node">
<title>Node14</title>
<g id="a_node14"><a xlink:href="dbg_8h_source.html" target="_top" xlink:title=" ">
<polygon fill="none" stroke="black" points="590,-118 590,-137 667,-137 667,-118 590,-118"/>
<text text-anchor="middle" x="628.5" y="-125" font-family="Helvetica,sans-Serif" font-size="10.00">debug/dbg.h</text>
</a>
</g>
</g>
<!-- Node2&#45;&gt;Node14 -->
<g id="edge13" class="edge">
<title>Node2&#45;&gt;Node14</title>
<path fill="none" stroke="midnightblue" d="M304.61,-184.05C378.67,-171.35 509.17,-148.97 579.8,-136.85"/>
<polygon fill="midnightblue" stroke="midnightblue" points="580.51,-140.28 589.77,-135.14 579.32,-133.38 580.51,-140.28"/>
</g>
<!-- Node9 -->
<g id="node9" class="node">
<title>Node9</title>
<g id="a_node9"><a xlink:title=" ">
<polygon fill="none" stroke="#bfbfbf" points="256.5,-56.5 256.5,-75.5 306.5,-75.5 306.5,-56.5 256.5,-56.5"/>
<text text-anchor="middle" x="281.5" y="-63.5" font-family="Helvetica,sans-Serif" font-size="10.00">cstring</text>
</a>
</g>
</g>
<!-- Node8&#45;&gt;Node9 -->
<g id="edge8" class="edge">
<title>Node8&#45;&gt;Node9</title>
<path fill="none" stroke="midnightblue" d="M382.22,-112.4C360.27,-102.51 331.16,-89.38 309.88,-79.79"/>
<polygon fill="midnightblue" stroke="midnightblue" points="311.26,-76.58 300.71,-75.66 308.39,-82.96 311.26,-76.58"/>
</g>
<!-- Node10 -->
<g id="node10" class="node">
<title>Node10</title>
<g id="a_node10"><a xlink:title=" ">
<polygon fill="none" stroke="#bfbfbf" points="325,-56.5 325,-75.5 394,-75.5 394,-56.5 325,-56.5"/>
<text text-anchor="middle" x="359.5" y="-63.5" font-family="Helvetica,sans-Serif" font-size="10.00">type_traits</text>
</a>
</g>
</g>
<!-- Node8&#45;&gt;Node10 -->
<g id="edge9" class="edge">
<title>Node8&#45;&gt;Node10</title>
<path fill="none" stroke="midnightblue" d="M400.7,-112.4C392.78,-103.66 382.56,-92.41 374.29,-83.3"/>
<polygon fill="midnightblue" stroke="midnightblue" points="376.67,-80.71 367.36,-75.66 371.49,-85.42 376.67,-80.71"/>
</g>
<!-- Node11 -->
<g id="node11" class="node">
<title>Node11</title>
<g id="a_node11"><a xlink:href="allocator__malloc_8hh_source.html" target="_top" xlink:title=" ">
<polygon fill="none" stroke="black" points="412,-56.5 412,-75.5 525,-75.5 525,-56.5 412,-56.5"/>
<text text-anchor="middle" x="468.5" y="-63.5" font-family="Helvetica,sans-Serif" font-size="10.00">allocator_malloc.hh</text>
</a>
</g>
</g>
<!-- Node8&#45;&gt;Node11 -->
<g id="edge10" class="edge">
<title>Node8&#45;&gt;Node11</title>
<path fill="none" stroke="midnightblue" d="M426.53,-112.4C434.69,-103.58 445.22,-92.18 453.69,-83.02"/>
<polygon fill="midnightblue" stroke="midnightblue" points="456.28,-85.38 460.5,-75.66 451.14,-80.63 456.28,-85.38"/>
</g>
<!-- Node12 -->
<g id="node12" class="node">
<title>Node12</title>
<g id="a_node12"><a xlink:title=" ">
<polygon fill="none" stroke="#bfbfbf" points="370.5,-0.5 370.5,-19.5 428.5,-19.5 428.5,-0.5 370.5,-0.5"/>
<text text-anchor="middle" x="399.5" y="-7.5" font-family="Helvetica,sans-Serif" font-size="10.00">memory</text>
</a>
</g>
</g>
<!-- Node11&#45;&gt;Node12 -->
<g id="edge11" class="edge">
<title>Node11&#45;&gt;Node12</title>
<path fill="none" stroke="midnightblue" d="M457.41,-56.32C447.01,-48.18 431.24,-35.84 418.78,-26.09"/>
<polygon fill="midnightblue" stroke="midnightblue" points="420.82,-23.24 410.79,-19.83 416.51,-28.75 420.82,-23.24"/>
</g>
<!-- Node13 -->
<g id="node13" class="node">
<title>Node13</title>
<g id="a_node13"><a xlink:title=" ">
<polygon fill="none" stroke="#bfbfbf" points="447,-0.5 447,-19.5 506,-19.5 506,-0.5 447,-0.5"/>
<text text-anchor="middle" x="476.5" y="-7.5" font-family="Helvetica,sans-Serif" font-size="10.00">malloc.h</text>
</a>
</g>
</g>
<!-- Node11&#45;&gt;Node13 -->
<g id="edge12" class="edge">
<title>Node11&#45;&gt;Node13</title>
<path fill="none" stroke="midnightblue" d="M469.82,-56.08C470.88,-48.93 472.41,-38.64 473.73,-29.69"/>
<polygon fill="midnightblue" stroke="midnightblue" points="477.2,-30.16 475.2,-19.75 470.28,-29.13 477.2,-30.16"/>
</g>
<!-- Node15 -->
<g id="node15" class="node">
<title>Node15</title>
<g id="a_node15"><a xlink:href="log_8h_source.html" target="_top" xlink:title=" ">
<polygon fill="none" stroke="black" points="543,-56.5 543,-75.5 584,-75.5 584,-56.5 543,-56.5"/>
<text text-anchor="middle" x="563.5" y="-63.5" font-family="Helvetica,sans-Serif" font-size="10.00">log.h</text>
</a>
</g>
</g>
<!-- Node14&#45;&gt;Node15 -->
<g id="edge14" class="edge">
<title>Node14&#45;&gt;Node15</title>
<path fill="none" stroke="midnightblue" d="M619.19,-117.98C609.05,-108.7 592.64,-93.67 580.25,-82.33"/>
<polygon fill="midnightblue" stroke="midnightblue" points="582.54,-79.68 572.8,-75.51 577.81,-84.84 582.54,-79.68"/>
</g>
<!-- Node17 -->
<g id="node17" class="node">
<title>Node17</title>
<g id="a_node17"><a xlink:title=" ">
<polygon fill="none" stroke="#bfbfbf" points="602,-56.5 602,-75.5 655,-75.5 655,-56.5 602,-56.5"/>
<text text-anchor="middle" x="628.5" y="-63.5" font-family="Helvetica,sans-Serif" font-size="10.00">stdlib.h</text>
</a>
</g>
</g>
<!-- Node14&#45;&gt;Node17 -->
<g id="edge16" class="edge">
<title>Node14&#45;&gt;Node17</title>
<path fill="none" stroke="midnightblue" d="M628.5,-117.98C628.5,-109.58 628.5,-96.48 628.5,-85.66"/>
<polygon fill="midnightblue" stroke="midnightblue" points="632,-85.51 628.5,-75.51 625,-85.51 632,-85.51"/>
</g>
<!-- Node18 -->
<g id="node18" class="node">
<title>Node18</title>
<g id="a_node18"><a xlink:title=" ">
<polygon fill="none" stroke="#bfbfbf" points="673.5,-56.5 673.5,-75.5 729.5,-75.5 729.5,-56.5 673.5,-56.5"/>
<text text-anchor="middle" x="701.5" y="-63.5" font-family="Helvetica,sans-Serif" font-size="10.00">unistd.h</text>
</a>
</g>
</g>
<!-- Node14&#45;&gt;Node18 -->
<g id="edge17" class="edge">
<title>Node14&#45;&gt;Node18</title>
<path fill="none" stroke="midnightblue" d="M638.96,-117.98C650.45,-108.61 669.13,-93.38 683.09,-82.01"/>
<polygon fill="midnightblue" stroke="midnightblue" points="685.52,-84.54 691.06,-75.51 681.1,-79.11 685.52,-84.54"/>
</g>
<!-- Node19 -->
<g id="node19" class="node">
<title>Node19</title>
<g id="a_node19"><a xlink:title=" ">
<polygon fill="none" stroke="#bfbfbf" points="747.5,-56.5 747.5,-75.5 803.5,-75.5 803.5,-56.5 747.5,-56.5"/>
<text text-anchor="middle" x="775.5" y="-63.5" font-family="Helvetica,sans-Serif" font-size="10.00">assert.h</text>
</a>
</g>
</g>
<!-- Node14&#45;&gt;Node19 -->
<g id="edge18" class="edge">
<title>Node14&#45;&gt;Node19</title>
<path fill="none" stroke="midnightblue" d="M649.56,-117.98C674.56,-107.86 716.44,-90.9 744.99,-79.35"/>
<polygon fill="midnightblue" stroke="midnightblue" points="746.52,-82.51 754.48,-75.51 743.89,-76.02 746.52,-82.51"/>
</g>
<!-- Node16 -->
<g id="node16" class="node">
<title>Node16</title>
<g id="a_node16"><a xlink:title=" ">
<polygon fill="none" stroke="#bfbfbf" points="532,-0.5 532,-19.5 595,-19.5 595,-0.5 532,-0.5"/>
<text text-anchor="middle" x="563.5" y="-7.5" font-family="Helvetica,sans-Serif" font-size="10.00">esp_log.h</text>
</a>
</g>
</g>
<!-- Node15&#45;&gt;Node16 -->
<g id="edge15" class="edge">
<title>Node15&#45;&gt;Node16</title>
<path fill="none" stroke="midnightblue" d="M563.5,-56.08C563.5,-49.01 563.5,-38.86 563.5,-29.99"/>
<polygon fill="midnightblue" stroke="midnightblue" points="567,-29.75 563.5,-19.75 560,-29.75 567,-29.75"/>
</g>
</g>
</svg>
