<?xml version="1.0" encoding="UTF-8" standalone="no"?>
<!DOCTYPE svg PUBLIC "-//W3C//DTD SVG 1.1//EN"
 "http://www.w3.org/Graphics/SVG/1.1/DTD/svg11.dtd">
<!-- Generated by graphviz version 2.43.0 (0)
 -->
<!-- Title: fernotron_trx/raw/fer_msg_type.h Pages: 1 -->
<svg width="1152pt" height="273pt"
 viewBox="0.00 0.00 1152.00 273.00" xmlns="http://www.w3.org/2000/svg" xmlns:xlink="http://www.w3.org/1999/xlink">
<g id="graph0" class="graph" transform="scale(1 1) rotate(0) translate(4 269)">
<title>fernotron_trx/raw/fer_msg_type.h</title>
<!-- Node1 -->
<g id="node1" class="node">
<title>Node1</title>
<g id="a_node1"><a xlink:title="kinds of messages">
<polygon fill="#bfbfbf" stroke="black" points="366,-234.5 366,-264.5 484,-264.5 484,-234.5 366,-234.5"/>
<text text-anchor="start" x="374" y="-252.5" font-family="Helvetica,sans-Serif" font-size="10.00">fernotron_trx/raw/fer</text>
<text text-anchor="middle" x="425" y="-241.5" font-family="Helvetica,sans-Serif" font-size="10.00">_msg_type.h</text>
</a>
</g>
</g>
<!-- Node2 -->
<g id="node2" class="node">
<title>Node2</title>
<g id="a_node2"><a xlink:href="fer__msg__plain_8h.html" target="_top" xlink:title="Data structure of plain messages or header of extended messages.">
<polygon fill="none" stroke="black" points="366,-167.5 366,-197.5 484,-197.5 484,-167.5 366,-167.5"/>
<text text-anchor="start" x="374" y="-185.5" font-family="Helvetica,sans-Serif" font-size="10.00">fernotron_trx/raw/fer</text>
<text text-anchor="middle" x="425" y="-174.5" font-family="Helvetica,sans-Serif" font-size="10.00">_msg_plain.h</text>
</a>
</g>
</g>
<!-- Node1&#45;&gt;Node2 -->
<g id="edge1" class="edge">
<title>Node1&#45;&gt;Node2</title>
<path fill="none" stroke="midnightblue" d="M425,-224.11C425,-215.15 425,-205.32 425,-197.58"/>
<polygon fill="midnightblue" stroke="midnightblue" points="421.5,-224.4 425,-234.4 428.5,-224.4 421.5,-224.4"/>
</g>
<!-- Node3 -->
<g id="node3" class="node">
<title>Node3</title>
<g id="a_node3"><a xlink:href="commands_8h.html" target="_top" xlink:title="commands to move or stop a shutter with position support">
<polygon fill="none" stroke="black" points="162,-106 162,-125 310,-125 310,-106 162,-106"/>
<text text-anchor="middle" x="236" y="-113" font-family="Helvetica,sans-Serif" font-size="10.00">fernotron/pos/commands.h</text>
</a>
</g>
</g>
<!-- Node2&#45;&gt;Node3 -->
<g id="edge2" class="edge">
<title>Node2&#45;&gt;Node3</title>
<path fill="none" stroke="midnightblue" d="M374.43,-164.11C337.66,-151.46 289.48,-134.89 260.74,-125.01"/>
<polygon fill="midnightblue" stroke="midnightblue" points="373.4,-167.45 383.99,-167.4 375.67,-160.83 373.4,-167.45"/>
</g>
<!-- Node4 -->
<g id="node4" class="node">
<title>Node4</title>
<g id="a_node4"><a xlink:href="fer__fsb_8h.html" target="_top" xlink:title="Plain raw message.">
<polygon fill="none" stroke="black" points="366,-100.5 366,-130.5 484,-130.5 484,-100.5 366,-100.5"/>
<text text-anchor="start" x="374" y="-118.5" font-family="Helvetica,sans-Serif" font-size="10.00">fernotron_trx/raw/fer</text>
<text text-anchor="middle" x="425" y="-107.5" font-family="Helvetica,sans-Serif" font-size="10.00">_fsb.h</text>
</a>
</g>
</g>
<!-- Node2&#45;&gt;Node4 -->
<g id="edge3" class="edge">
<title>Node2&#45;&gt;Node4</title>
<path fill="none" stroke="midnightblue" d="M425,-157.11C425,-148.15 425,-138.32 425,-130.58"/>
<polygon fill="midnightblue" stroke="midnightblue" points="421.5,-157.4 425,-167.4 428.5,-157.4 421.5,-157.4"/>
</g>
<!-- Node7 -->
<g id="node7" class="node">
<title>Node7</title>
<g id="a_node7"><a xlink:href="fer__api_8h_source.html" target="_top" xlink:title=" ">
<polygon fill="none" stroke="black" points="0,-0.5 0,-63.5 146,-63.5 146,-0.5 0,-0.5"/>
<text text-anchor="start" x="8" y="-51.5" font-family="Helvetica,sans-Serif" font-size="10.00">/home/bertw/proj/mcu</text>
<text text-anchor="start" x="8" y="-40.5" font-family="Helvetica,sans-Serif" font-size="10.00">/tronferno&#45;mcu/external</text>
<text text-anchor="start" x="8" y="-29.5" font-family="Helvetica,sans-Serif" font-size="10.00">/tronferno&#45;lib/components</text>
<text text-anchor="start" x="8" y="-18.5" font-family="Helvetica,sans-Serif" font-size="10.00">/fernotron_trx/priv_include</text>
<text text-anchor="middle" x="73" y="-7.5" font-family="Helvetica,sans-Serif" font-size="10.00">/fer_api.h</text>
</a>
</g>
</g>
<!-- Node2&#45;&gt;Node7 -->
<g id="edge17" class="edge">
<title>Node2&#45;&gt;Node7</title>
<path fill="none" stroke="midnightblue" d="M397.3,-161.37C384.88,-152.23 370.1,-141.2 357,-131 339.8,-117.61 338.62,-109.48 319,-100 251.81,-67.53 226.53,-85.25 155,-64 152.08,-63.13 149.12,-62.21 146.14,-61.25"/>
<polygon fill="midnightblue" stroke="midnightblue" points="395.34,-164.28 405.48,-167.37 399.48,-158.63 395.34,-164.28"/>
</g>
<!-- Node10 -->
<g id="node10" class="node">
<title>Node10</title>
<g id="a_node10"><a xlink:href="fer__msg__attachment_8h.html" target="_top" xlink:title="Extended messages.">
<polygon fill="none" stroke="black" points="578,-100.5 578,-130.5 696,-130.5 696,-100.5 578,-100.5"/>
<text text-anchor="start" x="586" y="-118.5" font-family="Helvetica,sans-Serif" font-size="10.00">fernotron_trx/raw/fer</text>
<text text-anchor="middle" x="637" y="-107.5" font-family="Helvetica,sans-Serif" font-size="10.00">_msg_attachment.h</text>
</a>
</g>
</g>
<!-- Node2&#45;&gt;Node10 -->
<g id="edge9" class="edge">
<title>Node2&#45;&gt;Node10</title>
<path fill="none" stroke="midnightblue" d="M480.63,-164.44C514.99,-153.91 558.56,-140.55 590.98,-130.61"/>
<polygon fill="midnightblue" stroke="midnightblue" points="479.27,-161.2 470.74,-167.48 481.33,-167.89 479.27,-161.2"/>
</g>
<!-- Node14 -->
<g id="node14" class="node">
<title>Node14</title>
<g id="a_node14"><a xlink:href="repeater_8h_source.html" target="_top" xlink:title=" ">
<polygon fill="none" stroke="black" points="714.5,-100.5 714.5,-130.5 839.5,-130.5 839.5,-100.5 714.5,-100.5"/>
<text text-anchor="start" x="722.5" y="-118.5" font-family="Helvetica,sans-Serif" font-size="10.00">fernotron_trx/repeater</text>
<text text-anchor="middle" x="777" y="-107.5" font-family="Helvetica,sans-Serif" font-size="10.00">/repeater.h</text>
</a>
</g>
</g>
<!-- Node2&#45;&gt;Node14 -->
<g id="edge16" class="edge">
<title>Node2&#45;&gt;Node14</title>
<path fill="none" stroke="midnightblue" d="M493.99,-169.46C550.71,-159.46 633.14,-144.71 705,-131 708.01,-130.43 711.08,-129.83 714.19,-129.23"/>
<polygon fill="midnightblue" stroke="midnightblue" points="493.3,-166.03 484.06,-171.21 494.51,-172.92 493.3,-166.03"/>
</g>
<!-- Node5 -->
<g id="node5" class="node">
<title>Node5</title>
<g id="a_node5"><a xlink:href="fer__msg__tx_8h.html" target="_top" xlink:title="Send raw messages.">
<polygon fill="none" stroke="black" points="328,-17 328,-47 446,-47 446,-17 328,-17"/>
<text text-anchor="start" x="336" y="-35" font-family="Helvetica,sans-Serif" font-size="10.00">fernotron_trx/raw/fer</text>
<text text-anchor="middle" x="387" y="-24" font-family="Helvetica,sans-Serif" font-size="10.00">_msg_tx.h</text>
</a>
</g>
</g>
<!-- Node4&#45;&gt;Node5 -->
<g id="edge4" class="edge">
<title>Node4&#45;&gt;Node5</title>
<path fill="none" stroke="midnightblue" d="M414.09,-91.11C407.45,-76.86 399.19,-59.14 393.54,-47.03"/>
<polygon fill="midnightblue" stroke="midnightblue" points="410.98,-92.72 418.38,-100.3 417.33,-89.76 410.98,-92.72"/>
</g>
<!-- Node6 -->
<g id="node6" class="node">
<title>Node6</title>
<g id="a_node6"><a xlink:href="fer__rawmsg__build_8h.html" target="_top" xlink:title="builder functions to construct (extended) raw messages">
<polygon fill="none" stroke="black" points="464,-17 464,-47 582,-47 582,-17 464,-17"/>
<text text-anchor="start" x="472" y="-35" font-family="Helvetica,sans-Serif" font-size="10.00">fernotron_trx/raw/fer</text>
<text text-anchor="middle" x="523" y="-24" font-family="Helvetica,sans-Serif" font-size="10.00">_rawmsg_build.h</text>
</a>
</g>
</g>
<!-- Node4&#45;&gt;Node6 -->
<g id="edge5" class="edge">
<title>Node4&#45;&gt;Node6</title>
<path fill="none" stroke="midnightblue" d="M450.21,-93.54C467.77,-78.93 490.73,-59.84 506.13,-47.03"/>
<polygon fill="midnightblue" stroke="midnightblue" points="447.52,-91.22 442.07,-100.3 452,-96.6 447.52,-91.22"/>
</g>
<!-- Node4&#45;&gt;Node7 -->
<g id="edge6" class="edge">
<title>Node4&#45;&gt;Node7</title>
<path fill="none" stroke="midnightblue" d="M355.78,-100.72C354.51,-100.48 353.25,-100.24 352,-100 264.57,-83.33 240.75,-87.83 155,-64 152.07,-63.18 149.09,-62.31 146.1,-61.38"/>
<polygon fill="midnightblue" stroke="midnightblue" points="355.17,-104.17 365.65,-102.63 356.5,-97.3 355.17,-104.17"/>
</g>
<!-- Node8 -->
<g id="node8" class="node">
<title>Node8</title>
<g id="a_node8"><a xlink:href="fer__msg__tx__queue_8h_source.html" target="_top" xlink:title=" ">
<polygon fill="none" stroke="black" points="164,-0.5 164,-63.5 310,-63.5 310,-0.5 164,-0.5"/>
<text text-anchor="start" x="172" y="-51.5" font-family="Helvetica,sans-Serif" font-size="10.00">/home/bertw/proj/mcu</text>
<text text-anchor="start" x="172" y="-40.5" font-family="Helvetica,sans-Serif" font-size="10.00">/tronferno&#45;mcu/external</text>
<text text-anchor="start" x="172" y="-29.5" font-family="Helvetica,sans-Serif" font-size="10.00">/tronferno&#45;lib/components</text>
<text text-anchor="start" x="172" y="-18.5" font-family="Helvetica,sans-Serif" font-size="10.00">/fernotron_trx/priv_include</text>
<text text-anchor="middle" x="237" y="-7.5" font-family="Helvetica,sans-Serif" font-size="10.00">/fer_msg_tx_queue.h</text>
</a>
</g>
</g>
<!-- Node4&#45;&gt;Node8 -->
<g id="edge7" class="edge">
<title>Node4&#45;&gt;Node8</title>
<path fill="none" stroke="midnightblue" d="M383.5,-96.51C361.18,-86.83 333.06,-74.64 307.43,-63.53"/>
<polygon fill="midnightblue" stroke="midnightblue" points="382.11,-99.72 392.68,-100.49 384.9,-93.3 382.11,-99.72"/>
</g>
<!-- Node9 -->
<g id="node9" class="node">
<title>Node9</title>
<g id="a_node9"><a xlink:href="fer__trx__incoming__event_8hh_source.html" target="_top" xlink:title=" ">
<polygon fill="none" stroke="black" points="600,-0.5 600,-63.5 750,-63.5 750,-0.5 600,-0.5"/>
<text text-anchor="start" x="608" y="-51.5" font-family="Helvetica,sans-Serif" font-size="10.00">/home/bertw/proj/mcu</text>
<text text-anchor="start" x="608" y="-40.5" font-family="Helvetica,sans-Serif" font-size="10.00">/tronferno&#45;mcu/external</text>
<text text-anchor="start" x="608" y="-29.5" font-family="Helvetica,sans-Serif" font-size="10.00">/tronferno&#45;lib/components</text>
<text text-anchor="start" x="608" y="-18.5" font-family="Helvetica,sans-Serif" font-size="10.00">/fernotron_trx/priv_include</text>
<text text-anchor="middle" x="675" y="-7.5" font-family="Helvetica,sans-Serif" font-size="10.00">/fer_trx_incoming_event.hh</text>
</a>
</g>
</g>
<!-- Node4&#45;&gt;Node9 -->
<g id="edge8" class="edge">
<title>Node4&#45;&gt;Node9</title>
<path fill="none" stroke="midnightblue" d="M483.53,-97.6C515.44,-88.16 555.55,-75.92 591,-64 593.95,-63.01 596.95,-61.98 599.97,-60.94"/>
<polygon fill="midnightblue" stroke="midnightblue" points="482.51,-94.25 473.9,-100.44 484.49,-100.97 482.51,-94.25"/>
</g>
<!-- Node10&#45;&gt;Node6 -->
<g id="edge13" class="edge">
<title>Node10&#45;&gt;Node6</title>
<path fill="none" stroke="midnightblue" d="M609.06,-94.52C588.49,-79.82 561.04,-60.19 542.72,-47.1"/>
<polygon fill="midnightblue" stroke="midnightblue" points="607.23,-97.52 617.4,-100.49 611.3,-91.83 607.23,-97.52"/>
</g>
<!-- Node10&#45;&gt;Node7 -->
<g id="edge14" class="edge">
<title>Node10&#45;&gt;Node7</title>
<path fill="none" stroke="midnightblue" d="M567.62,-107.46C436.6,-94.14 164.93,-66.35 155,-64 152.04,-63.3 149.04,-62.52 146.03,-61.67"/>
<polygon fill="midnightblue" stroke="midnightblue" points="567.64,-110.98 577.95,-108.51 568.35,-104.02 567.64,-110.98"/>
</g>
<!-- Node10&#45;&gt;Node9 -->
<g id="edge15" class="edge">
<title>Node10&#45;&gt;Node9</title>
<path fill="none" stroke="midnightblue" d="M647.85,-91.24C651.86,-82.63 656.47,-72.73 660.75,-63.57"/>
<polygon fill="midnightblue" stroke="midnightblue" points="644.67,-89.76 643.62,-100.3 651.02,-92.72 644.67,-89.76"/>
</g>
<!-- Node11 -->
<g id="node11" class="node">
<title>Node11</title>
<g id="a_node11"><a xlink:href="fer__print_8h.html" target="_top" xlink:title="Print raw message as formatted text to standard output (for debug purposes).">
<polygon fill="none" stroke="black" points="768,-17 768,-47 872,-47 872,-17 768,-17"/>
<text text-anchor="start" x="776" y="-35" font-family="Helvetica,sans-Serif" font-size="10.00">fernotron/txtio/fer</text>
<text text-anchor="middle" x="820" y="-24" font-family="Helvetica,sans-Serif" font-size="10.00">_print.h</text>
</a>
</g>
</g>
<!-- Node10&#45;&gt;Node11 -->
<g id="edge10" class="edge">
<title>Node10&#45;&gt;Node11</title>
<path fill="none" stroke="midnightblue" d="M682.63,-96.59C705.7,-87.29 734.04,-75.49 759,-64 770.44,-58.74 782.86,-52.52 793.5,-47.03"/>
<polygon fill="midnightblue" stroke="midnightblue" points="681.06,-93.45 673.08,-100.42 683.67,-99.95 681.06,-93.45"/>
</g>
<!-- Node12 -->
<g id="node12" class="node">
<title>Node12</title>
<g id="a_node12"><a xlink:href="fer__radio__trx_8h.html" target="_top" xlink:title="RF transceiver.">
<polygon fill="none" stroke="black" points="890,-17 890,-47 1008,-47 1008,-17 890,-17"/>
<text text-anchor="start" x="898" y="-35" font-family="Helvetica,sans-Serif" font-size="10.00">fernotron_trx/raw/fer</text>
<text text-anchor="middle" x="949" y="-24" font-family="Helvetica,sans-Serif" font-size="10.00">_radio_trx.h</text>
</a>
</g>
</g>
<!-- Node10&#45;&gt;Node12 -->
<g id="edge11" class="edge">
<title>Node10&#45;&gt;Node12</title>
<path fill="none" stroke="midnightblue" d="M705.7,-100.06C705.8,-100.04 705.9,-100.02 706,-100 783.74,-83.83 805.51,-88.62 881,-64 894.81,-59.49 909.56,-53 921.77,-47.11"/>
<polygon fill="midnightblue" stroke="midnightblue" points="705.17,-96.6 696.09,-102.06 706.6,-103.45 705.17,-96.6"/>
</g>
<!-- Node13 -->
<g id="node13" class="node">
<title>Node13</title>
<g id="a_node13"><a xlink:href="fer__rawmsg__buffer_8h.html" target="_top" xlink:title="Global static buffers for raw messages.">
<polygon fill="none" stroke="black" points="1026,-17 1026,-47 1144,-47 1144,-17 1026,-17"/>
<text text-anchor="start" x="1034" y="-35" font-family="Helvetica,sans-Serif" font-size="10.00">fernotron_trx/raw/fer</text>
<text text-anchor="middle" x="1085" y="-24" font-family="Helvetica,sans-Serif" font-size="10.00">_rawmsg_buffer.h</text>
</a>
</g>
</g>
<!-- Node10&#45;&gt;Node13 -->
<g id="edge12" class="edge">
<title>Node10&#45;&gt;Node13</title>
<path fill="none" stroke="midnightblue" d="M705.69,-100.05C705.8,-100.03 705.9,-100.02 706,-100 843.34,-77.67 882.95,-101.31 1017,-64 1031.5,-59.96 1046.82,-53.22 1059.24,-47.05"/>
<polygon fill="midnightblue" stroke="midnightblue" points="705.28,-96.57 696.03,-101.72 706.48,-103.47 705.28,-96.57"/>
</g>
</g>
</svg>
