<?xml version="1.0" encoding="UTF-8" standalone="no"?>
<!DOCTYPE svg PUBLIC "-//W3C//DTD SVG 1.1//EN"
 "http://www.w3.org/Graphics/SVG/1.1/DTD/svg11.dtd">
<!-- Generated by graphviz version 2.43.0 (0)
 -->
<!-- Title: fernotron_trx/raw/fer_msg_attachment.h Pages: 1 -->
<svg width="852pt" height="139pt"
 viewBox="0.00 0.00 852.00 139.00" xmlns="http://www.w3.org/2000/svg" xmlns:xlink="http://www.w3.org/1999/xlink">
<g id="graph0" class="graph" transform="scale(1 1) rotate(0) translate(4 135)">
<title>fernotron_trx/raw/fer_msg_attachment.h</title>
<!-- Node1 -->
<g id="node1" class="node">
<title>Node1</title>
<g id="a_node1"><a xlink:title="Extended messages.">
<polygon fill="#bfbfbf" stroke="black" points="326,-100.5 326,-130.5 444,-130.5 444,-100.5 326,-100.5"/>
<text text-anchor="start" x="334" y="-118.5" font-family="Helvetica,sans-Serif" font-size="10.00">fernotron_trx/raw/fer</text>
<text text-anchor="middle" x="385" y="-107.5" font-family="Helvetica,sans-Serif" font-size="10.00">_msg_attachment.h</text>
</a>
</g>
</g>
<!-- Node2 -->
<g id="node2" class="node">
<title>Node2</title>
<g id="a_node2"><a xlink:href="fer__print_8h.html" target="_top" xlink:title="Print raw message as formatted text to standard output (for debug purposes).">
<polygon fill="none" stroke="black" points="0,-17 0,-47 104,-47 104,-17 0,-17"/>
<text text-anchor="start" x="8" y="-35" font-family="Helvetica,sans-Serif" font-size="10.00">fernotron/txtio/fer</text>
<text text-anchor="middle" x="52" y="-24" font-family="Helvetica,sans-Serif" font-size="10.00">_print.h</text>
</a>
</g>
</g>
<!-- Node1&#45;&gt;Node2 -->
<g id="edge1" class="edge">
<title>Node1&#45;&gt;Node2</title>
<path fill="none" stroke="midnightblue" d="M315.8,-107.21C259.98,-100.02 180.01,-86.72 113,-64 100.17,-59.65 86.68,-53.03 75.65,-47.02"/>
<polygon fill="midnightblue" stroke="midnightblue" points="315.57,-110.71 325.93,-108.48 316.45,-103.76 315.57,-110.71"/>
</g>
<!-- Node3 -->
<g id="node3" class="node">
<title>Node3</title>
<g id="a_node3"><a xlink:href="fer__radio__trx_8h.html" target="_top" xlink:title="RF transceiver.">
<polygon fill="none" stroke="black" points="122,-17 122,-47 240,-47 240,-17 122,-17"/>
<text text-anchor="start" x="130" y="-35" font-family="Helvetica,sans-Serif" font-size="10.00">fernotron_trx/raw/fer</text>
<text text-anchor="middle" x="181" y="-24" font-family="Helvetica,sans-Serif" font-size="10.00">_radio_trx.h</text>
</a>
</g>
</g>
<!-- Node1&#45;&gt;Node3 -->
<g id="edge2" class="edge">
<title>Node1&#45;&gt;Node3</title>
<path fill="none" stroke="midnightblue" d="M335.23,-97C309.34,-87.65 277.28,-75.68 249,-64 236.29,-58.75 222.45,-52.53 210.59,-47.05"/>
<polygon fill="midnightblue" stroke="midnightblue" points="334.24,-100.36 344.83,-100.45 336.61,-93.77 334.24,-100.36"/>
</g>
<!-- Node4 -->
<g id="node4" class="node">
<title>Node4</title>
<g id="a_node4"><a xlink:href="fer__rawmsg__buffer_8h.html" target="_top" xlink:title="Global static buffers for raw messages.">
<polygon fill="none" stroke="black" points="258,-17 258,-47 376,-47 376,-17 258,-17"/>
<text text-anchor="start" x="266" y="-35" font-family="Helvetica,sans-Serif" font-size="10.00">fernotron_trx/raw/fer</text>
<text text-anchor="middle" x="317" y="-24" font-family="Helvetica,sans-Serif" font-size="10.00">_rawmsg_buffer.h</text>
</a>
</g>
</g>
<!-- Node1&#45;&gt;Node4 -->
<g id="edge3" class="edge">
<title>Node1&#45;&gt;Node4</title>
<path fill="none" stroke="midnightblue" d="M366.51,-92.33C354.46,-77.89 339.1,-59.49 328.71,-47.03"/>
<polygon fill="midnightblue" stroke="midnightblue" points="364.06,-94.87 373.16,-100.3 369.44,-90.38 364.06,-94.87"/>
</g>
<!-- Node5 -->
<g id="node5" class="node">
<title>Node5</title>
<g id="a_node5"><a xlink:href="fer__rawmsg__build_8h.html" target="_top" xlink:title="builder functions to construct (extended) raw messages">
<polygon fill="none" stroke="black" points="394,-17 394,-47 512,-47 512,-17 394,-17"/>
<text text-anchor="start" x="402" y="-35" font-family="Helvetica,sans-Serif" font-size="10.00">fernotron_trx/raw/fer</text>
<text text-anchor="middle" x="453" y="-24" font-family="Helvetica,sans-Serif" font-size="10.00">_rawmsg_build.h</text>
</a>
</g>
</g>
<!-- Node1&#45;&gt;Node5 -->
<g id="edge4" class="edge">
<title>Node1&#45;&gt;Node5</title>
<path fill="none" stroke="midnightblue" d="M403.49,-92.33C415.54,-77.89 430.9,-59.49 441.29,-47.03"/>
<polygon fill="midnightblue" stroke="midnightblue" points="400.56,-90.38 396.84,-100.3 405.94,-94.87 400.56,-90.38"/>
</g>
<!-- Node6 -->
<g id="node6" class="node">
<title>Node6</title>
<g id="a_node6"><a xlink:href="fer__api_8h_source.html" target="_top" xlink:title=" ">
<polygon fill="none" stroke="black" points="530,-0.5 530,-63.5 676,-63.5 676,-0.5 530,-0.5"/>
<text text-anchor="start" x="538" y="-51.5" font-family="Helvetica,sans-Serif" font-size="10.00">/home/bertw/proj/mcu</text>
<text text-anchor="start" x="538" y="-40.5" font-family="Helvetica,sans-Serif" font-size="10.00">/tronferno&#45;mcu/external</text>
<text text-anchor="start" x="538" y="-29.5" font-family="Helvetica,sans-Serif" font-size="10.00">/tronferno&#45;lib/components</text>
<text text-anchor="start" x="538" y="-18.5" font-family="Helvetica,sans-Serif" font-size="10.00">/fernotron_trx/priv_include</text>
<text text-anchor="middle" x="603" y="-7.5" font-family="Helvetica,sans-Serif" font-size="10.00">/fer_api.h</text>
</a>
</g>
</g>
<!-- Node1&#45;&gt;Node6 -->
<g id="edge5" class="edge">
<title>Node1&#45;&gt;Node6</title>
<path fill="none" stroke="midnightblue" d="M432.77,-96.84C458.86,-87.18 491.72,-74.97 521,-64 523.85,-62.93 526.76,-61.84 529.69,-60.74"/>
<polygon fill="midnightblue" stroke="midnightblue" points="431.29,-93.66 423.13,-100.41 433.72,-100.22 431.29,-93.66"/>
</g>
<!-- Node7 -->
<g id="node7" class="node">
<title>Node7</title>
<g id="a_node7"><a xlink:href="fer__trx__incoming__event_8hh_source.html" target="_top" xlink:title=" ">
<polygon fill="none" stroke="black" points="694,-0.5 694,-63.5 844,-63.5 844,-0.5 694,-0.5"/>
<text text-anchor="start" x="702" y="-51.5" font-family="Helvetica,sans-Serif" font-size="10.00">/home/bertw/proj/mcu</text>
<text text-anchor="start" x="702" y="-40.5" font-family="Helvetica,sans-Serif" font-size="10.00">/tronferno&#45;mcu/external</text>
<text text-anchor="start" x="702" y="-29.5" font-family="Helvetica,sans-Serif" font-size="10.00">/tronferno&#45;lib/components</text>
<text text-anchor="start" x="702" y="-18.5" font-family="Helvetica,sans-Serif" font-size="10.00">/fernotron_trx/priv_include</text>
<text text-anchor="middle" x="769" y="-7.5" font-family="Helvetica,sans-Serif" font-size="10.00">/fer_trx_incoming_event.hh</text>
</a>
</g>
</g>
<!-- Node1&#45;&gt;Node7 -->
<g id="edge6" class="edge">
<title>Node1&#45;&gt;Node7</title>
<path fill="none" stroke="midnightblue" d="M453.99,-106.61C515.31,-98.72 607.04,-84.75 685,-64 687.85,-63.24 690.75,-62.42 693.66,-61.56"/>
<polygon fill="midnightblue" stroke="midnightblue" points="453.53,-103.14 444.05,-107.87 454.41,-110.08 453.53,-103.14"/>
</g>
</g>
</svg>
