<?xml version="1.0" encoding="UTF-8" standalone="no"?>
<!DOCTYPE svg PUBLIC "-//W3C//DTD SVG 1.1//EN"
 "http://www.w3.org/Graphics/SVG/1.1/DTD/svg11.dtd">
<!-- Generated by graphviz version 2.43.0 (0)
 -->
<!-- Title: fernotron/fer_main.h Pages: 1 -->
<svg width="474pt" height="196pt"
 viewBox="0.00 0.00 474.00 196.00" xmlns="http://www.w3.org/2000/svg" xmlns:xlink="http://www.w3.org/1999/xlink">
<g id="graph0" class="graph" transform="scale(1 1) rotate(0) translate(4 192)">
<title>fernotron/fer_main.h</title>
<!-- Node1 -->
<g id="node1" class="node">
<title>Node1</title>
<g id="a_node1"><a xlink:title="Component settings.">
<polygon fill="#bfbfbf" stroke="black" points="0,-168.5 0,-187.5 117,-187.5 117,-168.5 0,-168.5"/>
<text text-anchor="middle" x="58.5" y="-175.5" font-family="Helvetica,sans-Serif" font-size="10.00">fernotron/fer_main.h</text>
</a>
</g>
</g>
<!-- Node2 -->
<g id="node2" class="node">
<title>Node2</title>
<g id="a_node2"><a xlink:title=" ">
<polygon fill="none" stroke="#bfbfbf" points="51,-0.5 51,-19.5 104,-19.5 104,-0.5 51,-0.5"/>
<text text-anchor="middle" x="77.5" y="-7.5" font-family="Helvetica,sans-Serif" font-size="10.00">stdint.h</text>
</a>
</g>
</g>
<!-- Node1&#45;&gt;Node2 -->
<g id="edge1" class="edge">
<title>Node1&#45;&gt;Node2</title>
<path fill="none" stroke="midnightblue" d="M54.53,-168.22C45.92,-147.88 27.39,-96.24 41.5,-56 45.29,-45.21 52.87,-35.08 60.1,-27.18"/>
<polygon fill="midnightblue" stroke="midnightblue" points="62.83,-29.4 67.34,-19.81 57.83,-24.49 62.83,-29.4"/>
</g>
<!-- Node3 -->
<g id="node3" class="node">
<title>Node3</title>
<g id="a_node3"><a xlink:href="gm__set_8hh.html" target="_top" xlink:title="Provide set of groups/members with iterator.">
<polygon fill="none" stroke="black" points="119.5,-112.5 119.5,-131.5 235.5,-131.5 235.5,-112.5 119.5,-112.5"/>
<text text-anchor="middle" x="177.5" y="-119.5" font-family="Helvetica,sans-Serif" font-size="10.00">fernotron/gm_set.hh</text>
</a>
</g>
</g>
<!-- Node1&#45;&gt;Node3 -->
<g id="edge2" class="edge">
<title>Node1&#45;&gt;Node3</title>
<path fill="none" stroke="midnightblue" d="M77.36,-168.44C96.77,-159.64 127.23,-145.81 149.46,-135.72"/>
<polygon fill="midnightblue" stroke="midnightblue" points="151.07,-138.84 158.73,-131.52 148.18,-132.46 151.07,-138.84"/>
</g>
<!-- Node3&#45;&gt;Node2 -->
<g id="edge6" class="edge">
<title>Node3&#45;&gt;Node2</title>
<path fill="none" stroke="midnightblue" d="M119.36,-115.5C93.54,-109.82 65.43,-98.49 49.5,-76 38.79,-60.89 50.4,-41.04 61.76,-27.27"/>
<polygon fill="midnightblue" stroke="midnightblue" points="64.57,-29.38 68.59,-19.58 59.33,-24.73 64.57,-29.38"/>
</g>
<!-- Node4 -->
<g id="node4" class="node">
<title>Node4</title>
<g id="a_node4"><a xlink:href="int__macros_8h.html" target="_top" xlink:title="Basic helper macros for integers.">
<polygon fill="none" stroke="black" points="58.5,-56.5 58.5,-75.5 190.5,-75.5 190.5,-56.5 58.5,-56.5"/>
<text text-anchor="middle" x="124.5" y="-63.5" font-family="Helvetica,sans-Serif" font-size="10.00">utils_misc/int_macros.h</text>
</a>
</g>
</g>
<!-- Node3&#45;&gt;Node4 -->
<g id="edge3" class="edge">
<title>Node3&#45;&gt;Node4</title>
<path fill="none" stroke="midnightblue" d="M168.75,-112.08C161.03,-104.22 149.6,-92.57 140.28,-83.08"/>
<polygon fill="midnightblue" stroke="midnightblue" points="142.59,-80.44 133.09,-75.75 137.6,-85.34 142.59,-80.44"/>
</g>
<!-- Node5 -->
<g id="node5" class="node">
<title>Node5</title>
<g id="a_node5"><a xlink:title=" ">
<polygon fill="none" stroke="#bfbfbf" points="209,-56.5 209,-75.5 254,-75.5 254,-56.5 209,-56.5"/>
<text text-anchor="middle" x="231.5" y="-63.5" font-family="Helvetica,sans-Serif" font-size="10.00">utility</text>
</a>
</g>
</g>
<!-- Node3&#45;&gt;Node5 -->
<g id="edge5" class="edge">
<title>Node3&#45;&gt;Node5</title>
<path fill="none" stroke="midnightblue" d="M186.42,-112.08C194.28,-104.22 205.93,-92.57 215.42,-83.08"/>
<polygon fill="midnightblue" stroke="midnightblue" points="218.15,-85.3 222.75,-75.75 213.2,-80.35 218.15,-85.3"/>
</g>
<!-- Node6 -->
<g id="node6" class="node">
<title>Node6</title>
<g id="a_node6"><a xlink:title=" ">
<polygon fill="none" stroke="#bfbfbf" points="272,-56.5 272,-75.5 325,-75.5 325,-56.5 272,-56.5"/>
<text text-anchor="middle" x="298.5" y="-63.5" font-family="Helvetica,sans-Serif" font-size="10.00">string.h</text>
</a>
</g>
</g>
<!-- Node3&#45;&gt;Node6 -->
<g id="edge7" class="edge">
<title>Node3&#45;&gt;Node6</title>
<path fill="none" stroke="midnightblue" d="M196.67,-112.44C216.41,-103.64 247.39,-89.81 269.99,-79.72"/>
<polygon fill="midnightblue" stroke="midnightblue" points="271.71,-82.79 279.42,-75.52 268.86,-76.4 271.71,-82.79"/>
</g>
<!-- Node7 -->
<g id="node7" class="node">
<title>Node7</title>
<g id="a_node7"><a xlink:href="int__types_8h_source.html" target="_top" xlink:title=" ">
<polygon fill="none" stroke="black" points="343,-56.5 343,-75.5 466,-75.5 466,-56.5 343,-56.5"/>
<text text-anchor="middle" x="404.5" y="-63.5" font-family="Helvetica,sans-Serif" font-size="10.00">utils_misc/int_types.h</text>
</a>
</g>
</g>
<!-- Node3&#45;&gt;Node7 -->
<g id="edge8" class="edge">
<title>Node3&#45;&gt;Node7</title>
<path fill="none" stroke="midnightblue" d="M213.47,-112.44C252.82,-103.08 315.99,-88.06 358.81,-77.87"/>
<polygon fill="midnightblue" stroke="midnightblue" points="359.78,-81.24 368.7,-75.52 358.16,-74.43 359.78,-81.24"/>
</g>
<!-- Node4&#45;&gt;Node2 -->
<g id="edge4" class="edge">
<title>Node4&#45;&gt;Node2</title>
<path fill="none" stroke="midnightblue" d="M116.74,-56.08C109.96,-48.3 99.96,-36.8 91.74,-27.37"/>
<polygon fill="midnightblue" stroke="midnightblue" points="94.32,-25 85.12,-19.75 89.04,-29.59 94.32,-25"/>
</g>
<!-- Node7&#45;&gt;Node2 -->
<g id="edge9" class="edge">
<title>Node7&#45;&gt;Node2</title>
<path fill="none" stroke="midnightblue" d="M352.69,-56.44C286.23,-45.47 172.61,-26.71 114.34,-17.08"/>
<polygon fill="midnightblue" stroke="midnightblue" points="114.57,-13.57 104.13,-15.4 113.43,-20.48 114.57,-13.57"/>
</g>
<!-- Node8 -->
<g id="node8" class="node">
<title>Node8</title>
<g id="a_node8"><a xlink:title=" ">
<polygon fill="none" stroke="#bfbfbf" points="373.5,-0.5 373.5,-19.5 435.5,-19.5 435.5,-0.5 373.5,-0.5"/>
<text text-anchor="middle" x="404.5" y="-7.5" font-family="Helvetica,sans-Serif" font-size="10.00">stdbool.h</text>
</a>
</g>
</g>
<!-- Node7&#45;&gt;Node8 -->
<g id="edge10" class="edge">
<title>Node7&#45;&gt;Node8</title>
<path fill="none" stroke="midnightblue" d="M404.5,-56.08C404.5,-49.01 404.5,-38.86 404.5,-29.99"/>
<polygon fill="midnightblue" stroke="midnightblue" points="408,-29.75 404.5,-19.75 401,-29.75 408,-29.75"/>
</g>
</g>
</svg>
