<?xml version="1.0" encoding="UTF-8" standalone="no"?>
<!DOCTYPE svg PUBLIC "-//W3C//DTD SVG 1.1//EN"
 "http://www.w3.org/Graphics/SVG/1.1/DTD/svg11.dtd">
<!-- Generated by graphviz version 2.43.0 (0)
 -->
<!-- Title: fernotron_uout/fer_uo_publish.h Pages: 1 -->
<svg width="1163pt" height="319pt"
 viewBox="0.00 0.00 1163.00 319.00" xmlns="http://www.w3.org/2000/svg" xmlns:xlink="http://www.w3.org/1999/xlink">
<g id="graph0" class="graph" transform="scale(1 1) rotate(0) translate(4 315)">
<title>fernotron_uout/fer_uo_publish.h</title>
<!-- Node1 -->
<g id="node1" class="node">
<title>Node1</title>
<g id="a_node1"><a xlink:title="publish fernotron_app state">
<polygon fill="#bfbfbf" stroke="black" points="937,-280.5 937,-310.5 1042,-310.5 1042,-280.5 937,-280.5"/>
<text text-anchor="start" x="945" y="-298.5" font-family="Helvetica,sans-Serif" font-size="10.00">fernotron_uout/fer</text>
<text text-anchor="middle" x="989.5" y="-287.5" font-family="Helvetica,sans-Serif" font-size="10.00">_uo_publish.h</text>
</a>
</g>
</g>
<!-- Node2 -->
<g id="node2" class="node">
<title>Node2</title>
<g id="a_node2"><a xlink:href="uo__callbacks_8h.html" target="_top" xlink:title="pub/sub interface to publish asynchronously to MQTT servers, HTTP&#45;client web&#45;sockets,...">
<polygon fill="none" stroke="black" points="833,-224.5 833,-243.5 946,-243.5 946,-224.5 833,-224.5"/>
<text text-anchor="middle" x="889.5" y="-231.5" font-family="Helvetica,sans-Serif" font-size="10.00">uout/uo_callbacks.h</text>
</a>
</g>
</g>
<!-- Node1&#45;&gt;Node2 -->
<g id="edge1" class="edge">
<title>Node1&#45;&gt;Node2</title>
<path fill="none" stroke="midnightblue" d="M965.8,-280.4C949.77,-270.86 928.7,-258.32 912.76,-248.84"/>
<polygon fill="midnightblue" stroke="midnightblue" points="914.43,-245.76 904.05,-243.66 910.86,-251.78 914.43,-245.76"/>
</g>
<!-- Node3 -->
<g id="node3" class="node">
<title>Node3</title>
<g id="a_node3"><a xlink:title=" ">
<polygon fill="none" stroke="#bfbfbf" points="887,-0.5 887,-19.5 940,-19.5 940,-0.5 887,-0.5"/>
<text text-anchor="middle" x="913.5" y="-7.5" font-family="Helvetica,sans-Serif" font-size="10.00">stdint.h</text>
</a>
</g>
</g>
<!-- Node1&#45;&gt;Node3 -->
<g id="edge29" class="edge">
<title>Node1&#45;&gt;Node3</title>
<path fill="none" stroke="midnightblue" d="M989.5,-280.28C989.5,-258.48 989.5,-215.49 989.5,-179 989.5,-179 989.5,-179 989.5,-121 989.5,-81.28 955.54,-45.5 933.02,-26.15"/>
<polygon fill="midnightblue" stroke="midnightblue" points="934.98,-23.24 925.04,-19.57 930.52,-28.63 934.98,-23.24"/>
</g>
<!-- Node18 -->
<g id="node18" class="node">
<title>Node18</title>
<g id="a_node18"><a xlink:title=" ">
<polygon fill="none" stroke="#bfbfbf" points="688,-168.5 688,-187.5 757,-187.5 757,-168.5 688,-168.5"/>
<text text-anchor="middle" x="722.5" y="-175.5" font-family="Helvetica,sans-Serif" font-size="10.00">type_traits</text>
</a>
</g>
</g>
<!-- Node1&#45;&gt;Node18 -->
<g id="edge28" class="edge">
<title>Node1&#45;&gt;Node18</title>
<path fill="none" stroke="midnightblue" d="M936.92,-282.48C903.57,-273.9 859.99,-260.9 823.5,-244 793.31,-230.02 761.51,-208.22 741.85,-193.77"/>
<polygon fill="midnightblue" stroke="midnightblue" points="743.82,-190.88 733.71,-187.71 739.64,-196.49 743.82,-190.88"/>
</g>
<!-- Node19 -->
<g id="node19" class="node">
<title>Node19</title>
<g id="a_node19"><a xlink:title=" ">
<polygon fill="none" stroke="#bfbfbf" points="1017.5,-224.5 1017.5,-243.5 1073.5,-243.5 1073.5,-224.5 1017.5,-224.5"/>
<text text-anchor="middle" x="1045.5" y="-231.5" font-family="Helvetica,sans-Serif" font-size="10.00">stddef.h</text>
</a>
</g>
</g>
<!-- Node1&#45;&gt;Node19 -->
<g id="edge30" class="edge">
<title>Node1&#45;&gt;Node19</title>
<path fill="none" stroke="midnightblue" d="M1002.77,-280.4C1011.08,-271.58 1021.8,-260.18 1030.42,-251.02"/>
<polygon fill="midnightblue" stroke="midnightblue" points="1033.05,-253.34 1037.35,-243.66 1027.95,-248.54 1033.05,-253.34"/>
</g>
<!-- Node20 -->
<g id="node20" class="node">
<title>Node20</title>
<g id="a_node20"><a xlink:href="external_2tronferno-lib_2components_2fernotron__uout_2include_2fernotron__uout_2so__msg_8h_source.html" target="_top" xlink:title=" ">
<polygon fill="none" stroke="black" points="1092,-224.5 1092,-243.5 1155,-243.5 1155,-224.5 1092,-224.5"/>
<text text-anchor="middle" x="1123.5" y="-231.5" font-family="Helvetica,sans-Serif" font-size="10.00">so_msg.h</text>
</a>
</g>
</g>
<!-- Node1&#45;&gt;Node20 -->
<g id="edge31" class="edge">
<title>Node1&#45;&gt;Node20</title>
<path fill="none" stroke="midnightblue" d="M1021.26,-280.4C1043.54,-270.51 1073.09,-257.38 1094.69,-247.79"/>
<polygon fill="midnightblue" stroke="midnightblue" points="1096.28,-250.91 1104,-243.66 1093.44,-244.52 1096.28,-250.91"/>
</g>
<!-- Node2&#45;&gt;Node3 -->
<g id="edge2" class="edge">
<title>Node2&#45;&gt;Node3</title>
<path fill="none" stroke="midnightblue" d="M891.2,-224.19C895.71,-200.41 907.92,-132.84 912.5,-76 913.75,-60.51 913.94,-42.88 913.86,-29.9"/>
<polygon fill="midnightblue" stroke="midnightblue" points="917.36,-29.8 913.73,-19.85 910.36,-29.89 917.36,-29.8"/>
</g>
<!-- Node4 -->
<g id="node4" class="node">
<title>Node4</title>
<g id="a_node4"><a xlink:href="uo__types_8h.html" target="_top" xlink:title="API parameter and return types.">
<polygon fill="none" stroke="black" points="775,-168.5 775,-187.5 870,-187.5 870,-168.5 775,-168.5"/>
<text text-anchor="middle" x="822.5" y="-175.5" font-family="Helvetica,sans-Serif" font-size="10.00">uout/uo_types.h</text>
</a>
</g>
</g>
<!-- Node2&#45;&gt;Node4 -->
<g id="edge3" class="edge">
<title>Node2&#45;&gt;Node4</title>
<path fill="none" stroke="midnightblue" d="M878.74,-224.32C868.73,-216.26 853.61,-204.08 841.57,-194.37"/>
<polygon fill="midnightblue" stroke="midnightblue" points="843.44,-191.38 833.46,-187.83 839.05,-196.83 843.44,-191.38"/>
</g>
<!-- Node2&#45;&gt;Node18 -->
<g id="edge27" class="edge">
<title>Node2&#45;&gt;Node18</title>
<path fill="none" stroke="midnightblue" d="M863.04,-224.44C834.82,-215.32 789.96,-200.81 758.53,-190.65"/>
<polygon fill="midnightblue" stroke="midnightblue" points="759.43,-187.26 748.84,-187.52 757.28,-193.92 759.43,-187.26"/>
</g>
<!-- Node4&#45;&gt;Node3 -->
<g id="edge24" class="edge">
<title>Node4&#45;&gt;Node3</title>
<path fill="none" stroke="midnightblue" d="M829.99,-168.42C844.23,-151.71 875.38,-113.19 893.5,-76 900.77,-61.07 906.09,-42.93 909.41,-29.61"/>
<polygon fill="midnightblue" stroke="midnightblue" points="912.85,-30.27 911.72,-19.73 906.03,-28.67 912.85,-30.27"/>
</g>
<!-- Node5 -->
<g id="node5" class="node">
<title>Node5</title>
<g id="a_node5"><a xlink:href="so__target__bits_8h.html" target="_top" xlink:title="flags to select output formats and targets">
<polygon fill="none" stroke="black" points="0,-0.5 0,-19.5 95,-19.5 95,-0.5 0,-0.5"/>
<text text-anchor="middle" x="47.5" y="-7.5" font-family="Helvetica,sans-Serif" font-size="10.00">so_target_bits.h</text>
</a>
</g>
</g>
<!-- Node4&#45;&gt;Node5 -->
<g id="edge4" class="edge">
<title>Node4&#45;&gt;Node5</title>
<path fill="none" stroke="midnightblue" d="M774.96,-169.16C771.76,-168.74 768.59,-168.34 765.5,-168 522.48,-140.9 457.71,-172.13 216.5,-132 122.48,-116.36 67.43,-151.68 9.5,-76 -2.63,-60.15 13.23,-40.08 28.01,-26.46"/>
<polygon fill="midnightblue" stroke="midnightblue" points="30.64,-28.81 35.92,-19.63 26.07,-23.52 30.64,-28.81"/>
</g>
<!-- Node6 -->
<g id="node6" class="node">
<title>Node6</title>
<g id="a_node6"><a xlink:href="uout__writer_8hh.html" target="_top" xlink:title="Provide an output class hierarchy which knows about the required format (text or JSON) and write func...">
<polygon fill="none" stroke="black" points="402.5,-112.5 402.5,-131.5 488.5,-131.5 488.5,-112.5 402.5,-112.5"/>
<text text-anchor="middle" x="445.5" y="-119.5" font-family="Helvetica,sans-Serif" font-size="10.00">uout_writer.hh</text>
</a>
</g>
</g>
<!-- Node4&#45;&gt;Node6 -->
<g id="edge5" class="edge">
<title>Node4&#45;&gt;Node6</title>
<path fill="none" stroke="midnightblue" d="M774.92,-169.43C771.74,-168.94 768.57,-168.46 765.5,-168 671.81,-154.02 562.5,-138.9 498.93,-130.23"/>
<polygon fill="midnightblue" stroke="midnightblue" points="499.13,-126.73 488.75,-128.85 498.19,-133.66 499.13,-126.73"/>
</g>
<!-- Node7 -->
<g id="node7" class="node">
<title>Node7</title>
<g id="a_node7"><a xlink:href="so__out_8h.html" target="_top" xlink:title="write formatted output to UoutWriter">
<polygon fill="none" stroke="black" points="18.5,-56.5 18.5,-75.5 76.5,-75.5 76.5,-56.5 18.5,-56.5"/>
<text text-anchor="middle" x="47.5" y="-63.5" font-family="Helvetica,sans-Serif" font-size="10.00">so_out.h</text>
</a>
</g>
</g>
<!-- Node4&#45;&gt;Node7 -->
<g id="edge22" class="edge">
<title>Node4&#45;&gt;Node7</title>
<path fill="none" stroke="midnightblue" d="M774.95,-169.21C771.76,-168.78 768.58,-168.37 765.5,-168 566.7,-144.37 514.18,-163.61 316.5,-132 233.33,-118.7 137.92,-93.13 86.04,-78.34"/>
<polygon fill="midnightblue" stroke="midnightblue" points="86.83,-74.93 76.26,-75.53 84.9,-81.65 86.83,-74.93"/>
</g>
<!-- Node8 -->
<g id="node8" class="node">
<title>Node8</title>
<g id="a_node8"><a xlink:href="uout__builder__json_8hh.html" target="_top" xlink:title="Create JSON output from key/val pairs.">
<polygon fill="none" stroke="black" points="132.5,-56.5 132.5,-75.5 250.5,-75.5 250.5,-56.5 132.5,-56.5"/>
<text text-anchor="middle" x="191.5" y="-63.5" font-family="Helvetica,sans-Serif" font-size="10.00">uout_builder_json.hh</text>
</a>
</g>
</g>
<!-- Node4&#45;&gt;Node8 -->
<g id="edge23" class="edge">
<title>Node4&#45;&gt;Node8</title>
<path fill="none" stroke="midnightblue" d="M774.94,-169.27C771.75,-168.82 768.58,-168.39 765.5,-168 600.72,-147.04 556.16,-165.63 393.5,-132 331.44,-119.17 261.57,-94.23 222.41,-79.25"/>
<polygon fill="midnightblue" stroke="midnightblue" points="223.5,-75.92 212.91,-75.58 220.98,-82.45 223.5,-75.92"/>
</g>
<!-- Node13 -->
<g id="node13" class="node">
<title>Node13</title>
<g id="a_node13"><a xlink:title=" ">
<polygon fill="none" stroke="#bfbfbf" points="757.5,-56.5 757.5,-75.5 813.5,-75.5 813.5,-56.5 757.5,-56.5"/>
<text text-anchor="middle" x="785.5" y="-63.5" font-family="Helvetica,sans-Serif" font-size="10.00">unistd.h</text>
</a>
</g>
</g>
<!-- Node4&#45;&gt;Node13 -->
<g id="edge25" class="edge">
<title>Node4&#45;&gt;Node13</title>
<path fill="none" stroke="midnightblue" d="M819.6,-168.37C813.6,-150.54 799.73,-109.3 791.65,-85.27"/>
<polygon fill="midnightblue" stroke="midnightblue" points="794.9,-83.95 788.39,-75.59 788.26,-86.19 794.9,-83.95"/>
</g>
<!-- Node14 -->
<g id="node14" class="node">
<title>Node14</title>
<g id="a_node14"><a xlink:title=" ">
<polygon fill="none" stroke="#bfbfbf" points="832,-56.5 832,-75.5 885,-75.5 885,-56.5 832,-56.5"/>
<text text-anchor="middle" x="858.5" y="-63.5" font-family="Helvetica,sans-Serif" font-size="10.00">string.h</text>
</a>
</g>
</g>
<!-- Node4&#45;&gt;Node14 -->
<g id="edge26" class="edge">
<title>Node4&#45;&gt;Node14</title>
<path fill="none" stroke="midnightblue" d="M825.32,-168.37C831.16,-150.54 844.66,-109.3 852.52,-85.27"/>
<polygon fill="midnightblue" stroke="midnightblue" points="855.9,-86.18 855.69,-75.59 849.25,-84.01 855.9,-86.18"/>
</g>
<!-- Node6&#45;&gt;Node3 -->
<g id="edge15" class="edge">
<title>Node6&#45;&gt;Node3</title>
<path fill="none" stroke="midnightblue" d="M488.54,-117.72C541.61,-112.75 634.06,-101.11 709.5,-76 727.98,-69.85 730.34,-63.05 748.5,-56 791.52,-39.31 843.12,-26.3 877.03,-18.65"/>
<polygon fill="midnightblue" stroke="midnightblue" points="877.95,-22.03 886.95,-16.45 876.43,-15.2 877.95,-22.03"/>
</g>
<!-- Node6&#45;&gt;Node5 -->
<g id="edge8" class="edge">
<title>Node6&#45;&gt;Node5</title>
<path fill="none" stroke="midnightblue" d="M402.38,-117.98C326.49,-112.18 172.46,-98.05 123.5,-76 98.66,-64.81 75.71,-42.91 61.67,-27.64"/>
<polygon fill="midnightblue" stroke="midnightblue" points="64.09,-25.1 54.84,-19.95 58.86,-29.75 64.09,-25.1"/>
</g>
<!-- Node6&#45;&gt;Node7 -->
<g id="edge6" class="edge">
<title>Node6&#45;&gt;Node7</title>
<path fill="none" stroke="midnightblue" d="M402.44,-116.67C335.49,-109.68 202.47,-94.78 90.5,-76 89.23,-75.79 87.94,-75.56 86.64,-75.33"/>
<polygon fill="midnightblue" stroke="midnightblue" points="87.06,-71.85 76.58,-73.42 85.75,-78.72 87.06,-71.85"/>
</g>
<!-- Node6&#45;&gt;Node8 -->
<g id="edge9" class="edge">
<title>Node6&#45;&gt;Node8</title>
<path fill="none" stroke="midnightblue" d="M405.25,-112.44C360.85,-103 289.35,-87.8 241.41,-77.61"/>
<polygon fill="midnightblue" stroke="midnightblue" points="242.07,-74.17 231.56,-75.52 240.61,-81.02 242.07,-74.17"/>
</g>
<!-- Node10 -->
<g id="node10" class="node">
<title>Node10</title>
<g id="a_node10"><a xlink:title=" ">
<polygon fill="none" stroke="#bfbfbf" points="241,-0.5 241,-19.5 306,-19.5 306,-0.5 241,-0.5"/>
<text text-anchor="middle" x="273.5" y="-7.5" font-family="Helvetica,sans-Serif" font-size="10.00">functional</text>
</a>
</g>
</g>
<!-- Node6&#45;&gt;Node10 -->
<g id="edge20" class="edge">
<title>Node6&#45;&gt;Node10</title>
<path fill="none" stroke="midnightblue" d="M402.47,-118.07C369.85,-113.68 325.93,-102.81 297.5,-76 284.67,-63.9 278.66,-44.34 275.87,-29.83"/>
<polygon fill="midnightblue" stroke="midnightblue" points="279.33,-29.26 274.31,-19.93 272.41,-30.35 279.33,-29.26"/>
</g>
<!-- Node11 -->
<g id="node11" class="node">
<title>Node11</title>
<g id="a_node11"><a xlink:href="uout__builder__plaintext_8hh_source.html" target="_top" xlink:title=" ">
<polygon fill="none" stroke="black" points="560,-56.5 560,-75.5 701,-75.5 701,-56.5 560,-56.5"/>
<text text-anchor="middle" x="630.5" y="-63.5" font-family="Helvetica,sans-Serif" font-size="10.00">uout_builder_plaintext.hh</text>
</a>
</g>
</g>
<!-- Node6&#45;&gt;Node11 -->
<g id="edge12" class="edge">
<title>Node6&#45;&gt;Node11</title>
<path fill="none" stroke="midnightblue" d="M474.81,-112.44C506.34,-103.24 556.63,-88.56 591.49,-78.39"/>
<polygon fill="midnightblue" stroke="midnightblue" points="592.7,-81.68 601.32,-75.52 590.74,-74.96 592.7,-81.68"/>
</g>
<!-- Node6&#45;&gt;Node13 -->
<g id="edge16" class="edge">
<title>Node6&#45;&gt;Node13</title>
<path fill="none" stroke="midnightblue" d="M488.57,-115.34C546.64,-107.52 653.17,-92.48 743.5,-76 744.74,-75.77 746,-75.54 747.26,-75.3"/>
<polygon fill="midnightblue" stroke="midnightblue" points="747.96,-78.73 757.08,-73.34 746.59,-71.86 747.96,-78.73"/>
</g>
<!-- Node6&#45;&gt;Node14 -->
<g id="edge17" class="edge">
<title>Node6&#45;&gt;Node14</title>
<path fill="none" stroke="midnightblue" d="M488.74,-117.63C557.31,-111.89 695.33,-98.75 821.97,-75.87"/>
<polygon fill="midnightblue" stroke="midnightblue" points="822.64,-79.31 831.85,-74.06 821.38,-72.42 822.64,-79.31"/>
</g>
<!-- Node15 -->
<g id="node15" class="node">
<title>Node15</title>
<g id="a_node15"><a xlink:title=" ">
<polygon fill="none" stroke="#bfbfbf" points="370.5,-56.5 370.5,-75.5 426.5,-75.5 426.5,-56.5 370.5,-56.5"/>
<text text-anchor="middle" x="398.5" y="-63.5" font-family="Helvetica,sans-Serif" font-size="10.00">assert.h</text>
</a>
</g>
</g>
<!-- Node6&#45;&gt;Node15 -->
<g id="edge18" class="edge">
<title>Node6&#45;&gt;Node15</title>
<path fill="none" stroke="midnightblue" d="M437.74,-112.08C430.96,-104.3 420.96,-92.8 412.74,-83.37"/>
<polygon fill="midnightblue" stroke="midnightblue" points="415.32,-81 406.12,-75.75 410.04,-85.59 415.32,-81"/>
</g>
<!-- Node16 -->
<g id="node16" class="node">
<title>Node16</title>
<g id="a_node16"><a xlink:href="itoa_8h_source.html" target="_top" xlink:title=" ">
<polygon fill="none" stroke="black" points="445,-56.5 445,-75.5 542,-75.5 542,-56.5 445,-56.5"/>
<text text-anchor="middle" x="493.5" y="-63.5" font-family="Helvetica,sans-Serif" font-size="10.00">utils_misc/itoa.h</text>
</a>
</g>
</g>
<!-- Node6&#45;&gt;Node16 -->
<g id="edge19" class="edge">
<title>Node6&#45;&gt;Node16</title>
<path fill="none" stroke="midnightblue" d="M453.43,-112.08C460.35,-104.3 470.57,-92.8 478.95,-83.37"/>
<polygon fill="midnightblue" stroke="midnightblue" points="481.69,-85.55 485.72,-75.75 476.46,-80.9 481.69,-85.55"/>
</g>
<!-- Node17 -->
<g id="node17" class="node">
<title>Node17</title>
<g id="a_node17"><a xlink:title=" ">
<polygon fill="none" stroke="#bfbfbf" points="307,-56.5 307,-75.5 352,-75.5 352,-56.5 307,-56.5"/>
<text text-anchor="middle" x="329.5" y="-63.5" font-family="Helvetica,sans-Serif" font-size="10.00">utility</text>
</a>
</g>
</g>
<!-- Node6&#45;&gt;Node17 -->
<g id="edge21" class="edge">
<title>Node6&#45;&gt;Node17</title>
<path fill="none" stroke="midnightblue" d="M427.12,-112.44C408.28,-103.68 378.77,-89.94 357.12,-79.86"/>
<polygon fill="midnightblue" stroke="midnightblue" points="358.34,-76.56 347.79,-75.52 355.38,-82.91 358.34,-76.56"/>
</g>
<!-- Node7&#45;&gt;Node5 -->
<g id="edge7" class="edge">
<title>Node7&#45;&gt;Node5</title>
<path fill="none" stroke="midnightblue" d="M47.5,-56.08C47.5,-49.01 47.5,-38.86 47.5,-29.99"/>
<polygon fill="midnightblue" stroke="midnightblue" points="51,-29.75 47.5,-19.75 44,-29.75 51,-29.75"/>
</g>
<!-- Node9 -->
<g id="node9" class="node">
<title>Node9</title>
<g id="a_node9"><a xlink:title=" ">
<polygon fill="none" stroke="#bfbfbf" points="165,-0.5 165,-19.5 218,-19.5 218,-0.5 165,-0.5"/>
<text text-anchor="middle" x="191.5" y="-7.5" font-family="Helvetica,sans-Serif" font-size="10.00">stdlib.h</text>
</a>
</g>
</g>
<!-- Node8&#45;&gt;Node9 -->
<g id="edge10" class="edge">
<title>Node8&#45;&gt;Node9</title>
<path fill="none" stroke="midnightblue" d="M191.5,-56.08C191.5,-49.01 191.5,-38.86 191.5,-29.99"/>
<polygon fill="midnightblue" stroke="midnightblue" points="195,-29.75 191.5,-19.75 188,-29.75 195,-29.75"/>
</g>
<!-- Node8&#45;&gt;Node10 -->
<g id="edge11" class="edge">
<title>Node8&#45;&gt;Node10</title>
<path fill="none" stroke="midnightblue" d="M204.67,-56.32C217.35,-47.98 236.73,-35.21 251.71,-25.35"/>
<polygon fill="midnightblue" stroke="midnightblue" points="253.93,-28.08 260.36,-19.65 250.08,-22.23 253.93,-28.08"/>
</g>
<!-- Node11&#45;&gt;Node3 -->
<g id="edge13" class="edge">
<title>Node11&#45;&gt;Node3</title>
<path fill="none" stroke="midnightblue" d="M675.34,-56.44C731.04,-45.82 825.02,-27.88 876.7,-18.02"/>
<polygon fill="midnightblue" stroke="midnightblue" points="877.58,-21.42 886.75,-16.1 876.27,-14.54 877.58,-21.42"/>
</g>
<!-- Node12 -->
<g id="node12" class="node">
<title>Node12</title>
<g id="a_node12"><a xlink:title=" ">
<polygon fill="none" stroke="#bfbfbf" points="599.5,-0.5 599.5,-19.5 661.5,-19.5 661.5,-0.5 599.5,-0.5"/>
<text text-anchor="middle" x="630.5" y="-7.5" font-family="Helvetica,sans-Serif" font-size="10.00">stdbool.h</text>
</a>
</g>
</g>
<!-- Node11&#45;&gt;Node12 -->
<g id="edge14" class="edge">
<title>Node11&#45;&gt;Node12</title>
<path fill="none" stroke="midnightblue" d="M630.5,-56.08C630.5,-49.01 630.5,-38.86 630.5,-29.99"/>
<polygon fill="midnightblue" stroke="midnightblue" points="634,-29.75 630.5,-19.75 627,-29.75 634,-29.75"/>
</g>
</g>
</svg>
