<?xml version="1.0" encoding="UTF-8" standalone="no"?>
<!DOCTYPE svg PUBLIC "-//W3C//DTD SVG 1.1//EN"
 "http://www.w3.org/Graphics/SVG/1.1/DTD/svg11.dtd">
<!-- Generated by graphviz version 2.43.0 (0)
 -->
<!-- Title: fernotron_trx/raw/fer_fsb.h Pages: 1 -->
<svg width="758pt" height="139pt"
 viewBox="0.00 0.00 758.00 139.00" xmlns="http://www.w3.org/2000/svg" xmlns:xlink="http://www.w3.org/1999/xlink">
<g id="graph0" class="graph" transform="scale(1 1) rotate(0) translate(4 135)">
<title>fernotron_trx/raw/fer_fsb.h</title>
<!-- Node1 -->
<g id="node1" class="node">
<title>Node1</title>
<g id="a_node1"><a xlink:title="Plain raw message.">
<polygon fill="#bfbfbf" stroke="black" points="286,-100.5 286,-130.5 404,-130.5 404,-100.5 286,-100.5"/>
<text text-anchor="start" x="294" y="-118.5" font-family="Helvetica,sans-Serif" font-size="10.00">fernotron_trx/raw/fer</text>
<text text-anchor="middle" x="345" y="-107.5" font-family="Helvetica,sans-Serif" font-size="10.00">_fsb.h</text>
</a>
</g>
</g>
<!-- Node2 -->
<g id="node2" class="node">
<title>Node2</title>
<g id="a_node2"><a xlink:href="fer__msg__tx_8h.html" target="_top" xlink:title="Send raw messages.">
<polygon fill="none" stroke="black" points="0,-17 0,-47 118,-47 118,-17 0,-17"/>
<text text-anchor="start" x="8" y="-35" font-family="Helvetica,sans-Serif" font-size="10.00">fernotron_trx/raw/fer</text>
<text text-anchor="middle" x="59" y="-24" font-family="Helvetica,sans-Serif" font-size="10.00">_msg_tx.h</text>
</a>
</g>
</g>
<!-- Node1&#45;&gt;Node2 -->
<g id="edge1" class="edge">
<title>Node1&#45;&gt;Node2</title>
<path fill="none" stroke="midnightblue" d="M275.94,-102.18C232.56,-93.55 175.8,-80.59 127,-64 113.36,-59.36 98.77,-52.92 86.61,-47.11"/>
<polygon fill="midnightblue" stroke="midnightblue" points="275.33,-105.63 285.82,-104.12 276.68,-98.76 275.33,-105.63"/>
</g>
<!-- Node3 -->
<g id="node3" class="node">
<title>Node3</title>
<g id="a_node3"><a xlink:href="fer__rawmsg__build_8h.html" target="_top" xlink:title="builder functions to construct (extended) raw messages">
<polygon fill="none" stroke="black" points="136,-17 136,-47 254,-47 254,-17 136,-17"/>
<text text-anchor="start" x="144" y="-35" font-family="Helvetica,sans-Serif" font-size="10.00">fernotron_trx/raw/fer</text>
<text text-anchor="middle" x="195" y="-24" font-family="Helvetica,sans-Serif" font-size="10.00">_rawmsg_build.h</text>
</a>
</g>
</g>
<!-- Node1&#45;&gt;Node3 -->
<g id="edge2" class="edge">
<title>Node1&#45;&gt;Node3</title>
<path fill="none" stroke="midnightblue" d="M310.39,-95.69C283.12,-80.88 245.69,-60.54 220.95,-47.1"/>
<polygon fill="midnightblue" stroke="midnightblue" points="308.76,-98.79 319.21,-100.49 312.1,-92.64 308.76,-98.79"/>
</g>
<!-- Node4 -->
<g id="node4" class="node">
<title>Node4</title>
<g id="a_node4"><a xlink:href="fer__api_8h_source.html" target="_top" xlink:title=" ">
<polygon fill="none" stroke="black" points="272,-0.5 272,-63.5 418,-63.5 418,-0.5 272,-0.5"/>
<text text-anchor="start" x="280" y="-51.5" font-family="Helvetica,sans-Serif" font-size="10.00">/home/bertw/proj/mcu</text>
<text text-anchor="start" x="280" y="-40.5" font-family="Helvetica,sans-Serif" font-size="10.00">/tronferno&#45;mcu/external</text>
<text text-anchor="start" x="280" y="-29.5" font-family="Helvetica,sans-Serif" font-size="10.00">/tronferno&#45;lib/components</text>
<text text-anchor="start" x="280" y="-18.5" font-family="Helvetica,sans-Serif" font-size="10.00">/fernotron_trx/priv_include</text>
<text text-anchor="middle" x="345" y="-7.5" font-family="Helvetica,sans-Serif" font-size="10.00">/fer_api.h</text>
</a>
</g>
</g>
<!-- Node1&#45;&gt;Node4 -->
<g id="edge3" class="edge">
<title>Node1&#45;&gt;Node4</title>
<path fill="none" stroke="midnightblue" d="M345,-90.12C345,-81.78 345,-72.34 345,-63.57"/>
<polygon fill="midnightblue" stroke="midnightblue" points="341.5,-90.3 345,-100.3 348.5,-90.3 341.5,-90.3"/>
</g>
<!-- Node5 -->
<g id="node5" class="node">
<title>Node5</title>
<g id="a_node5"><a xlink:href="fer__msg__tx__queue_8h_source.html" target="_top" xlink:title=" ">
<polygon fill="none" stroke="black" points="436,-0.5 436,-63.5 582,-63.5 582,-0.5 436,-0.5"/>
<text text-anchor="start" x="444" y="-51.5" font-family="Helvetica,sans-Serif" font-size="10.00">/home/bertw/proj/mcu</text>
<text text-anchor="start" x="444" y="-40.5" font-family="Helvetica,sans-Serif" font-size="10.00">/tronferno&#45;mcu/external</text>
<text text-anchor="start" x="444" y="-29.5" font-family="Helvetica,sans-Serif" font-size="10.00">/tronferno&#45;lib/components</text>
<text text-anchor="start" x="444" y="-18.5" font-family="Helvetica,sans-Serif" font-size="10.00">/fernotron_trx/priv_include</text>
<text text-anchor="middle" x="509" y="-7.5" font-family="Helvetica,sans-Serif" font-size="10.00">/fer_msg_tx_queue.h</text>
</a>
</g>
</g>
<!-- Node1&#45;&gt;Node5 -->
<g id="edge4" class="edge">
<title>Node1&#45;&gt;Node5</title>
<path fill="none" stroke="midnightblue" d="M382.25,-95.99C401.55,-86.4 425.6,-74.44 447.56,-63.53"/>
<polygon fill="midnightblue" stroke="midnightblue" points="380.59,-92.91 373.19,-100.49 383.71,-99.17 380.59,-92.91"/>
</g>
<!-- Node6 -->
<g id="node6" class="node">
<title>Node6</title>
<g id="a_node6"><a xlink:href="fer__trx__incoming__event_8hh_source.html" target="_top" xlink:title=" ">
<polygon fill="none" stroke="black" points="600,-0.5 600,-63.5 750,-63.5 750,-0.5 600,-0.5"/>
<text text-anchor="start" x="608" y="-51.5" font-family="Helvetica,sans-Serif" font-size="10.00">/home/bertw/proj/mcu</text>
<text text-anchor="start" x="608" y="-40.5" font-family="Helvetica,sans-Serif" font-size="10.00">/tronferno&#45;mcu/external</text>
<text text-anchor="start" x="608" y="-29.5" font-family="Helvetica,sans-Serif" font-size="10.00">/tronferno&#45;lib/components</text>
<text text-anchor="start" x="608" y="-18.5" font-family="Helvetica,sans-Serif" font-size="10.00">/fernotron_trx/priv_include</text>
<text text-anchor="middle" x="675" y="-7.5" font-family="Helvetica,sans-Serif" font-size="10.00">/fer_trx_incoming_event.hh</text>
</a>
</g>
</g>
<!-- Node1&#45;&gt;Node6 -->
<g id="edge5" class="edge">
<title>Node1&#45;&gt;Node6</title>
<path fill="none" stroke="midnightblue" d="M414.25,-103.17C463.91,-94.35 532.17,-80.79 591,-64 593.84,-63.19 596.72,-62.33 599.62,-61.43"/>
<polygon fill="midnightblue" stroke="midnightblue" points="413.5,-99.75 404.26,-104.93 414.71,-106.64 413.5,-99.75"/>
</g>
</g>
</svg>
