<?xml version="1.0" encoding="UTF-8" standalone="no"?>
<!DOCTYPE svg PUBLIC "-//W3C//DTD SVG 1.1//EN"
 "http://www.w3.org/Graphics/SVG/1.1/DTD/svg11.dtd">
<!-- Generated by graphviz version 2.43.0 (0)
 -->
<!-- Title: fernotron_trx/raw/fer_msg_attachment.h Pages: 1 -->
<!--zoomable 419 -->
<svg id="main" version="1.1" xmlns="http://www.w3.org/2000/svg" xmlns:xlink="http://www.w3.org/1999/xlink" xml:space="preserve" onload="init(evt)">
<style type="text/css"><![CDATA[
.edge:hover path { stroke: red; }
.edge:hover polygon { stroke: red; fill: red; }
]]></style>
<script type="text/javascript"><![CDATA[
var edges = document.getElementsByTagName('g');
if (edges && edges.length) {
  for (var i=0;i<edges.length;i++) {
    if (edges[i].id.substr(0,4)=='edge') {
      edges[i].setAttribute('class','edge');
    }
  }
}
]]></script>
        <defs>
                <circle id="rim" cx="0" cy="0" r="7"/>
                <circle id="rim2" cx="0" cy="0" r="3.5"/>
                <g id="zoomPlus">
                        <use xlink:href="#rim" fill="#404040">
                                <set attributeName="fill" to="#808080" begin="zoomplus.mouseover" end="zoomplus.mouseout"/>
                        </use>
                        <path d="M-4,0h8M0,-4v8" fill="none" stroke="white" stroke-width="1.5" pointer-events="none"/>
                </g>
                <g id="zoomMin">
                        <use xlink:href="#rim" fill="#404040">
                                <set attributeName="fill" to="#808080" begin="zoomminus.mouseover" end="zoomminus.mouseout"/>
                        </use>
                        <path d="M-4,0h8" fill="none" stroke="white" stroke-width="1.5" pointer-events="none"/>
                </g>
                <g id="dirArrow">
                        <path fill="none" stroke="white" stroke-width="1.5" d="M0,-3.0v7 M-2.5,-0.5L0,-3.0L2.5,-0.5"/>
                </g>
               <g id="resetDef">
                       <use xlink:href="#rim2" fill="#404040">
                               <set attributeName="fill" to="#808080" begin="reset.mouseover" end="reset.mouseout"/>
                       </use>
               </g>
        </defs>

<script type="text/javascript">
var viewWidth = 1123;
var viewHeight = 419;
var sectionId = 'dynsection-0';
</script>
<script xlink:href="svgpan.js"/>
<svg id="graph" class="graph">
<g id="viewport">
<title>fernotron_trx/raw/fer_msg_attachment.h</title>
<!-- Node1 -->
<g id="node1" class="node">
<title>Node1</title>
<g id="a_node1"><a xlink:title="Extended messages.">
<polygon fill="#bfbfbf" stroke="black" points="872,-380.5 872,-410.5 990,-410.5 990,-380.5 872,-380.5"/>
<text text-anchor="start" x="880" y="-398.5" font-family="Helvetica,sans-Serif" font-size="10.00">fernotron_trx/raw/fer</text>
<text text-anchor="middle" x="931" y="-387.5" font-family="Helvetica,sans-Serif" font-size="10.00">_msg_attachment.h</text>
</a>
</g>
</g>
<!-- Node2 -->
<g id="node2" class="node">
<title>Node2</title>
<g id="a_node2"><a xlink:title=" ">
<polygon fill="none" stroke="#bfbfbf" points="773.5,-118 773.5,-137 826.5,-137 826.5,-118 773.5,-118"/>
<text text-anchor="middle" x="800" y="-125" font-family="Helvetica,sans-Serif" font-size="10.00">stdint.h</text>
</a>
</g>
</g>
<!-- Node1&#45;&gt;Node2 -->
<g id="edge1" class="edge">
<title>Node1&#45;&gt;Node2</title>
<path fill="none" stroke="midnightblue" d="M937.55,-380.27C941.75,-370.34 946.81,-356.66 949,-344 956.59,-300.11 945.28,-287.06 928,-246 914.89,-214.84 915.8,-203.01 892,-179 875.43,-162.28 852.16,-149.58 833.17,-141.09"/>
<polygon fill="midnightblue" stroke="midnightblue" points="834.53,-137.87 823.96,-137.16 831.78,-144.31 834.53,-137.87"/>
</g>
<!-- Node3 -->
<g id="node3" class="node">
<title>Node3</title>
<g id="a_node3"><a xlink:href="fer__msg__plain_8h.html" target="_top" xlink:title="Data structure of plain messages or header of extended messages.">
<polygon fill="none" stroke="black" points="641.5,-319 641.5,-338 736.5,-338 736.5,-319 641.5,-319"/>
<text text-anchor="middle" x="689" y="-326" font-family="Helvetica,sans-Serif" font-size="10.00">fer_msg_plain.h</text>
</a>
</g>
</g>
<!-- Node1&#45;&gt;Node3 -->
<g id="edge2" class="edge">
<title>Node1&#45;&gt;Node3</title>
<path fill="none" stroke="midnightblue" d="M878.79,-380.48C834.37,-368.55 771.44,-351.64 730.43,-340.63"/>
<polygon fill="midnightblue" stroke="midnightblue" points="731.32,-337.24 720.75,-338.03 729.5,-344 731.32,-337.24"/>
</g>
<!-- Node27 -->
<g id="node27" class="node">
<title>Node27</title>
<g id="a_node27"><a xlink:href="fer__msg__attachment__enum_8h.html" target="_top" xlink:title="Enums for extended messages.">
<polygon fill="none" stroke="black" points="997,-313.5 997,-343.5 1115,-343.5 1115,-313.5 997,-313.5"/>
<text text-anchor="start" x="1005" y="-331.5" font-family="Helvetica,sans-Serif" font-size="10.00">fer_msg_attachment</text>
<text text-anchor="middle" x="1056" y="-320.5" font-family="Helvetica,sans-Serif" font-size="10.00">_enum.h</text>
</a>
</g>
</g>
<!-- Node1&#45;&gt;Node27 -->
<g id="edge31" class="edge">
<title>Node1&#45;&gt;Node27</title>
<path fill="none" stroke="midnightblue" d="M958.12,-380.4C976.22,-370.98 1000.23,-358.5 1019.93,-348.26"/>
<polygon fill="midnightblue" stroke="midnightblue" points="1021.67,-351.3 1028.93,-343.58 1018.44,-345.08 1021.67,-351.3"/>
</g>
<!-- Node28 -->
<g id="node28" class="node">
<title>Node28</title>
<g id="a_node28"><a xlink:href="bcd_8h_source.html" target="_top" xlink:title=" ">
<polygon fill="none" stroke="black" points="845.5,-319 845.5,-338 940.5,-338 940.5,-319 845.5,-319"/>
<text text-anchor="middle" x="893" y="-326" font-family="Helvetica,sans-Serif" font-size="10.00">utils_misc/bcd.h</text>
</a>
</g>
</g>
<!-- Node1&#45;&gt;Node28 -->
<g id="edge32" class="edge">
<title>Node1&#45;&gt;Node28</title>
<path fill="none" stroke="midnightblue" d="M922.75,-380.4C917.01,-370.56 909.3,-357.38 903.17,-346.89"/>
<polygon fill="midnightblue" stroke="midnightblue" points="906.15,-345.06 898.08,-338.19 900.11,-348.59 906.15,-345.06"/>
</g>
<!-- Node4 -->
<g id="node4" class="node">
<title>Node4</title>
<g id="a_node4"><a xlink:href="fer__msg__type_8h.html" target="_top" xlink:title="kinds of messages">
<polygon fill="none" stroke="black" points="717,-185 717,-204 809,-204 809,-185 717,-185"/>
<text text-anchor="middle" x="763" y="-192" font-family="Helvetica,sans-Serif" font-size="10.00">fer_msg_type.h</text>
</a>
</g>
</g>
<!-- Node3&#45;&gt;Node4 -->
<g id="edge3" class="edge">
<title>Node3&#45;&gt;Node4</title>
<path fill="none" stroke="midnightblue" d="M666.64,-318.91C649.33,-310.92 626.59,-297.2 616,-277 609.6,-264.8 608,-257.21 616,-246 622.43,-237 680.93,-218.81 722.17,-206.89"/>
<polygon fill="midnightblue" stroke="midnightblue" points="723.32,-210.2 731.97,-204.08 721.4,-203.47 723.32,-210.2"/>
</g>
<!-- Node5 -->
<g id="node5" class="node">
<title>Node5</title>
<g id="a_node5"><a xlink:href="fer__msg__plain__enum_8h.html" target="_top" xlink:title="Raw message for plain commands.">
<polygon fill="none" stroke="black" points="625,-252 625,-271 753,-271 753,-252 625,-252"/>
<text text-anchor="middle" x="689" y="-259" font-family="Helvetica,sans-Serif" font-size="10.00">fer_msg_plain_enum.h</text>
</a>
</g>
</g>
<!-- Node3&#45;&gt;Node5 -->
<g id="edge5" class="edge">
<title>Node3&#45;&gt;Node5</title>
<path fill="none" stroke="midnightblue" d="M689,-318.73C689,-309.18 689,-293.62 689,-281.28"/>
<polygon fill="midnightblue" stroke="midnightblue" points="692.5,-281.13 689,-271.13 685.5,-281.13 692.5,-281.13"/>
</g>
<!-- Node6 -->
<g id="node6" class="node">
<title>Node6</title>
<g id="a_node6"><a xlink:href="fer__trx__c__api_8h.html" target="_top" xlink:title="C&#45;API for sending and receiving Fernotron RF messages.">
<polygon fill="none" stroke="black" points="453,-246.5 453,-276.5 569,-276.5 569,-246.5 453,-246.5"/>
<text text-anchor="start" x="461" y="-264.5" font-family="Helvetica,sans-Serif" font-size="10.00">fernotron_trx/fer_trx</text>
<text text-anchor="middle" x="511" y="-253.5" font-family="Helvetica,sans-Serif" font-size="10.00">_c_api.h</text>
</a>
</g>
</g>
<!-- Node3&#45;&gt;Node6 -->
<g id="edge6" class="edge">
<title>Node3&#45;&gt;Node6</title>
<path fill="none" stroke="midnightblue" d="M665.36,-318.87C638.31,-308.99 593.29,-292.55 558.83,-279.97"/>
<polygon fill="midnightblue" stroke="midnightblue" points="560.01,-276.67 549.42,-276.53 557.61,-283.25 560.01,-276.67"/>
</g>
<!-- Node26 -->
<g id="node26" class="node">
<title>Node26</title>
<g id="a_node26"><a xlink:href="int__macros_8h.html" target="_top" xlink:title="Basic helper macros for integers.">
<polygon fill="none" stroke="black" points="771,-252 771,-271 903,-271 903,-252 771,-252"/>
<text text-anchor="middle" x="837" y="-259" font-family="Helvetica,sans-Serif" font-size="10.00">utils_misc/int_macros.h</text>
</a>
</g>
</g>
<!-- Node3&#45;&gt;Node26 -->
<g id="edge29" class="edge">
<title>Node3&#45;&gt;Node26</title>
<path fill="none" stroke="midnightblue" d="M708.65,-318.87C734.09,-307.7 778.6,-288.15 807.95,-275.26"/>
<polygon fill="midnightblue" stroke="midnightblue" points="809.52,-278.39 817.27,-271.17 806.7,-271.98 809.52,-278.39"/>
</g>
<!-- Node4&#45;&gt;Node2 -->
<g id="edge4" class="edge">
<title>Node4&#45;&gt;Node2</title>
<path fill="none" stroke="midnightblue" d="M767.99,-184.73C773.59,-174.89 782.83,-158.66 789.95,-146.16"/>
<polygon fill="midnightblue" stroke="midnightblue" points="793.18,-147.55 795.09,-137.13 787.1,-144.09 793.18,-147.55"/>
</g>
<!-- Node7 -->
<g id="node7" class="node">
<title>Node7</title>
<g id="a_node7"><a xlink:href="int__types_8h_source.html" target="_top" xlink:title=" ">
<polygon fill="none" stroke="black" points="509.5,-185 509.5,-204 632.5,-204 632.5,-185 509.5,-185"/>
<text text-anchor="middle" x="571" y="-192" font-family="Helvetica,sans-Serif" font-size="10.00">utils_misc/int_types.h</text>
</a>
</g>
</g>
<!-- Node6&#45;&gt;Node7 -->
<g id="edge7" class="edge">
<title>Node6&#45;&gt;Node7</title>
<path fill="none" stroke="midnightblue" d="M524.02,-246.4C533.47,-236.16 546.27,-222.3 556.12,-211.62"/>
<polygon fill="midnightblue" stroke="midnightblue" points="558.76,-213.92 562.97,-204.19 553.62,-209.17 558.76,-213.92"/>
</g>
<!-- Node9 -->
<g id="node9" class="node">
<title>Node9</title>
<g id="a_node9"><a xlink:href="timer__data_8h.html" target="_top" xlink:title="vocabulary types to program Fernotron automatic (timers)">
<polygon fill="none" stroke="black" points="381,-179.5 381,-209.5 491,-209.5 491,-179.5 381,-179.5"/>
<text text-anchor="start" x="389" y="-197.5" font-family="Helvetica,sans-Serif" font-size="10.00">fernotron_trx/timer</text>
<text text-anchor="middle" x="436" y="-186.5" font-family="Helvetica,sans-Serif" font-size="10.00">_data.h</text>
</a>
</g>
</g>
<!-- Node6&#45;&gt;Node9 -->
<g id="edge10" class="edge">
<title>Node6&#45;&gt;Node9</title>
<path fill="none" stroke="midnightblue" d="M494.73,-246.4C484.6,-237.62 471.4,-226.18 460.08,-216.37"/>
<polygon fill="midnightblue" stroke="midnightblue" points="462.09,-213.48 452.24,-209.58 457.51,-218.77 462.09,-213.48"/>
</g>
<!-- Node25 -->
<g id="node25" class="node">
<title>Node25</title>
<g id="a_node25"><a xlink:title=" ">
<polygon fill="none" stroke="#bfbfbf" points="651,-185 651,-204 699,-204 699,-185 651,-185"/>
<text text-anchor="middle" x="675" y="-192" font-family="Helvetica,sans-Serif" font-size="10.00">time.h</text>
</a>
</g>
</g>
<!-- Node6&#45;&gt;Node25 -->
<g id="edge28" class="edge">
<title>Node6&#45;&gt;Node25</title>
<path fill="none" stroke="midnightblue" d="M548.11,-246.45C574.18,-236.49 609.83,-222.7 641,-210 642.59,-209.35 644.23,-208.68 645.87,-208"/>
<polygon fill="midnightblue" stroke="midnightblue" points="647.41,-211.15 655.27,-204.04 644.69,-204.69 647.41,-211.15"/>
</g>
<!-- Node7&#45;&gt;Node2 -->
<g id="edge8" class="edge">
<title>Node7&#45;&gt;Node2</title>
<path fill="none" stroke="midnightblue" d="M601.41,-184.87C643.29,-172.98 718.61,-151.6 763.48,-138.87"/>
<polygon fill="midnightblue" stroke="midnightblue" points="764.72,-142.15 773.38,-136.06 762.81,-135.42 764.72,-142.15"/>
</g>
<!-- Node8 -->
<g id="node8" class="node">
<title>Node8</title>
<g id="a_node8"><a xlink:title=" ">
<polygon fill="none" stroke="#bfbfbf" points="552,-118 552,-137 614,-137 614,-118 552,-118"/>
<text text-anchor="middle" x="583" y="-125" font-family="Helvetica,sans-Serif" font-size="10.00">stdbool.h</text>
</a>
</g>
</g>
<!-- Node7&#45;&gt;Node8 -->
<g id="edge9" class="edge">
<title>Node7&#45;&gt;Node8</title>
<path fill="none" stroke="midnightblue" d="M572.62,-184.73C574.38,-175.18 577.26,-159.62 579.53,-147.28"/>
<polygon fill="midnightblue" stroke="midnightblue" points="583.03,-147.6 581.41,-137.13 576.15,-146.33 583.03,-147.6"/>
</g>
<!-- Node9&#45;&gt;Node2 -->
<g id="edge11" class="edge">
<title>Node9&#45;&gt;Node2</title>
<path fill="none" stroke="midnightblue" d="M491.12,-180.81C494.12,-180.18 497.09,-179.57 500,-179 594.64,-160.33 706.93,-142.6 763.52,-133.97"/>
<polygon fill="midnightblue" stroke="midnightblue" points="764.06,-137.42 773.42,-132.46 763.01,-130.5 764.06,-137.42"/>
</g>
<!-- Node9&#45;&gt;Node8 -->
<g id="edge12" class="edge">
<title>Node9&#45;&gt;Node8</title>
<path fill="none" stroke="midnightblue" d="M467.9,-179.4C493.69,-167.99 529.67,-152.08 554.51,-141.1"/>
<polygon fill="midnightblue" stroke="midnightblue" points="556.03,-144.25 563.76,-137.01 553.2,-137.85 556.03,-144.25"/>
</g>
<!-- Node10 -->
<g id="node10" class="node">
<title>Node10</title>
<g id="a_node10"><a xlink:title=" ">
<polygon fill="none" stroke="#bfbfbf" points="409.5,-118 409.5,-137 462.5,-137 462.5,-118 409.5,-118"/>
<text text-anchor="middle" x="436" y="-125" font-family="Helvetica,sans-Serif" font-size="10.00">string.h</text>
</a>
</g>
</g>
<!-- Node9&#45;&gt;Node10 -->
<g id="edge13" class="edge">
<title>Node9&#45;&gt;Node10</title>
<path fill="none" stroke="midnightblue" d="M436,-179.4C436,-170.06 436,-157.71 436,-147.52"/>
<polygon fill="midnightblue" stroke="midnightblue" points="439.5,-147.19 436,-137.19 432.5,-147.19 439.5,-147.19"/>
</g>
<!-- Node11 -->
<g id="node11" class="node">
<title>Node11</title>
<g id="a_node11"><a xlink:title=" ">
<polygon fill="none" stroke="#bfbfbf" points="480.5,-118 480.5,-137 533.5,-137 533.5,-118 480.5,-118"/>
<text text-anchor="middle" x="507" y="-125" font-family="Helvetica,sans-Serif" font-size="10.00">ctype.h</text>
</a>
</g>
</g>
<!-- Node9&#45;&gt;Node11 -->
<g id="edge14" class="edge">
<title>Node9&#45;&gt;Node11</title>
<path fill="none" stroke="midnightblue" d="M451.41,-179.4C462.81,-168.96 478.33,-154.75 490.07,-144"/>
<polygon fill="midnightblue" stroke="midnightblue" points="492.49,-146.53 497.5,-137.19 487.76,-141.37 492.49,-146.53"/>
</g>
<!-- Node12 -->
<g id="node12" class="node">
<title>Node12</title>
<g id="a_node12"><a xlink:title=" ">
<polygon fill="none" stroke="#bfbfbf" points="93,-118 93,-137 143,-137 143,-118 93,-118"/>
<text text-anchor="middle" x="118" y="-125" font-family="Helvetica,sans-Serif" font-size="10.00">stdio.h</text>
</a>
</g>
</g>
<!-- Node9&#45;&gt;Node12 -->
<g id="edge15" class="edge">
<title>Node9&#45;&gt;Node12</title>
<path fill="none" stroke="midnightblue" d="M380.96,-187.48C323.11,-180.28 229.87,-166.2 152,-143 149.85,-142.36 147.66,-141.62 145.47,-140.83"/>
<polygon fill="midnightblue" stroke="midnightblue" points="146.66,-137.54 136.07,-137.11 144.08,-144.05 146.66,-137.54"/>
</g>
<!-- Node13 -->
<g id="node13" class="node">
<title>Node13</title>
<g id="a_node13"><a xlink:href="cstring__utils_8hh_source.html" target="_top" xlink:title=" ">
<polygon fill="none" stroke="black" points="161,-112.5 161,-142.5 263,-142.5 263,-112.5 161,-112.5"/>
<text text-anchor="start" x="169" y="-130.5" font-family="Helvetica,sans-Serif" font-size="10.00">utils_misc/cstring</text>
<text text-anchor="middle" x="212" y="-119.5" font-family="Helvetica,sans-Serif" font-size="10.00">_utils.hh</text>
</a>
</g>
</g>
<!-- Node9&#45;&gt;Node13 -->
<g id="edge16" class="edge">
<title>Node9&#45;&gt;Node13</title>
<path fill="none" stroke="midnightblue" d="M387.67,-179.48C353.34,-169.51 307.07,-156.09 270.63,-145.51"/>
<polygon fill="midnightblue" stroke="midnightblue" points="271.21,-142.04 260.63,-142.61 269.26,-148.76 271.21,-142.04"/>
</g>
<!-- Node19 -->
<g id="node19" class="node">
<title>Node19</title>
<g id="a_node19"><a xlink:href="dbg_8h_source.html" target="_top" xlink:title=" ">
<polygon fill="none" stroke="black" points="314.5,-118 314.5,-137 391.5,-137 391.5,-118 314.5,-118"/>
<text text-anchor="middle" x="353" y="-125" font-family="Helvetica,sans-Serif" font-size="10.00">debug/dbg.h</text>
</a>
</g>
</g>
<!-- Node9&#45;&gt;Node19 -->
<g id="edge22" class="edge">
<title>Node9&#45;&gt;Node19</title>
<path fill="none" stroke="midnightblue" d="M417.99,-179.4C404.41,-168.76 385.82,-154.2 372,-143.38"/>
<polygon fill="midnightblue" stroke="midnightblue" points="374.13,-140.6 364.1,-137.19 369.82,-146.12 374.13,-140.6"/>
</g>
<!-- Node14 -->
<g id="node14" class="node">
<title>Node14</title>
<g id="a_node14"><a xlink:title=" ">
<polygon fill="none" stroke="#bfbfbf" points="0,-56.5 0,-75.5 50,-75.5 50,-56.5 0,-56.5"/>
<text text-anchor="middle" x="25" y="-63.5" font-family="Helvetica,sans-Serif" font-size="10.00">cstring</text>
</a>
</g>
</g>
<!-- Node13&#45;&gt;Node14 -->
<g id="edge17" class="edge">
<title>Node13&#45;&gt;Node14</title>
<path fill="none" stroke="midnightblue" d="M167.68,-112.4C134.69,-101.9 90.28,-87.77 59.82,-78.08"/>
<polygon fill="midnightblue" stroke="midnightblue" points="60.65,-74.67 50.06,-74.97 58.52,-81.34 60.65,-74.67"/>
</g>
<!-- Node15 -->
<g id="node15" class="node">
<title>Node15</title>
<g id="a_node15"><a xlink:title=" ">
<polygon fill="none" stroke="#bfbfbf" points="68.5,-56.5 68.5,-75.5 137.5,-75.5 137.5,-56.5 68.5,-56.5"/>
<text text-anchor="middle" x="103" y="-63.5" font-family="Helvetica,sans-Serif" font-size="10.00">type_traits</text>
</a>
</g>
</g>
<!-- Node13&#45;&gt;Node15 -->
<g id="edge18" class="edge">
<title>Node13&#45;&gt;Node15</title>
<path fill="none" stroke="midnightblue" d="M186.17,-112.4C168.53,-102.77 145.3,-90.09 127.87,-80.58"/>
<polygon fill="midnightblue" stroke="midnightblue" points="129.31,-77.38 118.86,-75.66 125.96,-83.52 129.31,-77.38"/>
</g>
<!-- Node16 -->
<g id="node16" class="node">
<title>Node16</title>
<g id="a_node16"><a xlink:href="allocator__malloc_8hh_source.html" target="_top" xlink:title=" ">
<polygon fill="none" stroke="black" points="155.5,-56.5 155.5,-75.5 268.5,-75.5 268.5,-56.5 155.5,-56.5"/>
<text text-anchor="middle" x="212" y="-63.5" font-family="Helvetica,sans-Serif" font-size="10.00">allocator_malloc.hh</text>
</a>
</g>
</g>
<!-- Node13&#45;&gt;Node16 -->
<g id="edge19" class="edge">
<title>Node13&#45;&gt;Node16</title>
<path fill="none" stroke="midnightblue" d="M212,-112.4C212,-104.47 212,-94.46 212,-85.86"/>
<polygon fill="midnightblue" stroke="midnightblue" points="215.5,-85.66 212,-75.66 208.5,-85.66 215.5,-85.66"/>
</g>
<!-- Node17 -->
<g id="node17" class="node">
<title>Node17</title>
<g id="a_node17"><a xlink:title=" ">
<polygon fill="none" stroke="#bfbfbf" points="221,-0.5 221,-19.5 279,-19.5 279,-0.5 221,-0.5"/>
<text text-anchor="middle" x="250" y="-7.5" font-family="Helvetica,sans-Serif" font-size="10.00">memory</text>
</a>
</g>
</g>
<!-- Node16&#45;&gt;Node17 -->
<g id="edge20" class="edge">
<title>Node16&#45;&gt;Node17</title>
<path fill="none" stroke="midnightblue" d="M218.27,-56.08C223.64,-48.46 231.52,-37.26 238.08,-27.94"/>
<polygon fill="midnightblue" stroke="midnightblue" points="240.95,-29.94 243.84,-19.75 235.22,-25.91 240.95,-29.94"/>
</g>
<!-- Node18 -->
<g id="node18" class="node">
<title>Node18</title>
<g id="a_node18"><a xlink:title=" ">
<polygon fill="none" stroke="#bfbfbf" points="143.5,-0.5 143.5,-19.5 202.5,-19.5 202.5,-0.5 143.5,-0.5"/>
<text text-anchor="middle" x="173" y="-7.5" font-family="Helvetica,sans-Serif" font-size="10.00">malloc.h</text>
</a>
</g>
</g>
<!-- Node16&#45;&gt;Node18 -->
<g id="edge21" class="edge">
<title>Node16&#45;&gt;Node18</title>
<path fill="none" stroke="midnightblue" d="M205.56,-56.08C200.05,-48.46 191.97,-37.26 185.24,-27.94"/>
<polygon fill="midnightblue" stroke="midnightblue" points="188.01,-25.81 179.32,-19.75 182.34,-29.91 188.01,-25.81"/>
</g>
<!-- Node20 -->
<g id="node20" class="node">
<title>Node20</title>
<g id="a_node20"><a xlink:href="log_8h_source.html" target="_top" xlink:title=" ">
<polygon fill="none" stroke="black" points="506.5,-56.5 506.5,-75.5 547.5,-75.5 547.5,-56.5 506.5,-56.5"/>
<text text-anchor="middle" x="527" y="-63.5" font-family="Helvetica,sans-Serif" font-size="10.00">log.h</text>
</a>
</g>
</g>
<!-- Node19&#45;&gt;Node20 -->
<g id="edge23" class="edge">
<title>Node19&#45;&gt;Node20</title>
<path fill="none" stroke="midnightblue" d="M377.93,-117.98C409.27,-107.26 463.03,-88.88 496.7,-77.36"/>
<polygon fill="midnightblue" stroke="midnightblue" points="498.13,-80.57 506.46,-74.02 495.87,-73.95 498.13,-80.57"/>
</g>
<!-- Node22 -->
<g id="node22" class="node">
<title>Node22</title>
<g id="a_node22"><a xlink:title=" ">
<polygon fill="none" stroke="#bfbfbf" points="286.5,-56.5 286.5,-75.5 339.5,-75.5 339.5,-56.5 286.5,-56.5"/>
<text text-anchor="middle" x="313" y="-63.5" font-family="Helvetica,sans-Serif" font-size="10.00">stdlib.h</text>
</a>
</g>
</g>
<!-- Node19&#45;&gt;Node22 -->
<g id="edge25" class="edge">
<title>Node19&#45;&gt;Node22</title>
<path fill="none" stroke="midnightblue" d="M347.27,-117.98C341.33,-109.14 331.88,-95.09 324.41,-83.98"/>
<polygon fill="midnightblue" stroke="midnightblue" points="327.2,-81.86 318.72,-75.51 321.39,-85.76 327.2,-81.86"/>
</g>
<!-- Node23 -->
<g id="node23" class="node">
<title>Node23</title>
<g id="a_node23"><a xlink:title=" ">
<polygon fill="none" stroke="#bfbfbf" points="358,-56.5 358,-75.5 414,-75.5 414,-56.5 358,-56.5"/>
<text text-anchor="middle" x="386" y="-63.5" font-family="Helvetica,sans-Serif" font-size="10.00">unistd.h</text>
</a>
</g>
</g>
<!-- Node19&#45;&gt;Node23 -->
<g id="edge26" class="edge">
<title>Node19&#45;&gt;Node23</title>
<path fill="none" stroke="midnightblue" d="M357.73,-117.98C362.58,-109.23 370.27,-95.37 376.4,-84.31"/>
<polygon fill="midnightblue" stroke="midnightblue" points="379.49,-85.95 381.28,-75.51 373.37,-82.56 379.49,-85.95"/>
</g>
<!-- Node24 -->
<g id="node24" class="node">
<title>Node24</title>
<g id="a_node24"><a xlink:title=" ">
<polygon fill="none" stroke="#bfbfbf" points="432,-56.5 432,-75.5 488,-75.5 488,-56.5 432,-56.5"/>
<text text-anchor="middle" x="460" y="-63.5" font-family="Helvetica,sans-Serif" font-size="10.00">assert.h</text>
</a>
</g>
</g>
<!-- Node19&#45;&gt;Node24 -->
<g id="edge27" class="edge">
<title>Node19&#45;&gt;Node24</title>
<path fill="none" stroke="midnightblue" d="M368.33,-117.98C385.97,-108.17 415.16,-91.93 435.86,-80.42"/>
<polygon fill="midnightblue" stroke="midnightblue" points="437.66,-83.43 444.7,-75.51 434.26,-77.31 437.66,-83.43"/>
</g>
<!-- Node21 -->
<g id="node21" class="node">
<title>Node21</title>
<g id="a_node21"><a xlink:title=" ">
<polygon fill="none" stroke="#bfbfbf" points="495.5,-0.5 495.5,-19.5 558.5,-19.5 558.5,-0.5 495.5,-0.5"/>
<text text-anchor="middle" x="527" y="-7.5" font-family="Helvetica,sans-Serif" font-size="10.00">esp_log.h</text>
</a>
</g>
</g>
<!-- Node20&#45;&gt;Node21 -->
<g id="edge24" class="edge">
<title>Node20&#45;&gt;Node21</title>
<path fill="none" stroke="midnightblue" d="M527,-56.08C527,-49.01 527,-38.86 527,-29.99"/>
<polygon fill="midnightblue" stroke="midnightblue" points="530.5,-29.75 527,-19.75 523.5,-29.75 530.5,-29.75"/>
</g>
<!-- Node26&#45;&gt;Node2 -->
<g id="edge30" class="edge">
<title>Node26&#45;&gt;Node2</title>
<path fill="none" stroke="midnightblue" d="M835.32,-251.85C832.34,-236.88 825.7,-205.21 818,-179 814.84,-168.23 810.66,-156.4 807.12,-146.9"/>
<polygon fill="midnightblue" stroke="midnightblue" points="810.32,-145.45 803.5,-137.34 803.77,-147.93 810.32,-145.45"/>
</g>
<!-- Node28&#45;&gt;Node2 -->
<g id="edge33" class="edge">
<title>Node28&#45;&gt;Node2</title>
<path fill="none" stroke="midnightblue" d="M898.46,-318.67C907.15,-303.43 922.15,-271.36 912,-246 893.84,-200.63 848.9,-162.82 821.79,-143.13"/>
<polygon fill="midnightblue" stroke="midnightblue" points="823.53,-140.08 813.34,-137.17 819.49,-145.8 823.53,-140.08"/>
</g>
</g>
</svg>
        <g id="navigator" transform="translate(0 0)" fill="#404254">
                <rect fill="#f2f5e9" fill-opacity="0.5" stroke="#606060" stroke-width=".5" x="0" y="0" width="60" height="60"/>
                <use id="zoomplus" xlink:href="#zoomPlus" x="17" y="9" onmousedown="handleZoom(evt,'in')"/>
                <use id="zoomminus" xlink:href="#zoomMin" x="42" y="9" onmousedown="handleZoom(evt,'out')"/>
                <use id="reset" xlink:href="#resetDef" x="30" y="36" onmousedown="handleReset()"/>
                <g id="arrowUp" xlink:href="#dirArrow" transform="translate(30 24)" onmousedown="handlePan(0,-1)">
                  <use xlink:href="#rim" fill="#404040">
                        <set attributeName="fill" to="#808080" begin="arrowUp.mouseover" end="arrowUp.mouseout"/>
                  </use>
                  <path fill="none" stroke="white" stroke-width="1.5" d="M0,-3.0v7 M-2.5,-0.5L0,-3.0L2.5,-0.5"/>
                </g>
                <g id="arrowRight" xlink:href="#dirArrow" transform="rotate(90) translate(36 -43)" onmousedown="handlePan(1,0)">
                  <use xlink:href="#rim" fill="#404040">
                        <set attributeName="fill" to="#808080" begin="arrowRight.mouseover" end="arrowRight.mouseout"/>
                  </use>
                  <path fill="none" stroke="white" stroke-width="1.5" d="M0,-3.0v7 M-2.5,-0.5L0,-3.0L2.5,-0.5"/>
                </g>
                <g id="arrowDown" xlink:href="#dirArrow" transform="rotate(180) translate(-30 -48)" onmousedown="handlePan(0,1)">
                  <use xlink:href="#rim" fill="#404040">
                        <set attributeName="fill" to="#808080" begin="arrowDown.mouseover" end="arrowDown.mouseout"/>
                  </use>
                  <path fill="none" stroke="white" stroke-width="1.5" d="M0,-3.0v7 M-2.5,-0.5L0,-3.0L2.5,-0.5"/>
                </g>
                <g id="arrowLeft" xlink:href="#dirArrow" transform="rotate(270) translate(-36 17)" onmousedown="handlePan(-1,0)">
                  <use xlink:href="#rim" fill="#404040">
                        <set attributeName="fill" to="#808080" begin="arrowLeft.mouseover" end="arrowLeft.mouseout"/>
                  </use>
                  <path fill="none" stroke="white" stroke-width="1.5" d="M0,-3.0v7 M-2.5,-0.5L0,-3.0L2.5,-0.5"/>
                </g>
        </g>
        <svg viewBox="0 0 15 15" width="100%" height="30px" preserveAspectRatio="xMaxYMin meet">
         <g id="arrow_out" transform="scale(0.3 0.3)">
          <a xlink:href="fer__msg__attachment_8h__incl_org.svg" target="_base">
           <rect id="button" ry="5" rx="5" y="6" x="6" height="38" width="38"
                fill="#f2f5e9" fill-opacity="0.5" stroke="#606060" stroke-width="1.0"/>
           <path id="arrow"
             d="M 11.500037,31.436501 C 11.940474,20.09759 22.043105,11.32322 32.158766,21.979434 L 37.068811,17.246167 C 37.068811,17.246167 37.088388,32 37.088388,32 L 22.160133,31.978069 C 22.160133,31.978069 26.997745,27.140456 26.997745,27.140456 C 18.528582,18.264221 13.291696,25.230495 11.500037,31.436501 z"
             style="fill:#404040;"/>
          </a>
         </g>
        </svg>
</svg>
