<?xml version="1.0" encoding="UTF-8" standalone="no"?>
<!DOCTYPE svg PUBLIC "-//W3C//DTD SVG 1.1//EN"
 "http://www.w3.org/Graphics/SVG/1.1/DTD/svg11.dtd">
<!-- Generated by graphviz version 2.43.0 (0)
 -->
<!-- Title: fernotron_trx/fer_trx_api.hh Pages: 1 -->
<!--zoomable 352 -->
<svg id="main" version="1.1" xmlns="http://www.w3.org/2000/svg" xmlns:xlink="http://www.w3.org/1999/xlink" xml:space="preserve" onload="init(evt)">
<style type="text/css"><![CDATA[
.edge:hover path { stroke: red; }
.edge:hover polygon { stroke: red; fill: red; }
]]></style>
<script type="text/javascript"><![CDATA[
var edges = document.getElementsByTagName('g');
if (edges && edges.length) {
  for (var i=0;i<edges.length;i++) {
    if (edges[i].id.substr(0,4)=='edge') {
      edges[i].setAttribute('class','edge');
    }
  }
}
]]></script>
        <defs>
                <circle id="rim" cx="0" cy="0" r="7"/>
                <circle id="rim2" cx="0" cy="0" r="3.5"/>
                <g id="zoomPlus">
                        <use xlink:href="#rim" fill="#404040">
                                <set attributeName="fill" to="#808080" begin="zoomplus.mouseover" end="zoomplus.mouseout"/>
                        </use>
                        <path d="M-4,0h8M0,-4v8" fill="none" stroke="white" stroke-width="1.5" pointer-events="none"/>
                </g>
                <g id="zoomMin">
                        <use xlink:href="#rim" fill="#404040">
                                <set attributeName="fill" to="#808080" begin="zoomminus.mouseover" end="zoomminus.mouseout"/>
                        </use>
                        <path d="M-4,0h8" fill="none" stroke="white" stroke-width="1.5" pointer-events="none"/>
                </g>
                <g id="dirArrow">
                        <path fill="none" stroke="white" stroke-width="1.5" d="M0,-3.0v7 M-2.5,-0.5L0,-3.0L2.5,-0.5"/>
                </g>
               <g id="resetDef">
                       <use xlink:href="#rim2" fill="#404040">
                               <set attributeName="fill" to="#808080" begin="reset.mouseover" end="reset.mouseout"/>
                       </use>
               </g>
        </defs>

<script type="text/javascript">
var viewWidth = 664;
var viewHeight = 352;
var sectionId = 'dynsection-0';
</script>
<script xlink:href="svgpan.js"/>
<svg id="graph" class="graph">
<g id="viewport">
<title>fernotron_trx/fer_trx_api.hh</title>
<!-- Node1 -->
<g id="node1" class="node">
<title>Node1</title>
<g id="a_node1"><a xlink:title="C++&#45;API for sending and receiving Fernotron RF messages.">
<polygon fill="#bfbfbf" stroke="black" points="213,-313.5 213,-343.5 329,-343.5 329,-313.5 213,-313.5"/>
<text text-anchor="start" x="221" y="-331.5" font-family="Helvetica,sans-Serif" font-size="10.00">fernotron_trx/fer_trx</text>
<text text-anchor="middle" x="271" y="-320.5" font-family="Helvetica,sans-Serif" font-size="10.00">_api.hh</text>
</a>
</g>
</g>
<!-- Node2 -->
<g id="node2" class="node">
<title>Node2</title>
<g id="a_node2"><a xlink:href="int__types_8h_source.html" target="_top" xlink:title=" ">
<polygon fill="none" stroke="black" points="45.5,-185 45.5,-204 168.5,-204 168.5,-185 45.5,-185"/>
<text text-anchor="middle" x="107" y="-192" font-family="Helvetica,sans-Serif" font-size="10.00">utils_misc/int_types.h</text>
</a>
</g>
</g>
<!-- Node1&#45;&gt;Node2 -->
<g id="edge1" class="edge">
<title>Node1&#45;&gt;Node2</title>
<path fill="none" stroke="midnightblue" d="M212.83,-317.08C186.73,-309.76 157.31,-297.47 137,-277 120.11,-259.98 112.63,-232.67 109.38,-214.41"/>
<polygon fill="midnightblue" stroke="midnightblue" points="112.82,-213.74 107.86,-204.38 105.9,-214.79 112.82,-213.74"/>
</g>
<!-- Node5 -->
<g id="node5" class="node">
<title>Node5</title>
<g id="a_node5"><a xlink:href="fer__trx__c__api_8h.html" target="_top" xlink:title="C&#45;API for sending and receiving Fernotron RF messages.">
<polygon fill="none" stroke="black" points="146,-246.5 146,-276.5 262,-276.5 262,-246.5 146,-246.5"/>
<text text-anchor="start" x="154" y="-264.5" font-family="Helvetica,sans-Serif" font-size="10.00">fernotron_trx/fer_trx</text>
<text text-anchor="middle" x="204" y="-253.5" font-family="Helvetica,sans-Serif" font-size="10.00">_c_api.h</text>
</a>
</g>
</g>
<!-- Node1&#45;&gt;Node5 -->
<g id="edge4" class="edge">
<title>Node1&#45;&gt;Node5</title>
<path fill="none" stroke="midnightblue" d="M256.46,-313.4C247.51,-304.71 235.86,-293.4 225.81,-283.66"/>
<polygon fill="midnightblue" stroke="midnightblue" points="228.12,-281.03 218.51,-276.58 223.25,-286.05 228.12,-281.03"/>
</g>
<!-- Node23 -->
<g id="node23" class="node">
<title>Node23</title>
<g id="a_node23"><a xlink:href="astro_8h.html" target="_top" xlink:title="civil dusk timer calculations">
<polygon fill="none" stroke="black" points="280.5,-252 280.5,-271 397.5,-271 397.5,-252 280.5,-252"/>
<text text-anchor="middle" x="339" y="-259" font-family="Helvetica,sans-Serif" font-size="10.00">fernotron_trx/astro.h</text>
</a>
</g>
</g>
<!-- Node1&#45;&gt;Node23 -->
<g id="edge25" class="edge">
<title>Node1&#45;&gt;Node23</title>
<path fill="none" stroke="midnightblue" d="M285.75,-313.4C296.57,-303.06 311.25,-289.02 322.46,-278.31"/>
<polygon fill="midnightblue" stroke="midnightblue" points="325.09,-280.63 329.9,-271.19 320.26,-275.57 325.09,-280.63"/>
</g>
<!-- Node24 -->
<g id="node24" class="node">
<title>Node24</title>
<g id="a_node24"><a xlink:href="fer__trx__api____inline_8hh.html" target="_top" xlink:title="Private implementation.">
<polygon fill="none" stroke="black" points="416,-252 416,-271 538,-271 538,-252 416,-252"/>
<text text-anchor="middle" x="477" y="-259" font-family="Helvetica,sans-Serif" font-size="10.00">fer_trx_api__inline.hh</text>
</a>
</g>
</g>
<!-- Node1&#45;&gt;Node24 -->
<g id="edge27" class="edge">
<title>Node1&#45;&gt;Node24</title>
<path fill="none" stroke="midnightblue" d="M315.45,-313.48C352.69,-301.72 405.24,-285.14 440.17,-274.12"/>
<polygon fill="midnightblue" stroke="midnightblue" points="441.49,-277.38 449.97,-271.03 439.38,-270.7 441.49,-277.38"/>
</g>
<!-- Node3 -->
<g id="node3" class="node">
<title>Node3</title>
<g id="a_node3"><a xlink:title=" ">
<polygon fill="none" stroke="#bfbfbf" points="80.5,-118 80.5,-137 133.5,-137 133.5,-118 80.5,-118"/>
<text text-anchor="middle" x="107" y="-125" font-family="Helvetica,sans-Serif" font-size="10.00">stdint.h</text>
</a>
</g>
</g>
<!-- Node2&#45;&gt;Node3 -->
<g id="edge2" class="edge">
<title>Node2&#45;&gt;Node3</title>
<path fill="none" stroke="midnightblue" d="M107,-184.73C107,-175.18 107,-159.62 107,-147.28"/>
<polygon fill="midnightblue" stroke="midnightblue" points="110.5,-147.13 107,-137.13 103.5,-147.13 110.5,-147.13"/>
</g>
<!-- Node4 -->
<g id="node4" class="node">
<title>Node4</title>
<g id="a_node4"><a xlink:title=" ">
<polygon fill="none" stroke="#bfbfbf" points="0,-118 0,-137 62,-137 62,-118 0,-118"/>
<text text-anchor="middle" x="31" y="-125" font-family="Helvetica,sans-Serif" font-size="10.00">stdbool.h</text>
</a>
</g>
</g>
<!-- Node2&#45;&gt;Node4 -->
<g id="edge3" class="edge">
<title>Node2&#45;&gt;Node4</title>
<path fill="none" stroke="midnightblue" d="M96.75,-184.73C84.56,-174.31 63.98,-156.71 49.09,-143.97"/>
<polygon fill="midnightblue" stroke="midnightblue" points="50.96,-140.97 41.09,-137.13 46.41,-146.29 50.96,-140.97"/>
</g>
<!-- Node5&#45;&gt;Node2 -->
<g id="edge5" class="edge">
<title>Node5&#45;&gt;Node2</title>
<path fill="none" stroke="midnightblue" d="M182.95,-246.4C166.69,-235.5 144.28,-220.48 128.02,-209.58"/>
<polygon fill="midnightblue" stroke="midnightblue" points="129.95,-206.67 119.7,-204.01 126.05,-212.48 129.95,-206.67"/>
</g>
<!-- Node6 -->
<g id="node6" class="node">
<title>Node6</title>
<g id="a_node6"><a xlink:href="timer__data_8h.html" target="_top" xlink:title="vocabulary types to program Fernotron automatic (timers)">
<polygon fill="none" stroke="black" points="187,-179.5 187,-209.5 297,-209.5 297,-179.5 187,-179.5"/>
<text text-anchor="start" x="195" y="-197.5" font-family="Helvetica,sans-Serif" font-size="10.00">fernotron_trx/timer</text>
<text text-anchor="middle" x="242" y="-186.5" font-family="Helvetica,sans-Serif" font-size="10.00">_data.h</text>
</a>
</g>
</g>
<!-- Node5&#45;&gt;Node6 -->
<g id="edge6" class="edge">
<title>Node5&#45;&gt;Node6</title>
<path fill="none" stroke="midnightblue" d="M212.25,-246.4C217.03,-238.22 223.16,-227.73 228.62,-218.39"/>
<polygon fill="midnightblue" stroke="midnightblue" points="231.75,-219.98 233.77,-209.58 225.7,-216.44 231.75,-219.98"/>
</g>
<!-- Node22 -->
<g id="node22" class="node">
<title>Node22</title>
<g id="a_node22"><a xlink:title=" ">
<polygon fill="none" stroke="#bfbfbf" points="315,-185 315,-204 363,-204 363,-185 315,-185"/>
<text text-anchor="middle" x="339" y="-192" font-family="Helvetica,sans-Serif" font-size="10.00">time.h</text>
</a>
</g>
</g>
<!-- Node5&#45;&gt;Node22 -->
<g id="edge24" class="edge">
<title>Node5&#45;&gt;Node22</title>
<path fill="none" stroke="midnightblue" d="M233.29,-246.4C256.77,-235.09 289.44,-219.36 312.23,-208.39"/>
<polygon fill="midnightblue" stroke="midnightblue" points="313.84,-211.5 321.33,-204.01 310.8,-205.19 313.84,-211.5"/>
</g>
<!-- Node6&#45;&gt;Node3 -->
<g id="edge7" class="edge">
<title>Node6&#45;&gt;Node3</title>
<path fill="none" stroke="midnightblue" d="M212.71,-179.4C189.23,-168.09 156.56,-152.36 133.77,-141.39"/>
<polygon fill="midnightblue" stroke="midnightblue" points="135.2,-138.19 124.67,-137.01 132.16,-144.5 135.2,-138.19"/>
</g>
<!-- Node6&#45;&gt;Node4 -->
<g id="edge8" class="edge">
<title>Node6&#45;&gt;Node4</title>
<path fill="none" stroke="midnightblue" d="M191.62,-179.49C157.43,-169.77 111.29,-156.24 71,-143 68.46,-142.16 65.83,-141.27 63.2,-140.36"/>
<polygon fill="midnightblue" stroke="midnightblue" points="64.36,-137.06 53.76,-137.02 62.02,-143.66 64.36,-137.06"/>
</g>
<!-- Node7 -->
<g id="node7" class="node">
<title>Node7</title>
<g id="a_node7"><a xlink:title=" ">
<polygon fill="none" stroke="#bfbfbf" points="529.5,-118 529.5,-137 582.5,-137 582.5,-118 529.5,-118"/>
<text text-anchor="middle" x="556" y="-125" font-family="Helvetica,sans-Serif" font-size="10.00">string.h</text>
</a>
</g>
</g>
<!-- Node6&#45;&gt;Node7 -->
<g id="edge9" class="edge">
<title>Node6&#45;&gt;Node7</title>
<path fill="none" stroke="midnightblue" d="M297.12,-180.8C300.12,-180.18 303.09,-179.57 306,-179 401.06,-160.29 427.87,-169.71 521,-143 523.29,-142.34 525.64,-141.58 527.98,-140.75"/>
<polygon fill="midnightblue" stroke="midnightblue" points="529.32,-143.99 537.39,-137.13 526.8,-137.46 529.32,-143.99"/>
</g>
<!-- Node8 -->
<g id="node8" class="node">
<title>Node8</title>
<g id="a_node8"><a xlink:title=" ">
<polygon fill="none" stroke="#bfbfbf" points="151.5,-118 151.5,-137 204.5,-137 204.5,-118 151.5,-118"/>
<text text-anchor="middle" x="178" y="-125" font-family="Helvetica,sans-Serif" font-size="10.00">ctype.h</text>
</a>
</g>
</g>
<!-- Node6&#45;&gt;Node8 -->
<g id="edge10" class="edge">
<title>Node6&#45;&gt;Node8</title>
<path fill="none" stroke="midnightblue" d="M228.11,-179.4C218.04,-169.16 204.38,-155.3 193.87,-144.62"/>
<polygon fill="midnightblue" stroke="midnightblue" points="196.07,-141.86 186.56,-137.19 191.08,-146.78 196.07,-141.86"/>
</g>
<!-- Node9 -->
<g id="node9" class="node">
<title>Node9</title>
<g id="a_node9"><a xlink:title=" ">
<polygon fill="none" stroke="#bfbfbf" points="223,-118 223,-137 273,-137 273,-118 223,-118"/>
<text text-anchor="middle" x="248" y="-125" font-family="Helvetica,sans-Serif" font-size="10.00">stdio.h</text>
</a>
</g>
</g>
<!-- Node6&#45;&gt;Node9 -->
<g id="edge11" class="edge">
<title>Node6&#45;&gt;Node9</title>
<path fill="none" stroke="midnightblue" d="M243.3,-179.4C244.17,-169.96 245.33,-157.45 246.27,-147.19"/>
<polygon fill="midnightblue" stroke="midnightblue" points="249.76,-147.47 247.2,-137.19 242.79,-146.83 249.76,-147.47"/>
</g>
<!-- Node10 -->
<g id="node10" class="node">
<title>Node10</title>
<g id="a_node10"><a xlink:href="cstring__utils_8hh_source.html" target="_top" xlink:title=" ">
<polygon fill="none" stroke="black" points="291,-112.5 291,-142.5 393,-142.5 393,-112.5 291,-112.5"/>
<text text-anchor="start" x="299" y="-130.5" font-family="Helvetica,sans-Serif" font-size="10.00">utils_misc/cstring</text>
<text text-anchor="middle" x="342" y="-119.5" font-family="Helvetica,sans-Serif" font-size="10.00">_utils.hh</text>
</a>
</g>
</g>
<!-- Node6&#45;&gt;Node10 -->
<g id="edge12" class="edge">
<title>Node6&#45;&gt;Node10</title>
<path fill="none" stroke="midnightblue" d="M263.7,-179.4C277.72,-170.28 296.17,-158.29 311.64,-148.24"/>
<polygon fill="midnightblue" stroke="midnightblue" points="313.87,-150.96 320.34,-142.58 310.05,-145.09 313.87,-150.96"/>
</g>
<!-- Node16 -->
<g id="node16" class="node">
<title>Node16</title>
<g id="a_node16"><a xlink:href="dbg_8h_source.html" target="_top" xlink:title=" ">
<polygon fill="none" stroke="black" points="434.5,-118 434.5,-137 511.5,-137 511.5,-118 434.5,-118"/>
<text text-anchor="middle" x="473" y="-125" font-family="Helvetica,sans-Serif" font-size="10.00">debug/dbg.h</text>
</a>
</g>
</g>
<!-- Node6&#45;&gt;Node16 -->
<g id="edge18" class="edge">
<title>Node6&#45;&gt;Node16</title>
<path fill="none" stroke="midnightblue" d="M291.84,-179.48C334.06,-167.6 393.8,-150.79 432.96,-139.77"/>
<polygon fill="midnightblue" stroke="midnightblue" points="434.01,-143.11 442.69,-137.03 432.12,-136.37 434.01,-143.11"/>
</g>
<!-- Node11 -->
<g id="node11" class="node">
<title>Node11</title>
<g id="a_node11"><a xlink:title=" ">
<polygon fill="none" stroke="#bfbfbf" points="239,-56.5 239,-75.5 289,-75.5 289,-56.5 239,-56.5"/>
<text text-anchor="middle" x="264" y="-63.5" font-family="Helvetica,sans-Serif" font-size="10.00">cstring</text>
</a>
</g>
</g>
<!-- Node10&#45;&gt;Node11 -->
<g id="edge13" class="edge">
<title>Node10&#45;&gt;Node11</title>
<path fill="none" stroke="midnightblue" d="M323.52,-112.4C311.48,-103.22 295.8,-91.26 283.56,-81.92"/>
<polygon fill="midnightblue" stroke="midnightblue" points="285.42,-78.94 275.35,-75.66 281.18,-84.51 285.42,-78.94"/>
</g>
<!-- Node12 -->
<g id="node12" class="node">
<title>Node12</title>
<g id="a_node12"><a xlink:title=" ">
<polygon fill="none" stroke="#bfbfbf" points="307.5,-56.5 307.5,-75.5 376.5,-75.5 376.5,-56.5 307.5,-56.5"/>
<text text-anchor="middle" x="342" y="-63.5" font-family="Helvetica,sans-Serif" font-size="10.00">type_traits</text>
</a>
</g>
</g>
<!-- Node10&#45;&gt;Node12 -->
<g id="edge14" class="edge">
<title>Node10&#45;&gt;Node12</title>
<path fill="none" stroke="midnightblue" d="M342,-112.4C342,-104.47 342,-94.46 342,-85.86"/>
<polygon fill="midnightblue" stroke="midnightblue" points="345.5,-85.66 342,-75.66 338.5,-85.66 345.5,-85.66"/>
</g>
<!-- Node13 -->
<g id="node13" class="node">
<title>Node13</title>
<g id="a_node13"><a xlink:href="allocator__malloc_8hh_source.html" target="_top" xlink:title=" ">
<polygon fill="none" stroke="black" points="107.5,-56.5 107.5,-75.5 220.5,-75.5 220.5,-56.5 107.5,-56.5"/>
<text text-anchor="middle" x="164" y="-63.5" font-family="Helvetica,sans-Serif" font-size="10.00">allocator_malloc.hh</text>
</a>
</g>
</g>
<!-- Node10&#45;&gt;Node13 -->
<g id="edge15" class="edge">
<title>Node10&#45;&gt;Node13</title>
<path fill="none" stroke="midnightblue" d="M299.82,-112.4C269.19,-102.16 228.23,-88.47 199.33,-78.81"/>
<polygon fill="midnightblue" stroke="midnightblue" points="200.23,-75.42 189.64,-75.57 198.02,-82.06 200.23,-75.42"/>
</g>
<!-- Node14 -->
<g id="node14" class="node">
<title>Node14</title>
<g id="a_node14"><a xlink:title=" ">
<polygon fill="none" stroke="#bfbfbf" points="97,-0.5 97,-19.5 155,-19.5 155,-0.5 97,-0.5"/>
<text text-anchor="middle" x="126" y="-7.5" font-family="Helvetica,sans-Serif" font-size="10.00">memory</text>
</a>
</g>
</g>
<!-- Node13&#45;&gt;Node14 -->
<g id="edge16" class="edge">
<title>Node13&#45;&gt;Node14</title>
<path fill="none" stroke="midnightblue" d="M157.73,-56.08C152.36,-48.46 144.48,-37.26 137.92,-27.94"/>
<polygon fill="midnightblue" stroke="midnightblue" points="140.78,-25.91 132.16,-19.75 135.05,-29.94 140.78,-25.91"/>
</g>
<!-- Node15 -->
<g id="node15" class="node">
<title>Node15</title>
<g id="a_node15"><a xlink:title=" ">
<polygon fill="none" stroke="#bfbfbf" points="173.5,-0.5 173.5,-19.5 232.5,-19.5 232.5,-0.5 173.5,-0.5"/>
<text text-anchor="middle" x="203" y="-7.5" font-family="Helvetica,sans-Serif" font-size="10.00">malloc.h</text>
</a>
</g>
</g>
<!-- Node13&#45;&gt;Node15 -->
<g id="edge17" class="edge">
<title>Node13&#45;&gt;Node15</title>
<path fill="none" stroke="midnightblue" d="M170.44,-56.08C175.95,-48.46 184.03,-37.26 190.76,-27.94"/>
<polygon fill="midnightblue" stroke="midnightblue" points="193.66,-29.91 196.68,-19.75 187.99,-25.81 193.66,-29.91"/>
</g>
<!-- Node17 -->
<g id="node17" class="node">
<title>Node17</title>
<g id="a_node17"><a xlink:href="log_8h_source.html" target="_top" xlink:title=" ">
<polygon fill="none" stroke="black" points="543.5,-56.5 543.5,-75.5 584.5,-75.5 584.5,-56.5 543.5,-56.5"/>
<text text-anchor="middle" x="564" y="-63.5" font-family="Helvetica,sans-Serif" font-size="10.00">log.h</text>
</a>
</g>
</g>
<!-- Node16&#45;&gt;Node17 -->
<g id="edge19" class="edge">
<title>Node16&#45;&gt;Node17</title>
<path fill="none" stroke="midnightblue" d="M486.04,-117.98C500.77,-108.34 524.97,-92.52 542.51,-81.05"/>
<polygon fill="midnightblue" stroke="midnightblue" points="544.53,-83.91 550.99,-75.51 540.7,-78.05 544.53,-83.91"/>
</g>
<!-- Node19 -->
<g id="node19" class="node">
<title>Node19</title>
<g id="a_node19"><a xlink:title=" ">
<polygon fill="none" stroke="#bfbfbf" points="602.5,-56.5 602.5,-75.5 655.5,-75.5 655.5,-56.5 602.5,-56.5"/>
<text text-anchor="middle" x="629" y="-63.5" font-family="Helvetica,sans-Serif" font-size="10.00">stdlib.h</text>
</a>
</g>
</g>
<!-- Node16&#45;&gt;Node19 -->
<g id="edge21" class="edge">
<title>Node16&#45;&gt;Node19</title>
<path fill="none" stroke="midnightblue" d="M495.35,-117.98C521.99,-107.81 566.71,-90.76 597.01,-79.2"/>
<polygon fill="midnightblue" stroke="midnightblue" points="598.59,-82.34 606.69,-75.51 596.1,-75.8 598.59,-82.34"/>
</g>
<!-- Node20 -->
<g id="node20" class="node">
<title>Node20</title>
<g id="a_node20"><a xlink:title=" ">
<polygon fill="none" stroke="#bfbfbf" points="395,-56.5 395,-75.5 451,-75.5 451,-56.5 395,-56.5"/>
<text text-anchor="middle" x="423" y="-63.5" font-family="Helvetica,sans-Serif" font-size="10.00">unistd.h</text>
</a>
</g>
</g>
<!-- Node16&#45;&gt;Node20 -->
<g id="edge22" class="edge">
<title>Node16&#45;&gt;Node20</title>
<path fill="none" stroke="midnightblue" d="M465.84,-117.98C458.26,-108.96 446.13,-94.52 436.71,-83.31"/>
<polygon fill="midnightblue" stroke="midnightblue" points="439.26,-80.91 430.15,-75.51 433.9,-85.42 439.26,-80.91"/>
</g>
<!-- Node21 -->
<g id="node21" class="node">
<title>Node21</title>
<g id="a_node21"><a xlink:title=" ">
<polygon fill="none" stroke="#bfbfbf" points="469,-56.5 469,-75.5 525,-75.5 525,-56.5 469,-56.5"/>
<text text-anchor="middle" x="497" y="-63.5" font-family="Helvetica,sans-Serif" font-size="10.00">assert.h</text>
</a>
</g>
</g>
<!-- Node16&#45;&gt;Node21 -->
<g id="edge23" class="edge">
<title>Node16&#45;&gt;Node21</title>
<path fill="none" stroke="midnightblue" d="M476.44,-117.98C479.9,-109.4 485.33,-95.93 489.75,-84.98"/>
<polygon fill="midnightblue" stroke="midnightblue" points="493.07,-86.09 493.57,-75.51 486.58,-83.47 493.07,-86.09"/>
</g>
<!-- Node18 -->
<g id="node18" class="node">
<title>Node18</title>
<g id="a_node18"><a xlink:title=" ">
<polygon fill="none" stroke="#bfbfbf" points="532.5,-0.5 532.5,-19.5 595.5,-19.5 595.5,-0.5 532.5,-0.5"/>
<text text-anchor="middle" x="564" y="-7.5" font-family="Helvetica,sans-Serif" font-size="10.00">esp_log.h</text>
</a>
</g>
</g>
<!-- Node17&#45;&gt;Node18 -->
<g id="edge20" class="edge">
<title>Node17&#45;&gt;Node18</title>
<path fill="none" stroke="midnightblue" d="M564,-56.08C564,-49.01 564,-38.86 564,-29.99"/>
<polygon fill="midnightblue" stroke="midnightblue" points="567.5,-29.75 564,-19.75 560.5,-29.75 567.5,-29.75"/>
</g>
<!-- Node23&#45;&gt;Node22 -->
<g id="edge26" class="edge">
<title>Node23&#45;&gt;Node22</title>
<path fill="none" stroke="midnightblue" d="M339,-251.73C339,-242.18 339,-226.62 339,-214.28"/>
<polygon fill="midnightblue" stroke="midnightblue" points="342.5,-214.13 339,-204.13 335.5,-214.13 342.5,-214.13"/>
</g>
</g>
</svg>
        <g id="navigator" transform="translate(0 0)" fill="#404254">
                <rect fill="#f2f5e9" fill-opacity="0.5" stroke="#606060" stroke-width=".5" x="0" y="0" width="60" height="60"/>
                <use id="zoomplus" xlink:href="#zoomPlus" x="17" y="9" onmousedown="handleZoom(evt,'in')"/>
                <use id="zoomminus" xlink:href="#zoomMin" x="42" y="9" onmousedown="handleZoom(evt,'out')"/>
                <use id="reset" xlink:href="#resetDef" x="30" y="36" onmousedown="handleReset()"/>
                <g id="arrowUp" xlink:href="#dirArrow" transform="translate(30 24)" onmousedown="handlePan(0,-1)">
                  <use xlink:href="#rim" fill="#404040">
                        <set attributeName="fill" to="#808080" begin="arrowUp.mouseover" end="arrowUp.mouseout"/>
                  </use>
                  <path fill="none" stroke="white" stroke-width="1.5" d="M0,-3.0v7 M-2.5,-0.5L0,-3.0L2.5,-0.5"/>
                </g>
                <g id="arrowRight" xlink:href="#dirArrow" transform="rotate(90) translate(36 -43)" onmousedown="handlePan(1,0)">
                  <use xlink:href="#rim" fill="#404040">
                        <set attributeName="fill" to="#808080" begin="arrowRight.mouseover" end="arrowRight.mouseout"/>
                  </use>
                  <path fill="none" stroke="white" stroke-width="1.5" d="M0,-3.0v7 M-2.5,-0.5L0,-3.0L2.5,-0.5"/>
                </g>
                <g id="arrowDown" xlink:href="#dirArrow" transform="rotate(180) translate(-30 -48)" onmousedown="handlePan(0,1)">
                  <use xlink:href="#rim" fill="#404040">
                        <set attributeName="fill" to="#808080" begin="arrowDown.mouseover" end="arrowDown.mouseout"/>
                  </use>
                  <path fill="none" stroke="white" stroke-width="1.5" d="M0,-3.0v7 M-2.5,-0.5L0,-3.0L2.5,-0.5"/>
                </g>
                <g id="arrowLeft" xlink:href="#dirArrow" transform="rotate(270) translate(-36 17)" onmousedown="handlePan(-1,0)">
                  <use xlink:href="#rim" fill="#404040">
                        <set attributeName="fill" to="#808080" begin="arrowLeft.mouseover" end="arrowLeft.mouseout"/>
                  </use>
                  <path fill="none" stroke="white" stroke-width="1.5" d="M0,-3.0v7 M-2.5,-0.5L0,-3.0L2.5,-0.5"/>
                </g>
        </g>
        <svg viewBox="0 0 15 15" width="100%" height="30px" preserveAspectRatio="xMaxYMin meet">
         <g id="arrow_out" transform="scale(0.3 0.3)">
          <a xlink:href="fer__trx__api_8hh__incl_org.svg" target="_base">
           <rect id="button" ry="5" rx="5" y="6" x="6" height="38" width="38"
                fill="#f2f5e9" fill-opacity="0.5" stroke="#606060" stroke-width="1.0"/>
           <path id="arrow"
             d="M 11.500037,31.436501 C 11.940474,20.09759 22.043105,11.32322 32.158766,21.979434 L 37.068811,17.246167 C 37.068811,17.246167 37.088388,32 37.088388,32 L 22.160133,31.978069 C 22.160133,31.978069 26.997745,27.140456 26.997745,27.140456 C 18.528582,18.264221 13.291696,25.230495 11.500037,31.436501 z"
             style="fill:#404040;"/>
          </a>
         </g>
        </svg>
</svg>
