<?xml version="1.0" encoding="UTF-8" standalone="no"?>
<!DOCTYPE svg PUBLIC "-//W3C//DTD SVG 1.1//EN"
 "http://www.w3.org/Graphics/SVG/1.1/DTD/svg11.dtd">
<!-- Generated by graphviz version 2.43.0 (0)
 -->
<!-- Title: fernotron/fer_pct.h Pages: 1 -->
<svg width="243pt" height="140pt"
 viewBox="0.00 0.00 242.50 140.00" xmlns="http://www.w3.org/2000/svg" xmlns:xlink="http://www.w3.org/1999/xlink">
<g id="graph0" class="graph" transform="scale(1 1) rotate(0) translate(4 136)">
<title>fernotron/fer_pct.h</title>
<!-- Node1 -->
<g id="node1" class="node">
<title>Node1</title>
<g id="a_node1"><a xlink:title="class Pct to represent shutter opening percentage">
<polygon fill="#bfbfbf" stroke="black" points="0,-112.5 0,-131.5 107,-131.5 107,-112.5 0,-112.5"/>
<text text-anchor="middle" x="53.5" y="-119.5" font-family="Helvetica,sans-Serif" font-size="10.00">fernotron/fer_pct.h</text>
</a>
</g>
</g>
<!-- Node2 -->
<g id="node2" class="node">
<title>Node2</title>
<g id="a_node2"><a xlink:title=" ">
<polygon fill="none" stroke="#bfbfbf" points="55,-0.5 55,-19.5 108,-19.5 108,-0.5 55,-0.5"/>
<text text-anchor="middle" x="81.5" y="-7.5" font-family="Helvetica,sans-Serif" font-size="10.00">stdint.h</text>
</a>
</g>
</g>
<!-- Node1&#45;&gt;Node2 -->
<g id="edge1" class="edge">
<title>Node1&#45;&gt;Node2</title>
<path fill="none" stroke="midnightblue" d="M41.51,-112.36C26.04,-100.09 2.34,-76.78 13.5,-56 21.12,-41.82 35.4,-31.35 48.91,-24.1"/>
<polygon fill="midnightblue" stroke="midnightblue" points="50.63,-27.16 58.05,-19.59 47.53,-20.88 50.63,-27.16"/>
</g>
<!-- Node3 -->
<g id="node3" class="node">
<title>Node3</title>
<g id="a_node3"><a xlink:title=" ">
<polygon fill="none" stroke="#bfbfbf" points="22.5,-56.5 22.5,-75.5 84.5,-75.5 84.5,-56.5 22.5,-56.5"/>
<text text-anchor="middle" x="53.5" y="-63.5" font-family="Helvetica,sans-Serif" font-size="10.00">stdbool.h</text>
</a>
</g>
</g>
<!-- Node1&#45;&gt;Node3 -->
<g id="edge2" class="edge">
<title>Node1&#45;&gt;Node3</title>
<path fill="none" stroke="midnightblue" d="M53.5,-112.08C53.5,-105.01 53.5,-94.86 53.5,-85.99"/>
<polygon fill="midnightblue" stroke="midnightblue" points="57,-85.75 53.5,-75.75 50,-85.75 57,-85.75"/>
</g>
<!-- Node4 -->
<g id="node4" class="node">
<title>Node4</title>
<g id="a_node4"><a xlink:href="int__macros_8h.html" target="_top" xlink:title="Basic helper macros for integers.">
<polygon fill="none" stroke="black" points="102.5,-56.5 102.5,-75.5 234.5,-75.5 234.5,-56.5 102.5,-56.5"/>
<text text-anchor="middle" x="168.5" y="-63.5" font-family="Helvetica,sans-Serif" font-size="10.00">utils_misc/int_macros.h</text>
</a>
</g>
</g>
<!-- Node1&#45;&gt;Node4 -->
<g id="edge3" class="edge">
<title>Node1&#45;&gt;Node4</title>
<path fill="none" stroke="midnightblue" d="M71.72,-112.44C90.4,-103.68 119.66,-89.94 141.12,-79.86"/>
<polygon fill="midnightblue" stroke="midnightblue" points="142.8,-82.93 150.36,-75.52 139.82,-76.6 142.8,-82.93"/>
</g>
<!-- Node4&#45;&gt;Node2 -->
<g id="edge4" class="edge">
<title>Node4&#45;&gt;Node2</title>
<path fill="none" stroke="midnightblue" d="M154.52,-56.32C140.95,-47.9 120.12,-34.97 104.18,-25.07"/>
<polygon fill="midnightblue" stroke="midnightblue" points="105.79,-21.95 95.44,-19.65 102.09,-27.9 105.79,-21.95"/>
</g>
</g>
</svg>
