<?xml version="1.0" encoding="UTF-8" standalone="no"?>
<!DOCTYPE svg PUBLIC "-//W3C//DTD SVG 1.1//EN"
 "http://www.w3.org/Graphics/SVG/1.1/DTD/svg11.dtd">
<!-- Generated by graphviz version 2.43.0 (0)
 -->
<!-- Title: fernotron/txtio/fer_print.h Pages: 1 -->
<!--zoomable 486 -->
<svg id="main" version="1.1" xmlns="http://www.w3.org/2000/svg" xmlns:xlink="http://www.w3.org/1999/xlink" xml:space="preserve" onload="init(evt)">
<style type="text/css"><![CDATA[
.edge:hover path { stroke: red; }
.edge:hover polygon { stroke: red; fill: red; }
]]></style>
<script type="text/javascript"><![CDATA[
var edges = document.getElementsByTagName('g');
if (edges && edges.length) {
  for (var i=0;i<edges.length;i++) {
    if (edges[i].id.substr(0,4)=='edge') {
      edges[i].setAttribute('class','edge');
    }
  }
}
]]></script>
        <defs>
                <circle id="rim" cx="0" cy="0" r="7"/>
                <circle id="rim2" cx="0" cy="0" r="3.5"/>
                <g id="zoomPlus">
                        <use xlink:href="#rim" fill="#404040">
                                <set attributeName="fill" to="#808080" begin="zoomplus.mouseover" end="zoomplus.mouseout"/>
                        </use>
                        <path d="M-4,0h8M0,-4v8" fill="none" stroke="white" stroke-width="1.5" pointer-events="none"/>
                </g>
                <g id="zoomMin">
                        <use xlink:href="#rim" fill="#404040">
                                <set attributeName="fill" to="#808080" begin="zoomminus.mouseover" end="zoomminus.mouseout"/>
                        </use>
                        <path d="M-4,0h8" fill="none" stroke="white" stroke-width="1.5" pointer-events="none"/>
                </g>
                <g id="dirArrow">
                        <path fill="none" stroke="white" stroke-width="1.5" d="M0,-3.0v7 M-2.5,-0.5L0,-3.0L2.5,-0.5"/>
                </g>
               <g id="resetDef">
                       <use xlink:href="#rim2" fill="#404040">
                               <set attributeName="fill" to="#808080" begin="reset.mouseover" end="reset.mouseout"/>
                       </use>
               </g>
        </defs>

<script type="text/javascript">
var viewWidth = 1031;
var viewHeight = 486;
var sectionId = 'dynsection-0';
</script>
<script xlink:href="svgpan.js"/>
<svg id="graph" class="graph">
<g id="viewport">
<title>fernotron/txtio/fer_print.h</title>
<!-- Node1 -->
<g id="node1" class="node">
<title>Node1</title>
<g id="a_node1"><a xlink:title="Print raw message as formatted text to standard output (for debug purposes).">
<polygon fill="#bfbfbf" stroke="black" points="443.5,-447.5 443.5,-477.5 547.5,-477.5 547.5,-447.5 443.5,-447.5"/>
<text text-anchor="start" x="451.5" y="-465.5" font-family="Helvetica,sans-Serif" font-size="10.00">fernotron/txtio/fer</text>
<text text-anchor="middle" x="495.5" y="-454.5" font-family="Helvetica,sans-Serif" font-size="10.00">_print.h</text>
</a>
</g>
</g>
<!-- Node2 -->
<g id="node2" class="node">
<title>Node2</title>
<g id="a_node2"><a xlink:href="fer__msg__attachment_8h.html" target="_top" xlink:title="Extended messages.">
<polygon fill="none" stroke="black" points="151.5,-380.5 151.5,-410.5 269.5,-410.5 269.5,-380.5 151.5,-380.5"/>
<text text-anchor="start" x="159.5" y="-398.5" font-family="Helvetica,sans-Serif" font-size="10.00">fernotron_trx/raw/fer</text>
<text text-anchor="middle" x="210.5" y="-387.5" font-family="Helvetica,sans-Serif" font-size="10.00">_msg_attachment.h</text>
</a>
</g>
</g>
<!-- Node1&#45;&gt;Node2 -->
<g id="edge1" class="edge">
<title>Node1&#45;&gt;Node2</title>
<path fill="none" stroke="midnightblue" d="M443.23,-449.58C397.2,-439.08 329.84,-423.72 279.42,-412.22"/>
<polygon fill="midnightblue" stroke="midnightblue" points="280.1,-408.78 269.58,-409.97 278.55,-415.61 280.1,-408.78"/>
</g>
<!-- Node8 -->
<g id="node8" class="node">
<title>Node8</title>
<g id="a_node8"><a xlink:href="int__types_8h_source.html" target="_top" xlink:title=" ">
<polygon fill="none" stroke="black" points="428,-185 428,-204 551,-204 551,-185 428,-185"/>
<text text-anchor="middle" x="489.5" y="-192" font-family="Helvetica,sans-Serif" font-size="10.00">utils_misc/int_types.h</text>
</a>
</g>
</g>
<!-- Node1&#45;&gt;Node8 -->
<g id="edge41" class="edge">
<title>Node1&#45;&gt;Node8</title>
<path fill="none" stroke="midnightblue" d="M495.18,-447.2C494.17,-402.35 491.06,-264.45 489.92,-214.13"/>
<polygon fill="midnightblue" stroke="midnightblue" points="493.42,-213.97 489.69,-204.05 486.42,-214.13 493.42,-213.97"/>
</g>
<!-- Node30 -->
<g id="node30" class="node">
<title>Node30</title>
<g id="a_node30"><a xlink:href="fer__trx__api_8hh.html" target="_top" xlink:title="C++&#45;API for sending and receiving Fernotron RF messages.">
<polygon fill="none" stroke="black" points="561.5,-313.5 561.5,-343.5 677.5,-343.5 677.5,-313.5 561.5,-313.5"/>
<text text-anchor="start" x="569.5" y="-331.5" font-family="Helvetica,sans-Serif" font-size="10.00">fernotron_trx/fer_trx</text>
<text text-anchor="middle" x="619.5" y="-320.5" font-family="Helvetica,sans-Serif" font-size="10.00">_api.hh</text>
</a>
</g>
</g>
<!-- Node1&#45;&gt;Node30 -->
<g id="edge35" class="edge">
<title>Node1&#45;&gt;Node30</title>
<path fill="none" stroke="midnightblue" d="M508.77,-447.37C530.49,-424.25 573.77,-378.18 599.32,-350.99"/>
<polygon fill="midnightblue" stroke="midnightblue" points="602.03,-353.21 606.33,-343.52 596.93,-348.42 602.03,-353.21"/>
</g>
<!-- Node3 -->
<g id="node3" class="node">
<title>Node3</title>
<g id="a_node3"><a xlink:title=" ">
<polygon fill="none" stroke="#bfbfbf" points="233,-118 233,-137 286,-137 286,-118 233,-118"/>
<text text-anchor="middle" x="259.5" y="-125" font-family="Helvetica,sans-Serif" font-size="10.00">stdint.h</text>
</a>
</g>
</g>
<!-- Node2&#45;&gt;Node3 -->
<g id="edge2" class="edge">
<title>Node2&#45;&gt;Node3</title>
<path fill="none" stroke="midnightblue" d="M180.38,-380.44C166.12,-372.05 150.49,-359.9 142.5,-344 122.93,-305.09 125.87,-286.26 142.5,-246 161.64,-199.66 208.88,-161.99 237.14,-142.64"/>
<polygon fill="midnightblue" stroke="midnightblue" points="239.2,-145.47 245.58,-137.02 235.32,-139.65 239.2,-145.47"/>
</g>
<!-- Node4 -->
<g id="node4" class="node">
<title>Node4</title>
<g id="a_node4"><a xlink:href="fer__msg__plain_8h.html" target="_top" xlink:title="Data structure of plain messages or header of extended messages.">
<polygon fill="none" stroke="black" points="288,-319 288,-338 383,-338 383,-319 288,-319"/>
<text text-anchor="middle" x="335.5" y="-326" font-family="Helvetica,sans-Serif" font-size="10.00">fer_msg_plain.h</text>
</a>
</g>
</g>
<!-- Node2&#45;&gt;Node4 -->
<g id="edge3" class="edge">
<title>Node2&#45;&gt;Node4</title>
<path fill="none" stroke="midnightblue" d="M237.62,-380.4C259.17,-369.19 289.07,-353.64 310.14,-342.69"/>
<polygon fill="midnightblue" stroke="midnightblue" points="311.88,-345.73 319.14,-338.01 308.65,-339.52 311.88,-345.73"/>
</g>
<!-- Node28 -->
<g id="node28" class="node">
<title>Node28</title>
<g id="a_node28"><a xlink:href="fer__msg__attachment__enum_8h.html" target="_top" xlink:title="Enums for extended messages.">
<polygon fill="none" stroke="black" points="151.5,-313.5 151.5,-343.5 269.5,-343.5 269.5,-313.5 151.5,-313.5"/>
<text text-anchor="start" x="159.5" y="-331.5" font-family="Helvetica,sans-Serif" font-size="10.00">fer_msg_attachment</text>
<text text-anchor="middle" x="210.5" y="-320.5" font-family="Helvetica,sans-Serif" font-size="10.00">_enum.h</text>
</a>
</g>
</g>
<!-- Node2&#45;&gt;Node28 -->
<g id="edge32" class="edge">
<title>Node2&#45;&gt;Node28</title>
<path fill="none" stroke="midnightblue" d="M210.5,-380.4C210.5,-372.64 210.5,-362.81 210.5,-353.86"/>
<polygon fill="midnightblue" stroke="midnightblue" points="214,-353.58 210.5,-343.58 207,-353.58 214,-353.58"/>
</g>
<!-- Node29 -->
<g id="node29" class="node">
<title>Node29</title>
<g id="a_node29"><a xlink:href="bcd_8h_source.html" target="_top" xlink:title=" ">
<polygon fill="none" stroke="black" points="0,-185 0,-204 95,-204 95,-185 0,-185"/>
<text text-anchor="middle" x="47.5" y="-192" font-family="Helvetica,sans-Serif" font-size="10.00">utils_misc/bcd.h</text>
</a>
</g>
</g>
<!-- Node2&#45;&gt;Node29 -->
<g id="edge33" class="edge">
<title>Node2&#45;&gt;Node29</title>
<path fill="none" stroke="midnightblue" d="M166.34,-380.41C146.83,-372.34 124.89,-360.48 109.5,-344 73.99,-305.98 57.33,-244.7 50.89,-214.12"/>
<polygon fill="midnightblue" stroke="midnightblue" points="54.27,-213.15 48.91,-204.01 47.4,-214.5 54.27,-213.15"/>
</g>
<!-- Node5 -->
<g id="node5" class="node">
<title>Node5</title>
<g id="a_node5"><a xlink:href="fer__msg__type_8h.html" target="_top" xlink:title="kinds of messages">
<polygon fill="none" stroke="black" points="255.5,-185 255.5,-204 347.5,-204 347.5,-185 255.5,-185"/>
<text text-anchor="middle" x="301.5" y="-192" font-family="Helvetica,sans-Serif" font-size="10.00">fer_msg_type.h</text>
</a>
</g>
</g>
<!-- Node4&#45;&gt;Node5 -->
<g id="edge4" class="edge">
<title>Node4&#45;&gt;Node5</title>
<path fill="none" stroke="midnightblue" d="M333.27,-318.84C327.82,-297.67 313.72,-242.95 306.27,-214.03"/>
<polygon fill="midnightblue" stroke="midnightblue" points="309.58,-212.83 303.69,-204.02 302.8,-214.58 309.58,-212.83"/>
</g>
<!-- Node6 -->
<g id="node6" class="node">
<title>Node6</title>
<g id="a_node6"><a xlink:href="fer__msg__plain__enum_8h.html" target="_top" xlink:title="Raw message for plain commands.">
<polygon fill="none" stroke="black" points="339.5,-252 339.5,-271 467.5,-271 467.5,-252 339.5,-252"/>
<text text-anchor="middle" x="403.5" y="-259" font-family="Helvetica,sans-Serif" font-size="10.00">fer_msg_plain_enum.h</text>
</a>
</g>
</g>
<!-- Node4&#45;&gt;Node6 -->
<g id="edge6" class="edge">
<title>Node4&#45;&gt;Node6</title>
<path fill="none" stroke="midnightblue" d="M344.67,-318.73C355.48,-308.4 373.65,-291.04 386.94,-278.33"/>
<polygon fill="midnightblue" stroke="midnightblue" points="389.66,-280.57 394.47,-271.13 384.83,-275.51 389.66,-280.57"/>
</g>
<!-- Node7 -->
<g id="node7" class="node">
<title>Node7</title>
<g id="a_node7"><a xlink:href="fer__trx__c__api_8h.html" target="_top" xlink:title="C&#45;API for sending and receiving Fernotron RF messages.">
<polygon fill="none" stroke="black" points="561.5,-246.5 561.5,-276.5 677.5,-276.5 677.5,-246.5 561.5,-246.5"/>
<text text-anchor="start" x="569.5" y="-264.5" font-family="Helvetica,sans-Serif" font-size="10.00">fernotron_trx/fer_trx</text>
<text text-anchor="middle" x="619.5" y="-253.5" font-family="Helvetica,sans-Serif" font-size="10.00">_c_api.h</text>
</a>
</g>
</g>
<!-- Node4&#45;&gt;Node7 -->
<g id="edge7" class="edge">
<title>Node4&#45;&gt;Node7</title>
<path fill="none" stroke="midnightblue" d="M372.92,-318.94C418.25,-308.56 495.47,-290.89 551.44,-278.08"/>
<polygon fill="midnightblue" stroke="midnightblue" points="552.32,-281.47 561.28,-275.82 550.76,-274.64 552.32,-281.47"/>
</g>
<!-- Node27 -->
<g id="node27" class="node">
<title>Node27</title>
<g id="a_node27"><a xlink:href="int__macros_8h.html" target="_top" xlink:title="Basic helper macros for integers.">
<polygon fill="none" stroke="black" points="151.5,-252 151.5,-271 283.5,-271 283.5,-252 151.5,-252"/>
<text text-anchor="middle" x="217.5" y="-259" font-family="Helvetica,sans-Serif" font-size="10.00">utils_misc/int_macros.h</text>
</a>
</g>
</g>
<!-- Node4&#45;&gt;Node27 -->
<g id="edge30" class="edge">
<title>Node4&#45;&gt;Node27</title>
<path fill="none" stroke="midnightblue" d="M319.59,-318.73C299.68,-307.77 265.39,-288.88 242.1,-276.05"/>
<polygon fill="midnightblue" stroke="midnightblue" points="243.61,-272.89 233.16,-271.13 240.23,-279.02 243.61,-272.89"/>
</g>
<!-- Node5&#45;&gt;Node3 -->
<g id="edge5" class="edge">
<title>Node5&#45;&gt;Node3</title>
<path fill="none" stroke="midnightblue" d="M295.84,-184.73C289.41,-174.79 278.78,-158.34 270.67,-145.79"/>
<polygon fill="midnightblue" stroke="midnightblue" points="273.44,-143.63 265.07,-137.13 267.56,-147.43 273.44,-143.63"/>
</g>
<!-- Node7&#45;&gt;Node8 -->
<g id="edge8" class="edge">
<title>Node7&#45;&gt;Node8</title>
<path fill="none" stroke="midnightblue" d="M591.29,-246.4C568.78,-235.14 537.5,-219.5 515.58,-208.54"/>
<polygon fill="midnightblue" stroke="midnightblue" points="517.02,-205.35 506.51,-204.01 513.89,-211.61 517.02,-205.35"/>
</g>
<!-- Node10 -->
<g id="node10" class="node">
<title>Node10</title>
<g id="a_node10"><a xlink:href="timer__data_8h.html" target="_top" xlink:title="vocabulary types to program Fernotron automatic (timers)">
<polygon fill="none" stroke="black" points="569.5,-179.5 569.5,-209.5 679.5,-209.5 679.5,-179.5 569.5,-179.5"/>
<text text-anchor="start" x="577.5" y="-197.5" font-family="Helvetica,sans-Serif" font-size="10.00">fernotron_trx/timer</text>
<text text-anchor="middle" x="624.5" y="-186.5" font-family="Helvetica,sans-Serif" font-size="10.00">_data.h</text>
</a>
</g>
</g>
<!-- Node7&#45;&gt;Node10 -->
<g id="edge11" class="edge">
<title>Node7&#45;&gt;Node10</title>
<path fill="none" stroke="midnightblue" d="M620.58,-246.4C621.19,-238.56 621.95,-228.6 622.65,-219.57"/>
<polygon fill="midnightblue" stroke="midnightblue" points="626.14,-219.82 623.42,-209.58 619.16,-219.28 626.14,-219.82"/>
</g>
<!-- Node26 -->
<g id="node26" class="node">
<title>Node26</title>
<g id="a_node26"><a xlink:title=" ">
<polygon fill="none" stroke="#bfbfbf" points="786.5,-185 786.5,-204 834.5,-204 834.5,-185 786.5,-185"/>
<text text-anchor="middle" x="810.5" y="-192" font-family="Helvetica,sans-Serif" font-size="10.00">time.h</text>
</a>
</g>
</g>
<!-- Node7&#45;&gt;Node26 -->
<g id="edge29" class="edge">
<title>Node7&#45;&gt;Node26</title>
<path fill="none" stroke="midnightblue" d="M660.94,-246.4C695.5,-234.64 744.12,-218.09 776.44,-207.09"/>
<polygon fill="midnightblue" stroke="midnightblue" points="777.98,-210.26 786.32,-203.73 775.73,-203.64 777.98,-210.26"/>
</g>
<!-- Node8&#45;&gt;Node3 -->
<g id="edge9" class="edge">
<title>Node8&#45;&gt;Node3</title>
<path fill="none" stroke="midnightblue" d="M458.96,-184.87C416.81,-172.96 340.93,-151.51 295.9,-138.79"/>
<polygon fill="midnightblue" stroke="midnightblue" points="296.81,-135.41 286.23,-136.06 294.91,-142.14 296.81,-135.41"/>
</g>
<!-- Node9 -->
<g id="node9" class="node">
<title>Node9</title>
<g id="a_node9"><a xlink:title=" ">
<polygon fill="none" stroke="#bfbfbf" points="447.5,-118 447.5,-137 509.5,-137 509.5,-118 447.5,-118"/>
<text text-anchor="middle" x="478.5" y="-125" font-family="Helvetica,sans-Serif" font-size="10.00">stdbool.h</text>
</a>
</g>
</g>
<!-- Node8&#45;&gt;Node9 -->
<g id="edge10" class="edge">
<title>Node8&#45;&gt;Node9</title>
<path fill="none" stroke="midnightblue" d="M488.02,-184.73C486.4,-175.18 483.77,-159.62 481.68,-147.28"/>
<polygon fill="midnightblue" stroke="midnightblue" points="485.08,-146.4 479.96,-137.13 478.18,-147.57 485.08,-146.4"/>
</g>
<!-- Node10&#45;&gt;Node3 -->
<g id="edge12" class="edge">
<title>Node10&#45;&gt;Node3</title>
<path fill="none" stroke="midnightblue" d="M569.38,-180.8C566.38,-180.18 563.41,-179.57 560.5,-179 465.55,-160.29 352.88,-142.58 296.1,-133.96"/>
<polygon fill="midnightblue" stroke="midnightblue" points="296.58,-130.49 286.17,-132.46 295.53,-137.41 296.58,-130.49"/>
</g>
<!-- Node10&#45;&gt;Node9 -->
<g id="edge13" class="edge">
<title>Node10&#45;&gt;Node9</title>
<path fill="none" stroke="midnightblue" d="M592.82,-179.4C567.2,-167.99 531.46,-152.08 506.8,-141.1"/>
<polygon fill="midnightblue" stroke="midnightblue" points="508.17,-137.88 497.61,-137.01 505.32,-144.27 508.17,-137.88"/>
</g>
<!-- Node11 -->
<g id="node11" class="node">
<title>Node11</title>
<g id="a_node11"><a xlink:title=" ">
<polygon fill="none" stroke="#bfbfbf" points="898,-118 898,-137 951,-137 951,-118 898,-118"/>
<text text-anchor="middle" x="924.5" y="-125" font-family="Helvetica,sans-Serif" font-size="10.00">string.h</text>
</a>
</g>
</g>
<!-- Node10&#45;&gt;Node11 -->
<g id="edge14" class="edge">
<title>Node10&#45;&gt;Node11</title>
<path fill="none" stroke="midnightblue" d="M679.59,-186.36C733.74,-178.56 818.38,-164.27 889.5,-143 891.79,-142.32 894.13,-141.54 896.46,-140.7"/>
<polygon fill="midnightblue" stroke="midnightblue" points="897.81,-143.93 905.87,-137.05 895.28,-137.4 897.81,-143.93"/>
</g>
<!-- Node12 -->
<g id="node12" class="node">
<title>Node12</title>
<g id="a_node12"><a xlink:title=" ">
<polygon fill="none" stroke="#bfbfbf" points="528,-118 528,-137 581,-137 581,-118 528,-118"/>
<text text-anchor="middle" x="554.5" y="-125" font-family="Helvetica,sans-Serif" font-size="10.00">ctype.h</text>
</a>
</g>
</g>
<!-- Node10&#45;&gt;Node12 -->
<g id="edge15" class="edge">
<title>Node10&#45;&gt;Node12</title>
<path fill="none" stroke="midnightblue" d="M609.31,-179.4C598.18,-169.06 583.06,-155.02 571.53,-144.31"/>
<polygon fill="midnightblue" stroke="midnightblue" points="573.57,-141.43 563.86,-137.19 568.81,-146.56 573.57,-141.43"/>
</g>
<!-- Node13 -->
<g id="node13" class="node">
<title>Node13</title>
<g id="a_node13"><a xlink:title=" ">
<polygon fill="none" stroke="#bfbfbf" points="599.5,-118 599.5,-137 649.5,-137 649.5,-118 599.5,-118"/>
<text text-anchor="middle" x="624.5" y="-125" font-family="Helvetica,sans-Serif" font-size="10.00">stdio.h</text>
</a>
</g>
</g>
<!-- Node10&#45;&gt;Node13 -->
<g id="edge16" class="edge">
<title>Node10&#45;&gt;Node13</title>
<path fill="none" stroke="midnightblue" d="M624.5,-179.4C624.5,-170.06 624.5,-157.71 624.5,-147.52"/>
<polygon fill="midnightblue" stroke="midnightblue" points="628,-147.19 624.5,-137.19 621,-147.19 628,-147.19"/>
</g>
<!-- Node14 -->
<g id="node14" class="node">
<title>Node14</title>
<g id="a_node14"><a xlink:href="cstring__utils_8hh_source.html" target="_top" xlink:title=" ">
<polygon fill="none" stroke="black" points="667.5,-112.5 667.5,-142.5 769.5,-142.5 769.5,-112.5 667.5,-112.5"/>
<text text-anchor="start" x="675.5" y="-130.5" font-family="Helvetica,sans-Serif" font-size="10.00">utils_misc/cstring</text>
<text text-anchor="middle" x="718.5" y="-119.5" font-family="Helvetica,sans-Serif" font-size="10.00">_utils.hh</text>
</a>
</g>
</g>
<!-- Node10&#45;&gt;Node14 -->
<g id="edge17" class="edge">
<title>Node10&#45;&gt;Node14</title>
<path fill="none" stroke="midnightblue" d="M644.9,-179.4C657.95,-170.37 675.1,-158.51 689.55,-148.52"/>
<polygon fill="midnightblue" stroke="midnightblue" points="691.91,-151.14 698.14,-142.58 687.93,-145.39 691.91,-151.14"/>
</g>
<!-- Node20 -->
<g id="node20" class="node">
<title>Node20</title>
<g id="a_node20"><a xlink:href="dbg_8h_source.html" target="_top" xlink:title=" ">
<polygon fill="none" stroke="black" points="803,-118 803,-137 880,-137 880,-118 803,-118"/>
<text text-anchor="middle" x="841.5" y="-125" font-family="Helvetica,sans-Serif" font-size="10.00">debug/dbg.h</text>
</a>
</g>
</g>
<!-- Node10&#45;&gt;Node20 -->
<g id="edge23" class="edge">
<title>Node10&#45;&gt;Node20</title>
<path fill="none" stroke="midnightblue" d="M671.32,-179.48C710.72,-167.67 766.38,-151 803.18,-139.98"/>
<polygon fill="midnightblue" stroke="midnightblue" points="804.45,-143.25 813.03,-137.03 802.44,-136.55 804.45,-143.25"/>
</g>
<!-- Node15 -->
<g id="node15" class="node">
<title>Node15</title>
<g id="a_node15"><a xlink:title=" ">
<polygon fill="none" stroke="#bfbfbf" points="693.5,-56.5 693.5,-75.5 743.5,-75.5 743.5,-56.5 693.5,-56.5"/>
<text text-anchor="middle" x="718.5" y="-63.5" font-family="Helvetica,sans-Serif" font-size="10.00">cstring</text>
</a>
</g>
</g>
<!-- Node14&#45;&gt;Node15 -->
<g id="edge18" class="edge">
<title>Node14&#45;&gt;Node15</title>
<path fill="none" stroke="midnightblue" d="M718.5,-112.4C718.5,-104.47 718.5,-94.46 718.5,-85.86"/>
<polygon fill="midnightblue" stroke="midnightblue" points="722,-85.66 718.5,-75.66 715,-85.66 722,-85.66"/>
</g>
<!-- Node16 -->
<g id="node16" class="node">
<title>Node16</title>
<g id="a_node16"><a xlink:title=" ">
<polygon fill="none" stroke="#bfbfbf" points="475,-56.5 475,-75.5 544,-75.5 544,-56.5 475,-56.5"/>
<text text-anchor="middle" x="509.5" y="-63.5" font-family="Helvetica,sans-Serif" font-size="10.00">type_traits</text>
</a>
</g>
</g>
<!-- Node14&#45;&gt;Node16 -->
<g id="edge19" class="edge">
<title>Node14&#45;&gt;Node16</title>
<path fill="none" stroke="midnightblue" d="M669.23,-112.47C632.55,-102.03 583.12,-87.96 549.01,-78.25"/>
<polygon fill="midnightblue" stroke="midnightblue" points="549.96,-74.88 539.38,-75.51 548.04,-81.61 549.96,-74.88"/>
</g>
<!-- Node17 -->
<g id="node17" class="node">
<title>Node17</title>
<g id="a_node17"><a xlink:href="allocator__malloc_8hh_source.html" target="_top" xlink:title=" ">
<polygon fill="none" stroke="black" points="562,-56.5 562,-75.5 675,-75.5 675,-56.5 562,-56.5"/>
<text text-anchor="middle" x="618.5" y="-63.5" font-family="Helvetica,sans-Serif" font-size="10.00">allocator_malloc.hh</text>
</a>
</g>
</g>
<!-- Node14&#45;&gt;Node17 -->
<g id="edge20" class="edge">
<title>Node14&#45;&gt;Node17</title>
<path fill="none" stroke="midnightblue" d="M694.8,-112.4C678.77,-102.86 657.7,-90.32 641.76,-80.84"/>
<polygon fill="midnightblue" stroke="midnightblue" points="643.43,-77.76 633.05,-75.66 639.86,-83.78 643.43,-77.76"/>
</g>
<!-- Node18 -->
<g id="node18" class="node">
<title>Node18</title>
<g id="a_node18"><a xlink:title=" ">
<polygon fill="none" stroke="#bfbfbf" points="627.5,-0.5 627.5,-19.5 685.5,-19.5 685.5,-0.5 627.5,-0.5"/>
<text text-anchor="middle" x="656.5" y="-7.5" font-family="Helvetica,sans-Serif" font-size="10.00">memory</text>
</a>
</g>
</g>
<!-- Node17&#45;&gt;Node18 -->
<g id="edge21" class="edge">
<title>Node17&#45;&gt;Node18</title>
<path fill="none" stroke="midnightblue" d="M624.77,-56.08C630.14,-48.46 638.02,-37.26 644.58,-27.94"/>
<polygon fill="midnightblue" stroke="midnightblue" points="647.45,-29.94 650.34,-19.75 641.72,-25.91 647.45,-29.94"/>
</g>
<!-- Node19 -->
<g id="node19" class="node">
<title>Node19</title>
<g id="a_node19"><a xlink:title=" ">
<polygon fill="none" stroke="#bfbfbf" points="550,-0.5 550,-19.5 609,-19.5 609,-0.5 550,-0.5"/>
<text text-anchor="middle" x="579.5" y="-7.5" font-family="Helvetica,sans-Serif" font-size="10.00">malloc.h</text>
</a>
</g>
</g>
<!-- Node17&#45;&gt;Node19 -->
<g id="edge22" class="edge">
<title>Node17&#45;&gt;Node19</title>
<path fill="none" stroke="midnightblue" d="M612.06,-56.08C606.55,-48.46 598.47,-37.26 591.74,-27.94"/>
<polygon fill="midnightblue" stroke="midnightblue" points="594.51,-25.81 585.82,-19.75 588.84,-29.91 594.51,-25.81"/>
</g>
<!-- Node21 -->
<g id="node21" class="node">
<title>Node21</title>
<g id="a_node21"><a xlink:href="log_8h_source.html" target="_top" xlink:title=" ">
<polygon fill="none" stroke="black" points="836,-56.5 836,-75.5 877,-75.5 877,-56.5 836,-56.5"/>
<text text-anchor="middle" x="856.5" y="-63.5" font-family="Helvetica,sans-Serif" font-size="10.00">log.h</text>
</a>
</g>
</g>
<!-- Node20&#45;&gt;Node21 -->
<g id="edge24" class="edge">
<title>Node20&#45;&gt;Node21</title>
<path fill="none" stroke="midnightblue" d="M843.65,-117.98C845.79,-109.49 849.14,-96.2 851.88,-85.32"/>
<polygon fill="midnightblue" stroke="midnightblue" points="855.3,-86.06 854.35,-75.51 848.52,-84.35 855.3,-86.06"/>
</g>
<!-- Node23 -->
<g id="node23" class="node">
<title>Node23</title>
<g id="a_node23"><a xlink:title=" ">
<polygon fill="none" stroke="#bfbfbf" points="895,-56.5 895,-75.5 948,-75.5 948,-56.5 895,-56.5"/>
<text text-anchor="middle" x="921.5" y="-63.5" font-family="Helvetica,sans-Serif" font-size="10.00">stdlib.h</text>
</a>
</g>
</g>
<!-- Node20&#45;&gt;Node23 -->
<g id="edge26" class="edge">
<title>Node20&#45;&gt;Node23</title>
<path fill="none" stroke="midnightblue" d="M852.96,-117.98C865.67,-108.52 886.41,-93.1 901.75,-81.69"/>
<polygon fill="midnightblue" stroke="midnightblue" points="904.12,-84.29 910.06,-75.51 899.95,-78.67 904.12,-84.29"/>
</g>
<!-- Node24 -->
<g id="node24" class="node">
<title>Node24</title>
<g id="a_node24"><a xlink:title=" ">
<polygon fill="none" stroke="#bfbfbf" points="966.5,-56.5 966.5,-75.5 1022.5,-75.5 1022.5,-56.5 966.5,-56.5"/>
<text text-anchor="middle" x="994.5" y="-63.5" font-family="Helvetica,sans-Serif" font-size="10.00">unistd.h</text>
</a>
</g>
</g>
<!-- Node20&#45;&gt;Node24 -->
<g id="edge27" class="edge">
<title>Node20&#45;&gt;Node24</title>
<path fill="none" stroke="midnightblue" d="M863.42,-117.98C889.55,-107.81 933.41,-90.76 963.13,-79.2"/>
<polygon fill="midnightblue" stroke="midnightblue" points="964.57,-82.4 972.62,-75.51 962.03,-75.87 964.57,-82.4"/>
</g>
<!-- Node25 -->
<g id="node25" class="node">
<title>Node25</title>
<g id="a_node25"><a xlink:title=" ">
<polygon fill="none" stroke="#bfbfbf" points="761.5,-56.5 761.5,-75.5 817.5,-75.5 817.5,-56.5 761.5,-56.5"/>
<text text-anchor="middle" x="789.5" y="-63.5" font-family="Helvetica,sans-Serif" font-size="10.00">assert.h</text>
</a>
</g>
</g>
<!-- Node20&#45;&gt;Node25 -->
<g id="edge28" class="edge">
<title>Node20&#45;&gt;Node25</title>
<path fill="none" stroke="midnightblue" d="M834.05,-117.98C826.17,-108.96 813.56,-94.52 803.76,-83.31"/>
<polygon fill="midnightblue" stroke="midnightblue" points="806.15,-80.74 796.94,-75.51 800.88,-85.34 806.15,-80.74"/>
</g>
<!-- Node22 -->
<g id="node22" class="node">
<title>Node22</title>
<g id="a_node22"><a xlink:title=" ">
<polygon fill="none" stroke="#bfbfbf" points="825,-0.5 825,-19.5 888,-19.5 888,-0.5 825,-0.5"/>
<text text-anchor="middle" x="856.5" y="-7.5" font-family="Helvetica,sans-Serif" font-size="10.00">esp_log.h</text>
</a>
</g>
</g>
<!-- Node21&#45;&gt;Node22 -->
<g id="edge25" class="edge">
<title>Node21&#45;&gt;Node22</title>
<path fill="none" stroke="midnightblue" d="M856.5,-56.08C856.5,-49.01 856.5,-38.86 856.5,-29.99"/>
<polygon fill="midnightblue" stroke="midnightblue" points="860,-29.75 856.5,-19.75 853,-29.75 860,-29.75"/>
</g>
<!-- Node27&#45;&gt;Node3 -->
<g id="edge31" class="edge">
<title>Node27&#45;&gt;Node3</title>
<path fill="none" stroke="midnightblue" d="M220.26,-251.84C227.02,-230.58 244.56,-175.46 253.72,-146.65"/>
<polygon fill="midnightblue" stroke="midnightblue" points="257.09,-147.61 256.79,-137.02 250.42,-145.49 257.09,-147.61"/>
</g>
<!-- Node29&#45;&gt;Node3 -->
<g id="edge34" class="edge">
<title>Node29&#45;&gt;Node3</title>
<path fill="none" stroke="midnightblue" d="M75.65,-184.87C113.63,-173.22 181.33,-152.47 223.12,-139.65"/>
<polygon fill="midnightblue" stroke="midnightblue" points="224.37,-142.93 232.9,-136.65 222.32,-136.24 224.37,-142.93"/>
</g>
<!-- Node30&#45;&gt;Node7 -->
<g id="edge37" class="edge">
<title>Node30&#45;&gt;Node7</title>
<path fill="none" stroke="midnightblue" d="M619.5,-313.4C619.5,-305.64 619.5,-295.81 619.5,-286.86"/>
<polygon fill="midnightblue" stroke="midnightblue" points="623,-286.58 619.5,-276.58 616,-286.58 623,-286.58"/>
</g>
<!-- Node30&#45;&gt;Node8 -->
<g id="edge36" class="edge">
<title>Node30&#45;&gt;Node8</title>
<path fill="none" stroke="midnightblue" d="M597.81,-313.37C584.09,-303.91 566.39,-290.72 552.5,-277 532.1,-256.85 512.55,-229.98 500.78,-212.7"/>
<polygon fill="midnightblue" stroke="midnightblue" points="503.55,-210.56 495.08,-204.2 497.74,-214.45 503.55,-210.56"/>
</g>
<!-- Node31 -->
<g id="node31" class="node">
<title>Node31</title>
<g id="a_node31"><a xlink:href="astro_8h.html" target="_top" xlink:title="civil dusk timer calculations">
<polygon fill="none" stroke="black" points="836,-252 836,-271 953,-271 953,-252 836,-252"/>
<text text-anchor="middle" x="894.5" y="-259" font-family="Helvetica,sans-Serif" font-size="10.00">fernotron_trx/astro.h</text>
</a>
</g>
</g>
<!-- Node30&#45;&gt;Node31 -->
<g id="edge38" class="edge">
<title>Node30&#45;&gt;Node31</title>
<path fill="none" stroke="midnightblue" d="M677.82,-313.72C728.64,-301.7 801.36,-284.52 848.25,-273.43"/>
<polygon fill="midnightblue" stroke="midnightblue" points="849.22,-276.8 858.14,-271.09 847.6,-269.99 849.22,-276.8"/>
</g>
<!-- Node32 -->
<g id="node32" class="node">
<title>Node32</title>
<g id="a_node32"><a xlink:href="fer__trx__api____inline_8hh.html" target="_top" xlink:title="Private implementation.">
<polygon fill="none" stroke="black" points="695.5,-252 695.5,-271 817.5,-271 817.5,-252 695.5,-252"/>
<text text-anchor="middle" x="756.5" y="-259" font-family="Helvetica,sans-Serif" font-size="10.00">fer_trx_api__inline.hh</text>
</a>
</g>
</g>
<!-- Node30&#45;&gt;Node32 -->
<g id="edge40" class="edge">
<title>Node30&#45;&gt;Node32</title>
<path fill="none" stroke="midnightblue" d="M649.23,-313.4C673.05,-302.09 706.21,-286.36 729.33,-275.39"/>
<polygon fill="midnightblue" stroke="midnightblue" points="731.04,-278.46 738.57,-271.01 728.03,-272.13 731.04,-278.46"/>
</g>
<!-- Node31&#45;&gt;Node26 -->
<g id="edge39" class="edge">
<title>Node31&#45;&gt;Node26</title>
<path fill="none" stroke="midnightblue" d="M883.17,-251.73C869.44,-241.11 846.1,-223.05 829.58,-210.26"/>
<polygon fill="midnightblue" stroke="midnightblue" points="831.7,-207.48 821.65,-204.13 827.42,-213.02 831.7,-207.48"/>
</g>
</g>
</svg>
        <g id="navigator" transform="translate(0 0)" fill="#404254">
                <rect fill="#f2f5e9" fill-opacity="0.5" stroke="#606060" stroke-width=".5" x="0" y="0" width="60" height="60"/>
                <use id="zoomplus" xlink:href="#zoomPlus" x="17" y="9" onmousedown="handleZoom(evt,'in')"/>
                <use id="zoomminus" xlink:href="#zoomMin" x="42" y="9" onmousedown="handleZoom(evt,'out')"/>
                <use id="reset" xlink:href="#resetDef" x="30" y="36" onmousedown="handleReset()"/>
                <g id="arrowUp" xlink:href="#dirArrow" transform="translate(30 24)" onmousedown="handlePan(0,-1)">
                  <use xlink:href="#rim" fill="#404040">
                        <set attributeName="fill" to="#808080" begin="arrowUp.mouseover" end="arrowUp.mouseout"/>
                  </use>
                  <path fill="none" stroke="white" stroke-width="1.5" d="M0,-3.0v7 M-2.5,-0.5L0,-3.0L2.5,-0.5"/>
                </g>
                <g id="arrowRight" xlink:href="#dirArrow" transform="rotate(90) translate(36 -43)" onmousedown="handlePan(1,0)">
                  <use xlink:href="#rim" fill="#404040">
                        <set attributeName="fill" to="#808080" begin="arrowRight.mouseover" end="arrowRight.mouseout"/>
                  </use>
                  <path fill="none" stroke="white" stroke-width="1.5" d="M0,-3.0v7 M-2.5,-0.5L0,-3.0L2.5,-0.5"/>
                </g>
                <g id="arrowDown" xlink:href="#dirArrow" transform="rotate(180) translate(-30 -48)" onmousedown="handlePan(0,1)">
                  <use xlink:href="#rim" fill="#404040">
                        <set attributeName="fill" to="#808080" begin="arrowDown.mouseover" end="arrowDown.mouseout"/>
                  </use>
                  <path fill="none" stroke="white" stroke-width="1.5" d="M0,-3.0v7 M-2.5,-0.5L0,-3.0L2.5,-0.5"/>
                </g>
                <g id="arrowLeft" xlink:href="#dirArrow" transform="rotate(270) translate(-36 17)" onmousedown="handlePan(-1,0)">
                  <use xlink:href="#rim" fill="#404040">
                        <set attributeName="fill" to="#808080" begin="arrowLeft.mouseover" end="arrowLeft.mouseout"/>
                  </use>
                  <path fill="none" stroke="white" stroke-width="1.5" d="M0,-3.0v7 M-2.5,-0.5L0,-3.0L2.5,-0.5"/>
                </g>
        </g>
        <svg viewBox="0 0 15 15" width="100%" height="30px" preserveAspectRatio="xMaxYMin meet">
         <g id="arrow_out" transform="scale(0.3 0.3)">
          <a xlink:href="fer__print_8h__incl_org.svg" target="_base">
           <rect id="button" ry="5" rx="5" y="6" x="6" height="38" width="38"
                fill="#f2f5e9" fill-opacity="0.5" stroke="#606060" stroke-width="1.0"/>
           <path id="arrow"
             d="M 11.500037,31.436501 C 11.940474,20.09759 22.043105,11.32322 32.158766,21.979434 L 37.068811,17.246167 C 37.068811,17.246167 37.088388,32 37.088388,32 L 22.160133,31.978069 C 22.160133,31.978069 26.997745,27.140456 26.997745,27.140456 C 18.528582,18.264221 13.291696,25.230495 11.500037,31.436501 z"
             style="fill:#404040;"/>
          </a>
         </g>
        </svg>
</svg>
