<?xml version="1.0" encoding="UTF-8" standalone="no"?>
<!DOCTYPE svg PUBLIC "-//W3C//DTD SVG 1.1//EN"
 "http://www.w3.org/Graphics/SVG/1.1/DTD/svg11.dtd">
<!-- Generated by graphviz version 2.43.0 (0)
 -->
<!-- Title: fernotron_trx/raw/fer_rawmsg_build.h Pages: 1 -->
<svg width="908pt" height="475pt"
 viewBox="0.00 0.00 908.00 475.00" xmlns="http://www.w3.org/2000/svg" xmlns:xlink="http://www.w3.org/1999/xlink">
<g id="graph0" class="graph" transform="scale(1 1) rotate(0) translate(4 471)">
<title>fernotron_trx/raw/fer_rawmsg_build.h</title>
<!-- Node1 -->
<g id="node1" class="node">
<title>Node1</title>
<g id="a_node1"><a xlink:title="builder functions to construct (extended) raw messages">
<polygon fill="#bfbfbf" stroke="black" points="261,-436.5 261,-466.5 379,-466.5 379,-436.5 261,-436.5"/>
<text text-anchor="start" x="269" y="-454.5" font-family="Helvetica,sans-Serif" font-size="10.00">fernotron_trx/raw/fer</text>
<text text-anchor="middle" x="320" y="-443.5" font-family="Helvetica,sans-Serif" font-size="10.00">_rawmsg_build.h</text>
</a>
</g>
</g>
<!-- Node2 -->
<g id="node2" class="node">
<title>Node2</title>
<g id="a_node2"><a xlink:title=" ">
<polygon fill="none" stroke="#bfbfbf" points="198.5,-118 198.5,-137 251.5,-137 251.5,-118 198.5,-118"/>
<text text-anchor="middle" x="225" y="-125" font-family="Helvetica,sans-Serif" font-size="10.00">stdint.h</text>
</a>
</g>
</g>
<!-- Node1&#45;&gt;Node2 -->
<g id="edge1" class="edge">
<title>Node1&#45;&gt;Node2</title>
<path fill="none" stroke="midnightblue" d="M260.93,-440.63C168.47,-423.48 0,-384.66 0,-329.5 0,-329.5 0,-329.5 0,-260.5 0,-174.27 124.46,-143.29 188.25,-133.07"/>
<polygon fill="midnightblue" stroke="midnightblue" points="188.94,-136.51 198.31,-131.56 187.9,-129.59 188.94,-136.51"/>
</g>
<!-- Node3 -->
<g id="node3" class="node">
<title>Node3</title>
<g id="a_node3"><a xlink:href="fer__fsb_8h.html" target="_top" xlink:title="Plain raw message.">
<polygon fill="none" stroke="black" points="372.5,-380.5 372.5,-399.5 431.5,-399.5 431.5,-380.5 372.5,-380.5"/>
<text text-anchor="middle" x="402" y="-387.5" font-family="Helvetica,sans-Serif" font-size="10.00">fer_fsb.h</text>
</a>
</g>
</g>
<!-- Node1&#45;&gt;Node3 -->
<g id="edge2" class="edge">
<title>Node1&#45;&gt;Node3</title>
<path fill="none" stroke="midnightblue" d="M339.43,-436.4C352.21,-427.13 368.89,-415.03 381.81,-405.65"/>
<polygon fill="midnightblue" stroke="midnightblue" points="384.03,-408.36 390.07,-399.66 379.92,-402.7 384.03,-408.36"/>
</g>
<!-- Node26 -->
<g id="node26" class="node">
<title>Node26</title>
<g id="a_node26"><a xlink:title=" ">
<polygon fill="none" stroke="#bfbfbf" points="670,-185 670,-204 718,-204 718,-185 670,-185"/>
<text text-anchor="middle" x="694" y="-192" font-family="Helvetica,sans-Serif" font-size="10.00">time.h</text>
</a>
</g>
</g>
<!-- Node1&#45;&gt;Node26 -->
<g id="edge41" class="edge">
<title>Node1&#45;&gt;Node26</title>
<path fill="none" stroke="midnightblue" d="M379,-438.66C459.07,-419.37 600.65,-373.21 675,-277 689.06,-258.81 693,-231.96 693.95,-214.12"/>
<polygon fill="midnightblue" stroke="midnightblue" points="697.45,-214.19 694.23,-204.1 690.46,-214 697.45,-214.19"/>
</g>
<!-- Node28 -->
<g id="node28" class="node">
<title>Node28</title>
<g id="a_node28"><a xlink:href="fer__msg__attachment_8h.html" target="_top" xlink:title="Extended messages.">
<polygon fill="none" stroke="black" points="175.5,-380.5 175.5,-399.5 302.5,-399.5 302.5,-380.5 175.5,-380.5"/>
<text text-anchor="middle" x="239" y="-387.5" font-family="Helvetica,sans-Serif" font-size="10.00">fer_msg_attachment.h</text>
</a>
</g>
</g>
<!-- Node1&#45;&gt;Node28 -->
<g id="edge35" class="edge">
<title>Node1&#45;&gt;Node28</title>
<path fill="none" stroke="midnightblue" d="M300.8,-436.4C288.18,-427.13 271.71,-415.03 258.94,-405.65"/>
<polygon fill="midnightblue" stroke="midnightblue" points="260.92,-402.76 250.79,-399.66 256.77,-408.4 260.92,-402.76"/>
</g>
<!-- Node3&#45;&gt;Node2 -->
<g id="edge3" class="edge">
<title>Node3&#45;&gt;Node2</title>
<path fill="none" stroke="midnightblue" d="M391.4,-380.47C367.1,-360.92 309.25,-314.43 307,-313 276.47,-293.59 258.6,-303.52 234,-277 203.28,-243.88 199.3,-223.52 207,-179 208.91,-167.94 213.02,-156.09 216.83,-146.65"/>
<polygon fill="midnightblue" stroke="midnightblue" points="220.16,-147.76 220.87,-137.19 213.72,-145.01 220.16,-147.76"/>
</g>
<!-- Node4 -->
<g id="node4" class="node">
<title>Node4</title>
<g id="a_node4"><a xlink:href="fer__msg__plain_8h.html" target="_top" xlink:title="Data structure of plain messages or header of extended messages.">
<polygon fill="none" stroke="black" points="354.5,-319 354.5,-338 449.5,-338 449.5,-319 354.5,-319"/>
<text text-anchor="middle" x="402" y="-326" font-family="Helvetica,sans-Serif" font-size="10.00">fer_msg_plain.h</text>
</a>
</g>
</g>
<!-- Node3&#45;&gt;Node4 -->
<g id="edge4" class="edge">
<title>Node3&#45;&gt;Node4</title>
<path fill="none" stroke="midnightblue" d="M402,-380.48C402,-372.08 402,-358.98 402,-348.16"/>
<polygon fill="midnightblue" stroke="midnightblue" points="405.5,-348.01 402,-338.01 398.5,-348.01 405.5,-348.01"/>
</g>
<!-- Node7 -->
<g id="node7" class="node">
<title>Node7</title>
<g id="a_node7"><a xlink:href="fer__trx__c__api_8h.html" target="_top" xlink:title="C&#45;API for sending and receiving Fernotron RF messages.">
<polygon fill="none" stroke="black" points="550,-246.5 550,-276.5 666,-276.5 666,-246.5 550,-246.5"/>
<text text-anchor="start" x="558" y="-264.5" font-family="Helvetica,sans-Serif" font-size="10.00">fernotron_trx/fer_trx</text>
<text text-anchor="middle" x="608" y="-253.5" font-family="Helvetica,sans-Serif" font-size="10.00">_c_api.h</text>
</a>
</g>
</g>
<!-- Node3&#45;&gt;Node7 -->
<g id="edge34" class="edge">
<title>Node3&#45;&gt;Node7</title>
<path fill="none" stroke="midnightblue" d="M416.42,-380.44C431.55,-371.44 456.01,-356.83 477,-344 511.29,-323.05 550.39,-298.66 576.88,-282.06"/>
<polygon fill="midnightblue" stroke="midnightblue" points="578.74,-285.02 585.35,-276.75 575.02,-279.09 578.74,-285.02"/>
</g>
<!-- Node27 -->
<g id="node27" class="node">
<title>Node27</title>
<g id="a_node27"><a xlink:href="int__macros_8h.html" target="_top" xlink:title="Basic helper macros for integers.">
<polygon fill="none" stroke="black" points="400,-252 400,-271 532,-271 532,-252 400,-252"/>
<text text-anchor="middle" x="466" y="-259" font-family="Helvetica,sans-Serif" font-size="10.00">utils_misc/int_macros.h</text>
</a>
</g>
</g>
<!-- Node3&#45;&gt;Node27 -->
<g id="edge33" class="edge">
<title>Node3&#45;&gt;Node27</title>
<path fill="none" stroke="midnightblue" d="M419.42,-380.35C432.72,-372.73 450.21,-360.32 459,-344 469.5,-324.51 469.81,-298.54 468.44,-281.21"/>
<polygon fill="midnightblue" stroke="midnightblue" points="471.92,-280.8 467.4,-271.22 464.96,-281.53 471.92,-280.8"/>
</g>
<!-- Node5 -->
<g id="node5" class="node">
<title>Node5</title>
<g id="a_node5"><a xlink:href="fer__msg__type_8h.html" target="_top" xlink:title="kinds of messages">
<polygon fill="none" stroke="black" points="216,-185 216,-204 308,-204 308,-185 216,-185"/>
<text text-anchor="middle" x="262" y="-192" font-family="Helvetica,sans-Serif" font-size="10.00">fer_msg_type.h</text>
</a>
</g>
</g>
<!-- Node4&#45;&gt;Node5 -->
<g id="edge5" class="edge">
<title>Node4&#45;&gt;Node5</title>
<path fill="none" stroke="midnightblue" d="M368.51,-318.97C324.66,-307.46 252.46,-287.24 245,-277 231.21,-258.08 241.68,-230.47 251.23,-212.74"/>
<polygon fill="midnightblue" stroke="midnightblue" points="254.29,-214.44 256.28,-204.03 248.24,-210.93 254.29,-214.44"/>
</g>
<!-- Node6 -->
<g id="node6" class="node">
<title>Node6</title>
<g id="a_node6"><a xlink:href="fer__msg__plain__enum_8h.html" target="_top" xlink:title="Raw message for plain commands.">
<polygon fill="none" stroke="black" points="254,-252 254,-271 382,-271 382,-252 254,-252"/>
<text text-anchor="middle" x="318" y="-259" font-family="Helvetica,sans-Serif" font-size="10.00">fer_msg_plain_enum.h</text>
</a>
</g>
</g>
<!-- Node4&#45;&gt;Node6 -->
<g id="edge7" class="edge">
<title>Node4&#45;&gt;Node6</title>
<path fill="none" stroke="midnightblue" d="M390.67,-318.73C376.94,-308.11 353.6,-290.05 337.08,-277.26"/>
<polygon fill="midnightblue" stroke="midnightblue" points="339.2,-274.48 329.15,-271.13 334.92,-280.02 339.2,-274.48"/>
</g>
<!-- Node4&#45;&gt;Node7 -->
<g id="edge8" class="edge">
<title>Node4&#45;&gt;Node7</title>
<path fill="none" stroke="midnightblue" d="M429.36,-318.87C461,-308.88 513.88,-292.2 553.92,-279.56"/>
<polygon fill="midnightblue" stroke="midnightblue" points="555.06,-282.88 563.54,-276.53 552.95,-276.2 555.06,-282.88"/>
</g>
<!-- Node4&#45;&gt;Node27 -->
<g id="edge31" class="edge">
<title>Node4&#45;&gt;Node27</title>
<path fill="none" stroke="midnightblue" d="M410.63,-318.73C420.8,-308.4 437.9,-291.04 450.41,-278.33"/>
<polygon fill="midnightblue" stroke="midnightblue" points="452.98,-280.71 457.51,-271.13 448,-275.8 452.98,-280.71"/>
</g>
<!-- Node5&#45;&gt;Node2 -->
<g id="edge6" class="edge">
<title>Node5&#45;&gt;Node2</title>
<path fill="none" stroke="midnightblue" d="M257.01,-184.73C251.41,-174.89 242.17,-158.66 235.05,-146.16"/>
<polygon fill="midnightblue" stroke="midnightblue" points="237.9,-144.09 229.91,-137.13 231.82,-147.55 237.9,-144.09"/>
</g>
<!-- Node8 -->
<g id="node8" class="node">
<title>Node8</title>
<g id="a_node8"><a xlink:href="int__types_8h_source.html" target="_top" xlink:title=" ">
<polygon fill="none" stroke="black" points="366.5,-185 366.5,-204 489.5,-204 489.5,-185 366.5,-185"/>
<text text-anchor="middle" x="428" y="-192" font-family="Helvetica,sans-Serif" font-size="10.00">utils_misc/int_types.h</text>
</a>
</g>
</g>
<!-- Node7&#45;&gt;Node8 -->
<g id="edge9" class="edge">
<title>Node7&#45;&gt;Node8</title>
<path fill="none" stroke="midnightblue" d="M568.94,-246.4C536.8,-234.79 491.73,-218.51 461.28,-207.52"/>
<polygon fill="midnightblue" stroke="midnightblue" points="462.15,-204.11 451.56,-204.01 459.77,-210.7 462.15,-204.11"/>
</g>
<!-- Node10 -->
<g id="node10" class="node">
<title>Node10</title>
<g id="a_node10"><a xlink:href="timer__data_8h.html" target="_top" xlink:title="vocabulary types to program Fernotron automatic (timers)">
<polygon fill="none" stroke="black" points="542,-179.5 542,-209.5 652,-209.5 652,-179.5 542,-179.5"/>
<text text-anchor="start" x="550" y="-197.5" font-family="Helvetica,sans-Serif" font-size="10.00">fernotron_trx/timer</text>
<text text-anchor="middle" x="597" y="-186.5" font-family="Helvetica,sans-Serif" font-size="10.00">_data.h</text>
</a>
</g>
</g>
<!-- Node7&#45;&gt;Node10 -->
<g id="edge12" class="edge">
<title>Node7&#45;&gt;Node10</title>
<path fill="none" stroke="midnightblue" d="M605.61,-246.4C604.29,-238.56 602.6,-228.6 601.07,-219.57"/>
<polygon fill="midnightblue" stroke="midnightblue" points="604.5,-218.85 599.38,-209.58 597.6,-220.02 604.5,-218.85"/>
</g>
<!-- Node7&#45;&gt;Node26 -->
<g id="edge30" class="edge">
<title>Node7&#45;&gt;Node26</title>
<path fill="none" stroke="midnightblue" d="M626.66,-246.4C640.73,-235.76 659.99,-221.2 674.31,-210.38"/>
<polygon fill="midnightblue" stroke="midnightblue" points="676.63,-213.02 682.5,-204.19 672.41,-207.43 676.63,-213.02"/>
</g>
<!-- Node8&#45;&gt;Node2 -->
<g id="edge10" class="edge">
<title>Node8&#45;&gt;Node2</title>
<path fill="none" stroke="midnightblue" d="M401.04,-184.87C365.15,-173.38 301.54,-153.01 261.41,-140.16"/>
<polygon fill="midnightblue" stroke="midnightblue" points="262.34,-136.78 251.75,-137.06 260.2,-143.45 262.34,-136.78"/>
</g>
<!-- Node9 -->
<g id="node9" class="node">
<title>Node9</title>
<g id="a_node9"><a xlink:title=" ">
<polygon fill="none" stroke="#bfbfbf" points="397,-118 397,-137 459,-137 459,-118 397,-118"/>
<text text-anchor="middle" x="428" y="-125" font-family="Helvetica,sans-Serif" font-size="10.00">stdbool.h</text>
</a>
</g>
</g>
<!-- Node8&#45;&gt;Node9 -->
<g id="edge11" class="edge">
<title>Node8&#45;&gt;Node9</title>
<path fill="none" stroke="midnightblue" d="M428,-184.73C428,-175.18 428,-159.62 428,-147.28"/>
<polygon fill="midnightblue" stroke="midnightblue" points="431.5,-147.13 428,-137.13 424.5,-147.13 431.5,-147.13"/>
</g>
<!-- Node10&#45;&gt;Node2 -->
<g id="edge13" class="edge">
<title>Node10&#45;&gt;Node2</title>
<path fill="none" stroke="midnightblue" d="M541.71,-183.84C464.67,-170.38 327.14,-146.35 261.63,-134.9"/>
<polygon fill="midnightblue" stroke="midnightblue" points="262.21,-131.45 251.76,-133.18 261.01,-138.34 262.21,-131.45"/>
</g>
<!-- Node10&#45;&gt;Node9 -->
<g id="edge14" class="edge">
<title>Node10&#45;&gt;Node9</title>
<path fill="none" stroke="midnightblue" d="M560.33,-179.4C530.28,-167.84 488.21,-151.66 459.62,-140.66"/>
<polygon fill="midnightblue" stroke="midnightblue" points="460.71,-137.33 450.12,-137.01 458.2,-143.86 460.71,-137.33"/>
</g>
<!-- Node11 -->
<g id="node11" class="node">
<title>Node11</title>
<g id="a_node11"><a xlink:title=" ">
<polygon fill="none" stroke="#bfbfbf" points="760.5,-118 760.5,-137 813.5,-137 813.5,-118 760.5,-118"/>
<text text-anchor="middle" x="787" y="-125" font-family="Helvetica,sans-Serif" font-size="10.00">string.h</text>
</a>
</g>
</g>
<!-- Node10&#45;&gt;Node11 -->
<g id="edge15" class="edge">
<title>Node10&#45;&gt;Node11</title>
<path fill="none" stroke="midnightblue" d="M643.44,-179.41C674.41,-169.76 715.89,-156.34 752,-143 753.85,-142.32 755.75,-141.59 757.66,-140.85"/>
<polygon fill="midnightblue" stroke="midnightblue" points="759.14,-144.03 767.12,-137.05 756.53,-137.53 759.14,-144.03"/>
</g>
<!-- Node12 -->
<g id="node12" class="node">
<title>Node12</title>
<g id="a_node12"><a xlink:title=" ">
<polygon fill="none" stroke="#bfbfbf" points="831.5,-118 831.5,-137 884.5,-137 884.5,-118 831.5,-118"/>
<text text-anchor="middle" x="858" y="-125" font-family="Helvetica,sans-Serif" font-size="10.00">ctype.h</text>
</a>
</g>
</g>
<!-- Node10&#45;&gt;Node12 -->
<g id="edge16" class="edge">
<title>Node10&#45;&gt;Node12</title>
<path fill="none" stroke="midnightblue" d="M652.15,-180.99C655.15,-180.31 658.11,-179.65 661,-179 732.97,-162.85 752.66,-165.2 823,-143 825.14,-142.32 827.33,-141.57 829.52,-140.77"/>
<polygon fill="midnightblue" stroke="midnightblue" points="830.92,-143.98 838.97,-137.09 828.38,-137.46 830.92,-143.98"/>
</g>
<!-- Node13 -->
<g id="node13" class="node">
<title>Node13</title>
<g id="a_node13"><a xlink:title=" ">
<polygon fill="none" stroke="#bfbfbf" points="477,-118 477,-137 527,-137 527,-118 477,-118"/>
<text text-anchor="middle" x="502" y="-125" font-family="Helvetica,sans-Serif" font-size="10.00">stdio.h</text>
</a>
</g>
</g>
<!-- Node10&#45;&gt;Node13 -->
<g id="edge17" class="edge">
<title>Node10&#45;&gt;Node13</title>
<path fill="none" stroke="midnightblue" d="M576.39,-179.4C560.6,-168.6 538.91,-153.76 523.03,-142.89"/>
<polygon fill="midnightblue" stroke="midnightblue" points="524.66,-139.77 514.43,-137.01 520.71,-145.54 524.66,-139.77"/>
</g>
<!-- Node14 -->
<g id="node14" class="node">
<title>Node14</title>
<g id="a_node14"><a xlink:href="cstring__utils_8hh_source.html" target="_top" xlink:title=" ">
<polygon fill="none" stroke="black" points="545,-112.5 545,-142.5 647,-142.5 647,-112.5 545,-112.5"/>
<text text-anchor="start" x="553" y="-130.5" font-family="Helvetica,sans-Serif" font-size="10.00">utils_misc/cstring</text>
<text text-anchor="middle" x="596" y="-119.5" font-family="Helvetica,sans-Serif" font-size="10.00">_utils.hh</text>
</a>
</g>
</g>
<!-- Node10&#45;&gt;Node14 -->
<g id="edge18" class="edge">
<title>Node10&#45;&gt;Node14</title>
<path fill="none" stroke="midnightblue" d="M596.78,-179.4C596.66,-171.64 596.51,-161.81 596.37,-152.86"/>
<polygon fill="midnightblue" stroke="midnightblue" points="599.87,-152.52 596.22,-142.58 592.87,-152.63 599.87,-152.52"/>
</g>
<!-- Node20 -->
<g id="node20" class="node">
<title>Node20</title>
<g id="a_node20"><a xlink:href="dbg_8h_source.html" target="_top" xlink:title=" ">
<polygon fill="none" stroke="black" points="665.5,-118 665.5,-137 742.5,-137 742.5,-118 665.5,-118"/>
<text text-anchor="middle" x="704" y="-125" font-family="Helvetica,sans-Serif" font-size="10.00">debug/dbg.h</text>
</a>
</g>
</g>
<!-- Node10&#45;&gt;Node20 -->
<g id="edge24" class="edge">
<title>Node10&#45;&gt;Node20</title>
<path fill="none" stroke="midnightblue" d="M620.22,-179.4C638.33,-168.39 663.34,-153.2 681.31,-142.28"/>
<polygon fill="midnightblue" stroke="midnightblue" points="683.27,-145.19 690,-137.01 679.63,-139.21 683.27,-145.19"/>
</g>
<!-- Node15 -->
<g id="node15" class="node">
<title>Node15</title>
<g id="a_node15"><a xlink:title=" ">
<polygon fill="none" stroke="#bfbfbf" points="571,-56.5 571,-75.5 621,-75.5 621,-56.5 571,-56.5"/>
<text text-anchor="middle" x="596" y="-63.5" font-family="Helvetica,sans-Serif" font-size="10.00">cstring</text>
</a>
</g>
</g>
<!-- Node14&#45;&gt;Node15 -->
<g id="edge19" class="edge">
<title>Node14&#45;&gt;Node15</title>
<path fill="none" stroke="midnightblue" d="M596,-112.4C596,-104.47 596,-94.46 596,-85.86"/>
<polygon fill="midnightblue" stroke="midnightblue" points="599.5,-85.66 596,-75.66 592.5,-85.66 599.5,-85.66"/>
</g>
<!-- Node16 -->
<g id="node16" class="node">
<title>Node16</title>
<g id="a_node16"><a xlink:title=" ">
<polygon fill="none" stroke="#bfbfbf" points="352.5,-56.5 352.5,-75.5 421.5,-75.5 421.5,-56.5 352.5,-56.5"/>
<text text-anchor="middle" x="387" y="-63.5" font-family="Helvetica,sans-Serif" font-size="10.00">type_traits</text>
</a>
</g>
</g>
<!-- Node14&#45;&gt;Node16 -->
<g id="edge20" class="edge">
<title>Node14&#45;&gt;Node16</title>
<path fill="none" stroke="midnightblue" d="M546.73,-112.47C510.05,-102.03 460.62,-87.96 426.51,-78.25"/>
<polygon fill="midnightblue" stroke="midnightblue" points="427.46,-74.88 416.88,-75.51 425.54,-81.61 427.46,-74.88"/>
</g>
<!-- Node17 -->
<g id="node17" class="node">
<title>Node17</title>
<g id="a_node17"><a xlink:href="allocator__malloc_8hh_source.html" target="_top" xlink:title=" ">
<polygon fill="none" stroke="black" points="439.5,-56.5 439.5,-75.5 552.5,-75.5 552.5,-56.5 439.5,-56.5"/>
<text text-anchor="middle" x="496" y="-63.5" font-family="Helvetica,sans-Serif" font-size="10.00">allocator_malloc.hh</text>
</a>
</g>
</g>
<!-- Node14&#45;&gt;Node17 -->
<g id="edge21" class="edge">
<title>Node14&#45;&gt;Node17</title>
<path fill="none" stroke="midnightblue" d="M572.3,-112.4C556.27,-102.86 535.2,-90.32 519.26,-80.84"/>
<polygon fill="midnightblue" stroke="midnightblue" points="520.93,-77.76 510.55,-75.66 517.36,-83.78 520.93,-77.76"/>
</g>
<!-- Node18 -->
<g id="node18" class="node">
<title>Node18</title>
<g id="a_node18"><a xlink:title=" ">
<polygon fill="none" stroke="#bfbfbf" points="505,-0.5 505,-19.5 563,-19.5 563,-0.5 505,-0.5"/>
<text text-anchor="middle" x="534" y="-7.5" font-family="Helvetica,sans-Serif" font-size="10.00">memory</text>
</a>
</g>
</g>
<!-- Node17&#45;&gt;Node18 -->
<g id="edge22" class="edge">
<title>Node17&#45;&gt;Node18</title>
<path fill="none" stroke="midnightblue" d="M502.27,-56.08C507.64,-48.46 515.52,-37.26 522.08,-27.94"/>
<polygon fill="midnightblue" stroke="midnightblue" points="524.95,-29.94 527.84,-19.75 519.22,-25.91 524.95,-29.94"/>
</g>
<!-- Node19 -->
<g id="node19" class="node">
<title>Node19</title>
<g id="a_node19"><a xlink:title=" ">
<polygon fill="none" stroke="#bfbfbf" points="427.5,-0.5 427.5,-19.5 486.5,-19.5 486.5,-0.5 427.5,-0.5"/>
<text text-anchor="middle" x="457" y="-7.5" font-family="Helvetica,sans-Serif" font-size="10.00">malloc.h</text>
</a>
</g>
</g>
<!-- Node17&#45;&gt;Node19 -->
<g id="edge23" class="edge">
<title>Node17&#45;&gt;Node19</title>
<path fill="none" stroke="midnightblue" d="M489.56,-56.08C484.05,-48.46 475.97,-37.26 469.24,-27.94"/>
<polygon fill="midnightblue" stroke="midnightblue" points="472.01,-25.81 463.32,-19.75 466.34,-29.91 472.01,-25.81"/>
</g>
<!-- Node21 -->
<g id="node21" class="node">
<title>Node21</title>
<g id="a_node21"><a xlink:href="log_8h_source.html" target="_top" xlink:title=" ">
<polygon fill="none" stroke="black" points="713.5,-56.5 713.5,-75.5 754.5,-75.5 754.5,-56.5 713.5,-56.5"/>
<text text-anchor="middle" x="734" y="-63.5" font-family="Helvetica,sans-Serif" font-size="10.00">log.h</text>
</a>
</g>
</g>
<!-- Node20&#45;&gt;Node21 -->
<g id="edge25" class="edge">
<title>Node20&#45;&gt;Node21</title>
<path fill="none" stroke="midnightblue" d="M708.3,-117.98C712.66,-109.32 719.56,-95.65 725.1,-84.65"/>
<polygon fill="midnightblue" stroke="midnightblue" points="728.33,-86.01 729.71,-75.51 722.08,-82.86 728.33,-86.01"/>
</g>
<!-- Node23 -->
<g id="node23" class="node">
<title>Node23</title>
<g id="a_node23"><a xlink:title=" ">
<polygon fill="none" stroke="#bfbfbf" points="772.5,-56.5 772.5,-75.5 825.5,-75.5 825.5,-56.5 772.5,-56.5"/>
<text text-anchor="middle" x="799" y="-63.5" font-family="Helvetica,sans-Serif" font-size="10.00">stdlib.h</text>
</a>
</g>
</g>
<!-- Node20&#45;&gt;Node23 -->
<g id="edge27" class="edge">
<title>Node20&#45;&gt;Node23</title>
<path fill="none" stroke="midnightblue" d="M717.61,-117.98C733.06,-108.3 758.49,-92.37 776.82,-80.89"/>
<polygon fill="midnightblue" stroke="midnightblue" points="778.8,-83.78 785.41,-75.51 775.08,-77.85 778.8,-83.78"/>
</g>
<!-- Node24 -->
<g id="node24" class="node">
<title>Node24</title>
<g id="a_node24"><a xlink:title=" ">
<polygon fill="none" stroke="#bfbfbf" points="844,-56.5 844,-75.5 900,-75.5 900,-56.5 844,-56.5"/>
<text text-anchor="middle" x="872" y="-63.5" font-family="Helvetica,sans-Serif" font-size="10.00">unistd.h</text>
</a>
</g>
</g>
<!-- Node20&#45;&gt;Node24 -->
<g id="edge28" class="edge">
<title>Node20&#45;&gt;Node24</title>
<path fill="none" stroke="midnightblue" d="M728.07,-117.98C757.01,-107.72 805.76,-90.46 838.4,-78.9"/>
<polygon fill="midnightblue" stroke="midnightblue" points="839.72,-82.15 847.97,-75.51 837.38,-75.55 839.72,-82.15"/>
</g>
<!-- Node25 -->
<g id="node25" class="node">
<title>Node25</title>
<g id="a_node25"><a xlink:title=" ">
<polygon fill="none" stroke="#bfbfbf" points="639,-56.5 639,-75.5 695,-75.5 695,-56.5 639,-56.5"/>
<text text-anchor="middle" x="667" y="-63.5" font-family="Helvetica,sans-Serif" font-size="10.00">assert.h</text>
</a>
</g>
</g>
<!-- Node20&#45;&gt;Node25 -->
<g id="edge29" class="edge">
<title>Node20&#45;&gt;Node25</title>
<path fill="none" stroke="midnightblue" d="M698.7,-117.98C693.26,-109.23 684.64,-95.37 677.76,-84.31"/>
<polygon fill="midnightblue" stroke="midnightblue" points="680.54,-82.15 672.29,-75.51 674.6,-85.85 680.54,-82.15"/>
</g>
<!-- Node22 -->
<g id="node22" class="node">
<title>Node22</title>
<g id="a_node22"><a xlink:title=" ">
<polygon fill="none" stroke="#bfbfbf" points="702.5,-0.5 702.5,-19.5 765.5,-19.5 765.5,-0.5 702.5,-0.5"/>
<text text-anchor="middle" x="734" y="-7.5" font-family="Helvetica,sans-Serif" font-size="10.00">esp_log.h</text>
</a>
</g>
</g>
<!-- Node21&#45;&gt;Node22 -->
<g id="edge26" class="edge">
<title>Node21&#45;&gt;Node22</title>
<path fill="none" stroke="midnightblue" d="M734,-56.08C734,-49.01 734,-38.86 734,-29.99"/>
<polygon fill="midnightblue" stroke="midnightblue" points="737.5,-29.75 734,-19.75 730.5,-29.75 737.5,-29.75"/>
</g>
<!-- Node27&#45;&gt;Node2 -->
<g id="edge32" class="edge">
<title>Node27&#45;&gt;Node2</title>
<path fill="none" stroke="midnightblue" d="M444.21,-251.9C421.9,-242.74 386.54,-227.2 358,-210 338.43,-198.21 336.17,-191.42 317,-179 295.64,-165.17 270.21,-151.4 251.5,-141.74"/>
<polygon fill="midnightblue" stroke="midnightblue" points="252.89,-138.52 242.39,-137.09 249.7,-144.75 252.89,-138.52"/>
</g>
<!-- Node28&#45;&gt;Node2 -->
<g id="edge36" class="edge">
<title>Node28&#45;&gt;Node2</title>
<path fill="none" stroke="midnightblue" d="M175.18,-381.58C128.78,-374.71 71.65,-362.71 57,-344 -2.68,-267.77 139.56,-176.12 199.71,-142.09"/>
<polygon fill="midnightblue" stroke="midnightblue" points="201.58,-145.05 208.61,-137.13 198.17,-138.94 201.58,-145.05"/>
</g>
<!-- Node28&#45;&gt;Node4 -->
<g id="edge37" class="edge">
<title>Node28&#45;&gt;Node4</title>
<path fill="none" stroke="midnightblue" d="M262.35,-380.48C290.31,-370.27 337.33,-353.11 368.99,-341.55"/>
<polygon fill="midnightblue" stroke="midnightblue" points="370.5,-344.73 378.69,-338.01 368.1,-338.15 370.5,-344.73"/>
</g>
<!-- Node29 -->
<g id="node29" class="node">
<title>Node29</title>
<g id="a_node29"><a xlink:href="fer__msg__attachment__enum_8h.html" target="_top" xlink:title="Enums for extended messages.">
<polygon fill="none" stroke="black" points="180,-313.5 180,-343.5 298,-343.5 298,-313.5 180,-313.5"/>
<text text-anchor="start" x="188" y="-331.5" font-family="Helvetica,sans-Serif" font-size="10.00">fer_msg_attachment</text>
<text text-anchor="middle" x="239" y="-320.5" font-family="Helvetica,sans-Serif" font-size="10.00">_enum.h</text>
</a>
</g>
</g>
<!-- Node28&#45;&gt;Node29 -->
<g id="edge38" class="edge">
<title>Node28&#45;&gt;Node29</title>
<path fill="none" stroke="midnightblue" d="M239,-380.48C239,-373.47 239,-363.19 239,-353.7"/>
<polygon fill="midnightblue" stroke="midnightblue" points="242.5,-353.52 239,-343.52 235.5,-353.52 242.5,-353.52"/>
</g>
<!-- Node30 -->
<g id="node30" class="node">
<title>Node30</title>
<g id="a_node30"><a xlink:href="bcd_8h_source.html" target="_top" xlink:title=" ">
<polygon fill="none" stroke="black" points="66.5,-319 66.5,-338 161.5,-338 161.5,-319 66.5,-319"/>
<text text-anchor="middle" x="114" y="-326" font-family="Helvetica,sans-Serif" font-size="10.00">utils_misc/bcd.h</text>
</a>
</g>
</g>
<!-- Node28&#45;&gt;Node30 -->
<g id="edge39" class="edge">
<title>Node28&#45;&gt;Node30</title>
<path fill="none" stroke="midnightblue" d="M221.09,-380.48C200.11,-370.49 165.15,-353.85 140.91,-342.31"/>
<polygon fill="midnightblue" stroke="midnightblue" points="142.41,-339.15 131.88,-338.01 139.4,-345.47 142.41,-339.15"/>
</g>
<!-- Node30&#45;&gt;Node2 -->
<g id="edge40" class="edge">
<title>Node30&#45;&gt;Node2</title>
<path fill="none" stroke="midnightblue" d="M116.16,-318.87C122.38,-295.09 141.96,-227.15 174,-179 182.82,-165.74 195.55,-153.13 206.08,-143.83"/>
<polygon fill="midnightblue" stroke="midnightblue" points="208.6,-146.28 213.94,-137.13 204.06,-140.95 208.6,-146.28"/>
</g>
</g>
</svg>
