<?xml version="1.0" encoding="UTF-8" standalone="no"?>
<!DOCTYPE svg PUBLIC "-//W3C//DTD SVG 1.1//EN"
 "http://www.w3.org/Graphics/SVG/1.1/DTD/svg11.dtd">
<!-- Generated by graphviz version 2.43.0 (0)
 -->
<!-- Title: fernotron_trx/fer_trx_c_api.h Pages: 1 -->
<svg width="1344pt" height="273pt"
 viewBox="0.00 0.00 1343.50 273.00" xmlns="http://www.w3.org/2000/svg" xmlns:xlink="http://www.w3.org/1999/xlink">
<g id="graph0" class="graph" transform="scale(1 1) rotate(0) translate(4 269)">
<title>fernotron_trx/fer_trx_c_api.h</title>
<!-- Node1 -->
<g id="node1" class="node">
<title>Node1</title>
<g id="a_node1"><a xlink:title="C&#45;API for sending and receiving Fernotron RF messages.">
<polygon fill="#bfbfbf" stroke="black" points="786,-234.5 786,-264.5 902,-264.5 902,-234.5 786,-234.5"/>
<text text-anchor="start" x="794" y="-252.5" font-family="Helvetica,sans-Serif" font-size="10.00">fernotron_trx/fer_trx</text>
<text text-anchor="middle" x="844" y="-241.5" font-family="Helvetica,sans-Serif" font-size="10.00">_c_api.h</text>
</a>
</g>
</g>
<!-- Node2 -->
<g id="node2" class="node">
<title>Node2</title>
<g id="a_node2"><a xlink:href="positions__dynamic_8h.html" target="_top" xlink:title="Keep track of positions for a currently moving shutter.">
<polygon fill="none" stroke="black" points="1039.5,-167.5 1039.5,-197.5 1168.5,-197.5 1168.5,-167.5 1039.5,-167.5"/>
<text text-anchor="start" x="1047.5" y="-185.5" font-family="Helvetica,sans-Serif" font-size="10.00">fernotron/pos/positions</text>
<text text-anchor="middle" x="1104" y="-174.5" font-family="Helvetica,sans-Serif" font-size="10.00">_dynamic.h</text>
</a>
</g>
</g>
<!-- Node1&#45;&gt;Node2 -->
<g id="edge1" class="edge">
<title>Node1&#45;&gt;Node2</title>
<path fill="none" stroke="midnightblue" d="M910.06,-231.98C952.53,-221.37 1007.12,-207.72 1047.56,-197.61"/>
<polygon fill="midnightblue" stroke="midnightblue" points="908.95,-228.66 900.1,-234.48 910.65,-235.45 908.95,-228.66"/>
</g>
<!-- Node5 -->
<g id="node5" class="node">
<title>Node5</title>
<g id="a_node5"><a xlink:href="set__endpos_8h.html" target="_top" xlink:title="Mode for setting shutter end positions.">
<polygon fill="none" stroke="black" points="1186.5,-173 1186.5,-192 1335.5,-192 1335.5,-173 1186.5,-173"/>
<text text-anchor="middle" x="1261" y="-180" font-family="Helvetica,sans-Serif" font-size="10.00">fernotron/sep/set_endpos.h</text>
</a>
</g>
</g>
<!-- Node1&#45;&gt;Node5 -->
<g id="edge4" class="edge">
<title>Node1&#45;&gt;Node5</title>
<path fill="none" stroke="midnightblue" d="M912.38,-238.63C979.94,-228.77 1086.19,-212.96 1178,-198 1189.41,-196.14 1201.68,-194.05 1213.19,-192.04"/>
<polygon fill="midnightblue" stroke="midnightblue" points="911.68,-235.19 902.29,-240.1 912.69,-242.12 911.68,-235.19"/>
</g>
<!-- Node6 -->
<g id="node6" class="node">
<title>Node6</title>
<g id="a_node6"><a xlink:href="fer__trx__api_8hh.html" target="_top" xlink:title="C++&#45;API for sending and receiving Fernotron RF messages.">
<polygon fill="none" stroke="black" points="410,-167.5 410,-197.5 526,-197.5 526,-167.5 410,-167.5"/>
<text text-anchor="start" x="418" y="-185.5" font-family="Helvetica,sans-Serif" font-size="10.00">fernotron_trx/fer_trx</text>
<text text-anchor="middle" x="468" y="-174.5" font-family="Helvetica,sans-Serif" font-size="10.00">_api.hh</text>
</a>
</g>
</g>
<!-- Node1&#45;&gt;Node6 -->
<g id="edge5" class="edge">
<title>Node1&#45;&gt;Node6</title>
<path fill="none" stroke="midnightblue" d="M775.42,-236.65C704.03,-224.3 593.43,-205.18 526.16,-193.56"/>
<polygon fill="midnightblue" stroke="midnightblue" points="775.21,-240.16 785.66,-238.42 776.4,-233.26 775.21,-240.16"/>
</g>
<!-- Node8 -->
<g id="node8" class="node">
<title>Node8</title>
<g id="a_node8"><a xlink:href="fer__fsb_8h.html" target="_top" xlink:title="Plain raw message.">
<polygon fill="none" stroke="black" points="509,-100.5 509,-130.5 627,-130.5 627,-100.5 509,-100.5"/>
<text text-anchor="start" x="517" y="-118.5" font-family="Helvetica,sans-Serif" font-size="10.00">fernotron_trx/raw/fer</text>
<text text-anchor="middle" x="568" y="-107.5" font-family="Helvetica,sans-Serif" font-size="10.00">_fsb.h</text>
</a>
</g>
</g>
<!-- Node1&#45;&gt;Node8 -->
<g id="edge7" class="edge">
<title>Node1&#45;&gt;Node8</title>
<path fill="none" stroke="midnightblue" d="M805.53,-230.1C749.73,-203.42 647.57,-154.55 597.39,-130.56"/>
<polygon fill="midnightblue" stroke="midnightblue" points="804.19,-233.34 814.72,-234.5 807.21,-227.03 804.19,-233.34"/>
</g>
<!-- Node9 -->
<g id="node9" class="node">
<title>Node9</title>
<g id="a_node9"><a xlink:href="fer__msg__tx_8h.html" target="_top" xlink:title="Send raw messages.">
<polygon fill="none" stroke="black" points="0,-17 0,-47 118,-47 118,-17 0,-17"/>
<text text-anchor="start" x="8" y="-35" font-family="Helvetica,sans-Serif" font-size="10.00">fernotron_trx/raw/fer</text>
<text text-anchor="middle" x="59" y="-24" font-family="Helvetica,sans-Serif" font-size="10.00">_msg_tx.h</text>
</a>
</g>
</g>
<!-- Node1&#45;&gt;Node9 -->
<g id="edge25" class="edge">
<title>Node1&#45;&gt;Node9</title>
<path fill="none" stroke="midnightblue" d="M775.65,-247.77C687.43,-245.23 529.93,-235.29 401,-198 273.39,-161.1 134.78,-80.06 81.55,-47.23"/>
<polygon fill="midnightblue" stroke="midnightblue" points="775.71,-251.27 785.8,-248.03 775.89,-244.27 775.71,-251.27"/>
</g>
<!-- Node14 -->
<g id="node14" class="node">
<title>Node14</title>
<g id="a_node14"><a xlink:href="fer__msg__plain_8h.html" target="_top" xlink:title="Data structure of plain messages or header of extended messages.">
<polygon fill="none" stroke="black" points="785,-167.5 785,-197.5 903,-197.5 903,-167.5 785,-167.5"/>
<text text-anchor="start" x="793" y="-185.5" font-family="Helvetica,sans-Serif" font-size="10.00">fernotron_trx/raw/fer</text>
<text text-anchor="middle" x="844" y="-174.5" font-family="Helvetica,sans-Serif" font-size="10.00">_msg_plain.h</text>
</a>
</g>
</g>
<!-- Node1&#45;&gt;Node14 -->
<g id="edge13" class="edge">
<title>Node1&#45;&gt;Node14</title>
<path fill="none" stroke="midnightblue" d="M844,-224.11C844,-215.15 844,-205.32 844,-197.58"/>
<polygon fill="midnightblue" stroke="midnightblue" points="840.5,-224.4 844,-234.4 847.5,-224.4 840.5,-224.4"/>
</g>
<!-- Node16 -->
<g id="node16" class="node">
<title>Node16</title>
<g id="a_node16"><a xlink:href="fer__radio__trx_8h.html" target="_top" xlink:title="RF transceiver.">
<polygon fill="none" stroke="black" points="1026,-17 1026,-47 1144,-47 1144,-17 1026,-17"/>
<text text-anchor="start" x="1034" y="-35" font-family="Helvetica,sans-Serif" font-size="10.00">fernotron_trx/raw/fer</text>
<text text-anchor="middle" x="1085" y="-24" font-family="Helvetica,sans-Serif" font-size="10.00">_radio_trx.h</text>
</a>
</g>
</g>
<!-- Node1&#45;&gt;Node16 -->
<g id="edge26" class="edge">
<title>Node1&#45;&gt;Node16</title>
<path fill="none" stroke="midnightblue" d="M872.62,-228.45C885,-219.47 899.48,-208.55 912,-198 974.21,-145.58 1042.57,-76.71 1071.2,-47.3"/>
<polygon fill="midnightblue" stroke="midnightblue" points="870.52,-225.65 864.43,-234.32 874.6,-231.33 870.52,-225.65"/>
</g>
<!-- Node3 -->
<g id="node3" class="node">
<title>Node3</title>
<g id="a_node3"><a xlink:href="shutter__pct_8h.html" target="_top" xlink:title="include positions_static.h and positions_dynamic.h">
<polygon fill="none" stroke="black" points="1110.5,-100.5 1110.5,-130.5 1229.5,-130.5 1229.5,-100.5 1110.5,-100.5"/>
<text text-anchor="start" x="1118.5" y="-118.5" font-family="Helvetica,sans-Serif" font-size="10.00">fernotron/pos/shutter</text>
<text text-anchor="middle" x="1170" y="-107.5" font-family="Helvetica,sans-Serif" font-size="10.00">_pct.h</text>
</a>
</g>
</g>
<!-- Node2&#45;&gt;Node3 -->
<g id="edge2" class="edge">
<title>Node2&#45;&gt;Node3</title>
<path fill="none" stroke="midnightblue" d="M1125.51,-160.31C1135.41,-150.56 1146.89,-139.26 1155.71,-130.58"/>
<polygon fill="midnightblue" stroke="midnightblue" points="1122.99,-157.89 1118.32,-167.4 1127.9,-162.87 1122.99,-157.89"/>
</g>
<!-- Node4 -->
<g id="node4" class="node">
<title>Node4</title>
<g id="a_node4"><a xlink:href="commands_8h.html" target="_top" xlink:title="commands to move or stop a shutter with position support">
<polygon fill="none" stroke="black" points="1162,-22.5 1162,-41.5 1310,-41.5 1310,-22.5 1162,-22.5"/>
<text text-anchor="middle" x="1236" y="-29.5" font-family="Helvetica,sans-Serif" font-size="10.00">fernotron/pos/commands.h</text>
</a>
</g>
</g>
<!-- Node3&#45;&gt;Node4 -->
<g id="edge3" class="edge">
<title>Node3&#45;&gt;Node4</title>
<path fill="none" stroke="midnightblue" d="M1188.13,-92.11C1201.68,-75.38 1219.46,-53.42 1229.08,-41.54"/>
<polygon fill="midnightblue" stroke="midnightblue" points="1185.07,-90.33 1181.5,-100.3 1190.51,-94.74 1185.07,-90.33"/>
</g>
<!-- Node7 -->
<g id="node7" class="node">
<title>Node7</title>
<g id="a_node7"><a xlink:href="fer__print_8h.html" target="_top" xlink:title="Print raw message as formatted text to standard output (for debug purposes).">
<polygon fill="none" stroke="black" points="300,-17 300,-47 404,-47 404,-17 300,-17"/>
<text text-anchor="start" x="308" y="-35" font-family="Helvetica,sans-Serif" font-size="10.00">fernotron/txtio/fer</text>
<text text-anchor="middle" x="352" y="-24" font-family="Helvetica,sans-Serif" font-size="10.00">_print.h</text>
</a>
</g>
</g>
<!-- Node6&#45;&gt;Node7 -->
<g id="edge6" class="edge">
<title>Node6&#45;&gt;Node7</title>
<path fill="none" stroke="midnightblue" d="M450.61,-159.24C426.49,-128.36 383.58,-73.42 363.26,-47.41"/>
<polygon fill="midnightblue" stroke="midnightblue" points="447.96,-161.54 456.88,-167.26 453.48,-157.23 447.96,-161.54"/>
</g>
<!-- Node8&#45;&gt;Node9 -->
<g id="edge8" class="edge">
<title>Node8&#45;&gt;Node9</title>
<path fill="none" stroke="midnightblue" d="M498.62,-113.24C410.65,-110.12 255.03,-99.55 127,-64 112.5,-59.97 97.18,-53.23 84.76,-47.06"/>
<polygon fill="midnightblue" stroke="midnightblue" points="498.63,-116.74 508.74,-113.57 498.86,-109.74 498.63,-116.74"/>
</g>
<!-- Node10 -->
<g id="node10" class="node">
<title>Node10</title>
<g id="a_node10"><a xlink:href="fer__rawmsg__build_8h.html" target="_top" xlink:title="builder functions to construct (extended) raw messages">
<polygon fill="none" stroke="black" points="590,-17 590,-47 708,-47 708,-17 590,-17"/>
<text text-anchor="start" x="598" y="-35" font-family="Helvetica,sans-Serif" font-size="10.00">fernotron_trx/raw/fer</text>
<text text-anchor="middle" x="649" y="-24" font-family="Helvetica,sans-Serif" font-size="10.00">_rawmsg_build.h</text>
</a>
</g>
</g>
<!-- Node8&#45;&gt;Node10 -->
<g id="edge9" class="edge">
<title>Node8&#45;&gt;Node10</title>
<path fill="none" stroke="midnightblue" d="M589.23,-93.14C603.7,-78.58 622.44,-59.72 635.05,-47.03"/>
<polygon fill="midnightblue" stroke="midnightblue" points="586.68,-90.74 582.11,-100.3 591.64,-95.68 586.68,-90.74"/>
</g>
<!-- Node11 -->
<g id="node11" class="node">
<title>Node11</title>
<g id="a_node11"><a xlink:href="fer__api_8h_source.html" target="_top" xlink:title=" ">
<polygon fill="none" stroke="black" points="862,-0.5 862,-63.5 1008,-63.5 1008,-0.5 862,-0.5"/>
<text text-anchor="start" x="870" y="-51.5" font-family="Helvetica,sans-Serif" font-size="10.00">/home/bertw/proj/mcu</text>
<text text-anchor="start" x="870" y="-40.5" font-family="Helvetica,sans-Serif" font-size="10.00">/tronferno&#45;mcu/external</text>
<text text-anchor="start" x="870" y="-29.5" font-family="Helvetica,sans-Serif" font-size="10.00">/tronferno&#45;lib/components</text>
<text text-anchor="start" x="870" y="-18.5" font-family="Helvetica,sans-Serif" font-size="10.00">/fernotron_trx/priv_include</text>
<text text-anchor="middle" x="935" y="-7.5" font-family="Helvetica,sans-Serif" font-size="10.00">/fer_api.h</text>
</a>
</g>
</g>
<!-- Node8&#45;&gt;Node11 -->
<g id="edge10" class="edge">
<title>Node8&#45;&gt;Node11</title>
<path fill="none" stroke="midnightblue" d="M637.19,-99.85C733.84,-82.26 761.64,-88.59 853,-64 855.94,-63.21 858.92,-62.35 861.92,-61.44"/>
<polygon fill="midnightblue" stroke="midnightblue" points="636.5,-96.42 627.31,-101.69 637.78,-103.3 636.5,-96.42"/>
</g>
<!-- Node12 -->
<g id="node12" class="node">
<title>Node12</title>
<g id="a_node12"><a xlink:href="fer__msg__tx__queue_8h_source.html" target="_top" xlink:title=" ">
<polygon fill="none" stroke="black" points="136,-0.5 136,-63.5 282,-63.5 282,-0.5 136,-0.5"/>
<text text-anchor="start" x="144" y="-51.5" font-family="Helvetica,sans-Serif" font-size="10.00">/home/bertw/proj/mcu</text>
<text text-anchor="start" x="144" y="-40.5" font-family="Helvetica,sans-Serif" font-size="10.00">/tronferno&#45;mcu/external</text>
<text text-anchor="start" x="144" y="-29.5" font-family="Helvetica,sans-Serif" font-size="10.00">/tronferno&#45;lib/components</text>
<text text-anchor="start" x="144" y="-18.5" font-family="Helvetica,sans-Serif" font-size="10.00">/fernotron_trx/priv_include</text>
<text text-anchor="middle" x="209" y="-7.5" font-family="Helvetica,sans-Serif" font-size="10.00">/fer_msg_tx_queue.h</text>
</a>
</g>
</g>
<!-- Node8&#45;&gt;Node12 -->
<g id="edge11" class="edge">
<title>Node8&#45;&gt;Node12</title>
<path fill="none" stroke="midnightblue" d="M499.04,-105.47C442.52,-97.23 360.76,-83.37 291,-64 288.07,-63.19 285.09,-62.31 282.1,-61.39"/>
<polygon fill="midnightblue" stroke="midnightblue" points="498.54,-108.94 508.94,-106.9 499.54,-102.01 498.54,-108.94"/>
</g>
<!-- Node13 -->
<g id="node13" class="node">
<title>Node13</title>
<g id="a_node13"><a xlink:href="fer__trx__incoming__event_8hh_source.html" target="_top" xlink:title=" ">
<polygon fill="none" stroke="black" points="422,-0.5 422,-63.5 572,-63.5 572,-0.5 422,-0.5"/>
<text text-anchor="start" x="430" y="-51.5" font-family="Helvetica,sans-Serif" font-size="10.00">/home/bertw/proj/mcu</text>
<text text-anchor="start" x="430" y="-40.5" font-family="Helvetica,sans-Serif" font-size="10.00">/tronferno&#45;mcu/external</text>
<text text-anchor="start" x="430" y="-29.5" font-family="Helvetica,sans-Serif" font-size="10.00">/tronferno&#45;lib/components</text>
<text text-anchor="start" x="430" y="-18.5" font-family="Helvetica,sans-Serif" font-size="10.00">/fernotron_trx/priv_include</text>
<text text-anchor="middle" x="497" y="-7.5" font-family="Helvetica,sans-Serif" font-size="10.00">/fer_trx_incoming_event.hh</text>
</a>
</g>
</g>
<!-- Node8&#45;&gt;Node13 -->
<g id="edge12" class="edge">
<title>Node8&#45;&gt;Node13</title>
<path fill="none" stroke="midnightblue" d="M548.93,-92.61C541.16,-83.69 532.04,-73.23 523.63,-63.57"/>
<polygon fill="midnightblue" stroke="midnightblue" points="546.43,-95.06 555.63,-100.3 551.7,-90.46 546.43,-95.06"/>
</g>
<!-- Node14&#45;&gt;Node4 -->
<g id="edge14" class="edge">
<title>Node14&#45;&gt;Node4</title>
<path fill="none" stroke="midnightblue" d="M890.6,-163.85C975.23,-131.79 1151.21,-65.12 1213.53,-41.51"/>
<polygon fill="midnightblue" stroke="midnightblue" points="889.34,-160.58 881.23,-167.4 891.82,-167.13 889.34,-160.58"/>
</g>
<!-- Node14&#45;&gt;Node8 -->
<g id="edge15" class="edge">
<title>Node14&#45;&gt;Node8</title>
<path fill="none" stroke="midnightblue" d="M775,-165.25C729.48,-154.53 670.47,-140.63 627.11,-130.42"/>
<polygon fill="midnightblue" stroke="midnightblue" points="774.26,-168.67 784.79,-167.56 775.86,-161.86 774.26,-168.67"/>
</g>
<!-- Node14&#45;&gt;Node11 -->
<g id="edge24" class="edge">
<title>Node14&#45;&gt;Node11</title>
<path fill="none" stroke="midnightblue" d="M883.06,-161.92C895.36,-153.93 907.84,-143.58 916,-131 928.92,-111.08 933.45,-84.41 934.87,-63.93"/>
<polygon fill="midnightblue" stroke="midnightblue" points="880.92,-159.13 874.2,-167.32 884.56,-165.11 880.92,-159.13"/>
</g>
<!-- Node15 -->
<g id="node15" class="node">
<title>Node15</title>
<g id="a_node15"><a xlink:href="fer__msg__attachment_8h.html" target="_top" xlink:title="Extended messages.">
<polygon fill="none" stroke="black" points="645,-100.5 645,-130.5 763,-130.5 763,-100.5 645,-100.5"/>
<text text-anchor="start" x="653" y="-118.5" font-family="Helvetica,sans-Serif" font-size="10.00">fernotron_trx/raw/fer</text>
<text text-anchor="middle" x="704" y="-107.5" font-family="Helvetica,sans-Serif" font-size="10.00">_msg_attachment.h</text>
</a>
</g>
</g>
<!-- Node14&#45;&gt;Node15 -->
<g id="edge16" class="edge">
<title>Node14&#45;&gt;Node15</title>
<path fill="none" stroke="midnightblue" d="M804.43,-163.13C782.19,-152.8 754.85,-140.11 734.32,-130.58"/>
<polygon fill="midnightblue" stroke="midnightblue" points="803.08,-166.36 813.62,-167.4 806.03,-160.01 803.08,-166.36"/>
</g>
<!-- Node18 -->
<g id="node18" class="node">
<title>Node18</title>
<g id="a_node18"><a xlink:href="repeater_8h_source.html" target="_top" xlink:title=" ">
<polygon fill="none" stroke="black" points="781.5,-100.5 781.5,-130.5 906.5,-130.5 906.5,-100.5 781.5,-100.5"/>
<text text-anchor="start" x="789.5" y="-118.5" font-family="Helvetica,sans-Serif" font-size="10.00">fernotron_trx/repeater</text>
<text text-anchor="middle" x="844" y="-107.5" font-family="Helvetica,sans-Serif" font-size="10.00">/repeater.h</text>
</a>
</g>
</g>
<!-- Node14&#45;&gt;Node18 -->
<g id="edge23" class="edge">
<title>Node14&#45;&gt;Node18</title>
<path fill="none" stroke="midnightblue" d="M844,-157.11C844,-148.15 844,-138.32 844,-130.58"/>
<polygon fill="midnightblue" stroke="midnightblue" points="840.5,-157.4 844,-167.4 847.5,-157.4 840.5,-157.4"/>
</g>
<!-- Node15&#45;&gt;Node7 -->
<g id="edge17" class="edge">
<title>Node15&#45;&gt;Node7</title>
<path fill="none" stroke="midnightblue" d="M634.86,-99.88C535.45,-82.33 505.47,-94.14 413,-64 400.12,-59.8 386.62,-53.2 375.6,-47.16"/>
<polygon fill="midnightblue" stroke="midnightblue" points="634.23,-103.32 644.7,-101.67 635.49,-96.44 634.23,-103.32"/>
</g>
<!-- Node15&#45;&gt;Node10 -->
<g id="edge20" class="edge">
<title>Node15&#45;&gt;Node10</title>
<path fill="none" stroke="midnightblue" d="M688.77,-91.93C679.06,-77.55 666.8,-59.37 658.47,-47.03"/>
<polygon fill="midnightblue" stroke="midnightblue" points="685.92,-93.97 694.42,-100.3 691.73,-90.06 685.92,-93.97"/>
</g>
<!-- Node15&#45;&gt;Node11 -->
<g id="edge21" class="edge">
<title>Node15&#45;&gt;Node11</title>
<path fill="none" stroke="midnightblue" d="M756.64,-97.16C785.22,-87.61 821.14,-75.42 853,-64 855.87,-62.97 858.78,-61.92 861.73,-60.84"/>
<polygon fill="midnightblue" stroke="midnightblue" points="755.23,-93.93 746.85,-100.42 757.44,-100.58 755.23,-93.93"/>
</g>
<!-- Node15&#45;&gt;Node13 -->
<g id="edge22" class="edge">
<title>Node15&#45;&gt;Node13</title>
<path fill="none" stroke="midnightblue" d="M659.07,-96.81C633.76,-86.84 601.47,-74.13 572.39,-62.68"/>
<polygon fill="midnightblue" stroke="midnightblue" points="657.83,-100.08 668.42,-100.49 660.39,-93.57 657.83,-100.08"/>
</g>
<!-- Node15&#45;&gt;Node16 -->
<g id="edge18" class="edge">
<title>Node15&#45;&gt;Node16</title>
<path fill="none" stroke="midnightblue" d="M772.69,-100.05C772.8,-100.04 772.9,-100.02 773,-100 880.91,-80.72 911.87,-95.04 1017,-64 1031.31,-59.77 1046.49,-53.09 1058.86,-47.01"/>
<polygon fill="midnightblue" stroke="midnightblue" points="772.24,-96.58 763.05,-101.85 773.52,-103.46 772.24,-96.58"/>
</g>
<!-- Node17 -->
<g id="node17" class="node">
<title>Node17</title>
<g id="a_node17"><a xlink:href="fer__rawmsg__buffer_8h.html" target="_top" xlink:title="Global static buffers for raw messages.">
<polygon fill="none" stroke="black" points="726,-17 726,-47 844,-47 844,-17 726,-17"/>
<text text-anchor="start" x="734" y="-35" font-family="Helvetica,sans-Serif" font-size="10.00">fernotron_trx/raw/fer</text>
<text text-anchor="middle" x="785" y="-24" font-family="Helvetica,sans-Serif" font-size="10.00">_rawmsg_buffer.h</text>
</a>
</g>
</g>
<!-- Node15&#45;&gt;Node17 -->
<g id="edge19" class="edge">
<title>Node15&#45;&gt;Node17</title>
<path fill="none" stroke="midnightblue" d="M725.23,-93.14C739.7,-78.58 758.44,-59.72 771.05,-47.03"/>
<polygon fill="midnightblue" stroke="midnightblue" points="722.68,-90.74 718.11,-100.3 727.64,-95.68 722.68,-90.74"/>
</g>
</g>
</svg>
