<?xml version="1.0" encoding="UTF-8" standalone="no"?>
<!DOCTYPE svg PUBLIC "-//W3C//DTD SVG 1.1//EN"
 "http://www.w3.org/Graphics/SVG/1.1/DTD/svg11.dtd">
<!-- Generated by graphviz version 2.43.0 (0)
 -->
<!-- Title: fernotron_trx/raw/fer_radio_trx.h Pages: 1 -->
<!--zoomable 475 -->
<svg id="main" version="1.1" xmlns="http://www.w3.org/2000/svg" xmlns:xlink="http://www.w3.org/1999/xlink" xml:space="preserve" onload="init(evt)">
<style type="text/css"><![CDATA[
.edge:hover path { stroke: red; }
.edge:hover polygon { stroke: red; fill: red; }
]]></style>
<script type="text/javascript"><![CDATA[
var edges = document.getElementsByTagName('g');
if (edges && edges.length) {
  for (var i=0;i<edges.length;i++) {
    if (edges[i].id.substr(0,4)=='edge') {
      edges[i].setAttribute('class','edge');
    }
  }
}
]]></script>
        <defs>
                <circle id="rim" cx="0" cy="0" r="7"/>
                <circle id="rim2" cx="0" cy="0" r="3.5"/>
                <g id="zoomPlus">
                        <use xlink:href="#rim" fill="#404040">
                                <set attributeName="fill" to="#808080" begin="zoomplus.mouseover" end="zoomplus.mouseout"/>
                        </use>
                        <path d="M-4,0h8M0,-4v8" fill="none" stroke="white" stroke-width="1.5" pointer-events="none"/>
                </g>
                <g id="zoomMin">
                        <use xlink:href="#rim" fill="#404040">
                                <set attributeName="fill" to="#808080" begin="zoomminus.mouseover" end="zoomminus.mouseout"/>
                        </use>
                        <path d="M-4,0h8" fill="none" stroke="white" stroke-width="1.5" pointer-events="none"/>
                </g>
                <g id="dirArrow">
                        <path fill="none" stroke="white" stroke-width="1.5" d="M0,-3.0v7 M-2.5,-0.5L0,-3.0L2.5,-0.5"/>
                </g>
               <g id="resetDef">
                       <use xlink:href="#rim2" fill="#404040">
                               <set attributeName="fill" to="#808080" begin="reset.mouseover" end="reset.mouseout"/>
                       </use>
               </g>
        </defs>

<script type="text/javascript">
var viewWidth = 1057;
var viewHeight = 475;
var sectionId = 'dynsection-0';
</script>
<script xlink:href="svgpan.js"/>
<svg id="graph" class="graph">
<g id="viewport">
<title>fernotron_trx/raw/fer_radio_trx.h</title>
<!-- Node1 -->
<g id="node1" class="node">
<title>Node1</title>
<g id="a_node1"><a xlink:title="RF transceiver.">
<polygon fill="#bfbfbf" stroke="black" points="345,-436.5 345,-466.5 463,-466.5 463,-436.5 345,-436.5"/>
<text text-anchor="start" x="353" y="-454.5" font-family="Helvetica,sans-Serif" font-size="10.00">fernotron_trx/raw/fer</text>
<text text-anchor="middle" x="404" y="-443.5" font-family="Helvetica,sans-Serif" font-size="10.00">_radio_trx.h</text>
</a>
</g>
</g>
<!-- Node2 -->
<g id="node2" class="node">
<title>Node2</title>
<g id="a_node2"><a xlink:title=" ">
<polygon fill="none" stroke="#bfbfbf" points="271.5,-118 271.5,-137 324.5,-137 324.5,-118 271.5,-118"/>
<text text-anchor="middle" x="298" y="-125" font-family="Helvetica,sans-Serif" font-size="10.00">stdint.h</text>
</a>
</g>
</g>
<!-- Node1&#45;&gt;Node2 -->
<g id="edge1" class="edge">
<title>Node1&#45;&gt;Node2</title>
<path fill="none" stroke="midnightblue" d="M344.82,-445.19C232.61,-433.47 0,-400.61 0,-329.5 0,-329.5 0,-329.5 0,-260.5 0,-147.46 181.49,-130.46 261.2,-128.45"/>
<polygon fill="midnightblue" stroke="midnightblue" points="261.36,-131.94 271.29,-128.26 261.23,-124.95 261.36,-131.94"/>
</g>
<!-- Node3 -->
<g id="node3" class="node">
<title>Node3</title>
<g id="a_node3"><a xlink:title=" ">
<polygon fill="none" stroke="#bfbfbf" points="499,-118 499,-137 561,-137 561,-118 499,-118"/>
<text text-anchor="middle" x="530" y="-125" font-family="Helvetica,sans-Serif" font-size="10.00">stdbool.h</text>
</a>
</g>
</g>
<!-- Node1&#45;&gt;Node3 -->
<g id="edge2" class="edge">
<title>Node1&#45;&gt;Node3</title>
<path fill="none" stroke="midnightblue" d="M463.02,-443.03C526.98,-431.26 620,-401.71 620,-329.5 620,-329.5 620,-329.5 620,-260.5 620,-223.31 621.72,-209.89 601,-179 590.32,-163.08 572.82,-150.55 557.87,-141.95"/>
<polygon fill="midnightblue" stroke="midnightblue" points="559.43,-138.82 548.97,-137.11 556.08,-144.97 559.43,-138.82"/>
</g>
<!-- Node4 -->
<g id="node4" class="node">
<title>Node4</title>
<g id="a_node4"><a xlink:href="fer__msg__attachment_8h.html" target="_top" xlink:title="Extended messages.">
<polygon fill="none" stroke="black" points="234.5,-380.5 234.5,-399.5 361.5,-399.5 361.5,-380.5 234.5,-380.5"/>
<text text-anchor="middle" x="298" y="-387.5" font-family="Helvetica,sans-Serif" font-size="10.00">fer_msg_attachment.h</text>
</a>
</g>
</g>
<!-- Node1&#45;&gt;Node4 -->
<g id="edge3" class="edge">
<title>Node1&#45;&gt;Node4</title>
<path fill="none" stroke="midnightblue" d="M378.88,-436.4C361.73,-426.77 339.14,-414.09 322.19,-404.58"/>
<polygon fill="midnightblue" stroke="midnightblue" points="323.86,-401.5 313.42,-399.66 320.43,-407.6 323.86,-401.5"/>
</g>
<!-- Node8 -->
<g id="node8" class="node">
<title>Node8</title>
<g id="a_node8"><a xlink:href="fer__trx__c__api_8h.html" target="_top" xlink:title="C&#45;API for sending and receiving Fernotron RF messages.">
<polygon fill="none" stroke="black" points="476,-246.5 476,-276.5 592,-276.5 592,-246.5 476,-246.5"/>
<text text-anchor="start" x="484" y="-264.5" font-family="Helvetica,sans-Serif" font-size="10.00">fernotron_trx/fer_trx</text>
<text text-anchor="middle" x="534" y="-253.5" font-family="Helvetica,sans-Serif" font-size="10.00">_c_api.h</text>
</a>
</g>
</g>
<!-- Node1&#45;&gt;Node8 -->
<g id="edge37" class="edge">
<title>Node1&#45;&gt;Node8</title>
<path fill="none" stroke="midnightblue" d="M417.07,-436.4C435,-416.65 467.66,-379.23 491,-344 503.48,-325.16 515.28,-302.29 523.35,-285.58"/>
<polygon fill="midnightblue" stroke="midnightblue" points="526.52,-287.07 527.65,-276.53 520.2,-284.06 526.52,-287.07"/>
</g>
<!-- Node4&#45;&gt;Node2 -->
<g id="edge4" class="edge">
<title>Node4&#45;&gt;Node2</title>
<path fill="none" stroke="midnightblue" d="M272.32,-380.41C233.84,-365.98 162.58,-332.83 133,-277 98.97,-212.78 204.62,-162.59 262.62,-140.61"/>
<polygon fill="midnightblue" stroke="midnightblue" points="264.01,-143.83 272.18,-137.08 261.58,-137.26 264.01,-143.83"/>
</g>
<!-- Node5 -->
<g id="node5" class="node">
<title>Node5</title>
<g id="a_node5"><a xlink:href="fer__msg__plain_8h.html" target="_top" xlink:title="Data structure of plain messages or header of extended messages.">
<polygon fill="none" stroke="black" points="250.5,-319 250.5,-338 345.5,-338 345.5,-319 250.5,-319"/>
<text text-anchor="middle" x="298" y="-326" font-family="Helvetica,sans-Serif" font-size="10.00">fer_msg_plain.h</text>
</a>
</g>
</g>
<!-- Node4&#45;&gt;Node5 -->
<g id="edge5" class="edge">
<title>Node4&#45;&gt;Node5</title>
<path fill="none" stroke="midnightblue" d="M298,-380.48C298,-372.08 298,-358.98 298,-348.16"/>
<polygon fill="midnightblue" stroke="midnightblue" points="301.5,-348.01 298,-338.01 294.5,-348.01 301.5,-348.01"/>
</g>
<!-- Node28 -->
<g id="node28" class="node">
<title>Node28</title>
<g id="a_node28"><a xlink:href="fer__msg__attachment__enum_8h.html" target="_top" xlink:title="Enums for extended messages.">
<polygon fill="none" stroke="black" points="364,-313.5 364,-343.5 482,-343.5 482,-313.5 364,-313.5"/>
<text text-anchor="start" x="372" y="-331.5" font-family="Helvetica,sans-Serif" font-size="10.00">fer_msg_attachment</text>
<text text-anchor="middle" x="423" y="-320.5" font-family="Helvetica,sans-Serif" font-size="10.00">_enum.h</text>
</a>
</g>
</g>
<!-- Node4&#45;&gt;Node28 -->
<g id="edge34" class="edge">
<title>Node4&#45;&gt;Node28</title>
<path fill="none" stroke="midnightblue" d="M315.91,-380.48C333.71,-372 361.58,-358.74 384.42,-347.86"/>
<polygon fill="midnightblue" stroke="midnightblue" points="386.01,-350.98 393.54,-343.52 383.01,-344.66 386.01,-350.98"/>
</g>
<!-- Node29 -->
<g id="node29" class="node">
<title>Node29</title>
<g id="a_node29"><a xlink:href="bcd_8h_source.html" target="_top" xlink:title=" ">
<polygon fill="none" stroke="black" points="28.5,-319 28.5,-338 123.5,-338 123.5,-319 28.5,-319"/>
<text text-anchor="middle" x="76" y="-326" font-family="Helvetica,sans-Serif" font-size="10.00">utils_misc/bcd.h</text>
</a>
</g>
</g>
<!-- Node4&#45;&gt;Node29 -->
<g id="edge35" class="edge">
<title>Node4&#45;&gt;Node29</title>
<path fill="none" stroke="midnightblue" d="M266.19,-380.48C227.12,-370 160.74,-352.21 117.64,-340.66"/>
<polygon fill="midnightblue" stroke="midnightblue" points="118.31,-337.22 107.75,-338.01 116.5,-343.98 118.31,-337.22"/>
</g>
<!-- Node6 -->
<g id="node6" class="node">
<title>Node6</title>
<g id="a_node6"><a xlink:href="fer__msg__type_8h.html" target="_top" xlink:title="kinds of messages">
<polygon fill="none" stroke="black" points="252,-185 252,-204 344,-204 344,-185 252,-185"/>
<text text-anchor="middle" x="298" y="-192" font-family="Helvetica,sans-Serif" font-size="10.00">fer_msg_type.h</text>
</a>
</g>
</g>
<!-- Node5&#45;&gt;Node6 -->
<g id="edge6" class="edge">
<title>Node5&#45;&gt;Node6</title>
<path fill="none" stroke="midnightblue" d="M298,-318.84C298,-297.67 298,-242.95 298,-214.03"/>
<polygon fill="midnightblue" stroke="midnightblue" points="301.5,-214.02 298,-204.02 294.5,-214.02 301.5,-214.02"/>
</g>
<!-- Node7 -->
<g id="node7" class="node">
<title>Node7</title>
<g id="a_node7"><a xlink:href="fer__msg__plain__enum_8h.html" target="_top" xlink:title="Raw message for plain commands.">
<polygon fill="none" stroke="black" points="142,-252 142,-271 270,-271 270,-252 142,-252"/>
<text text-anchor="middle" x="206" y="-259" font-family="Helvetica,sans-Serif" font-size="10.00">fer_msg_plain_enum.h</text>
</a>
</g>
</g>
<!-- Node5&#45;&gt;Node7 -->
<g id="edge8" class="edge">
<title>Node5&#45;&gt;Node7</title>
<path fill="none" stroke="midnightblue" d="M285.59,-318.73C270.42,-308.01 244.52,-289.72 226.4,-276.91"/>
<polygon fill="midnightblue" stroke="midnightblue" points="228.4,-274.04 218.21,-271.13 224.36,-279.76 228.4,-274.04"/>
</g>
<!-- Node5&#45;&gt;Node8 -->
<g id="edge9" class="edge">
<title>Node5&#45;&gt;Node8</title>
<path fill="none" stroke="midnightblue" d="M329.34,-318.87C365.9,-308.8 427.2,-291.91 473.2,-279.24"/>
<polygon fill="midnightblue" stroke="midnightblue" points="474.36,-282.56 483.07,-276.53 472.5,-275.81 474.36,-282.56"/>
</g>
<!-- Node27 -->
<g id="node27" class="node">
<title>Node27</title>
<g id="a_node27"><a xlink:href="int__macros_8h.html" target="_top" xlink:title="Basic helper macros for integers.">
<polygon fill="none" stroke="black" points="326,-252 326,-271 458,-271 458,-252 326,-252"/>
<text text-anchor="middle" x="392" y="-259" font-family="Helvetica,sans-Serif" font-size="10.00">utils_misc/int_macros.h</text>
</a>
</g>
</g>
<!-- Node5&#45;&gt;Node27 -->
<g id="edge32" class="edge">
<title>Node5&#45;&gt;Node27</title>
<path fill="none" stroke="midnightblue" d="M310.68,-318.73C326.18,-308.01 352.64,-289.72 371.16,-276.91"/>
<polygon fill="midnightblue" stroke="midnightblue" points="373.29,-279.69 379.52,-271.13 369.31,-273.94 373.29,-279.69"/>
</g>
<!-- Node6&#45;&gt;Node2 -->
<g id="edge7" class="edge">
<title>Node6&#45;&gt;Node2</title>
<path fill="none" stroke="midnightblue" d="M298,-184.73C298,-175.18 298,-159.62 298,-147.28"/>
<polygon fill="midnightblue" stroke="midnightblue" points="301.5,-147.13 298,-137.13 294.5,-147.13 301.5,-147.13"/>
</g>
<!-- Node9 -->
<g id="node9" class="node">
<title>Node9</title>
<g id="a_node9"><a xlink:href="int__types_8h_source.html" target="_top" xlink:title=" ">
<polygon fill="none" stroke="black" points="468.5,-185 468.5,-204 591.5,-204 591.5,-185 468.5,-185"/>
<text text-anchor="middle" x="530" y="-192" font-family="Helvetica,sans-Serif" font-size="10.00">utils_misc/int_types.h</text>
</a>
</g>
</g>
<!-- Node8&#45;&gt;Node9 -->
<g id="edge10" class="edge">
<title>Node8&#45;&gt;Node9</title>
<path fill="none" stroke="midnightblue" d="M533.13,-246.4C532.55,-236.96 531.78,-224.45 531.15,-214.19"/>
<polygon fill="midnightblue" stroke="midnightblue" points="534.64,-213.96 530.54,-204.19 527.66,-214.39 534.64,-213.96"/>
</g>
<!-- Node10 -->
<g id="node10" class="node">
<title>Node10</title>
<g id="a_node10"><a xlink:href="timer__data_8h.html" target="_top" xlink:title="vocabulary types to program Fernotron automatic (timers)">
<polygon fill="none" stroke="black" points="648,-179.5 648,-209.5 758,-209.5 758,-179.5 648,-179.5"/>
<text text-anchor="start" x="656" y="-197.5" font-family="Helvetica,sans-Serif" font-size="10.00">fernotron_trx/timer</text>
<text text-anchor="middle" x="703" y="-186.5" font-family="Helvetica,sans-Serif" font-size="10.00">_data.h</text>
</a>
</g>
</g>
<!-- Node8&#45;&gt;Node10 -->
<g id="edge13" class="edge">
<title>Node8&#45;&gt;Node10</title>
<path fill="none" stroke="midnightblue" d="M570.67,-246.4C595.92,-236.69 629.66,-223.71 656.75,-213.29"/>
<polygon fill="midnightblue" stroke="midnightblue" points="658.32,-216.43 666.4,-209.58 655.81,-209.9 658.32,-216.43"/>
</g>
<!-- Node26 -->
<g id="node26" class="node">
<title>Node26</title>
<g id="a_node26"><a xlink:title=" ">
<polygon fill="none" stroke="#bfbfbf" points="402,-185 402,-204 450,-204 450,-185 402,-185"/>
<text text-anchor="middle" x="426" y="-192" font-family="Helvetica,sans-Serif" font-size="10.00">time.h</text>
</a>
</g>
</g>
<!-- Node8&#45;&gt;Node26 -->
<g id="edge31" class="edge">
<title>Node8&#45;&gt;Node26</title>
<path fill="none" stroke="midnightblue" d="M510.57,-246.4C492.29,-235.39 467.04,-220.2 448.9,-209.28"/>
<polygon fill="midnightblue" stroke="midnightblue" points="450.51,-206.16 440.13,-204.01 446.9,-212.16 450.51,-206.16"/>
</g>
<!-- Node9&#45;&gt;Node2 -->
<g id="edge11" class="edge">
<title>Node9&#45;&gt;Node2</title>
<path fill="none" stroke="midnightblue" d="M499.19,-184.87C456.56,-172.93 379.73,-151.4 334.35,-138.68"/>
<polygon fill="midnightblue" stroke="midnightblue" points="335.19,-135.29 324.62,-135.96 333.3,-142.03 335.19,-135.29"/>
</g>
<!-- Node9&#45;&gt;Node3 -->
<g id="edge12" class="edge">
<title>Node9&#45;&gt;Node3</title>
<path fill="none" stroke="midnightblue" d="M530,-184.73C530,-175.18 530,-159.62 530,-147.28"/>
<polygon fill="midnightblue" stroke="midnightblue" points="533.5,-147.13 530,-137.13 526.5,-147.13 533.5,-147.13"/>
</g>
<!-- Node10&#45;&gt;Node2 -->
<g id="edge14" class="edge">
<title>Node10&#45;&gt;Node2</title>
<path fill="none" stroke="midnightblue" d="M647.96,-184.67C564.03,-171.2 406.27,-145.88 334.83,-134.41"/>
<polygon fill="midnightblue" stroke="midnightblue" points="334.96,-130.89 324.53,-132.76 333.85,-137.8 334.96,-130.89"/>
</g>
<!-- Node10&#45;&gt;Node3 -->
<g id="edge15" class="edge">
<title>Node10&#45;&gt;Node3</title>
<path fill="none" stroke="midnightblue" d="M665.46,-179.4C634.7,-167.84 591.63,-151.66 562.37,-140.66"/>
<polygon fill="midnightblue" stroke="midnightblue" points="563.23,-137.25 552.64,-137.01 560.77,-143.8 563.23,-137.25"/>
</g>
<!-- Node11 -->
<g id="node11" class="node">
<title>Node11</title>
<g id="a_node11"><a xlink:title=" ">
<polygon fill="none" stroke="#bfbfbf" points="579.5,-118 579.5,-137 632.5,-137 632.5,-118 579.5,-118"/>
<text text-anchor="middle" x="606" y="-125" font-family="Helvetica,sans-Serif" font-size="10.00">string.h</text>
</a>
</g>
</g>
<!-- Node10&#45;&gt;Node11 -->
<g id="edge16" class="edge">
<title>Node10&#45;&gt;Node11</title>
<path fill="none" stroke="midnightblue" d="M681.95,-179.4C665.69,-168.5 643.28,-153.48 627.02,-142.58"/>
<polygon fill="midnightblue" stroke="midnightblue" points="628.95,-139.67 618.7,-137.01 625.05,-145.48 628.95,-139.67"/>
</g>
<!-- Node12 -->
<g id="node12" class="node">
<title>Node12</title>
<g id="a_node12"><a xlink:title=" ">
<polygon fill="none" stroke="#bfbfbf" points="866.5,-118 866.5,-137 919.5,-137 919.5,-118 866.5,-118"/>
<text text-anchor="middle" x="893" y="-125" font-family="Helvetica,sans-Serif" font-size="10.00">ctype.h</text>
</a>
</g>
</g>
<!-- Node10&#45;&gt;Node12 -->
<g id="edge17" class="edge">
<title>Node10&#45;&gt;Node12</title>
<path fill="none" stroke="midnightblue" d="M749.44,-179.41C780.41,-169.76 821.89,-156.34 858,-143 859.85,-142.32 861.75,-141.59 863.66,-140.85"/>
<polygon fill="midnightblue" stroke="midnightblue" points="865.14,-144.03 873.12,-137.05 862.53,-137.53 865.14,-144.03"/>
</g>
<!-- Node13 -->
<g id="node13" class="node">
<title>Node13</title>
<g id="a_node13"><a xlink:title=" ">
<polygon fill="none" stroke="#bfbfbf" points="938,-118 938,-137 988,-137 988,-118 938,-118"/>
<text text-anchor="middle" x="963" y="-125" font-family="Helvetica,sans-Serif" font-size="10.00">stdio.h</text>
</a>
</g>
</g>
<!-- Node10&#45;&gt;Node13 -->
<g id="edge18" class="edge">
<title>Node10&#45;&gt;Node13</title>
<path fill="none" stroke="midnightblue" d="M758.09,-184.12C804.32,-175.55 871.79,-161.42 929,-143 930.92,-142.38 932.89,-141.69 934.86,-140.97"/>
<polygon fill="midnightblue" stroke="midnightblue" points="936.54,-144.06 944.53,-137.1 933.94,-137.56 936.54,-144.06"/>
</g>
<!-- Node14 -->
<g id="node14" class="node">
<title>Node14</title>
<g id="a_node14"><a xlink:href="cstring__utils_8hh_source.html" target="_top" xlink:title=" ">
<polygon fill="none" stroke="black" points="651,-112.5 651,-142.5 753,-142.5 753,-112.5 651,-112.5"/>
<text text-anchor="start" x="659" y="-130.5" font-family="Helvetica,sans-Serif" font-size="10.00">utils_misc/cstring</text>
<text text-anchor="middle" x="702" y="-119.5" font-family="Helvetica,sans-Serif" font-size="10.00">_utils.hh</text>
</a>
</g>
</g>
<!-- Node10&#45;&gt;Node14 -->
<g id="edge19" class="edge">
<title>Node10&#45;&gt;Node14</title>
<path fill="none" stroke="midnightblue" d="M702.78,-179.4C702.66,-171.64 702.51,-161.81 702.37,-152.86"/>
<polygon fill="midnightblue" stroke="midnightblue" points="705.87,-152.52 702.22,-142.58 698.87,-152.63 705.87,-152.52"/>
</g>
<!-- Node20 -->
<g id="node20" class="node">
<title>Node20</title>
<g id="a_node20"><a xlink:href="dbg_8h_source.html" target="_top" xlink:title=" ">
<polygon fill="none" stroke="black" points="771.5,-118 771.5,-137 848.5,-137 848.5,-118 771.5,-118"/>
<text text-anchor="middle" x="810" y="-125" font-family="Helvetica,sans-Serif" font-size="10.00">debug/dbg.h</text>
</a>
</g>
</g>
<!-- Node10&#45;&gt;Node20 -->
<g id="edge25" class="edge">
<title>Node10&#45;&gt;Node20</title>
<path fill="none" stroke="midnightblue" d="M726.22,-179.4C744.33,-168.39 769.34,-153.2 787.31,-142.28"/>
<polygon fill="midnightblue" stroke="midnightblue" points="789.27,-145.19 796,-137.01 785.63,-139.21 789.27,-145.19"/>
</g>
<!-- Node15 -->
<g id="node15" class="node">
<title>Node15</title>
<g id="a_node15"><a xlink:title=" ">
<polygon fill="none" stroke="#bfbfbf" points="490,-56.5 490,-75.5 540,-75.5 540,-56.5 490,-56.5"/>
<text text-anchor="middle" x="515" y="-63.5" font-family="Helvetica,sans-Serif" font-size="10.00">cstring</text>
</a>
</g>
</g>
<!-- Node14&#45;&gt;Node15 -->
<g id="edge20" class="edge">
<title>Node14&#45;&gt;Node15</title>
<path fill="none" stroke="midnightblue" d="M657.68,-112.4C624.69,-101.9 580.28,-87.77 549.82,-78.08"/>
<polygon fill="midnightblue" stroke="midnightblue" points="550.65,-74.67 540.06,-74.97 548.52,-81.34 550.65,-74.67"/>
</g>
<!-- Node16 -->
<g id="node16" class="node">
<title>Node16</title>
<g id="a_node16"><a xlink:title=" ">
<polygon fill="none" stroke="#bfbfbf" points="558.5,-56.5 558.5,-75.5 627.5,-75.5 627.5,-56.5 558.5,-56.5"/>
<text text-anchor="middle" x="593" y="-63.5" font-family="Helvetica,sans-Serif" font-size="10.00">type_traits</text>
</a>
</g>
</g>
<!-- Node14&#45;&gt;Node16 -->
<g id="edge21" class="edge">
<title>Node14&#45;&gt;Node16</title>
<path fill="none" stroke="midnightblue" d="M676.17,-112.4C658.53,-102.77 635.3,-90.09 617.87,-80.58"/>
<polygon fill="midnightblue" stroke="midnightblue" points="619.31,-77.38 608.86,-75.66 615.96,-83.52 619.31,-77.38"/>
</g>
<!-- Node17 -->
<g id="node17" class="node">
<title>Node17</title>
<g id="a_node17"><a xlink:href="allocator__malloc_8hh_source.html" target="_top" xlink:title=" ">
<polygon fill="none" stroke="black" points="645.5,-56.5 645.5,-75.5 758.5,-75.5 758.5,-56.5 645.5,-56.5"/>
<text text-anchor="middle" x="702" y="-63.5" font-family="Helvetica,sans-Serif" font-size="10.00">allocator_malloc.hh</text>
</a>
</g>
</g>
<!-- Node14&#45;&gt;Node17 -->
<g id="edge22" class="edge">
<title>Node14&#45;&gt;Node17</title>
<path fill="none" stroke="midnightblue" d="M702,-112.4C702,-104.47 702,-94.46 702,-85.86"/>
<polygon fill="midnightblue" stroke="midnightblue" points="705.5,-85.66 702,-75.66 698.5,-85.66 705.5,-85.66"/>
</g>
<!-- Node18 -->
<g id="node18" class="node">
<title>Node18</title>
<g id="a_node18"><a xlink:title=" ">
<polygon fill="none" stroke="#bfbfbf" points="711,-0.5 711,-19.5 769,-19.5 769,-0.5 711,-0.5"/>
<text text-anchor="middle" x="740" y="-7.5" font-family="Helvetica,sans-Serif" font-size="10.00">memory</text>
</a>
</g>
</g>
<!-- Node17&#45;&gt;Node18 -->
<g id="edge23" class="edge">
<title>Node17&#45;&gt;Node18</title>
<path fill="none" stroke="midnightblue" d="M708.27,-56.08C713.64,-48.46 721.52,-37.26 728.08,-27.94"/>
<polygon fill="midnightblue" stroke="midnightblue" points="730.95,-29.94 733.84,-19.75 725.22,-25.91 730.95,-29.94"/>
</g>
<!-- Node19 -->
<g id="node19" class="node">
<title>Node19</title>
<g id="a_node19"><a xlink:title=" ">
<polygon fill="none" stroke="#bfbfbf" points="633.5,-0.5 633.5,-19.5 692.5,-19.5 692.5,-0.5 633.5,-0.5"/>
<text text-anchor="middle" x="663" y="-7.5" font-family="Helvetica,sans-Serif" font-size="10.00">malloc.h</text>
</a>
</g>
</g>
<!-- Node17&#45;&gt;Node19 -->
<g id="edge24" class="edge">
<title>Node17&#45;&gt;Node19</title>
<path fill="none" stroke="midnightblue" d="M695.56,-56.08C690.05,-48.46 681.97,-37.26 675.24,-27.94"/>
<polygon fill="midnightblue" stroke="midnightblue" points="678.01,-25.81 669.32,-19.75 672.34,-29.91 678.01,-25.81"/>
</g>
<!-- Node21 -->
<g id="node21" class="node">
<title>Node21</title>
<g id="a_node21"><a xlink:href="log_8h_source.html" target="_top" xlink:title=" ">
<polygon fill="none" stroke="black" points="996.5,-56.5 996.5,-75.5 1037.5,-75.5 1037.5,-56.5 996.5,-56.5"/>
<text text-anchor="middle" x="1017" y="-63.5" font-family="Helvetica,sans-Serif" font-size="10.00">log.h</text>
</a>
</g>
</g>
<!-- Node20&#45;&gt;Node21 -->
<g id="edge26" class="edge">
<title>Node20&#45;&gt;Node21</title>
<path fill="none" stroke="midnightblue" d="M837.89,-117.97C844.48,-115.98 851.48,-113.89 858,-112 912.26,-96.24 928.22,-92.88 986.61,-76.07"/>
<polygon fill="midnightblue" stroke="midnightblue" points="987.72,-79.39 996.36,-73.25 985.78,-72.66 987.72,-79.39"/>
</g>
<!-- Node23 -->
<g id="node23" class="node">
<title>Node23</title>
<g id="a_node23"><a xlink:title=" ">
<polygon fill="none" stroke="#bfbfbf" points="776.5,-56.5 776.5,-75.5 829.5,-75.5 829.5,-56.5 776.5,-56.5"/>
<text text-anchor="middle" x="803" y="-63.5" font-family="Helvetica,sans-Serif" font-size="10.00">stdlib.h</text>
</a>
</g>
</g>
<!-- Node20&#45;&gt;Node23 -->
<g id="edge28" class="edge">
<title>Node20&#45;&gt;Node23</title>
<path fill="none" stroke="midnightblue" d="M809,-117.98C808.01,-109.58 806.47,-96.48 805.2,-85.66"/>
<polygon fill="midnightblue" stroke="midnightblue" points="808.65,-85.03 804,-75.51 801.69,-85.85 808.65,-85.03"/>
</g>
<!-- Node24 -->
<g id="node24" class="node">
<title>Node24</title>
<g id="a_node24"><a xlink:title=" ">
<polygon fill="none" stroke="#bfbfbf" points="848,-56.5 848,-75.5 904,-75.5 904,-56.5 848,-56.5"/>
<text text-anchor="middle" x="876" y="-63.5" font-family="Helvetica,sans-Serif" font-size="10.00">unistd.h</text>
</a>
</g>
</g>
<!-- Node20&#45;&gt;Node24 -->
<g id="edge29" class="edge">
<title>Node20&#45;&gt;Node24</title>
<path fill="none" stroke="midnightblue" d="M819.46,-117.98C829.75,-108.7 846.42,-93.67 858.99,-82.33"/>
<polygon fill="midnightblue" stroke="midnightblue" points="861.48,-84.8 866.56,-75.51 856.79,-79.61 861.48,-84.8"/>
</g>
<!-- Node25 -->
<g id="node25" class="node">
<title>Node25</title>
<g id="a_node25"><a xlink:title=" ">
<polygon fill="none" stroke="#bfbfbf" points="922,-56.5 922,-75.5 978,-75.5 978,-56.5 922,-56.5"/>
<text text-anchor="middle" x="950" y="-63.5" font-family="Helvetica,sans-Serif" font-size="10.00">assert.h</text>
</a>
</g>
</g>
<!-- Node20&#45;&gt;Node25 -->
<g id="edge30" class="edge">
<title>Node20&#45;&gt;Node25</title>
<path fill="none" stroke="midnightblue" d="M830.06,-117.98C853.76,-107.9 893.41,-91.05 920.58,-79.5"/>
<polygon fill="midnightblue" stroke="midnightblue" points="922.14,-82.64 929.98,-75.51 919.41,-76.2 922.14,-82.64"/>
</g>
<!-- Node22 -->
<g id="node22" class="node">
<title>Node22</title>
<g id="a_node22"><a xlink:title=" ">
<polygon fill="none" stroke="#bfbfbf" points="985.5,-0.5 985.5,-19.5 1048.5,-19.5 1048.5,-0.5 985.5,-0.5"/>
<text text-anchor="middle" x="1017" y="-7.5" font-family="Helvetica,sans-Serif" font-size="10.00">esp_log.h</text>
</a>
</g>
</g>
<!-- Node21&#45;&gt;Node22 -->
<g id="edge27" class="edge">
<title>Node21&#45;&gt;Node22</title>
<path fill="none" stroke="midnightblue" d="M1017,-56.08C1017,-49.01 1017,-38.86 1017,-29.99"/>
<polygon fill="midnightblue" stroke="midnightblue" points="1020.5,-29.75 1017,-19.75 1013.5,-29.75 1020.5,-29.75"/>
</g>
<!-- Node27&#45;&gt;Node2 -->
<g id="edge33" class="edge">
<title>Node27&#45;&gt;Node2</title>
<path fill="none" stroke="midnightblue" d="M389.1,-251.82C383.63,-236.25 370.73,-202.96 353,-179 343.04,-165.55 329.14,-152.82 317.81,-143.51"/>
<polygon fill="midnightblue" stroke="midnightblue" points="319.75,-140.58 309.75,-137.1 315.39,-146.06 319.75,-140.58"/>
</g>
<!-- Node29&#45;&gt;Node2 -->
<g id="edge36" class="edge">
<title>Node29&#45;&gt;Node2</title>
<path fill="none" stroke="midnightblue" d="M74.46,-318.76C70.55,-293.47 62.99,-219.48 100,-179 121.5,-155.49 210.31,-140.11 261.39,-133.02"/>
<polygon fill="midnightblue" stroke="midnightblue" points="261.93,-136.48 271.37,-131.68 260.99,-129.55 261.93,-136.48"/>
</g>
</g>
</svg>
        <g id="navigator" transform="translate(0 0)" fill="#404254">
                <rect fill="#f2f5e9" fill-opacity="0.5" stroke="#606060" stroke-width=".5" x="0" y="0" width="60" height="60"/>
                <use id="zoomplus" xlink:href="#zoomPlus" x="17" y="9" onmousedown="handleZoom(evt,'in')"/>
                <use id="zoomminus" xlink:href="#zoomMin" x="42" y="9" onmousedown="handleZoom(evt,'out')"/>
                <use id="reset" xlink:href="#resetDef" x="30" y="36" onmousedown="handleReset()"/>
                <g id="arrowUp" xlink:href="#dirArrow" transform="translate(30 24)" onmousedown="handlePan(0,-1)">
                  <use xlink:href="#rim" fill="#404040">
                        <set attributeName="fill" to="#808080" begin="arrowUp.mouseover" end="arrowUp.mouseout"/>
                  </use>
                  <path fill="none" stroke="white" stroke-width="1.5" d="M0,-3.0v7 M-2.5,-0.5L0,-3.0L2.5,-0.5"/>
                </g>
                <g id="arrowRight" xlink:href="#dirArrow" transform="rotate(90) translate(36 -43)" onmousedown="handlePan(1,0)">
                  <use xlink:href="#rim" fill="#404040">
                        <set attributeName="fill" to="#808080" begin="arrowRight.mouseover" end="arrowRight.mouseout"/>
                  </use>
                  <path fill="none" stroke="white" stroke-width="1.5" d="M0,-3.0v7 M-2.5,-0.5L0,-3.0L2.5,-0.5"/>
                </g>
                <g id="arrowDown" xlink:href="#dirArrow" transform="rotate(180) translate(-30 -48)" onmousedown="handlePan(0,1)">
                  <use xlink:href="#rim" fill="#404040">
                        <set attributeName="fill" to="#808080" begin="arrowDown.mouseover" end="arrowDown.mouseout"/>
                  </use>
                  <path fill="none" stroke="white" stroke-width="1.5" d="M0,-3.0v7 M-2.5,-0.5L0,-3.0L2.5,-0.5"/>
                </g>
                <g id="arrowLeft" xlink:href="#dirArrow" transform="rotate(270) translate(-36 17)" onmousedown="handlePan(-1,0)">
                  <use xlink:href="#rim" fill="#404040">
                        <set attributeName="fill" to="#808080" begin="arrowLeft.mouseover" end="arrowLeft.mouseout"/>
                  </use>
                  <path fill="none" stroke="white" stroke-width="1.5" d="M0,-3.0v7 M-2.5,-0.5L0,-3.0L2.5,-0.5"/>
                </g>
        </g>
        <svg viewBox="0 0 15 15" width="100%" height="30px" preserveAspectRatio="xMaxYMin meet">
         <g id="arrow_out" transform="scale(0.3 0.3)">
          <a xlink:href="fer__radio__trx_8h__incl_org.svg" target="_base">
           <rect id="button" ry="5" rx="5" y="6" x="6" height="38" width="38"
                fill="#f2f5e9" fill-opacity="0.5" stroke="#606060" stroke-width="1.0"/>
           <path id="arrow"
             d="M 11.500037,31.436501 C 11.940474,20.09759 22.043105,11.32322 32.158766,21.979434 L 37.068811,17.246167 C 37.068811,17.246167 37.088388,32 37.088388,32 L 22.160133,31.978069 C 22.160133,31.978069 26.997745,27.140456 26.997745,27.140456 C 18.528582,18.264221 13.291696,25.230495 11.500037,31.436501 z"
             style="fill:#404040;"/>
          </a>
         </g>
        </svg>
</svg>
