<?xml version="1.0" encoding="UTF-8" standalone="no"?>
<!DOCTYPE svg PUBLIC "-//W3C//DTD SVG 1.1//EN"
 "http://www.w3.org/Graphics/SVG/1.1/DTD/svg11.dtd">
<!-- Generated by graphviz version 2.43.0 (0)
 -->
<!-- Title: fernotron_trx/fer_trx_c_api.h Pages: 1 -->
<svg width="664pt" height="285pt"
 viewBox="0.00 0.00 663.50 285.00" xmlns="http://www.w3.org/2000/svg" xmlns:xlink="http://www.w3.org/1999/xlink">
<g id="graph0" class="graph" transform="scale(1 1) rotate(0) translate(4 281)">
<title>fernotron_trx/fer_trx_c_api.h</title>
<!-- Node1 -->
<g id="node1" class="node">
<title>Node1</title>
<g id="a_node1"><a xlink:title="C&#45;API for sending and receiving Fernotron RF messages.">
<polygon fill="#bfbfbf" stroke="black" points="187,-246.5 187,-276.5 303,-276.5 303,-246.5 187,-246.5"/>
<text text-anchor="start" x="195" y="-264.5" font-family="Helvetica,sans-Serif" font-size="10.00">fernotron_trx/fer_trx</text>
<text text-anchor="middle" x="245" y="-253.5" font-family="Helvetica,sans-Serif" font-size="10.00">_c_api.h</text>
</a>
</g>
</g>
<!-- Node2 -->
<g id="node2" class="node">
<title>Node2</title>
<g id="a_node2"><a xlink:href="int__types_8h_source.html" target="_top" xlink:title=" ">
<polygon fill="none" stroke="black" points="45.5,-185 45.5,-204 168.5,-204 168.5,-185 45.5,-185"/>
<text text-anchor="middle" x="107" y="-192" font-family="Helvetica,sans-Serif" font-size="10.00">utils_misc/int_types.h</text>
</a>
</g>
</g>
<!-- Node1&#45;&gt;Node2 -->
<g id="edge1" class="edge">
<title>Node1&#45;&gt;Node2</title>
<path fill="none" stroke="midnightblue" d="M215.06,-246.4C191.06,-235.09 157.66,-219.36 134.37,-208.39"/>
<polygon fill="midnightblue" stroke="midnightblue" points="135.6,-205.1 125.06,-204.01 132.62,-211.43 135.6,-205.1"/>
</g>
<!-- Node5 -->
<g id="node5" class="node">
<title>Node5</title>
<g id="a_node5"><a xlink:href="timer__data_8h.html" target="_top" xlink:title="vocabulary types to program Fernotron automatic (timers)">
<polygon fill="none" stroke="black" points="190,-179.5 190,-209.5 300,-209.5 300,-179.5 190,-179.5"/>
<text text-anchor="start" x="198" y="-197.5" font-family="Helvetica,sans-Serif" font-size="10.00">fernotron_trx/timer</text>
<text text-anchor="middle" x="245" y="-186.5" font-family="Helvetica,sans-Serif" font-size="10.00">_data.h</text>
</a>
</g>
</g>
<!-- Node1&#45;&gt;Node5 -->
<g id="edge4" class="edge">
<title>Node1&#45;&gt;Node5</title>
<path fill="none" stroke="midnightblue" d="M245,-246.4C245,-238.64 245,-228.81 245,-219.86"/>
<polygon fill="midnightblue" stroke="midnightblue" points="248.5,-219.58 245,-209.58 241.5,-219.58 248.5,-219.58"/>
</g>
<!-- Node21 -->
<g id="node21" class="node">
<title>Node21</title>
<g id="a_node21"><a xlink:title=" ">
<polygon fill="none" stroke="#bfbfbf" points="318,-185 318,-204 366,-204 366,-185 318,-185"/>
<text text-anchor="middle" x="342" y="-192" font-family="Helvetica,sans-Serif" font-size="10.00">time.h</text>
</a>
</g>
</g>
<!-- Node1&#45;&gt;Node21 -->
<g id="edge22" class="edge">
<title>Node1&#45;&gt;Node21</title>
<path fill="none" stroke="midnightblue" d="M266.05,-246.4C282.31,-235.5 304.72,-220.48 320.98,-209.58"/>
<polygon fill="midnightblue" stroke="midnightblue" points="322.95,-212.48 329.3,-204.01 319.05,-206.67 322.95,-212.48"/>
</g>
<!-- Node3 -->
<g id="node3" class="node">
<title>Node3</title>
<g id="a_node3"><a xlink:title=" ">
<polygon fill="none" stroke="#bfbfbf" points="80.5,-118 80.5,-137 133.5,-137 133.5,-118 80.5,-118"/>
<text text-anchor="middle" x="107" y="-125" font-family="Helvetica,sans-Serif" font-size="10.00">stdint.h</text>
</a>
</g>
</g>
<!-- Node2&#45;&gt;Node3 -->
<g id="edge2" class="edge">
<title>Node2&#45;&gt;Node3</title>
<path fill="none" stroke="midnightblue" d="M107,-184.73C107,-175.18 107,-159.62 107,-147.28"/>
<polygon fill="midnightblue" stroke="midnightblue" points="110.5,-147.13 107,-137.13 103.5,-147.13 110.5,-147.13"/>
</g>
<!-- Node4 -->
<g id="node4" class="node">
<title>Node4</title>
<g id="a_node4"><a xlink:title=" ">
<polygon fill="none" stroke="#bfbfbf" points="0,-118 0,-137 62,-137 62,-118 0,-118"/>
<text text-anchor="middle" x="31" y="-125" font-family="Helvetica,sans-Serif" font-size="10.00">stdbool.h</text>
</a>
</g>
</g>
<!-- Node2&#45;&gt;Node4 -->
<g id="edge3" class="edge">
<title>Node2&#45;&gt;Node4</title>
<path fill="none" stroke="midnightblue" d="M96.75,-184.73C84.56,-174.31 63.98,-156.71 49.09,-143.97"/>
<polygon fill="midnightblue" stroke="midnightblue" points="50.96,-140.97 41.09,-137.13 46.41,-146.29 50.96,-140.97"/>
</g>
<!-- Node5&#45;&gt;Node3 -->
<g id="edge5" class="edge">
<title>Node5&#45;&gt;Node3</title>
<path fill="none" stroke="midnightblue" d="M215.06,-179.4C191.06,-168.09 157.66,-152.36 134.37,-141.39"/>
<polygon fill="midnightblue" stroke="midnightblue" points="135.6,-138.1 125.06,-137.01 132.62,-144.43 135.6,-138.1"/>
</g>
<!-- Node5&#45;&gt;Node4 -->
<g id="edge6" class="edge">
<title>Node5&#45;&gt;Node4</title>
<path fill="none" stroke="midnightblue" d="M193.34,-179.46C158.58,-169.78 111.82,-156.31 71,-143 68.45,-142.17 65.83,-141.28 63.19,-140.38"/>
<polygon fill="midnightblue" stroke="midnightblue" points="64.35,-137.07 53.76,-137.04 62.02,-143.67 64.35,-137.07"/>
</g>
<!-- Node6 -->
<g id="node6" class="node">
<title>Node6</title>
<g id="a_node6"><a xlink:title=" ">
<polygon fill="none" stroke="#bfbfbf" points="529.5,-118 529.5,-137 582.5,-137 582.5,-118 529.5,-118"/>
<text text-anchor="middle" x="556" y="-125" font-family="Helvetica,sans-Serif" font-size="10.00">string.h</text>
</a>
</g>
</g>
<!-- Node5&#45;&gt;Node6 -->
<g id="edge7" class="edge">
<title>Node5&#45;&gt;Node6</title>
<path fill="none" stroke="midnightblue" d="M300.12,-180.81C303.12,-180.18 306.09,-179.58 309,-179 402.75,-160.43 429.16,-169.46 521,-143 523.29,-142.34 525.64,-141.57 527.98,-140.75"/>
<polygon fill="midnightblue" stroke="midnightblue" points="529.32,-143.98 537.39,-137.12 526.8,-137.45 529.32,-143.98"/>
</g>
<!-- Node7 -->
<g id="node7" class="node">
<title>Node7</title>
<g id="a_node7"><a xlink:title=" ">
<polygon fill="none" stroke="#bfbfbf" points="151.5,-118 151.5,-137 204.5,-137 204.5,-118 151.5,-118"/>
<text text-anchor="middle" x="178" y="-125" font-family="Helvetica,sans-Serif" font-size="10.00">ctype.h</text>
</a>
</g>
</g>
<!-- Node5&#45;&gt;Node7 -->
<g id="edge8" class="edge">
<title>Node5&#45;&gt;Node7</title>
<path fill="none" stroke="midnightblue" d="M230.46,-179.4C219.81,-169.06 205.34,-155.02 194.3,-144.31"/>
<polygon fill="midnightblue" stroke="midnightblue" points="196.58,-141.65 186.96,-137.19 191.7,-146.67 196.58,-141.65"/>
</g>
<!-- Node8 -->
<g id="node8" class="node">
<title>Node8</title>
<g id="a_node8"><a xlink:title=" ">
<polygon fill="none" stroke="#bfbfbf" points="223,-118 223,-137 273,-137 273,-118 223,-118"/>
<text text-anchor="middle" x="248" y="-125" font-family="Helvetica,sans-Serif" font-size="10.00">stdio.h</text>
</a>
</g>
</g>
<!-- Node5&#45;&gt;Node8 -->
<g id="edge9" class="edge">
<title>Node5&#45;&gt;Node8</title>
<path fill="none" stroke="midnightblue" d="M245.65,-179.4C246.09,-169.96 246.66,-157.45 247.14,-147.19"/>
<polygon fill="midnightblue" stroke="midnightblue" points="250.63,-147.35 247.6,-137.19 243.64,-147.02 250.63,-147.35"/>
</g>
<!-- Node9 -->
<g id="node9" class="node">
<title>Node9</title>
<g id="a_node9"><a xlink:href="cstring__utils_8hh_source.html" target="_top" xlink:title=" ">
<polygon fill="none" stroke="black" points="291,-112.5 291,-142.5 393,-142.5 393,-112.5 291,-112.5"/>
<text text-anchor="start" x="299" y="-130.5" font-family="Helvetica,sans-Serif" font-size="10.00">utils_misc/cstring</text>
<text text-anchor="middle" x="342" y="-119.5" font-family="Helvetica,sans-Serif" font-size="10.00">_utils.hh</text>
</a>
</g>
</g>
<!-- Node5&#45;&gt;Node9 -->
<g id="edge10" class="edge">
<title>Node5&#45;&gt;Node9</title>
<path fill="none" stroke="midnightblue" d="M266.05,-179.4C279.65,-170.28 297.54,-158.29 312.55,-148.24"/>
<polygon fill="midnightblue" stroke="midnightblue" points="314.63,-151.05 320.99,-142.58 310.74,-145.24 314.63,-151.05"/>
</g>
<!-- Node15 -->
<g id="node15" class="node">
<title>Node15</title>
<g id="a_node15"><a xlink:href="dbg_8h_source.html" target="_top" xlink:title=" ">
<polygon fill="none" stroke="black" points="434.5,-118 434.5,-137 511.5,-137 511.5,-118 434.5,-118"/>
<text text-anchor="middle" x="473" y="-125" font-family="Helvetica,sans-Serif" font-size="10.00">debug/dbg.h</text>
</a>
</g>
</g>
<!-- Node5&#45;&gt;Node15 -->
<g id="edge16" class="edge">
<title>Node5&#45;&gt;Node15</title>
<path fill="none" stroke="midnightblue" d="M294.19,-179.48C335.77,-167.62 394.57,-150.86 433.23,-139.84"/>
<polygon fill="midnightblue" stroke="midnightblue" points="434.43,-143.14 443.08,-137.03 432.51,-136.4 434.43,-143.14"/>
</g>
<!-- Node10 -->
<g id="node10" class="node">
<title>Node10</title>
<g id="a_node10"><a xlink:title=" ">
<polygon fill="none" stroke="#bfbfbf" points="239,-56.5 239,-75.5 289,-75.5 289,-56.5 239,-56.5"/>
<text text-anchor="middle" x="264" y="-63.5" font-family="Helvetica,sans-Serif" font-size="10.00">cstring</text>
</a>
</g>
</g>
<!-- Node9&#45;&gt;Node10 -->
<g id="edge11" class="edge">
<title>Node9&#45;&gt;Node10</title>
<path fill="none" stroke="midnightblue" d="M323.52,-112.4C311.48,-103.22 295.8,-91.26 283.56,-81.92"/>
<polygon fill="midnightblue" stroke="midnightblue" points="285.42,-78.94 275.35,-75.66 281.18,-84.51 285.42,-78.94"/>
</g>
<!-- Node11 -->
<g id="node11" class="node">
<title>Node11</title>
<g id="a_node11"><a xlink:title=" ">
<polygon fill="none" stroke="#bfbfbf" points="307.5,-56.5 307.5,-75.5 376.5,-75.5 376.5,-56.5 307.5,-56.5"/>
<text text-anchor="middle" x="342" y="-63.5" font-family="Helvetica,sans-Serif" font-size="10.00">type_traits</text>
</a>
</g>
</g>
<!-- Node9&#45;&gt;Node11 -->
<g id="edge12" class="edge">
<title>Node9&#45;&gt;Node11</title>
<path fill="none" stroke="midnightblue" d="M342,-112.4C342,-104.47 342,-94.46 342,-85.86"/>
<polygon fill="midnightblue" stroke="midnightblue" points="345.5,-85.66 342,-75.66 338.5,-85.66 345.5,-85.66"/>
</g>
<!-- Node12 -->
<g id="node12" class="node">
<title>Node12</title>
<g id="a_node12"><a xlink:href="allocator__malloc_8hh_source.html" target="_top" xlink:title=" ">
<polygon fill="none" stroke="black" points="107.5,-56.5 107.5,-75.5 220.5,-75.5 220.5,-56.5 107.5,-56.5"/>
<text text-anchor="middle" x="164" y="-63.5" font-family="Helvetica,sans-Serif" font-size="10.00">allocator_malloc.hh</text>
</a>
</g>
</g>
<!-- Node9&#45;&gt;Node12 -->
<g id="edge13" class="edge">
<title>Node9&#45;&gt;Node12</title>
<path fill="none" stroke="midnightblue" d="M299.82,-112.4C269.19,-102.16 228.23,-88.47 199.33,-78.81"/>
<polygon fill="midnightblue" stroke="midnightblue" points="200.23,-75.42 189.64,-75.57 198.02,-82.06 200.23,-75.42"/>
</g>
<!-- Node13 -->
<g id="node13" class="node">
<title>Node13</title>
<g id="a_node13"><a xlink:title=" ">
<polygon fill="none" stroke="#bfbfbf" points="97,-0.5 97,-19.5 155,-19.5 155,-0.5 97,-0.5"/>
<text text-anchor="middle" x="126" y="-7.5" font-family="Helvetica,sans-Serif" font-size="10.00">memory</text>
</a>
</g>
</g>
<!-- Node12&#45;&gt;Node13 -->
<g id="edge14" class="edge">
<title>Node12&#45;&gt;Node13</title>
<path fill="none" stroke="midnightblue" d="M157.73,-56.08C152.36,-48.46 144.48,-37.26 137.92,-27.94"/>
<polygon fill="midnightblue" stroke="midnightblue" points="140.78,-25.91 132.16,-19.75 135.05,-29.94 140.78,-25.91"/>
</g>
<!-- Node14 -->
<g id="node14" class="node">
<title>Node14</title>
<g id="a_node14"><a xlink:title=" ">
<polygon fill="none" stroke="#bfbfbf" points="173.5,-0.5 173.5,-19.5 232.5,-19.5 232.5,-0.5 173.5,-0.5"/>
<text text-anchor="middle" x="203" y="-7.5" font-family="Helvetica,sans-Serif" font-size="10.00">malloc.h</text>
</a>
</g>
</g>
<!-- Node12&#45;&gt;Node14 -->
<g id="edge15" class="edge">
<title>Node12&#45;&gt;Node14</title>
<path fill="none" stroke="midnightblue" d="M170.44,-56.08C175.95,-48.46 184.03,-37.26 190.76,-27.94"/>
<polygon fill="midnightblue" stroke="midnightblue" points="193.66,-29.91 196.68,-19.75 187.99,-25.81 193.66,-29.91"/>
</g>
<!-- Node16 -->
<g id="node16" class="node">
<title>Node16</title>
<g id="a_node16"><a xlink:href="log_8h_source.html" target="_top" xlink:title=" ">
<polygon fill="none" stroke="black" points="543.5,-56.5 543.5,-75.5 584.5,-75.5 584.5,-56.5 543.5,-56.5"/>
<text text-anchor="middle" x="564" y="-63.5" font-family="Helvetica,sans-Serif" font-size="10.00">log.h</text>
</a>
</g>
</g>
<!-- Node15&#45;&gt;Node16 -->
<g id="edge17" class="edge">
<title>Node15&#45;&gt;Node16</title>
<path fill="none" stroke="midnightblue" d="M486.04,-117.98C500.77,-108.34 524.97,-92.52 542.51,-81.05"/>
<polygon fill="midnightblue" stroke="midnightblue" points="544.53,-83.91 550.99,-75.51 540.7,-78.05 544.53,-83.91"/>
</g>
<!-- Node18 -->
<g id="node18" class="node">
<title>Node18</title>
<g id="a_node18"><a xlink:title=" ">
<polygon fill="none" stroke="#bfbfbf" points="602.5,-56.5 602.5,-75.5 655.5,-75.5 655.5,-56.5 602.5,-56.5"/>
<text text-anchor="middle" x="629" y="-63.5" font-family="Helvetica,sans-Serif" font-size="10.00">stdlib.h</text>
</a>
</g>
</g>
<!-- Node15&#45;&gt;Node18 -->
<g id="edge19" class="edge">
<title>Node15&#45;&gt;Node18</title>
<path fill="none" stroke="midnightblue" d="M495.35,-117.98C521.99,-107.81 566.71,-90.76 597.01,-79.2"/>
<polygon fill="midnightblue" stroke="midnightblue" points="598.59,-82.34 606.69,-75.51 596.1,-75.8 598.59,-82.34"/>
</g>
<!-- Node19 -->
<g id="node19" class="node">
<title>Node19</title>
<g id="a_node19"><a xlink:title=" ">
<polygon fill="none" stroke="#bfbfbf" points="395,-56.5 395,-75.5 451,-75.5 451,-56.5 395,-56.5"/>
<text text-anchor="middle" x="423" y="-63.5" font-family="Helvetica,sans-Serif" font-size="10.00">unistd.h</text>
</a>
</g>
</g>
<!-- Node15&#45;&gt;Node19 -->
<g id="edge20" class="edge">
<title>Node15&#45;&gt;Node19</title>
<path fill="none" stroke="midnightblue" d="M465.84,-117.98C458.26,-108.96 446.13,-94.52 436.71,-83.31"/>
<polygon fill="midnightblue" stroke="midnightblue" points="439.26,-80.91 430.15,-75.51 433.9,-85.42 439.26,-80.91"/>
</g>
<!-- Node20 -->
<g id="node20" class="node">
<title>Node20</title>
<g id="a_node20"><a xlink:title=" ">
<polygon fill="none" stroke="#bfbfbf" points="469,-56.5 469,-75.5 525,-75.5 525,-56.5 469,-56.5"/>
<text text-anchor="middle" x="497" y="-63.5" font-family="Helvetica,sans-Serif" font-size="10.00">assert.h</text>
</a>
</g>
</g>
<!-- Node15&#45;&gt;Node20 -->
<g id="edge21" class="edge">
<title>Node15&#45;&gt;Node20</title>
<path fill="none" stroke="midnightblue" d="M476.44,-117.98C479.9,-109.4 485.33,-95.93 489.75,-84.98"/>
<polygon fill="midnightblue" stroke="midnightblue" points="493.07,-86.09 493.57,-75.51 486.58,-83.47 493.07,-86.09"/>
</g>
<!-- Node17 -->
<g id="node17" class="node">
<title>Node17</title>
<g id="a_node17"><a xlink:title=" ">
<polygon fill="none" stroke="#bfbfbf" points="532.5,-0.5 532.5,-19.5 595.5,-19.5 595.5,-0.5 532.5,-0.5"/>
<text text-anchor="middle" x="564" y="-7.5" font-family="Helvetica,sans-Serif" font-size="10.00">esp_log.h</text>
</a>
</g>
</g>
<!-- Node16&#45;&gt;Node17 -->
<g id="edge18" class="edge">
<title>Node16&#45;&gt;Node17</title>
<path fill="none" stroke="midnightblue" d="M564,-56.08C564,-49.01 564,-38.86 564,-29.99"/>
<polygon fill="midnightblue" stroke="midnightblue" points="567.5,-29.75 564,-19.75 560.5,-29.75 567.5,-29.75"/>
</g>
</g>
</svg>
