<?xml version="1.0" encoding="UTF-8" standalone="no"?>
<!DOCTYPE svg PUBLIC "-//W3C//DTD SVG 1.1//EN"
 "http://www.w3.org/Graphics/SVG/1.1/DTD/svg11.dtd">
<!-- Generated by graphviz version 2.43.0 (0)
 -->
<!-- Title: fernotron_trx/raw/fer_msg_tx.h Pages: 1 -->
<svg width="903pt" height="475pt"
 viewBox="0.00 0.00 903.00 475.00" xmlns="http://www.w3.org/2000/svg" xmlns:xlink="http://www.w3.org/1999/xlink">
<g id="graph0" class="graph" transform="scale(1 1) rotate(0) translate(4 471)">
<title>fernotron_trx/raw/fer_msg_tx.h</title>
<!-- Node1 -->
<g id="node1" class="node">
<title>Node1</title>
<g id="a_node1"><a xlink:title="Send raw messages.">
<polygon fill="#bfbfbf" stroke="black" points="239,-436.5 239,-466.5 357,-466.5 357,-436.5 239,-436.5"/>
<text text-anchor="start" x="247" y="-454.5" font-family="Helvetica,sans-Serif" font-size="10.00">fernotron_trx/raw/fer</text>
<text text-anchor="middle" x="298" y="-443.5" font-family="Helvetica,sans-Serif" font-size="10.00">_msg_tx.h</text>
</a>
</g>
</g>
<!-- Node2 -->
<g id="node2" class="node">
<title>Node2</title>
<g id="a_node2"><a xlink:title=" ">
<polygon fill="none" stroke="#bfbfbf" points="392,-118 392,-137 454,-137 454,-118 392,-118"/>
<text text-anchor="middle" x="423" y="-125" font-family="Helvetica,sans-Serif" font-size="10.00">stdbool.h</text>
</a>
</g>
</g>
<!-- Node1&#45;&gt;Node2 -->
<g id="edge1" class="edge">
<title>Node1&#45;&gt;Node2</title>
<path fill="none" stroke="midnightblue" d="M357.24,-445.64C430.03,-436.05 544,-407.68 544,-324 544,-324 544,-324 544,-260.5 544,-220.9 534.27,-208.63 508,-179 493.4,-162.53 472.09,-149.89 454.47,-141.37"/>
<polygon fill="midnightblue" stroke="midnightblue" points="455.66,-138.07 445.12,-137.07 452.74,-144.43 455.66,-138.07"/>
</g>
<!-- Node3 -->
<g id="node3" class="node">
<title>Node3</title>
<g id="a_node3"><a xlink:title=" ">
<polygon fill="none" stroke="#bfbfbf" points="142.5,-118 142.5,-137 195.5,-137 195.5,-118 142.5,-118"/>
<text text-anchor="middle" x="169" y="-125" font-family="Helvetica,sans-Serif" font-size="10.00">stdint.h</text>
</a>
</g>
</g>
<!-- Node1&#45;&gt;Node3 -->
<g id="edge2" class="edge">
<title>Node1&#45;&gt;Node3</title>
<path fill="none" stroke="midnightblue" d="M238.77,-450.58C151.86,-447.24 0,-426.71 0,-324 0,-324 0,-324 0,-260.5 0,-193.8 82.77,-155.81 132.46,-139.01"/>
<polygon fill="midnightblue" stroke="midnightblue" points="133.79,-142.26 142.22,-135.84 131.63,-135.6 133.79,-142.26"/>
</g>
<!-- Node4 -->
<g id="node4" class="node">
<title>Node4</title>
<g id="a_node4"><a xlink:href="fer__fsb_8h.html" target="_top" xlink:title="Plain raw message.">
<polygon fill="none" stroke="black" points="182,-369.5 182,-399.5 300,-399.5 300,-369.5 182,-369.5"/>
<text text-anchor="start" x="190" y="-387.5" font-family="Helvetica,sans-Serif" font-size="10.00">fernotron_trx/raw/fer</text>
<text text-anchor="middle" x="241" y="-376.5" font-family="Helvetica,sans-Serif" font-size="10.00">_fsb.h</text>
</a>
</g>
</g>
<!-- Node1&#45;&gt;Node4 -->
<g id="edge3" class="edge">
<title>Node1&#45;&gt;Node4</title>
<path fill="none" stroke="midnightblue" d="M285.63,-436.4C278.16,-427.88 268.49,-416.85 260.06,-407.23"/>
<polygon fill="midnightblue" stroke="midnightblue" points="262.57,-404.79 253.34,-399.58 257.31,-409.4 262.57,-404.79"/>
</g>
<!-- Node8 -->
<g id="node8" class="node">
<title>Node8</title>
<g id="a_node8"><a xlink:href="fer__trx__c__api_8h.html" target="_top" xlink:title="C&#45;API for sending and receiving Fernotron RF messages.">
<polygon fill="none" stroke="black" points="400,-246.5 400,-276.5 516,-276.5 516,-246.5 400,-246.5"/>
<text text-anchor="start" x="408" y="-264.5" font-family="Helvetica,sans-Serif" font-size="10.00">fernotron_trx/fer_trx</text>
<text text-anchor="middle" x="458" y="-253.5" font-family="Helvetica,sans-Serif" font-size="10.00">_c_api.h</text>
</a>
</g>
</g>
<!-- Node1&#45;&gt;Node8 -->
<g id="edge36" class="edge">
<title>Node1&#45;&gt;Node8</title>
<path fill="none" stroke="midnightblue" d="M310.03,-436.37C337.78,-403.76 406.44,-323.09 439.55,-284.18"/>
<polygon fill="midnightblue" stroke="midnightblue" points="442.24,-286.42 446.05,-276.54 436.91,-281.89 442.24,-286.42"/>
</g>
<!-- Node4&#45;&gt;Node3 -->
<g id="edge4" class="edge">
<title>Node4&#45;&gt;Node3</title>
<path fill="none" stroke="midnightblue" d="M189.31,-369.41C145.42,-354.41 85.21,-325.92 57,-277 26.26,-223.68 103.36,-167.45 144.78,-142.19"/>
<polygon fill="midnightblue" stroke="midnightblue" points="146.69,-145.12 153.5,-137 143.11,-139.11 146.69,-145.12"/>
</g>
<!-- Node5 -->
<g id="node5" class="node">
<title>Node5</title>
<g id="a_node5"><a xlink:href="fer__msg__plain_8h.html" target="_top" xlink:title="Data structure of plain messages or header of extended messages.">
<polygon fill="none" stroke="black" points="193.5,-313.5 193.5,-332.5 288.5,-332.5 288.5,-313.5 193.5,-313.5"/>
<text text-anchor="middle" x="241" y="-320.5" font-family="Helvetica,sans-Serif" font-size="10.00">fer_msg_plain.h</text>
</a>
</g>
</g>
<!-- Node4&#45;&gt;Node5 -->
<g id="edge5" class="edge">
<title>Node4&#45;&gt;Node5</title>
<path fill="none" stroke="midnightblue" d="M241,-369.4C241,-361.47 241,-351.46 241,-342.86"/>
<polygon fill="midnightblue" stroke="midnightblue" points="244.5,-342.66 241,-332.66 237.5,-342.66 244.5,-342.66"/>
</g>
<!-- Node4&#45;&gt;Node8 -->
<g id="edge35" class="edge">
<title>Node4&#45;&gt;Node8</title>
<path fill="none" stroke="midnightblue" d="M266.32,-369.38C305.35,-347.62 380.29,-305.83 424.01,-281.45"/>
<polygon fill="midnightblue" stroke="midnightblue" points="425.81,-284.45 432.84,-276.53 422.41,-278.34 425.81,-284.45"/>
</g>
<!-- Node27 -->
<g id="node27" class="node">
<title>Node27</title>
<g id="a_node27"><a xlink:href="int__macros_8h.html" target="_top" xlink:title="Basic helper macros for integers.">
<polygon fill="none" stroke="black" points="66,-252 66,-271 198,-271 198,-252 66,-252"/>
<text text-anchor="middle" x="132" y="-259" font-family="Helvetica,sans-Serif" font-size="10.00">utils_misc/int_macros.h</text>
</a>
</g>
</g>
<!-- Node4&#45;&gt;Node27 -->
<g id="edge34" class="edge">
<title>Node4&#45;&gt;Node27</title>
<path fill="none" stroke="midnightblue" d="M223.54,-369.27C212.07,-359.57 197.02,-346.14 185,-333 169.4,-315.94 153.77,-294.49 143.57,-279.76"/>
<polygon fill="midnightblue" stroke="midnightblue" points="146.23,-277.45 137.71,-271.16 140.45,-281.39 146.23,-277.45"/>
</g>
<!-- Node6 -->
<g id="node6" class="node">
<title>Node6</title>
<g id="a_node6"><a xlink:href="fer__msg__type_8h.html" target="_top" xlink:title="kinds of messages">
<polygon fill="none" stroke="black" points="170,-185 170,-204 262,-204 262,-185 170,-185"/>
<text text-anchor="middle" x="216" y="-192" font-family="Helvetica,sans-Serif" font-size="10.00">fer_msg_type.h</text>
</a>
</g>
</g>
<!-- Node5&#45;&gt;Node6 -->
<g id="edge6" class="edge">
<title>Node5&#45;&gt;Node6</title>
<path fill="none" stroke="midnightblue" d="M239.28,-313.31C235.27,-292.99 225.2,-242.05 219.71,-214.28"/>
<polygon fill="midnightblue" stroke="midnightblue" points="223.1,-213.39 217.73,-204.26 216.24,-214.74 223.1,-213.39"/>
</g>
<!-- Node7 -->
<g id="node7" class="node">
<title>Node7</title>
<g id="a_node7"><a xlink:href="fer__msg__plain__enum_8h.html" target="_top" xlink:title="Raw message for plain commands.">
<polygon fill="none" stroke="black" points="254,-252 254,-271 382,-271 382,-252 254,-252"/>
<text text-anchor="middle" x="318" y="-259" font-family="Helvetica,sans-Serif" font-size="10.00">fer_msg_plain_enum.h</text>
</a>
</g>
</g>
<!-- Node5&#45;&gt;Node7 -->
<g id="edge8" class="edge">
<title>Node5&#45;&gt;Node7</title>
<path fill="none" stroke="midnightblue" d="M252.03,-313.48C264.27,-304.02 284.23,-288.6 298.99,-277.19"/>
<polygon fill="midnightblue" stroke="midnightblue" points="301.22,-279.89 306.99,-271.01 296.94,-274.35 301.22,-279.89"/>
</g>
<!-- Node5&#45;&gt;Node8 -->
<g id="edge9" class="edge">
<title>Node5&#45;&gt;Node8</title>
<path fill="none" stroke="midnightblue" d="M272.09,-313.48C304.57,-304.57 356.36,-290.37 397.04,-279.22"/>
<polygon fill="midnightblue" stroke="midnightblue" points="398.14,-282.54 406.86,-276.52 396.29,-275.79 398.14,-282.54"/>
</g>
<!-- Node5&#45;&gt;Node27 -->
<g id="edge32" class="edge">
<title>Node5&#45;&gt;Node27</title>
<path fill="none" stroke="midnightblue" d="M225.38,-313.48C207.41,-303.67 177.68,-287.43 156.59,-275.92"/>
<polygon fill="midnightblue" stroke="midnightblue" points="158.04,-272.73 147.59,-271.01 154.69,-278.87 158.04,-272.73"/>
</g>
<!-- Node6&#45;&gt;Node3 -->
<g id="edge7" class="edge">
<title>Node6&#45;&gt;Node3</title>
<path fill="none" stroke="midnightblue" d="M209.66,-184.73C202.4,-174.7 190.34,-158.01 181.24,-145.42"/>
<polygon fill="midnightblue" stroke="midnightblue" points="183.93,-143.18 175.24,-137.13 178.26,-147.28 183.93,-143.18"/>
</g>
<!-- Node9 -->
<g id="node9" class="node">
<title>Node9</title>
<g id="a_node9"><a xlink:href="int__types_8h_source.html" target="_top" xlink:title=" ">
<polygon fill="none" stroke="black" points="309.5,-185 309.5,-204 432.5,-204 432.5,-185 309.5,-185"/>
<text text-anchor="middle" x="371" y="-192" font-family="Helvetica,sans-Serif" font-size="10.00">utils_misc/int_types.h</text>
</a>
</g>
</g>
<!-- Node8&#45;&gt;Node9 -->
<g id="edge10" class="edge">
<title>Node8&#45;&gt;Node9</title>
<path fill="none" stroke="midnightblue" d="M439.12,-246.4C424.89,-235.76 405.4,-221.2 390.92,-210.38"/>
<polygon fill="midnightblue" stroke="midnightblue" points="392.74,-207.38 382.64,-204.19 388.55,-212.98 392.74,-207.38"/>
</g>
<!-- Node10 -->
<g id="node10" class="node">
<title>Node10</title>
<g id="a_node10"><a xlink:href="timer__data_8h.html" target="_top" xlink:title="vocabulary types to program Fernotron automatic (timers)">
<polygon fill="none" stroke="black" points="572,-179.5 572,-209.5 682,-209.5 682,-179.5 572,-179.5"/>
<text text-anchor="start" x="580" y="-197.5" font-family="Helvetica,sans-Serif" font-size="10.00">fernotron_trx/timer</text>
<text text-anchor="middle" x="627" y="-186.5" font-family="Helvetica,sans-Serif" font-size="10.00">_data.h</text>
</a>
</g>
</g>
<!-- Node8&#45;&gt;Node10 -->
<g id="edge13" class="edge">
<title>Node8&#45;&gt;Node10</title>
<path fill="none" stroke="midnightblue" d="M494.67,-246.4C519.92,-236.69 553.66,-223.71 580.75,-213.29"/>
<polygon fill="midnightblue" stroke="midnightblue" points="582.32,-216.43 590.4,-209.58 579.81,-209.9 582.32,-216.43"/>
</g>
<!-- Node26 -->
<g id="node26" class="node">
<title>Node26</title>
<g id="a_node26"><a xlink:title=" ">
<polygon fill="none" stroke="#bfbfbf" points="451,-185 451,-204 499,-204 499,-185 451,-185"/>
<text text-anchor="middle" x="475" y="-192" font-family="Helvetica,sans-Serif" font-size="10.00">time.h</text>
</a>
</g>
</g>
<!-- Node8&#45;&gt;Node26 -->
<g id="edge31" class="edge">
<title>Node8&#45;&gt;Node26</title>
<path fill="none" stroke="midnightblue" d="M461.69,-246.4C464.16,-236.96 467.43,-224.45 470.11,-214.19"/>
<polygon fill="midnightblue" stroke="midnightblue" points="473.58,-214.75 472.73,-204.19 466.81,-212.98 473.58,-214.75"/>
</g>
<!-- Node9&#45;&gt;Node2 -->
<g id="edge12" class="edge">
<title>Node9&#45;&gt;Node2</title>
<path fill="none" stroke="midnightblue" d="M378.01,-184.73C386.12,-174.6 399.65,-157.69 409.76,-145.06"/>
<polygon fill="midnightblue" stroke="midnightblue" points="412.58,-147.12 416.1,-137.13 407.12,-142.75 412.58,-147.12"/>
</g>
<!-- Node9&#45;&gt;Node3 -->
<g id="edge11" class="edge">
<title>Node9&#45;&gt;Node3</title>
<path fill="none" stroke="midnightblue" d="M344.18,-184.87C308.46,-173.38 245.16,-153.01 205.23,-140.16"/>
<polygon fill="midnightblue" stroke="midnightblue" points="206.2,-136.8 195.61,-137.06 204.06,-143.46 206.2,-136.8"/>
</g>
<!-- Node10&#45;&gt;Node2 -->
<g id="edge15" class="edge">
<title>Node10&#45;&gt;Node2</title>
<path fill="none" stroke="midnightblue" d="M579.08,-179.42C546.27,-169.61 501.84,-156.01 463,-143 460.61,-142.2 458.15,-141.35 455.67,-140.49"/>
<polygon fill="midnightblue" stroke="midnightblue" points="456.79,-137.18 446.2,-137.13 454.45,-143.77 456.79,-137.18"/>
</g>
<!-- Node10&#45;&gt;Node3 -->
<g id="edge14" class="edge">
<title>Node10&#45;&gt;Node3</title>
<path fill="none" stroke="midnightblue" d="M571.75,-185.66C477.03,-172.22 286.1,-145.12 205.85,-133.73"/>
<polygon fill="midnightblue" stroke="midnightblue" points="206.12,-130.23 195.73,-132.29 205.14,-137.16 206.12,-130.23"/>
</g>
<!-- Node11 -->
<g id="node11" class="node">
<title>Node11</title>
<g id="a_node11"><a xlink:title=" ">
<polygon fill="none" stroke="#bfbfbf" points="755.5,-118 755.5,-137 808.5,-137 808.5,-118 755.5,-118"/>
<text text-anchor="middle" x="782" y="-125" font-family="Helvetica,sans-Serif" font-size="10.00">string.h</text>
</a>
</g>
</g>
<!-- Node10&#45;&gt;Node11 -->
<g id="edge16" class="edge">
<title>Node10&#45;&gt;Node11</title>
<path fill="none" stroke="midnightblue" d="M660.63,-179.4C687.95,-167.94 726.11,-151.94 752.31,-140.95"/>
<polygon fill="midnightblue" stroke="midnightblue" points="753.85,-144.1 761.71,-137.01 751.14,-137.65 753.85,-144.1"/>
</g>
<!-- Node12 -->
<g id="node12" class="node">
<title>Node12</title>
<g id="a_node12"><a xlink:title=" ">
<polygon fill="none" stroke="#bfbfbf" points="826.5,-118 826.5,-137 879.5,-137 879.5,-118 826.5,-118"/>
<text text-anchor="middle" x="853" y="-125" font-family="Helvetica,sans-Serif" font-size="10.00">ctype.h</text>
</a>
</g>
</g>
<!-- Node10&#45;&gt;Node12 -->
<g id="edge17" class="edge">
<title>Node10&#45;&gt;Node12</title>
<path fill="none" stroke="midnightblue" d="M682.33,-180.95C720.78,-171.73 772.99,-158.2 818,-143 819.92,-142.35 821.88,-141.65 823.84,-140.92"/>
<polygon fill="midnightblue" stroke="midnightblue" points="825.53,-144.02 833.55,-137.1 822.97,-137.5 825.53,-144.02"/>
</g>
<!-- Node13 -->
<g id="node13" class="node">
<title>Node13</title>
<g id="a_node13"><a xlink:title=" ">
<polygon fill="none" stroke="#bfbfbf" points="472,-118 472,-137 522,-137 522,-118 472,-118"/>
<text text-anchor="middle" x="497" y="-125" font-family="Helvetica,sans-Serif" font-size="10.00">stdio.h</text>
</a>
</g>
</g>
<!-- Node10&#45;&gt;Node13 -->
<g id="edge18" class="edge">
<title>Node10&#45;&gt;Node13</title>
<path fill="none" stroke="midnightblue" d="M598.79,-179.4C576.28,-168.14 545,-152.5 523.08,-141.54"/>
<polygon fill="midnightblue" stroke="midnightblue" points="524.52,-138.35 514.01,-137.01 521.39,-144.61 524.52,-138.35"/>
</g>
<!-- Node14 -->
<g id="node14" class="node">
<title>Node14</title>
<g id="a_node14"><a xlink:href="cstring__utils_8hh_source.html" target="_top" xlink:title=" ">
<polygon fill="none" stroke="black" points="540,-112.5 540,-142.5 642,-142.5 642,-112.5 540,-112.5"/>
<text text-anchor="start" x="548" y="-130.5" font-family="Helvetica,sans-Serif" font-size="10.00">utils_misc/cstring</text>
<text text-anchor="middle" x="591" y="-119.5" font-family="Helvetica,sans-Serif" font-size="10.00">_utils.hh</text>
</a>
</g>
</g>
<!-- Node10&#45;&gt;Node14 -->
<g id="edge19" class="edge">
<title>Node10&#45;&gt;Node14</title>
<path fill="none" stroke="midnightblue" d="M619.19,-179.4C614.66,-171.22 608.85,-160.73 603.68,-151.39"/>
<polygon fill="midnightblue" stroke="midnightblue" points="606.7,-149.63 598.8,-142.58 600.58,-153.02 606.7,-149.63"/>
</g>
<!-- Node20 -->
<g id="node20" class="node">
<title>Node20</title>
<g id="a_node20"><a xlink:href="dbg_8h_source.html" target="_top" xlink:title=" ">
<polygon fill="none" stroke="black" points="660.5,-118 660.5,-137 737.5,-137 737.5,-118 660.5,-118"/>
<text text-anchor="middle" x="699" y="-125" font-family="Helvetica,sans-Serif" font-size="10.00">debug/dbg.h</text>
</a>
</g>
</g>
<!-- Node10&#45;&gt;Node20 -->
<g id="edge25" class="edge">
<title>Node10&#45;&gt;Node20</title>
<path fill="none" stroke="midnightblue" d="M642.62,-179.4C654.18,-168.96 669.92,-154.75 681.83,-144"/>
<polygon fill="midnightblue" stroke="midnightblue" points="684.29,-146.49 689.37,-137.19 679.6,-141.3 684.29,-146.49"/>
</g>
<!-- Node15 -->
<g id="node15" class="node">
<title>Node15</title>
<g id="a_node15"><a xlink:title=" ">
<polygon fill="none" stroke="#bfbfbf" points="566,-56.5 566,-75.5 616,-75.5 616,-56.5 566,-56.5"/>
<text text-anchor="middle" x="591" y="-63.5" font-family="Helvetica,sans-Serif" font-size="10.00">cstring</text>
</a>
</g>
</g>
<!-- Node14&#45;&gt;Node15 -->
<g id="edge20" class="edge">
<title>Node14&#45;&gt;Node15</title>
<path fill="none" stroke="midnightblue" d="M591,-112.4C591,-104.47 591,-94.46 591,-85.86"/>
<polygon fill="midnightblue" stroke="midnightblue" points="594.5,-85.66 591,-75.66 587.5,-85.66 594.5,-85.66"/>
</g>
<!-- Node16 -->
<g id="node16" class="node">
<title>Node16</title>
<g id="a_node16"><a xlink:title=" ">
<polygon fill="none" stroke="#bfbfbf" points="347.5,-56.5 347.5,-75.5 416.5,-75.5 416.5,-56.5 347.5,-56.5"/>
<text text-anchor="middle" x="382" y="-63.5" font-family="Helvetica,sans-Serif" font-size="10.00">type_traits</text>
</a>
</g>
</g>
<!-- Node14&#45;&gt;Node16 -->
<g id="edge21" class="edge">
<title>Node14&#45;&gt;Node16</title>
<path fill="none" stroke="midnightblue" d="M541.73,-112.47C505.05,-102.03 455.62,-87.96 421.51,-78.25"/>
<polygon fill="midnightblue" stroke="midnightblue" points="422.46,-74.88 411.88,-75.51 420.54,-81.61 422.46,-74.88"/>
</g>
<!-- Node17 -->
<g id="node17" class="node">
<title>Node17</title>
<g id="a_node17"><a xlink:href="allocator__malloc_8hh_source.html" target="_top" xlink:title=" ">
<polygon fill="none" stroke="black" points="434.5,-56.5 434.5,-75.5 547.5,-75.5 547.5,-56.5 434.5,-56.5"/>
<text text-anchor="middle" x="491" y="-63.5" font-family="Helvetica,sans-Serif" font-size="10.00">allocator_malloc.hh</text>
</a>
</g>
</g>
<!-- Node14&#45;&gt;Node17 -->
<g id="edge22" class="edge">
<title>Node14&#45;&gt;Node17</title>
<path fill="none" stroke="midnightblue" d="M567.3,-112.4C551.27,-102.86 530.2,-90.32 514.26,-80.84"/>
<polygon fill="midnightblue" stroke="midnightblue" points="515.93,-77.76 505.55,-75.66 512.36,-83.78 515.93,-77.76"/>
</g>
<!-- Node18 -->
<g id="node18" class="node">
<title>Node18</title>
<g id="a_node18"><a xlink:title=" ">
<polygon fill="none" stroke="#bfbfbf" points="500,-0.5 500,-19.5 558,-19.5 558,-0.5 500,-0.5"/>
<text text-anchor="middle" x="529" y="-7.5" font-family="Helvetica,sans-Serif" font-size="10.00">memory</text>
</a>
</g>
</g>
<!-- Node17&#45;&gt;Node18 -->
<g id="edge23" class="edge">
<title>Node17&#45;&gt;Node18</title>
<path fill="none" stroke="midnightblue" d="M497.27,-56.08C502.64,-48.46 510.52,-37.26 517.08,-27.94"/>
<polygon fill="midnightblue" stroke="midnightblue" points="519.95,-29.94 522.84,-19.75 514.22,-25.91 519.95,-29.94"/>
</g>
<!-- Node19 -->
<g id="node19" class="node">
<title>Node19</title>
<g id="a_node19"><a xlink:title=" ">
<polygon fill="none" stroke="#bfbfbf" points="422.5,-0.5 422.5,-19.5 481.5,-19.5 481.5,-0.5 422.5,-0.5"/>
<text text-anchor="middle" x="452" y="-7.5" font-family="Helvetica,sans-Serif" font-size="10.00">malloc.h</text>
</a>
</g>
</g>
<!-- Node17&#45;&gt;Node19 -->
<g id="edge24" class="edge">
<title>Node17&#45;&gt;Node19</title>
<path fill="none" stroke="midnightblue" d="M484.56,-56.08C479.05,-48.46 470.97,-37.26 464.24,-27.94"/>
<polygon fill="midnightblue" stroke="midnightblue" points="467.01,-25.81 458.32,-19.75 461.34,-29.91 467.01,-25.81"/>
</g>
<!-- Node21 -->
<g id="node21" class="node">
<title>Node21</title>
<g id="a_node21"><a xlink:href="log_8h_source.html" target="_top" xlink:title=" ">
<polygon fill="none" stroke="black" points="708.5,-56.5 708.5,-75.5 749.5,-75.5 749.5,-56.5 708.5,-56.5"/>
<text text-anchor="middle" x="729" y="-63.5" font-family="Helvetica,sans-Serif" font-size="10.00">log.h</text>
</a>
</g>
</g>
<!-- Node20&#45;&gt;Node21 -->
<g id="edge26" class="edge">
<title>Node20&#45;&gt;Node21</title>
<path fill="none" stroke="midnightblue" d="M703.3,-117.98C707.66,-109.32 714.56,-95.65 720.1,-84.65"/>
<polygon fill="midnightblue" stroke="midnightblue" points="723.33,-86.01 724.71,-75.51 717.08,-82.86 723.33,-86.01"/>
</g>
<!-- Node23 -->
<g id="node23" class="node">
<title>Node23</title>
<g id="a_node23"><a xlink:title=" ">
<polygon fill="none" stroke="#bfbfbf" points="767.5,-56.5 767.5,-75.5 820.5,-75.5 820.5,-56.5 767.5,-56.5"/>
<text text-anchor="middle" x="794" y="-63.5" font-family="Helvetica,sans-Serif" font-size="10.00">stdlib.h</text>
</a>
</g>
</g>
<!-- Node20&#45;&gt;Node23 -->
<g id="edge28" class="edge">
<title>Node20&#45;&gt;Node23</title>
<path fill="none" stroke="midnightblue" d="M712.61,-117.98C728.06,-108.3 753.49,-92.37 771.82,-80.89"/>
<polygon fill="midnightblue" stroke="midnightblue" points="773.8,-83.78 780.41,-75.51 770.08,-77.85 773.8,-83.78"/>
</g>
<!-- Node24 -->
<g id="node24" class="node">
<title>Node24</title>
<g id="a_node24"><a xlink:title=" ">
<polygon fill="none" stroke="#bfbfbf" points="839,-56.5 839,-75.5 895,-75.5 895,-56.5 839,-56.5"/>
<text text-anchor="middle" x="867" y="-63.5" font-family="Helvetica,sans-Serif" font-size="10.00">unistd.h</text>
</a>
</g>
</g>
<!-- Node20&#45;&gt;Node24 -->
<g id="edge29" class="edge">
<title>Node20&#45;&gt;Node24</title>
<path fill="none" stroke="midnightblue" d="M723.07,-117.98C752.01,-107.72 800.76,-90.46 833.4,-78.9"/>
<polygon fill="midnightblue" stroke="midnightblue" points="834.72,-82.15 842.97,-75.51 832.38,-75.55 834.72,-82.15"/>
</g>
<!-- Node25 -->
<g id="node25" class="node">
<title>Node25</title>
<g id="a_node25"><a xlink:title=" ">
<polygon fill="none" stroke="#bfbfbf" points="634,-56.5 634,-75.5 690,-75.5 690,-56.5 634,-56.5"/>
<text text-anchor="middle" x="662" y="-63.5" font-family="Helvetica,sans-Serif" font-size="10.00">assert.h</text>
</a>
</g>
</g>
<!-- Node20&#45;&gt;Node25 -->
<g id="edge30" class="edge">
<title>Node20&#45;&gt;Node25</title>
<path fill="none" stroke="midnightblue" d="M693.7,-117.98C688.26,-109.23 679.64,-95.37 672.76,-84.31"/>
<polygon fill="midnightblue" stroke="midnightblue" points="675.54,-82.15 667.29,-75.51 669.6,-85.85 675.54,-82.15"/>
</g>
<!-- Node22 -->
<g id="node22" class="node">
<title>Node22</title>
<g id="a_node22"><a xlink:title=" ">
<polygon fill="none" stroke="#bfbfbf" points="697.5,-0.5 697.5,-19.5 760.5,-19.5 760.5,-0.5 697.5,-0.5"/>
<text text-anchor="middle" x="729" y="-7.5" font-family="Helvetica,sans-Serif" font-size="10.00">esp_log.h</text>
</a>
</g>
</g>
<!-- Node21&#45;&gt;Node22 -->
<g id="edge27" class="edge">
<title>Node21&#45;&gt;Node22</title>
<path fill="none" stroke="midnightblue" d="M729,-56.08C729,-49.01 729,-38.86 729,-29.99"/>
<polygon fill="midnightblue" stroke="midnightblue" points="732.5,-29.75 729,-19.75 725.5,-29.75 732.5,-29.75"/>
</g>
<!-- Node27&#45;&gt;Node3 -->
<g id="edge33" class="edge">
<title>Node27&#45;&gt;Node3</title>
<path fill="none" stroke="midnightblue" d="M134.43,-251.84C140.39,-230.58 155.84,-175.46 163.91,-146.65"/>
<polygon fill="midnightblue" stroke="midnightblue" points="167.28,-147.59 166.61,-137.02 160.54,-145.71 167.28,-147.59"/>
</g>
</g>
</svg>
