<?xml version="1.0" encoding="UTF-8" standalone="no"?>
<!DOCTYPE svg PUBLIC "-//W3C//DTD SVG 1.1//EN"
 "http://www.w3.org/Graphics/SVG/1.1/DTD/svg11.dtd">
<!-- Generated by graphviz version 2.43.0 (0)
 -->
<!-- Title: fernotron_trx/raw/fer_fsb.h Pages: 1 -->
<svg width="1002pt" height="408pt"
 viewBox="0.00 0.00 1002.00 408.00" xmlns="http://www.w3.org/2000/svg" xmlns:xlink="http://www.w3.org/1999/xlink">
<g id="graph0" class="graph" transform="scale(1 1) rotate(0) translate(4 404)">
<title>fernotron_trx/raw/fer_fsb.h</title>
<!-- Node1 -->
<g id="node1" class="node">
<title>Node1</title>
<g id="a_node1"><a xlink:title="Plain raw message.">
<polygon fill="#bfbfbf" stroke="black" points="637,-369.5 637,-399.5 755,-399.5 755,-369.5 637,-369.5"/>
<text text-anchor="start" x="645" y="-387.5" font-family="Helvetica,sans-Serif" font-size="10.00">fernotron_trx/raw/fer</text>
<text text-anchor="middle" x="696" y="-376.5" font-family="Helvetica,sans-Serif" font-size="10.00">_fsb.h</text>
</a>
</g>
</g>
<!-- Node2 -->
<g id="node2" class="node">
<title>Node2</title>
<g id="a_node2"><a xlink:title=" ">
<polygon fill="none" stroke="#bfbfbf" points="623.5,-118 623.5,-137 676.5,-137 676.5,-118 623.5,-118"/>
<text text-anchor="middle" x="650" y="-125" font-family="Helvetica,sans-Serif" font-size="10.00">stdint.h</text>
</a>
</g>
</g>
<!-- Node1&#45;&gt;Node2 -->
<g id="edge1" class="edge">
<title>Node1&#45;&gt;Node2</title>
<path fill="none" stroke="midnightblue" d="M691.87,-369.49C686.03,-349.25 675.37,-310.54 669,-277 660.22,-230.77 654.35,-175.65 651.67,-147.34"/>
<polygon fill="midnightblue" stroke="midnightblue" points="655.15,-146.9 650.75,-137.26 648.18,-147.54 655.15,-146.9"/>
</g>
<!-- Node3 -->
<g id="node3" class="node">
<title>Node3</title>
<g id="a_node3"><a xlink:href="fer__msg__plain_8h.html" target="_top" xlink:title="Data structure of plain messages or header of extended messages.">
<polygon fill="none" stroke="black" points="694.5,-313.5 694.5,-332.5 789.5,-332.5 789.5,-313.5 694.5,-313.5"/>
<text text-anchor="middle" x="742" y="-320.5" font-family="Helvetica,sans-Serif" font-size="10.00">fer_msg_plain.h</text>
</a>
</g>
</g>
<!-- Node1&#45;&gt;Node3 -->
<g id="edge2" class="edge">
<title>Node1&#45;&gt;Node3</title>
<path fill="none" stroke="midnightblue" d="M706.9,-369.4C713.59,-360.75 722.18,-349.64 729.18,-340.58"/>
<polygon fill="midnightblue" stroke="midnightblue" points="731.96,-342.71 735.31,-332.66 726.42,-338.43 731.96,-342.71"/>
</g>
<!-- Node6 -->
<g id="node6" class="node">
<title>Node6</title>
<g id="a_node6"><a xlink:href="fer__trx__c__api_8h.html" target="_top" xlink:title="C&#45;API for sending and receiving Fernotron RF messages.">
<polygon fill="none" stroke="black" points="506,-246.5 506,-276.5 622,-276.5 622,-246.5 506,-246.5"/>
<text text-anchor="start" x="514" y="-264.5" font-family="Helvetica,sans-Serif" font-size="10.00">fernotron_trx/fer_trx</text>
<text text-anchor="middle" x="564" y="-253.5" font-family="Helvetica,sans-Serif" font-size="10.00">_c_api.h</text>
</a>
</g>
</g>
<!-- Node1&#45;&gt;Node6 -->
<g id="edge32" class="edge">
<title>Node1&#45;&gt;Node6</title>
<path fill="none" stroke="midnightblue" d="M678.64,-369.47C666.5,-359.52 650.01,-345.72 636,-333 618.41,-317.02 599.21,-298.15 585.07,-283.96"/>
<polygon fill="midnightblue" stroke="midnightblue" points="587.3,-281.23 577.77,-276.6 582.33,-286.16 587.3,-281.23"/>
</g>
<!-- Node26 -->
<g id="node26" class="node">
<title>Node26</title>
<g id="a_node26"><a xlink:href="int__macros_8h.html" target="_top" xlink:title="Basic helper macros for integers.">
<polygon fill="none" stroke="black" points="862,-252 862,-271 994,-271 994,-252 862,-252"/>
<text text-anchor="middle" x="928" y="-259" font-family="Helvetica,sans-Serif" font-size="10.00">utils_misc/int_macros.h</text>
</a>
</g>
</g>
<!-- Node1&#45;&gt;Node26 -->
<g id="edge31" class="edge">
<title>Node1&#45;&gt;Node26</title>
<path fill="none" stroke="midnightblue" d="M725.16,-369.42C745.64,-359.44 773.62,-345.64 798,-333 835.15,-313.74 877.69,-290.43 903.7,-276.03"/>
<polygon fill="midnightblue" stroke="midnightblue" points="905.44,-279.06 912.49,-271.15 902.05,-272.94 905.44,-279.06"/>
</g>
<!-- Node4 -->
<g id="node4" class="node">
<title>Node4</title>
<g id="a_node4"><a xlink:href="fer__msg__type_8h.html" target="_top" xlink:title="kinds of messages">
<polygon fill="none" stroke="black" points="733,-185 733,-204 825,-204 825,-185 733,-185"/>
<text text-anchor="middle" x="779" y="-192" font-family="Helvetica,sans-Serif" font-size="10.00">fer_msg_type.h</text>
</a>
</g>
</g>
<!-- Node3&#45;&gt;Node4 -->
<g id="edge3" class="edge">
<title>Node3&#45;&gt;Node4</title>
<path fill="none" stroke="midnightblue" d="M768.21,-313.41C784.85,-306.44 805.06,-294.81 815,-277 827.18,-255.18 809.65,-228.44 795.06,-211.68"/>
<polygon fill="midnightblue" stroke="midnightblue" points="797.62,-209.3 788.27,-204.32 792.48,-214.05 797.62,-209.3"/>
</g>
<!-- Node5 -->
<g id="node5" class="node">
<title>Node5</title>
<g id="a_node5"><a xlink:href="fer__msg__plain__enum_8h.html" target="_top" xlink:title="Raw message for plain commands.">
<polygon fill="none" stroke="black" points="678,-252 678,-271 806,-271 806,-252 678,-252"/>
<text text-anchor="middle" x="742" y="-259" font-family="Helvetica,sans-Serif" font-size="10.00">fer_msg_plain_enum.h</text>
</a>
</g>
</g>
<!-- Node3&#45;&gt;Node5 -->
<g id="edge5" class="edge">
<title>Node3&#45;&gt;Node5</title>
<path fill="none" stroke="midnightblue" d="M742,-313.48C742,-305.08 742,-291.98 742,-281.16"/>
<polygon fill="midnightblue" stroke="midnightblue" points="745.5,-281.01 742,-271.01 738.5,-281.01 745.5,-281.01"/>
</g>
<!-- Node3&#45;&gt;Node6 -->
<g id="edge6" class="edge">
<title>Node3&#45;&gt;Node6</title>
<path fill="none" stroke="midnightblue" d="M716.5,-313.48C690.25,-304.7 648.63,-290.79 615.49,-279.71"/>
<polygon fill="midnightblue" stroke="midnightblue" points="616.54,-276.37 605.95,-276.52 614.33,-283.01 616.54,-276.37"/>
</g>
<!-- Node3&#45;&gt;Node26 -->
<g id="edge29" class="edge">
<title>Node3&#45;&gt;Node26</title>
<path fill="none" stroke="midnightblue" d="M768.65,-313.48C800.97,-303.14 855.6,-285.66 891.73,-274.1"/>
<polygon fill="midnightblue" stroke="midnightblue" points="892.94,-277.39 901.4,-271.01 890.81,-270.72 892.94,-277.39"/>
</g>
<!-- Node4&#45;&gt;Node2 -->
<g id="edge4" class="edge">
<title>Node4&#45;&gt;Node2</title>
<path fill="none" stroke="midnightblue" d="M761.87,-184.87C739.99,-173.84 701.91,-154.66 676.33,-141.77"/>
<polygon fill="midnightblue" stroke="midnightblue" points="677.71,-138.54 667.2,-137.17 674.56,-144.79 677.71,-138.54"/>
</g>
<!-- Node7 -->
<g id="node7" class="node">
<title>Node7</title>
<g id="a_node7"><a xlink:href="int__types_8h_source.html" target="_top" xlink:title=" ">
<polygon fill="none" stroke="black" points="432.5,-185 432.5,-204 555.5,-204 555.5,-185 432.5,-185"/>
<text text-anchor="middle" x="494" y="-192" font-family="Helvetica,sans-Serif" font-size="10.00">utils_misc/int_types.h</text>
</a>
</g>
</g>
<!-- Node6&#45;&gt;Node7 -->
<g id="edge7" class="edge">
<title>Node6&#45;&gt;Node7</title>
<path fill="none" stroke="midnightblue" d="M548.81,-246.4C537.68,-236.06 522.56,-222.02 511.03,-211.31"/>
<polygon fill="midnightblue" stroke="midnightblue" points="513.07,-208.43 503.36,-204.19 508.31,-213.56 513.07,-208.43"/>
</g>
<!-- Node9 -->
<g id="node9" class="node">
<title>Node9</title>
<g id="a_node9"><a xlink:href="timer__data_8h.html" target="_top" xlink:title="vocabulary types to program Fernotron automatic (timers)">
<polygon fill="none" stroke="black" points="304,-179.5 304,-209.5 414,-209.5 414,-179.5 304,-179.5"/>
<text text-anchor="start" x="312" y="-197.5" font-family="Helvetica,sans-Serif" font-size="10.00">fernotron_trx/timer</text>
<text text-anchor="middle" x="359" y="-186.5" font-family="Helvetica,sans-Serif" font-size="10.00">_data.h</text>
</a>
</g>
</g>
<!-- Node6&#45;&gt;Node9 -->
<g id="edge10" class="edge">
<title>Node6&#45;&gt;Node9</title>
<path fill="none" stroke="midnightblue" d="M519.77,-246.48C488.49,-236.56 446.36,-223.2 413.08,-212.65"/>
<polygon fill="midnightblue" stroke="midnightblue" points="414.09,-209.3 403.5,-209.61 411.98,-215.97 414.09,-209.3"/>
</g>
<!-- Node25 -->
<g id="node25" class="node">
<title>Node25</title>
<g id="a_node25"><a xlink:title=" ">
<polygon fill="none" stroke="#bfbfbf" points="574,-185 574,-204 622,-204 622,-185 574,-185"/>
<text text-anchor="middle" x="598" y="-192" font-family="Helvetica,sans-Serif" font-size="10.00">time.h</text>
</a>
</g>
</g>
<!-- Node6&#45;&gt;Node25 -->
<g id="edge28" class="edge">
<title>Node6&#45;&gt;Node25</title>
<path fill="none" stroke="midnightblue" d="M571.38,-246.4C576.47,-236.66 583.28,-223.65 588.73,-213.21"/>
<polygon fill="midnightblue" stroke="midnightblue" points="591.92,-214.68 593.45,-204.19 585.72,-211.43 591.92,-214.68"/>
</g>
<!-- Node7&#45;&gt;Node2 -->
<g id="edge8" class="edge">
<title>Node7&#45;&gt;Node2</title>
<path fill="none" stroke="midnightblue" d="M514.72,-184.87C541.64,-173.65 588.86,-153.98 619.78,-141.09"/>
<polygon fill="midnightblue" stroke="midnightblue" points="621.31,-144.24 629.2,-137.17 618.62,-137.78 621.31,-144.24"/>
</g>
<!-- Node8 -->
<g id="node8" class="node">
<title>Node8</title>
<g id="a_node8"><a xlink:title=" ">
<polygon fill="none" stroke="#bfbfbf" points="522,-118 522,-137 584,-137 584,-118 522,-118"/>
<text text-anchor="middle" x="553" y="-125" font-family="Helvetica,sans-Serif" font-size="10.00">stdbool.h</text>
</a>
</g>
</g>
<!-- Node7&#45;&gt;Node8 -->
<g id="edge9" class="edge">
<title>Node7&#45;&gt;Node8</title>
<path fill="none" stroke="midnightblue" d="M501.96,-184.73C511.25,-174.5 526.8,-157.36 538.3,-144.69"/>
<polygon fill="midnightblue" stroke="midnightblue" points="541.04,-146.88 545.17,-137.13 535.86,-142.18 541.04,-146.88"/>
</g>
<!-- Node9&#45;&gt;Node2 -->
<g id="edge11" class="edge">
<title>Node9&#45;&gt;Node2</title>
<path fill="none" stroke="midnightblue" d="M414.15,-180.95C417.14,-180.29 420.11,-179.63 423,-179 498.44,-162.47 517.78,-160.52 593,-143 599.68,-141.44 606.78,-139.71 613.62,-137.99"/>
<polygon fill="midnightblue" stroke="midnightblue" points="614.55,-141.36 623.38,-135.51 612.82,-134.58 614.55,-141.36"/>
</g>
<!-- Node9&#45;&gt;Node8 -->
<g id="edge12" class="edge">
<title>Node9&#45;&gt;Node8</title>
<path fill="none" stroke="midnightblue" d="M402.93,-179.49C433.81,-169.55 476.03,-155.76 513,-143 515.38,-142.18 517.84,-141.32 520.31,-140.44"/>
<polygon fill="midnightblue" stroke="midnightblue" points="521.54,-143.72 529.78,-137.06 519.18,-137.13 521.54,-143.72"/>
</g>
<!-- Node10 -->
<g id="node10" class="node">
<title>Node10</title>
<g id="a_node10"><a xlink:title=" ">
<polygon fill="none" stroke="#bfbfbf" points="191.5,-118 191.5,-137 244.5,-137 244.5,-118 191.5,-118"/>
<text text-anchor="middle" x="218" y="-125" font-family="Helvetica,sans-Serif" font-size="10.00">string.h</text>
</a>
</g>
</g>
<!-- Node9&#45;&gt;Node10 -->
<g id="edge13" class="edge">
<title>Node9&#45;&gt;Node10</title>
<path fill="none" stroke="midnightblue" d="M328.41,-179.4C303.77,-168.04 269.45,-152.22 245.64,-141.24"/>
<polygon fill="midnightblue" stroke="midnightblue" points="247,-138.02 236.45,-137.01 244.07,-144.37 247,-138.02"/>
</g>
<!-- Node11 -->
<g id="node11" class="node">
<title>Node11</title>
<g id="a_node11"><a xlink:title=" ">
<polygon fill="none" stroke="#bfbfbf" points="262.5,-118 262.5,-137 315.5,-137 315.5,-118 262.5,-118"/>
<text text-anchor="middle" x="289" y="-125" font-family="Helvetica,sans-Serif" font-size="10.00">ctype.h</text>
</a>
</g>
</g>
<!-- Node9&#45;&gt;Node11 -->
<g id="edge14" class="edge">
<title>Node9&#45;&gt;Node11</title>
<path fill="none" stroke="midnightblue" d="M343.81,-179.4C332.68,-169.06 317.56,-155.02 306.03,-144.31"/>
<polygon fill="midnightblue" stroke="midnightblue" points="308.07,-141.43 298.36,-137.19 303.31,-146.56 308.07,-141.43"/>
</g>
<!-- Node12 -->
<g id="node12" class="node">
<title>Node12</title>
<g id="a_node12"><a xlink:title=" ">
<polygon fill="none" stroke="#bfbfbf" points="334,-118 334,-137 384,-137 384,-118 334,-118"/>
<text text-anchor="middle" x="359" y="-125" font-family="Helvetica,sans-Serif" font-size="10.00">stdio.h</text>
</a>
</g>
</g>
<!-- Node9&#45;&gt;Node12 -->
<g id="edge15" class="edge">
<title>Node9&#45;&gt;Node12</title>
<path fill="none" stroke="midnightblue" d="M359,-179.4C359,-170.06 359,-157.71 359,-147.52"/>
<polygon fill="midnightblue" stroke="midnightblue" points="362.5,-147.19 359,-137.19 355.5,-147.19 362.5,-147.19"/>
</g>
<!-- Node13 -->
<g id="node13" class="node">
<title>Node13</title>
<g id="a_node13"><a xlink:href="cstring__utils_8hh_source.html" target="_top" xlink:title=" ">
<polygon fill="none" stroke="black" points="402,-112.5 402,-142.5 504,-142.5 504,-112.5 402,-112.5"/>
<text text-anchor="start" x="410" y="-130.5" font-family="Helvetica,sans-Serif" font-size="10.00">utils_misc/cstring</text>
<text text-anchor="middle" x="453" y="-119.5" font-family="Helvetica,sans-Serif" font-size="10.00">_utils.hh</text>
</a>
</g>
</g>
<!-- Node9&#45;&gt;Node13 -->
<g id="edge16" class="edge">
<title>Node9&#45;&gt;Node13</title>
<path fill="none" stroke="midnightblue" d="M379.4,-179.4C392.45,-170.37 409.6,-158.51 424.05,-148.52"/>
<polygon fill="midnightblue" stroke="midnightblue" points="426.41,-151.14 432.64,-142.58 422.43,-145.39 426.41,-151.14"/>
</g>
<!-- Node19 -->
<g id="node19" class="node">
<title>Node19</title>
<g id="a_node19"><a xlink:href="dbg_8h_source.html" target="_top" xlink:title=" ">
<polygon fill="none" stroke="black" points="96.5,-118 96.5,-137 173.5,-137 173.5,-118 96.5,-118"/>
<text text-anchor="middle" x="135" y="-125" font-family="Helvetica,sans-Serif" font-size="10.00">debug/dbg.h</text>
</a>
</g>
</g>
<!-- Node9&#45;&gt;Node19 -->
<g id="edge22" class="edge">
<title>Node9&#45;&gt;Node19</title>
<path fill="none" stroke="midnightblue" d="M308.56,-179.42C273.1,-169.44 224.58,-155.64 182,-143 178.81,-142.05 175.5,-141.06 172.18,-140.05"/>
<polygon fill="midnightblue" stroke="midnightblue" points="172.89,-136.61 162.31,-137.03 170.85,-143.3 172.89,-136.61"/>
</g>
<!-- Node14 -->
<g id="node14" class="node">
<title>Node14</title>
<g id="a_node14"><a xlink:title=" ">
<polygon fill="none" stroke="#bfbfbf" points="350,-56.5 350,-75.5 400,-75.5 400,-56.5 350,-56.5"/>
<text text-anchor="middle" x="375" y="-63.5" font-family="Helvetica,sans-Serif" font-size="10.00">cstring</text>
</a>
</g>
</g>
<!-- Node13&#45;&gt;Node14 -->
<g id="edge17" class="edge">
<title>Node13&#45;&gt;Node14</title>
<path fill="none" stroke="midnightblue" d="M434.52,-112.4C422.48,-103.22 406.8,-91.26 394.56,-81.92"/>
<polygon fill="midnightblue" stroke="midnightblue" points="396.42,-78.94 386.35,-75.66 392.18,-84.51 396.42,-78.94"/>
</g>
<!-- Node15 -->
<g id="node15" class="node">
<title>Node15</title>
<g id="a_node15"><a xlink:title=" ">
<polygon fill="none" stroke="#bfbfbf" points="418.5,-56.5 418.5,-75.5 487.5,-75.5 487.5,-56.5 418.5,-56.5"/>
<text text-anchor="middle" x="453" y="-63.5" font-family="Helvetica,sans-Serif" font-size="10.00">type_traits</text>
</a>
</g>
</g>
<!-- Node13&#45;&gt;Node15 -->
<g id="edge18" class="edge">
<title>Node13&#45;&gt;Node15</title>
<path fill="none" stroke="midnightblue" d="M453,-112.4C453,-104.47 453,-94.46 453,-85.86"/>
<polygon fill="midnightblue" stroke="midnightblue" points="456.5,-85.66 453,-75.66 449.5,-85.66 456.5,-85.66"/>
</g>
<!-- Node16 -->
<g id="node16" class="node">
<title>Node16</title>
<g id="a_node16"><a xlink:href="allocator__malloc_8hh_source.html" target="_top" xlink:title=" ">
<polygon fill="none" stroke="black" points="505.5,-56.5 505.5,-75.5 618.5,-75.5 618.5,-56.5 505.5,-56.5"/>
<text text-anchor="middle" x="562" y="-63.5" font-family="Helvetica,sans-Serif" font-size="10.00">allocator_malloc.hh</text>
</a>
</g>
</g>
<!-- Node13&#45;&gt;Node16 -->
<g id="edge19" class="edge">
<title>Node13&#45;&gt;Node16</title>
<path fill="none" stroke="midnightblue" d="M478.83,-112.4C496.47,-102.77 519.7,-90.09 537.13,-80.58"/>
<polygon fill="midnightblue" stroke="midnightblue" points="539.04,-83.52 546.14,-75.66 535.69,-77.38 539.04,-83.52"/>
</g>
<!-- Node17 -->
<g id="node17" class="node">
<title>Node17</title>
<g id="a_node17"><a xlink:title=" ">
<polygon fill="none" stroke="#bfbfbf" points="571,-0.5 571,-19.5 629,-19.5 629,-0.5 571,-0.5"/>
<text text-anchor="middle" x="600" y="-7.5" font-family="Helvetica,sans-Serif" font-size="10.00">memory</text>
</a>
</g>
</g>
<!-- Node16&#45;&gt;Node17 -->
<g id="edge20" class="edge">
<title>Node16&#45;&gt;Node17</title>
<path fill="none" stroke="midnightblue" d="M568.27,-56.08C573.64,-48.46 581.52,-37.26 588.08,-27.94"/>
<polygon fill="midnightblue" stroke="midnightblue" points="590.95,-29.94 593.84,-19.75 585.22,-25.91 590.95,-29.94"/>
</g>
<!-- Node18 -->
<g id="node18" class="node">
<title>Node18</title>
<g id="a_node18"><a xlink:title=" ">
<polygon fill="none" stroke="#bfbfbf" points="493.5,-0.5 493.5,-19.5 552.5,-19.5 552.5,-0.5 493.5,-0.5"/>
<text text-anchor="middle" x="523" y="-7.5" font-family="Helvetica,sans-Serif" font-size="10.00">malloc.h</text>
</a>
</g>
</g>
<!-- Node16&#45;&gt;Node18 -->
<g id="edge21" class="edge">
<title>Node16&#45;&gt;Node18</title>
<path fill="none" stroke="midnightblue" d="M555.56,-56.08C550.05,-48.46 541.97,-37.26 535.24,-27.94"/>
<polygon fill="midnightblue" stroke="midnightblue" points="538.01,-25.81 529.32,-19.75 532.34,-29.91 538.01,-25.81"/>
</g>
<!-- Node20 -->
<g id="node20" class="node">
<title>Node20</title>
<g id="a_node20"><a xlink:href="log_8h_source.html" target="_top" xlink:title=" ">
<polygon fill="none" stroke="black" points="148.5,-56.5 148.5,-75.5 189.5,-75.5 189.5,-56.5 148.5,-56.5"/>
<text text-anchor="middle" x="169" y="-63.5" font-family="Helvetica,sans-Serif" font-size="10.00">log.h</text>
</a>
</g>
</g>
<!-- Node19&#45;&gt;Node20 -->
<g id="edge23" class="edge">
<title>Node19&#45;&gt;Node20</title>
<path fill="none" stroke="midnightblue" d="M139.87,-117.98C144.87,-109.23 152.79,-95.37 159.11,-84.31"/>
<polygon fill="midnightblue" stroke="midnightblue" points="162.22,-85.93 164.14,-75.51 156.14,-82.46 162.22,-85.93"/>
</g>
<!-- Node22 -->
<g id="node22" class="node">
<title>Node22</title>
<g id="a_node22"><a xlink:title=" ">
<polygon fill="none" stroke="#bfbfbf" points="207.5,-56.5 207.5,-75.5 260.5,-75.5 260.5,-56.5 207.5,-56.5"/>
<text text-anchor="middle" x="234" y="-63.5" font-family="Helvetica,sans-Serif" font-size="10.00">stdlib.h</text>
</a>
</g>
</g>
<!-- Node19&#45;&gt;Node22 -->
<g id="edge25" class="edge">
<title>Node19&#45;&gt;Node22</title>
<path fill="none" stroke="midnightblue" d="M149.18,-117.98C165.36,-108.25 192.03,-92.23 211.14,-80.74"/>
<polygon fill="midnightblue" stroke="midnightblue" points="213.07,-83.66 219.84,-75.51 209.47,-77.66 213.07,-83.66"/>
</g>
<!-- Node23 -->
<g id="node23" class="node">
<title>Node23</title>
<g id="a_node23"><a xlink:title=" ">
<polygon fill="none" stroke="#bfbfbf" points="0,-56.5 0,-75.5 56,-75.5 56,-56.5 0,-56.5"/>
<text text-anchor="middle" x="28" y="-63.5" font-family="Helvetica,sans-Serif" font-size="10.00">unistd.h</text>
</a>
</g>
</g>
<!-- Node19&#45;&gt;Node23 -->
<g id="edge26" class="edge">
<title>Node19&#45;&gt;Node23</title>
<path fill="none" stroke="midnightblue" d="M119.67,-117.98C102.03,-108.17 72.84,-91.93 52.14,-80.42"/>
<polygon fill="midnightblue" stroke="midnightblue" points="53.74,-77.31 43.3,-75.51 50.34,-83.43 53.74,-77.31"/>
</g>
<!-- Node24 -->
<g id="node24" class="node">
<title>Node24</title>
<g id="a_node24"><a xlink:title=" ">
<polygon fill="none" stroke="#bfbfbf" points="74,-56.5 74,-75.5 130,-75.5 130,-56.5 74,-56.5"/>
<text text-anchor="middle" x="102" y="-63.5" font-family="Helvetica,sans-Serif" font-size="10.00">assert.h</text>
</a>
</g>
</g>
<!-- Node19&#45;&gt;Node24 -->
<g id="edge27" class="edge">
<title>Node19&#45;&gt;Node24</title>
<path fill="none" stroke="midnightblue" d="M130.27,-117.98C125.42,-109.23 117.73,-95.37 111.6,-84.31"/>
<polygon fill="midnightblue" stroke="midnightblue" points="114.63,-82.56 106.72,-75.51 108.51,-85.95 114.63,-82.56"/>
</g>
<!-- Node21 -->
<g id="node21" class="node">
<title>Node21</title>
<g id="a_node21"><a xlink:title=" ">
<polygon fill="none" stroke="#bfbfbf" points="137.5,-0.5 137.5,-19.5 200.5,-19.5 200.5,-0.5 137.5,-0.5"/>
<text text-anchor="middle" x="169" y="-7.5" font-family="Helvetica,sans-Serif" font-size="10.00">esp_log.h</text>
</a>
</g>
</g>
<!-- Node20&#45;&gt;Node21 -->
<g id="edge24" class="edge">
<title>Node20&#45;&gt;Node21</title>
<path fill="none" stroke="midnightblue" d="M169,-56.08C169,-49.01 169,-38.86 169,-29.99"/>
<polygon fill="midnightblue" stroke="midnightblue" points="172.5,-29.75 169,-19.75 165.5,-29.75 172.5,-29.75"/>
</g>
<!-- Node26&#45;&gt;Node2 -->
<g id="edge30" class="edge">
<title>Node26&#45;&gt;Node2</title>
<path fill="none" stroke="midnightblue" d="M920.63,-251.95C905.88,-235.38 870.95,-198.76 834,-179 786.61,-153.66 725.38,-140.15 686.89,-133.66"/>
<polygon fill="midnightblue" stroke="midnightblue" points="687.1,-130.15 676.67,-132.01 685.98,-137.06 687.1,-130.15"/>
</g>
</g>
</svg>
