<?xml version="1.0" encoding="UTF-8" standalone="no"?>
<!DOCTYPE svg PUBLIC "-//W3C//DTD SVG 1.1//EN"
 "http://www.w3.org/Graphics/SVG/1.1/DTD/svg11.dtd">
<!-- Generated by graphviz version 2.43.0 (0)
 -->
<!-- Title: fernotron/gm_set.hh Pages: 1 -->
<svg width="454pt" height="140pt"
 viewBox="0.00 0.00 453.50 140.00" xmlns="http://www.w3.org/2000/svg" xmlns:xlink="http://www.w3.org/1999/xlink">
<g id="graph0" class="graph" transform="scale(1 1) rotate(0) translate(4 136)">
<title>fernotron/gm_set.hh</title>
<!-- Node1 -->
<g id="node1" class="node">
<title>Node1</title>
<g id="a_node1"><a xlink:title="Provide set of groups/members with iterator.">
<polygon fill="#bfbfbf" stroke="black" points="153,-112.5 153,-131.5 269,-131.5 269,-112.5 153,-112.5"/>
<text text-anchor="middle" x="211" y="-119.5" font-family="Helvetica,sans-Serif" font-size="10.00">fernotron/gm_set.hh</text>
</a>
</g>
</g>
<!-- Node2 -->
<g id="node2" class="node">
<title>Node2</title>
<g id="a_node2"><a xlink:href="int__macros_8h.html" target="_top" xlink:title="Basic helper macros for integers.">
<polygon fill="none" stroke="black" points="0,-56.5 0,-75.5 132,-75.5 132,-56.5 0,-56.5"/>
<text text-anchor="middle" x="66" y="-63.5" font-family="Helvetica,sans-Serif" font-size="10.00">utils_misc/int_macros.h</text>
</a>
</g>
</g>
<!-- Node1&#45;&gt;Node2 -->
<g id="edge1" class="edge">
<title>Node1&#45;&gt;Node2</title>
<path fill="none" stroke="midnightblue" d="M188.02,-112.44C163.84,-103.44 125.58,-89.19 98.35,-79.05"/>
<polygon fill="midnightblue" stroke="midnightblue" points="99.46,-75.73 88.87,-75.52 97.02,-82.29 99.46,-75.73"/>
</g>
<!-- Node3 -->
<g id="node3" class="node">
<title>Node3</title>
<g id="a_node3"><a xlink:title=" ">
<polygon fill="none" stroke="#bfbfbf" points="133.5,-0.5 133.5,-19.5 186.5,-19.5 186.5,-0.5 133.5,-0.5"/>
<text text-anchor="middle" x="160" y="-7.5" font-family="Helvetica,sans-Serif" font-size="10.00">stdint.h</text>
</a>
</g>
</g>
<!-- Node1&#45;&gt;Node3 -->
<g id="edge4" class="edge">
<title>Node1&#45;&gt;Node3</title>
<path fill="none" stroke="midnightblue" d="M203.43,-112.26C196.25,-103.58 185.61,-89.63 179,-76 171.79,-61.12 166.77,-42.98 163.71,-29.64"/>
<polygon fill="midnightblue" stroke="midnightblue" points="167.1,-28.8 161.59,-19.75 160.26,-30.26 167.1,-28.8"/>
</g>
<!-- Node4 -->
<g id="node4" class="node">
<title>Node4</title>
<g id="a_node4"><a xlink:title=" ">
<polygon fill="none" stroke="#bfbfbf" points="188.5,-56.5 188.5,-75.5 233.5,-75.5 233.5,-56.5 188.5,-56.5"/>
<text text-anchor="middle" x="211" y="-63.5" font-family="Helvetica,sans-Serif" font-size="10.00">utility</text>
</a>
</g>
</g>
<!-- Node1&#45;&gt;Node4 -->
<g id="edge3" class="edge">
<title>Node1&#45;&gt;Node4</title>
<path fill="none" stroke="midnightblue" d="M211,-112.08C211,-105.01 211,-94.86 211,-85.99"/>
<polygon fill="midnightblue" stroke="midnightblue" points="214.5,-85.75 211,-75.75 207.5,-85.75 214.5,-85.75"/>
</g>
<!-- Node5 -->
<g id="node5" class="node">
<title>Node5</title>
<g id="a_node5"><a xlink:title=" ">
<polygon fill="none" stroke="#bfbfbf" points="251.5,-56.5 251.5,-75.5 304.5,-75.5 304.5,-56.5 251.5,-56.5"/>
<text text-anchor="middle" x="278" y="-63.5" font-family="Helvetica,sans-Serif" font-size="10.00">string.h</text>
</a>
</g>
</g>
<!-- Node1&#45;&gt;Node5 -->
<g id="edge5" class="edge">
<title>Node1&#45;&gt;Node5</title>
<path fill="none" stroke="midnightblue" d="M221.76,-112.32C231.77,-104.26 246.89,-92.08 258.93,-82.37"/>
<polygon fill="midnightblue" stroke="midnightblue" points="261.45,-84.83 267.04,-75.83 257.06,-79.38 261.45,-84.83"/>
</g>
<!-- Node6 -->
<g id="node6" class="node">
<title>Node6</title>
<g id="a_node6"><a xlink:href="int__types_8h_source.html" target="_top" xlink:title=" ">
<polygon fill="none" stroke="black" points="322.5,-56.5 322.5,-75.5 445.5,-75.5 445.5,-56.5 322.5,-56.5"/>
<text text-anchor="middle" x="384" y="-63.5" font-family="Helvetica,sans-Serif" font-size="10.00">utils_misc/int_types.h</text>
</a>
</g>
</g>
<!-- Node1&#45;&gt;Node6 -->
<g id="edge6" class="edge">
<title>Node1&#45;&gt;Node6</title>
<path fill="none" stroke="midnightblue" d="M238.41,-112.44C267.77,-103.28 314.52,-88.69 347.1,-78.52"/>
<polygon fill="midnightblue" stroke="midnightblue" points="348.21,-81.84 356.72,-75.52 346.13,-75.16 348.21,-81.84"/>
</g>
<!-- Node2&#45;&gt;Node3 -->
<g id="edge2" class="edge">
<title>Node2&#45;&gt;Node3</title>
<path fill="none" stroke="midnightblue" d="M81.1,-56.32C95.9,-47.82 118.69,-34.73 135.98,-24.8"/>
<polygon fill="midnightblue" stroke="midnightblue" points="138.01,-27.67 144.93,-19.65 134.52,-21.6 138.01,-27.67"/>
</g>
<!-- Node6&#45;&gt;Node3 -->
<g id="edge7" class="edge">
<title>Node6&#45;&gt;Node3</title>
<path fill="none" stroke="midnightblue" d="M348.51,-56.44C306.91,-46.42 238.34,-29.89 196.37,-19.77"/>
<polygon fill="midnightblue" stroke="midnightblue" points="197.1,-16.34 186.56,-17.4 195.46,-23.15 197.1,-16.34"/>
</g>
<!-- Node7 -->
<g id="node7" class="node">
<title>Node7</title>
<g id="a_node7"><a xlink:title=" ">
<polygon fill="none" stroke="#bfbfbf" points="353,-0.5 353,-19.5 415,-19.5 415,-0.5 353,-0.5"/>
<text text-anchor="middle" x="384" y="-7.5" font-family="Helvetica,sans-Serif" font-size="10.00">stdbool.h</text>
</a>
</g>
</g>
<!-- Node6&#45;&gt;Node7 -->
<g id="edge8" class="edge">
<title>Node6&#45;&gt;Node7</title>
<path fill="none" stroke="midnightblue" d="M384,-56.08C384,-49.01 384,-38.86 384,-29.99"/>
<polygon fill="midnightblue" stroke="midnightblue" points="387.5,-29.75 384,-19.75 380.5,-29.75 387.5,-29.75"/>
</g>
</g>
</svg>
