<?xml version="1.0" encoding="UTF-8" standalone="no"?>
<!DOCTYPE svg PUBLIC "-//W3C//DTD SVG 1.1//EN"
 "http://www.w3.org/Graphics/SVG/1.1/DTD/svg11.dtd">
<!-- Generated by graphviz version 2.43.0 (0)
 -->
<!-- Title: Graphical Class Hierarchy Pages: 1 -->
<svg width="240pt" height="66pt"
 viewBox="0.00 0.00 240.00 66.00" xmlns="http://www.w3.org/2000/svg" xmlns:xlink="http://www.w3.org/1999/xlink">
<g id="graph0" class="graph" transform="scale(1 1) rotate(0) translate(4 62)">
<title>Graphical Class Hierarchy</title>
<!-- Node0 -->
<g id="node1" class="node">
<title>Node0</title>
<g id="a_node1"><a xlink:href="classContentReader.html" target="_top" xlink:title="base class for serving file like things">
<polygon fill="none" stroke="black" points="0,-19.5 0,-38.5 89,-38.5 89,-19.5 0,-19.5"/>
<text text-anchor="middle" x="44.5" y="-26.5" font-family="Helvetica,sans-Serif" font-size="10.00">ContentReader</text>
</a>
</g>
</g>
<!-- Node1 -->
<g id="node2" class="node">
<title>Node1</title>
<g id="a_node2"><a xlink:href="classCtjContentReader.html" target="_top" xlink:title=" ">
<polygon fill="none" stroke="black" points="127,-38.5 127,-57.5 230,-57.5 230,-38.5 127,-38.5"/>
<text text-anchor="middle" x="178.5" y="-45.5" font-family="Helvetica,sans-Serif" font-size="10.00">CtjContentReader</text>
</a>
</g>
</g>
<!-- Node0&#45;&gt;Node1 -->
<g id="edge1" class="edge">
<title>Node0&#45;&gt;Node1</title>
<path fill="none" stroke="midnightblue" d="M99.16,-36.72C108.23,-38.03 117.63,-39.38 126.63,-40.68"/>
<polygon fill="midnightblue" stroke="midnightblue" points="99.48,-33.23 89.09,-35.27 98.49,-40.16 99.48,-33.23"/>
</g>
<!-- Node2 -->
<g id="node3" class="node">
<title>Node2</title>
<g id="a_node3"><a xlink:href="classFileContentReader.html" target="_top" xlink:title="ContentReader subclass to server files from file system">
<polygon fill="none" stroke="black" points="125,-0.5 125,-19.5 232,-19.5 232,-0.5 125,-0.5"/>
<text text-anchor="middle" x="178.5" y="-7.5" font-family="Helvetica,sans-Serif" font-size="10.00">FileContentReader</text>
</a>
</g>
</g>
<!-- Node0&#45;&gt;Node2 -->
<g id="edge2" class="edge">
<title>Node0&#45;&gt;Node2</title>
<path fill="none" stroke="midnightblue" d="M99.2,-21.27C107.64,-20.06 116.35,-18.8 124.77,-17.59"/>
<polygon fill="midnightblue" stroke="midnightblue" points="98.49,-17.84 89.09,-22.73 99.48,-24.77 98.49,-17.84"/>
</g>
</g>
</svg>
