<?xml version="1.0" encoding="UTF-8" standalone="no"?>
<!DOCTYPE svg PUBLIC "-//W3C//DTD SVG 1.1//EN"
 "http://www.w3.org/Graphics/SVG/1.1/DTD/svg11.dtd">
<!-- Generated by graphviz version 2.43.0 (0)
 -->
<!-- Title: Graphical Class Hierarchy Pages: 1 -->
<svg width="296pt" height="66pt"
 viewBox="0.00 0.00 296.00 66.00" xmlns="http://www.w3.org/2000/svg" xmlns:xlink="http://www.w3.org/1999/xlink">
<g id="graph0" class="graph" transform="scale(1 1) rotate(0) translate(4 62)">
<title>Graphical Class Hierarchy</title>
<!-- Node0 -->
<g id="node1" class="node">
<title>Node0</title>
<g id="a_node1"><a xlink:href="classWeather__Provider.html" target="_top" xlink:title="Interface class of a weather data provider.">
<polygon fill="none" stroke="black" points="0,-19.5 0,-38.5 103,-38.5 103,-19.5 0,-19.5"/>
<text text-anchor="middle" x="51.5" y="-26.5" font-family="Helvetica,sans-Serif" font-size="10.00">Weather_Provider</text>
</a>
</g>
</g>
<!-- Node1 -->
<g id="node2" class="node">
<title>Node1</title>
<g id="a_node2"><a xlink:href="classWeather__Provider__Owm.html" target="_top" xlink:title="Weather_Provider subclass for api.openweathermap.org">
<polygon fill="none" stroke="black" points="146.5,-38.5 146.5,-57.5 280.5,-57.5 280.5,-38.5 146.5,-38.5"/>
<text text-anchor="middle" x="213.5" y="-45.5" font-family="Helvetica,sans-Serif" font-size="10.00">Weather_Provider_Owm</text>
</a>
</g>
</g>
<!-- Node0&#45;&gt;Node1 -->
<g id="edge1" class="edge">
<title>Node0&#45;&gt;Node1</title>
<path fill="none" stroke="midnightblue" d="M113.31,-36.22C124.12,-37.51 135.43,-38.85 146.38,-40.15"/>
<polygon fill="midnightblue" stroke="midnightblue" points="113.47,-32.72 103.12,-35.01 112.64,-39.67 113.47,-32.72"/>
</g>
<!-- Node2 -->
<g id="node3" class="node">
<title>Node2</title>
<g id="a_node3"><a xlink:href="classWeather__Provider__Random.html" target="_top" xlink:title="Weather_Provider subclass for random mock weather data">
<polygon fill="none" stroke="black" points="139,-0.5 139,-19.5 288,-19.5 288,-0.5 139,-0.5"/>
<text text-anchor="middle" x="213.5" y="-7.5" font-family="Helvetica,sans-Serif" font-size="10.00">Weather_Provider_Random</text>
</a>
</g>
</g>
<!-- Node0&#45;&gt;Node2 -->
<g id="edge2" class="edge">
<title>Node0&#45;&gt;Node2</title>
<path fill="none" stroke="midnightblue" d="M113.17,-21.8C121.55,-20.8 130.24,-19.77 138.82,-18.75"/>
<polygon fill="midnightblue" stroke="midnightblue" points="112.64,-18.33 103.12,-22.99 113.47,-25.28 112.64,-18.33"/>
</g>
</g>
</svg>
