<?xml version="1.0" encoding="UTF-8" standalone="no"?>
<!DOCTYPE svg PUBLIC "-//W3C//DTD SVG 1.1//EN"
 "http://www.w3.org/Graphics/SVG/1.1/DTD/svg11.dtd">
<!-- Generated by graphviz version 2.43.0 (0)
 -->
<!-- Title: Graphical Class Hierarchy Pages: 1 -->
<svg width="352pt" height="142pt"
 viewBox="0.00 0.00 352.00 142.00" xmlns="http://www.w3.org/2000/svg" xmlns:xlink="http://www.w3.org/1999/xlink">
<g id="graph0" class="graph" transform="scale(1 1) rotate(0) translate(4 138)">
<title>Graphical Class Hierarchy</title>
<!-- Node0 -->
<g id="node1" class="node">
<title>Node0</title>
<g id="a_node1"><a xlink:href="classUoutRawWriter.html" target="_top" xlink:title="Abstract class which implements public write methods and operators which then call an abstract privat...">
<polygon fill="none" stroke="black" points="0,-57.5 0,-76.5 91,-76.5 91,-57.5 0,-57.5"/>
<text text-anchor="middle" x="45.5" y="-64.5" font-family="Helvetica,sans-Serif" font-size="10.00">UoutRawWriter</text>
</a>
</g>
</g>
<!-- Node1 -->
<g id="node2" class="node">
<title>Node1</title>
<g id="a_node2"><a xlink:href="classUoutWriter.html" target="_top" xlink:title="Abstract class which contains various data builders.">
<polygon fill="none" stroke="black" points="127,-57.5 127,-76.5 197,-76.5 197,-57.5 127,-57.5"/>
<text text-anchor="middle" x="162" y="-64.5" font-family="Helvetica,sans-Serif" font-size="10.00">UoutWriter</text>
</a>
</g>
</g>
<!-- Node0&#45;&gt;Node1 -->
<g id="edge1" class="edge">
<title>Node0&#45;&gt;Node1</title>
<path fill="none" stroke="midnightblue" d="M101.3,-67C110.06,-67 118.9,-67 126.99,-67"/>
<polygon fill="midnightblue" stroke="midnightblue" points="101.1,-63.5 91.1,-67 101.1,-70.5 101.1,-63.5"/>
</g>
<!-- Node2 -->
<g id="node3" class="node">
<title>Node2</title>
<g id="a_node3"><a xlink:href="classUoutWriterBuilder.html" target="_top" xlink:title="Build data without an actual data sink for passing to external builder functions expecting a UoutWrit...">
<polygon fill="none" stroke="black" points="236.5,-114.5 236.5,-133.5 340.5,-133.5 340.5,-114.5 236.5,-114.5"/>
<text text-anchor="middle" x="288.5" y="-121.5" font-family="Helvetica,sans-Serif" font-size="10.00">UoutWriterBuilder</text>
</a>
</g>
</g>
<!-- Node1&#45;&gt;Node2 -->
<g id="edge2" class="edge">
<title>Node1&#45;&gt;Node2</title>
<path fill="none" stroke="midnightblue" d="M187.68,-81.67C200.87,-89.18 217.53,-98.16 233,-105 240.7,-108.4 249.21,-111.62 257.18,-114.4"/>
<polygon fill="midnightblue" stroke="midnightblue" points="189.16,-78.49 178.75,-76.51 185.66,-84.55 189.16,-78.49"/>
</g>
<!-- Node3 -->
<g id="node4" class="node">
<title>Node3</title>
<g id="a_node4"><a xlink:href="classUoutWriterConsole.html" target="_top" xlink:title="build data and write to local or remote console (file or socket descriptor)">
<polygon fill="none" stroke="black" points="234,-76.5 234,-95.5 343,-95.5 343,-76.5 234,-76.5"/>
<text text-anchor="middle" x="288.5" y="-83.5" font-family="Helvetica,sans-Serif" font-size="10.00">UoutWriterConsole</text>
</a>
</g>
</g>
<!-- Node1&#45;&gt;Node3 -->
<g id="edge3" class="edge">
<title>Node1&#45;&gt;Node3</title>
<path fill="none" stroke="midnightblue" d="M206.95,-73.71C215.65,-75.04 224.88,-76.44 233.87,-77.81"/>
<polygon fill="midnightblue" stroke="midnightblue" points="207.43,-70.24 197.02,-72.19 206.38,-77.16 207.43,-70.24"/>
</g>
<!-- Node4 -->
<g id="node5" class="node">
<title>Node4</title>
<g id="a_node5"><a xlink:href="classUoutWriterFile.html" target="_top" xlink:title="Build data and, while building, write them to a file while building.">
<polygon fill="none" stroke="black" points="245,-38.5 245,-57.5 332,-57.5 332,-38.5 245,-38.5"/>
<text text-anchor="middle" x="288.5" y="-45.5" font-family="Helvetica,sans-Serif" font-size="10.00">UoutWriterFile</text>
</a>
</g>
</g>
<!-- Node1&#45;&gt;Node4 -->
<g id="edge4" class="edge">
<title>Node1&#45;&gt;Node4</title>
<path fill="none" stroke="midnightblue" d="M206.99,-60.29C219.21,-58.42 232.46,-56.4 244.61,-54.55"/>
<polygon fill="midnightblue" stroke="midnightblue" points="206.38,-56.84 197.02,-61.81 207.43,-63.76 206.38,-56.84"/>
</g>
<!-- Node5 -->
<g id="node6" class="node">
<title>Node5</title>
<g id="a_node6"><a xlink:href="classUoutWriterFunction.html" target="_top" xlink:title="Build data and, while building, write them in chunks using a user provided callback function object (...">
<polygon fill="none" stroke="black" points="233,-0.5 233,-19.5 344,-19.5 344,-0.5 233,-0.5"/>
<text text-anchor="middle" x="288.5" y="-7.5" font-family="Helvetica,sans-Serif" font-size="10.00">UoutWriterFunction</text>
</a>
</g>
</g>
<!-- Node1&#45;&gt;Node5 -->
<g id="edge5" class="edge">
<title>Node1&#45;&gt;Node5</title>
<path fill="none" stroke="midnightblue" d="M187.68,-52.33C200.87,-44.82 217.53,-35.84 233,-29 240.7,-25.6 249.21,-22.38 257.18,-19.6"/>
<polygon fill="midnightblue" stroke="midnightblue" points="185.66,-49.45 178.75,-57.49 189.16,-55.51 185.66,-49.45"/>
</g>
</g>
</svg>
