<?xml version="1.0" encoding="UTF-8" standalone="no"?>
<!DOCTYPE svg PUBLIC "-//W3C//DTD SVG 1.1//EN"
 "http://www.w3.org/Graphics/SVG/1.1/DTD/svg11.dtd">
<!-- Generated by graphviz version 2.43.0 (0)
 -->
<!-- Title: utils_misc/int_macros.h Pages: 1 -->
<!--zoomable 396 -->
<svg id="main" version="1.1" xmlns="http://www.w3.org/2000/svg" xmlns:xlink="http://www.w3.org/1999/xlink" xml:space="preserve" onload="init(evt)">
<style type="text/css"><![CDATA[
.edge:hover path { stroke: red; }
.edge:hover polygon { stroke: red; fill: red; }
]]></style>
<script type="text/javascript"><![CDATA[
var edges = document.getElementsByTagName('g');
if (edges && edges.length) {
  for (var i=0;i<edges.length;i++) {
    if (edges[i].id.substr(0,4)=='edge') {
      edges[i].setAttribute('class','edge');
    }
  }
}
]]></script>
        <defs>
                <circle id="rim" cx="0" cy="0" r="7"/>
                <circle id="rim2" cx="0" cy="0" r="3.5"/>
                <g id="zoomPlus">
                        <use xlink:href="#rim" fill="#404040">
                                <set attributeName="fill" to="#808080" begin="zoomplus.mouseover" end="zoomplus.mouseout"/>
                        </use>
                        <path d="M-4,0h8M0,-4v8" fill="none" stroke="white" stroke-width="1.5" pointer-events="none"/>
                </g>
                <g id="zoomMin">
                        <use xlink:href="#rim" fill="#404040">
                                <set attributeName="fill" to="#808080" begin="zoomminus.mouseover" end="zoomminus.mouseout"/>
                        </use>
                        <path d="M-4,0h8" fill="none" stroke="white" stroke-width="1.5" pointer-events="none"/>
                </g>
                <g id="dirArrow">
                        <path fill="none" stroke="white" stroke-width="1.5" d="M0,-3.0v7 M-2.5,-0.5L0,-3.0L2.5,-0.5"/>
                </g>
               <g id="resetDef">
                       <use xlink:href="#rim2" fill="#404040">
                               <set attributeName="fill" to="#808080" begin="reset.mouseover" end="reset.mouseout"/>
                       </use>
               </g>
        </defs>

<script type="text/javascript">
var viewWidth = 2342;
var viewHeight = 396;
var sectionId = 'dynsection-1';
</script>
<script xlink:href="svgpan.js"/>
<svg id="graph" class="graph">
<g id="viewport">
<title>utils_misc/int_macros.h</title>
<!-- Node1 -->
<g id="node1" class="node">
<title>Node1</title>
<g id="a_node1"><a xlink:title="Basic helper macros for integers.">
<polygon fill="#bfbfbf" stroke="black" points="332,-368.5 332,-387.5 464,-387.5 464,-368.5 332,-368.5"/>
<text text-anchor="middle" x="398" y="-375.5" font-family="Helvetica,sans-Serif" font-size="10.00">utils_misc/int_macros.h</text>
</a>
</g>
</g>
<!-- Node2 -->
<g id="node2" class="node">
<title>Node2</title>
<g id="a_node2"><a xlink:href="app__register__settings_8hh.html" target="_top" xlink:title="Settings for application components.">
<polygon fill="none" stroke="black" points="60.5,-0.5 60.5,-30.5 203.5,-30.5 203.5,-0.5 60.5,-0.5"/>
<text text-anchor="start" x="68.5" y="-18.5" font-family="Helvetica,sans-Serif" font-size="10.00">app_settings/app_register</text>
<text text-anchor="middle" x="132" y="-7.5" font-family="Helvetica,sans-Serif" font-size="10.00">_settings.hh</text>
</a>
</g>
</g>
<!-- Node1&#45;&gt;Node2 -->
<g id="edge1" class="edge">
<title>Node1&#45;&gt;Node2</title>
<path fill="none" stroke="midnightblue" d="M321.86,-371.87C241.57,-365.46 121.11,-352.76 80,-332 34.69,-309.12 0,-301.26 0,-250.5 0,-250.5 0,-250.5 0,-165 0,-117.96 8.69,-102.11 40,-67 54.43,-50.82 75.32,-38.77 93.55,-30.5"/>
<polygon fill="midnightblue" stroke="midnightblue" points="321.69,-375.36 331.93,-372.65 322.23,-368.38 321.69,-375.36"/>
</g>
<!-- Node3 -->
<g id="node3" class="node">
<title>Node3</title>
<g id="a_node3"><a xlink:href="app__settings_8hh.html" target="_top" xlink:title="Settings for application components.">
<polygon fill="none" stroke="black" points="253.5,-73 253.5,-92 412.5,-92 412.5,-73 253.5,-73"/>
<text text-anchor="middle" x="333" y="-80" font-family="Helvetica,sans-Serif" font-size="10.00">app_settings/app_settings.hh</text>
</a>
</g>
</g>
<!-- Node1&#45;&gt;Node3 -->
<g id="edge2" class="edge">
<title>Node1&#45;&gt;Node3</title>
<path fill="none" stroke="midnightblue" d="M377.7,-361.88C353.61,-342.53 314.71,-306.5 299,-265 274.94,-201.44 314.04,-118.68 328.2,-92.11"/>
<polygon fill="midnightblue" stroke="midnightblue" points="375.8,-364.84 385.84,-368.24 380.11,-359.32 375.8,-364.84"/>
</g>
<!-- Node4 -->
<g id="node4" class="node">
<title>Node4</title>
<g id="a_node4"><a xlink:href="comp__settings_8hh.html" target="_top" xlink:title="Settings for shared components.">
<polygon fill="none" stroke="black" points="66,-156.5 66,-175.5 224,-175.5 224,-156.5 66,-156.5"/>
<text text-anchor="middle" x="145" y="-163.5" font-family="Helvetica,sans-Serif" font-size="10.00">config_kvs/comp_settings.hh</text>
</a>
</g>
</g>
<!-- Node1&#45;&gt;Node4 -->
<g id="edge4" class="edge">
<title>Node1&#45;&gt;Node4</title>
<path fill="none" stroke="midnightblue" d="M321.51,-376.5C242.06,-374.15 125.43,-364.99 97,-332 55.72,-284.09 115.73,-202.37 137.57,-175.7"/>
<polygon fill="midnightblue" stroke="midnightblue" points="321.88,-380.01 331.97,-376.77 322.07,-373.01 321.88,-380.01"/>
</g>
<!-- Node6 -->
<g id="node6" class="node">
<title>Node6</title>
<g id="a_node6"><a xlink:href="settings_8hh.html" target="_top" xlink:title=" ">
<polygon fill="none" stroke="black" points="106.5,-307 106.5,-326 231.5,-326 231.5,-307 106.5,-307"/>
<text text-anchor="middle" x="169" y="-314" font-family="Helvetica,sans-Serif" font-size="10.00">config_kvs/settings.hh</text>
</a>
</g>
</g>
<!-- Node1&#45;&gt;Node6 -->
<g id="edge8" class="edge">
<title>Node1&#45;&gt;Node6</title>
<path fill="none" stroke="midnightblue" d="M355.26,-365.9C310.79,-354.34 242.11,-336.5 201.75,-326.01"/>
<polygon fill="midnightblue" stroke="midnightblue" points="354.63,-369.35 365.19,-368.48 356.39,-362.57 354.63,-369.35"/>
</g>
<!-- Node8 -->
<g id="node8" class="node">
<title>Node8</title>
<g id="a_node8"><a xlink:href="fer__pct_8h.html" target="_top" xlink:title="class Pct to represent shutter opening percentage">
<polygon fill="none" stroke="black" points="532.5,-307 532.5,-326 639.5,-326 639.5,-307 532.5,-307"/>
<text text-anchor="middle" x="586" y="-314" font-family="Helvetica,sans-Serif" font-size="10.00">fernotron/fer_pct.h</text>
</a>
</g>
</g>
<!-- Node1&#45;&gt;Node8 -->
<g id="edge13" class="edge">
<title>Node1&#45;&gt;Node8</title>
<path fill="none" stroke="midnightblue" d="M434.71,-365.38C471.26,-353.82 526.47,-336.34 559.11,-326.01"/>
<polygon fill="midnightblue" stroke="midnightblue" points="433.41,-362.12 424.94,-368.48 435.53,-368.79 433.41,-362.12"/>
</g>
<!-- Node18 -->
<g id="node18" class="node">
<title>Node18</title>
<g id="a_node18"><a xlink:href="gm__set_8hh.html" target="_top" xlink:title="Provide set of groups/members with iterator.">
<polygon fill="none" stroke="black" points="805,-307 805,-326 921,-326 921,-307 805,-307"/>
<text text-anchor="middle" x="863" y="-314" font-family="Helvetica,sans-Serif" font-size="10.00">fernotron/gm_set.hh</text>
</a>
</g>
</g>
<!-- Node1&#45;&gt;Node18 -->
<g id="edge25" class="edge">
<title>Node1&#45;&gt;Node18</title>
<path fill="none" stroke="midnightblue" d="M474.28,-367.24C566.94,-355.38 721.18,-335.65 804.8,-324.95"/>
<polygon fill="midnightblue" stroke="midnightblue" points="473.6,-363.8 464.13,-368.54 474.49,-370.74 473.6,-363.8"/>
</g>
<!-- Node21 -->
<g id="node21" class="node">
<title>Node21</title>
<g id="a_node21"><a xlink:href="fer__fsb_8h.html" target="_top" xlink:title="Plain raw message.">
<polygon fill="none" stroke="black" points="1322,-234.5 1322,-264.5 1440,-264.5 1440,-234.5 1322,-234.5"/>
<text text-anchor="start" x="1330" y="-252.5" font-family="Helvetica,sans-Serif" font-size="10.00">fernotron_trx/raw/fer</text>
<text text-anchor="middle" x="1381" y="-241.5" font-family="Helvetica,sans-Serif" font-size="10.00">_fsb.h</text>
</a>
</g>
</g>
<!-- Node1&#45;&gt;Node21 -->
<g id="edge28" class="edge">
<title>Node1&#45;&gt;Node21</title>
<path fill="none" stroke="midnightblue" d="M474.2,-372.82C577.7,-366.63 768.37,-353.39 930,-332 1071.39,-313.29 1235.89,-280.82 1321.82,-263.04"/>
<polygon fill="midnightblue" stroke="midnightblue" points="473.93,-369.33 464.15,-373.42 474.34,-376.32 473.93,-369.33"/>
</g>
<!-- Node27 -->
<g id="node27" class="node">
<title>Node27</title>
<g id="a_node27"><a xlink:href="fer__msg__plain_8h.html" target="_top" xlink:title="Data structure of plain messages or header of extended messages.">
<polygon fill="none" stroke="black" points="1548,-301.5 1548,-331.5 1666,-331.5 1666,-301.5 1548,-301.5"/>
<text text-anchor="start" x="1556" y="-319.5" font-family="Helvetica,sans-Serif" font-size="10.00">fernotron_trx/raw/fer</text>
<text text-anchor="middle" x="1607" y="-308.5" font-family="Helvetica,sans-Serif" font-size="10.00">_msg_plain.h</text>
</a>
</g>
</g>
<!-- Node1&#45;&gt;Node27 -->
<g id="edge34" class="edge">
<title>Node1&#45;&gt;Node27</title>
<path fill="none" stroke="midnightblue" d="M474.29,-373.25C697.73,-362.25 1347.55,-330.27 1547.65,-320.42"/>
<polygon fill="midnightblue" stroke="midnightblue" points="474.11,-369.75 464.29,-373.74 474.45,-376.74 474.11,-369.75"/>
</g>
<!-- Node3&#45;&gt;Node2 -->
<g id="edge3" class="edge">
<title>Node3&#45;&gt;Node2</title>
<path fill="none" stroke="midnightblue" d="M296.74,-69.77C262.66,-58.75 211.61,-42.24 175.38,-30.53"/>
<polygon fill="midnightblue" stroke="midnightblue" points="295.72,-73.12 306.31,-72.87 297.87,-66.46 295.72,-73.12"/>
</g>
<!-- Node4&#45;&gt;Node2 -->
<g id="edge5" class="edge">
<title>Node4&#45;&gt;Node2</title>
<path fill="none" stroke="midnightblue" d="M165.95,-150.11C189.73,-131.26 223.26,-97.55 207,-67 198.37,-50.79 181.96,-38.85 166.69,-30.66"/>
<polygon fill="midnightblue" stroke="midnightblue" points="163.58,-147.51 157.73,-156.35 167.81,-153.08 163.58,-147.51"/>
</g>
<!-- Node4&#45;&gt;Node3 -->
<g id="edge6" class="edge">
<title>Node4&#45;&gt;Node3</title>
<path fill="none" stroke="midnightblue" d="M174.42,-152.25C213.11,-135.47 280.06,-106.45 313.22,-92.08"/>
<polygon fill="midnightblue" stroke="midnightblue" points="172.55,-149.24 164.76,-156.43 175.33,-155.67 172.55,-149.24"/>
</g>
<!-- Node5 -->
<g id="node5" class="node">
<title>Node5</title>
<g id="a_node5"><a xlink:href="config__kvs_8h.html" target="_top" xlink:title="read settings from kvs storage by cb_type">
<polygon fill="none" stroke="black" points="66,-73 66,-92 198,-92 198,-73 66,-73"/>
<text text-anchor="middle" x="132" y="-80" font-family="Helvetica,sans-Serif" font-size="10.00">config_kvs/config_kvs.h</text>
</a>
</g>
</g>
<!-- Node4&#45;&gt;Node5 -->
<g id="edge7" class="edge">
<title>Node4&#45;&gt;Node5</title>
<path fill="none" stroke="midnightblue" d="M142.03,-146.36C139.32,-129.36 135.43,-104.99 133.38,-92.16"/>
<polygon fill="midnightblue" stroke="midnightblue" points="138.58,-146.95 143.61,-156.28 145.49,-145.85 138.58,-146.95"/>
</g>
<!-- Node6&#45;&gt;Node2 -->
<g id="edge9" class="edge">
<title>Node6&#45;&gt;Node2</title>
<path fill="none" stroke="midnightblue" d="M146.14,-301.18C117.95,-281.87 71.93,-244.49 57,-198 39.19,-142.57 29.65,-118.4 57,-67 65.63,-50.79 82.04,-38.85 97.31,-30.66"/>
<polygon fill="midnightblue" stroke="midnightblue" points="144.34,-304.18 154.6,-306.8 148.21,-298.35 144.34,-304.18"/>
</g>
<!-- Node7 -->
<g id="node7" class="node">
<title>Node7</title>
<g id="a_node7"><a xlink:href="settings__template_8hh_source.html" target="_top" xlink:title=" ">
<polygon fill="none" stroke="black" points="114,-234.5 114,-264.5 224,-264.5 224,-234.5 114,-234.5"/>
<text text-anchor="start" x="122" y="-252.5" font-family="Helvetica,sans-Serif" font-size="10.00">config_kvs/settings</text>
<text text-anchor="middle" x="169" y="-241.5" font-family="Helvetica,sans-Serif" font-size="10.00">_template.hh</text>
</a>
</g>
</g>
<!-- Node6&#45;&gt;Node7 -->
<g id="edge10" class="edge">
<title>Node6&#45;&gt;Node7</title>
<path fill="none" stroke="midnightblue" d="M169,-296.41C169,-286.22 169,-273.9 169,-264.59"/>
<polygon fill="midnightblue" stroke="midnightblue" points="165.5,-296.73 169,-306.73 172.5,-296.73 165.5,-296.73"/>
</g>
<!-- Node7&#45;&gt;Node3 -->
<g id="edge11" class="edge">
<title>Node7&#45;&gt;Node3</title>
<path fill="none" stroke="midnightblue" d="M198.34,-228.39C209.83,-219.76 222.71,-209.11 233,-198 256.29,-172.86 253.44,-159.79 276,-134 290.28,-117.68 309.65,-101.55 321.74,-92.06"/>
<polygon fill="midnightblue" stroke="midnightblue" points="196.27,-225.56 190.27,-234.29 200.4,-231.21 196.27,-225.56"/>
</g>
<!-- Node7&#45;&gt;Node4 -->
<g id="edge12" class="edge">
<title>Node7&#45;&gt;Node4</title>
<path fill="none" stroke="midnightblue" d="M161.86,-224.25C157.01,-207.78 150.89,-186.99 147.51,-175.54"/>
<polygon fill="midnightblue" stroke="midnightblue" points="158.64,-225.7 164.82,-234.3 165.35,-223.72 158.64,-225.7"/>
</g>
<!-- Node9 -->
<g id="node9" class="node">
<title>Node9</title>
<g id="a_node9"><a xlink:href="components_2tronferno_2app__settings_2include_2app__settings_2config_8h.html" target="_top" xlink:title="Application settings.">
<polygon fill="none" stroke="black" points="308,-240 308,-259 428,-259 428,-240 308,-240"/>
<text text-anchor="middle" x="368" y="-247" font-family="Helvetica,sans-Serif" font-size="10.00">app_settings/config.h</text>
</a>
</g>
</g>
<!-- Node8&#45;&gt;Node9 -->
<g id="edge14" class="edge">
<title>Node8&#45;&gt;Node9</title>
<path fill="none" stroke="midnightblue" d="M547.46,-304.01C504.32,-291.15 435.39,-270.59 396.72,-259.06"/>
<polygon fill="midnightblue" stroke="midnightblue" points="546.47,-307.37 557.05,-306.87 548.47,-300.66 546.47,-307.37"/>
</g>
<!-- Node10 -->
<g id="node10" class="node">
<title>Node10</title>
<g id="a_node10"><a xlink:href="pairings_8h.html" target="_top" xlink:title="Map Fernotron controller 3&#45;byte&#45;addresses to an a/g/m addresses.">
<polygon fill="none" stroke="black" points="446.5,-240 446.5,-259 585.5,-259 585.5,-240 446.5,-240"/>
<text text-anchor="middle" x="516" y="-247" font-family="Helvetica,sans-Serif" font-size="10.00">fernotron/alias/pairings.h</text>
</a>
</g>
</g>
<!-- Node8&#45;&gt;Node10 -->
<g id="edge16" class="edge">
<title>Node8&#45;&gt;Node10</title>
<path fill="none" stroke="midnightblue" d="M569.15,-299.86C555.39,-287.08 536.45,-269.49 525.29,-259.13"/>
<polygon fill="midnightblue" stroke="midnightblue" points="566.85,-302.49 576.56,-306.73 571.61,-297.36 566.85,-302.49"/>
</g>
<!-- Node11 -->
<g id="node11" class="node">
<title>Node11</title>
<g id="a_node11"><a xlink:href="fau__tminutes_8h.html" target="_top" xlink:title="Represent when each kind of timer will be scheduled for a given day and g/m. Calculate the next event...">
<polygon fill="none" stroke="black" points="603.5,-234.5 603.5,-264.5 708.5,-264.5 708.5,-234.5 603.5,-234.5"/>
<text text-anchor="start" x="611.5" y="-252.5" font-family="Helvetica,sans-Serif" font-size="10.00">fernotron/auto/fau</text>
<text text-anchor="middle" x="656" y="-241.5" font-family="Helvetica,sans-Serif" font-size="10.00">_tminutes.h</text>
</a>
</g>
</g>
<!-- Node8&#45;&gt;Node11 -->
<g id="edge17" class="edge">
<title>Node8&#45;&gt;Node11</title>
<path fill="none" stroke="midnightblue" d="M602.77,-299.93C614.35,-289.18 629.61,-275 640.83,-264.59"/>
<polygon fill="midnightblue" stroke="midnightblue" points="600.39,-297.36 595.44,-306.73 605.15,-302.49 600.39,-297.36"/>
</g>
<!-- Node14 -->
<g id="node14" class="node">
<title>Node14</title>
<g id="a_node14"><a xlink:href="positions__dynamic_8h.html" target="_top" xlink:title="Keep track of positions for a currently moving shutter.">
<polygon fill="none" stroke="black" points="726.5,-234.5 726.5,-264.5 855.5,-264.5 855.5,-234.5 726.5,-234.5"/>
<text text-anchor="start" x="734.5" y="-252.5" font-family="Helvetica,sans-Serif" font-size="10.00">fernotron/pos/positions</text>
<text text-anchor="middle" x="791" y="-241.5" font-family="Helvetica,sans-Serif" font-size="10.00">_dynamic.h</text>
</a>
</g>
</g>
<!-- Node8&#45;&gt;Node14 -->
<g id="edge20" class="edge">
<title>Node8&#45;&gt;Node14</title>
<path fill="none" stroke="midnightblue" d="M622.98,-303.77C657.74,-292.75 709.81,-276.24 746.76,-264.53"/>
<polygon fill="midnightblue" stroke="midnightblue" points="621.7,-300.51 613.22,-306.87 623.81,-307.18 621.7,-300.51"/>
</g>
<!-- Node17 -->
<g id="node17" class="node">
<title>Node17</title>
<g id="a_node17"><a xlink:href="positions__static_8h.html" target="_top" xlink:title="Store and retrieve shutter positions (persistently)">
<polygon fill="none" stroke="black" points="873.5,-234.5 873.5,-264.5 1002.5,-264.5 1002.5,-234.5 873.5,-234.5"/>
<text text-anchor="start" x="881.5" y="-252.5" font-family="Helvetica,sans-Serif" font-size="10.00">fernotron/pos/positions</text>
<text text-anchor="middle" x="938" y="-241.5" font-family="Helvetica,sans-Serif" font-size="10.00">_static.h</text>
</a>
</g>
</g>
<!-- Node8&#45;&gt;Node17 -->
<g id="edge23" class="edge">
<title>Node8&#45;&gt;Node17</title>
<path fill="none" stroke="midnightblue" d="M644.61,-305.19C701.1,-295.18 788.97,-279.43 865,-265 867.67,-264.49 870.39,-263.97 873.13,-263.44"/>
<polygon fill="midnightblue" stroke="midnightblue" points="643.67,-301.8 634.43,-306.99 644.89,-308.7 643.67,-301.8"/>
</g>
<!-- Node9&#45;&gt;Node3 -->
<g id="edge15" class="edge">
<title>Node9&#45;&gt;Node3</title>
<path fill="none" stroke="midnightblue" d="M363.98,-229.54C356.39,-193.75 340.22,-117.53 334.81,-92.02"/>
<polygon fill="midnightblue" stroke="midnightblue" points="360.62,-230.57 366.12,-239.63 367.47,-229.12 360.62,-230.57"/>
</g>
<!-- Node12 -->
<g id="node12" class="node">
<title>Node12</title>
<g id="a_node12"><a xlink:href="fau__tevent_8hh_source.html" target="_top" xlink:title=" ">
<polygon fill="none" stroke="black" points="603.5,-151 603.5,-181 708.5,-181 708.5,-151 603.5,-151"/>
<text text-anchor="start" x="611.5" y="-169" font-family="Helvetica,sans-Serif" font-size="10.00">fernotron/auto/fau</text>
<text text-anchor="middle" x="656" y="-158" font-family="Helvetica,sans-Serif" font-size="10.00">_tevent.hh</text>
</a>
</g>
</g>
<!-- Node11&#45;&gt;Node12 -->
<g id="edge18" class="edge">
<title>Node11&#45;&gt;Node12</title>
<path fill="none" stroke="midnightblue" d="M656,-224.28C656,-210.18 656,-192.9 656,-181.03"/>
<polygon fill="midnightblue" stroke="midnightblue" points="652.5,-224.3 656,-234.3 659.5,-224.3 652.5,-224.3"/>
</g>
<!-- Node13 -->
<g id="node13" class="node">
<title>Node13</title>
<g id="a_node13"><a xlink:href="fau__next__event_8hh_source.html" target="_top" xlink:title=" ">
<polygon fill="none" stroke="black" points="603.5,-67.5 603.5,-97.5 708.5,-97.5 708.5,-67.5 603.5,-67.5"/>
<text text-anchor="start" x="611.5" y="-85.5" font-family="Helvetica,sans-Serif" font-size="10.00">fernotron/auto/fau</text>
<text text-anchor="middle" x="656" y="-74.5" font-family="Helvetica,sans-Serif" font-size="10.00">_next_event.hh</text>
</a>
</g>
</g>
<!-- Node12&#45;&gt;Node13 -->
<g id="edge19" class="edge">
<title>Node12&#45;&gt;Node13</title>
<path fill="none" stroke="midnightblue" d="M656,-140.78C656,-126.68 656,-109.4 656,-97.53"/>
<polygon fill="midnightblue" stroke="midnightblue" points="652.5,-140.8 656,-150.8 659.5,-140.8 652.5,-140.8"/>
</g>
<!-- Node15 -->
<g id="node15" class="node">
<title>Node15</title>
<g id="a_node15"><a xlink:href="shutter__pct_8h.html" target="_top" xlink:title="include positions_static.h and positions_dynamic.h">
<polygon fill="none" stroke="black" points="731.5,-151 731.5,-181 850.5,-181 850.5,-151 731.5,-151"/>
<text text-anchor="start" x="739.5" y="-169" font-family="Helvetica,sans-Serif" font-size="10.00">fernotron/pos/shutter</text>
<text text-anchor="middle" x="791" y="-158" font-family="Helvetica,sans-Serif" font-size="10.00">_pct.h</text>
</a>
</g>
</g>
<!-- Node14&#45;&gt;Node15 -->
<g id="edge21" class="edge">
<title>Node14&#45;&gt;Node15</title>
<path fill="none" stroke="midnightblue" d="M791,-224.28C791,-210.18 791,-192.9 791,-181.03"/>
<polygon fill="midnightblue" stroke="midnightblue" points="787.5,-224.3 791,-234.3 794.5,-224.3 787.5,-224.3"/>
</g>
<!-- Node16 -->
<g id="node16" class="node">
<title>Node16</title>
<g id="a_node16"><a xlink:href="commands_8h.html" target="_top" xlink:title="commands to move or stop a shutter with position support">
<polygon fill="none" stroke="black" points="1416,-73 1416,-92 1564,-92 1564,-73 1416,-73"/>
<text text-anchor="middle" x="1490" y="-80" font-family="Helvetica,sans-Serif" font-size="10.00">fernotron/pos/commands.h</text>
</a>
</g>
</g>
<!-- Node15&#45;&gt;Node16 -->
<g id="edge22" class="edge">
<title>Node15&#45;&gt;Node16</title>
<path fill="none" stroke="midnightblue" d="M826.12,-146.44C836.74,-141.6 848.61,-136.92 860,-134 963.23,-107.52 1272.53,-92.15 1415.74,-86.27"/>
<polygon fill="midnightblue" stroke="midnightblue" points="824.3,-143.43 816.77,-150.88 827.31,-149.75 824.3,-143.43"/>
</g>
<!-- Node17&#45;&gt;Node15 -->
<g id="edge24" class="edge">
<title>Node17&#45;&gt;Node15</title>
<path fill="none" stroke="midnightblue" d="M903.73,-229.5C877.04,-214.7 840.57,-194.48 816.43,-181.1"/>
<polygon fill="midnightblue" stroke="midnightblue" points="902.29,-232.7 912.73,-234.49 905.68,-226.58 902.29,-232.7"/>
</g>
<!-- Node19 -->
<g id="node19" class="node">
<title>Node19</title>
<g id="a_node19"><a xlink:href="fer__main_8h.html" target="_top" xlink:title="Component settings.">
<polygon fill="none" stroke="black" points="1020.5,-240 1020.5,-259 1137.5,-259 1137.5,-240 1020.5,-240"/>
<text text-anchor="middle" x="1079" y="-247" font-family="Helvetica,sans-Serif" font-size="10.00">fernotron/fer_main.h</text>
</a>
</g>
</g>
<!-- Node18&#45;&gt;Node19 -->
<g id="edge26" class="edge">
<title>Node18&#45;&gt;Node19</title>
<path fill="none" stroke="midnightblue" d="M901.45,-303.93C944.22,-291.06 1012.31,-270.57 1050.54,-259.06"/>
<polygon fill="midnightblue" stroke="midnightblue" points="900.25,-300.64 891.68,-306.87 902.27,-307.34 900.25,-300.64"/>
</g>
<!-- Node20 -->
<g id="node20" class="node">
<title>Node20</title>
<g id="a_node20"><a xlink:href="cli__to__json_8hh_source.html" target="_top" xlink:title=" ">
<polygon fill="none" stroke="black" points="868.5,-156.5 868.5,-175.5 989.5,-175.5 989.5,-156.5 868.5,-156.5"/>
<text text-anchor="middle" x="929" y="-163.5" font-family="Helvetica,sans-Serif" font-size="10.00">app_cli/cli_to_json.hh</text>
</a>
</g>
</g>
<!-- Node19&#45;&gt;Node20 -->
<g id="edge27" class="edge">
<title>Node19&#45;&gt;Node20</title>
<path fill="none" stroke="midnightblue" d="M1054.36,-235.11C1023.42,-218.3 971.21,-189.93 945.01,-175.7"/>
<polygon fill="midnightblue" stroke="midnightblue" points="1052.77,-238.23 1063.23,-239.93 1056.12,-232.08 1052.77,-238.23"/>
</g>
<!-- Node22 -->
<g id="node22" class="node">
<title>Node22</title>
<g id="a_node22"><a xlink:href="fer__msg__tx_8h.html" target="_top" xlink:title="Send raw messages.">
<polygon fill="none" stroke="black" points="1008,-151 1008,-181 1126,-181 1126,-151 1008,-151"/>
<text text-anchor="start" x="1016" y="-169" font-family="Helvetica,sans-Serif" font-size="10.00">fernotron_trx/raw/fer</text>
<text text-anchor="middle" x="1067" y="-158" font-family="Helvetica,sans-Serif" font-size="10.00">_msg_tx.h</text>
</a>
</g>
</g>
<!-- Node21&#45;&gt;Node22 -->
<g id="edge29" class="edge">
<title>Node21&#45;&gt;Node22</title>
<path fill="none" stroke="midnightblue" d="M1311.84,-238.58C1261.94,-230.4 1193.36,-217.02 1135,-198 1121.18,-193.5 1106.44,-187 1094.23,-181.12"/>
<polygon fill="midnightblue" stroke="midnightblue" points="1311.45,-242.06 1321.88,-240.2 1312.57,-235.15 1311.45,-242.06"/>
</g>
<!-- Node23 -->
<g id="node23" class="node">
<title>Node23</title>
<g id="a_node23"><a xlink:href="fer__rawmsg__build_8h.html" target="_top" xlink:title="builder functions to construct (extended) raw messages">
<polygon fill="none" stroke="black" points="1472,-151 1472,-181 1590,-181 1590,-151 1472,-151"/>
<text text-anchor="start" x="1480" y="-169" font-family="Helvetica,sans-Serif" font-size="10.00">fernotron_trx/raw/fer</text>
<text text-anchor="middle" x="1531" y="-158" font-family="Helvetica,sans-Serif" font-size="10.00">_rawmsg_build.h</text>
</a>
</g>
</g>
<!-- Node21&#45;&gt;Node23 -->
<g id="edge30" class="edge">
<title>Node21&#45;&gt;Node23</title>
<path fill="none" stroke="midnightblue" d="M1415.61,-229.69C1442.88,-214.88 1480.31,-194.54 1505.05,-181.1"/>
<polygon fill="midnightblue" stroke="midnightblue" points="1413.9,-226.64 1406.79,-234.49 1417.24,-232.79 1413.9,-226.64"/>
</g>
<!-- Node24 -->
<g id="node24" class="node">
<title>Node24</title>
<g id="a_node24"><a xlink:href="fer__api_8h_source.html" target="_top" xlink:title=" ">
<polygon fill="none" stroke="black" points="1308,-134.5 1308,-197.5 1454,-197.5 1454,-134.5 1308,-134.5"/>
<text text-anchor="start" x="1316" y="-185.5" font-family="Helvetica,sans-Serif" font-size="10.00">/home/bertw/proj/mcu</text>
<text text-anchor="start" x="1316" y="-174.5" font-family="Helvetica,sans-Serif" font-size="10.00">/tronferno&#45;mcu/external</text>
<text text-anchor="start" x="1316" y="-163.5" font-family="Helvetica,sans-Serif" font-size="10.00">/tronferno&#45;lib/components</text>
<text text-anchor="start" x="1316" y="-152.5" font-family="Helvetica,sans-Serif" font-size="10.00">/fernotron_trx/priv_include</text>
<text text-anchor="middle" x="1381" y="-141.5" font-family="Helvetica,sans-Serif" font-size="10.00">/fer_api.h</text>
</a>
</g>
</g>
<!-- Node21&#45;&gt;Node24 -->
<g id="edge31" class="edge">
<title>Node21&#45;&gt;Node24</title>
<path fill="none" stroke="midnightblue" d="M1381,-224.12C1381,-215.78 1381,-206.34 1381,-197.57"/>
<polygon fill="midnightblue" stroke="midnightblue" points="1377.5,-224.3 1381,-234.3 1384.5,-224.3 1377.5,-224.3"/>
</g>
<!-- Node25 -->
<g id="node25" class="node">
<title>Node25</title>
<g id="a_node25"><a xlink:href="fer__msg__tx__queue_8h_source.html" target="_top" xlink:title=" ">
<polygon fill="none" stroke="black" points="1144,-134.5 1144,-197.5 1290,-197.5 1290,-134.5 1144,-134.5"/>
<text text-anchor="start" x="1152" y="-185.5" font-family="Helvetica,sans-Serif" font-size="10.00">/home/bertw/proj/mcu</text>
<text text-anchor="start" x="1152" y="-174.5" font-family="Helvetica,sans-Serif" font-size="10.00">/tronferno&#45;mcu/external</text>
<text text-anchor="start" x="1152" y="-163.5" font-family="Helvetica,sans-Serif" font-size="10.00">/tronferno&#45;lib/components</text>
<text text-anchor="start" x="1152" y="-152.5" font-family="Helvetica,sans-Serif" font-size="10.00">/fernotron_trx/priv_include</text>
<text text-anchor="middle" x="1217" y="-141.5" font-family="Helvetica,sans-Serif" font-size="10.00">/fer_msg_tx_queue.h</text>
</a>
</g>
</g>
<!-- Node21&#45;&gt;Node25 -->
<g id="edge32" class="edge">
<title>Node21&#45;&gt;Node25</title>
<path fill="none" stroke="midnightblue" d="M1343.75,-229.99C1324.45,-220.4 1300.4,-208.44 1278.44,-197.53"/>
<polygon fill="midnightblue" stroke="midnightblue" points="1342.29,-233.17 1352.81,-234.49 1345.41,-226.91 1342.29,-233.17"/>
</g>
<!-- Node26 -->
<g id="node26" class="node">
<title>Node26</title>
<g id="a_node26"><a xlink:href="fer__trx__incoming__event_8hh_source.html" target="_top" xlink:title=" ">
<polygon fill="none" stroke="black" points="1608,-134.5 1608,-197.5 1758,-197.5 1758,-134.5 1608,-134.5"/>
<text text-anchor="start" x="1616" y="-185.5" font-family="Helvetica,sans-Serif" font-size="10.00">/home/bertw/proj/mcu</text>
<text text-anchor="start" x="1616" y="-174.5" font-family="Helvetica,sans-Serif" font-size="10.00">/tronferno&#45;mcu/external</text>
<text text-anchor="start" x="1616" y="-163.5" font-family="Helvetica,sans-Serif" font-size="10.00">/tronferno&#45;lib/components</text>
<text text-anchor="start" x="1616" y="-152.5" font-family="Helvetica,sans-Serif" font-size="10.00">/fernotron_trx/priv_include</text>
<text text-anchor="middle" x="1683" y="-141.5" font-family="Helvetica,sans-Serif" font-size="10.00">/fer_trx_incoming_event.hh</text>
</a>
</g>
</g>
<!-- Node21&#45;&gt;Node26 -->
<g id="edge33" class="edge">
<title>Node21&#45;&gt;Node26</title>
<path fill="none" stroke="midnightblue" d="M1450.11,-234.82C1493.27,-225.7 1549.79,-212.72 1599,-198 1601.83,-197.15 1604.7,-196.26 1607.6,-195.34"/>
<polygon fill="midnightblue" stroke="midnightblue" points="1449.35,-231.4 1440.28,-236.88 1450.79,-238.25 1449.35,-231.4"/>
</g>
<!-- Node27&#45;&gt;Node16 -->
<g id="edge35" class="edge">
<title>Node27&#45;&gt;Node16</title>
<path fill="none" stroke="midnightblue" d="M1676.14,-314.97C1853.93,-311.44 2303.38,-287.5 2161,-134 2121.08,-90.96 1730.19,-84.37 1564.08,-83.53"/>
<polygon fill="midnightblue" stroke="midnightblue" points="1676.04,-311.47 1666.1,-315.16 1676.16,-318.47 1676.04,-311.47"/>
</g>
<!-- Node27&#45;&gt;Node21 -->
<g id="edge36" class="edge">
<title>Node27&#45;&gt;Node21</title>
<path fill="none" stroke="midnightblue" d="M1548.17,-298.58C1511.46,-288.02 1464.77,-274.59 1430.06,-264.61"/>
<polygon fill="midnightblue" stroke="midnightblue" points="1547.66,-302.08 1558.24,-301.48 1549.6,-295.35 1547.66,-302.08"/>
</g>
<!-- Node27&#45;&gt;Node24 -->
<g id="edge45" class="edge">
<title>Node27&#45;&gt;Node24</title>
<path fill="none" stroke="midnightblue" d="M1576.7,-295.59C1538.46,-270.46 1472.29,-226.99 1427.6,-197.62"/>
<polygon fill="midnightblue" stroke="midnightblue" points="1575.05,-298.69 1585.33,-301.26 1578.89,-292.84 1575.05,-298.69"/>
</g>
<!-- Node28 -->
<g id="node28" class="node">
<title>Node28</title>
<g id="a_node28"><a xlink:href="fer__msg__attachment_8h.html" target="_top" xlink:title="Extended messages.">
<polygon fill="none" stroke="black" points="1624,-234.5 1624,-264.5 1742,-264.5 1742,-234.5 1624,-234.5"/>
<text text-anchor="start" x="1632" y="-252.5" font-family="Helvetica,sans-Serif" font-size="10.00">fernotron_trx/raw/fer</text>
<text text-anchor="middle" x="1683" y="-241.5" font-family="Helvetica,sans-Serif" font-size="10.00">_msg_attachment.h</text>
</a>
</g>
</g>
<!-- Node27&#45;&gt;Node28 -->
<g id="edge37" class="edge">
<title>Node27&#45;&gt;Node28</title>
<path fill="none" stroke="midnightblue" d="M1631.11,-294.88C1642.66,-285.01 1656.19,-273.43 1666.54,-264.58"/>
<polygon fill="midnightblue" stroke="midnightblue" points="1628.82,-292.24 1623.49,-301.4 1633.37,-297.56 1628.82,-292.24"/>
</g>
<!-- Node32 -->
<g id="node32" class="node">
<title>Node32</title>
<g id="a_node32"><a xlink:href="repeater_8h_source.html" target="_top" xlink:title=" ">
<polygon fill="none" stroke="black" points="2208.5,-234.5 2208.5,-264.5 2333.5,-264.5 2333.5,-234.5 2208.5,-234.5"/>
<text text-anchor="start" x="2216.5" y="-252.5" font-family="Helvetica,sans-Serif" font-size="10.00">fernotron_trx/repeater</text>
<text text-anchor="middle" x="2271" y="-241.5" font-family="Helvetica,sans-Serif" font-size="10.00">/repeater.h</text>
</a>
</g>
</g>
<!-- Node27&#45;&gt;Node32 -->
<g id="edge44" class="edge">
<title>Node27&#45;&gt;Node32</title>
<path fill="none" stroke="midnightblue" d="M1676.69,-311.77C1786.88,-305.37 2007.96,-290.45 2194,-265 2198.72,-264.35 2203.58,-263.61 2208.47,-262.82"/>
<polygon fill="midnightblue" stroke="midnightblue" points="1676.16,-308.3 1666.37,-312.37 1676.56,-315.29 1676.16,-308.3"/>
</g>
<!-- Node28&#45;&gt;Node23 -->
<g id="edge41" class="edge">
<title>Node28&#45;&gt;Node23</title>
<path fill="none" stroke="midnightblue" d="M1647.93,-229.69C1620.29,-214.88 1582.37,-194.54 1557.3,-181.1"/>
<polygon fill="midnightblue" stroke="midnightblue" points="1646.4,-232.85 1656.87,-234.49 1649.71,-226.68 1646.4,-232.85"/>
</g>
<!-- Node28&#45;&gt;Node24 -->
<g id="edge42" class="edge">
<title>Node28&#45;&gt;Node24</title>
<path fill="none" stroke="midnightblue" d="M1613.66,-235.1C1570.03,-226.06 1512.77,-213.04 1463,-198 1460.09,-197.12 1457.13,-196.19 1454.15,-195.22"/>
<polygon fill="midnightblue" stroke="midnightblue" points="1613.1,-238.56 1623.6,-237.15 1614.51,-231.71 1613.1,-238.56"/>
</g>
<!-- Node28&#45;&gt;Node26 -->
<g id="edge43" class="edge">
<title>Node28&#45;&gt;Node26</title>
<path fill="none" stroke="midnightblue" d="M1683,-224.12C1683,-215.78 1683,-206.34 1683,-197.57"/>
<polygon fill="midnightblue" stroke="midnightblue" points="1679.5,-224.3 1683,-234.3 1686.5,-224.3 1679.5,-224.3"/>
</g>
<!-- Node29 -->
<g id="node29" class="node">
<title>Node29</title>
<g id="a_node29"><a xlink:href="fer__print_8h.html" target="_top" xlink:title="Print raw message as formatted text to standard output (for debug purposes).">
<polygon fill="none" stroke="black" points="1776,-151 1776,-181 1880,-181 1880,-151 1776,-151"/>
<text text-anchor="start" x="1784" y="-169" font-family="Helvetica,sans-Serif" font-size="10.00">fernotron/txtio/fer</text>
<text text-anchor="middle" x="1828" y="-158" font-family="Helvetica,sans-Serif" font-size="10.00">_print.h</text>
</a>
</g>
</g>
<!-- Node28&#45;&gt;Node29 -->
<g id="edge38" class="edge">
<title>Node28&#45;&gt;Node29</title>
<path fill="none" stroke="midnightblue" d="M1716.8,-229.5C1743.14,-214.7 1779.1,-194.48 1802.91,-181.1"/>
<polygon fill="midnightblue" stroke="midnightblue" points="1714.93,-226.54 1707.93,-234.49 1718.36,-232.64 1714.93,-226.54"/>
</g>
<!-- Node30 -->
<g id="node30" class="node">
<title>Node30</title>
<g id="a_node30"><a xlink:href="fer__radio__trx_8h.html" target="_top" xlink:title="RF transceiver.">
<polygon fill="none" stroke="black" points="1898,-151 1898,-181 2016,-181 2016,-151 1898,-151"/>
<text text-anchor="start" x="1906" y="-169" font-family="Helvetica,sans-Serif" font-size="10.00">fernotron_trx/raw/fer</text>
<text text-anchor="middle" x="1957" y="-158" font-family="Helvetica,sans-Serif" font-size="10.00">_radio_trx.h</text>
</a>
</g>
</g>
<!-- Node28&#45;&gt;Node30 -->
<g id="edge39" class="edge">
<title>Node28&#45;&gt;Node30</title>
<path fill="none" stroke="midnightblue" d="M1752.04,-234.96C1792.49,-226.2 1844.26,-213.53 1889,-198 1902.61,-193.28 1917.2,-186.82 1929.36,-181.02"/>
<polygon fill="midnightblue" stroke="midnightblue" points="1751.05,-231.59 1742.01,-237.11 1752.52,-238.44 1751.05,-231.59"/>
</g>
<!-- Node31 -->
<g id="node31" class="node">
<title>Node31</title>
<g id="a_node31"><a xlink:href="fer__rawmsg__buffer_8h.html" target="_top" xlink:title="Global static buffers for raw messages.">
<polygon fill="none" stroke="black" points="2034,-151 2034,-181 2152,-181 2152,-151 2034,-151"/>
<text text-anchor="start" x="2042" y="-169" font-family="Helvetica,sans-Serif" font-size="10.00">fernotron_trx/raw/fer</text>
<text text-anchor="middle" x="2093" y="-158" font-family="Helvetica,sans-Serif" font-size="10.00">_rawmsg_buffer.h</text>
</a>
</g>
</g>
<!-- Node28&#45;&gt;Node31 -->
<g id="edge40" class="edge">
<title>Node28&#45;&gt;Node31</title>
<path fill="none" stroke="midnightblue" d="M1752.19,-244.01C1822.16,-238.15 1932.83,-225.22 2025,-198 2039.31,-193.77 2054.49,-187.09 2066.86,-181.01"/>
<polygon fill="midnightblue" stroke="midnightblue" points="1751.86,-240.53 1742.17,-244.82 1752.42,-247.5 1751.86,-240.53"/>
</g>
</g>
</svg>
        <g id="navigator" transform="translate(0 0)" fill="#404254">
                <rect fill="#f2f5e9" fill-opacity="0.5" stroke="#606060" stroke-width=".5" x="0" y="0" width="60" height="60"/>
                <use id="zoomplus" xlink:href="#zoomPlus" x="17" y="9" onmousedown="handleZoom(evt,'in')"/>
                <use id="zoomminus" xlink:href="#zoomMin" x="42" y="9" onmousedown="handleZoom(evt,'out')"/>
                <use id="reset" xlink:href="#resetDef" x="30" y="36" onmousedown="handleReset()"/>
                <g id="arrowUp" xlink:href="#dirArrow" transform="translate(30 24)" onmousedown="handlePan(0,-1)">
                  <use xlink:href="#rim" fill="#404040">
                        <set attributeName="fill" to="#808080" begin="arrowUp.mouseover" end="arrowUp.mouseout"/>
                  </use>
                  <path fill="none" stroke="white" stroke-width="1.5" d="M0,-3.0v7 M-2.5,-0.5L0,-3.0L2.5,-0.5"/>
                </g>
                <g id="arrowRight" xlink:href="#dirArrow" transform="rotate(90) translate(36 -43)" onmousedown="handlePan(1,0)">
                  <use xlink:href="#rim" fill="#404040">
                        <set attributeName="fill" to="#808080" begin="arrowRight.mouseover" end="arrowRight.mouseout"/>
                  </use>
                  <path fill="none" stroke="white" stroke-width="1.5" d="M0,-3.0v7 M-2.5,-0.5L0,-3.0L2.5,-0.5"/>
                </g>
                <g id="arrowDown" xlink:href="#dirArrow" transform="rotate(180) translate(-30 -48)" onmousedown="handlePan(0,1)">
                  <use xlink:href="#rim" fill="#404040">
                        <set attributeName="fill" to="#808080" begin="arrowDown.mouseover" end="arrowDown.mouseout"/>
                  </use>
                  <path fill="none" stroke="white" stroke-width="1.5" d="M0,-3.0v7 M-2.5,-0.5L0,-3.0L2.5,-0.5"/>
                </g>
                <g id="arrowLeft" xlink:href="#dirArrow" transform="rotate(270) translate(-36 17)" onmousedown="handlePan(-1,0)">
                  <use xlink:href="#rim" fill="#404040">
                        <set attributeName="fill" to="#808080" begin="arrowLeft.mouseover" end="arrowLeft.mouseout"/>
                  </use>
                  <path fill="none" stroke="white" stroke-width="1.5" d="M0,-3.0v7 M-2.5,-0.5L0,-3.0L2.5,-0.5"/>
                </g>
        </g>
        <svg viewBox="0 0 15 15" width="100%" height="30px" preserveAspectRatio="xMaxYMin meet">
         <g id="arrow_out" transform="scale(0.3 0.3)">
          <a xlink:href="int__macros_8h__dep__incl_org.svg" target="_base">
           <rect id="button" ry="5" rx="5" y="6" x="6" height="38" width="38"
                fill="#f2f5e9" fill-opacity="0.5" stroke="#606060" stroke-width="1.0"/>
           <path id="arrow"
             d="M 11.500037,31.436501 C 11.940474,20.09759 22.043105,11.32322 32.158766,21.979434 L 37.068811,17.246167 C 37.068811,17.246167 37.088388,32 37.088388,32 L 22.160133,31.978069 C 22.160133,31.978069 26.997745,27.140456 26.997745,27.140456 C 18.528582,18.264221 13.291696,25.230495 11.500037,31.436501 z"
             style="fill:#404040;"/>
          </a>
         </g>
        </svg>
</svg>
