<?xml version="1.0" encoding="UTF-8" standalone="no"?>
<!DOCTYPE svg PUBLIC "-//W3C//DTD SVG 1.1//EN"
 "http://www.w3.org/Graphics/SVG/1.1/DTD/svg11.dtd">
<!-- Generated by graphviz version 2.43.0 (0)
 -->
<!-- Title: /home/bertw/proj/mcu/tronferno&#45;mcu/external/mbed&#45;net&#45;lib/components/net/include/net/ipnet.h Pages: 1 -->
<svg width="154pt" height="117pt"
 viewBox="0.00 0.00 154.00 117.00" xmlns="http://www.w3.org/2000/svg" xmlns:xlink="http://www.w3.org/1999/xlink">
<g id="graph0" class="graph" transform="scale(1 1) rotate(0) translate(4 113)">
<title>/home/bertw/proj/mcu/tronferno&#45;mcu/external/mbed&#45;net&#45;lib/components/net/include/net/ipnet.h</title>
<!-- Node1 -->
<g id="node1" class="node">
<title>Node1</title>
<g id="a_node1"><a xlink:title="Getting some info about our IP connection.">
<polygon fill="#bfbfbf" stroke="black" points="0,-56.5 0,-108.5 146,-108.5 146,-56.5 0,-56.5"/>
<text text-anchor="start" x="8" y="-96.5" font-family="Helvetica,sans-Serif" font-size="10.00">/home/bertw/proj/mcu</text>
<text text-anchor="start" x="8" y="-85.5" font-family="Helvetica,sans-Serif" font-size="10.00">/tronferno&#45;mcu/external</text>
<text text-anchor="start" x="8" y="-74.5" font-family="Helvetica,sans-Serif" font-size="10.00">/mbed&#45;net&#45;lib/components</text>
<text text-anchor="middle" x="73" y="-63.5" font-family="Helvetica,sans-Serif" font-size="10.00">/net/include/net/ipnet.h</text>
</a>
</g>
</g>
<!-- Node2 -->
<g id="node2" class="node">
<title>Node2</title>
<g id="a_node2"><a xlink:title=" ">
<polygon fill="none" stroke="#bfbfbf" points="4,-0.5 4,-19.5 66,-19.5 66,-0.5 4,-0.5"/>
<text text-anchor="middle" x="35" y="-7.5" font-family="Helvetica,sans-Serif" font-size="10.00">stdbool.h</text>
</a>
</g>
</g>
<!-- Node1&#45;&gt;Node2 -->
<g id="edge1" class="edge">
<title>Node1&#45;&gt;Node2</title>
<path fill="none" stroke="midnightblue" d="M59.5,-56.45C54.53,-47.23 49.01,-37 44.47,-28.58"/>
<polygon fill="midnightblue" stroke="midnightblue" points="47.51,-26.84 39.69,-19.7 41.35,-30.16 47.51,-26.84"/>
</g>
<!-- Node3 -->
<g id="node3" class="node">
<title>Node3</title>
<g id="a_node3"><a xlink:title=" ">
<polygon fill="none" stroke="#bfbfbf" points="84.5,-0.5 84.5,-19.5 137.5,-19.5 137.5,-0.5 84.5,-0.5"/>
<text text-anchor="middle" x="111" y="-7.5" font-family="Helvetica,sans-Serif" font-size="10.00">stdint.h</text>
</a>
</g>
</g>
<!-- Node1&#45;&gt;Node3 -->
<g id="edge2" class="edge">
<title>Node1&#45;&gt;Node3</title>
<path fill="none" stroke="midnightblue" d="M86.5,-56.45C91.47,-47.23 96.99,-37 101.53,-28.58"/>
<polygon fill="midnightblue" stroke="midnightblue" points="104.65,-30.16 106.31,-19.7 98.49,-26.84 104.65,-30.16"/>
</g>
</g>
</svg>
