<?xml version="1.0" encoding="UTF-8" standalone="no"?>
<!DOCTYPE svg PUBLIC "-//W3C//DTD SVG 1.1//EN"
 "http://www.w3.org/Graphics/SVG/1.1/DTD/svg11.dtd">
<!-- Generated by graphviz version 2.43.0 (0)
 -->
<!-- Title: jsmn/jsmn_iterate.hh Pages: 1 -->
<svg width="128pt" height="140pt"
 viewBox="0.00 0.00 128.00 140.00" xmlns="http://www.w3.org/2000/svg" xmlns:xlink="http://www.w3.org/1999/xlink">
<g id="graph0" class="graph" transform="scale(1 1) rotate(0) translate(4 136)">
<title>jsmn/jsmn_iterate.hh</title>
<!-- Node1 -->
<g id="node1" class="node">
<title>Node1</title>
<g id="a_node1"><a xlink:title="deprecated header for backward compatibility">
<polygon fill="#bfbfbf" stroke="black" points="0,-112.5 0,-131.5 120,-131.5 120,-112.5 0,-112.5"/>
<text text-anchor="middle" x="60" y="-119.5" font-family="Helvetica,sans-Serif" font-size="10.00">jsmn/jsmn_iterate.hh</text>
</a>
</g>
</g>
<!-- Node2 -->
<g id="node2" class="node">
<title>Node2</title>
<g id="a_node2"><a xlink:href="cli_8h.html" target="_top" xlink:title="cli framework">
<polygon fill="none" stroke="black" points="34.5,-56.5 34.5,-75.5 85.5,-75.5 85.5,-56.5 34.5,-56.5"/>
<text text-anchor="middle" x="60" y="-63.5" font-family="Helvetica,sans-Serif" font-size="10.00">cli/cli.h</text>
</a>
</g>
</g>
<!-- Node1&#45;&gt;Node2 -->
<g id="edge1" class="edge">
<title>Node1&#45;&gt;Node2</title>
<path fill="none" stroke="midnightblue" d="M60,-101.8C60,-92.91 60,-82.78 60,-75.75"/>
<polygon fill="midnightblue" stroke="midnightblue" points="56.5,-102.08 60,-112.08 63.5,-102.08 56.5,-102.08"/>
</g>
<!-- Node3 -->
<g id="node3" class="node">
<title>Node3</title>
<g id="a_node3"><a xlink:href="cli__app_8hh_source.html" target="_top" xlink:title=" ">
<polygon fill="none" stroke="black" points="8,-0.5 8,-19.5 112,-19.5 112,-0.5 8,-0.5"/>
<text text-anchor="middle" x="60" y="-7.5" font-family="Helvetica,sans-Serif" font-size="10.00">app_cli/cli_app.hh</text>
</a>
</g>
</g>
<!-- Node2&#45;&gt;Node3 -->
<g id="edge2" class="edge">
<title>Node2&#45;&gt;Node3</title>
<path fill="none" stroke="midnightblue" d="M60,-45.8C60,-36.91 60,-26.78 60,-19.75"/>
<polygon fill="midnightblue" stroke="midnightblue" points="56.5,-46.08 60,-56.08 63.5,-46.08 56.5,-46.08"/>
</g>
</g>
</svg>
