<?xml version="1.0" encoding="UTF-8" standalone="no"?>
<!DOCTYPE svg PUBLIC "-//W3C//DTD SVG 1.1//EN"
 "http://www.w3.org/Graphics/SVG/1.1/DTD/svg11.dtd">
<!-- Generated by graphviz version 2.43.0 (0)
 -->
<!-- Title: app_misc/opt_map.hh Pages: 1 -->
<svg width="177pt" height="140pt"
 viewBox="0.00 0.00 177.00 140.00" xmlns="http://www.w3.org/2000/svg" xmlns:xlink="http://www.w3.org/1999/xlink">
<g id="graph0" class="graph" transform="scale(1 1) rotate(0) translate(4 136)">
<title>app_misc/opt_map.hh</title>
<!-- Node1 -->
<g id="node1" class="node">
<title>Node1</title>
<g id="a_node1"><a xlink:title="mapping options strings to enum otok">
<polygon fill="#bfbfbf" stroke="black" points="0.5,-112.5 0.5,-131.5 124.5,-131.5 124.5,-112.5 0.5,-112.5"/>
<text text-anchor="middle" x="62.5" y="-119.5" font-family="Helvetica,sans-Serif" font-size="10.00">app_misc/opt_map.hh</text>
</a>
</g>
</g>
<!-- Node2 -->
<g id="node2" class="node">
<title>Node2</title>
<g id="a_node2"><a xlink:title=" ">
<polygon fill="none" stroke="#bfbfbf" points="0,-0.5 0,-19.5 53,-19.5 53,-0.5 0,-0.5"/>
<text text-anchor="middle" x="26.5" y="-7.5" font-family="Helvetica,sans-Serif" font-size="10.00">stdint.h</text>
</a>
</g>
</g>
<!-- Node1&#45;&gt;Node2 -->
<g id="edge1" class="edge">
<title>Node1&#45;&gt;Node2</title>
<path fill="none" stroke="midnightblue" d="M56.59,-112.45C50.82,-103.7 42.23,-89.49 37.5,-76 32.23,-60.96 29.43,-43.06 27.99,-29.85"/>
<polygon fill="midnightblue" stroke="midnightblue" points="31.45,-29.27 27.03,-19.64 24.48,-29.93 31.45,-29.27"/>
</g>
<!-- Node3 -->
<g id="node3" class="node">
<title>Node3</title>
<g id="a_node3"><a xlink:href="options_8hh.html" target="_top" xlink:title="defines strings used in user interface">
<polygon fill="none" stroke="black" points="46,-56.5 46,-75.5 169,-75.5 169,-56.5 46,-56.5"/>
<text text-anchor="middle" x="107.5" y="-63.5" font-family="Helvetica,sans-Serif" font-size="10.00">app_config/options.hh</text>
</a>
</g>
</g>
<!-- Node1&#45;&gt;Node3 -->
<g id="edge2" class="edge">
<title>Node1&#45;&gt;Node3</title>
<path fill="none" stroke="midnightblue" d="M69.93,-112.08C76.35,-104.38 85.81,-93.03 93.62,-83.65"/>
<polygon fill="midnightblue" stroke="midnightblue" points="96.49,-85.67 100.21,-75.75 91.12,-81.19 96.49,-85.67"/>
</g>
<!-- Node3&#45;&gt;Node2 -->
<g id="edge3" class="edge">
<title>Node3&#45;&gt;Node2</title>
<path fill="none" stroke="midnightblue" d="M94.49,-56.32C81.97,-47.98 62.82,-35.21 48.03,-25.35"/>
<polygon fill="midnightblue" stroke="midnightblue" points="49.74,-22.29 39.48,-19.65 45.86,-28.11 49.74,-22.29"/>
</g>
<!-- Node4 -->
<g id="node4" class="node">
<title>Node4</title>
<g id="a_node4"><a xlink:title=" ">
<polygon fill="none" stroke="#bfbfbf" points="79.5,-0.5 79.5,-19.5 135.5,-19.5 135.5,-0.5 79.5,-0.5"/>
<text text-anchor="middle" x="107.5" y="-7.5" font-family="Helvetica,sans-Serif" font-size="10.00">stddef.h</text>
</a>
</g>
</g>
<!-- Node3&#45;&gt;Node4 -->
<g id="edge4" class="edge">
<title>Node3&#45;&gt;Node4</title>
<path fill="none" stroke="midnightblue" d="M107.5,-56.08C107.5,-49.01 107.5,-38.86 107.5,-29.99"/>
<polygon fill="midnightblue" stroke="midnightblue" points="111,-29.75 107.5,-19.75 104,-29.75 111,-29.75"/>
</g>
</g>
</svg>
