<?xml version="1.0" encoding="UTF-8" standalone="no"?>
<!DOCTYPE svg PUBLIC "-//W3C//DTD SVG 1.1//EN"
 "http://www.w3.org/Graphics/SVG/1.1/DTD/svg11.dtd">
<!-- Generated by graphviz version 2.43.0 (0)
 -->
<!-- Title: app_config/options.hh Pages: 1 -->
<svg width="460pt" height="330pt"
 viewBox="0.00 0.00 460.00 330.00" xmlns="http://www.w3.org/2000/svg" xmlns:xlink="http://www.w3.org/1999/xlink">
<g id="graph0" class="graph" transform="scale(1 1) rotate(0) translate(4 326)">
<title>app_config/options.hh</title>
<!-- Node1 -->
<g id="node1" class="node">
<title>Node1</title>
<g id="a_node1"><a xlink:title="defines strings used in user interface">
<polygon fill="#bfbfbf" stroke="black" points="246.5,-302.5 246.5,-321.5 369.5,-321.5 369.5,-302.5 246.5,-302.5"/>
<text text-anchor="middle" x="308" y="-309.5" font-family="Helvetica,sans-Serif" font-size="10.00">app_config/options.hh</text>
</a>
</g>
</g>
<!-- Node2 -->
<g id="node2" class="node">
<title>Node2</title>
<g id="a_node2"><a xlink:href="opt__map_8hh.html" target="_top" xlink:title="mapping options strings to enum otok">
<polygon fill="none" stroke="black" points="0,-246.5 0,-265.5 124,-265.5 124,-246.5 0,-246.5"/>
<text text-anchor="middle" x="62" y="-253.5" font-family="Helvetica,sans-Serif" font-size="10.00">app_misc/opt_map.hh</text>
</a>
</g>
</g>
<!-- Node1&#45;&gt;Node2 -->
<g id="edge1" class="edge">
<title>Node1&#45;&gt;Node2</title>
<path fill="none" stroke="midnightblue" d="M259.17,-300.28C212.68,-290.08 143.64,-274.92 100.8,-265.52"/>
<polygon fill="midnightblue" stroke="midnightblue" points="258.5,-303.72 269.02,-302.44 260,-296.88 258.5,-303.72"/>
</g>
<!-- Node3 -->
<g id="node3" class="node">
<title>Node3</title>
<g id="a_node3"><a xlink:href="app__register__settings_8hh.html" target="_top" xlink:title="Settings for application components.">
<polygon fill="none" stroke="black" points="247.5,-0.5 247.5,-30.5 390.5,-30.5 390.5,-0.5 247.5,-0.5"/>
<text text-anchor="start" x="255.5" y="-18.5" font-family="Helvetica,sans-Serif" font-size="10.00">app_settings/app_register</text>
<text text-anchor="middle" x="319" y="-7.5" font-family="Helvetica,sans-Serif" font-size="10.00">_settings.hh</text>
</a>
</g>
</g>
<!-- Node1&#45;&gt;Node3 -->
<g id="edge2" class="edge">
<title>Node1&#45;&gt;Node3</title>
<path fill="none" stroke="midnightblue" d="M346,-299.04C388.67,-282.95 452,-249.91 452,-195.5 452,-195.5 452,-195.5 452,-132 452,-81.39 396.41,-47.94 357.11,-30.62"/>
<polygon fill="midnightblue" stroke="midnightblue" points="344.67,-295.8 336.45,-302.49 347.04,-302.38 344.67,-295.8"/>
</g>
<!-- Node4 -->
<g id="node4" class="node">
<title>Node4</title>
<g id="a_node4"><a xlink:href="app__settings_8hh.html" target="_top" xlink:title="Settings for application components.">
<polygon fill="none" stroke="black" points="38.5,-67.5 38.5,-86.5 197.5,-86.5 197.5,-67.5 38.5,-67.5"/>
<text text-anchor="middle" x="118" y="-74.5" font-family="Helvetica,sans-Serif" font-size="10.00">app_settings/app_settings.hh</text>
</a>
</g>
</g>
<!-- Node1&#45;&gt;Node4 -->
<g id="edge3" class="edge">
<title>Node1&#45;&gt;Node4</title>
<path fill="none" stroke="midnightblue" d="M280.59,-297.72C266.2,-289.85 248.92,-278.9 236,-266 177.63,-207.74 134.39,-115.51 121.77,-86.82"/>
<polygon fill="midnightblue" stroke="midnightblue" points="279.07,-300.88 289.55,-302.43 282.33,-294.68 279.07,-300.88"/>
</g>
<!-- Node5 -->
<g id="node5" class="node">
<title>Node5</title>
<g id="a_node5"><a xlink:href="comp__settings_8hh.html" target="_top" xlink:title="Settings for shared components.">
<polygon fill="none" stroke="black" points="218,-123.5 218,-142.5 376,-142.5 376,-123.5 218,-123.5"/>
<text text-anchor="middle" x="297" y="-130.5" font-family="Helvetica,sans-Serif" font-size="10.00">config_kvs/comp_settings.hh</text>
</a>
</g>
</g>
<!-- Node1&#45;&gt;Node5 -->
<g id="edge5" class="edge">
<title>Node1&#45;&gt;Node5</title>
<path fill="none" stroke="midnightblue" d="M342.6,-297.92C356.51,-290.75 371.11,-280.34 379,-266 383.28,-258.21 380.4,-254.78 379,-246 374.05,-215.05 375.27,-204.47 357,-179 345.62,-163.13 326.97,-150.41 313.49,-142.59"/>
<polygon fill="midnightblue" stroke="midnightblue" points="340.71,-294.94 333.16,-302.38 343.7,-301.27 340.71,-294.94"/>
</g>
<!-- Node7 -->
<g id="node7" class="node">
<title>Node7</title>
<g id="a_node7"><a xlink:href="settings_8hh.html" target="_top" xlink:title=" ">
<polygon fill="none" stroke="black" points="245.5,-246.5 245.5,-265.5 370.5,-265.5 370.5,-246.5 245.5,-246.5"/>
<text text-anchor="middle" x="308" y="-253.5" font-family="Helvetica,sans-Serif" font-size="10.00">config_kvs/settings.hh</text>
</a>
</g>
</g>
<!-- Node1&#45;&gt;Node7 -->
<g id="edge9" class="edge">
<title>Node1&#45;&gt;Node7</title>
<path fill="none" stroke="midnightblue" d="M308,-291.8C308,-282.91 308,-272.78 308,-265.75"/>
<polygon fill="midnightblue" stroke="midnightblue" points="304.5,-292.08 308,-302.08 311.5,-292.08 304.5,-292.08"/>
</g>
<!-- Node4&#45;&gt;Node3 -->
<g id="edge4" class="edge">
<title>Node4&#45;&gt;Node3</title>
<path fill="none" stroke="midnightblue" d="M156.48,-64.61C189.27,-54.9 236.52,-40.92 271.63,-30.52"/>
<polygon fill="midnightblue" stroke="midnightblue" points="155.39,-61.28 146.8,-67.48 157.38,-67.99 155.39,-61.28"/>
</g>
<!-- Node5&#45;&gt;Node3 -->
<g id="edge6" class="edge">
<title>Node5&#45;&gt;Node3</title>
<path fill="none" stroke="midnightblue" d="M272.13,-117.81C253.8,-105.38 233.71,-86.33 244,-67 252.63,-50.79 269.04,-38.85 284.31,-30.66"/>
<polygon fill="midnightblue" stroke="midnightblue" points="270.53,-120.94 280.84,-123.35 274.28,-115.03 270.53,-120.94"/>
</g>
<!-- Node5&#45;&gt;Node4 -->
<g id="edge7" class="edge">
<title>Node5&#45;&gt;Node4</title>
<path fill="none" stroke="midnightblue" d="M258.67,-120.44C224.92,-110.26 176.55,-95.66 146.23,-86.52"/>
<polygon fill="midnightblue" stroke="midnightblue" points="258.05,-123.91 268.64,-123.44 260.07,-117.2 258.05,-123.91"/>
</g>
<!-- Node6 -->
<g id="node6" class="node">
<title>Node6</title>
<g id="a_node6"><a xlink:href="config__kvs_8h.html" target="_top" xlink:title="read settings from kvs storage by cb_type">
<polygon fill="none" stroke="black" points="253,-67.5 253,-86.5 385,-86.5 385,-67.5 253,-67.5"/>
<text text-anchor="middle" x="319" y="-74.5" font-family="Helvetica,sans-Serif" font-size="10.00">config_kvs/config_kvs.h</text>
</a>
</g>
</g>
<!-- Node5&#45;&gt;Node6 -->
<g id="edge8" class="edge">
<title>Node5&#45;&gt;Node6</title>
<path fill="none" stroke="midnightblue" d="M304.46,-113.69C308.17,-104.59 312.48,-94.01 315.43,-86.75"/>
<polygon fill="midnightblue" stroke="midnightblue" points="301.16,-112.5 300.63,-123.08 307.65,-115.14 301.16,-112.5"/>
</g>
<!-- Node7&#45;&gt;Node3 -->
<g id="edge10" class="edge">
<title>Node7&#45;&gt;Node3</title>
<path fill="none" stroke="midnightblue" d="M328.27,-239.82C337.94,-231.78 349.1,-221.26 357,-210 389.79,-163.27 389.46,-143.91 394,-87 394.71,-78.14 398.18,-74.85 394,-67 385.37,-50.79 368.96,-38.85 353.69,-30.66"/>
<polygon fill="midnightblue" stroke="midnightblue" points="325.91,-237.23 320.27,-246.2 330.27,-242.7 325.91,-237.23"/>
</g>
<!-- Node8 -->
<g id="node8" class="node">
<title>Node8</title>
<g id="a_node8"><a xlink:href="settings__template_8hh_source.html" target="_top" xlink:title=" ">
<polygon fill="none" stroke="black" points="238,-179.5 238,-209.5 348,-209.5 348,-179.5 238,-179.5"/>
<text text-anchor="start" x="246" y="-197.5" font-family="Helvetica,sans-Serif" font-size="10.00">config_kvs/settings</text>
<text text-anchor="middle" x="293" y="-186.5" font-family="Helvetica,sans-Serif" font-size="10.00">_template.hh</text>
</a>
</g>
</g>
<!-- Node7&#45;&gt;Node8 -->
<g id="edge11" class="edge">
<title>Node7&#45;&gt;Node8</title>
<path fill="none" stroke="midnightblue" d="M303.34,-236.53C301.15,-227.81 298.57,-217.59 296.54,-209.52"/>
<polygon fill="midnightblue" stroke="midnightblue" points="300.01,-237.63 305.85,-246.48 306.8,-235.92 300.01,-237.63"/>
</g>
<!-- Node8&#45;&gt;Node4 -->
<g id="edge12" class="edge">
<title>Node8&#45;&gt;Node4</title>
<path fill="none" stroke="midnightblue" d="M259.66,-174.27C244.09,-165.09 225.41,-153.77 209,-143 179.62,-123.72 146.3,-99.21 129.29,-86.5"/>
<polygon fill="midnightblue" stroke="midnightblue" points="258.03,-177.38 268.42,-179.41 261.57,-171.34 258.03,-177.38"/>
</g>
<!-- Node8&#45;&gt;Node5 -->
<g id="edge13" class="edge">
<title>Node8&#45;&gt;Node5</title>
<path fill="none" stroke="midnightblue" d="M294.63,-169.29C295.26,-159.86 295.95,-149.65 296.42,-142.66"/>
<polygon fill="midnightblue" stroke="midnightblue" points="291.13,-169.19 293.95,-179.4 298.11,-169.66 291.13,-169.19"/>
</g>
</g>
</svg>
