<?xml version="1.0" encoding="UTF-8" standalone="no"?>
<!DOCTYPE svg PUBLIC "-//W3C//DTD SVG 1.1//EN"
 "http://www.w3.org/Graphics/SVG/1.1/DTD/svg11.dtd">
<!-- Generated by graphviz version 2.43.0 (0)
 -->
<!-- Title: fernotron/alias/pairings.h Pages: 1 -->
<svg width="274pt" height="196pt"
 viewBox="0.00 0.00 274.33 196.00" xmlns="http://www.w3.org/2000/svg" xmlns:xlink="http://www.w3.org/1999/xlink">
<g id="graph0" class="graph" transform="scale(1 1) rotate(0) translate(4 192)">
<title>fernotron/alias/pairings.h</title>
<!-- Node1 -->
<g id="node1" class="node">
<title>Node1</title>
<g id="a_node1"><a xlink:title="Map Fernotron controller 3&#45;byte&#45;addresses to an a/g/m addresses.">
<polygon fill="#bfbfbf" stroke="black" points="115.33,-168.5 115.33,-187.5 254.33,-187.5 254.33,-168.5 115.33,-168.5"/>
<text text-anchor="middle" x="184.83" y="-175.5" font-family="Helvetica,sans-Serif" font-size="10.00">fernotron/alias/pairings.h</text>
</a>
</g>
</g>
<!-- Node2 -->
<g id="node2" class="node">
<title>Node2</title>
<g id="a_node2"><a xlink:href="fer__pct_8h.html" target="_top" xlink:title="class Pct to represent shutter opening percentage">
<polygon fill="none" stroke="black" points="41.33,-112.5 41.33,-131.5 148.33,-131.5 148.33,-112.5 41.33,-112.5"/>
<text text-anchor="middle" x="94.83" y="-119.5" font-family="Helvetica,sans-Serif" font-size="10.00">fernotron/fer_pct.h</text>
</a>
</g>
</g>
<!-- Node1&#45;&gt;Node2 -->
<g id="edge1" class="edge">
<title>Node1&#45;&gt;Node2</title>
<path fill="none" stroke="midnightblue" d="M170.37,-168.32C156.33,-159.9 134.78,-146.97 118.29,-137.07"/>
<polygon fill="midnightblue" stroke="midnightblue" points="119.63,-133.8 109.26,-131.65 116.03,-139.8 119.63,-133.8"/>
</g>
<!-- Node4 -->
<g id="node4" class="node">
<title>Node4</title>
<g id="a_node4"><a xlink:title=" ">
<polygon fill="none" stroke="#bfbfbf" points="162.83,-56.5 162.83,-75.5 224.83,-75.5 224.83,-56.5 162.83,-56.5"/>
<text text-anchor="middle" x="193.83" y="-63.5" font-family="Helvetica,sans-Serif" font-size="10.00">stdbool.h</text>
</a>
</g>
</g>
<!-- Node1&#45;&gt;Node4 -->
<g id="edge7" class="edge">
<title>Node1&#45;&gt;Node4</title>
<path fill="none" stroke="midnightblue" d="M185.54,-168.37C186.99,-150.62 190.34,-109.67 192.31,-85.6"/>
<polygon fill="midnightblue" stroke="midnightblue" points="195.8,-85.84 193.13,-75.59 188.83,-85.27 195.8,-85.84"/>
</g>
<!-- Node6 -->
<g id="node6" class="node">
<title>Node6</title>
<g id="a_node6"><a xlink:title=" ">
<polygon fill="none" stroke="#bfbfbf" points="213.33,-112.5 213.33,-131.5 266.33,-131.5 266.33,-112.5 213.33,-112.5"/>
<text text-anchor="middle" x="239.83" y="-119.5" font-family="Helvetica,sans-Serif" font-size="10.00">stdlib.h</text>
</a>
</g>
</g>
<!-- Node1&#45;&gt;Node6 -->
<g id="edge6" class="edge">
<title>Node1&#45;&gt;Node6</title>
<path fill="none" stroke="midnightblue" d="M193.91,-168.08C202,-160.14 214.03,-148.34 223.74,-138.8"/>
<polygon fill="midnightblue" stroke="midnightblue" points="226.24,-141.25 230.92,-131.75 221.33,-136.26 226.24,-141.25"/>
</g>
<!-- Node3 -->
<g id="node3" class="node">
<title>Node3</title>
<g id="a_node3"><a xlink:title=" ">
<polygon fill="none" stroke="#bfbfbf" points="5.33,-0.5 5.33,-19.5 58.33,-19.5 58.33,-0.5 5.33,-0.5"/>
<text text-anchor="middle" x="31.83" y="-7.5" font-family="Helvetica,sans-Serif" font-size="10.00">stdint.h</text>
</a>
</g>
</g>
<!-- Node2&#45;&gt;Node3 -->
<g id="edge2" class="edge">
<title>Node2&#45;&gt;Node3</title>
<path fill="none" stroke="midnightblue" d="M56.86,-112.41C37.42,-105.88 15.46,-94.72 3.83,-76 -5.83,-60.44 5.25,-40.96 16.2,-27.41"/>
<polygon fill="midnightblue" stroke="midnightblue" points="18.88,-29.66 22.81,-19.82 13.6,-25.06 18.88,-29.66"/>
</g>
<!-- Node2&#45;&gt;Node4 -->
<g id="edge3" class="edge">
<title>Node2&#45;&gt;Node4</title>
<path fill="none" stroke="midnightblue" d="M110.74,-112.32C126.47,-103.74 150.78,-90.49 169.04,-80.52"/>
<polygon fill="midnightblue" stroke="midnightblue" points="170.86,-83.52 177.97,-75.65 167.51,-77.37 170.86,-83.52"/>
</g>
<!-- Node5 -->
<g id="node5" class="node">
<title>Node5</title>
<g id="a_node5"><a xlink:href="int__macros_8h.html" target="_top" xlink:title="Basic helper macros for integers.">
<polygon fill="none" stroke="black" points="12.83,-56.5 12.83,-75.5 144.83,-75.5 144.83,-56.5 12.83,-56.5"/>
<text text-anchor="middle" x="78.83" y="-63.5" font-family="Helvetica,sans-Serif" font-size="10.00">utils_misc/int_macros.h</text>
</a>
</g>
</g>
<!-- Node2&#45;&gt;Node5 -->
<g id="edge4" class="edge">
<title>Node2&#45;&gt;Node5</title>
<path fill="none" stroke="midnightblue" d="M92.19,-112.08C90.05,-104.85 86.95,-94.41 84.28,-85.4"/>
<polygon fill="midnightblue" stroke="midnightblue" points="87.62,-84.34 81.43,-75.75 80.91,-86.33 87.62,-84.34"/>
</g>
<!-- Node5&#45;&gt;Node3 -->
<g id="edge5" class="edge">
<title>Node5&#45;&gt;Node3</title>
<path fill="none" stroke="midnightblue" d="M71.07,-56.08C64.3,-48.3 54.29,-36.8 46.08,-27.37"/>
<polygon fill="midnightblue" stroke="midnightblue" points="48.65,-25 39.45,-19.75 43.37,-29.59 48.65,-25"/>
</g>
</g>
</svg>
