<?xml version="1.0" encoding="UTF-8" standalone="no"?>
<!DOCTYPE svg PUBLIC "-//W3C//DTD SVG 1.1//EN"
 "http://www.w3.org/Graphics/SVG/1.1/DTD/svg11.dtd">
<!-- Generated by graphviz version 2.43.0 (0)
 -->
<!-- Title: fernotron/pos/positions_dynamic.h Pages: 1 -->
<!--zoomable 352 -->
<svg id="main" version="1.1" xmlns="http://www.w3.org/2000/svg" xmlns:xlink="http://www.w3.org/1999/xlink" xml:space="preserve" onload="init(evt)">
<style type="text/css"><![CDATA[
.edge:hover path { stroke: red; }
.edge:hover polygon { stroke: red; fill: red; }
]]></style>
<script type="text/javascript"><![CDATA[
var edges = document.getElementsByTagName('g');
if (edges && edges.length) {
  for (var i=0;i<edges.length;i++) {
    if (edges[i].id.substr(0,4)=='edge') {
      edges[i].setAttribute('class','edge');
    }
  }
}
]]></script>
        <defs>
                <circle id="rim" cx="0" cy="0" r="7"/>
                <circle id="rim2" cx="0" cy="0" r="3.5"/>
                <g id="zoomPlus">
                        <use xlink:href="#rim" fill="#404040">
                                <set attributeName="fill" to="#808080" begin="zoomplus.mouseover" end="zoomplus.mouseout"/>
                        </use>
                        <path d="M-4,0h8M0,-4v8" fill="none" stroke="white" stroke-width="1.5" pointer-events="none"/>
                </g>
                <g id="zoomMin">
                        <use xlink:href="#rim" fill="#404040">
                                <set attributeName="fill" to="#808080" begin="zoomminus.mouseover" end="zoomminus.mouseout"/>
                        </use>
                        <path d="M-4,0h8" fill="none" stroke="white" stroke-width="1.5" pointer-events="none"/>
                </g>
                <g id="dirArrow">
                        <path fill="none" stroke="white" stroke-width="1.5" d="M0,-3.0v7 M-2.5,-0.5L0,-3.0L2.5,-0.5"/>
                </g>
               <g id="resetDef">
                       <use xlink:href="#rim2" fill="#404040">
                               <set attributeName="fill" to="#808080" begin="reset.mouseover" end="reset.mouseout"/>
                       </use>
               </g>
        </defs>

<script type="text/javascript">
var viewWidth = 828;
var viewHeight = 352;
var sectionId = 'dynsection-0';
</script>
<script xlink:href="svgpan.js"/>
<svg id="graph" class="graph">
<g id="viewport">
<title>fernotron/pos/positions_dynamic.h</title>
<!-- Node1 -->
<g id="node1" class="node">
<title>Node1</title>
<g id="a_node1"><a xlink:title="Keep track of positions for a currently moving shutter.">
<polygon fill="#bfbfbf" stroke="black" points="179.5,-313.5 179.5,-343.5 308.5,-343.5 308.5,-313.5 179.5,-313.5"/>
<text text-anchor="start" x="187.5" y="-331.5" font-family="Helvetica,sans-Serif" font-size="10.00">fernotron/pos/positions</text>
<text text-anchor="middle" x="244" y="-320.5" font-family="Helvetica,sans-Serif" font-size="10.00">_dynamic.h</text>
</a>
</g>
</g>
<!-- Node2 -->
<g id="node2" class="node">
<title>Node2</title>
<g id="a_node2"><a xlink:href="fer__pct_8h.html" target="_top" xlink:title="class Pct to represent shutter opening percentage">
<polygon fill="none" stroke="black" points="125.5,-252 125.5,-271 232.5,-271 232.5,-252 125.5,-252"/>
<text text-anchor="middle" x="179" y="-259" font-family="Helvetica,sans-Serif" font-size="10.00">fernotron/fer_pct.h</text>
</a>
</g>
</g>
<!-- Node1&#45;&gt;Node2 -->
<g id="edge1" class="edge">
<title>Node1&#45;&gt;Node2</title>
<path fill="none" stroke="midnightblue" d="M229.9,-313.4C219.56,-303.06 205.52,-289.02 194.81,-278.31"/>
<polygon fill="midnightblue" stroke="midnightblue" points="197.24,-275.79 187.69,-271.19 192.29,-280.74 197.24,-275.79"/>
</g>
<!-- Node6 -->
<g id="node6" class="node">
<title>Node6</title>
<g id="a_node6"><a xlink:href="fer__trx__c__api_8h.html" target="_top" xlink:title="C&#45;API for sending and receiving Fernotron RF messages.">
<polygon fill="none" stroke="black" points="308,-246.5 308,-276.5 424,-276.5 424,-246.5 308,-246.5"/>
<text text-anchor="start" x="316" y="-264.5" font-family="Helvetica,sans-Serif" font-size="10.00">fernotron_trx/fer_trx</text>
<text text-anchor="middle" x="366" y="-253.5" font-family="Helvetica,sans-Serif" font-size="10.00">_c_api.h</text>
</a>
</g>
</g>
<!-- Node1&#45;&gt;Node6 -->
<g id="edge6" class="edge">
<title>Node1&#45;&gt;Node6</title>
<path fill="none" stroke="midnightblue" d="M270.47,-313.4C288.06,-304.03 311.35,-291.62 330.54,-281.39"/>
<polygon fill="midnightblue" stroke="midnightblue" points="332.4,-284.37 339.58,-276.58 329.11,-278.19 332.4,-284.37"/>
</g>
<!-- Node3 -->
<g id="node3" class="node">
<title>Node3</title>
<g id="a_node3"><a xlink:title=" ">
<polygon fill="none" stroke="#bfbfbf" points="153.5,-118 153.5,-137 206.5,-137 206.5,-118 153.5,-118"/>
<text text-anchor="middle" x="180" y="-125" font-family="Helvetica,sans-Serif" font-size="10.00">stdint.h</text>
</a>
</g>
</g>
<!-- Node2&#45;&gt;Node3 -->
<g id="edge2" class="edge">
<title>Node2&#45;&gt;Node3</title>
<path fill="none" stroke="midnightblue" d="M179.07,-251.84C179.23,-230.67 179.64,-175.95 179.86,-147.03"/>
<polygon fill="midnightblue" stroke="midnightblue" points="183.36,-147.05 179.94,-137.02 176.36,-146.99 183.36,-147.05"/>
</g>
<!-- Node4 -->
<g id="node4" class="node">
<title>Node4</title>
<g id="a_node4"><a xlink:title=" ">
<polygon fill="none" stroke="#bfbfbf" points="235,-118 235,-137 297,-137 297,-118 235,-118"/>
<text text-anchor="middle" x="266" y="-125" font-family="Helvetica,sans-Serif" font-size="10.00">stdbool.h</text>
</a>
</g>
</g>
<!-- Node2&#45;&gt;Node4 -->
<g id="edge3" class="edge">
<title>Node2&#45;&gt;Node4</title>
<path fill="none" stroke="midnightblue" d="M181.92,-251.91C187.39,-236.49 200.17,-203.43 217,-179 225.86,-166.14 238.09,-153.53 248.11,-144.13"/>
<polygon fill="midnightblue" stroke="midnightblue" points="250.54,-146.66 255.57,-137.33 245.82,-141.48 250.54,-146.66"/>
</g>
<!-- Node5 -->
<g id="node5" class="node">
<title>Node5</title>
<g id="a_node5"><a xlink:href="int__macros_8h.html" target="_top" xlink:title="Basic helper macros for integers.">
<polygon fill="none" stroke="black" points="0,-185 0,-204 132,-204 132,-185 0,-185"/>
<text text-anchor="middle" x="66" y="-192" font-family="Helvetica,sans-Serif" font-size="10.00">utils_misc/int_macros.h</text>
</a>
</g>
</g>
<!-- Node2&#45;&gt;Node5 -->
<g id="edge4" class="edge">
<title>Node2&#45;&gt;Node5</title>
<path fill="none" stroke="midnightblue" d="M163.76,-251.73C144.78,-240.82 112.15,-222.05 89.85,-209.22"/>
<polygon fill="midnightblue" stroke="midnightblue" points="91.41,-206.08 81,-204.13 87.92,-212.15 91.41,-206.08"/>
</g>
<!-- Node5&#45;&gt;Node3 -->
<g id="edge5" class="edge">
<title>Node5&#45;&gt;Node3</title>
<path fill="none" stroke="midnightblue" d="M81.37,-184.73C100.52,-173.82 133.44,-155.05 155.94,-142.22"/>
<polygon fill="midnightblue" stroke="midnightblue" points="157.92,-145.12 164.87,-137.13 154.45,-139.04 157.92,-145.12"/>
</g>
<!-- Node7 -->
<g id="node7" class="node">
<title>Node7</title>
<g id="a_node7"><a xlink:href="int__types_8h_source.html" target="_top" xlink:title=" ">
<polygon fill="none" stroke="black" points="226.5,-185 226.5,-204 349.5,-204 349.5,-185 226.5,-185"/>
<text text-anchor="middle" x="288" y="-192" font-family="Helvetica,sans-Serif" font-size="10.00">utils_misc/int_types.h</text>
</a>
</g>
</g>
<!-- Node6&#45;&gt;Node7 -->
<g id="edge7" class="edge">
<title>Node6&#45;&gt;Node7</title>
<path fill="none" stroke="midnightblue" d="M349.08,-246.4C336.43,-235.86 319.17,-221.48 306.23,-210.69"/>
<polygon fill="midnightblue" stroke="midnightblue" points="308.36,-207.91 298.43,-204.19 303.88,-213.29 308.36,-207.91"/>
</g>
<!-- Node8 -->
<g id="node8" class="node">
<title>Node8</title>
<g id="a_node8"><a xlink:href="timer__data_8h.html" target="_top" xlink:title="vocabulary types to program Fernotron automatic (timers)">
<polygon fill="none" stroke="black" points="368,-179.5 368,-209.5 478,-209.5 478,-179.5 368,-179.5"/>
<text text-anchor="start" x="376" y="-197.5" font-family="Helvetica,sans-Serif" font-size="10.00">fernotron_trx/timer</text>
<text text-anchor="middle" x="423" y="-186.5" font-family="Helvetica,sans-Serif" font-size="10.00">_data.h</text>
</a>
</g>
</g>
<!-- Node6&#45;&gt;Node8 -->
<g id="edge10" class="edge">
<title>Node6&#45;&gt;Node8</title>
<path fill="none" stroke="midnightblue" d="M378.37,-246.4C385.84,-237.88 395.51,-226.85 403.94,-217.23"/>
<polygon fill="midnightblue" stroke="midnightblue" points="406.69,-219.4 410.66,-209.58 401.43,-214.79 406.69,-219.4"/>
</g>
<!-- Node24 -->
<g id="node24" class="node">
<title>Node24</title>
<g id="a_node24"><a xlink:title=" ">
<polygon fill="none" stroke="#bfbfbf" points="496,-185 496,-204 544,-204 544,-185 496,-185"/>
<text text-anchor="middle" x="520" y="-192" font-family="Helvetica,sans-Serif" font-size="10.00">time.h</text>
</a>
</g>
</g>
<!-- Node6&#45;&gt;Node24 -->
<g id="edge28" class="edge">
<title>Node6&#45;&gt;Node24</title>
<path fill="none" stroke="midnightblue" d="M400.23,-246.41C424.5,-236.37 457.81,-222.5 487,-210 488.37,-209.41 489.76,-208.81 491.17,-208.2"/>
<polygon fill="midnightblue" stroke="midnightblue" points="492.71,-211.35 500.48,-204.15 489.92,-204.93 492.71,-211.35"/>
</g>
<!-- Node7&#45;&gt;Node3 -->
<g id="edge8" class="edge">
<title>Node7&#45;&gt;Node3</title>
<path fill="none" stroke="midnightblue" d="M273.43,-184.73C255.38,-173.87 224.39,-155.22 203.08,-142.39"/>
<polygon fill="midnightblue" stroke="midnightblue" points="204.71,-139.29 194.33,-137.13 201.1,-145.28 204.71,-139.29"/>
</g>
<!-- Node7&#45;&gt;Node4 -->
<g id="edge9" class="edge">
<title>Node7&#45;&gt;Node4</title>
<path fill="none" stroke="midnightblue" d="M285.03,-184.73C281.77,-175.09 276.42,-159.3 272.23,-146.91"/>
<polygon fill="midnightblue" stroke="midnightblue" points="275.44,-145.48 268.92,-137.13 268.81,-147.72 275.44,-145.48"/>
</g>
<!-- Node8&#45;&gt;Node3 -->
<g id="edge11" class="edge">
<title>Node8&#45;&gt;Node3</title>
<path fill="none" stroke="midnightblue" d="M367.59,-180.15C327.99,-170.4 273.53,-156.57 226,-143 222.68,-142.05 219.23,-141.03 215.79,-139.99"/>
<polygon fill="midnightblue" stroke="midnightblue" points="216.78,-136.63 206.2,-137.03 214.72,-143.32 216.78,-136.63"/>
</g>
<!-- Node8&#45;&gt;Node4 -->
<g id="edge12" class="edge">
<title>Node8&#45;&gt;Node4</title>
<path fill="none" stroke="midnightblue" d="M388.93,-179.4C361.26,-167.94 322.61,-151.94 296.08,-140.95"/>
<polygon fill="midnightblue" stroke="midnightblue" points="297.13,-137.6 286.55,-137.01 294.45,-144.07 297.13,-137.6"/>
</g>
<!-- Node9 -->
<g id="node9" class="node">
<title>Node9</title>
<g id="a_node9"><a xlink:title=" ">
<polygon fill="none" stroke="#bfbfbf" points="694.5,-118 694.5,-137 747.5,-137 747.5,-118 694.5,-118"/>
<text text-anchor="middle" x="721" y="-125" font-family="Helvetica,sans-Serif" font-size="10.00">string.h</text>
</a>
</g>
</g>
<!-- Node8&#45;&gt;Node9 -->
<g id="edge13" class="edge">
<title>Node8&#45;&gt;Node9</title>
<path fill="none" stroke="midnightblue" d="M478.12,-180.85C481.12,-180.21 484.1,-179.59 487,-179 575.07,-161.07 599.77,-168.35 686,-143 688.29,-142.33 690.63,-141.55 692.97,-140.72"/>
<polygon fill="midnightblue" stroke="midnightblue" points="694.31,-143.95 702.38,-137.08 691.79,-137.43 694.31,-143.95"/>
</g>
<!-- Node10 -->
<g id="node10" class="node">
<title>Node10</title>
<g id="a_node10"><a xlink:title=" ">
<polygon fill="none" stroke="#bfbfbf" points="315.5,-118 315.5,-137 368.5,-137 368.5,-118 315.5,-118"/>
<text text-anchor="middle" x="342" y="-125" font-family="Helvetica,sans-Serif" font-size="10.00">ctype.h</text>
</a>
</g>
</g>
<!-- Node8&#45;&gt;Node10 -->
<g id="edge14" class="edge">
<title>Node8&#45;&gt;Node10</title>
<path fill="none" stroke="midnightblue" d="M405.42,-179.4C392.29,-168.86 374.37,-154.48 360.93,-143.69"/>
<polygon fill="midnightblue" stroke="midnightblue" points="362.82,-140.72 352.83,-137.19 358.44,-146.18 362.82,-140.72"/>
</g>
<!-- Node11 -->
<g id="node11" class="node">
<title>Node11</title>
<g id="a_node11"><a xlink:title=" ">
<polygon fill="none" stroke="#bfbfbf" points="387,-118 387,-137 437,-137 437,-118 387,-118"/>
<text text-anchor="middle" x="412" y="-125" font-family="Helvetica,sans-Serif" font-size="10.00">stdio.h</text>
</a>
</g>
</g>
<!-- Node8&#45;&gt;Node11 -->
<g id="edge15" class="edge">
<title>Node8&#45;&gt;Node11</title>
<path fill="none" stroke="midnightblue" d="M420.61,-179.4C419.02,-169.96 416.9,-157.45 415.16,-147.19"/>
<polygon fill="midnightblue" stroke="midnightblue" points="418.59,-146.47 413.47,-137.19 411.69,-147.64 418.59,-146.47"/>
</g>
<!-- Node12 -->
<g id="node12" class="node">
<title>Node12</title>
<g id="a_node12"><a xlink:href="cstring__utils_8hh_source.html" target="_top" xlink:title=" ">
<polygon fill="none" stroke="black" points="455,-112.5 455,-142.5 557,-142.5 557,-112.5 455,-112.5"/>
<text text-anchor="start" x="463" y="-130.5" font-family="Helvetica,sans-Serif" font-size="10.00">utils_misc/cstring</text>
<text text-anchor="middle" x="506" y="-119.5" font-family="Helvetica,sans-Serif" font-size="10.00">_utils.hh</text>
</a>
</g>
</g>
<!-- Node8&#45;&gt;Node12 -->
<g id="edge16" class="edge">
<title>Node8&#45;&gt;Node12</title>
<path fill="none" stroke="midnightblue" d="M441.01,-179.4C452.43,-170.45 467.39,-158.74 480.08,-148.8"/>
<polygon fill="midnightblue" stroke="midnightblue" points="482.31,-151.5 488.03,-142.58 477.99,-145.99 482.31,-151.5"/>
</g>
<!-- Node18 -->
<g id="node18" class="node">
<title>Node18</title>
<g id="a_node18"><a xlink:href="dbg_8h_source.html" target="_top" xlink:title=" ">
<polygon fill="none" stroke="black" points="599.5,-118 599.5,-137 676.5,-137 676.5,-118 599.5,-118"/>
<text text-anchor="middle" x="638" y="-125" font-family="Helvetica,sans-Serif" font-size="10.00">debug/dbg.h</text>
</a>
</g>
</g>
<!-- Node8&#45;&gt;Node18 -->
<g id="edge22" class="edge">
<title>Node8&#45;&gt;Node18</title>
<path fill="none" stroke="midnightblue" d="M469.39,-179.48C508.43,-167.67 563.57,-151 600.03,-139.98"/>
<polygon fill="midnightblue" stroke="midnightblue" points="601.23,-143.27 609.79,-137.03 599.2,-136.57 601.23,-143.27"/>
</g>
<!-- Node13 -->
<g id="node13" class="node">
<title>Node13</title>
<g id="a_node13"><a xlink:title=" ">
<polygon fill="none" stroke="#bfbfbf" points="403,-56.5 403,-75.5 453,-75.5 453,-56.5 403,-56.5"/>
<text text-anchor="middle" x="428" y="-63.5" font-family="Helvetica,sans-Serif" font-size="10.00">cstring</text>
</a>
</g>
</g>
<!-- Node12&#45;&gt;Node13 -->
<g id="edge17" class="edge">
<title>Node12&#45;&gt;Node13</title>
<path fill="none" stroke="midnightblue" d="M487.52,-112.4C475.48,-103.22 459.8,-91.26 447.56,-81.92"/>
<polygon fill="midnightblue" stroke="midnightblue" points="449.42,-78.94 439.35,-75.66 445.18,-84.51 449.42,-78.94"/>
</g>
<!-- Node14 -->
<g id="node14" class="node">
<title>Node14</title>
<g id="a_node14"><a xlink:title=" ">
<polygon fill="none" stroke="#bfbfbf" points="471.5,-56.5 471.5,-75.5 540.5,-75.5 540.5,-56.5 471.5,-56.5"/>
<text text-anchor="middle" x="506" y="-63.5" font-family="Helvetica,sans-Serif" font-size="10.00">type_traits</text>
</a>
</g>
</g>
<!-- Node12&#45;&gt;Node14 -->
<g id="edge18" class="edge">
<title>Node12&#45;&gt;Node14</title>
<path fill="none" stroke="midnightblue" d="M506,-112.4C506,-104.47 506,-94.46 506,-85.86"/>
<polygon fill="midnightblue" stroke="midnightblue" points="509.5,-85.66 506,-75.66 502.5,-85.66 509.5,-85.66"/>
</g>
<!-- Node15 -->
<g id="node15" class="node">
<title>Node15</title>
<g id="a_node15"><a xlink:href="allocator__malloc_8hh_source.html" target="_top" xlink:title=" ">
<polygon fill="none" stroke="black" points="271.5,-56.5 271.5,-75.5 384.5,-75.5 384.5,-56.5 271.5,-56.5"/>
<text text-anchor="middle" x="328" y="-63.5" font-family="Helvetica,sans-Serif" font-size="10.00">allocator_malloc.hh</text>
</a>
</g>
</g>
<!-- Node12&#45;&gt;Node15 -->
<g id="edge19" class="edge">
<title>Node12&#45;&gt;Node15</title>
<path fill="none" stroke="midnightblue" d="M463.82,-112.4C433.19,-102.16 392.23,-88.47 363.33,-78.81"/>
<polygon fill="midnightblue" stroke="midnightblue" points="364.23,-75.42 353.64,-75.57 362.02,-82.06 364.23,-75.42"/>
</g>
<!-- Node16 -->
<g id="node16" class="node">
<title>Node16</title>
<g id="a_node16"><a xlink:title=" ">
<polygon fill="none" stroke="#bfbfbf" points="261,-0.5 261,-19.5 319,-19.5 319,-0.5 261,-0.5"/>
<text text-anchor="middle" x="290" y="-7.5" font-family="Helvetica,sans-Serif" font-size="10.00">memory</text>
</a>
</g>
</g>
<!-- Node15&#45;&gt;Node16 -->
<g id="edge20" class="edge">
<title>Node15&#45;&gt;Node16</title>
<path fill="none" stroke="midnightblue" d="M321.73,-56.08C316.36,-48.46 308.48,-37.26 301.92,-27.94"/>
<polygon fill="midnightblue" stroke="midnightblue" points="304.78,-25.91 296.16,-19.75 299.05,-29.94 304.78,-25.91"/>
</g>
<!-- Node17 -->
<g id="node17" class="node">
<title>Node17</title>
<g id="a_node17"><a xlink:title=" ">
<polygon fill="none" stroke="#bfbfbf" points="337.5,-0.5 337.5,-19.5 396.5,-19.5 396.5,-0.5 337.5,-0.5"/>
<text text-anchor="middle" x="367" y="-7.5" font-family="Helvetica,sans-Serif" font-size="10.00">malloc.h</text>
</a>
</g>
</g>
<!-- Node15&#45;&gt;Node17 -->
<g id="edge21" class="edge">
<title>Node15&#45;&gt;Node17</title>
<path fill="none" stroke="midnightblue" d="M334.44,-56.08C339.95,-48.46 348.03,-37.26 354.76,-27.94"/>
<polygon fill="midnightblue" stroke="midnightblue" points="357.66,-29.91 360.68,-19.75 351.99,-25.81 357.66,-29.91"/>
</g>
<!-- Node19 -->
<g id="node19" class="node">
<title>Node19</title>
<g id="a_node19"><a xlink:href="log_8h_source.html" target="_top" xlink:title=" ">
<polygon fill="none" stroke="black" points="707.5,-56.5 707.5,-75.5 748.5,-75.5 748.5,-56.5 707.5,-56.5"/>
<text text-anchor="middle" x="728" y="-63.5" font-family="Helvetica,sans-Serif" font-size="10.00">log.h</text>
</a>
</g>
</g>
<!-- Node18&#45;&gt;Node19 -->
<g id="edge23" class="edge">
<title>Node18&#45;&gt;Node19</title>
<path fill="none" stroke="midnightblue" d="M650.89,-117.98C665.46,-108.34 689.4,-92.52 706.75,-81.05"/>
<polygon fill="midnightblue" stroke="midnightblue" points="708.72,-83.94 715.13,-75.51 704.86,-78.1 708.72,-83.94"/>
</g>
<!-- Node21 -->
<g id="node21" class="node">
<title>Node21</title>
<g id="a_node21"><a xlink:title=" ">
<polygon fill="none" stroke="#bfbfbf" points="766.5,-56.5 766.5,-75.5 819.5,-75.5 819.5,-56.5 766.5,-56.5"/>
<text text-anchor="middle" x="793" y="-63.5" font-family="Helvetica,sans-Serif" font-size="10.00">stdlib.h</text>
</a>
</g>
</g>
<!-- Node18&#45;&gt;Node21 -->
<g id="edge25" class="edge">
<title>Node18&#45;&gt;Node21</title>
<path fill="none" stroke="midnightblue" d="M660.21,-117.98C686.68,-107.81 731.11,-90.76 761.22,-79.2"/>
<polygon fill="midnightblue" stroke="midnightblue" points="762.75,-82.36 770.83,-75.51 760.24,-75.83 762.75,-82.36"/>
</g>
<!-- Node22 -->
<g id="node22" class="node">
<title>Node22</title>
<g id="a_node22"><a xlink:title=" ">
<polygon fill="none" stroke="#bfbfbf" points="559,-56.5 559,-75.5 615,-75.5 615,-56.5 559,-56.5"/>
<text text-anchor="middle" x="587" y="-63.5" font-family="Helvetica,sans-Serif" font-size="10.00">unistd.h</text>
</a>
</g>
</g>
<!-- Node18&#45;&gt;Node22 -->
<g id="edge26" class="edge">
<title>Node18&#45;&gt;Node22</title>
<path fill="none" stroke="midnightblue" d="M630.69,-117.98C622.97,-108.96 610.59,-94.52 600.98,-83.31"/>
<polygon fill="midnightblue" stroke="midnightblue" points="603.46,-80.82 594.29,-75.51 598.14,-85.38 603.46,-80.82"/>
</g>
<!-- Node23 -->
<g id="node23" class="node">
<title>Node23</title>
<g id="a_node23"><a xlink:title=" ">
<polygon fill="none" stroke="#bfbfbf" points="633,-56.5 633,-75.5 689,-75.5 689,-56.5 633,-56.5"/>
<text text-anchor="middle" x="661" y="-63.5" font-family="Helvetica,sans-Serif" font-size="10.00">assert.h</text>
</a>
</g>
</g>
<!-- Node18&#45;&gt;Node23 -->
<g id="edge27" class="edge">
<title>Node18&#45;&gt;Node23</title>
<path fill="none" stroke="midnightblue" d="M641.3,-117.98C644.61,-109.4 649.82,-95.93 654.05,-84.98"/>
<polygon fill="midnightblue" stroke="midnightblue" points="657.37,-86.1 657.71,-75.51 650.84,-83.57 657.37,-86.1"/>
</g>
<!-- Node20 -->
<g id="node20" class="node">
<title>Node20</title>
<g id="a_node20"><a xlink:title=" ">
<polygon fill="none" stroke="#bfbfbf" points="696.5,-0.5 696.5,-19.5 759.5,-19.5 759.5,-0.5 696.5,-0.5"/>
<text text-anchor="middle" x="728" y="-7.5" font-family="Helvetica,sans-Serif" font-size="10.00">esp_log.h</text>
</a>
</g>
</g>
<!-- Node19&#45;&gt;Node20 -->
<g id="edge24" class="edge">
<title>Node19&#45;&gt;Node20</title>
<path fill="none" stroke="midnightblue" d="M728,-56.08C728,-49.01 728,-38.86 728,-29.99"/>
<polygon fill="midnightblue" stroke="midnightblue" points="731.5,-29.75 728,-19.75 724.5,-29.75 731.5,-29.75"/>
</g>
</g>
</svg>
        <g id="navigator" transform="translate(0 0)" fill="#404254">
                <rect fill="#f2f5e9" fill-opacity="0.5" stroke="#606060" stroke-width=".5" x="0" y="0" width="60" height="60"/>
                <use id="zoomplus" xlink:href="#zoomPlus" x="17" y="9" onmousedown="handleZoom(evt,'in')"/>
                <use id="zoomminus" xlink:href="#zoomMin" x="42" y="9" onmousedown="handleZoom(evt,'out')"/>
                <use id="reset" xlink:href="#resetDef" x="30" y="36" onmousedown="handleReset()"/>
                <g id="arrowUp" xlink:href="#dirArrow" transform="translate(30 24)" onmousedown="handlePan(0,-1)">
                  <use xlink:href="#rim" fill="#404040">
                        <set attributeName="fill" to="#808080" begin="arrowUp.mouseover" end="arrowUp.mouseout"/>
                  </use>
                  <path fill="none" stroke="white" stroke-width="1.5" d="M0,-3.0v7 M-2.5,-0.5L0,-3.0L2.5,-0.5"/>
                </g>
                <g id="arrowRight" xlink:href="#dirArrow" transform="rotate(90) translate(36 -43)" onmousedown="handlePan(1,0)">
                  <use xlink:href="#rim" fill="#404040">
                        <set attributeName="fill" to="#808080" begin="arrowRight.mouseover" end="arrowRight.mouseout"/>
                  </use>
                  <path fill="none" stroke="white" stroke-width="1.5" d="M0,-3.0v7 M-2.5,-0.5L0,-3.0L2.5,-0.5"/>
                </g>
                <g id="arrowDown" xlink:href="#dirArrow" transform="rotate(180) translate(-30 -48)" onmousedown="handlePan(0,1)">
                  <use xlink:href="#rim" fill="#404040">
                        <set attributeName="fill" to="#808080" begin="arrowDown.mouseover" end="arrowDown.mouseout"/>
                  </use>
                  <path fill="none" stroke="white" stroke-width="1.5" d="M0,-3.0v7 M-2.5,-0.5L0,-3.0L2.5,-0.5"/>
                </g>
                <g id="arrowLeft" xlink:href="#dirArrow" transform="rotate(270) translate(-36 17)" onmousedown="handlePan(-1,0)">
                  <use xlink:href="#rim" fill="#404040">
                        <set attributeName="fill" to="#808080" begin="arrowLeft.mouseover" end="arrowLeft.mouseout"/>
                  </use>
                  <path fill="none" stroke="white" stroke-width="1.5" d="M0,-3.0v7 M-2.5,-0.5L0,-3.0L2.5,-0.5"/>
                </g>
        </g>
        <svg viewBox="0 0 15 15" width="100%" height="30px" preserveAspectRatio="xMaxYMin meet">
         <g id="arrow_out" transform="scale(0.3 0.3)">
          <a xlink:href="positions__dynamic_8h__incl_org.svg" target="_base">
           <rect id="button" ry="5" rx="5" y="6" x="6" height="38" width="38"
                fill="#f2f5e9" fill-opacity="0.5" stroke="#606060" stroke-width="1.0"/>
           <path id="arrow"
             d="M 11.500037,31.436501 C 11.940474,20.09759 22.043105,11.32322 32.158766,21.979434 L 37.068811,17.246167 C 37.068811,17.246167 37.088388,32 37.088388,32 L 22.160133,31.978069 C 22.160133,31.978069 26.997745,27.140456 26.997745,27.140456 C 18.528582,18.264221 13.291696,25.230495 11.500037,31.436501 z"
             style="fill:#404040;"/>
          </a>
         </g>
        </svg>
</svg>
