<?xml version="1.0" encoding="UTF-8" standalone="no"?>
<!DOCTYPE svg PUBLIC "-//W3C//DTD SVG 1.1//EN"
 "http://www.w3.org/Graphics/SVG/1.1/DTD/svg11.dtd">
<!-- Generated by graphviz version 2.43.0 (0)
 -->
<!-- Title: app_misc/rtc.h Pages: 1 -->
<svg width="196pt" height="140pt"
 viewBox="0.00 0.00 195.50 140.00" xmlns="http://www.w3.org/2000/svg" xmlns:xlink="http://www.w3.org/1999/xlink">
<g id="graph0" class="graph" transform="scale(1 1) rotate(0) translate(4 136)">
<title>app_misc/rtc.h</title>
<!-- Node1 -->
<g id="node1" class="node">
<title>Node1</title>
<g id="a_node1"><a xlink:title="Some time related functions and constants.">
<polygon fill="#bfbfbf" stroke="black" points="31,-112.5 31,-131.5 119,-131.5 119,-112.5 31,-112.5"/>
<text text-anchor="middle" x="75" y="-119.5" font-family="Helvetica,sans-Serif" font-size="10.00">app_misc/rtc.h</text>
</a>
</g>
</g>
<!-- Node2 -->
<g id="node2" class="node">
<title>Node2</title>
<g id="a_node2"><a xlink:title=" ">
<polygon fill="none" stroke="#bfbfbf" points="0,-56.5 0,-75.5 48,-75.5 48,-56.5 0,-56.5"/>
<text text-anchor="middle" x="24" y="-63.5" font-family="Helvetica,sans-Serif" font-size="10.00">time.h</text>
</a>
</g>
</g>
<!-- Node1&#45;&gt;Node2 -->
<g id="edge1" class="edge">
<title>Node1&#45;&gt;Node2</title>
<path fill="none" stroke="midnightblue" d="M66.58,-112.08C59.15,-104.22 48.15,-92.57 39.19,-83.08"/>
<polygon fill="midnightblue" stroke="midnightblue" points="41.68,-80.62 32.26,-75.75 36.59,-85.42 41.68,-80.62"/>
</g>
<!-- Node3 -->
<g id="node3" class="node">
<title>Node3</title>
<g id="a_node3"><a xlink:href="run__time_8h.html" target="_top" xlink:title="provide time since MCU startup">
<polygon fill="none" stroke="black" points="66.5,-56.5 66.5,-75.5 187.5,-75.5 187.5,-56.5 66.5,-56.5"/>
<text text-anchor="middle" x="127" y="-63.5" font-family="Helvetica,sans-Serif" font-size="10.00">utils_time/run_time.h</text>
</a>
</g>
</g>
<!-- Node1&#45;&gt;Node3 -->
<g id="edge2" class="edge">
<title>Node1&#45;&gt;Node3</title>
<path fill="none" stroke="midnightblue" d="M83.59,-112.08C91.16,-104.22 102.38,-92.57 111.51,-83.08"/>
<polygon fill="midnightblue" stroke="midnightblue" points="114.16,-85.38 118.57,-75.75 109.12,-80.53 114.16,-85.38"/>
</g>
<!-- Node4 -->
<g id="node4" class="node">
<title>Node4</title>
<g id="a_node4"><a xlink:title=" ">
<polygon fill="none" stroke="#bfbfbf" points="100.5,-0.5 100.5,-19.5 153.5,-19.5 153.5,-0.5 100.5,-0.5"/>
<text text-anchor="middle" x="127" y="-7.5" font-family="Helvetica,sans-Serif" font-size="10.00">stdint.h</text>
</a>
</g>
</g>
<!-- Node3&#45;&gt;Node4 -->
<g id="edge3" class="edge">
<title>Node3&#45;&gt;Node4</title>
<path fill="none" stroke="midnightblue" d="M127,-56.08C127,-49.01 127,-38.86 127,-29.99"/>
<polygon fill="midnightblue" stroke="midnightblue" points="130.5,-29.75 127,-19.75 123.5,-29.75 130.5,-29.75"/>
</g>
</g>
</svg>
