<?xml version="1.0" encoding="UTF-8" standalone="no"?>
<!DOCTYPE svg PUBLIC "-//W3C//DTD SVG 1.1//EN"
 "http://www.w3.org/Graphics/SVG/1.1/DTD/svg11.dtd">
<!-- Generated by graphviz version 2.43.0 (0)
 -->
<!-- Title: fernotron/sep/set_endpos.h Pages: 1 -->
<!--zoomable 341 -->
<svg id="main" version="1.1" xmlns="http://www.w3.org/2000/svg" xmlns:xlink="http://www.w3.org/1999/xlink" xml:space="preserve" onload="init(evt)">
<style type="text/css"><![CDATA[
.edge:hover path { stroke: red; }
.edge:hover polygon { stroke: red; fill: red; }
]]></style>
<script type="text/javascript"><![CDATA[
var edges = document.getElementsByTagName('g');
if (edges && edges.length) {
  for (var i=0;i<edges.length;i++) {
    if (edges[i].id.substr(0,4)=='edge') {
      edges[i].setAttribute('class','edge');
    }
  }
}
]]></script>
        <defs>
                <circle id="rim" cx="0" cy="0" r="7"/>
                <circle id="rim2" cx="0" cy="0" r="3.5"/>
                <g id="zoomPlus">
                        <use xlink:href="#rim" fill="#404040">
                                <set attributeName="fill" to="#808080" begin="zoomplus.mouseover" end="zoomplus.mouseout"/>
                        </use>
                        <path d="M-4,0h8M0,-4v8" fill="none" stroke="white" stroke-width="1.5" pointer-events="none"/>
                </g>
                <g id="zoomMin">
                        <use xlink:href="#rim" fill="#404040">
                                <set attributeName="fill" to="#808080" begin="zoomminus.mouseover" end="zoomminus.mouseout"/>
                        </use>
                        <path d="M-4,0h8" fill="none" stroke="white" stroke-width="1.5" pointer-events="none"/>
                </g>
                <g id="dirArrow">
                        <path fill="none" stroke="white" stroke-width="1.5" d="M0,-3.0v7 M-2.5,-0.5L0,-3.0L2.5,-0.5"/>
                </g>
               <g id="resetDef">
                       <use xlink:href="#rim2" fill="#404040">
                               <set attributeName="fill" to="#808080" begin="reset.mouseover" end="reset.mouseout"/>
                       </use>
               </g>
        </defs>

<script type="text/javascript">
var viewWidth = 665;
var viewHeight = 341;
var sectionId = 'dynsection-0';
</script>
<script xlink:href="svgpan.js"/>
<svg id="graph" class="graph">
<g id="viewport">
<title>fernotron/sep/set_endpos.h</title>
<!-- Node1 -->
<g id="node1" class="node">
<title>Node1</title>
<g id="a_node1"><a xlink:title="Mode for setting shutter end positions.">
<polygon fill="#bfbfbf" stroke="black" points="0,-313.5 0,-332.5 149,-332.5 149,-313.5 0,-313.5"/>
<text text-anchor="middle" x="74.5" y="-320.5" font-family="Helvetica,sans-Serif" font-size="10.00">fernotron/sep/set_endpos.h</text>
</a>
</g>
</g>
<!-- Node2 -->
<g id="node2" class="node">
<title>Node2</title>
<g id="a_node2"><a xlink:title=" ">
<polygon fill="none" stroke="#bfbfbf" points="72.5,-118 72.5,-137 134.5,-137 134.5,-118 72.5,-118"/>
<text text-anchor="middle" x="103.5" y="-125" font-family="Helvetica,sans-Serif" font-size="10.00">stdbool.h</text>
</a>
</g>
</g>
<!-- Node1&#45;&gt;Node2 -->
<g id="edge1" class="edge">
<title>Node1&#45;&gt;Node2</title>
<path fill="none" stroke="midnightblue" d="M69.77,-313.22C58.06,-290.22 30.08,-226.67 50.5,-179 56.72,-164.48 69.4,-152.15 80.79,-143.31"/>
<polygon fill="midnightblue" stroke="midnightblue" points="83.1,-145.96 89.13,-137.25 78.98,-140.3 83.1,-145.96"/>
</g>
<!-- Node3 -->
<g id="node3" class="node">
<title>Node3</title>
<g id="a_node3"><a xlink:href="fer__trx__c__api_8h.html" target="_top" xlink:title="C&#45;API for sending and receiving Fernotron RF messages.">
<polygon fill="none" stroke="black" points="94.5,-246.5 94.5,-276.5 210.5,-276.5 210.5,-246.5 94.5,-246.5"/>
<text text-anchor="start" x="102.5" y="-264.5" font-family="Helvetica,sans-Serif" font-size="10.00">fernotron_trx/fer_trx</text>
<text text-anchor="middle" x="152.5" y="-253.5" font-family="Helvetica,sans-Serif" font-size="10.00">_c_api.h</text>
</a>
</g>
</g>
<!-- Node1&#45;&gt;Node3 -->
<g id="edge2" class="edge">
<title>Node1&#45;&gt;Node3</title>
<path fill="none" stroke="midnightblue" d="M85.68,-313.48C96.14,-305.49 112.18,-293.25 125.93,-282.77"/>
<polygon fill="midnightblue" stroke="midnightblue" points="128.29,-285.37 134.12,-276.52 124.04,-279.81 128.29,-285.37"/>
</g>
<!-- Node4 -->
<g id="node4" class="node">
<title>Node4</title>
<g id="a_node4"><a xlink:href="int__types_8h_source.html" target="_top" xlink:title=" ">
<polygon fill="none" stroke="black" points="126,-185 126,-204 249,-204 249,-185 126,-185"/>
<text text-anchor="middle" x="187.5" y="-192" font-family="Helvetica,sans-Serif" font-size="10.00">utils_misc/int_types.h</text>
</a>
</g>
</g>
<!-- Node3&#45;&gt;Node4 -->
<g id="edge3" class="edge">
<title>Node3&#45;&gt;Node4</title>
<path fill="none" stroke="midnightblue" d="M160.09,-246.4C165.34,-236.66 172.34,-223.65 177.96,-213.21"/>
<polygon fill="midnightblue" stroke="midnightblue" points="181.16,-214.66 182.82,-204.19 175,-211.34 181.16,-214.66"/>
</g>
<!-- Node6 -->
<g id="node6" class="node">
<title>Node6</title>
<g id="a_node6"><a xlink:href="timer__data_8h.html" target="_top" xlink:title="vocabulary types to program Fernotron automatic (timers)">
<polygon fill="none" stroke="black" points="281.5,-179.5 281.5,-209.5 391.5,-209.5 391.5,-179.5 281.5,-179.5"/>
<text text-anchor="start" x="289.5" y="-197.5" font-family="Helvetica,sans-Serif" font-size="10.00">fernotron_trx/timer</text>
<text text-anchor="middle" x="336.5" y="-186.5" font-family="Helvetica,sans-Serif" font-size="10.00">_data.h</text>
</a>
</g>
</g>
<!-- Node3&#45;&gt;Node6 -->
<g id="edge6" class="edge">
<title>Node3&#45;&gt;Node6</title>
<path fill="none" stroke="midnightblue" d="M192.43,-246.4C220.15,-236.6 257.29,-223.48 286.92,-213.02"/>
<polygon fill="midnightblue" stroke="midnightblue" points="288.39,-216.21 296.65,-209.58 286.06,-209.61 288.39,-216.21"/>
</g>
<!-- Node22 -->
<g id="node22" class="node">
<title>Node22</title>
<g id="a_node22"><a xlink:title=" ">
<polygon fill="none" stroke="#bfbfbf" points="59.5,-185 59.5,-204 107.5,-204 107.5,-185 59.5,-185"/>
<text text-anchor="middle" x="83.5" y="-192" font-family="Helvetica,sans-Serif" font-size="10.00">time.h</text>
</a>
</g>
</g>
<!-- Node3&#45;&gt;Node22 -->
<g id="edge24" class="edge">
<title>Node3&#45;&gt;Node22</title>
<path fill="none" stroke="midnightblue" d="M137.53,-246.4C126.56,-236.06 111.66,-222.02 100.28,-211.31"/>
<polygon fill="midnightblue" stroke="midnightblue" points="102.41,-208.5 92.73,-204.19 97.61,-213.6 102.41,-208.5"/>
</g>
<!-- Node4&#45;&gt;Node2 -->
<g id="edge5" class="edge">
<title>Node4&#45;&gt;Node2</title>
<path fill="none" stroke="midnightblue" d="M176.17,-184.73C162.44,-174.11 139.1,-156.05 122.58,-143.26"/>
<polygon fill="midnightblue" stroke="midnightblue" points="124.7,-140.48 114.65,-137.13 120.42,-146.02 124.7,-140.48"/>
</g>
<!-- Node5 -->
<g id="node5" class="node">
<title>Node5</title>
<g id="a_node5"><a xlink:title=" ">
<polygon fill="none" stroke="#bfbfbf" points="153,-118 153,-137 206,-137 206,-118 153,-118"/>
<text text-anchor="middle" x="179.5" y="-125" font-family="Helvetica,sans-Serif" font-size="10.00">stdint.h</text>
</a>
</g>
</g>
<!-- Node4&#45;&gt;Node5 -->
<g id="edge4" class="edge">
<title>Node4&#45;&gt;Node5</title>
<path fill="none" stroke="midnightblue" d="M186.42,-184.73C185.25,-175.18 183.33,-159.62 181.81,-147.28"/>
<polygon fill="midnightblue" stroke="midnightblue" points="185.26,-146.62 180.56,-137.13 178.31,-147.48 185.26,-146.62"/>
</g>
<!-- Node6&#45;&gt;Node2 -->
<g id="edge8" class="edge">
<title>Node6&#45;&gt;Node2</title>
<path fill="none" stroke="midnightblue" d="M281.12,-180.22C242.58,-170.67 190.12,-157.04 144.5,-143 141.88,-142.19 139.19,-141.33 136.48,-140.43"/>
<polygon fill="midnightblue" stroke="midnightblue" points="137.4,-137.04 126.8,-137.12 135.13,-143.67 137.4,-137.04"/>
</g>
<!-- Node6&#45;&gt;Node5 -->
<g id="edge7" class="edge">
<title>Node6&#45;&gt;Node5</title>
<path fill="none" stroke="midnightblue" d="M302.43,-179.4C274.76,-167.94 236.11,-151.94 209.58,-140.95"/>
<polygon fill="midnightblue" stroke="midnightblue" points="210.63,-137.6 200.05,-137.01 207.95,-144.07 210.63,-137.6"/>
</g>
<!-- Node7 -->
<g id="node7" class="node">
<title>Node7</title>
<g id="a_node7"><a xlink:title=" ">
<polygon fill="none" stroke="#bfbfbf" points="508,-118 508,-137 561,-137 561,-118 508,-118"/>
<text text-anchor="middle" x="534.5" y="-125" font-family="Helvetica,sans-Serif" font-size="10.00">string.h</text>
</a>
</g>
</g>
<!-- Node6&#45;&gt;Node7 -->
<g id="edge9" class="edge">
<title>Node6&#45;&gt;Node7</title>
<path fill="none" stroke="midnightblue" d="M386.11,-179.42C418.61,-169.89 461.88,-156.59 499.5,-143 501.36,-142.33 503.26,-141.62 505.17,-140.88"/>
<polygon fill="midnightblue" stroke="midnightblue" points="506.65,-144.06 514.64,-137.1 504.05,-137.56 506.65,-144.06"/>
</g>
<!-- Node8 -->
<g id="node8" class="node">
<title>Node8</title>
<g id="a_node8"><a xlink:title=" ">
<polygon fill="none" stroke="#bfbfbf" points="579,-118 579,-137 632,-137 632,-118 579,-118"/>
<text text-anchor="middle" x="605.5" y="-125" font-family="Helvetica,sans-Serif" font-size="10.00">ctype.h</text>
</a>
</g>
</g>
<!-- Node6&#45;&gt;Node8 -->
<g id="edge10" class="edge">
<title>Node6&#45;&gt;Node8</title>
<path fill="none" stroke="midnightblue" d="M391.6,-184.51C439.48,-176.01 510.4,-161.77 570.5,-143 572.64,-142.33 574.84,-141.58 577.03,-140.79"/>
<polygon fill="midnightblue" stroke="midnightblue" points="578.42,-144 586.47,-137.11 575.89,-137.48 578.42,-144"/>
</g>
<!-- Node9 -->
<g id="node9" class="node">
<title>Node9</title>
<g id="a_node9"><a xlink:title=" ">
<polygon fill="none" stroke="#bfbfbf" points="224.5,-118 224.5,-137 274.5,-137 274.5,-118 224.5,-118"/>
<text text-anchor="middle" x="249.5" y="-125" font-family="Helvetica,sans-Serif" font-size="10.00">stdio.h</text>
</a>
</g>
</g>
<!-- Node6&#45;&gt;Node9 -->
<g id="edge11" class="edge">
<title>Node6&#45;&gt;Node9</title>
<path fill="none" stroke="midnightblue" d="M317.62,-179.4C303.39,-168.76 283.9,-154.2 269.42,-143.38"/>
<polygon fill="midnightblue" stroke="midnightblue" points="271.24,-140.38 261.14,-137.19 267.05,-145.98 271.24,-140.38"/>
</g>
<!-- Node10 -->
<g id="node10" class="node">
<title>Node10</title>
<g id="a_node10"><a xlink:href="cstring__utils_8hh_source.html" target="_top" xlink:title=" ">
<polygon fill="none" stroke="black" points="292.5,-112.5 292.5,-142.5 394.5,-142.5 394.5,-112.5 292.5,-112.5"/>
<text text-anchor="start" x="300.5" y="-130.5" font-family="Helvetica,sans-Serif" font-size="10.00">utils_misc/cstring</text>
<text text-anchor="middle" x="343.5" y="-119.5" font-family="Helvetica,sans-Serif" font-size="10.00">_utils.hh</text>
</a>
</g>
</g>
<!-- Node6&#45;&gt;Node10 -->
<g id="edge12" class="edge">
<title>Node6&#45;&gt;Node10</title>
<path fill="none" stroke="midnightblue" d="M338.02,-179.4C338.86,-171.56 339.94,-161.6 340.91,-152.57"/>
<polygon fill="midnightblue" stroke="midnightblue" points="344.39,-152.89 341.98,-142.58 337.43,-152.14 344.39,-152.89"/>
</g>
<!-- Node16 -->
<g id="node16" class="node">
<title>Node16</title>
<g id="a_node16"><a xlink:href="dbg_8h_source.html" target="_top" xlink:title=" ">
<polygon fill="none" stroke="black" points="413,-118 413,-137 490,-137 490,-118 413,-118"/>
<text text-anchor="middle" x="451.5" y="-125" font-family="Helvetica,sans-Serif" font-size="10.00">debug/dbg.h</text>
</a>
</g>
</g>
<!-- Node6&#45;&gt;Node16 -->
<g id="edge18" class="edge">
<title>Node6&#45;&gt;Node16</title>
<path fill="none" stroke="midnightblue" d="M361.45,-179.4C381.1,-168.29 408.29,-152.92 427.65,-141.98"/>
<polygon fill="midnightblue" stroke="midnightblue" points="429.47,-144.97 436.45,-137.01 426.02,-138.88 429.47,-144.97"/>
</g>
<!-- Node11 -->
<g id="node11" class="node">
<title>Node11</title>
<g id="a_node11"><a xlink:title=" ">
<polygon fill="none" stroke="#bfbfbf" points="240.5,-56.5 240.5,-75.5 290.5,-75.5 290.5,-56.5 240.5,-56.5"/>
<text text-anchor="middle" x="265.5" y="-63.5" font-family="Helvetica,sans-Serif" font-size="10.00">cstring</text>
</a>
</g>
</g>
<!-- Node10&#45;&gt;Node11 -->
<g id="edge13" class="edge">
<title>Node10&#45;&gt;Node11</title>
<path fill="none" stroke="midnightblue" d="M325.02,-112.4C312.98,-103.22 297.3,-91.26 285.06,-81.92"/>
<polygon fill="midnightblue" stroke="midnightblue" points="286.92,-78.94 276.85,-75.66 282.68,-84.51 286.92,-78.94"/>
</g>
<!-- Node12 -->
<g id="node12" class="node">
<title>Node12</title>
<g id="a_node12"><a xlink:title=" ">
<polygon fill="none" stroke="#bfbfbf" points="309,-56.5 309,-75.5 378,-75.5 378,-56.5 309,-56.5"/>
<text text-anchor="middle" x="343.5" y="-63.5" font-family="Helvetica,sans-Serif" font-size="10.00">type_traits</text>
</a>
</g>
</g>
<!-- Node10&#45;&gt;Node12 -->
<g id="edge14" class="edge">
<title>Node10&#45;&gt;Node12</title>
<path fill="none" stroke="midnightblue" d="M343.5,-112.4C343.5,-104.47 343.5,-94.46 343.5,-85.86"/>
<polygon fill="midnightblue" stroke="midnightblue" points="347,-85.66 343.5,-75.66 340,-85.66 347,-85.66"/>
</g>
<!-- Node13 -->
<g id="node13" class="node">
<title>Node13</title>
<g id="a_node13"><a xlink:href="allocator__malloc_8hh_source.html" target="_top" xlink:title=" ">
<polygon fill="none" stroke="black" points="109,-56.5 109,-75.5 222,-75.5 222,-56.5 109,-56.5"/>
<text text-anchor="middle" x="165.5" y="-63.5" font-family="Helvetica,sans-Serif" font-size="10.00">allocator_malloc.hh</text>
</a>
</g>
</g>
<!-- Node10&#45;&gt;Node13 -->
<g id="edge15" class="edge">
<title>Node10&#45;&gt;Node13</title>
<path fill="none" stroke="midnightblue" d="M301.32,-112.4C270.69,-102.16 229.73,-88.47 200.83,-78.81"/>
<polygon fill="midnightblue" stroke="midnightblue" points="201.73,-75.42 191.14,-75.57 199.52,-82.06 201.73,-75.42"/>
</g>
<!-- Node14 -->
<g id="node14" class="node">
<title>Node14</title>
<g id="a_node14"><a xlink:title=" ">
<polygon fill="none" stroke="#bfbfbf" points="98.5,-0.5 98.5,-19.5 156.5,-19.5 156.5,-0.5 98.5,-0.5"/>
<text text-anchor="middle" x="127.5" y="-7.5" font-family="Helvetica,sans-Serif" font-size="10.00">memory</text>
</a>
</g>
</g>
<!-- Node13&#45;&gt;Node14 -->
<g id="edge16" class="edge">
<title>Node13&#45;&gt;Node14</title>
<path fill="none" stroke="midnightblue" d="M159.23,-56.08C153.86,-48.46 145.98,-37.26 139.42,-27.94"/>
<polygon fill="midnightblue" stroke="midnightblue" points="142.28,-25.91 133.66,-19.75 136.55,-29.94 142.28,-25.91"/>
</g>
<!-- Node15 -->
<g id="node15" class="node">
<title>Node15</title>
<g id="a_node15"><a xlink:title=" ">
<polygon fill="none" stroke="#bfbfbf" points="175,-0.5 175,-19.5 234,-19.5 234,-0.5 175,-0.5"/>
<text text-anchor="middle" x="204.5" y="-7.5" font-family="Helvetica,sans-Serif" font-size="10.00">malloc.h</text>
</a>
</g>
</g>
<!-- Node13&#45;&gt;Node15 -->
<g id="edge17" class="edge">
<title>Node13&#45;&gt;Node15</title>
<path fill="none" stroke="midnightblue" d="M171.94,-56.08C177.45,-48.46 185.53,-37.26 192.26,-27.94"/>
<polygon fill="midnightblue" stroke="midnightblue" points="195.16,-29.91 198.18,-19.75 189.49,-25.81 195.16,-29.91"/>
</g>
<!-- Node17 -->
<g id="node17" class="node">
<title>Node17</title>
<g id="a_node17"><a xlink:href="log_8h_source.html" target="_top" xlink:title=" ">
<polygon fill="none" stroke="black" points="545,-56.5 545,-75.5 586,-75.5 586,-56.5 545,-56.5"/>
<text text-anchor="middle" x="565.5" y="-63.5" font-family="Helvetica,sans-Serif" font-size="10.00">log.h</text>
</a>
</g>
</g>
<!-- Node16&#45;&gt;Node17 -->
<g id="edge19" class="edge">
<title>Node16&#45;&gt;Node17</title>
<path fill="none" stroke="midnightblue" d="M467.83,-117.98C486.71,-108.12 518.01,-91.79 540.08,-80.27"/>
<polygon fill="midnightblue" stroke="midnightblue" points="541.95,-83.24 549.2,-75.51 538.71,-77.03 541.95,-83.24"/>
</g>
<!-- Node19 -->
<g id="node19" class="node">
<title>Node19</title>
<g id="a_node19"><a xlink:title=" ">
<polygon fill="none" stroke="#bfbfbf" points="604,-56.5 604,-75.5 657,-75.5 657,-56.5 604,-56.5"/>
<text text-anchor="middle" x="630.5" y="-63.5" font-family="Helvetica,sans-Serif" font-size="10.00">stdlib.h</text>
</a>
</g>
</g>
<!-- Node16&#45;&gt;Node19 -->
<g id="edge21" class="edge">
<title>Node16&#45;&gt;Node19</title>
<path fill="none" stroke="midnightblue" d="M477.15,-117.98C508.12,-107.68 560.37,-90.31 595.15,-78.75"/>
<polygon fill="midnightblue" stroke="midnightblue" points="596.52,-81.98 604.9,-75.51 594.31,-75.34 596.52,-81.98"/>
</g>
<!-- Node20 -->
<g id="node20" class="node">
<title>Node20</title>
<g id="a_node20"><a xlink:title=" ">
<polygon fill="none" stroke="#bfbfbf" points="396.5,-56.5 396.5,-75.5 452.5,-75.5 452.5,-56.5 396.5,-56.5"/>
<text text-anchor="middle" x="424.5" y="-63.5" font-family="Helvetica,sans-Serif" font-size="10.00">unistd.h</text>
</a>
</g>
</g>
<!-- Node16&#45;&gt;Node20 -->
<g id="edge22" class="edge">
<title>Node16&#45;&gt;Node20</title>
<path fill="none" stroke="midnightblue" d="M447.63,-117.98C443.7,-109.32 437.5,-95.65 432.51,-84.65"/>
<polygon fill="midnightblue" stroke="midnightblue" points="435.68,-83.17 428.36,-75.51 429.31,-86.06 435.68,-83.17"/>
</g>
<!-- Node21 -->
<g id="node21" class="node">
<title>Node21</title>
<g id="a_node21"><a xlink:title=" ">
<polygon fill="none" stroke="#bfbfbf" points="470.5,-56.5 470.5,-75.5 526.5,-75.5 526.5,-56.5 470.5,-56.5"/>
<text text-anchor="middle" x="498.5" y="-63.5" font-family="Helvetica,sans-Serif" font-size="10.00">assert.h</text>
</a>
</g>
</g>
<!-- Node16&#45;&gt;Node21 -->
<g id="edge23" class="edge">
<title>Node16&#45;&gt;Node21</title>
<path fill="none" stroke="midnightblue" d="M458.23,-117.98C465.28,-109.05 476.53,-94.81 485.35,-83.64"/>
<polygon fill="midnightblue" stroke="midnightblue" points="488.33,-85.53 491.78,-75.51 482.83,-81.19 488.33,-85.53"/>
</g>
<!-- Node18 -->
<g id="node18" class="node">
<title>Node18</title>
<g id="a_node18"><a xlink:title=" ">
<polygon fill="none" stroke="#bfbfbf" points="534,-0.5 534,-19.5 597,-19.5 597,-0.5 534,-0.5"/>
<text text-anchor="middle" x="565.5" y="-7.5" font-family="Helvetica,sans-Serif" font-size="10.00">esp_log.h</text>
</a>
</g>
</g>
<!-- Node17&#45;&gt;Node18 -->
<g id="edge20" class="edge">
<title>Node17&#45;&gt;Node18</title>
<path fill="none" stroke="midnightblue" d="M565.5,-56.08C565.5,-49.01 565.5,-38.86 565.5,-29.99"/>
<polygon fill="midnightblue" stroke="midnightblue" points="569,-29.75 565.5,-19.75 562,-29.75 569,-29.75"/>
</g>
</g>
</svg>
        <g id="navigator" transform="translate(0 0)" fill="#404254">
                <rect fill="#f2f5e9" fill-opacity="0.5" stroke="#606060" stroke-width=".5" x="0" y="0" width="60" height="60"/>
                <use id="zoomplus" xlink:href="#zoomPlus" x="17" y="9" onmousedown="handleZoom(evt,'in')"/>
                <use id="zoomminus" xlink:href="#zoomMin" x="42" y="9" onmousedown="handleZoom(evt,'out')"/>
                <use id="reset" xlink:href="#resetDef" x="30" y="36" onmousedown="handleReset()"/>
                <g id="arrowUp" xlink:href="#dirArrow" transform="translate(30 24)" onmousedown="handlePan(0,-1)">
                  <use xlink:href="#rim" fill="#404040">
                        <set attributeName="fill" to="#808080" begin="arrowUp.mouseover" end="arrowUp.mouseout"/>
                  </use>
                  <path fill="none" stroke="white" stroke-width="1.5" d="M0,-3.0v7 M-2.5,-0.5L0,-3.0L2.5,-0.5"/>
                </g>
                <g id="arrowRight" xlink:href="#dirArrow" transform="rotate(90) translate(36 -43)" onmousedown="handlePan(1,0)">
                  <use xlink:href="#rim" fill="#404040">
                        <set attributeName="fill" to="#808080" begin="arrowRight.mouseover" end="arrowRight.mouseout"/>
                  </use>
                  <path fill="none" stroke="white" stroke-width="1.5" d="M0,-3.0v7 M-2.5,-0.5L0,-3.0L2.5,-0.5"/>
                </g>
                <g id="arrowDown" xlink:href="#dirArrow" transform="rotate(180) translate(-30 -48)" onmousedown="handlePan(0,1)">
                  <use xlink:href="#rim" fill="#404040">
                        <set attributeName="fill" to="#808080" begin="arrowDown.mouseover" end="arrowDown.mouseout"/>
                  </use>
                  <path fill="none" stroke="white" stroke-width="1.5" d="M0,-3.0v7 M-2.5,-0.5L0,-3.0L2.5,-0.5"/>
                </g>
                <g id="arrowLeft" xlink:href="#dirArrow" transform="rotate(270) translate(-36 17)" onmousedown="handlePan(-1,0)">
                  <use xlink:href="#rim" fill="#404040">
                        <set attributeName="fill" to="#808080" begin="arrowLeft.mouseover" end="arrowLeft.mouseout"/>
                  </use>
                  <path fill="none" stroke="white" stroke-width="1.5" d="M0,-3.0v7 M-2.5,-0.5L0,-3.0L2.5,-0.5"/>
                </g>
        </g>
        <svg viewBox="0 0 15 15" width="100%" height="30px" preserveAspectRatio="xMaxYMin meet">
         <g id="arrow_out" transform="scale(0.3 0.3)">
          <a xlink:href="set__endpos_8h__incl_org.svg" target="_base">
           <rect id="button" ry="5" rx="5" y="6" x="6" height="38" width="38"
                fill="#f2f5e9" fill-opacity="0.5" stroke="#606060" stroke-width="1.0"/>
           <path id="arrow"
             d="M 11.500037,31.436501 C 11.940474,20.09759 22.043105,11.32322 32.158766,21.979434 L 37.068811,17.246167 C 37.068811,17.246167 37.088388,32 37.088388,32 L 22.160133,31.978069 C 22.160133,31.978069 26.997745,27.140456 26.997745,27.140456 C 18.528582,18.264221 13.291696,25.230495 11.500037,31.436501 z"
             style="fill:#404040;"/>
          </a>
         </g>
        </svg>
</svg>
