<?xml version="1.0" encoding="UTF-8" standalone="no"?>
<!DOCTYPE svg PUBLIC "-//W3C//DTD SVG 1.1//EN"
 "http://www.w3.org/Graphics/SVG/1.1/DTD/svg11.dtd">
<!-- Generated by graphviz version 2.43.0 (0)
 -->
<!-- Title: config_kvs/settings.hh Pages: 1 -->
<svg width="392pt" height="274pt"
 viewBox="0.00 0.00 391.50 274.00" xmlns="http://www.w3.org/2000/svg" xmlns:xlink="http://www.w3.org/1999/xlink">
<g id="graph0" class="graph" transform="scale(1 1) rotate(0) translate(4 270)">
<title>config_kvs/settings.hh</title>
<!-- Node1 -->
<g id="node1" class="node">
<title>Node1</title>
<g id="a_node1"><a xlink:title=" ">
<polygon fill="#bfbfbf" stroke="black" points="0,-246.5 0,-265.5 125,-265.5 125,-246.5 0,-246.5"/>
<text text-anchor="middle" x="62.5" y="-253.5" font-family="Helvetica,sans-Serif" font-size="10.00">config_kvs/settings.hh</text>
</a>
</g>
</g>
<!-- Node2 -->
<g id="node2" class="node">
<title>Node2</title>
<g id="a_node2"><a xlink:href="app__register__settings_8hh.html" target="_top" xlink:title="Settings for application components.">
<polygon fill="none" stroke="black" points="45,-0.5 45,-30.5 188,-30.5 188,-0.5 45,-0.5"/>
<text text-anchor="start" x="53" y="-18.5" font-family="Helvetica,sans-Serif" font-size="10.00">app_settings/app_register</text>
<text text-anchor="middle" x="116.5" y="-7.5" font-family="Helvetica,sans-Serif" font-size="10.00">_settings.hh</text>
</a>
</g>
</g>
<!-- Node1&#45;&gt;Node2 -->
<g id="edge1" class="edge">
<title>Node1&#45;&gt;Node2</title>
<path fill="none" stroke="midnightblue" d="M52.04,-237.48C32.7,-202.57 -3.87,-122.91 28.5,-67 38.21,-50.23 55.82,-38.55 72.75,-30.68"/>
<polygon fill="midnightblue" stroke="midnightblue" points="49.17,-239.51 57.18,-246.44 55.24,-236.02 49.17,-239.51"/>
</g>
<!-- Node3 -->
<g id="node3" class="node">
<title>Node3</title>
<g id="a_node3"><a xlink:href="settings__template_8hh_source.html" target="_top" xlink:title=" ">
<polygon fill="none" stroke="black" points="61.5,-179.5 61.5,-209.5 171.5,-209.5 171.5,-179.5 61.5,-179.5"/>
<text text-anchor="start" x="69.5" y="-197.5" font-family="Helvetica,sans-Serif" font-size="10.00">config_kvs/settings</text>
<text text-anchor="middle" x="116.5" y="-186.5" font-family="Helvetica,sans-Serif" font-size="10.00">_template.hh</text>
</a>
</g>
</g>
<!-- Node1&#45;&gt;Node3 -->
<g id="edge2" class="edge">
<title>Node1&#45;&gt;Node3</title>
<path fill="none" stroke="midnightblue" d="M77.19,-238.81C85.51,-229.65 95.8,-218.3 103.77,-209.52"/>
<polygon fill="midnightblue" stroke="midnightblue" points="74.37,-236.72 70.24,-246.48 79.55,-241.42 74.37,-236.72"/>
</g>
<!-- Node4 -->
<g id="node4" class="node">
<title>Node4</title>
<g id="a_node4"><a xlink:href="app__settings_8hh.html" target="_top" xlink:title="Settings for application components.">
<polygon fill="none" stroke="black" points="37,-67.5 37,-86.5 196,-86.5 196,-67.5 37,-67.5"/>
<text text-anchor="middle" x="116.5" y="-74.5" font-family="Helvetica,sans-Serif" font-size="10.00">app_settings/app_settings.hh</text>
</a>
</g>
</g>
<!-- Node3&#45;&gt;Node4 -->
<g id="edge3" class="edge">
<title>Node3&#45;&gt;Node4</title>
<path fill="none" stroke="midnightblue" d="M116.5,-169.21C116.5,-143.41 116.5,-103.99 116.5,-86.67"/>
<polygon fill="midnightblue" stroke="midnightblue" points="113,-169.34 116.5,-179.34 120,-169.34 113,-169.34"/>
</g>
<!-- Node5 -->
<g id="node5" class="node">
<title>Node5</title>
<g id="a_node5"><a xlink:href="comp__settings_8hh.html" target="_top" xlink:title="Settings for shared components.">
<polygon fill="none" stroke="black" points="144.5,-123.5 144.5,-142.5 302.5,-142.5 302.5,-123.5 144.5,-123.5"/>
<text text-anchor="middle" x="223.5" y="-130.5" font-family="Helvetica,sans-Serif" font-size="10.00">config_kvs/comp_settings.hh</text>
</a>
</g>
</g>
<!-- Node3&#45;&gt;Node5 -->
<g id="edge5" class="edge">
<title>Node3&#45;&gt;Node5</title>
<path fill="none" stroke="midnightblue" d="M150.66,-174.51C169.89,-163.81 192.98,-150.97 207.93,-142.66"/>
<polygon fill="midnightblue" stroke="midnightblue" points="148.9,-171.48 141.86,-179.4 152.3,-177.6 148.9,-171.48"/>
</g>
<!-- Node4&#45;&gt;Node2 -->
<g id="edge4" class="edge">
<title>Node4&#45;&gt;Node2</title>
<path fill="none" stroke="midnightblue" d="M116.5,-57.23C116.5,-48.59 116.5,-38.5 116.5,-30.52"/>
<polygon fill="midnightblue" stroke="midnightblue" points="113,-57.48 116.5,-67.48 120,-57.48 113,-57.48"/>
</g>
<!-- Node5&#45;&gt;Node2 -->
<g id="edge6" class="edge">
<title>Node5&#45;&gt;Node2</title>
<path fill="none" stroke="midnightblue" d="M221.77,-113.09C219.65,-99.1 214.95,-80.26 204.5,-67 191.75,-50.81 172.27,-38.87 154.88,-30.68"/>
<polygon fill="midnightblue" stroke="midnightblue" points="218.3,-113.55 222.97,-123.06 225.25,-112.71 218.3,-113.55"/>
</g>
<!-- Node5&#45;&gt;Node4 -->
<g id="edge7" class="edge">
<title>Node5&#45;&gt;Node4</title>
<path fill="none" stroke="midnightblue" d="M197.2,-118.73C177.39,-108.73 150.79,-95.31 133.65,-86.65"/>
<polygon fill="midnightblue" stroke="midnightblue" points="195.8,-121.94 206.31,-123.32 198.96,-115.69 195.8,-121.94"/>
</g>
<!-- Node6 -->
<g id="node6" class="node">
<title>Node6</title>
<g id="a_node6"><a xlink:href="config__kvs_8h.html" target="_top" xlink:title="read settings from kvs storage by cb_type">
<polygon fill="none" stroke="black" points="251.5,-67.5 251.5,-86.5 383.5,-86.5 383.5,-67.5 251.5,-67.5"/>
<text text-anchor="middle" x="317.5" y="-74.5" font-family="Helvetica,sans-Serif" font-size="10.00">config_kvs/config_kvs.h</text>
</a>
</g>
</g>
<!-- Node5&#45;&gt;Node6 -->
<g id="edge8" class="edge">
<title>Node5&#45;&gt;Node6</title>
<path fill="none" stroke="midnightblue" d="M247.56,-118.18C264.86,-108.24 287.65,-95.15 302.43,-86.65"/>
<polygon fill="midnightblue" stroke="midnightblue" points="245.53,-115.31 238.6,-123.32 249.02,-121.38 245.53,-115.31"/>
</g>
</g>
</svg>
