<?xml version="1.0" encoding="UTF-8" standalone="no"?>
<!DOCTYPE svg PUBLIC "-//W3C//DTD SVG 1.1//EN"
 "http://www.w3.org/Graphics/SVG/1.1/DTD/svg11.dtd">
<!-- Generated by graphviz version 2.43.0 (0)
 -->
<!-- Title: config_kvs/settings.hh Pages: 1 -->
<svg width="1178pt" height="196pt"
 viewBox="0.00 0.00 1178.00 196.00" xmlns="http://www.w3.org/2000/svg" xmlns:xlink="http://www.w3.org/1999/xlink">
<g id="graph0" class="graph" transform="scale(1 1) rotate(0) translate(4 192)">
<title>config_kvs/settings.hh</title>
<!-- Node1 -->
<g id="node1" class="node">
<title>Node1</title>
<g id="a_node1"><a xlink:title=" ">
<polygon fill="#bfbfbf" stroke="black" points="239.5,-168.5 239.5,-187.5 364.5,-187.5 364.5,-168.5 239.5,-168.5"/>
<text text-anchor="middle" x="302" y="-175.5" font-family="Helvetica,sans-Serif" font-size="10.00">config_kvs/settings.hh</text>
</a>
</g>
</g>
<!-- Node2 -->
<g id="node2" class="node">
<title>Node2</title>
<g id="a_node2"><a xlink:href="options_8hh.html" target="_top" xlink:title="defines strings used in user interface">
<polygon fill="none" stroke="black" points="150.5,-112.5 150.5,-131.5 273.5,-131.5 273.5,-112.5 150.5,-112.5"/>
<text text-anchor="middle" x="212" y="-119.5" font-family="Helvetica,sans-Serif" font-size="10.00">app_config/options.hh</text>
</a>
</g>
</g>
<!-- Node1&#45;&gt;Node2 -->
<g id="edge1" class="edge">
<title>Node1&#45;&gt;Node2</title>
<path fill="none" stroke="midnightblue" d="M287.54,-168.32C273.5,-159.9 251.95,-146.97 235.46,-137.07"/>
<polygon fill="midnightblue" stroke="midnightblue" points="236.8,-133.8 226.42,-131.65 233.2,-139.8 236.8,-133.8"/>
</g>
<!-- Node5 -->
<g id="node5" class="node">
<title>Node5</title>
<g id="a_node5"><a xlink:href="uout__writer_8hh.html" target="_top" xlink:title="Provide an output class hierarchy which knows about the required format (text or JSON) and write func...">
<polygon fill="none" stroke="black" points="625.5,-112.5 625.5,-131.5 736.5,-131.5 736.5,-112.5 625.5,-112.5"/>
<text text-anchor="middle" x="681" y="-119.5" font-family="Helvetica,sans-Serif" font-size="10.00">uout/uout_writer.hh</text>
</a>
</g>
</g>
<!-- Node1&#45;&gt;Node5 -->
<g id="edge4" class="edge">
<title>Node1&#45;&gt;Node5</title>
<path fill="none" stroke="midnightblue" d="M362.05,-168.44C430.99,-158.62 543.7,-142.56 615.03,-132.4"/>
<polygon fill="midnightblue" stroke="midnightblue" points="615.83,-135.82 625.24,-130.94 614.85,-128.89 615.83,-135.82"/>
</g>
<!-- Node15 -->
<g id="node15" class="node">
<title>Node15</title>
<g id="a_node15"><a xlink:title=" ">
<polygon fill="none" stroke="#bfbfbf" points="1114,-56.5 1114,-75.5 1170,-75.5 1170,-56.5 1114,-56.5"/>
<text text-anchor="middle" x="1142" y="-63.5" font-family="Helvetica,sans-Serif" font-size="10.00">assert.h</text>
</a>
</g>
</g>
<!-- Node1&#45;&gt;Node15 -->
<g id="edge26" class="edge">
<title>Node1&#45;&gt;Node15</title>
<path fill="none" stroke="midnightblue" d="M364.71,-172.19C499,-161.22 824.24,-131.12 1103.85,-76.09"/>
<polygon fill="midnightblue" stroke="midnightblue" points="1104.64,-79.5 1113.77,-74.12 1103.28,-72.64 1104.64,-79.5"/>
</g>
<!-- Node18 -->
<g id="node18" class="node">
<title>Node18</title>
<g id="a_node18"><a xlink:href="int__macros_8h.html" target="_top" xlink:title="Basic helper macros for integers.">
<polygon fill="none" stroke="black" points="0,-112.5 0,-131.5 132,-131.5 132,-112.5 0,-112.5"/>
<text text-anchor="middle" x="66" y="-119.5" font-family="Helvetica,sans-Serif" font-size="10.00">utils_misc/int_macros.h</text>
</a>
</g>
</g>
<!-- Node1&#45;&gt;Node18 -->
<g id="edge21" class="edge">
<title>Node1&#45;&gt;Node18</title>
<path fill="none" stroke="midnightblue" d="M264.61,-168.44C223.61,-159.06 157.75,-143.99 113.22,-133.8"/>
<polygon fill="midnightblue" stroke="midnightblue" points="113.75,-130.34 103.22,-131.52 112.19,-137.16 113.75,-130.34"/>
</g>
<!-- Node19 -->
<g id="node19" class="node">
<title>Node19</title>
<g id="a_node19"><a xlink:href="external_2components-misc_2components_2config__kvs_2include_2config__kvs_2config_8h.html" target="_top" xlink:title=" ">
<polygon fill="none" stroke="black" points="231.5,-56.5 231.5,-75.5 286.5,-75.5 286.5,-56.5 231.5,-56.5"/>
<text text-anchor="middle" x="259" y="-63.5" font-family="Helvetica,sans-Serif" font-size="10.00">config.h</text>
</a>
</g>
</g>
<!-- Node1&#45;&gt;Node19 -->
<g id="edge23" class="edge">
<title>Node1&#45;&gt;Node19</title>
<path fill="none" stroke="midnightblue" d="M299.87,-168.42C296.63,-155.83 289.99,-131.69 282,-112 278.25,-102.75 273.29,-92.84 268.94,-84.68"/>
<polygon fill="midnightblue" stroke="midnightblue" points="271.92,-82.84 264.05,-75.75 265.78,-86.2 271.92,-82.84"/>
</g>
<!-- Node3 -->
<g id="node3" class="node">
<title>Node3</title>
<g id="a_node3"><a xlink:title=" ">
<polygon fill="none" stroke="#bfbfbf" points="232.5,-0.5 232.5,-19.5 285.5,-19.5 285.5,-0.5 232.5,-0.5"/>
<text text-anchor="middle" x="259" y="-7.5" font-family="Helvetica,sans-Serif" font-size="10.00">stdint.h</text>
</a>
</g>
</g>
<!-- Node2&#45;&gt;Node3 -->
<g id="edge2" class="edge">
<title>Node2&#45;&gt;Node3</title>
<path fill="none" stroke="midnightblue" d="M211.9,-112.18C212.08,-99.27 213.61,-74.76 222,-56 226.83,-45.2 234.97,-34.87 242.39,-26.84"/>
<polygon fill="midnightblue" stroke="midnightblue" points="244.94,-29.24 249.42,-19.64 239.93,-24.35 244.94,-29.24"/>
</g>
<!-- Node4 -->
<g id="node4" class="node">
<title>Node4</title>
<g id="a_node4"><a xlink:title=" ">
<polygon fill="none" stroke="#bfbfbf" points="119,-56.5 119,-75.5 175,-75.5 175,-56.5 119,-56.5"/>
<text text-anchor="middle" x="147" y="-63.5" font-family="Helvetica,sans-Serif" font-size="10.00">stddef.h</text>
</a>
</g>
</g>
<!-- Node2&#45;&gt;Node4 -->
<g id="edge3" class="edge">
<title>Node2&#45;&gt;Node4</title>
<path fill="none" stroke="midnightblue" d="M201.56,-112.32C191.85,-104.26 177.18,-92.08 165.5,-82.37"/>
<polygon fill="midnightblue" stroke="midnightblue" points="167.56,-79.53 157.63,-75.83 163.09,-84.92 167.56,-79.53"/>
</g>
<!-- Node5&#45;&gt;Node3 -->
<g id="edge14" class="edge">
<title>Node5&#45;&gt;Node3</title>
<path fill="none" stroke="midnightblue" d="M625.16,-117.68C540.67,-112 384.79,-98.77 334,-76 309.06,-64.82 286.23,-42.54 272.47,-27.2"/>
<polygon fill="midnightblue" stroke="midnightblue" points="275,-24.78 265.81,-19.52 269.71,-29.36 275,-24.78"/>
</g>
<!-- Node6 -->
<g id="node6" class="node">
<title>Node6</title>
<g id="a_node6"><a xlink:href="so__out_8h.html" target="_top" xlink:title="write formatted output to UoutWriter">
<polygon fill="none" stroke="black" points="826,-56.5 826,-75.5 884,-75.5 884,-56.5 826,-56.5"/>
<text text-anchor="middle" x="855" y="-63.5" font-family="Helvetica,sans-Serif" font-size="10.00">so_out.h</text>
</a>
</g>
</g>
<!-- Node5&#45;&gt;Node6 -->
<g id="edge5" class="edge">
<title>Node5&#45;&gt;Node6</title>
<path fill="none" stroke="midnightblue" d="M708.57,-112.44C738.1,-103.28 785.12,-88.69 817.88,-78.52"/>
<polygon fill="midnightblue" stroke="midnightblue" points="819.04,-81.82 827.56,-75.52 816.97,-75.14 819.04,-81.82"/>
</g>
<!-- Node7 -->
<g id="node7" class="node">
<title>Node7</title>
<g id="a_node7"><a xlink:href="so__target__bits_8h.html" target="_top" xlink:title="flags to select output formats and targets">
<polygon fill="none" stroke="black" points="809.5,-0.5 809.5,-19.5 904.5,-19.5 904.5,-0.5 809.5,-0.5"/>
<text text-anchor="middle" x="857" y="-7.5" font-family="Helvetica,sans-Serif" font-size="10.00">so_target_bits.h</text>
</a>
</g>
</g>
<!-- Node5&#45;&gt;Node7 -->
<g id="edge7" class="edge">
<title>Node5&#45;&gt;Node7</title>
<path fill="none" stroke="midnightblue" d="M736.71,-116.96C792.78,-111.59 873.67,-99.86 893,-76 905.47,-60.61 890.02,-40.29 875.67,-26.5"/>
<polygon fill="midnightblue" stroke="midnightblue" points="877.76,-23.67 867.99,-19.58 873.08,-28.87 877.76,-23.67"/>
</g>
<!-- Node8 -->
<g id="node8" class="node">
<title>Node8</title>
<g id="a_node8"><a xlink:href="uout__builder__json_8hh.html" target="_top" xlink:title="Create JSON output from key/val pairs.">
<polygon fill="none" stroke="black" points="978,-56.5 978,-75.5 1096,-75.5 1096,-56.5 978,-56.5"/>
<text text-anchor="middle" x="1037" y="-63.5" font-family="Helvetica,sans-Serif" font-size="10.00">uout_builder_json.hh</text>
</a>
</g>
</g>
<!-- Node5&#45;&gt;Node8 -->
<g id="edge8" class="edge">
<title>Node5&#45;&gt;Node8</title>
<path fill="none" stroke="midnightblue" d="M736.62,-112.56C799.96,-102.96 903.36,-87.27 970.79,-77.04"/>
<polygon fill="midnightblue" stroke="midnightblue" points="971.52,-80.47 980.89,-75.51 970.47,-73.55 971.52,-80.47"/>
</g>
<!-- Node10 -->
<g id="node10" class="node">
<title>Node10</title>
<g id="a_node10"><a xlink:title=" ">
<polygon fill="none" stroke="#bfbfbf" points="924.5,-0.5 924.5,-19.5 989.5,-19.5 989.5,-0.5 924.5,-0.5"/>
<text text-anchor="middle" x="957" y="-7.5" font-family="Helvetica,sans-Serif" font-size="10.00">functional</text>
</a>
</g>
</g>
<!-- Node5&#45;&gt;Node10 -->
<g id="edge19" class="edge">
<title>Node5&#45;&gt;Node10</title>
<path fill="none" stroke="midnightblue" d="M736.7,-121.05C785.6,-118.66 856.86,-109.04 909,-76 926.91,-64.65 940.4,-44.05 948.45,-29.08"/>
<polygon fill="midnightblue" stroke="midnightblue" points="951.76,-30.29 953.14,-19.79 945.51,-27.14 951.76,-30.29"/>
</g>
<!-- Node11 -->
<g id="node11" class="node">
<title>Node11</title>
<g id="a_node11"><a xlink:href="uout__builder__plaintext_8hh_source.html" target="_top" xlink:title=" ">
<polygon fill="none" stroke="black" points="666.5,-56.5 666.5,-75.5 807.5,-75.5 807.5,-56.5 666.5,-56.5"/>
<text text-anchor="middle" x="737" y="-63.5" font-family="Helvetica,sans-Serif" font-size="10.00">uout_builder_plaintext.hh</text>
</a>
</g>
</g>
<!-- Node5&#45;&gt;Node11 -->
<g id="edge11" class="edge">
<title>Node5&#45;&gt;Node11</title>
<path fill="none" stroke="midnightblue" d="M690,-112.32C698.19,-104.42 710.51,-92.55 720.47,-82.94"/>
<polygon fill="midnightblue" stroke="midnightblue" points="723.07,-85.29 727.84,-75.83 718.21,-80.26 723.07,-85.29"/>
</g>
<!-- Node13 -->
<g id="node13" class="node">
<title>Node13</title>
<g id="a_node13"><a xlink:title=" ">
<polygon fill="none" stroke="#bfbfbf" points="343,-56.5 343,-75.5 399,-75.5 399,-56.5 343,-56.5"/>
<text text-anchor="middle" x="371" y="-63.5" font-family="Helvetica,sans-Serif" font-size="10.00">unistd.h</text>
</a>
</g>
</g>
<!-- Node5&#45;&gt;Node13 -->
<g id="edge15" class="edge">
<title>Node5&#45;&gt;Node13</title>
<path fill="none" stroke="midnightblue" d="M625.35,-113.08C572.19,-105.23 489.6,-92.31 409.04,-76.09"/>
<polygon fill="midnightblue" stroke="midnightblue" points="409.73,-72.66 399.23,-74.1 408.34,-79.52 409.73,-72.66"/>
</g>
<!-- Node14 -->
<g id="node14" class="node">
<title>Node14</title>
<g id="a_node14"><a xlink:title=" ">
<polygon fill="none" stroke="#bfbfbf" points="417.5,-56.5 417.5,-75.5 470.5,-75.5 470.5,-56.5 417.5,-56.5"/>
<text text-anchor="middle" x="444" y="-63.5" font-family="Helvetica,sans-Serif" font-size="10.00">string.h</text>
</a>
</g>
</g>
<!-- Node5&#45;&gt;Node14 -->
<g id="edge16" class="edge">
<title>Node5&#45;&gt;Node14</title>
<path fill="none" stroke="midnightblue" d="M641.65,-112.49C603.14,-104.1 542.57,-90.72 480.66,-76.11"/>
<polygon fill="midnightblue" stroke="midnightblue" points="481.26,-72.66 470.72,-73.76 479.64,-79.47 481.26,-72.66"/>
</g>
<!-- Node5&#45;&gt;Node15 -->
<g id="edge17" class="edge">
<title>Node5&#45;&gt;Node15</title>
<path fill="none" stroke="midnightblue" d="M736.55,-117.47C815.96,-111.9 966.64,-99.4 1103.94,-75.97"/>
<polygon fill="midnightblue" stroke="midnightblue" points="1104.54,-79.42 1113.8,-74.27 1103.35,-72.52 1104.54,-79.42"/>
</g>
<!-- Node16 -->
<g id="node16" class="node">
<title>Node16</title>
<g id="a_node16"><a xlink:href="itoa_8h_source.html" target="_top" xlink:title=" ">
<polygon fill="none" stroke="black" points="488.5,-56.5 488.5,-75.5 585.5,-75.5 585.5,-56.5 488.5,-56.5"/>
<text text-anchor="middle" x="537" y="-63.5" font-family="Helvetica,sans-Serif" font-size="10.00">utils_misc/itoa.h</text>
</a>
</g>
</g>
<!-- Node5&#45;&gt;Node16 -->
<g id="edge18" class="edge">
<title>Node5&#45;&gt;Node16</title>
<path fill="none" stroke="midnightblue" d="M658.18,-112.44C634.17,-103.44 596.17,-89.19 569.13,-79.05"/>
<polygon fill="midnightblue" stroke="midnightblue" points="570.3,-75.75 559.71,-75.52 567.84,-82.3 570.3,-75.75"/>
</g>
<!-- Node17 -->
<g id="node17" class="node">
<title>Node17</title>
<g id="a_node17"><a xlink:title=" ">
<polygon fill="none" stroke="#bfbfbf" points="603.5,-56.5 603.5,-75.5 648.5,-75.5 648.5,-56.5 603.5,-56.5"/>
<text text-anchor="middle" x="626" y="-63.5" font-family="Helvetica,sans-Serif" font-size="10.00">utility</text>
</a>
</g>
</g>
<!-- Node5&#45;&gt;Node17 -->
<g id="edge20" class="edge">
<title>Node5&#45;&gt;Node17</title>
<path fill="none" stroke="midnightblue" d="M671.92,-112.08C663.83,-104.14 651.8,-92.34 642.09,-82.8"/>
<polygon fill="midnightblue" stroke="midnightblue" points="644.5,-80.26 634.91,-75.75 639.6,-85.25 644.5,-80.26"/>
</g>
<!-- Node6&#45;&gt;Node7 -->
<g id="edge6" class="edge">
<title>Node6&#45;&gt;Node7</title>
<path fill="none" stroke="midnightblue" d="M855.33,-56.08C855.59,-49.01 855.97,-38.86 856.3,-29.99"/>
<polygon fill="midnightblue" stroke="midnightblue" points="859.8,-29.87 856.68,-19.75 852.81,-29.61 859.8,-29.87"/>
</g>
<!-- Node9 -->
<g id="node9" class="node">
<title>Node9</title>
<g id="a_node9"><a xlink:title=" ">
<polygon fill="none" stroke="#bfbfbf" points="1010.5,-0.5 1010.5,-19.5 1063.5,-19.5 1063.5,-0.5 1010.5,-0.5"/>
<text text-anchor="middle" x="1037" y="-7.5" font-family="Helvetica,sans-Serif" font-size="10.00">stdlib.h</text>
</a>
</g>
</g>
<!-- Node8&#45;&gt;Node9 -->
<g id="edge9" class="edge">
<title>Node8&#45;&gt;Node9</title>
<path fill="none" stroke="midnightblue" d="M1037,-56.08C1037,-49.01 1037,-38.86 1037,-29.99"/>
<polygon fill="midnightblue" stroke="midnightblue" points="1040.5,-29.75 1037,-19.75 1033.5,-29.75 1040.5,-29.75"/>
</g>
<!-- Node8&#45;&gt;Node10 -->
<g id="edge10" class="edge">
<title>Node8&#45;&gt;Node10</title>
<path fill="none" stroke="midnightblue" d="M1024.15,-56.32C1011.78,-47.98 992.87,-35.21 978.26,-25.35"/>
<polygon fill="midnightblue" stroke="midnightblue" points="980.07,-22.35 969.82,-19.65 976.15,-28.15 980.07,-22.35"/>
</g>
<!-- Node11&#45;&gt;Node3 -->
<g id="edge12" class="edge">
<title>Node11&#45;&gt;Node3</title>
<path fill="none" stroke="midnightblue" d="M666.37,-56.95C663.54,-56.63 660.74,-56.31 658,-56 524.58,-40.88 366.06,-23.04 295.73,-15.13"/>
<polygon fill="midnightblue" stroke="midnightblue" points="295.95,-11.63 285.62,-13.99 295.16,-18.59 295.95,-11.63"/>
</g>
<!-- Node12 -->
<g id="node12" class="node">
<title>Node12</title>
<g id="a_node12"><a xlink:title=" ">
<polygon fill="none" stroke="#bfbfbf" points="505,-0.5 505,-19.5 567,-19.5 567,-0.5 505,-0.5"/>
<text text-anchor="middle" x="536" y="-7.5" font-family="Helvetica,sans-Serif" font-size="10.00">stdbool.h</text>
</a>
</g>
</g>
<!-- Node11&#45;&gt;Node12 -->
<g id="edge13" class="edge">
<title>Node11&#45;&gt;Node12</title>
<path fill="none" stroke="midnightblue" d="M705.15,-56.44C670.4,-47.11 614.67,-32.13 576.75,-21.95"/>
<polygon fill="midnightblue" stroke="midnightblue" points="577.61,-18.55 567.04,-19.34 575.79,-25.31 577.61,-18.55"/>
</g>
<!-- Node18&#45;&gt;Node3 -->
<g id="edge22" class="edge">
<title>Node18&#45;&gt;Node3</title>
<path fill="none" stroke="midnightblue" d="M69.49,-112.45C75.61,-98.53 89.59,-71.03 110,-56 143.38,-31.43 190.26,-20.15 222.47,-15.05"/>
<polygon fill="midnightblue" stroke="midnightblue" points="222.99,-18.51 232.38,-13.6 221.98,-11.59 222.99,-18.51"/>
</g>
<!-- Node19&#45;&gt;Node3 -->
<g id="edge24" class="edge">
<title>Node19&#45;&gt;Node3</title>
<path fill="none" stroke="midnightblue" d="M259,-56.08C259,-49.01 259,-38.86 259,-29.99"/>
<polygon fill="midnightblue" stroke="midnightblue" points="262.5,-29.75 259,-19.75 255.5,-29.75 262.5,-29.75"/>
</g>
<!-- Node19&#45;&gt;Node12 -->
<g id="edge25" class="edge">
<title>Node19&#45;&gt;Node12</title>
<path fill="none" stroke="midnightblue" d="M286.57,-59.62C335.4,-50.11 437.3,-30.24 494.59,-19.07"/>
<polygon fill="midnightblue" stroke="midnightblue" points="495.6,-22.44 504.75,-17.09 494.27,-15.57 495.6,-22.44"/>
</g>
</g>
</svg>
