<?xml version="1.0" encoding="UTF-8" standalone="no"?>
<!DOCTYPE svg PUBLIC "-//W3C//DTD SVG 1.1//EN"
 "http://www.w3.org/Graphics/SVG/1.1/DTD/svg11.dtd">
<!-- Generated by graphviz version 2.43.0 (0)
 -->
<!-- Title: fernotron/pos/shutter_pct.h Pages: 1 -->
<svg width="824pt" height="408pt"
 viewBox="0.00 0.00 824.00 408.00" xmlns="http://www.w3.org/2000/svg" xmlns:xlink="http://www.w3.org/1999/xlink">
<g id="graph0" class="graph" transform="scale(1 1) rotate(0) translate(4 404)">
<title>fernotron/pos/shutter_pct.h</title>
<!-- Node1 -->
<g id="node1" class="node">
<title>Node1</title>
<g id="a_node1"><a xlink:title="include positions_static.h and positions_dynamic.h">
<polygon fill="#bfbfbf" stroke="black" points="641.5,-369.5 641.5,-399.5 760.5,-399.5 760.5,-369.5 641.5,-369.5"/>
<text text-anchor="start" x="649.5" y="-387.5" font-family="Helvetica,sans-Serif" font-size="10.00">fernotron/pos/shutter</text>
<text text-anchor="middle" x="701" y="-376.5" font-family="Helvetica,sans-Serif" font-size="10.00">_pct.h</text>
</a>
</g>
</g>
<!-- Node2 -->
<g id="node2" class="node">
<title>Node2</title>
<g id="a_node2"><a xlink:href="positions__static_8h.html" target="_top" xlink:title="Store and retrieve shutter positions (persistently)">
<polygon fill="none" stroke="black" points="714,-313.5 714,-332.5 816,-332.5 816,-313.5 714,-313.5"/>
<text text-anchor="middle" x="765" y="-320.5" font-family="Helvetica,sans-Serif" font-size="10.00">positions_static.h</text>
</a>
</g>
</g>
<!-- Node1&#45;&gt;Node2 -->
<g id="edge1" class="edge">
<title>Node1&#45;&gt;Node2</title>
<path fill="none" stroke="midnightblue" d="M716.17,-369.4C725.75,-360.49 738.16,-348.95 748.07,-339.74"/>
<polygon fill="midnightblue" stroke="midnightblue" points="750.75,-342.03 755.69,-332.66 745.98,-336.9 750.75,-342.03"/>
</g>
<!-- Node7 -->
<g id="node7" class="node">
<title>Node7</title>
<g id="a_node7"><a xlink:href="positions__dynamic_8h.html" target="_top" xlink:title="Keep track of positions for a currently moving shutter.">
<polygon fill="none" stroke="black" points="578.5,-313.5 578.5,-332.5 695.5,-332.5 695.5,-313.5 578.5,-313.5"/>
<text text-anchor="middle" x="637" y="-320.5" font-family="Helvetica,sans-Serif" font-size="10.00">positions_dynamic.h</text>
</a>
</g>
</g>
<!-- Node1&#45;&gt;Node7 -->
<g id="edge8" class="edge">
<title>Node1&#45;&gt;Node7</title>
<path fill="none" stroke="midnightblue" d="M685.83,-369.4C676.25,-360.49 663.84,-348.95 653.93,-339.74"/>
<polygon fill="midnightblue" stroke="midnightblue" points="656.02,-336.9 646.31,-332.66 651.25,-342.03 656.02,-336.9"/>
</g>
<!-- Node3 -->
<g id="node3" class="node">
<title>Node3</title>
<g id="a_node3"><a xlink:href="fer__pct_8h.html" target="_top" xlink:title="class Pct to represent shutter opening percentage">
<polygon fill="none" stroke="black" points="670.5,-252 670.5,-271 777.5,-271 777.5,-252 670.5,-252"/>
<text text-anchor="middle" x="724" y="-259" font-family="Helvetica,sans-Serif" font-size="10.00">fernotron/fer_pct.h</text>
</a>
</g>
</g>
<!-- Node2&#45;&gt;Node3 -->
<g id="edge2" class="edge">
<title>Node2&#45;&gt;Node3</title>
<path fill="none" stroke="midnightblue" d="M759.13,-313.48C753.04,-304.64 743.36,-290.59 735.7,-279.48"/>
<polygon fill="midnightblue" stroke="midnightblue" points="738.42,-277.26 729.86,-271.01 732.66,-281.23 738.42,-277.26"/>
</g>
<!-- Node5 -->
<g id="node5" class="node">
<title>Node5</title>
<g id="a_node5"><a xlink:title=" ">
<polygon fill="none" stroke="#bfbfbf" points="689,-118 689,-137 751,-137 751,-118 689,-118"/>
<text text-anchor="middle" x="720" y="-125" font-family="Helvetica,sans-Serif" font-size="10.00">stdbool.h</text>
</a>
</g>
</g>
<!-- Node2&#45;&gt;Node5 -->
<g id="edge7" class="edge">
<title>Node2&#45;&gt;Node5</title>
<path fill="none" stroke="midnightblue" d="M770.64,-313.48C776.05,-304.74 783.86,-290.56 787,-277 790.11,-263.58 789.71,-259.51 787,-246 780.65,-214.36 775.22,-206.9 759,-179 752.01,-166.98 742.49,-154.6 734.61,-145.11"/>
<polygon fill="midnightblue" stroke="midnightblue" points="737.1,-142.63 727.95,-137.29 731.78,-147.17 737.1,-142.63"/>
</g>
<!-- Node4 -->
<g id="node4" class="node">
<title>Node4</title>
<g id="a_node4"><a xlink:title=" ">
<polygon fill="none" stroke="#bfbfbf" points="568.5,-118 568.5,-137 621.5,-137 621.5,-118 568.5,-118"/>
<text text-anchor="middle" x="595" y="-125" font-family="Helvetica,sans-Serif" font-size="10.00">stdint.h</text>
</a>
</g>
</g>
<!-- Node3&#45;&gt;Node4 -->
<g id="edge3" class="edge">
<title>Node3&#45;&gt;Node4</title>
<path fill="none" stroke="midnightblue" d="M725.13,-251.84C726.74,-235.72 727.85,-200.75 711,-179 691.76,-154.17 657.81,-141.32 631.6,-134.82"/>
<polygon fill="midnightblue" stroke="midnightblue" points="632.15,-131.35 621.62,-132.55 630.59,-138.18 632.15,-131.35"/>
</g>
<!-- Node3&#45;&gt;Node5 -->
<g id="edge4" class="edge">
<title>Node3&#45;&gt;Node5</title>
<path fill="none" stroke="midnightblue" d="M728.59,-251.87C733.53,-242.05 741.07,-225.38 744,-210 746.58,-196.47 747.03,-192.44 744,-179 741.37,-167.33 735.71,-155.2 730.55,-145.75"/>
<polygon fill="midnightblue" stroke="midnightblue" points="733.53,-143.92 725.5,-137.01 727.47,-147.42 733.53,-143.92"/>
</g>
<!-- Node6 -->
<g id="node6" class="node">
<title>Node6</title>
<g id="a_node6"><a xlink:href="int__macros_8h.html" target="_top" xlink:title="Basic helper macros for integers.">
<polygon fill="none" stroke="black" points="428,-185 428,-204 560,-204 560,-185 428,-185"/>
<text text-anchor="middle" x="494" y="-192" font-family="Helvetica,sans-Serif" font-size="10.00">utils_misc/int_macros.h</text>
</a>
</g>
</g>
<!-- Node3&#45;&gt;Node6 -->
<g id="edge5" class="edge">
<title>Node3&#45;&gt;Node6</title>
<path fill="none" stroke="midnightblue" d="M693.46,-251.87C652.45,-240.28 579.5,-219.66 534.1,-206.83"/>
<polygon fill="midnightblue" stroke="midnightblue" points="534.88,-203.42 524.3,-204.06 532.97,-210.15 534.88,-203.42"/>
</g>
<!-- Node6&#45;&gt;Node4 -->
<g id="edge6" class="edge">
<title>Node6&#45;&gt;Node4</title>
<path fill="none" stroke="midnightblue" d="M507.62,-184.73C524.43,-173.92 553.23,-155.38 573.14,-142.57"/>
<polygon fill="midnightblue" stroke="midnightblue" points="575.08,-145.48 581.59,-137.13 571.29,-139.6 575.08,-145.48"/>
</g>
<!-- Node7&#45;&gt;Node3 -->
<g id="edge9" class="edge">
<title>Node7&#45;&gt;Node3</title>
<path fill="none" stroke="midnightblue" d="M649.46,-313.48C663.42,-303.93 686.26,-288.31 702.99,-276.87"/>
<polygon fill="midnightblue" stroke="midnightblue" points="705.28,-279.54 711.56,-271.01 701.33,-273.77 705.28,-279.54"/>
</g>
<!-- Node8 -->
<g id="node8" class="node">
<title>Node8</title>
<g id="a_node8"><a xlink:href="fer__trx__c__api_8h.html" target="_top" xlink:title="C&#45;API for sending and receiving Fernotron RF messages.">
<polygon fill="none" stroke="black" points="432,-246.5 432,-276.5 548,-276.5 548,-246.5 432,-246.5"/>
<text text-anchor="start" x="440" y="-264.5" font-family="Helvetica,sans-Serif" font-size="10.00">fernotron_trx/fer_trx</text>
<text text-anchor="middle" x="490" y="-253.5" font-family="Helvetica,sans-Serif" font-size="10.00">_c_api.h</text>
</a>
</g>
</g>
<!-- Node7&#45;&gt;Node8 -->
<g id="edge10" class="edge">
<title>Node7&#45;&gt;Node8</title>
<path fill="none" stroke="midnightblue" d="M615.94,-313.48C594.63,-304.85 561.06,-291.26 533.94,-280.29"/>
<polygon fill="midnightblue" stroke="midnightblue" points="535.23,-277.03 524.64,-276.52 532.6,-283.52 535.23,-277.03"/>
</g>
<!-- Node9 -->
<g id="node9" class="node">
<title>Node9</title>
<g id="a_node9"><a xlink:href="int__types_8h_source.html" target="_top" xlink:title=" ">
<polygon fill="none" stroke="black" points="578.5,-185 578.5,-204 701.5,-204 701.5,-185 578.5,-185"/>
<text text-anchor="middle" x="640" y="-192" font-family="Helvetica,sans-Serif" font-size="10.00">utils_misc/int_types.h</text>
</a>
</g>
</g>
<!-- Node8&#45;&gt;Node9 -->
<g id="edge11" class="edge">
<title>Node8&#45;&gt;Node9</title>
<path fill="none" stroke="midnightblue" d="M522.55,-246.4C548.87,-234.99 585.59,-219.08 610.93,-208.1"/>
<polygon fill="midnightblue" stroke="midnightblue" points="612.58,-211.19 620.37,-204.01 609.8,-204.77 612.58,-211.19"/>
</g>
<!-- Node10 -->
<g id="node10" class="node">
<title>Node10</title>
<g id="a_node10"><a xlink:href="timer__data_8h.html" target="_top" xlink:title="vocabulary types to program Fernotron automatic (timers)">
<polygon fill="none" stroke="black" points="234,-179.5 234,-209.5 344,-209.5 344,-179.5 234,-179.5"/>
<text text-anchor="start" x="242" y="-197.5" font-family="Helvetica,sans-Serif" font-size="10.00">fernotron_trx/timer</text>
<text text-anchor="middle" x="289" y="-186.5" font-family="Helvetica,sans-Serif" font-size="10.00">_data.h</text>
</a>
</g>
</g>
<!-- Node8&#45;&gt;Node10 -->
<g id="edge14" class="edge">
<title>Node8&#45;&gt;Node10</title>
<path fill="none" stroke="midnightblue" d="M446.39,-246.4C415.83,-236.52 374.82,-223.25 342.32,-212.74"/>
<polygon fill="midnightblue" stroke="midnightblue" points="343.12,-209.32 332.53,-209.58 340.97,-215.98 343.12,-209.32"/>
</g>
<!-- Node26 -->
<g id="node26" class="node">
<title>Node26</title>
<g id="a_node26"><a xlink:title=" ">
<polygon fill="none" stroke="#bfbfbf" points="362,-185 362,-204 410,-204 410,-185 362,-185"/>
<text text-anchor="middle" x="386" y="-192" font-family="Helvetica,sans-Serif" font-size="10.00">time.h</text>
</a>
</g>
</g>
<!-- Node8&#45;&gt;Node26 -->
<g id="edge32" class="edge">
<title>Node8&#45;&gt;Node26</title>
<path fill="none" stroke="midnightblue" d="M467.43,-246.4C449.99,-235.5 425.97,-220.48 408.53,-209.58"/>
<polygon fill="midnightblue" stroke="midnightblue" points="409.95,-206.34 399.61,-204.01 406.24,-212.28 409.95,-206.34"/>
</g>
<!-- Node9&#45;&gt;Node4 -->
<g id="edge12" class="edge">
<title>Node9&#45;&gt;Node4</title>
<path fill="none" stroke="midnightblue" d="M633.93,-184.73C626.98,-174.7 615.43,-158.01 606.71,-145.42"/>
<polygon fill="midnightblue" stroke="midnightblue" points="609.54,-143.36 600.97,-137.13 603.79,-147.34 609.54,-143.36"/>
</g>
<!-- Node9&#45;&gt;Node5 -->
<g id="edge13" class="edge">
<title>Node9&#45;&gt;Node5</title>
<path fill="none" stroke="midnightblue" d="M650.79,-184.73C663.74,-174.21 685.69,-156.38 701.39,-143.62"/>
<polygon fill="midnightblue" stroke="midnightblue" points="703.83,-146.15 709.38,-137.13 699.41,-140.72 703.83,-146.15"/>
</g>
<!-- Node10&#45;&gt;Node4 -->
<g id="edge15" class="edge">
<title>Node10&#45;&gt;Node4</title>
<path fill="none" stroke="midnightblue" d="M344.14,-180.94C347.14,-180.28 350.11,-179.63 353,-179 425.71,-163.18 510.94,-145.62 558.38,-135.94"/>
<polygon fill="midnightblue" stroke="midnightblue" points="559.37,-139.31 568.47,-133.88 557.97,-132.45 559.37,-139.31"/>
</g>
<!-- Node10&#45;&gt;Node5 -->
<g id="edge16" class="edge">
<title>Node10&#45;&gt;Node5</title>
<path fill="none" stroke="midnightblue" d="M344.09,-180.67C347.1,-180.08 350.08,-179.52 353,-179 475.23,-157.26 507.15,-160.88 630,-143 645.91,-140.69 663.36,-137.93 678.62,-135.44"/>
<polygon fill="midnightblue" stroke="midnightblue" points="679.5,-138.84 688.8,-133.77 678.36,-131.93 679.5,-138.84"/>
</g>
<!-- Node11 -->
<g id="node11" class="node">
<title>Node11</title>
<g id="a_node11"><a xlink:title=" ">
<polygon fill="none" stroke="#bfbfbf" points="191.5,-118 191.5,-137 244.5,-137 244.5,-118 191.5,-118"/>
<text text-anchor="middle" x="218" y="-125" font-family="Helvetica,sans-Serif" font-size="10.00">string.h</text>
</a>
</g>
</g>
<!-- Node10&#45;&gt;Node11 -->
<g id="edge17" class="edge">
<title>Node10&#45;&gt;Node11</title>
<path fill="none" stroke="midnightblue" d="M273.59,-179.4C262.19,-168.96 246.67,-154.75 234.93,-144"/>
<polygon fill="midnightblue" stroke="midnightblue" points="237.24,-141.37 227.5,-137.19 232.51,-146.53 237.24,-141.37"/>
</g>
<!-- Node12 -->
<g id="node12" class="node">
<title>Node12</title>
<g id="a_node12"><a xlink:title=" ">
<polygon fill="none" stroke="#bfbfbf" points="262.5,-118 262.5,-137 315.5,-137 315.5,-118 262.5,-118"/>
<text text-anchor="middle" x="289" y="-125" font-family="Helvetica,sans-Serif" font-size="10.00">ctype.h</text>
</a>
</g>
</g>
<!-- Node10&#45;&gt;Node12 -->
<g id="edge18" class="edge">
<title>Node10&#45;&gt;Node12</title>
<path fill="none" stroke="midnightblue" d="M289,-179.4C289,-170.06 289,-157.71 289,-147.52"/>
<polygon fill="midnightblue" stroke="midnightblue" points="292.5,-147.19 289,-137.19 285.5,-147.19 292.5,-147.19"/>
</g>
<!-- Node13 -->
<g id="node13" class="node">
<title>Node13</title>
<g id="a_node13"><a xlink:title=" ">
<polygon fill="none" stroke="#bfbfbf" points="334,-118 334,-137 384,-137 384,-118 334,-118"/>
<text text-anchor="middle" x="359" y="-125" font-family="Helvetica,sans-Serif" font-size="10.00">stdio.h</text>
</a>
</g>
</g>
<!-- Node10&#45;&gt;Node13 -->
<g id="edge19" class="edge">
<title>Node10&#45;&gt;Node13</title>
<path fill="none" stroke="midnightblue" d="M304.19,-179.4C315.32,-169.06 330.44,-155.02 341.97,-144.31"/>
<polygon fill="midnightblue" stroke="midnightblue" points="344.69,-146.56 349.64,-137.19 339.93,-141.43 344.69,-146.56"/>
</g>
<!-- Node14 -->
<g id="node14" class="node">
<title>Node14</title>
<g id="a_node14"><a xlink:href="cstring__utils_8hh_source.html" target="_top" xlink:title=" ">
<polygon fill="none" stroke="black" points="402,-112.5 402,-142.5 504,-142.5 504,-112.5 402,-112.5"/>
<text text-anchor="start" x="410" y="-130.5" font-family="Helvetica,sans-Serif" font-size="10.00">utils_misc/cstring</text>
<text text-anchor="middle" x="453" y="-119.5" font-family="Helvetica,sans-Serif" font-size="10.00">_utils.hh</text>
</a>
</g>
</g>
<!-- Node10&#45;&gt;Node14 -->
<g id="edge20" class="edge">
<title>Node10&#45;&gt;Node14</title>
<path fill="none" stroke="midnightblue" d="M324.59,-179.4C349.09,-169.69 381.83,-156.71 408.12,-146.29"/>
<polygon fill="midnightblue" stroke="midnightblue" points="409.48,-149.51 417.48,-142.58 406.9,-143.01 409.48,-149.51"/>
</g>
<!-- Node20 -->
<g id="node20" class="node">
<title>Node20</title>
<g id="a_node20"><a xlink:href="dbg_8h_source.html" target="_top" xlink:title=" ">
<polygon fill="none" stroke="black" points="96.5,-118 96.5,-137 173.5,-137 173.5,-118 96.5,-118"/>
<text text-anchor="middle" x="135" y="-125" font-family="Helvetica,sans-Serif" font-size="10.00">debug/dbg.h</text>
</a>
</g>
</g>
<!-- Node10&#45;&gt;Node20 -->
<g id="edge26" class="edge">
<title>Node10&#45;&gt;Node20</title>
<path fill="none" stroke="midnightblue" d="M255.58,-179.4C228.44,-167.94 190.53,-151.94 164.5,-140.95"/>
<polygon fill="midnightblue" stroke="midnightblue" points="165.73,-137.67 155.16,-137.01 163.01,-144.12 165.73,-137.67"/>
</g>
<!-- Node15 -->
<g id="node15" class="node">
<title>Node15</title>
<g id="a_node15"><a xlink:title=" ">
<polygon fill="none" stroke="#bfbfbf" points="350,-56.5 350,-75.5 400,-75.5 400,-56.5 350,-56.5"/>
<text text-anchor="middle" x="375" y="-63.5" font-family="Helvetica,sans-Serif" font-size="10.00">cstring</text>
</a>
</g>
</g>
<!-- Node14&#45;&gt;Node15 -->
<g id="edge21" class="edge">
<title>Node14&#45;&gt;Node15</title>
<path fill="none" stroke="midnightblue" d="M434.52,-112.4C422.48,-103.22 406.8,-91.26 394.56,-81.92"/>
<polygon fill="midnightblue" stroke="midnightblue" points="396.42,-78.94 386.35,-75.66 392.18,-84.51 396.42,-78.94"/>
</g>
<!-- Node16 -->
<g id="node16" class="node">
<title>Node16</title>
<g id="a_node16"><a xlink:title=" ">
<polygon fill="none" stroke="#bfbfbf" points="418.5,-56.5 418.5,-75.5 487.5,-75.5 487.5,-56.5 418.5,-56.5"/>
<text text-anchor="middle" x="453" y="-63.5" font-family="Helvetica,sans-Serif" font-size="10.00">type_traits</text>
</a>
</g>
</g>
<!-- Node14&#45;&gt;Node16 -->
<g id="edge22" class="edge">
<title>Node14&#45;&gt;Node16</title>
<path fill="none" stroke="midnightblue" d="M453,-112.4C453,-104.47 453,-94.46 453,-85.86"/>
<polygon fill="midnightblue" stroke="midnightblue" points="456.5,-85.66 453,-75.66 449.5,-85.66 456.5,-85.66"/>
</g>
<!-- Node17 -->
<g id="node17" class="node">
<title>Node17</title>
<g id="a_node17"><a xlink:href="allocator__malloc_8hh_source.html" target="_top" xlink:title=" ">
<polygon fill="none" stroke="black" points="505.5,-56.5 505.5,-75.5 618.5,-75.5 618.5,-56.5 505.5,-56.5"/>
<text text-anchor="middle" x="562" y="-63.5" font-family="Helvetica,sans-Serif" font-size="10.00">allocator_malloc.hh</text>
</a>
</g>
</g>
<!-- Node14&#45;&gt;Node17 -->
<g id="edge23" class="edge">
<title>Node14&#45;&gt;Node17</title>
<path fill="none" stroke="midnightblue" d="M478.83,-112.4C496.47,-102.77 519.7,-90.09 537.13,-80.58"/>
<polygon fill="midnightblue" stroke="midnightblue" points="539.04,-83.52 546.14,-75.66 535.69,-77.38 539.04,-83.52"/>
</g>
<!-- Node18 -->
<g id="node18" class="node">
<title>Node18</title>
<g id="a_node18"><a xlink:title=" ">
<polygon fill="none" stroke="#bfbfbf" points="571,-0.5 571,-19.5 629,-19.5 629,-0.5 571,-0.5"/>
<text text-anchor="middle" x="600" y="-7.5" font-family="Helvetica,sans-Serif" font-size="10.00">memory</text>
</a>
</g>
</g>
<!-- Node17&#45;&gt;Node18 -->
<g id="edge24" class="edge">
<title>Node17&#45;&gt;Node18</title>
<path fill="none" stroke="midnightblue" d="M568.27,-56.08C573.64,-48.46 581.52,-37.26 588.08,-27.94"/>
<polygon fill="midnightblue" stroke="midnightblue" points="590.95,-29.94 593.84,-19.75 585.22,-25.91 590.95,-29.94"/>
</g>
<!-- Node19 -->
<g id="node19" class="node">
<title>Node19</title>
<g id="a_node19"><a xlink:title=" ">
<polygon fill="none" stroke="#bfbfbf" points="493.5,-0.5 493.5,-19.5 552.5,-19.5 552.5,-0.5 493.5,-0.5"/>
<text text-anchor="middle" x="523" y="-7.5" font-family="Helvetica,sans-Serif" font-size="10.00">malloc.h</text>
</a>
</g>
</g>
<!-- Node17&#45;&gt;Node19 -->
<g id="edge25" class="edge">
<title>Node17&#45;&gt;Node19</title>
<path fill="none" stroke="midnightblue" d="M555.56,-56.08C550.05,-48.46 541.97,-37.26 535.24,-27.94"/>
<polygon fill="midnightblue" stroke="midnightblue" points="538.01,-25.81 529.32,-19.75 532.34,-29.91 538.01,-25.81"/>
</g>
<!-- Node21 -->
<g id="node21" class="node">
<title>Node21</title>
<g id="a_node21"><a xlink:href="log_8h_source.html" target="_top" xlink:title=" ">
<polygon fill="none" stroke="black" points="148.5,-56.5 148.5,-75.5 189.5,-75.5 189.5,-56.5 148.5,-56.5"/>
<text text-anchor="middle" x="169" y="-63.5" font-family="Helvetica,sans-Serif" font-size="10.00">log.h</text>
</a>
</g>
</g>
<!-- Node20&#45;&gt;Node21 -->
<g id="edge27" class="edge">
<title>Node20&#45;&gt;Node21</title>
<path fill="none" stroke="midnightblue" d="M139.87,-117.98C144.87,-109.23 152.79,-95.37 159.11,-84.31"/>
<polygon fill="midnightblue" stroke="midnightblue" points="162.22,-85.93 164.14,-75.51 156.14,-82.46 162.22,-85.93"/>
</g>
<!-- Node23 -->
<g id="node23" class="node">
<title>Node23</title>
<g id="a_node23"><a xlink:title=" ">
<polygon fill="none" stroke="#bfbfbf" points="207.5,-56.5 207.5,-75.5 260.5,-75.5 260.5,-56.5 207.5,-56.5"/>
<text text-anchor="middle" x="234" y="-63.5" font-family="Helvetica,sans-Serif" font-size="10.00">stdlib.h</text>
</a>
</g>
</g>
<!-- Node20&#45;&gt;Node23 -->
<g id="edge29" class="edge">
<title>Node20&#45;&gt;Node23</title>
<path fill="none" stroke="midnightblue" d="M149.18,-117.98C165.36,-108.25 192.03,-92.23 211.14,-80.74"/>
<polygon fill="midnightblue" stroke="midnightblue" points="213.07,-83.66 219.84,-75.51 209.47,-77.66 213.07,-83.66"/>
</g>
<!-- Node24 -->
<g id="node24" class="node">
<title>Node24</title>
<g id="a_node24"><a xlink:title=" ">
<polygon fill="none" stroke="#bfbfbf" points="0,-56.5 0,-75.5 56,-75.5 56,-56.5 0,-56.5"/>
<text text-anchor="middle" x="28" y="-63.5" font-family="Helvetica,sans-Serif" font-size="10.00">unistd.h</text>
</a>
</g>
</g>
<!-- Node20&#45;&gt;Node24 -->
<g id="edge30" class="edge">
<title>Node20&#45;&gt;Node24</title>
<path fill="none" stroke="midnightblue" d="M119.67,-117.98C102.03,-108.17 72.84,-91.93 52.14,-80.42"/>
<polygon fill="midnightblue" stroke="midnightblue" points="53.74,-77.31 43.3,-75.51 50.34,-83.43 53.74,-77.31"/>
</g>
<!-- Node25 -->
<g id="node25" class="node">
<title>Node25</title>
<g id="a_node25"><a xlink:title=" ">
<polygon fill="none" stroke="#bfbfbf" points="74,-56.5 74,-75.5 130,-75.5 130,-56.5 74,-56.5"/>
<text text-anchor="middle" x="102" y="-63.5" font-family="Helvetica,sans-Serif" font-size="10.00">assert.h</text>
</a>
</g>
</g>
<!-- Node20&#45;&gt;Node25 -->
<g id="edge31" class="edge">
<title>Node20&#45;&gt;Node25</title>
<path fill="none" stroke="midnightblue" d="M130.27,-117.98C125.42,-109.23 117.73,-95.37 111.6,-84.31"/>
<polygon fill="midnightblue" stroke="midnightblue" points="114.63,-82.56 106.72,-75.51 108.51,-85.95 114.63,-82.56"/>
</g>
<!-- Node22 -->
<g id="node22" class="node">
<title>Node22</title>
<g id="a_node22"><a xlink:title=" ">
<polygon fill="none" stroke="#bfbfbf" points="137.5,-0.5 137.5,-19.5 200.5,-19.5 200.5,-0.5 137.5,-0.5"/>
<text text-anchor="middle" x="169" y="-7.5" font-family="Helvetica,sans-Serif" font-size="10.00">esp_log.h</text>
</a>
</g>
</g>
<!-- Node21&#45;&gt;Node22 -->
<g id="edge28" class="edge">
<title>Node21&#45;&gt;Node22</title>
<path fill="none" stroke="midnightblue" d="M169,-56.08C169,-49.01 169,-38.86 169,-29.99"/>
<polygon fill="midnightblue" stroke="midnightblue" points="172.5,-29.75 169,-19.75 165.5,-29.75 172.5,-29.75"/>
</g>
</g>
</svg>
