<?xml version="1.0" encoding="UTF-8" standalone="no"?>
<!DOCTYPE svg PUBLIC "-//W3C//DTD SVG 1.1//EN"
 "http://www.w3.org/Graphics/SVG/1.1/DTD/svg11.dtd">
<!-- Generated by graphviz version 2.43.0 (0)
 -->
<!-- Title: uout/so_target_bits.h Pages: 1 -->
<svg width="1082pt" height="486pt"
 viewBox="0.00 0.00 1081.83 486.00" xmlns="http://www.w3.org/2000/svg" xmlns:xlink="http://www.w3.org/1999/xlink">
<g id="graph0" class="graph" transform="scale(1 1) rotate(0) translate(4 482)">
<title>uout/so_target_bits.h</title>
<!-- Node1 -->
<g id="node1" class="node">
<title>Node1</title>
<g id="a_node1"><a xlink:title="flags to select output formats and targets">
<polygon fill="#bfbfbf" stroke="black" points="469.5,-458.5 469.5,-477.5 588.5,-477.5 588.5,-458.5 469.5,-458.5"/>
<text text-anchor="middle" x="529" y="-465.5" font-family="Helvetica,sans-Serif" font-size="10.00">uout/so_target_bits.h</text>
</a>
</g>
</g>
<!-- Node2 -->
<g id="node2" class="node">
<title>Node2</title>
<g id="a_node2"><a xlink:href="so__out_8h.html" target="_top" xlink:title="write formatted output to UoutWriter">
<polygon fill="none" stroke="black" points="487.5,-402.5 487.5,-421.5 570.5,-421.5 570.5,-402.5 487.5,-402.5"/>
<text text-anchor="middle" x="529" y="-409.5" font-family="Helvetica,sans-Serif" font-size="10.00">uout/so_out.h</text>
</a>
</g>
</g>
<!-- Node1&#45;&gt;Node2 -->
<g id="edge1" class="edge">
<title>Node1&#45;&gt;Node2</title>
<path fill="none" stroke="midnightblue" d="M529,-447.8C529,-438.91 529,-428.78 529,-421.75"/>
<polygon fill="midnightblue" stroke="midnightblue" points="525.5,-448.08 529,-458.08 532.5,-448.08 525.5,-448.08"/>
</g>
<!-- Node3 -->
<g id="node3" class="node">
<title>Node3</title>
<g id="a_node3"><a xlink:href="uo__types_8h.html" target="_top" xlink:title="API parameter and return types.">
<polygon fill="none" stroke="black" points="430.5,-290.5 430.5,-309.5 525.5,-309.5 525.5,-290.5 430.5,-290.5"/>
<text text-anchor="middle" x="478" y="-297.5" font-family="Helvetica,sans-Serif" font-size="10.00">uout/uo_types.h</text>
</a>
</g>
</g>
<!-- Node1&#45;&gt;Node3 -->
<g id="edge26" class="edge">
<title>Node1&#45;&gt;Node3</title>
<path fill="none" stroke="midnightblue" d="M504.88,-452.47C494.56,-444.83 483.62,-434.44 478,-422 460.55,-383.32 470.64,-330.35 475.67,-309.72"/>
<polygon fill="midnightblue" stroke="midnightblue" points="503.04,-455.46 513.27,-458.24 507.01,-449.69 503.04,-455.46"/>
</g>
<!-- Node13 -->
<g id="node13" class="node">
<title>Node13</title>
<g id="a_node13"><a xlink:href="uout__writer_8hh.html" target="_top" xlink:title="Provide an output class hierarchy which knows about the required format (text or JSON) and write func...">
<polygon fill="none" stroke="black" points="538.5,-346.5 538.5,-365.5 649.5,-365.5 649.5,-346.5 538.5,-346.5"/>
<text text-anchor="middle" x="594" y="-353.5" font-family="Helvetica,sans-Serif" font-size="10.00">uout/uout_writer.hh</text>
</a>
</g>
</g>
<!-- Node1&#45;&gt;Node13 -->
<g id="edge27" class="edge">
<title>Node1&#45;&gt;Node13</title>
<path fill="none" stroke="midnightblue" d="M550.64,-452.37C560.69,-444.5 571.96,-433.95 579,-422 589.7,-403.84 592.77,-378.65 593.65,-365.6"/>
<polygon fill="midnightblue" stroke="midnightblue" points="548.54,-449.56 542.59,-458.33 552.71,-455.19 548.54,-449.56"/>
</g>
<!-- Node2&#45;&gt;Node3 -->
<g id="edge2" class="edge">
<title>Node2&#45;&gt;Node3</title>
<path fill="none" stroke="midnightblue" d="M520.65,-393C509.53,-369 490.27,-327.47 481.98,-309.59"/>
<polygon fill="midnightblue" stroke="midnightblue" points="517.62,-394.77 525,-402.37 523.97,-391.82 517.62,-394.77"/>
</g>
<!-- Node2&#45;&gt;Node13 -->
<g id="edge15" class="edge">
<title>Node2&#45;&gt;Node13</title>
<path fill="none" stroke="midnightblue" d="M547.27,-395.82C558.92,-386.15 573.6,-373.95 583.37,-365.83"/>
<polygon fill="midnightblue" stroke="midnightblue" points="544.9,-393.24 539.44,-402.32 549.37,-398.63 544.9,-393.24"/>
</g>
<!-- Node4 -->
<g id="node4" class="node">
<title>Node4</title>
<g id="a_node4"><a xlink:href="so__types_8h_source.html" target="_top" xlink:title=" ">
<polygon fill="none" stroke="black" points="122.5,-145.5 122.5,-164.5 239.5,-164.5 239.5,-145.5 122.5,-145.5"/>
<text text-anchor="middle" x="181" y="-152.5" font-family="Helvetica,sans-Serif" font-size="10.00">app_uout/so_types.h</text>
</a>
</g>
</g>
<!-- Node3&#45;&gt;Node4 -->
<g id="edge3" class="edge">
<title>Node3&#45;&gt;Node4</title>
<path fill="none" stroke="midnightblue" d="M451.15,-286.07C391.49,-257.35 249.24,-188.86 198.97,-164.65"/>
<polygon fill="midnightblue" stroke="midnightblue" points="449.78,-289.3 460.31,-290.48 452.82,-282.99 449.78,-289.3"/>
</g>
<!-- Node6 -->
<g id="node6" class="node">
<title>Node6</title>
<g id="a_node6"><a xlink:href="status__output_8h.html" target="_top" xlink:title=" ">
<polygon fill="none" stroke="black" points="448,-6 448,-25 588,-25 588,-6 448,-6"/>
<text text-anchor="middle" x="518" y="-13" font-family="Helvetica,sans-Serif" font-size="10.00">app_uout/status_output.h</text>
</a>
</g>
</g>
<!-- Node3&#45;&gt;Node6 -->
<g id="edge7" class="edge">
<title>Node3&#45;&gt;Node6</title>
<path fill="none" stroke="midnightblue" d="M520.34,-287.36C565.58,-272.41 634.96,-241.62 666,-187 680.05,-162.27 678.97,-148.31 666,-123 639.66,-71.59 575.66,-39.35 541.08,-25.08"/>
<polygon fill="midnightblue" stroke="midnightblue" points="519.26,-284.03 510.79,-290.4 521.38,-290.7 519.26,-284.03"/>
</g>
<!-- Node7 -->
<g id="node7" class="node">
<title>Node7</title>
<g id="a_node7"><a xlink:href="cli_8h.html" target="_top" xlink:title="cli framework">
<polygon fill="none" stroke="black" points="98.5,-229 98.5,-248 149.5,-248 149.5,-229 98.5,-229"/>
<text text-anchor="middle" x="124" y="-236" font-family="Helvetica,sans-Serif" font-size="10.00">cli/cli.h</text>
</a>
</g>
</g>
<!-- Node3&#45;&gt;Node7 -->
<g id="edge8" class="edge">
<title>Node3&#45;&gt;Node7</title>
<path fill="none" stroke="midnightblue" d="M420.1,-289.27C342.04,-276.15 206.32,-253.34 149.83,-243.84"/>
<polygon fill="midnightblue" stroke="midnightblue" points="419.82,-292.77 430.26,-290.98 420.98,-285.87 419.82,-292.77"/>
</g>
<!-- Node9 -->
<g id="node9" class="node">
<title>Node9</title>
<g id="a_node9"><a xlink:href="uo__callbacks_8h.html" target="_top" xlink:title="pub/sub interface to publish asynchronously to MQTT servers, HTTP&#45;client web&#45;sockets,...">
<polygon fill="none" stroke="black" points="421.5,-229 421.5,-248 534.5,-248 534.5,-229 421.5,-229"/>
<text text-anchor="middle" x="478" y="-236" font-family="Helvetica,sans-Serif" font-size="10.00">uout/uo_callbacks.h</text>
</a>
</g>
</g>
<!-- Node3&#45;&gt;Node9 -->
<g id="edge10" class="edge">
<title>Node3&#45;&gt;Node9</title>
<path fill="none" stroke="midnightblue" d="M478,-280.32C478,-269.5 478,-256.4 478,-248.01"/>
<polygon fill="midnightblue" stroke="midnightblue" points="474.5,-280.48 478,-290.48 481.5,-280.48 474.5,-280.48"/>
</g>
<!-- Node5 -->
<g id="node5" class="node">
<title>Node5</title>
<g id="a_node5"><a xlink:href="components_2tronferno_2app__uout_2include_2app__uout_2so__msg_8h_source.html" target="_top" xlink:title=" ">
<polygon fill="none" stroke="black" points="462.5,-67.5 462.5,-86.5 573.5,-86.5 573.5,-67.5 462.5,-67.5"/>
<text text-anchor="middle" x="518" y="-74.5" font-family="Helvetica,sans-Serif" font-size="10.00">app_uout/so_msg.h</text>
</a>
</g>
</g>
<!-- Node4&#45;&gt;Node5 -->
<g id="edge4" class="edge">
<title>Node4&#45;&gt;Node5</title>
<path fill="none" stroke="midnightblue" d="M205.73,-140.83C218.36,-134.59 234.17,-127.53 249,-123 321,-100.99 407.33,-88.96 462.42,-83"/>
<polygon fill="midnightblue" stroke="midnightblue" points="204.08,-137.74 196.75,-145.38 207.25,-143.98 204.08,-137.74"/>
</g>
<!-- Node4&#45;&gt;Node6 -->
<g id="edge6" class="edge">
<title>Node4&#45;&gt;Node6</title>
<path fill="none" stroke="midnightblue" d="M208.38,-141.14C220.72,-135.43 235.53,-128.73 249,-123 339.35,-84.55 448.59,-42.71 495.17,-25.09"/>
<polygon fill="midnightblue" stroke="midnightblue" points="206.67,-138.07 199.07,-145.46 209.62,-144.42 206.67,-138.07"/>
</g>
<!-- Node5&#45;&gt;Node6 -->
<g id="edge5" class="edge">
<title>Node5&#45;&gt;Node6</title>
<path fill="none" stroke="midnightblue" d="M518,-57.32C518,-46.5 518,-33.4 518,-25.01"/>
<polygon fill="midnightblue" stroke="midnightblue" points="514.5,-57.48 518,-67.48 521.5,-57.48 514.5,-57.48"/>
</g>
<!-- Node8 -->
<g id="node8" class="node">
<title>Node8</title>
<g id="a_node8"><a xlink:href="cli__app_8hh_source.html" target="_top" xlink:title=" ">
<polygon fill="none" stroke="black" points="0,-145.5 0,-164.5 104,-164.5 104,-145.5 0,-145.5"/>
<text text-anchor="middle" x="52" y="-152.5" font-family="Helvetica,sans-Serif" font-size="10.00">app_cli/cli_app.hh</text>
</a>
</g>
</g>
<!-- Node7&#45;&gt;Node8 -->
<g id="edge9" class="edge">
<title>Node7&#45;&gt;Node8</title>
<path fill="none" stroke="midnightblue" d="M109.64,-221.24C94.59,-204.21 71.52,-178.1 59.65,-164.66"/>
<polygon fill="midnightblue" stroke="midnightblue" points="107.05,-223.6 116.29,-228.78 112.3,-218.97 107.05,-223.6"/>
</g>
<!-- Node10 -->
<g id="node10" class="node">
<title>Node10</title>
<g id="a_node10"><a xlink:href="txtio__setup_8hh_source.html" target="_top" xlink:title=" ">
<polygon fill="none" stroke="black" points="422,-145.5 422,-164.5 534,-164.5 534,-145.5 422,-145.5"/>
<text text-anchor="middle" x="478" y="-152.5" font-family="Helvetica,sans-Serif" font-size="10.00">txtio/txtio_setup.hh</text>
</a>
</g>
</g>
<!-- Node9&#45;&gt;Node10 -->
<g id="edge11" class="edge">
<title>Node9&#45;&gt;Node10</title>
<path fill="none" stroke="midnightblue" d="M478,-218.38C478,-201.4 478,-177.37 478,-164.66"/>
<polygon fill="midnightblue" stroke="midnightblue" points="474.5,-218.78 478,-228.78 481.5,-218.78 474.5,-218.78"/>
</g>
<!-- Node11 -->
<g id="node11" class="node">
<title>Node11</title>
<g id="a_node11"><a xlink:href="tcp__cli__server__setup_8hh.html" target="_top" xlink:title="Create TCP server for interactive and non&#45;interactive CLI clients.">
<polygon fill="none" stroke="black" points="258,-123.5 258,-186.5 404,-186.5 404,-123.5 258,-123.5"/>
<text text-anchor="start" x="266" y="-174.5" font-family="Helvetica,sans-Serif" font-size="10.00">/home/bertw/proj/mcu</text>
<text text-anchor="start" x="266" y="-163.5" font-family="Helvetica,sans-Serif" font-size="10.00">/tronferno&#45;mcu/external</text>
<text text-anchor="start" x="266" y="-152.5" font-family="Helvetica,sans-Serif" font-size="10.00">/mbed&#45;net&#45;lib/components</text>
<text text-anchor="start" x="266" y="-141.5" font-family="Helvetica,sans-Serif" font-size="10.00">/net/include/net/tcp_cli</text>
<text text-anchor="middle" x="331" y="-130.5" font-family="Helvetica,sans-Serif" font-size="10.00">_server_setup.hh</text>
</a>
</g>
</g>
<!-- Node9&#45;&gt;Node11 -->
<g id="edge12" class="edge">
<title>Node9&#45;&gt;Node11</title>
<path fill="none" stroke="midnightblue" d="M453.71,-224.03C435.39,-213.88 409.53,-199.54 386.28,-186.65"/>
<polygon fill="midnightblue" stroke="midnightblue" points="452.1,-227.14 462.55,-228.93 455.5,-221.02 452.1,-227.14"/>
</g>
<!-- Node12 -->
<g id="node12" class="node">
<title>Node12</title>
<g id="a_node12"><a xlink:href="fer__uo__publish_8h.html" target="_top" xlink:title="publish fernotron_app state">
<polygon fill="none" stroke="black" points="552.5,-140 552.5,-170 657.5,-170 657.5,-140 552.5,-140"/>
<text text-anchor="start" x="560.5" y="-158" font-family="Helvetica,sans-Serif" font-size="10.00">fernotron_uout/fer</text>
<text text-anchor="middle" x="605" y="-147" font-family="Helvetica,sans-Serif" font-size="10.00">_uo_publish.h</text>
</a>
</g>
</g>
<!-- Node9&#45;&gt;Node12 -->
<g id="edge13" class="edge">
<title>Node9&#45;&gt;Node12</title>
<path fill="none" stroke="midnightblue" d="M500.1,-223.32C523.38,-208.38 559.81,-185 583.03,-170.1"/>
<polygon fill="midnightblue" stroke="midnightblue" points="498.12,-220.43 491.59,-228.78 501.9,-226.32 498.12,-220.43"/>
</g>
<!-- Node12&#45;&gt;Node5 -->
<g id="edge14" class="edge">
<title>Node12&#45;&gt;Node5</title>
<path fill="none" stroke="midnightblue" d="M581.01,-133.04C563.48,-117.73 540.61,-97.75 527.8,-86.56"/>
<polygon fill="midnightblue" stroke="midnightblue" points="578.8,-135.76 588.64,-139.7 583.41,-130.49 578.8,-135.76"/>
</g>
<!-- Node13&#45;&gt;Node3 -->
<g id="edge25" class="edge">
<title>Node13&#45;&gt;Node3</title>
<path fill="none" stroke="midnightblue" d="M566.28,-342.1C544.61,-332.01 515.1,-318.27 496.29,-309.52"/>
<polygon fill="midnightblue" stroke="midnightblue" points="565.08,-345.4 575.62,-346.44 568.03,-339.05 565.08,-345.4"/>
</g>
<!-- Node14 -->
<g id="node14" class="node">
<title>Node14</title>
<g id="a_node14"><a xlink:href="settings_8hh.html" target="_top" xlink:title=" ">
<polygon fill="none" stroke="black" points="844.5,-290.5 844.5,-309.5 969.5,-309.5 969.5,-290.5 844.5,-290.5"/>
<text text-anchor="middle" x="907" y="-297.5" font-family="Helvetica,sans-Serif" font-size="10.00">config_kvs/settings.hh</text>
</a>
</g>
</g>
<!-- Node13&#45;&gt;Node14 -->
<g id="edge16" class="edge">
<title>Node13&#45;&gt;Node14</title>
<path fill="none" stroke="midnightblue" d="M653.54,-344.73C712.69,-334.52 802.33,-319.06 857.64,-309.52"/>
<polygon fill="midnightblue" stroke="midnightblue" points="652.86,-341.29 643.6,-346.44 654.05,-348.19 652.86,-341.29"/>
</g>
<!-- Node15 -->
<g id="node15" class="node">
<title>Node15</title>
<g id="a_node15"><a xlink:href="app__register__settings_8hh.html" target="_top" xlink:title="Settings for application components.">
<polygon fill="none" stroke="black" points="910.5,-0.5 910.5,-30.5 1053.5,-30.5 1053.5,-0.5 910.5,-0.5"/>
<text text-anchor="start" x="918.5" y="-18.5" font-family="Helvetica,sans-Serif" font-size="10.00">app_settings/app_register</text>
<text text-anchor="middle" x="982" y="-7.5" font-family="Helvetica,sans-Serif" font-size="10.00">_settings.hh</text>
</a>
</g>
</g>
<!-- Node14&#45;&gt;Node15 -->
<g id="edge17" class="edge">
<title>Node14&#45;&gt;Node15</title>
<path fill="none" stroke="midnightblue" d="M931.63,-285.11C944.38,-277.13 959.62,-266.25 971,-254 1029.89,-190.63 1047.94,-170.38 1071,-87 1073.37,-78.43 1075.47,-74.68 1071,-67 1061.17,-50.11 1043.35,-38.41 1026.23,-30.56"/>
<polygon fill="midnightblue" stroke="midnightblue" points="929.63,-282.24 922.87,-290.4 933.24,-288.23 929.63,-282.24"/>
</g>
<!-- Node16 -->
<g id="node16" class="node">
<title>Node16</title>
<g id="a_node16"><a xlink:href="settings__template_8hh_source.html" target="_top" xlink:title=" ">
<polygon fill="none" stroke="black" points="852,-223.5 852,-253.5 962,-253.5 962,-223.5 852,-223.5"/>
<text text-anchor="start" x="860" y="-241.5" font-family="Helvetica,sans-Serif" font-size="10.00">config_kvs/settings</text>
<text text-anchor="middle" x="907" y="-230.5" font-family="Helvetica,sans-Serif" font-size="10.00">_template.hh</text>
</a>
</g>
</g>
<!-- Node14&#45;&gt;Node16 -->
<g id="edge18" class="edge">
<title>Node14&#45;&gt;Node16</title>
<path fill="none" stroke="midnightblue" d="M907,-280.23C907,-271.59 907,-261.5 907,-253.52"/>
<polygon fill="midnightblue" stroke="midnightblue" points="903.5,-280.48 907,-290.48 910.5,-280.48 903.5,-280.48"/>
</g>
<!-- Node17 -->
<g id="node17" class="node">
<title>Node17</title>
<g id="a_node17"><a xlink:href="app__settings_8hh.html" target="_top" xlink:title="Settings for application components.">
<polygon fill="none" stroke="black" points="902.5,-67.5 902.5,-86.5 1061.5,-86.5 1061.5,-67.5 902.5,-67.5"/>
<text text-anchor="middle" x="982" y="-74.5" font-family="Helvetica,sans-Serif" font-size="10.00">app_settings/app_settings.hh</text>
</a>
</g>
</g>
<!-- Node16&#45;&gt;Node17 -->
<g id="edge19" class="edge">
<title>Node16&#45;&gt;Node17</title>
<path fill="none" stroke="midnightblue" d="M919.78,-214.49C924.4,-205.93 929.57,-196.09 934,-187 951.91,-150.19 970.83,-105.11 978.48,-86.58"/>
<polygon fill="midnightblue" stroke="midnightblue" points="916.58,-213.05 914.86,-223.5 922.72,-216.4 916.58,-213.05"/>
</g>
<!-- Node18 -->
<g id="node18" class="node">
<title>Node18</title>
<g id="a_node18"><a xlink:href="comp__settings_8hh.html" target="_top" xlink:title="Settings for shared components.">
<polygon fill="none" stroke="black" points="767,-145.5 767,-164.5 925,-164.5 925,-145.5 767,-145.5"/>
<text text-anchor="middle" x="846" y="-152.5" font-family="Helvetica,sans-Serif" font-size="10.00">config_kvs/comp_settings.hh</text>
</a>
</g>
</g>
<!-- Node16&#45;&gt;Node18 -->
<g id="edge21" class="edge">
<title>Node16&#45;&gt;Node18</title>
<path fill="none" stroke="midnightblue" d="M890.24,-215.11C877.72,-198.38 861.29,-176.42 852.39,-164.54"/>
<polygon fill="midnightblue" stroke="midnightblue" points="887.58,-217.4 896.37,-223.3 893.18,-213.2 887.58,-217.4"/>
</g>
<!-- Node17&#45;&gt;Node15 -->
<g id="edge20" class="edge">
<title>Node17&#45;&gt;Node15</title>
<path fill="none" stroke="midnightblue" d="M982,-57.23C982,-48.59 982,-38.5 982,-30.52"/>
<polygon fill="midnightblue" stroke="midnightblue" points="978.5,-57.48 982,-67.48 985.5,-57.48 978.5,-57.48"/>
</g>
<!-- Node18&#45;&gt;Node15 -->
<g id="edge22" class="edge">
<title>Node18&#45;&gt;Node15</title>
<path fill="none" stroke="midnightblue" d="M810.83,-141.76C771.93,-126.31 717.86,-98.01 743,-67 763.8,-41.35 847.76,-28.22 910.32,-21.87"/>
<polygon fill="midnightblue" stroke="midnightblue" points="809.74,-145.09 820.33,-145.4 812.25,-138.55 809.74,-145.09"/>
</g>
<!-- Node18&#45;&gt;Node17 -->
<g id="edge23" class="edge">
<title>Node18&#45;&gt;Node17</title>
<path fill="none" stroke="midnightblue" d="M870.43,-140.35C898.3,-124.77 943.05,-99.76 966.51,-86.66"/>
<polygon fill="midnightblue" stroke="midnightblue" points="868.36,-137.5 861.34,-145.43 871.77,-143.61 868.36,-137.5"/>
</g>
<!-- Node19 -->
<g id="node19" class="node">
<title>Node19</title>
<g id="a_node19"><a xlink:href="config__kvs_8h.html" target="_top" xlink:title="read settings from kvs storage by cb_type">
<polygon fill="none" stroke="black" points="752,-67.5 752,-86.5 884,-86.5 884,-67.5 752,-67.5"/>
<text text-anchor="middle" x="818" y="-74.5" font-family="Helvetica,sans-Serif" font-size="10.00">config_kvs/config_kvs.h</text>
</a>
</g>
</g>
<!-- Node18&#45;&gt;Node19 -->
<g id="edge24" class="edge">
<title>Node18&#45;&gt;Node19</title>
<path fill="none" stroke="midnightblue" d="M839.25,-135.67C833.52,-120.11 825.54,-98.47 821.17,-86.62"/>
<polygon fill="midnightblue" stroke="midnightblue" points="836.05,-137.11 842.79,-145.28 842.62,-134.69 836.05,-137.11"/>
</g>
</g>
</svg>
