<?xml version="1.0" encoding="UTF-8" standalone="no"?>
<!DOCTYPE svg PUBLIC "-//W3C//DTD SVG 1.1//EN"
 "http://www.w3.org/Graphics/SVG/1.1/DTD/svg11.dtd">
<!-- Generated by graphviz version 2.43.0 (0)
 -->
<!-- Title: app_uout/status_output.h Pages: 1 -->
<svg width="1231pt" height="431pt"
 viewBox="0.00 0.00 1230.50 431.00" xmlns="http://www.w3.org/2000/svg" xmlns:xlink="http://www.w3.org/1999/xlink">
<g id="graph0" class="graph" transform="scale(1 1) rotate(0) translate(4 427)">
<title>app_uout/status_output.h</title>
<!-- Node1 -->
<g id="node1" class="node">
<title>Node1</title>
<g id="a_node1"><a xlink:title=" ">
<polygon fill="#bfbfbf" stroke="black" points="308,-403.5 308,-422.5 448,-422.5 448,-403.5 308,-403.5"/>
<text text-anchor="middle" x="378" y="-410.5" font-family="Helvetica,sans-Serif" font-size="10.00">app_uout/status_output.h</text>
</a>
</g>
</g>
<!-- Node2 -->
<g id="node2" class="node">
<title>Node2</title>
<g id="a_node2"><a xlink:title=" ">
<polygon fill="none" stroke="#bfbfbf" points="87.5,-0.5 87.5,-19.5 140.5,-19.5 140.5,-0.5 87.5,-0.5"/>
<text text-anchor="middle" x="114" y="-7.5" font-family="Helvetica,sans-Serif" font-size="10.00">stdint.h</text>
</a>
</g>
</g>
<!-- Node1&#45;&gt;Node2 -->
<g id="edge1" class="edge">
<title>Node1&#45;&gt;Node2</title>
<path fill="none" stroke="midnightblue" d="M307.79,-405.03C198.47,-392.2 0,-360.15 0,-296.5 0,-296.5 0,-296.5 0,-121 0,-74.11 50.55,-40.89 84.33,-23.93"/>
<polygon fill="midnightblue" stroke="midnightblue" points="85.87,-27.07 93.36,-19.58 82.83,-20.77 85.87,-27.07"/>
</g>
<!-- Node3 -->
<g id="node3" class="node">
<title>Node3</title>
<g id="a_node3"><a xlink:title=" ">
<polygon fill="none" stroke="#bfbfbf" points="768,-0.5 768,-19.5 830,-19.5 830,-0.5 768,-0.5"/>
<text text-anchor="middle" x="799" y="-7.5" font-family="Helvetica,sans-Serif" font-size="10.00">stdbool.h</text>
</a>
</g>
</g>
<!-- Node1&#45;&gt;Node3 -->
<g id="edge2" class="edge">
<title>Node1&#45;&gt;Node3</title>
<path fill="none" stroke="midnightblue" d="M448.02,-407.69C624.77,-395.88 1075,-359.59 1075,-296.5 1075,-296.5 1075,-296.5 1075,-121 1075,-90.9 1078.43,-76.07 1056,-56 1024.82,-28.11 904.83,-17.04 840.43,-13.04"/>
<polygon fill="midnightblue" stroke="midnightblue" points="840.4,-9.53 830.22,-12.43 839.99,-16.52 840.4,-9.53"/>
</g>
<!-- Node4 -->
<g id="node4" class="node">
<title>Node4</title>
<g id="a_node4"><a xlink:href="uo__types_8h.html" target="_top" xlink:title="API parameter and return types.">
<polygon fill="none" stroke="black" points="356.5,-168.5 356.5,-187.5 451.5,-187.5 451.5,-168.5 356.5,-168.5"/>
<text text-anchor="middle" x="404" y="-175.5" font-family="Helvetica,sans-Serif" font-size="10.00">uout/uo_types.h</text>
</a>
</g>
</g>
<!-- Node1&#45;&gt;Node4 -->
<g id="edge3" class="edge">
<title>Node1&#45;&gt;Node4</title>
<path fill="none" stroke="midnightblue" d="M380.95,-403.4C389.19,-378.87 412.32,-306.36 420,-244 421.09,-235.18 421.51,-232.76 420,-224 418.43,-214.91 415.21,-205.22 412.06,-197.17"/>
<polygon fill="midnightblue" stroke="midnightblue" points="415.19,-195.6 408.11,-187.72 408.74,-198.3 415.19,-195.6"/>
</g>
<!-- Node17 -->
<g id="node17" class="node">
<title>Node17</title>
<g id="a_node17"><a xlink:href="so__types_8h_source.html" target="_top" xlink:title=" ">
<polygon fill="none" stroke="black" points="55.5,-286 55.5,-305 172.5,-305 172.5,-286 55.5,-286"/>
<text text-anchor="middle" x="114" y="-293" font-family="Helvetica,sans-Serif" font-size="10.00">app_uout/so_types.h</text>
</a>
</g>
</g>
<!-- Node1&#45;&gt;Node17 -->
<g id="edge27" class="edge">
<title>Node1&#45;&gt;Node17</title>
<path fill="none" stroke="midnightblue" d="M331.86,-403.48C298.63,-396.33 253.27,-384.45 216,-367 184.07,-352.05 151.25,-327.38 131.75,-311.54"/>
<polygon fill="midnightblue" stroke="midnightblue" points="133.95,-308.82 124.01,-305.15 129.49,-314.21 133.95,-308.82"/>
</g>
<!-- Node18 -->
<g id="node18" class="node">
<title>Node18</title>
<g id="a_node18"><a xlink:href="components_2tronferno_2app__uout_2include_2app__uout_2so__msg_8h_source.html" target="_top" xlink:title=" ">
<polygon fill="none" stroke="black" points="224.5,-347.5 224.5,-366.5 335.5,-366.5 335.5,-347.5 224.5,-347.5"/>
<text text-anchor="middle" x="280" y="-354.5" font-family="Helvetica,sans-Serif" font-size="10.00">app_uout/so_msg.h</text>
</a>
</g>
</g>
<!-- Node1&#45;&gt;Node18 -->
<g id="edge30" class="edge">
<title>Node1&#45;&gt;Node18</title>
<path fill="none" stroke="midnightblue" d="M362.25,-403.32C346.68,-394.74 322.62,-381.49 304.54,-371.52"/>
<polygon fill="midnightblue" stroke="midnightblue" points="306.15,-368.42 295.71,-366.65 302.78,-374.55 306.15,-368.42"/>
</g>
<!-- Node24 -->
<g id="node24" class="node">
<title>Node24</title>
<g id="a_node24"><a xlink:href="so__config_8h_source.html" target="_top" xlink:title=" ">
<polygon fill="none" stroke="black" points="1103.5,-347.5 1103.5,-366.5 1222.5,-366.5 1222.5,-347.5 1103.5,-347.5"/>
<text text-anchor="middle" x="1163" y="-354.5" font-family="Helvetica,sans-Serif" font-size="10.00">app_uout/so_config.h</text>
</a>
</g>
</g>
<!-- Node1&#45;&gt;Node24 -->
<g id="edge41" class="edge">
<title>Node1&#45;&gt;Node24</title>
<path fill="none" stroke="midnightblue" d="M448.24,-408.9C575.96,-402.97 854.69,-388.65 1089,-367 1090.3,-366.88 1091.62,-366.75 1092.95,-366.63"/>
<polygon fill="midnightblue" stroke="midnightblue" points="1093.67,-370.07 1103.26,-365.57 1092.95,-363.11 1093.67,-370.07"/>
</g>
<!-- Node4&#45;&gt;Node2 -->
<g id="edge24" class="edge">
<title>Node4&#45;&gt;Node2</title>
<path fill="none" stroke="midnightblue" d="M371.75,-168.49C323.86,-154.75 232.65,-124.24 168,-76 150.25,-62.76 134.66,-42.54 124.85,-28.17"/>
<polygon fill="midnightblue" stroke="midnightblue" points="127.7,-26.13 119.28,-19.7 121.85,-29.98 127.7,-26.13"/>
</g>
<!-- Node5 -->
<g id="node5" class="node">
<title>Node5</title>
<g id="a_node5"><a xlink:href="so__target__bits_8h.html" target="_top" xlink:title="flags to select output formats and targets">
<polygon fill="none" stroke="black" points="970.5,-0.5 970.5,-19.5 1065.5,-19.5 1065.5,-0.5 970.5,-0.5"/>
<text text-anchor="middle" x="1018" y="-7.5" font-family="Helvetica,sans-Serif" font-size="10.00">so_target_bits.h</text>
</a>
</g>
</g>
<!-- Node4&#45;&gt;Node5 -->
<g id="edge4" class="edge">
<title>Node4&#45;&gt;Node5</title>
<path fill="none" stroke="midnightblue" d="M451.56,-169.29C454.75,-168.83 457.92,-168.4 461,-168 593.68,-150.81 972.83,-180.81 1056,-76 1068.41,-60.36 1052.49,-40.25 1037.62,-26.57"/>
<polygon fill="midnightblue" stroke="midnightblue" points="1039.52,-23.58 1029.66,-19.7 1034.95,-28.88 1039.52,-23.58"/>
</g>
<!-- Node6 -->
<g id="node6" class="node">
<title>Node6</title>
<g id="a_node6"><a xlink:href="uout__writer_8hh.html" target="_top" xlink:title="Provide an output class hierarchy which knows about the required format (text or JSON) and write func...">
<polygon fill="none" stroke="black" points="563,-112.5 563,-131.5 649,-131.5 649,-112.5 563,-112.5"/>
<text text-anchor="middle" x="606" y="-119.5" font-family="Helvetica,sans-Serif" font-size="10.00">uout_writer.hh</text>
</a>
</g>
</g>
<!-- Node4&#45;&gt;Node6 -->
<g id="edge5" class="edge">
<title>Node4&#45;&gt;Node6</title>
<path fill="none" stroke="midnightblue" d="M436.01,-168.44C470.73,-159.16 526.29,-144.31 564.38,-134.13"/>
<polygon fill="midnightblue" stroke="midnightblue" points="565.39,-137.48 574.14,-131.52 563.58,-130.72 565.39,-137.48"/>
</g>
<!-- Node7 -->
<g id="node7" class="node">
<title>Node7</title>
<g id="a_node7"><a xlink:href="so__out_8h.html" target="_top" xlink:title="write formatted output to UoutWriter">
<polygon fill="none" stroke="black" points="989,-56.5 989,-75.5 1047,-75.5 1047,-56.5 989,-56.5"/>
<text text-anchor="middle" x="1018" y="-63.5" font-family="Helvetica,sans-Serif" font-size="10.00">so_out.h</text>
</a>
</g>
</g>
<!-- Node4&#45;&gt;Node7 -->
<g id="edge22" class="edge">
<title>Node4&#45;&gt;Node7</title>
<path fill="none" stroke="midnightblue" d="M451.57,-169.36C454.76,-168.88 457.92,-168.43 461,-168 593.57,-149.56 628.39,-156.4 760,-132 838.82,-117.39 929.34,-92.72 979.48,-78.34"/>
<polygon fill="midnightblue" stroke="midnightblue" points="980.61,-81.65 989.25,-75.52 978.67,-74.93 980.61,-81.65"/>
</g>
<!-- Node8 -->
<g id="node8" class="node">
<title>Node8</title>
<g id="a_node8"><a xlink:href="uout__builder__json_8hh.html" target="_top" xlink:title="Create JSON output from key/val pairs.">
<polygon fill="none" stroke="black" points="218,-56.5 218,-75.5 336,-75.5 336,-56.5 218,-56.5"/>
<text text-anchor="middle" x="277" y="-63.5" font-family="Helvetica,sans-Serif" font-size="10.00">uout_builder_json.hh</text>
</a>
</g>
</g>
<!-- Node4&#45;&gt;Node8 -->
<g id="edge23" class="edge">
<title>Node4&#45;&gt;Node8</title>
<path fill="none" stroke="midnightblue" d="M394.03,-168.37C372.61,-149.81 321.93,-105.91 294.82,-82.44"/>
<polygon fill="midnightblue" stroke="midnightblue" points="296.77,-79.49 286.92,-75.59 292.19,-84.78 296.77,-79.49"/>
</g>
<!-- Node12 -->
<g id="node12" class="node">
<title>Node12</title>
<g id="a_node12"><a xlink:title=" ">
<polygon fill="none" stroke="#bfbfbf" points="843,-56.5 843,-75.5 899,-75.5 899,-56.5 843,-56.5"/>
<text text-anchor="middle" x="871" y="-63.5" font-family="Helvetica,sans-Serif" font-size="10.00">unistd.h</text>
</a>
</g>
</g>
<!-- Node4&#45;&gt;Node12 -->
<g id="edge25" class="edge">
<title>Node4&#45;&gt;Node12</title>
<path fill="none" stroke="midnightblue" d="M451.68,-169.26C514,-159.02 619.68,-141.21 658,-132 721.9,-116.65 794.85,-93.03 836.66,-78.88"/>
<polygon fill="midnightblue" stroke="midnightblue" points="838.01,-82.12 846.35,-75.59 835.75,-75.5 838.01,-82.12"/>
</g>
<!-- Node13 -->
<g id="node13" class="node">
<title>Node13</title>
<g id="a_node13"><a xlink:title=" ">
<polygon fill="none" stroke="#bfbfbf" points="917.5,-56.5 917.5,-75.5 970.5,-75.5 970.5,-56.5 917.5,-56.5"/>
<text text-anchor="middle" x="944" y="-63.5" font-family="Helvetica,sans-Serif" font-size="10.00">string.h</text>
</a>
</g>
</g>
<!-- Node4&#45;&gt;Node13 -->
<g id="edge26" class="edge">
<title>Node4&#45;&gt;Node13</title>
<path fill="none" stroke="midnightblue" d="M451.58,-169.45C454.77,-168.95 457.93,-168.47 461,-168 570.24,-151.38 598.85,-154.66 707,-132 778.97,-116.92 861.46,-92.68 907.68,-78.45"/>
<polygon fill="midnightblue" stroke="midnightblue" points="908.73,-81.79 917.25,-75.49 906.66,-75.11 908.73,-81.79"/>
</g>
<!-- Node6&#45;&gt;Node2 -->
<g id="edge15" class="edge">
<title>Node6&#45;&gt;Node2</title>
<path fill="none" stroke="midnightblue" d="M562.66,-118.73C473.61,-113.64 273.03,-99.84 209,-76 178.74,-64.73 148.84,-41.8 130.89,-26.41"/>
<polygon fill="midnightblue" stroke="midnightblue" points="132.91,-23.53 123.1,-19.55 128.29,-28.78 132.91,-23.53"/>
</g>
<!-- Node6&#45;&gt;Node5 -->
<g id="edge8" class="edge">
<title>Node6&#45;&gt;Node5</title>
<path fill="none" stroke="midnightblue" d="M640.82,-112.45C675.13,-103.86 728.93,-89.92 775,-76 801.5,-67.99 807.42,-63.74 834,-56 879.31,-42.81 931.64,-30.26 968.89,-21.79"/>
<polygon fill="midnightblue" stroke="midnightblue" points="969.99,-25.13 978.97,-19.51 968.45,-18.3 969.99,-25.13"/>
</g>
<!-- Node6&#45;&gt;Node7 -->
<g id="edge6" class="edge">
<title>Node6&#45;&gt;Node7</title>
<path fill="none" stroke="midnightblue" d="M649.14,-117.4C717.16,-111.39 853.6,-97.91 978.49,-76.1"/>
<polygon fill="midnightblue" stroke="midnightblue" points="979.37,-79.5 988.61,-74.31 978.15,-72.6 979.37,-79.5"/>
</g>
<!-- Node6&#45;&gt;Node8 -->
<g id="edge9" class="edge">
<title>Node6&#45;&gt;Node8</title>
<path fill="none" stroke="midnightblue" d="M562.99,-113.94C505.87,-104.56 404.58,-87.94 339.15,-77.2"/>
<polygon fill="midnightblue" stroke="midnightblue" points="339.4,-73.7 328.97,-75.53 338.27,-80.6 339.4,-73.7"/>
</g>
<!-- Node10 -->
<g id="node10" class="node">
<title>Node10</title>
<g id="a_node10"><a xlink:title=" ">
<polygon fill="none" stroke="#bfbfbf" points="563.5,-0.5 563.5,-19.5 628.5,-19.5 628.5,-0.5 563.5,-0.5"/>
<text text-anchor="middle" x="596" y="-7.5" font-family="Helvetica,sans-Serif" font-size="10.00">functional</text>
</a>
</g>
</g>
<!-- Node6&#45;&gt;Node10 -->
<g id="edge20" class="edge">
<title>Node6&#45;&gt;Node10</title>
<path fill="none" stroke="midnightblue" d="M649.27,-117.8C704.31,-112.03 788.74,-96.44 758,-56 743.57,-37.01 681.56,-23.93 638.59,-16.95"/>
<polygon fill="midnightblue" stroke="midnightblue" points="639.08,-13.49 628.66,-15.39 637.99,-20.4 639.08,-13.49"/>
</g>
<!-- Node11 -->
<g id="node11" class="node">
<title>Node11</title>
<g id="a_node11"><a xlink:href="uout__builder__plaintext_8hh_source.html" target="_top" xlink:title=" ">
<polygon fill="none" stroke="black" points="607.5,-56.5 607.5,-75.5 748.5,-75.5 748.5,-56.5 607.5,-56.5"/>
<text text-anchor="middle" x="678" y="-63.5" font-family="Helvetica,sans-Serif" font-size="10.00">uout_builder_plaintext.hh</text>
</a>
</g>
</g>
<!-- Node6&#45;&gt;Node11 -->
<g id="edge12" class="edge">
<title>Node6&#45;&gt;Node11</title>
<path fill="none" stroke="midnightblue" d="M617.57,-112.32C628.42,-104.18 644.88,-91.84 657.88,-82.09"/>
<polygon fill="midnightblue" stroke="midnightblue" points="660.32,-84.63 666.22,-75.83 656.12,-79.03 660.32,-84.63"/>
</g>
<!-- Node6&#45;&gt;Node12 -->
<g id="edge16" class="edge">
<title>Node6&#45;&gt;Node12</title>
<path fill="none" stroke="midnightblue" d="M649.2,-112.44C694.15,-103.5 766.55,-88.99 829,-76 830.27,-75.74 831.57,-75.46 832.87,-75.19"/>
<polygon fill="midnightblue" stroke="midnightblue" points="833.94,-78.54 843,-73.05 832.49,-71.69 833.94,-78.54"/>
</g>
<!-- Node6&#45;&gt;Node13 -->
<g id="edge17" class="edge">
<title>Node6&#45;&gt;Node13</title>
<path fill="none" stroke="midnightblue" d="M649.24,-115.9C706.12,-108.89 809.35,-95.16 907.26,-75.97"/>
<polygon fill="midnightblue" stroke="midnightblue" points="908.2,-79.35 917.33,-73.97 906.84,-72.49 908.2,-79.35"/>
</g>
<!-- Node14 -->
<g id="node14" class="node">
<title>Node14</title>
<g id="a_node14"><a xlink:title=" ">
<polygon fill="none" stroke="#bfbfbf" points="418,-56.5 418,-75.5 474,-75.5 474,-56.5 418,-56.5"/>
<text text-anchor="middle" x="446" y="-63.5" font-family="Helvetica,sans-Serif" font-size="10.00">assert.h</text>
</a>
</g>
</g>
<!-- Node6&#45;&gt;Node14 -->
<g id="edge18" class="edge">
<title>Node6&#45;&gt;Node14</title>
<path fill="none" stroke="midnightblue" d="M580.65,-112.44C553.73,-103.36 511,-88.94 480.91,-78.78"/>
<polygon fill="midnightblue" stroke="midnightblue" points="481.83,-75.4 471.23,-75.52 479.59,-82.03 481.83,-75.4"/>
</g>
<!-- Node15 -->
<g id="node15" class="node">
<title>Node15</title>
<g id="a_node15"><a xlink:href="itoa_8h_source.html" target="_top" xlink:title=" ">
<polygon fill="none" stroke="black" points="492.5,-56.5 492.5,-75.5 589.5,-75.5 589.5,-56.5 492.5,-56.5"/>
<text text-anchor="middle" x="541" y="-63.5" font-family="Helvetica,sans-Serif" font-size="10.00">utils_misc/itoa.h</text>
</a>
</g>
</g>
<!-- Node6&#45;&gt;Node15 -->
<g id="edge19" class="edge">
<title>Node6&#45;&gt;Node15</title>
<path fill="none" stroke="midnightblue" d="M595.56,-112.32C585.85,-104.26 571.18,-92.08 559.5,-82.37"/>
<polygon fill="midnightblue" stroke="midnightblue" points="561.56,-79.53 551.63,-75.83 557.09,-84.92 561.56,-79.53"/>
</g>
<!-- Node16 -->
<g id="node16" class="node">
<title>Node16</title>
<g id="a_node16"><a xlink:title=" ">
<polygon fill="none" stroke="#bfbfbf" points="354.5,-56.5 354.5,-75.5 399.5,-75.5 399.5,-56.5 354.5,-56.5"/>
<text text-anchor="middle" x="377" y="-63.5" font-family="Helvetica,sans-Serif" font-size="10.00">utility</text>
</a>
</g>
</g>
<!-- Node6&#45;&gt;Node16 -->
<g id="edge21" class="edge">
<title>Node6&#45;&gt;Node16</title>
<path fill="none" stroke="midnightblue" d="M565.87,-112.44C528.06,-104.25 469.63,-91.23 409.71,-76.08"/>
<polygon fill="midnightblue" stroke="midnightblue" points="410.24,-72.61 399.69,-73.53 408.52,-79.39 410.24,-72.61"/>
</g>
<!-- Node7&#45;&gt;Node5 -->
<g id="edge7" class="edge">
<title>Node7&#45;&gt;Node5</title>
<path fill="none" stroke="midnightblue" d="M1018,-56.08C1018,-49.01 1018,-38.86 1018,-29.99"/>
<polygon fill="midnightblue" stroke="midnightblue" points="1021.5,-29.75 1018,-19.75 1014.5,-29.75 1021.5,-29.75"/>
</g>
<!-- Node9 -->
<g id="node9" class="node">
<title>Node9</title>
<g id="a_node9"><a xlink:title=" ">
<polygon fill="none" stroke="#bfbfbf" points="250.5,-0.5 250.5,-19.5 303.5,-19.5 303.5,-0.5 250.5,-0.5"/>
<text text-anchor="middle" x="277" y="-7.5" font-family="Helvetica,sans-Serif" font-size="10.00">stdlib.h</text>
</a>
</g>
</g>
<!-- Node8&#45;&gt;Node9 -->
<g id="edge10" class="edge">
<title>Node8&#45;&gt;Node9</title>
<path fill="none" stroke="midnightblue" d="M277,-56.08C277,-49.01 277,-38.86 277,-29.99"/>
<polygon fill="midnightblue" stroke="midnightblue" points="280.5,-29.75 277,-19.75 273.5,-29.75 280.5,-29.75"/>
</g>
<!-- Node8&#45;&gt;Node10 -->
<g id="edge11" class="edge">
<title>Node8&#45;&gt;Node10</title>
<path fill="none" stroke="midnightblue" d="M327.55,-56.44C389.86,-45.89 494.68,-28.15 553.2,-18.25"/>
<polygon fill="midnightblue" stroke="midnightblue" points="553.95,-21.67 563.22,-16.55 552.78,-14.77 553.95,-21.67"/>
</g>
<!-- Node11&#45;&gt;Node2 -->
<g id="edge13" class="edge">
<title>Node11&#45;&gt;Node2</title>
<path fill="none" stroke="midnightblue" d="M607.37,-56.88C604.55,-56.58 601.75,-56.28 599,-56 431.76,-38.72 231.75,-21.14 150.75,-14.15"/>
<polygon fill="midnightblue" stroke="midnightblue" points="150.83,-10.64 140.57,-13.27 150.23,-17.61 150.83,-10.64"/>
</g>
<!-- Node11&#45;&gt;Node3 -->
<g id="edge14" class="edge">
<title>Node11&#45;&gt;Node3</title>
<path fill="none" stroke="midnightblue" d="M697.17,-56.44C716.91,-47.64 747.89,-33.81 770.49,-23.72"/>
<polygon fill="midnightblue" stroke="midnightblue" points="772.21,-26.79 779.92,-19.52 769.36,-20.4 772.21,-26.79"/>
</g>
<!-- Node17&#45;&gt;Node2 -->
<g id="edge29" class="edge">
<title>Node17&#45;&gt;Node2</title>
<path fill="none" stroke="midnightblue" d="M103.11,-285.92C82.1,-268.32 38,-225.81 38,-179 38,-179 38,-179 38,-121 38,-90.2 44.47,-81.32 62,-56 70.18,-44.19 82.15,-33.54 92.55,-25.57"/>
<polygon fill="midnightblue" stroke="midnightblue" points="94.79,-28.27 100.8,-19.54 90.66,-22.62 94.79,-28.27"/>
</g>
<!-- Node17&#45;&gt;Node4 -->
<g id="edge28" class="edge">
<title>Node17&#45;&gt;Node4</title>
<path fill="none" stroke="midnightblue" d="M113.57,-285.61C113.37,-270.52 115.34,-240 133,-224 163.53,-196.34 276.26,-185.52 346.35,-181.41"/>
<polygon fill="midnightblue" stroke="midnightblue" points="346.58,-184.9 356.37,-180.85 346.19,-177.91 346.58,-184.9"/>
</g>
<!-- Node18&#45;&gt;Node17 -->
<g id="edge31" class="edge">
<title>Node18&#45;&gt;Node17</title>
<path fill="none" stroke="midnightblue" d="M256.22,-347.48C227.62,-337.22 179.45,-319.96 147.2,-308.4"/>
<polygon fill="midnightblue" stroke="midnightblue" points="148.33,-305.09 137.74,-305.01 145.97,-311.68 148.33,-305.09"/>
</g>
<!-- Node19 -->
<g id="node19" class="node">
<title>Node19</title>
<g id="a_node19"><a xlink:href="fer__uo__publish_8h.html" target="_top" xlink:title="publish fernotron_app state">
<polygon fill="none" stroke="black" points="227.5,-280.5 227.5,-310.5 332.5,-310.5 332.5,-280.5 227.5,-280.5"/>
<text text-anchor="start" x="235.5" y="-298.5" font-family="Helvetica,sans-Serif" font-size="10.00">fernotron_uout/fer</text>
<text text-anchor="middle" x="280" y="-287.5" font-family="Helvetica,sans-Serif" font-size="10.00">_uo_publish.h</text>
</a>
</g>
</g>
<!-- Node18&#45;&gt;Node19 -->
<g id="edge32" class="edge">
<title>Node18&#45;&gt;Node19</title>
<path fill="none" stroke="midnightblue" d="M280,-347.48C280,-340.47 280,-330.19 280,-320.7"/>
<polygon fill="midnightblue" stroke="midnightblue" points="283.5,-320.52 280,-310.52 276.5,-320.52 283.5,-320.52"/>
</g>
<!-- Node19&#45;&gt;Node2 -->
<g id="edge38" class="edge">
<title>Node19&#45;&gt;Node2</title>
<path fill="none" stroke="midnightblue" d="M227.14,-290.54C194.72,-285.14 155.27,-272.66 133,-244 82.93,-179.57 99.78,-72.65 109.33,-29.7"/>
<polygon fill="midnightblue" stroke="midnightblue" points="112.77,-30.33 111.66,-19.8 105.96,-28.73 112.77,-30.33"/>
</g>
<!-- Node20 -->
<g id="node20" class="node">
<title>Node20</title>
<g id="a_node20"><a xlink:href="uo__callbacks_8h.html" target="_top" xlink:title="pub/sub interface to publish asynchronously to MQTT servers, HTTP&#45;client web&#45;sockets,...">
<polygon fill="none" stroke="black" points="223.5,-224.5 223.5,-243.5 336.5,-243.5 336.5,-224.5 223.5,-224.5"/>
<text text-anchor="middle" x="280" y="-231.5" font-family="Helvetica,sans-Serif" font-size="10.00">uout/uo_callbacks.h</text>
</a>
</g>
</g>
<!-- Node19&#45;&gt;Node20 -->
<g id="edge33" class="edge">
<title>Node19&#45;&gt;Node20</title>
<path fill="none" stroke="midnightblue" d="M280,-280.4C280,-272.47 280,-262.46 280,-253.86"/>
<polygon fill="midnightblue" stroke="midnightblue" points="283.5,-253.66 280,-243.66 276.5,-253.66 283.5,-253.66"/>
</g>
<!-- Node21 -->
<g id="node21" class="node">
<title>Node21</title>
<g id="a_node21"><a xlink:title=" ">
<polygon fill="none" stroke="#bfbfbf" points="469.5,-168.5 469.5,-187.5 538.5,-187.5 538.5,-168.5 469.5,-168.5"/>
<text text-anchor="middle" x="504" y="-175.5" font-family="Helvetica,sans-Serif" font-size="10.00">type_traits</text>
</a>
</g>
</g>
<!-- Node19&#45;&gt;Node21 -->
<g id="edge37" class="edge">
<title>Node19&#45;&gt;Node21</title>
<path fill="none" stroke="midnightblue" d="M330.55,-280.48C357.92,-271.86 391.81,-259.49 420,-244 445.32,-230.09 471.12,-208.86 487.32,-194.48"/>
<polygon fill="midnightblue" stroke="midnightblue" points="489.79,-196.96 494.86,-187.66 485.1,-191.77 489.79,-196.96"/>
</g>
<!-- Node22 -->
<g id="node22" class="node">
<title>Node22</title>
<g id="a_node22"><a xlink:title=" ">
<polygon fill="none" stroke="#bfbfbf" points="355,-224.5 355,-243.5 411,-243.5 411,-224.5 355,-224.5"/>
<text text-anchor="middle" x="383" y="-231.5" font-family="Helvetica,sans-Serif" font-size="10.00">stddef.h</text>
</a>
</g>
</g>
<!-- Node19&#45;&gt;Node22 -->
<g id="edge39" class="edge">
<title>Node19&#45;&gt;Node22</title>
<path fill="none" stroke="midnightblue" d="M304.41,-280.4C320.92,-270.86 342.62,-258.32 359.04,-248.84"/>
<polygon fill="midnightblue" stroke="midnightblue" points="361.1,-251.69 368.01,-243.66 357.6,-245.63 361.1,-251.69"/>
</g>
<!-- Node23 -->
<g id="node23" class="node">
<title>Node23</title>
<g id="a_node23"><a xlink:href="external_2tronferno-lib_2components_2fernotron__uout_2include_2fernotron__uout_2so__msg_8h_source.html" target="_top" xlink:title=" ">
<polygon fill="none" stroke="black" points="142.5,-224.5 142.5,-243.5 205.5,-243.5 205.5,-224.5 142.5,-224.5"/>
<text text-anchor="middle" x="174" y="-231.5" font-family="Helvetica,sans-Serif" font-size="10.00">so_msg.h</text>
</a>
</g>
</g>
<!-- Node19&#45;&gt;Node23 -->
<g id="edge40" class="edge">
<title>Node19&#45;&gt;Node23</title>
<path fill="none" stroke="midnightblue" d="M254.88,-280.4C237.73,-270.77 215.14,-258.09 198.19,-248.58"/>
<polygon fill="midnightblue" stroke="midnightblue" points="199.86,-245.5 189.42,-243.66 196.43,-251.6 199.86,-245.5"/>
</g>
<!-- Node20&#45;&gt;Node2 -->
<g id="edge34" class="edge">
<title>Node20&#45;&gt;Node2</title>
<path fill="none" stroke="midnightblue" d="M270.73,-224.19C247.18,-201.42 184.09,-138.11 144,-76 134.43,-61.17 126.24,-42.79 120.85,-29.36"/>
<polygon fill="midnightblue" stroke="midnightblue" points="124.03,-27.88 117.15,-19.81 117.5,-30.4 124.03,-27.88"/>
</g>
<!-- Node20&#45;&gt;Node4 -->
<g id="edge35" class="edge">
<title>Node20&#45;&gt;Node4</title>
<path fill="none" stroke="midnightblue" d="M299.65,-224.44C319.96,-215.6 351.9,-201.69 375.1,-191.59"/>
<polygon fill="midnightblue" stroke="midnightblue" points="376.67,-194.72 384.44,-187.52 373.88,-188.3 376.67,-194.72"/>
</g>
<!-- Node20&#45;&gt;Node21 -->
<g id="edge36" class="edge">
<title>Node20&#45;&gt;Node21</title>
<path fill="none" stroke="midnightblue" d="M315.49,-224.44C354.55,-215.03 417.39,-199.88 459.66,-189.69"/>
<polygon fill="midnightblue" stroke="midnightblue" points="460.51,-193.09 469.41,-187.34 458.87,-186.28 460.51,-193.09"/>
</g>
</g>
</svg>
