<?xml version="1.0" encoding="UTF-8" standalone="no"?>
<!DOCTYPE svg PUBLIC "-//W3C//DTD SVG 1.1//EN"
 "http://www.w3.org/Graphics/SVG/1.1/DTD/svg11.dtd">
<!-- Generated by graphviz version 2.43.0 (0)
 -->
<!-- Title: fer_timer Pages: 1 -->
<svg width="77pt" height="193pt"
 viewBox="0.00 0.00 77.00 193.00" xmlns="http://www.w3.org/2000/svg" xmlns:xlink="http://www.w3.org/1999/xlink">
<g id="graph0" class="graph" transform="scale(1 1) rotate(0) translate(4 189)">
<title>fer_timer</title>
<!-- Node1 -->
<g id="node1" class="node">
<title>Node1</title>
<g id="a_node1"><a xlink:title="Up/Down pair used in timers.">
<polygon fill="#bfbfbf" stroke="black" points="0,-0.5 0,-57.5 62,-57.5 62,-0.5 0,-0.5"/>
<text text-anchor="middle" x="31" y="-45.5" font-family="Helvetica,sans-Serif" font-size="10.00">fer_timer</text>
<polyline fill="none" stroke="black" points="0,-38.5 62,-38.5 "/>
<text text-anchor="middle" x="31" y="-26.5" font-family="Helvetica,sans-Serif" font-size="10.00"> </text>
<polyline fill="none" stroke="black" points="0,-19.5 62,-19.5 "/>
<text text-anchor="middle" x="31" y="-7.5" font-family="Helvetica,sans-Serif" font-size="10.00"> </text>
</a>
</g>
</g>
<!-- Node2 -->
<g id="node2" class="node">
<title>Node2</title>
<g id="a_node2"><a xlink:href="structfer__time.html" target="_top" xlink:title="Minute/Hour pair used in timers.">
<polygon fill="none" stroke="black" points="2,-116.5 2,-184.5 60,-184.5 60,-116.5 2,-116.5"/>
<text text-anchor="middle" x="31" y="-172.5" font-family="Helvetica,sans-Serif" font-size="10.00">fer_time</text>
<polyline fill="none" stroke="black" points="2,-165.5 60,-165.5 "/>
<text text-anchor="start" x="10" y="-153.5" font-family="Helvetica,sans-Serif" font-size="10.00">+ mint</text>
<text text-anchor="start" x="10" y="-142.5" font-family="Helvetica,sans-Serif" font-size="10.00">+ hour</text>
<polyline fill="none" stroke="black" points="2,-135.5 60,-135.5 "/>
<text text-anchor="middle" x="31" y="-123.5" font-family="Helvetica,sans-Serif" font-size="10.00"> </text>
</a>
</g>
</g>
<!-- Node2&#45;&gt;Node1 -->
<g id="edge1" class="edge">
<title>Node2&#45;&gt;Node1</title>
<path fill="none" stroke="#404040" d="M31,-116.21C31,-101.86 31,-84.96 31,-69.94"/>
<polygon fill="none" stroke="#404040" points="31,-69.86 27,-63.86 31,-57.86 35,-63.86 31,-69.86"/>
<text text-anchor="middle" x="50" y="-90" font-family="Helvetica,sans-Serif" font-size="10.00"> +down</text>
<text text-anchor="middle" x="50" y="-79" font-family="Helvetica,sans-Serif" font-size="10.00">+up</text>
</g>
</g>
</svg>
