<?xml version="1.0" encoding="UTF-8" standalone="no"?>
<!DOCTYPE svg PUBLIC "-//W3C//DTD SVG 1.1//EN"
 "http://www.w3.org/Graphics/SVG/1.1/DTD/svg11.dtd">
<!-- Generated by graphviz version 2.43.0 (0)
 -->
<!-- Title: uoCb_cbsT Pages: 1 -->
<svg width="193pt" height="628pt"
 viewBox="0.00 0.00 192.50 628.00" xmlns="http://www.w3.org/2000/svg" xmlns:xlink="http://www.w3.org/1999/xlink">
<g id="graph0" class="graph" transform="scale(1 1) rotate(0) translate(4 624)">
<title>uoCb_cbsT</title>
<!-- Node1 -->
<g id="node1" class="node">
<title>Node1</title>
<g id="a_node1"><a xlink:title=" ">
<polygon fill="#bfbfbf" stroke="black" points="39,-0.5 39,-57.5 108,-57.5 108,-0.5 39,-0.5"/>
<text text-anchor="middle" x="73.5" y="-45.5" font-family="Helvetica,sans-Serif" font-size="10.00">uoCb_cbsT</text>
<polyline fill="none" stroke="black" points="39,-38.5 108,-38.5 "/>
<text text-anchor="middle" x="73.5" y="-26.5" font-family="Helvetica,sans-Serif" font-size="10.00"> </text>
<polyline fill="none" stroke="black" points="39,-19.5 108,-19.5 "/>
<text text-anchor="middle" x="73.5" y="-7.5" font-family="Helvetica,sans-Serif" font-size="10.00"> </text>
</a>
</g>
</g>
<!-- Node2 -->
<g id="node2" class="node">
<title>Node2</title>
<g id="a_node2"><a xlink:href="structuo__flagsT.html" target="_top" xlink:title="flags to address subscribers by event, data format and target">
<polygon fill="none" stroke="black" points="0,-221.5 0,-619.5 147,-619.5 147,-221.5 0,-221.5"/>
<text text-anchor="middle" x="73.5" y="-607.5" font-family="Helvetica,sans-Serif" font-size="10.00">uo_flagsT</text>
<polyline fill="none" stroke="black" points="0,-600.5 147,-600.5 "/>
<text text-anchor="start" x="8" y="-588.5" font-family="Helvetica,sans-Serif" font-size="10.00">+ pin_change</text>
<text text-anchor="start" x="8" y="-577.5" font-family="Helvetica,sans-Serif" font-size="10.00">+ ip_address_change</text>
<text text-anchor="start" x="8" y="-566.5" font-family="Helvetica,sans-Serif" font-size="10.00">+ async_http_resp</text>
<text text-anchor="start" x="8" y="-555.5" font-family="Helvetica,sans-Serif" font-size="10.00">+ gen_app_state_change</text>
<text text-anchor="start" x="8" y="-544.5" font-family="Helvetica,sans-Serif" font-size="10.00">+ gen_app_error_message</text>
<text text-anchor="start" x="8" y="-533.5" font-family="Helvetica,sans-Serif" font-size="10.00">+ gen_app_log_message</text>
<text text-anchor="start" x="8" y="-522.5" font-family="Helvetica,sans-Serif" font-size="10.00">+ uo_evt_flag_7</text>
<text text-anchor="start" x="8" y="-511.5" font-family="Helvetica,sans-Serif" font-size="10.00">+ uo_evt_flag_8</text>
<text text-anchor="start" x="8" y="-500.5" font-family="Helvetica,sans-Serif" font-size="10.00">+ uo_evt_flag_9</text>
<text text-anchor="start" x="8" y="-489.5" font-family="Helvetica,sans-Serif" font-size="10.00">+ uo_evt_flag_10</text>
<text text-anchor="start" x="8" y="-478.5" font-family="Helvetica,sans-Serif" font-size="10.00">+ uo_evt_flag_A</text>
<text text-anchor="start" x="8" y="-467.5" font-family="Helvetica,sans-Serif" font-size="10.00">+ uo_evt_flag_B</text>
<text text-anchor="start" x="8" y="-456.5" font-family="Helvetica,sans-Serif" font-size="10.00">+ uo_evt_flag_C</text>
<text text-anchor="start" x="8" y="-445.5" font-family="Helvetica,sans-Serif" font-size="10.00">+ uo_evt_flag_D</text>
<text text-anchor="start" x="8" y="-434.5" font-family="Helvetica,sans-Serif" font-size="10.00">+ uo_evt_flag_E</text>
<text text-anchor="start" x="8" y="-423.5" font-family="Helvetica,sans-Serif" font-size="10.00">+ uo_evt_flag_F</text>
<text text-anchor="start" x="8" y="-412.5" font-family="Helvetica,sans-Serif" font-size="10.00">+ evt</text>
<text text-anchor="start" x="8" y="-401.5" font-family="Helvetica,sans-Serif" font-size="10.00">+ evt_flags</text>
<text text-anchor="start" x="8" y="-390.5" font-family="Helvetica,sans-Serif" font-size="10.00">+ @7</text>
<text text-anchor="start" x="8" y="-379.5" font-family="Helvetica,sans-Serif" font-size="10.00">+ json</text>
<text text-anchor="start" x="8" y="-368.5" font-family="Helvetica,sans-Serif" font-size="10.00">+ raw</text>
<text text-anchor="start" x="8" y="-357.5" font-family="Helvetica,sans-Serif" font-size="10.00">+ txt</text>
<text text-anchor="start" x="8" y="-346.5" font-family="Helvetica,sans-Serif" font-size="10.00">+ fmt</text>
<text text-anchor="start" x="8" y="-335.5" font-family="Helvetica,sans-Serif" font-size="10.00">+ fmt_flags</text>
<text text-anchor="start" x="8" y="-324.5" font-family="Helvetica,sans-Serif" font-size="10.00">+ @9</text>
<text text-anchor="start" x="8" y="-313.5" font-family="Helvetica,sans-Serif" font-size="10.00">+ websocket</text>
<text text-anchor="start" x="8" y="-302.5" font-family="Helvetica,sans-Serif" font-size="10.00">+ usart</text>
<text text-anchor="start" x="8" y="-291.5" font-family="Helvetica,sans-Serif" font-size="10.00">+ tcp_term</text>
<text text-anchor="start" x="8" y="-280.5" font-family="Helvetica,sans-Serif" font-size="10.00">+ mqtt</text>
<text text-anchor="start" x="8" y="-269.5" font-family="Helvetica,sans-Serif" font-size="10.00">+ tgt</text>
<text text-anchor="start" x="8" y="-258.5" font-family="Helvetica,sans-Serif" font-size="10.00">+ tgt_flags</text>
<text text-anchor="start" x="8" y="-247.5" font-family="Helvetica,sans-Serif" font-size="10.00">+ @11</text>
<polyline fill="none" stroke="black" points="0,-240.5 147,-240.5 "/>
<text text-anchor="middle" x="73.5" y="-228.5" font-family="Helvetica,sans-Serif" font-size="10.00"> </text>
</a>
</g>
</g>
<!-- Node2&#45;&gt;Node1 -->
<g id="edge1" class="edge">
<title>Node2&#45;&gt;Node1</title>
<path fill="none" stroke="#404040" d="M64.95,-221.48C64.45,-182.84 64.75,-142.64 66.5,-105 67.03,-93.61 68.01,-81.28 69.07,-69.97"/>
<polygon fill="none" stroke="#404040" points="69.1,-69.68 65.72,-63.31 70.29,-57.74 73.68,-64.1 69.1,-69.68"/>
<text text-anchor="middle" x="84" y="-137" font-family="Helvetica,sans-Serif" font-size="10.00"> +flags</text>
</g>
<!-- Node3 -->
<g id="node3" class="node">
<title>Node3</title>
<g id="a_node3"><a xlink:href="structuoCb__msgT.html" target="_top" xlink:title="message object described by a void pointer and flags">
<polygon fill="none" stroke="black" points="110.5,-105.5 110.5,-173.5 184.5,-173.5 184.5,-105.5 110.5,-105.5"/>
<text text-anchor="middle" x="147.5" y="-161.5" font-family="Helvetica,sans-Serif" font-size="10.00">uoCb_msgT</text>
<polyline fill="none" stroke="black" points="110.5,-154.5 184.5,-154.5 "/>
<text text-anchor="start" x="118.5" y="-142.5" font-family="Helvetica,sans-Serif" font-size="10.00">+ cptr</text>
<text text-anchor="start" x="118.5" y="-131.5" font-family="Helvetica,sans-Serif" font-size="10.00">+ @16</text>
<polyline fill="none" stroke="black" points="110.5,-124.5 184.5,-124.5 "/>
<text text-anchor="middle" x="147.5" y="-112.5" font-family="Helvetica,sans-Serif" font-size="10.00"> </text>
</a>
</g>
</g>
<!-- Node2&#45;&gt;Node3 -->
<g id="edge3" class="edge">
<title>Node2&#45;&gt;Node3</title>
<path fill="none" stroke="#404040" d="M126.1,-221.2C129.51,-208.31 132.71,-196.24 135.55,-185.57"/>
<polygon fill="none" stroke="#404040" points="135.62,-185.31 133.29,-178.48 138.69,-173.71 141.02,-180.53 135.62,-185.31"/>
<text text-anchor="middle" x="150" y="-195" font-family="Helvetica,sans-Serif" font-size="10.00"> +flags</text>
</g>
<!-- Node3&#45;&gt;Node1 -->
<g id="edge2" class="edge">
<title>Node3&#45;&gt;Node1</title>
<path fill="none" stroke="#404040" d="M124.9,-105.36C116.79,-93.48 107.6,-80 99.25,-67.76"/>
<polygon fill="none" stroke="#404040" points="99.24,-67.74 92.55,-65.04 92.48,-57.83 99.16,-60.53 99.24,-67.74"/>
<text text-anchor="middle" x="122" y="-79" font-family="Helvetica,sans-Serif" font-size="10.00"> +cb</text>
</g>
</g>
</svg>
