<?xml version="1.0" encoding="UTF-8" standalone="no"?>
<!DOCTYPE svg PUBLIC "-//W3C//DTD SVG 1.1//EN"
 "http://www.w3.org/Graphics/SVG/1.1/DTD/svg11.dtd">
<!-- Generated by graphviz version 2.43.0 (0)
 -->
<!-- Title: sf Pages: 1 -->
<svg width="138pt" height="386pt"
 viewBox="0.00 0.00 138.00 386.00" xmlns="http://www.w3.org/2000/svg" xmlns:xlink="http://www.w3.org/1999/xlink">
<g id="graph0" class="graph" transform="scale(1 1) rotate(0) translate(4 382)">
<title>sf</title>
<!-- Node1 -->
<g id="node1" class="node">
<title>Node1</title>
<g id="a_node1"><a xlink:title="struct holding the RF messaga data plus some data about how and when to send">
<polygon fill="#bfbfbf" stroke="black" points="0,-0.5 0,-123.5 130,-123.5 130,-0.5 0,-0.5"/>
<text text-anchor="middle" x="65" y="-111.5" font-family="Helvetica,sans-Serif" font-size="10.00">sf</text>
<polyline fill="none" stroke="black" points="0,-104.5 130,-104.5 "/>
<text text-anchor="start" x="8" y="-92.5" font-family="Helvetica,sans-Serif" font-size="10.00">+ when_to_transmit_ts</text>
<text text-anchor="start" x="8" y="-81.5" font-family="Helvetica,sans-Serif" font-size="10.00">+ rtc</text>
<text text-anchor="start" x="8" y="-70.5" font-family="Helvetica,sans-Serif" font-size="10.00">+ @34</text>
<text text-anchor="start" x="8" y="-59.5" font-family="Helvetica,sans-Serif" font-size="10.00">+ rf_repeater</text>
<text text-anchor="start" x="8" y="-48.5" font-family="Helvetica,sans-Serif" font-size="10.00">+ mt</text>
<text text-anchor="start" x="8" y="-37.5" font-family="Helvetica,sans-Serif" font-size="10.00">+ repeats</text>
<text text-anchor="start" x="8" y="-26.5" font-family="Helvetica,sans-Serif" font-size="10.00">+ sent_ct</text>
<polyline fill="none" stroke="black" points="0,-19.5 130,-19.5 "/>
<text text-anchor="middle" x="65" y="-7.5" font-family="Helvetica,sans-Serif" font-size="10.00"> </text>
</a>
</g>
</g>
<!-- Node2 -->
<g id="node2" class="node">
<title>Node2</title>
<g id="a_node2"><a xlink:href="unionfer__sbT.html" target="_top" xlink:title="Raw message w/o checksum.">
<polygon fill="none" stroke="black" points="38.5,-171.5 38.5,-228.5 91.5,-228.5 91.5,-171.5 38.5,-171.5"/>
<text text-anchor="middle" x="65" y="-216.5" font-family="Helvetica,sans-Serif" font-size="10.00">fer_sbT</text>
<polyline fill="none" stroke="black" points="38.5,-209.5 91.5,-209.5 "/>
<text text-anchor="start" x="46.5" y="-197.5" font-family="Helvetica,sans-Serif" font-size="10.00">+ data</text>
<polyline fill="none" stroke="black" points="38.5,-190.5 91.5,-190.5 "/>
<text text-anchor="middle" x="65" y="-178.5" font-family="Helvetica,sans-Serif" font-size="10.00"> </text>
</a>
</g>
</g>
<!-- Node2&#45;&gt;Node1 -->
<g id="edge1" class="edge">
<title>Node2&#45;&gt;Node1</title>
<path fill="none" stroke="#404040" d="M65,-171.48C65,-161.01 65,-148.53 65,-135.82"/>
<polygon fill="none" stroke="#404040" points="65,-135.62 61,-129.62 65,-123.62 69,-129.62 65,-135.62"/>
<text text-anchor="middle" x="78.5" y="-145" font-family="Helvetica,sans-Serif" font-size="10.00"> +fsb</text>
</g>
<!-- Node3 -->
<g id="node3" class="node">
<title>Node3</title>
<g id="a_node3"><a xlink:href="structFer__Cmd.html" target="_top" xlink:title="Plain message or header for extended messages (w/o checksum)">
<polygon fill="none" stroke="black" points="35.5,-276.5 35.5,-377.5 94.5,-377.5 94.5,-276.5 35.5,-276.5"/>
<text text-anchor="middle" x="65" y="-365.5" font-family="Helvetica,sans-Serif" font-size="10.00">Fer_Cmd</text>
<polyline fill="none" stroke="black" points="35.5,-358.5 94.5,-358.5 "/>
<text text-anchor="start" x="43.5" y="-346.5" font-family="Helvetica,sans-Serif" font-size="10.00">+ addr</text>
<text text-anchor="start" x="43.5" y="-335.5" font-family="Helvetica,sans-Serif" font-size="10.00">+ memb</text>
<text text-anchor="start" x="43.5" y="-324.5" font-family="Helvetica,sans-Serif" font-size="10.00">+ tgl</text>
<text text-anchor="start" x="43.5" y="-313.5" font-family="Helvetica,sans-Serif" font-size="10.00">+ cmd</text>
<text text-anchor="start" x="43.5" y="-302.5" font-family="Helvetica,sans-Serif" font-size="10.00">+ grp</text>
<polyline fill="none" stroke="black" points="35.5,-295.5 94.5,-295.5 "/>
<text text-anchor="middle" x="65" y="-283.5" font-family="Helvetica,sans-Serif" font-size="10.00"> </text>
</a>
</g>
</g>
<!-- Node3&#45;&gt;Node2 -->
<g id="edge2" class="edge">
<title>Node3&#45;&gt;Node2</title>
<path fill="none" stroke="#404040" d="M65,-276.24C65,-264.46 65,-252.06 65,-240.8"/>
<polygon fill="none" stroke="#404040" points="65,-240.66 61,-234.66 65,-228.66 69,-234.66 65,-240.66"/>
<text text-anchor="middle" x="76.5" y="-250" font-family="Helvetica,sans-Serif" font-size="10.00"> +sd</text>
</g>
</g>
</svg>
