<?xml version="1.0" encoding="UTF-8" standalone="no"?>
<!DOCTYPE svg PUBLIC "-//W3C//DTD SVG 1.1//EN"
 "http://www.w3.org/Graphics/SVG/1.1/DTD/svg11.dtd">
<!-- Generated by graphviz version 2.43.0 (0)
 -->
<!-- Title: JsoNeat::Iterator::skip_value Pages: 1 -->
<svg width="261pt" height="57pt"
 viewBox="0.00 0.00 261.00 57.00" xmlns="http://www.w3.org/2000/svg" xmlns:xlink="http://www.w3.org/1999/xlink">
<g id="graph0" class="graph" transform="scale(1 1) rotate(0) translate(4 53)">
<title>JsoNeat::Iterator::skip_value</title>
<!-- Node1 -->
<g id="node1" class="node">
<title>Node1</title>
<g id="a_node1"><a xlink:title="skip this value (of an array)">
<polygon fill="#bfbfbf" stroke="black" points="151,-0.5 151,-30.5 253,-30.5 253,-0.5 151,-0.5"/>
<text text-anchor="start" x="159" y="-18.5" font-family="Helvetica,sans-Serif" font-size="10.00">JsoNeat::Iterator::</text>
<text text-anchor="middle" x="202" y="-7.5" font-family="Helvetica,sans-Serif" font-size="10.00">skip_value</text>
</a>
</g>
</g>
<!-- Node1&#45;&gt;Node1 -->
<g id="edge3" class="edge">
<title>Node1&#45;&gt;Node1</title>
<path fill="none" stroke="midnightblue" d="M227.59,-40.96C224.41,-45.68 215.88,-49 202,-49 179.22,-49 170.85,-40.06 176.91,-30.66"/>
<polygon fill="midnightblue" stroke="midnightblue" points="231.07,-40.48 227.09,-30.66 224.08,-40.81 231.07,-40.48"/>
</g>
<!-- Node2 -->
<g id="node2" class="node">
<title>Node2</title>
<g id="a_node2"><a xlink:href="structJsoNeat_1_1Iterator.html#a8e51259a9bc9df8d823e0d6d138e6dc5" target="_top" xlink:title="skip this key/value pair (in and object)">
<polygon fill="none" stroke="black" points="0,-0.5 0,-30.5 115,-30.5 115,-0.5 0,-0.5"/>
<text text-anchor="start" x="8" y="-18.5" font-family="Helvetica,sans-Serif" font-size="10.00">JsoNeat::Iterator::</text>
<text text-anchor="middle" x="57.5" y="-7.5" font-family="Helvetica,sans-Serif" font-size="10.00">skip_key_and_value</text>
</a>
</g>
</g>
<!-- Node1&#45;&gt;Node2 -->
<g id="edge1" class="edge">
<title>Node1&#45;&gt;Node2</title>
<path fill="none" stroke="midnightblue" d="M140.58,-8.82C132.13,-8.71 123.47,-8.73 115.09,-8.88"/>
<polygon fill="midnightblue" stroke="midnightblue" points="140.69,-12.32 150.76,-9.02 140.83,-5.32 140.69,-12.32"/>
</g>
<!-- Node2&#45;&gt;Node1 -->
<g id="edge2" class="edge">
<title>Node2&#45;&gt;Node1</title>
<path fill="none" stroke="midnightblue" d="M125.14,-22.24C133.76,-22.28 142.47,-22.2 150.76,-21.98"/>
<polygon fill="midnightblue" stroke="midnightblue" points="125.13,-18.74 115.09,-22.12 125.05,-25.74 125.13,-18.74"/>
</g>
</g>
</svg>
