<?xml version="1.0" encoding="UTF-8" standalone="no"?>
<!DOCTYPE svg PUBLIC "-//W3C//DTD SVG 1.1//EN"
 "http://www.w3.org/Graphics/SVG/1.1/DTD/svg11.dtd">
<!-- Generated by graphviz version 2.43.0 (0)
 -->
<!-- Title: JsoNeat::Iterator::skip_key_and_value Pages: 1 -->
<svg width="261pt" height="57pt"
 viewBox="0.00 0.00 261.00 57.00" xmlns="http://www.w3.org/2000/svg" xmlns:xlink="http://www.w3.org/1999/xlink">
<g id="graph0" class="graph" transform="scale(1 1) rotate(0) translate(4 53)">
<title>JsoNeat::Iterator::skip_key_and_value</title>
<!-- Node1 -->
<g id="node1" class="node">
<title>Node1</title>
<g id="a_node1"><a xlink:title="skip this key/value pair (in and object)">
<polygon fill="#bfbfbf" stroke="black" points="138,-0.5 138,-30.5 253,-30.5 253,-0.5 138,-0.5"/>
<text text-anchor="start" x="146" y="-18.5" font-family="Helvetica,sans-Serif" font-size="10.00">JsoNeat::Iterator::</text>
<text text-anchor="middle" x="195.5" y="-7.5" font-family="Helvetica,sans-Serif" font-size="10.00">skip_key_and_value</text>
</a>
</g>
</g>
<!-- Node2 -->
<g id="node2" class="node">
<title>Node2</title>
<g id="a_node2"><a xlink:href="structJsoNeat_1_1Iterator.html#a58375f61678c65c97f2ae6ca3d1226a6" target="_top" xlink:title="skip this value (of an array)">
<polygon fill="none" stroke="black" points="0,-0.5 0,-30.5 102,-30.5 102,-0.5 0,-0.5"/>
<text text-anchor="start" x="8" y="-18.5" font-family="Helvetica,sans-Serif" font-size="10.00">JsoNeat::Iterator::</text>
<text text-anchor="middle" x="51" y="-7.5" font-family="Helvetica,sans-Serif" font-size="10.00">skip_value</text>
</a>
</g>
</g>
<!-- Node1&#45;&gt;Node2 -->
<g id="edge1" class="edge">
<title>Node1&#45;&gt;Node2</title>
<path fill="none" stroke="midnightblue" d="M127.72,-8.76C119.09,-8.72 110.38,-8.8 102.08,-9.02"/>
<polygon fill="midnightblue" stroke="midnightblue" points="127.73,-12.26 137.77,-8.88 127.81,-5.26 127.73,-12.26"/>
</g>
<!-- Node2&#45;&gt;Node1 -->
<g id="edge2" class="edge">
<title>Node2&#45;&gt;Node1</title>
<path fill="none" stroke="midnightblue" d="M112.26,-22.18C120.72,-22.29 129.38,-22.27 137.77,-22.12"/>
<polygon fill="midnightblue" stroke="midnightblue" points="112.15,-18.68 102.08,-21.98 112.01,-25.67 112.15,-18.68"/>
</g>
<!-- Node2&#45;&gt;Node2 -->
<g id="edge3" class="edge">
<title>Node2&#45;&gt;Node2</title>
<path fill="none" stroke="midnightblue" d="M76.59,-40.96C73.41,-45.68 64.88,-49 51,-49 28.22,-49 19.85,-40.06 25.91,-30.66"/>
<polygon fill="midnightblue" stroke="midnightblue" points="80.07,-40.48 76.09,-30.66 73.08,-40.81 80.07,-40.48"/>
</g>
</g>
</svg>
