<?xml version="1.0" encoding="UTF-8" standalone="no"?>
<!DOCTYPE svg PUBLIC "-//W3C//DTD SVG 1.1//EN"
 "http://www.w3.org/Graphics/SVG/1.1/DTD/svg11.dtd">
<!-- Generated by graphviz version 2.43.0 (0)
 -->
<!-- Title: cli_parm Pages: 1 -->
<svg width="67pt" height="182pt"
 viewBox="0.00 0.00 67.00 182.00" xmlns="http://www.w3.org/2000/svg" xmlns:xlink="http://www.w3.org/1999/xlink">
<g id="graph0" class="graph" transform="scale(1 1) rotate(0) translate(4 178)">
<title>cli_parm</title>
<!-- Node1 -->
<g id="node1" class="node">
<title>Node1</title>
<g id="a_node1"><a xlink:title="describing an array of clpar">
<polygon fill="#bfbfbf" stroke="black" points="0,-0.5 0,-57.5 59,-57.5 59,-0.5 0,-0.5"/>
<text text-anchor="middle" x="29.5" y="-45.5" font-family="Helvetica,sans-Serif" font-size="10.00">cli_parm</text>
<polyline fill="none" stroke="black" points="0,-38.5 59,-38.5 "/>
<text text-anchor="start" x="8" y="-26.5" font-family="Helvetica,sans-Serif" font-size="10.00">+ size</text>
<polyline fill="none" stroke="black" points="0,-19.5 59,-19.5 "/>
<text text-anchor="middle" x="29.5" y="-7.5" font-family="Helvetica,sans-Serif" font-size="10.00"> </text>
</a>
</g>
</g>
<!-- Node2 -->
<g id="node2" class="node">
<title>Node2</title>
<g id="a_node2"><a xlink:href="structclpar.html" target="_top" xlink:title="key value pair">
<polygon fill="none" stroke="black" points="7,-105.5 7,-173.5 52,-173.5 52,-105.5 7,-105.5"/>
<text text-anchor="middle" x="29.5" y="-161.5" font-family="Helvetica,sans-Serif" font-size="10.00">clpar</text>
<polyline fill="none" stroke="black" points="7,-154.5 52,-154.5 "/>
<text text-anchor="start" x="15" y="-142.5" font-family="Helvetica,sans-Serif" font-size="10.00">+ key</text>
<text text-anchor="start" x="15" y="-131.5" font-family="Helvetica,sans-Serif" font-size="10.00">+ val</text>
<polyline fill="none" stroke="black" points="7,-124.5 52,-124.5 "/>
<text text-anchor="middle" x="29.5" y="-112.5" font-family="Helvetica,sans-Serif" font-size="10.00"> </text>
</a>
</g>
</g>
<!-- Node2&#45;&gt;Node1 -->
<g id="edge1" class="edge">
<title>Node2&#45;&gt;Node1</title>
<path fill="none" stroke="#404040" d="M29.5,-105.36C29.5,-94.19 29.5,-81.61 29.5,-69.97"/>
<polygon fill="none" stroke="#404040" points="29.5,-69.83 25.5,-63.83 29.5,-57.83 33.5,-63.83 29.5,-69.83"/>
<text text-anchor="middle" x="43.5" y="-79" font-family="Helvetica,sans-Serif" font-size="10.00"> +par</text>
</g>
</g>
</svg>
