<?xml version="1.0" encoding="UTF-8" standalone="no"?>
<!DOCTYPE svg PUBLIC "-//W3C//DTD SVG 1.1//EN"
 "http://www.w3.org/Graphics/SVG/1.1/DTD/svg11.dtd">
<!-- Generated by graphviz version 2.43.0 (0)
 -->
<!-- Title: fer_timer_row Pages: 1 -->
<svg width="94pt" height="298pt"
 viewBox="0.00 0.00 93.50 298.00" xmlns="http://www.w3.org/2000/svg" xmlns:xlink="http://www.w3.org/1999/xlink">
<g id="graph0" class="graph" transform="scale(1 1) rotate(0) translate(4 294)">
<title>fer_timer_row</title>
<!-- Node1 -->
<g id="node1" class="node">
<title>Node1</title>
<g id="a_node1"><a xlink:title="A row containing 2 timers.">
<polygon fill="#bfbfbf" stroke="black" points="0,-0.5 0,-57.5 85,-57.5 85,-0.5 0,-0.5"/>
<text text-anchor="middle" x="42.5" y="-45.5" font-family="Helvetica,sans-Serif" font-size="10.00">fer_timer_row</text>
<polyline fill="none" stroke="black" points="0,-38.5 85,-38.5 "/>
<text text-anchor="start" x="8" y="-26.5" font-family="Helvetica,sans-Serif" font-size="10.00">+ checkSum</text>
<polyline fill="none" stroke="black" points="0,-19.5 85,-19.5 "/>
<text text-anchor="middle" x="42.5" y="-7.5" font-family="Helvetica,sans-Serif" font-size="10.00"> </text>
</a>
</g>
</g>
<!-- Node2 -->
<g id="node2" class="node">
<title>Node2</title>
<g id="a_node2"><a xlink:href="structfer__timer.html" target="_top" xlink:title="Up/Down pair used in timers.">
<polygon fill="none" stroke="black" points="11.5,-105.5 11.5,-162.5 73.5,-162.5 73.5,-105.5 11.5,-105.5"/>
<text text-anchor="middle" x="42.5" y="-150.5" font-family="Helvetica,sans-Serif" font-size="10.00">fer_timer</text>
<polyline fill="none" stroke="black" points="11.5,-143.5 73.5,-143.5 "/>
<text text-anchor="middle" x="42.5" y="-131.5" font-family="Helvetica,sans-Serif" font-size="10.00"> </text>
<polyline fill="none" stroke="black" points="11.5,-124.5 73.5,-124.5 "/>
<text text-anchor="middle" x="42.5" y="-112.5" font-family="Helvetica,sans-Serif" font-size="10.00"> </text>
</a>
</g>
</g>
<!-- Node2&#45;&gt;Node1 -->
<g id="edge1" class="edge">
<title>Node2&#45;&gt;Node1</title>
<path fill="none" stroke="#404040" d="M42.5,-105.4C42.5,-94.55 42.5,-81.87 42.5,-70.05"/>
<polygon fill="none" stroke="#404040" points="42.5,-69.68 38.5,-63.68 42.5,-57.68 46.5,-63.68 42.5,-69.68"/>
<text text-anchor="middle" x="64" y="-79" font-family="Helvetica,sans-Serif" font-size="10.00"> +timers</text>
</g>
<!-- Node3 -->
<g id="node3" class="node">
<title>Node3</title>
<g id="a_node3"><a xlink:href="structfer__time.html" target="_top" xlink:title="Minute/Hour pair used in timers.">
<polygon fill="none" stroke="black" points="13.5,-221.5 13.5,-289.5 71.5,-289.5 71.5,-221.5 13.5,-221.5"/>
<text text-anchor="middle" x="42.5" y="-277.5" font-family="Helvetica,sans-Serif" font-size="10.00">fer_time</text>
<polyline fill="none" stroke="black" points="13.5,-270.5 71.5,-270.5 "/>
<text text-anchor="start" x="21.5" y="-258.5" font-family="Helvetica,sans-Serif" font-size="10.00">+ mint</text>
<text text-anchor="start" x="21.5" y="-247.5" font-family="Helvetica,sans-Serif" font-size="10.00">+ hour</text>
<polyline fill="none" stroke="black" points="13.5,-240.5 71.5,-240.5 "/>
<text text-anchor="middle" x="42.5" y="-228.5" font-family="Helvetica,sans-Serif" font-size="10.00"> </text>
</a>
</g>
</g>
<!-- Node3&#45;&gt;Node2 -->
<g id="edge2" class="edge">
<title>Node3&#45;&gt;Node2</title>
<path fill="none" stroke="#404040" d="M42.5,-221.21C42.5,-206.86 42.5,-189.96 42.5,-174.94"/>
<polygon fill="none" stroke="#404040" points="42.5,-174.86 38.5,-168.86 42.5,-162.86 46.5,-168.86 42.5,-174.86"/>
<text text-anchor="middle" x="61.5" y="-195" font-family="Helvetica,sans-Serif" font-size="10.00"> +down</text>
<text text-anchor="middle" x="61.5" y="-184" font-family="Helvetica,sans-Serif" font-size="10.00">+up</text>
</g>
</g>
</svg>
