<?xml version="1.0" encoding="UTF-8" standalone="no"?>
<!DOCTYPE svg PUBLIC "-//W3C//DTD SVG 1.1//EN"
 "http://www.w3.org/Graphics/SVG/1.1/DTD/svg11.dtd">
<!-- Generated by graphviz version 2.43.0 (0)
 -->
<!-- Title: so_arg_gmt_t Pages: 1 -->
<svg width="143pt" height="204pt"
 viewBox="0.00 0.00 143.00 204.00" xmlns="http://www.w3.org/2000/svg" xmlns:xlink="http://www.w3.org/1999/xlink">
<g id="graph0" class="graph" transform="scale(1 1) rotate(0) translate(4 200)">
<title>so_arg_gmt_t</title>
<!-- Node1 -->
<g id="node1" class="node">
<title>Node1</title>
<g id="a_node1"><a xlink:title=" ">
<polygon fill="#bfbfbf" stroke="black" points="26,-0.5 26,-68.5 109,-68.5 109,-0.5 26,-0.5"/>
<text text-anchor="middle" x="67.5" y="-56.5" font-family="Helvetica,sans-Serif" font-size="10.00">so_arg_gmt_t</text>
<polyline fill="none" stroke="black" points="26,-49.5 109,-49.5 "/>
<text text-anchor="start" x="34" y="-37.5" font-family="Helvetica,sans-Serif" font-size="10.00">+ g</text>
<text text-anchor="start" x="34" y="-26.5" font-family="Helvetica,sans-Serif" font-size="10.00">+ m</text>
<polyline fill="none" stroke="black" points="26,-19.5 109,-19.5 "/>
<text text-anchor="middle" x="67.5" y="-7.5" font-family="Helvetica,sans-Serif" font-size="10.00"> </text>
</a>
</g>
</g>
<!-- Node2 -->
<g id="node2" class="node">
<title>Node2</title>
<g id="a_node2"><a xlink:href="structshutter__timings.html" target="_top" xlink:title=" ">
<polygon fill="none" stroke="black" points="0,-116.5 0,-195.5 135,-195.5 135,-116.5 0,-116.5"/>
<text text-anchor="middle" x="67.5" y="-183.5" font-family="Helvetica,sans-Serif" font-size="10.00">shutter_timings</text>
<polyline fill="none" stroke="black" points="0,-176.5 135,-176.5 "/>
<text text-anchor="start" x="8" y="-164.5" font-family="Helvetica,sans-Serif" font-size="10.00">+ move_up_tsecs</text>
<text text-anchor="start" x="8" y="-153.5" font-family="Helvetica,sans-Serif" font-size="10.00">+ move_down_tsecs</text>
<text text-anchor="start" x="8" y="-142.5" font-family="Helvetica,sans-Serif" font-size="10.00">+ move_sundown_tsecs</text>
<polyline fill="none" stroke="black" points="0,-135.5 135,-135.5 "/>
<text text-anchor="middle" x="67.5" y="-123.5" font-family="Helvetica,sans-Serif" font-size="10.00"> </text>
</a>
</g>
</g>
<!-- Node2&#45;&gt;Node1 -->
<g id="edge1" class="edge">
<title>Node2&#45;&gt;Node1</title>
<path fill="none" stroke="#404040" d="M67.5,-116.2C67.5,-104.99 67.5,-92.65 67.5,-81.07"/>
<polygon fill="none" stroke="#404040" points="67.5,-80.89 63.5,-74.89 67.5,-68.89 71.5,-74.89 67.5,-80.89"/>
<text text-anchor="middle" x="78" y="-90" font-family="Helvetica,sans-Serif" font-size="10.00"> +st</text>
</g>
</g>
</svg>
