<?xml version="1.0" encoding="UTF-8" standalone="no"?>
<!DOCTYPE svg PUBLIC "-//W3C//DTD SVG 1.1//EN"
 "http://www.w3.org/Graphics/SVG/1.1/DTD/svg11.dtd">
<!-- Generated by graphviz version 2.43.0 (0)
 -->
<!-- Title: JsoNeat::Iterator::skip_value Pages: 1 -->
<svg width="261pt" height="57pt"
 viewBox="0.00 0.00 261.00 57.00" xmlns="http://www.w3.org/2000/svg" xmlns:xlink="http://www.w3.org/1999/xlink">
<g id="graph0" class="graph" transform="scale(1 1) rotate(0) translate(4 53)">
<title>JsoNeat::Iterator::skip_value</title>
<!-- Node1 -->
<g id="node1" class="node">
<title>Node1</title>
<g id="a_node1"><a xlink:title="skip this value (of an array)">
<polygon fill="#bfbfbf" stroke="black" points="0,-0.5 0,-30.5 102,-30.5 102,-0.5 0,-0.5"/>
<text text-anchor="start" x="8" y="-18.5" font-family="Helvetica,sans-Serif" font-size="10.00">JsoNeat::Iterator::</text>
<text text-anchor="middle" x="51" y="-7.5" font-family="Helvetica,sans-Serif" font-size="10.00">skip_value</text>
</a>
</g>
</g>
<!-- Node1&#45;&gt;Node1 -->
<g id="edge3" class="edge">
<title>Node1&#45;&gt;Node1</title>
<path fill="none" stroke="midnightblue" d="M25.91,-30.66C19.85,-40.06 28.22,-49 51,-49 64.88,-49 73.41,-45.68 76.59,-40.96"/>
<polygon fill="midnightblue" stroke="midnightblue" points="80.07,-40.48 76.09,-30.66 73.08,-40.81 80.07,-40.48"/>
</g>
<!-- Node2 -->
<g id="node2" class="node">
<title>Node2</title>
<g id="a_node2"><a xlink:href="structJsoNeat_1_1Iterator.html#a8e51259a9bc9df8d823e0d6d138e6dc5" target="_top" xlink:title="skip this key/value pair (in and object)">
<polygon fill="none" stroke="black" points="138,-0.5 138,-30.5 253,-30.5 253,-0.5 138,-0.5"/>
<text text-anchor="start" x="146" y="-18.5" font-family="Helvetica,sans-Serif" font-size="10.00">JsoNeat::Iterator::</text>
<text text-anchor="middle" x="195.5" y="-7.5" font-family="Helvetica,sans-Serif" font-size="10.00">skip_key_and_value</text>
</a>
</g>
</g>
<!-- Node1&#45;&gt;Node2 -->
<g id="edge1" class="edge">
<title>Node1&#45;&gt;Node2</title>
<path fill="none" stroke="midnightblue" d="M102.24,-9.02C110.53,-8.8 119.24,-8.72 127.86,-8.76"/>
<polygon fill="midnightblue" stroke="midnightblue" points="127.87,-12.26 137.91,-8.88 127.95,-5.26 127.87,-12.26"/>
</g>
<!-- Node2&#45;&gt;Node1 -->
<g id="edge2" class="edge">
<title>Node2&#45;&gt;Node1</title>
<path fill="none" stroke="midnightblue" d="M137.91,-22.12C129.53,-22.27 120.87,-22.29 112.42,-22.18"/>
<polygon fill="midnightblue" stroke="midnightblue" points="112.31,-18.68 102.24,-21.98 112.17,-25.68 112.31,-18.68"/>
</g>
</g>
</svg>
