<?xml version="1.0" encoding="UTF-8" standalone="no"?>
<!DOCTYPE svg PUBLIC "-//W3C//DTD SVG 1.1//EN"
 "http://www.w3.org/Graphics/SVG/1.1/DTD/svg11.dtd">
<!-- Generated by graphviz version 2.43.0 (0)
 -->
<!-- Title: parm_handlers Pages: 1 -->
<svg width="114pt" height="193pt"
 viewBox="0.00 0.00 113.50 193.00" xmlns="http://www.w3.org/2000/svg" xmlns:xlink="http://www.w3.org/1999/xlink">
<g id="graph0" class="graph" transform="scale(1 1) rotate(0) translate(4 189)">
<title>parm_handlers</title>
<!-- Node1 -->
<g id="node1" class="node">
<title>Node1</title>
<g id="a_node1"><a xlink:title="describing an array of parm_handler">
<polygon fill="#bfbfbf" stroke="black" points="7,-0.5 7,-57.5 96,-57.5 96,-0.5 7,-0.5"/>
<text text-anchor="middle" x="51.5" y="-45.5" font-family="Helvetica,sans-Serif" font-size="10.00">parm_handlers</text>
<polyline fill="none" stroke="black" points="7,-38.5 96,-38.5 "/>
<text text-anchor="start" x="15" y="-26.5" font-family="Helvetica,sans-Serif" font-size="10.00">+ count</text>
<polyline fill="none" stroke="black" points="7,-19.5 96,-19.5 "/>
<text text-anchor="middle" x="51.5" y="-7.5" font-family="Helvetica,sans-Serif" font-size="10.00"> </text>
</a>
</g>
</g>
<!-- Node2 -->
<g id="node2" class="node">
<title>Node2</title>
<g id="a_node2"><a xlink:href="structparm__handler.html" target="_top" xlink:title="describing a CLI parameter handler, so it can be found by the framework">
<polygon fill="none" stroke="black" points="0,-105.5 0,-184.5 103,-184.5 103,-105.5 0,-105.5"/>
<text text-anchor="middle" x="51.5" y="-172.5" font-family="Helvetica,sans-Serif" font-size="10.00">parm_handler</text>
<polyline fill="none" stroke="black" points="0,-165.5 103,-165.5 "/>
<text text-anchor="start" x="8" y="-153.5" font-family="Helvetica,sans-Serif" font-size="10.00">+ parm</text>
<text text-anchor="start" x="8" y="-142.5" font-family="Helvetica,sans-Serif" font-size="10.00">+ process_parmX</text>
<text text-anchor="start" x="8" y="-131.5" font-family="Helvetica,sans-Serif" font-size="10.00">+ help</text>
<polyline fill="none" stroke="black" points="0,-124.5 103,-124.5 "/>
<text text-anchor="middle" x="51.5" y="-112.5" font-family="Helvetica,sans-Serif" font-size="10.00"> </text>
</a>
</g>
</g>
<!-- Node2&#45;&gt;Node1 -->
<g id="edge1" class="edge">
<title>Node2&#45;&gt;Node1</title>
<path fill="none" stroke="#404040" d="M51.5,-105.4C51.5,-93.93 51.5,-81.33 51.5,-69.78"/>
<polygon fill="none" stroke="#404040" points="51.5,-69.75 47.5,-63.75 51.5,-57.75 55.5,-63.75 51.5,-69.75"/>
<text text-anchor="middle" x="78.5" y="-79" font-family="Helvetica,sans-Serif" font-size="10.00"> +handlers</text>
</g>
</g>
</svg>
