<?xml version="1.0" encoding="UTF-8" standalone="no"?>
<!DOCTYPE svg PUBLIC "-//W3C//DTD SVG 1.1//EN"
 "http://www.w3.org/Graphics/SVG/1.1/DTD/svg11.dtd">
<!-- Generated by graphviz version 2.43.0 (0)
 -->
<!-- Title: file_map Pages: 1 -->
<svg width="256pt" height="215pt"
 viewBox="0.00 0.00 256.00 215.00" xmlns="http://www.w3.org/2000/svg" xmlns:xlink="http://www.w3.org/1999/xlink">
<g id="graph0" class="graph" transform="scale(1 1) rotate(0) translate(4 211)">
<title>file_map</title>
<!-- Node1 -->
<g id="node1" class="node">
<title>Node1</title>
<g id="a_node1"><a xlink:title="map URI to web content">
<polygon fill="#bfbfbf" stroke="black" points="94.5,-0.5 94.5,-68.5 153.5,-68.5 153.5,-0.5 94.5,-0.5"/>
<text text-anchor="middle" x="124" y="-56.5" font-family="Helvetica,sans-Serif" font-size="10.00">file_map</text>
<polyline fill="none" stroke="black" points="94.5,-49.5 153.5,-49.5 "/>
<text text-anchor="start" x="102.5" y="-37.5" font-family="Helvetica,sans-Serif" font-size="10.00">+ uri</text>
<text text-anchor="start" x="102.5" y="-26.5" font-family="Helvetica,sans-Serif" font-size="10.00">+ type</text>
<polyline fill="none" stroke="black" points="94.5,-19.5 153.5,-19.5 "/>
<text text-anchor="middle" x="124" y="-7.5" font-family="Helvetica,sans-Serif" font-size="10.00"> </text>
</a>
</g>
</g>
<!-- Node2 -->
<g id="node2" class="node">
<title>Node2</title>
<g id="a_node2"><a xlink:href="classContentReader.html" target="_top" xlink:title="base class for serving file like things">
<polygon fill="none" stroke="black" points="0,-116.5 0,-206.5 116,-206.5 116,-116.5 0,-116.5"/>
<text text-anchor="middle" x="58" y="-194.5" font-family="Helvetica,sans-Serif" font-size="10.00">ContentReader</text>
<polyline fill="none" stroke="black" points="0,-187.5 116,-187.5 "/>
<text text-anchor="middle" x="58" y="-175.5" font-family="Helvetica,sans-Serif" font-size="10.00"> </text>
<polyline fill="none" stroke="black" points="0,-168.5 116,-168.5 "/>
<text text-anchor="start" x="8" y="-156.5" font-family="Helvetica,sans-Serif" font-size="10.00">+ ~ContentReader()</text>
<text text-anchor="start" x="8" y="-145.5" font-family="Helvetica,sans-Serif" font-size="10.00">+ open()</text>
<text text-anchor="start" x="8" y="-134.5" font-family="Helvetica,sans-Serif" font-size="10.00">+ read()</text>
<text text-anchor="start" x="8" y="-123.5" font-family="Helvetica,sans-Serif" font-size="10.00">+ close()</text>
</a>
</g>
</g>
<!-- Node2&#45;&gt;Node1 -->
<g id="edge1" class="edge">
<title>Node2&#45;&gt;Node1</title>
<path fill="none" stroke="#404040" d="M71.03,-116.36C74.66,-106.44 79,-96.15 84,-87 85.55,-84.16 87.25,-81.32 89.05,-78.51"/>
<polygon fill="none" stroke="#404040" points="89.12,-78.4 89.22,-71.19 95.91,-68.51 95.81,-75.72 89.12,-78.4"/>
<text text-anchor="middle" x="126.5" y="-90" font-family="Helvetica,sans-Serif" font-size="10.00"> +content_reader</text>
</g>
<!-- Node3 -->
<g id="node3" class="node">
<title>Node3</title>
<g id="a_node3"><a xlink:href="structweb__content.html" target="_top" xlink:title="describe web content">
<polygon fill="none" stroke="black" points="134,-122 134,-201 248,-201 248,-122 134,-122"/>
<text text-anchor="middle" x="191" y="-189" font-family="Helvetica,sans-Serif" font-size="10.00">web_content</text>
<polyline fill="none" stroke="black" points="134,-182 248,-182 "/>
<text text-anchor="start" x="142" y="-170" font-family="Helvetica,sans-Serif" font-size="10.00">+ content</text>
<text text-anchor="start" x="142" y="-159" font-family="Helvetica,sans-Serif" font-size="10.00">+ content_encoding</text>
<text text-anchor="start" x="142" y="-148" font-family="Helvetica,sans-Serif" font-size="10.00">+ content_length</text>
<polyline fill="none" stroke="black" points="134,-141 248,-141 "/>
<text text-anchor="middle" x="191" y="-129" font-family="Helvetica,sans-Serif" font-size="10.00"> </text>
</a>
</g>
</g>
<!-- Node3&#45;&gt;Node1 -->
<g id="edge2" class="edge">
<title>Node3&#45;&gt;Node1</title>
<path fill="none" stroke="#404040" d="M182.77,-121.86C179.43,-110.24 174.92,-97.73 169,-87 166.71,-82.85 164.04,-78.74 161.16,-74.76"/>
<polygon fill="none" stroke="#404040" points="161.07,-74.65 154.23,-72.38 153.69,-65.19 160.53,-67.46 161.07,-74.65"/>
<text text-anchor="middle" x="185.5" y="-90" font-family="Helvetica,sans-Serif" font-size="10.00"> +wc</text>
</g>
</g>
</svg>
