<?xml version="1.0" encoding="UTF-8" standalone="no"?>
<!DOCTYPE svg PUBLIC "-//W3C//DTD SVG 1.1//EN"
 "http://www.w3.org/Graphics/SVG/1.1/DTD/svg11.dtd">
<!-- Generated by graphviz version 2.43.0 (0)
 -->
<!-- Title: fer_raw_msg Pages: 1 -->
<!--zoomable 1006 -->
<svg id="main" version="1.1" xmlns="http://www.w3.org/2000/svg" xmlns:xlink="http://www.w3.org/1999/xlink" xml:space="preserve" onload="init(evt)">
<style type="text/css"><![CDATA[
.edge:hover path { stroke: red; }
.edge:hover polygon { stroke: red; fill: red; }
]]></style>
<script type="text/javascript"><![CDATA[
var edges = document.getElementsByTagName('g');
if (edges && edges.length) {
  for (var i=0;i<edges.length;i++) {
    if (edges[i].id.substr(0,4)=='edge') {
      edges[i].setAttribute('class','edge');
    }
  }
}
]]></script>
        <defs>
                <circle id="rim" cx="0" cy="0" r="7"/>
                <circle id="rim2" cx="0" cy="0" r="3.5"/>
                <g id="zoomPlus">
                        <use xlink:href="#rim" fill="#404040">
                                <set attributeName="fill" to="#808080" begin="zoomplus.mouseover" end="zoomplus.mouseout"/>
                        </use>
                        <path d="M-4,0h8M0,-4v8" fill="none" stroke="white" stroke-width="1.5" pointer-events="none"/>
                </g>
                <g id="zoomMin">
                        <use xlink:href="#rim" fill="#404040">
                                <set attributeName="fill" to="#808080" begin="zoomminus.mouseover" end="zoomminus.mouseout"/>
                        </use>
                        <path d="M-4,0h8" fill="none" stroke="white" stroke-width="1.5" pointer-events="none"/>
                </g>
                <g id="dirArrow">
                        <path fill="none" stroke="white" stroke-width="1.5" d="M0,-3.0v7 M-2.5,-0.5L0,-3.0L2.5,-0.5"/>
                </g>
               <g id="resetDef">
                       <use xlink:href="#rim2" fill="#404040">
                               <set attributeName="fill" to="#808080" begin="reset.mouseover" end="reset.mouseout"/>
                       </use>
               </g>
        </defs>

<script type="text/javascript">
var viewWidth = 419;
var viewHeight = 1006;
var sectionId = 'dynsection-0';
</script>
<script xlink:href="svgpan.js"/>
<svg id="graph" class="graph">
<g id="viewport">
<title>fer_raw_msg</title>
<!-- Node1 -->
<g id="node1" class="node">
<title>Node1</title>
<g id="a_node1"><a xlink:title="Full size raw message.">
<polygon fill="#bfbfbf" stroke="black" points="193.5,-0.5 193.5,-57.5 273.5,-57.5 273.5,-0.5 193.5,-0.5"/>
<text text-anchor="middle" x="233.5" y="-45.5" font-family="Helvetica,sans-Serif" font-size="10.00">fer_raw_msg</text>
<polyline fill="none" stroke="black" points="193.5,-38.5 273.5,-38.5 "/>
<text text-anchor="start" x="201.5" y="-26.5" font-family="Helvetica,sans-Serif" font-size="10.00">+ last</text>
<polyline fill="none" stroke="black" points="193.5,-19.5 273.5,-19.5 "/>
<text text-anchor="middle" x="233.5" y="-7.5" font-family="Helvetica,sans-Serif" font-size="10.00"> </text>
</a>
</g>
</g>
<!-- Node2 -->
<g id="node2" class="node">
<title>Node2</title>
<g id="a_node2"><a xlink:href="unionfer__astro.html" target="_top" xlink:title="Block of astro rows.">
<polygon fill="none" stroke="black" points="13.5,-247.5 13.5,-304.5 73.5,-304.5 73.5,-247.5 13.5,-247.5"/>
<text text-anchor="middle" x="43.5" y="-292.5" font-family="Helvetica,sans-Serif" font-size="10.00">fer_astro</text>
<polyline fill="none" stroke="black" points="13.5,-285.5 73.5,-285.5 "/>
<text text-anchor="start" x="21.5" y="-273.5" font-family="Helvetica,sans-Serif" font-size="10.00">+ bd</text>
<polyline fill="none" stroke="black" points="13.5,-266.5 73.5,-266.5 "/>
<text text-anchor="middle" x="43.5" y="-254.5" font-family="Helvetica,sans-Serif" font-size="10.00"> </text>
</a>
</g>
</g>
<!-- Node2&#45;&gt;Node1 -->
<g id="edge1" class="edge">
<title>Node2&#45;&gt;Node1</title>
<path fill="none" stroke="#404040" d="M47.41,-247.38C53.78,-211.13 69.39,-147.17 104.5,-105 125.02,-80.35 155.87,-62 182.25,-49.62"/>
<polygon fill="none" stroke="#404040" points="182.3,-49.6 186.13,-43.5 193.24,-44.68 189.41,-50.79 182.3,-49.6"/>
<text text-anchor="middle" x="123" y="-164.5" font-family="Helvetica,sans-Serif" font-size="10.00"> +astro</text>
</g>
<!-- Node3 -->
<g id="node3" class="node">
<title>Node3</title>
<g id="a_node3"><a xlink:href="unionfer__astro__row.html" target="_top" xlink:title="Astro row.">
<polygon fill="none" stroke="black" points="0,-791.5 0,-870.5 83,-870.5 83,-791.5 0,-791.5"/>
<text text-anchor="middle" x="41.5" y="-858.5" font-family="Helvetica,sans-Serif" font-size="10.00">fer_astro_row</text>
<polyline fill="none" stroke="black" points="0,-851.5 83,-851.5 "/>
<text text-anchor="start" x="8" y="-839.5" font-family="Helvetica,sans-Serif" font-size="10.00">+ bd</text>
<text text-anchor="start" x="8" y="-828.5" font-family="Helvetica,sans-Serif" font-size="10.00">+ checkSum</text>
<text text-anchor="start" x="8" y="-817.5" font-family="Helvetica,sans-Serif" font-size="10.00">+ sd</text>
<polyline fill="none" stroke="black" points="0,-810.5 83,-810.5 "/>
<text text-anchor="middle" x="41.5" y="-798.5" font-family="Helvetica,sans-Serif" font-size="10.00"> </text>
</a>
</g>
</g>
<!-- Node3&#45;&gt;Node2 -->
<g id="edge2" class="edge">
<title>Node3&#45;&gt;Node2</title>
<path fill="none" stroke="#404040" d="M41.64,-791.11C42.01,-689.85 42.99,-418.8 43.36,-316.67"/>
<polygon fill="none" stroke="#404040" points="43.36,-316.52 39.38,-310.5 43.4,-304.52 47.38,-310.53 43.36,-316.52"/>
<text text-anchor="middle" x="60" y="-765" font-family="Helvetica,sans-Serif" font-size="10.00"> +rows</text>
</g>
<!-- Node4 -->
<g id="node4" class="node">
<title>Node4</title>
<g id="a_node4"><a xlink:href="structfer__time.html" target="_top" xlink:title="Minute/Hour pair used in timers.">
<polygon fill="none" stroke="black" points="57.5,-929.5 57.5,-997.5 115.5,-997.5 115.5,-929.5 57.5,-929.5"/>
<text text-anchor="middle" x="86.5" y="-985.5" font-family="Helvetica,sans-Serif" font-size="10.00">fer_time</text>
<polyline fill="none" stroke="black" points="57.5,-978.5 115.5,-978.5 "/>
<text text-anchor="start" x="65.5" y="-966.5" font-family="Helvetica,sans-Serif" font-size="10.00">+ mint</text>
<text text-anchor="start" x="65.5" y="-955.5" font-family="Helvetica,sans-Serif" font-size="10.00">+ hour</text>
<polyline fill="none" stroke="black" points="57.5,-948.5 115.5,-948.5 "/>
<text text-anchor="middle" x="86.5" y="-936.5" font-family="Helvetica,sans-Serif" font-size="10.00"> </text>
</a>
</g>
</g>
<!-- Node4&#45;&gt;Node3 -->
<g id="edge3" class="edge">
<title>Node4&#45;&gt;Node3</title>
<path fill="none" stroke="#404040" d="M70.8,-929.27C68.2,-923.26 65.66,-916.99 63.5,-911 60.17,-901.76 57.04,-891.77 54.24,-882.1"/>
<polygon fill="none" stroke="#404040" points="54.24,-882.09 48.77,-877.39 51,-870.53 56.47,-875.23 54.24,-882.09"/>
<text text-anchor="middle" x="83.5" y="-897.5" font-family="Helvetica,sans-Serif" font-size="10.00"> +times</text>
</g>
<!-- Node8 -->
<g id="node8" class="node">
<title>Node8</title>
<g id="a_node8"><a xlink:href="structfer__timer.html" target="_top" xlink:title="Up/Down pair used in timers.">
<polygon fill="none" stroke="black" points="101.5,-802.5 101.5,-859.5 163.5,-859.5 163.5,-802.5 101.5,-802.5"/>
<text text-anchor="middle" x="132.5" y="-847.5" font-family="Helvetica,sans-Serif" font-size="10.00">fer_timer</text>
<polyline fill="none" stroke="black" points="101.5,-840.5 163.5,-840.5 "/>
<text text-anchor="middle" x="132.5" y="-828.5" font-family="Helvetica,sans-Serif" font-size="10.00"> </text>
<polyline fill="none" stroke="black" points="101.5,-821.5 163.5,-821.5 "/>
<text text-anchor="middle" x="132.5" y="-809.5" font-family="Helvetica,sans-Serif" font-size="10.00"> </text>
</a>
</g>
</g>
<!-- Node4&#45;&gt;Node8 -->
<g id="edge8" class="edge">
<title>Node4&#45;&gt;Node8</title>
<path fill="none" stroke="#404040" d="M98.23,-929.23C104.43,-911.64 112.08,-889.93 118.58,-871.48"/>
<polygon fill="none" stroke="#404040" points="118.67,-871.23 116.89,-864.24 122.66,-859.91 124.44,-866.9 118.67,-871.23"/>
<text text-anchor="middle" x="131.5" y="-903" font-family="Helvetica,sans-Serif" font-size="10.00"> +down</text>
<text text-anchor="middle" x="131.5" y="-892" font-family="Helvetica,sans-Serif" font-size="10.00">+up</text>
</g>
<!-- Node5 -->
<g id="node5" class="node">
<title>Node5</title>
<g id="a_node5"><a xlink:href="unionfer__rtc.html" target="_top" xlink:title="RTC row.">
<polygon fill="none" stroke="black" points="255.5,-138.5 255.5,-195.5 303.5,-195.5 303.5,-138.5 255.5,-138.5"/>
<text text-anchor="middle" x="279.5" y="-183.5" font-family="Helvetica,sans-Serif" font-size="10.00">fer_rtc</text>
<polyline fill="none" stroke="black" points="255.5,-176.5 303.5,-176.5 "/>
<text text-anchor="start" x="263.5" y="-164.5" font-family="Helvetica,sans-Serif" font-size="10.00">+ bd</text>
<polyline fill="none" stroke="black" points="255.5,-157.5 303.5,-157.5 "/>
<text text-anchor="middle" x="279.5" y="-145.5" font-family="Helvetica,sans-Serif" font-size="10.00"> </text>
</a>
</g>
</g>
<!-- Node5&#45;&gt;Node1 -->
<g id="edge4" class="edge">
<title>Node5&#45;&gt;Node1</title>
<path fill="none" stroke="#404040" d="M272.44,-138.13C267.66,-120.2 260.88,-96.5 253.5,-76 252.7,-73.79 251.85,-71.53 250.97,-69.26"/>
<polygon fill="none" stroke="#404040" points="250.9,-69.09 244.92,-65.06 246.35,-57.99 252.33,-62.03 250.9,-69.09"/>
<text text-anchor="middle" x="270" y="-79" font-family="Helvetica,sans-Serif" font-size="10.00"> +rtc</text>
</g>
<!-- Node6 -->
<g id="node6" class="node">
<title>Node6</title>
<g id="a_node6"><a xlink:href="structfer__rtc__sd.html" target="_top" xlink:title="Structured RTC message row (fer_fpr00 ). Programs the devices internal RTC.">
<polygon fill="none" stroke="black" points="249.5,-323.5 249.5,-743.5 331.5,-743.5 331.5,-323.5 249.5,-323.5"/>
<text text-anchor="middle" x="290.5" y="-731.5" font-family="Helvetica,sans-Serif" font-size="10.00">fer_rtc_sd</text>
<polyline fill="none" stroke="black" points="249.5,-724.5 331.5,-724.5 "/>
<text text-anchor="start" x="257.5" y="-712.5" font-family="Helvetica,sans-Serif" font-size="10.00">+ secs</text>
<text text-anchor="start" x="257.5" y="-701.5" font-family="Helvetica,sans-Serif" font-size="10.00">+ mint</text>
<text text-anchor="start" x="257.5" y="-690.5" font-family="Helvetica,sans-Serif" font-size="10.00">+ hour</text>
<text text-anchor="start" x="257.5" y="-679.5" font-family="Helvetica,sans-Serif" font-size="10.00">+ wDayMask</text>
<text text-anchor="start" x="257.5" y="-668.5" font-family="Helvetica,sans-Serif" font-size="10.00">+ sun</text>
<text text-anchor="start" x="257.5" y="-657.5" font-family="Helvetica,sans-Serif" font-size="10.00">+ mon</text>
<text text-anchor="start" x="257.5" y="-646.5" font-family="Helvetica,sans-Serif" font-size="10.00">+ tue</text>
<text text-anchor="start" x="257.5" y="-635.5" font-family="Helvetica,sans-Serif" font-size="10.00">+ wed</text>
<text text-anchor="start" x="257.5" y="-624.5" font-family="Helvetica,sans-Serif" font-size="10.00">+ thu</text>
<text text-anchor="start" x="257.5" y="-613.5" font-family="Helvetica,sans-Serif" font-size="10.00">+ fri</text>
<text text-anchor="start" x="257.5" y="-602.5" font-family="Helvetica,sans-Serif" font-size="10.00">+ sat</text>
<text text-anchor="start" x="257.5" y="-591.5" font-family="Helvetica,sans-Serif" font-size="10.00">+ wDayBits</text>
<text text-anchor="start" x="257.5" y="-580.5" font-family="Helvetica,sans-Serif" font-size="10.00">+ @19</text>
<text text-anchor="start" x="257.5" y="-569.5" font-family="Helvetica,sans-Serif" font-size="10.00">+ mday</text>
<text text-anchor="start" x="257.5" y="-558.5" font-family="Helvetica,sans-Serif" font-size="10.00">+ mont</text>
<text text-anchor="start" x="257.5" y="-547.5" font-family="Helvetica,sans-Serif" font-size="10.00">+ bd</text>
<text text-anchor="start" x="257.5" y="-536.5" font-family="Helvetica,sans-Serif" font-size="10.00">+ wday</text>
<text text-anchor="start" x="257.5" y="-525.5" font-family="Helvetica,sans-Serif" font-size="10.00">+ bit4</text>
<text text-anchor="start" x="257.5" y="-514.5" font-family="Helvetica,sans-Serif" font-size="10.00">+ bit5</text>
<text text-anchor="start" x="257.5" y="-503.5" font-family="Helvetica,sans-Serif" font-size="10.00">+ bit6</text>
<text text-anchor="start" x="257.5" y="-492.5" font-family="Helvetica,sans-Serif" font-size="10.00">+ rtc_only</text>
<text text-anchor="start" x="257.5" y="-481.5" font-family="Helvetica,sans-Serif" font-size="10.00">+ sd</text>
<text text-anchor="start" x="257.5" y="-470.5" font-family="Helvetica,sans-Serif" font-size="10.00">+ wd2</text>
<text text-anchor="start" x="257.5" y="-459.5" font-family="Helvetica,sans-Serif" font-size="10.00">+ random</text>
<text text-anchor="start" x="257.5" y="-448.5" font-family="Helvetica,sans-Serif" font-size="10.00">+ unused_1</text>
<text text-anchor="start" x="257.5" y="-437.5" font-family="Helvetica,sans-Serif" font-size="10.00">+ dst</text>
<text text-anchor="start" x="257.5" y="-426.5" font-family="Helvetica,sans-Serif" font-size="10.00">+ unused_3</text>
<text text-anchor="start" x="257.5" y="-415.5" font-family="Helvetica,sans-Serif" font-size="10.00">+ unused_4</text>
<text text-anchor="start" x="257.5" y="-404.5" font-family="Helvetica,sans-Serif" font-size="10.00">+ unused_5</text>
<text text-anchor="start" x="257.5" y="-393.5" font-family="Helvetica,sans-Serif" font-size="10.00">+ unused_6</text>
<text text-anchor="start" x="257.5" y="-382.5" font-family="Helvetica,sans-Serif" font-size="10.00">+ sunAuto</text>
<text text-anchor="start" x="257.5" y="-371.5" font-family="Helvetica,sans-Serif" font-size="10.00">+ bits</text>
<text text-anchor="start" x="257.5" y="-360.5" font-family="Helvetica,sans-Serif" font-size="10.00">+ flags</text>
<text text-anchor="start" x="257.5" y="-349.5" font-family="Helvetica,sans-Serif" font-size="10.00">+ checkSum</text>
<polyline fill="none" stroke="black" points="249.5,-342.5 331.5,-342.5 "/>
<text text-anchor="middle" x="290.5" y="-330.5" font-family="Helvetica,sans-Serif" font-size="10.00"> </text>
</a>
</g>
</g>
<!-- Node6&#45;&gt;Node5 -->
<g id="edge5" class="edge">
<title>Node6&#45;&gt;Node5</title>
<path fill="none" stroke="#404040" d="M284.19,-323.37C282.85,-279.09 281.58,-236.97 280.7,-207.79"/>
<polygon fill="none" stroke="#404040" points="280.7,-207.71 276.52,-201.83 280.34,-195.71 284.52,-201.59 280.7,-207.71"/>
<text text-anchor="middle" x="295" y="-273.5" font-family="Helvetica,sans-Serif" font-size="10.00"> +sd</text>
</g>
<!-- Node7 -->
<g id="node7" class="node">
<title>Node7</title>
<g id="a_node7"><a xlink:href="unionfer__wdtimer.html" target="_top" xlink:title="Block of weekly/daily timer rows.">
<polygon fill="none" stroke="black" points="150.5,-105.5 150.5,-228.5 226.5,-228.5 226.5,-105.5 150.5,-105.5"/>
<text text-anchor="middle" x="188.5" y="-216.5" font-family="Helvetica,sans-Serif" font-size="10.00">fer_wdtimer</text>
<polyline fill="none" stroke="black" points="150.5,-209.5 226.5,-209.5 "/>
<text text-anchor="start" x="158.5" y="-197.5" font-family="Helvetica,sans-Serif" font-size="10.00">+ bd</text>
<text text-anchor="start" x="158.5" y="-186.5" font-family="Helvetica,sans-Serif" font-size="10.00">+ rows</text>
<text text-anchor="start" x="158.5" y="-175.5" font-family="Helvetica,sans-Serif" font-size="10.00">+ cs0</text>
<text text-anchor="start" x="158.5" y="-164.5" font-family="Helvetica,sans-Serif" font-size="10.00">+ cs1</text>
<text text-anchor="start" x="158.5" y="-153.5" font-family="Helvetica,sans-Serif" font-size="10.00">+ cs2</text>
<text text-anchor="start" x="158.5" y="-142.5" font-family="Helvetica,sans-Serif" font-size="10.00">+ cs3</text>
<text text-anchor="start" x="158.5" y="-131.5" font-family="Helvetica,sans-Serif" font-size="10.00">+ days</text>
<polyline fill="none" stroke="black" points="150.5,-124.5 226.5,-124.5 "/>
<text text-anchor="middle" x="188.5" y="-112.5" font-family="Helvetica,sans-Serif" font-size="10.00"> </text>
</a>
</g>
</g>
<!-- Node7&#45;&gt;Node1 -->
<g id="edge6" class="edge">
<title>Node7&#45;&gt;Node1</title>
<path fill="none" stroke="#404040" d="M193.3,-105.45C195.21,-95.4 197.85,-85.25 201.5,-76 202.55,-73.33 203.79,-70.66 205.15,-68.03"/>
<polygon fill="none" stroke="#404040" points="205.24,-67.88 204.84,-60.68 211.33,-57.53 211.73,-64.73 205.24,-67.88"/>
<text text-anchor="middle" x="227.5" y="-79" font-family="Helvetica,sans-Serif" font-size="10.00"> +wdtimer</text>
</g>
<!-- Node8&#45;&gt;Node7 -->
<g id="edge7" class="edge">
<title>Node8&#45;&gt;Node7</title>
<path fill="none" stroke="#404040" d="M119.38,-802.44C112.24,-785.9 104.14,-764.23 100.5,-744 67.35,-559.85 52.73,-503.91 100.5,-323 105.22,-305.11 124.73,-270.13 144.18,-237.91"/>
<polygon fill="none" stroke="#404040" points="144.23,-237.83 143.94,-230.62 150.47,-227.58 150.77,-234.78 144.23,-237.83"/>
<text text-anchor="middle" x="118.5" y="-547.5" font-family="Helvetica,sans-Serif" font-size="10.00"> +daily</text>
<text text-anchor="middle" x="118.5" y="-536.5" font-family="Helvetica,sans-Serif" font-size="10.00">+fri</text>
<text text-anchor="middle" x="118.5" y="-525.5" font-family="Helvetica,sans-Serif" font-size="10.00">+mon</text>
<text text-anchor="middle" x="118.5" y="-514.5" font-family="Helvetica,sans-Serif" font-size="10.00">+wed</text>
</g>
<!-- Node9 -->
<g id="node9" class="node">
<title>Node9</title>
<g id="a_node9"><a xlink:href="structfer__timer__row.html" target="_top" xlink:title="A row containing 2 timers.">
<polygon fill="none" stroke="black" points="146,-505 146,-562 231,-562 231,-505 146,-505"/>
<text text-anchor="middle" x="188.5" y="-550" font-family="Helvetica,sans-Serif" font-size="10.00">fer_timer_row</text>
<polyline fill="none" stroke="black" points="146,-543 231,-543 "/>
<text text-anchor="start" x="154" y="-531" font-family="Helvetica,sans-Serif" font-size="10.00">+ checkSum</text>
<polyline fill="none" stroke="black" points="146,-524 231,-524 "/>
<text text-anchor="middle" x="188.5" y="-512" font-family="Helvetica,sans-Serif" font-size="10.00"> </text>
</a>
</g>
</g>
<!-- Node8&#45;&gt;Node9 -->
<g id="edge10" class="edge">
<title>Node8&#45;&gt;Node9</title>
<path fill="none" stroke="#404040" d="M137.72,-802.47C147.68,-749.9 169.44,-635.06 180.98,-574.2"/>
<polygon fill="none" stroke="#404040" points="181.04,-573.86 178.23,-567.22 183.27,-562.07 186.09,-568.71 181.04,-573.86"/>
<text text-anchor="middle" x="167" y="-765" font-family="Helvetica,sans-Serif" font-size="10.00"> +timers</text>
</g>
<!-- Node9&#45;&gt;Node7 -->
<g id="edge9" class="edge">
<title>Node9&#45;&gt;Node7</title>
<path fill="none" stroke="#404040" d="M188.5,-504.8C188.5,-449.1 188.5,-321.92 188.5,-240.76"/>
<polygon fill="none" stroke="#404040" points="188.5,-240.64 184.5,-234.64 188.5,-228.64 192.5,-234.64 188.5,-240.64"/>
<text text-anchor="middle" x="215.5" y="-279" font-family="Helvetica,sans-Serif" font-size="10.00"> +rows_arr</text>
<text text-anchor="middle" x="215.5" y="-268" font-family="Helvetica,sans-Serif" font-size="10.00">+sat_daily</text>
</g>
<!-- Node10 -->
<g id="node10" class="node">
<title>Node10</title>
<g id="a_node10"><a xlink:href="unionfer__cmd__row.html" target="_top" xlink:title="Plain message or header for extended messages (with checksum)">
<polygon fill="none" stroke="black" points="330.5,-127.5 330.5,-206.5 410.5,-206.5 410.5,-127.5 330.5,-127.5"/>
<text text-anchor="middle" x="370.5" y="-194.5" font-family="Helvetica,sans-Serif" font-size="10.00">fer_cmd_row</text>
<polyline fill="none" stroke="black" points="330.5,-187.5 410.5,-187.5 "/>
<text text-anchor="start" x="338.5" y="-175.5" font-family="Helvetica,sans-Serif" font-size="10.00">+ bd</text>
<text text-anchor="start" x="338.5" y="-164.5" font-family="Helvetica,sans-Serif" font-size="10.00">+ checkSum</text>
<text text-anchor="start" x="338.5" y="-153.5" font-family="Helvetica,sans-Serif" font-size="10.00">+ sd</text>
<polyline fill="none" stroke="black" points="330.5,-146.5 410.5,-146.5 "/>
<text text-anchor="middle" x="370.5" y="-134.5" font-family="Helvetica,sans-Serif" font-size="10.00"> </text>
</a>
</g>
</g>
<!-- Node10&#45;&gt;Node1 -->
<g id="edge11" class="edge">
<title>Node10&#45;&gt;Node1</title>
<path fill="none" stroke="#404040" d="M336.21,-127.5C321.31,-111.23 303.42,-92.32 286.5,-76 283.05,-72.67 279.4,-69.28 275.71,-65.92"/>
<polygon fill="none" stroke="#404040" points="275.45,-65.68 268.31,-64.67 266.5,-57.69 273.64,-58.7 275.45,-65.68"/>
<text text-anchor="middle" x="313" y="-79" font-family="Helvetica,sans-Serif" font-size="10.00"> +cmd</text>
</g>
<!-- Node11 -->
<g id="node11" class="node">
<title>Node11</title>
<g id="a_node11"><a xlink:href="structFer__Cmd.html" target="_top" xlink:title="Plain message or header for extended messages (w/o checksum)">
<polygon fill="none" stroke="black" points="350,-483 350,-584 409,-584 409,-483 350,-483"/>
<text text-anchor="middle" x="379.5" y="-572" font-family="Helvetica,sans-Serif" font-size="10.00">Fer_Cmd</text>
<polyline fill="none" stroke="black" points="350,-565 409,-565 "/>
<text text-anchor="start" x="358" y="-553" font-family="Helvetica,sans-Serif" font-size="10.00">+ addr</text>
<text text-anchor="start" x="358" y="-542" font-family="Helvetica,sans-Serif" font-size="10.00">+ memb</text>
<text text-anchor="start" x="358" y="-531" font-family="Helvetica,sans-Serif" font-size="10.00">+ tgl</text>
<text text-anchor="start" x="358" y="-520" font-family="Helvetica,sans-Serif" font-size="10.00">+ cmd</text>
<text text-anchor="start" x="358" y="-509" font-family="Helvetica,sans-Serif" font-size="10.00">+ grp</text>
<polyline fill="none" stroke="black" points="350,-502 409,-502 "/>
<text text-anchor="middle" x="379.5" y="-490" font-family="Helvetica,sans-Serif" font-size="10.00"> </text>
</a>
</g>
</g>
<!-- Node11&#45;&gt;Node10 -->
<g id="edge12" class="edge">
<title>Node11&#45;&gt;Node10</title>
<path fill="none" stroke="#404040" d="M378.28,-482.96C376.57,-413.79 373.49,-288.9 371.76,-218.97"/>
<polygon fill="none" stroke="#404040" points="371.75,-218.57 367.6,-212.67 371.45,-206.57 375.6,-212.47 371.75,-218.57"/>
<text text-anchor="middle" x="391" y="-273.5" font-family="Helvetica,sans-Serif" font-size="10.00"> +cmd</text>
</g>
</g>
</svg>
        <g id="navigator" transform="translate(0 0)" fill="#404254">
                <rect fill="#f2f5e9" fill-opacity="0.5" stroke="#606060" stroke-width=".5" x="0" y="0" width="60" height="60"/>
                <use id="zoomplus" xlink:href="#zoomPlus" x="17" y="9" onmousedown="handleZoom(evt,'in')"/>
                <use id="zoomminus" xlink:href="#zoomMin" x="42" y="9" onmousedown="handleZoom(evt,'out')"/>
                <use id="reset" xlink:href="#resetDef" x="30" y="36" onmousedown="handleReset()"/>
                <g id="arrowUp" xlink:href="#dirArrow" transform="translate(30 24)" onmousedown="handlePan(0,-1)">
                  <use xlink:href="#rim" fill="#404040">
                        <set attributeName="fill" to="#808080" begin="arrowUp.mouseover" end="arrowUp.mouseout"/>
                  </use>
                  <path fill="none" stroke="white" stroke-width="1.5" d="M0,-3.0v7 M-2.5,-0.5L0,-3.0L2.5,-0.5"/>
                </g>
                <g id="arrowRight" xlink:href="#dirArrow" transform="rotate(90) translate(36 -43)" onmousedown="handlePan(1,0)">
                  <use xlink:href="#rim" fill="#404040">
                        <set attributeName="fill" to="#808080" begin="arrowRight.mouseover" end="arrowRight.mouseout"/>
                  </use>
                  <path fill="none" stroke="white" stroke-width="1.5" d="M0,-3.0v7 M-2.5,-0.5L0,-3.0L2.5,-0.5"/>
                </g>
                <g id="arrowDown" xlink:href="#dirArrow" transform="rotate(180) translate(-30 -48)" onmousedown="handlePan(0,1)">
                  <use xlink:href="#rim" fill="#404040">
                        <set attributeName="fill" to="#808080" begin="arrowDown.mouseover" end="arrowDown.mouseout"/>
                  </use>
                  <path fill="none" stroke="white" stroke-width="1.5" d="M0,-3.0v7 M-2.5,-0.5L0,-3.0L2.5,-0.5"/>
                </g>
                <g id="arrowLeft" xlink:href="#dirArrow" transform="rotate(270) translate(-36 17)" onmousedown="handlePan(-1,0)">
                  <use xlink:href="#rim" fill="#404040">
                        <set attributeName="fill" to="#808080" begin="arrowLeft.mouseover" end="arrowLeft.mouseout"/>
                  </use>
                  <path fill="none" stroke="white" stroke-width="1.5" d="M0,-3.0v7 M-2.5,-0.5L0,-3.0L2.5,-0.5"/>
                </g>
        </g>
        <svg viewBox="0 0 15 15" width="100%" height="30px" preserveAspectRatio="xMaxYMin meet">
         <g id="arrow_out" transform="scale(0.3 0.3)">
          <a xlink:href="structfer__raw__msg__coll__graph_org.svg" target="_base">
           <rect id="button" ry="5" rx="5" y="6" x="6" height="38" width="38"
                fill="#f2f5e9" fill-opacity="0.5" stroke="#606060" stroke-width="1.0"/>
           <path id="arrow"
             d="M 11.500037,31.436501 C 11.940474,20.09759 22.043105,11.32322 32.158766,21.979434 L 37.068811,17.246167 C 37.068811,17.246167 37.088388,32 37.088388,32 L 22.160133,31.978069 C 22.160133,31.978069 26.997745,27.140456 26.997745,27.140456 C 18.528582,18.264221 13.291696,25.230495 11.500037,31.436501 z"
             style="fill:#404040;"/>
          </a>
         </g>
        </svg>
</svg>
