<?xml version="1.0" encoding="UTF-8" standalone="no"?>
<!DOCTYPE svg PUBLIC "-//W3C//DTD SVG 1.1//EN"
 "http://www.w3.org/Graphics/SVG/1.1/DTD/svg11.dtd">
<!-- Generated by graphviz version 2.43.0 (0)
 -->
<!-- Title: SettingsData Pages: 1 -->
<svg width="588pt" height="848pt"
 viewBox="0.00 0.00 587.50 848.00" xmlns="http://www.w3.org/2000/svg" xmlns:xlink="http://www.w3.org/1999/xlink">
<g id="graph0" class="graph" transform="scale(1 1) rotate(0) translate(4 844)">
<title>SettingsData</title>
<!-- Node1 -->
<g id="node1" class="node">
<title>Node1</title>
<g id="a_node1"><a xlink:title=" ">
<polygon fill="#bfbfbf" stroke="black" points="249,-0.5 249,-101.5 329,-101.5 329,-0.5 249,-0.5"/>
<text text-anchor="middle" x="289" y="-89.5" font-family="Helvetica,sans-Serif" font-size="10.00">SettingsData</text>
<polyline fill="none" stroke="black" points="249,-82.5 329,-82.5 "/>
<text text-anchor="start" x="257" y="-70.5" font-family="Helvetica,sans-Serif" font-size="10.00">+ kvs_key</text>
<text text-anchor="start" x="257" y="-59.5" font-family="Helvetica,sans-Serif" font-size="10.00">+ opt_key</text>
<text text-anchor="start" x="257" y="-48.5" font-family="Helvetica,sans-Serif" font-size="10.00">+ kvs_type</text>
<text text-anchor="start" x="257" y="-37.5" font-family="Helvetica,sans-Serif" font-size="10.00">+ store_fun</text>
<text text-anchor="start" x="257" y="-26.5" font-family="Helvetica,sans-Serif" font-size="10.00">+ id_bit</text>
<polyline fill="none" stroke="black" points="249,-19.5 329,-19.5 "/>
<text text-anchor="middle" x="289" y="-7.5" font-family="Helvetica,sans-Serif" font-size="10.00"> </text>
</a>
</g>
</g>
<!-- Node2 -->
<g id="node2" class="node">
<title>Node2</title>
<g id="a_node2"><a xlink:href="classUoutWriter.html" target="_top" xlink:title="Abstract class which contains various data builders.">
<polygon fill="none" stroke="black" points="241.5,-149.5 241.5,-283.5 336.5,-283.5 336.5,-149.5 241.5,-149.5"/>
<text text-anchor="middle" x="289" y="-271.5" font-family="Helvetica,sans-Serif" font-size="10.00">UoutWriter</text>
<polyline fill="none" stroke="black" points="241.5,-264.5 336.5,-264.5 "/>
<text text-anchor="start" x="249.5" y="-252.5" font-family="Helvetica,sans-Serif" font-size="10.00"># myTgt</text>
<polyline fill="none" stroke="black" points="241.5,-245.5 336.5,-245.5 "/>
<text text-anchor="start" x="249.5" y="-233.5" font-family="Helvetica,sans-Serif" font-size="10.00">+ UoutWriter()</text>
<text text-anchor="start" x="249.5" y="-222.5" font-family="Helvetica,sans-Serif" font-size="10.00">+ UoutWriter()</text>
<text text-anchor="start" x="249.5" y="-211.5" font-family="Helvetica,sans-Serif" font-size="10.00">+ operator=()</text>
<text text-anchor="start" x="249.5" y="-200.5" font-family="Helvetica,sans-Serif" font-size="10.00">+ tgt()</text>
<text text-anchor="start" x="249.5" y="-189.5" font-family="Helvetica,sans-Serif" font-size="10.00">+ add_tgt_flag()</text>
<text text-anchor="start" x="249.5" y="-178.5" font-family="Helvetica,sans-Serif" font-size="10.00">+ sj()</text>
<text text-anchor="start" x="249.5" y="-167.5" font-family="Helvetica,sans-Serif" font-size="10.00">+ st()</text>
<text text-anchor="start" x="249.5" y="-156.5" font-family="Helvetica,sans-Serif" font-size="10.00">+ so()</text>
</a>
</g>
</g>
<!-- Node2&#45;&gt;Node1 -->
<g id="edge1" class="edge">
<title>Node2&#45;&gt;Node1</title>
<path fill="none" stroke="#404040" d="M289,-149.47C289,-137.75 289,-125.59 289,-113.99"/>
<polygon fill="none" stroke="#404040" points="289,-113.68 285,-107.68 289,-101.68 293,-107.68 289,-113.68"/>
<text text-anchor="middle" x="321" y="-123" font-family="Helvetica,sans-Serif" font-size="10.00"> +so_cfg_fun</text>
</g>
<!-- Node3 -->
<g id="node3" class="node">
<title>Node3</title>
<g id="a_node3"><a xlink:href="classUoutRawWriter.html" target="_top" xlink:title="Abstract class which implements public write methods and operators which then call an abstract privat...">
<polygon fill="none" stroke="black" points="0,-540.5 0,-630.5 118,-630.5 118,-540.5 0,-540.5"/>
<text text-anchor="middle" x="59" y="-618.5" font-family="Helvetica,sans-Serif" font-size="10.00">UoutRawWriter</text>
<polyline fill="none" stroke="black" points="0,-611.5 118,-611.5 "/>
<text text-anchor="middle" x="59" y="-599.5" font-family="Helvetica,sans-Serif" font-size="10.00"> </text>
<polyline fill="none" stroke="black" points="0,-592.5 118,-592.5 "/>
<text text-anchor="start" x="8" y="-580.5" font-family="Helvetica,sans-Serif" font-size="10.00">+ write()</text>
<text text-anchor="start" x="8" y="-569.5" font-family="Helvetica,sans-Serif" font-size="10.00">+ writeln()</text>
<text text-anchor="start" x="8" y="-558.5" font-family="Helvetica,sans-Serif" font-size="10.00">+ write()</text>
<text text-anchor="start" x="8" y="-547.5" font-family="Helvetica,sans-Serif" font-size="10.00"># ~UoutRawWriter()</text>
</a>
</g>
</g>
<!-- Node3&#45;&gt;Node2 -->
<g id="edge2" class="edge">
<title>Node3&#45;&gt;Node2</title>
<path fill="none" stroke="midnightblue" d="M62.8,-530.15C68.94,-475.49 85.01,-390.96 127,-331 155.86,-289.79 204.74,-258.58 241.28,-239.41"/>
<polygon fill="none" stroke="midnightblue" points="59.29,-530.02 61.73,-540.33 66.26,-530.75 59.29,-530.02"/>
</g>
<!-- Node4 -->
<g id="node4" class="node">
<title>Node4</title>
<g id="a_node4"><a xlink:href="classUoutBuilderPlaintext.html" target="_top" xlink:title="Print key value pairs as text lines with limited length.">
<polygon fill="none" stroke="black" points="136,-540.5 136,-630.5 276,-630.5 276,-540.5 136,-540.5"/>
<text text-anchor="middle" x="206" y="-618.5" font-family="Helvetica,sans-Serif" font-size="10.00">UoutBuilderPlaintext</text>
<polyline fill="none" stroke="black" points="136,-611.5 276,-611.5 "/>
<text text-anchor="middle" x="206" y="-599.5" font-family="Helvetica,sans-Serif" font-size="10.00"> </text>
<polyline fill="none" stroke="black" points="136,-592.5 276,-592.5 "/>
<text text-anchor="start" x="144" y="-580.5" font-family="Helvetica,sans-Serif" font-size="10.00">+ UoutBuilderPlaintext()</text>
<text text-anchor="start" x="144" y="-569.5" font-family="Helvetica,sans-Serif" font-size="10.00">+ cli_out_set_x()</text>
<text text-anchor="start" x="144" y="-558.5" font-family="Helvetica,sans-Serif" font-size="10.00">+ cli_out_x_reply_entry()</text>
<text text-anchor="start" x="144" y="-547.5" font-family="Helvetica,sans-Serif" font-size="10.00">+ cli_out_close()</text>
</a>
</g>
</g>
<!-- Node4&#45;&gt;Node2 -->
<g id="edge3" class="edge">
<title>Node4&#45;&gt;Node2</title>
<path fill="none" stroke="#404040" d="M216.01,-540.23C229.69,-479.73 254.45,-370.25 271.3,-295.75"/>
<polygon fill="none" stroke="#404040" points="271.39,-295.35 268.82,-288.61 274.04,-283.64 276.62,-290.38 271.39,-295.35"/>
<text text-anchor="middle" x="292.5" y="-305" font-family="Helvetica,sans-Serif" font-size="10.00"> #myStxt</text>
</g>
<!-- Node5 -->
<g id="node5" class="node">
<title>Node5</title>
<g id="a_node5"><a xlink:href="classUoutBuilderJson.html" target="_top" xlink:title="Build JSON output gradually by calling member functions (with key/value parameters).">
<polygon fill="none" stroke="black" points="294,-331.5 294,-839.5 450,-839.5 450,-331.5 294,-331.5"/>
<text text-anchor="middle" x="372" y="-827.5" font-family="Helvetica,sans-Serif" font-size="10.00">UoutBuilderJson</text>
<polyline fill="none" stroke="black" points="294,-820.5 450,-820.5 "/>
<text text-anchor="middle" x="372" y="-808.5" font-family="Helvetica,sans-Serif" font-size="10.00"> </text>
<polyline fill="none" stroke="black" points="294,-801.5 450,-801.5 "/>
<text text-anchor="start" x="302" y="-789.5" font-family="Helvetica,sans-Serif" font-size="10.00">+ UoutBuilderJson()</text>
<text text-anchor="start" x="302" y="-778.5" font-family="Helvetica,sans-Serif" font-size="10.00">+ UoutBuilderJson()</text>
<text text-anchor="start" x="302" y="-767.5" font-family="Helvetica,sans-Serif" font-size="10.00">+ ~UoutBuilderJson()</text>
<text text-anchor="start" x="302" y="-756.5" font-family="Helvetica,sans-Serif" font-size="10.00">+ open_root_object()</text>
<text text-anchor="start" x="302" y="-745.5" font-family="Helvetica,sans-Serif" font-size="10.00">+ open_root_object()</text>
<text text-anchor="start" x="302" y="-734.5" font-family="Helvetica,sans-Serif" font-size="10.00">+ close_root_object()</text>
<text text-anchor="start" x="302" y="-723.5" font-family="Helvetica,sans-Serif" font-size="10.00">+ add_object()</text>
<text text-anchor="start" x="302" y="-712.5" font-family="Helvetica,sans-Serif" font-size="10.00">+ add_object()</text>
<text text-anchor="start" x="302" y="-701.5" font-family="Helvetica,sans-Serif" font-size="10.00">+ close_object()</text>
<text text-anchor="start" x="302" y="-690.5" font-family="Helvetica,sans-Serif" font-size="10.00">+ put_kv()</text>
<text text-anchor="start" x="302" y="-679.5" font-family="Helvetica,sans-Serif" font-size="10.00">+ put_kv()</text>
<text text-anchor="start" x="302" y="-668.5" font-family="Helvetica,sans-Serif" font-size="10.00">+ put_kv()</text>
<text text-anchor="start" x="302" y="-657.5" font-family="Helvetica,sans-Serif" font-size="10.00">+ put_kv()</text>
<text text-anchor="start" x="302" y="-646.5" font-family="Helvetica,sans-Serif" font-size="10.00">+ put_kv()</text>
<text text-anchor="start" x="302" y="-635.5" font-family="Helvetica,sans-Serif" font-size="10.00">+ put_kv()</text>
<text text-anchor="start" x="302" y="-624.5" font-family="Helvetica,sans-Serif" font-size="10.00">+ put_kv()</text>
<text text-anchor="start" x="302" y="-613.5" font-family="Helvetica,sans-Serif" font-size="10.00">+ put_kv()</text>
<text text-anchor="start" x="302" y="-602.5" font-family="Helvetica,sans-Serif" font-size="10.00">+ add_key_value_pair_s()</text>
<text text-anchor="start" x="302" y="-591.5" font-family="Helvetica,sans-Serif" font-size="10.00">+ add_key_value_pair_d()</text>
<text text-anchor="start" x="302" y="-580.5" font-family="Helvetica,sans-Serif" font-size="10.00">+ add_key_value_pair_f()</text>
<text text-anchor="start" x="302" y="-569.5" font-family="Helvetica,sans-Serif" font-size="10.00">+ add_key()</text>
<text text-anchor="start" x="302" y="-558.5" font-family="Helvetica,sans-Serif" font-size="10.00">+ add_array()</text>
<text text-anchor="start" x="302" y="-547.5" font-family="Helvetica,sans-Serif" font-size="10.00">+ add_array()</text>
<text text-anchor="start" x="302" y="-536.5" font-family="Helvetica,sans-Serif" font-size="10.00">+ close_array()</text>
<text text-anchor="start" x="302" y="-525.5" font-family="Helvetica,sans-Serif" font-size="10.00">+ add_value_d()</text>
<text text-anchor="start" x="302" y="-514.5" font-family="Helvetica,sans-Serif" font-size="10.00">+ add_value_s()</text>
<text text-anchor="start" x="302" y="-503.5" font-family="Helvetica,sans-Serif" font-size="10.00">+ add_value()</text>
<text text-anchor="start" x="302" y="-492.5" font-family="Helvetica,sans-Serif" font-size="10.00">+ read_json_from_function()</text>
<text text-anchor="start" x="302" y="-481.5" font-family="Helvetica,sans-Serif" font-size="10.00">+ read_json_arr_from</text>
<text text-anchor="start" x="302" y="-470.5" font-family="Helvetica,sans-Serif" font-size="10.00">_function()</text>
<text text-anchor="start" x="302" y="-459.5" font-family="Helvetica,sans-Serif" font-size="10.00">+ read_json_arr2_from</text>
<text text-anchor="start" x="302" y="-448.5" font-family="Helvetica,sans-Serif" font-size="10.00">_function()</text>
<text text-anchor="start" x="302" y="-437.5" font-family="Helvetica,sans-Serif" font-size="10.00">+ copy_to_buf()</text>
<text text-anchor="start" x="302" y="-426.5" font-family="Helvetica,sans-Serif" font-size="10.00">+ cat_to_buf()</text>
<text text-anchor="start" x="302" y="-415.5" font-family="Helvetica,sans-Serif" font-size="10.00">+ get_json()</text>
<text text-anchor="start" x="302" y="-404.5" font-family="Helvetica,sans-Serif" font-size="10.00">+ writeln_json()</text>
<text text-anchor="start" x="302" y="-393.5" font-family="Helvetica,sans-Serif" font-size="10.00">+ write_json()</text>
<text text-anchor="start" x="302" y="-382.5" font-family="Helvetica,sans-Serif" font-size="10.00">+ write_some_json()</text>
<text text-anchor="start" x="302" y="-371.5" font-family="Helvetica,sans-Serif" font-size="10.00">+ free_buffer()</text>
<text text-anchor="start" x="302" y="-360.5" font-family="Helvetica,sans-Serif" font-size="10.00">+ alloc_bigger_buffer()</text>
<text text-anchor="start" x="302" y="-349.5" font-family="Helvetica,sans-Serif" font-size="10.00">+ get_a_buffer()</text>
<text text-anchor="start" x="302" y="-338.5" font-family="Helvetica,sans-Serif" font-size="10.00">+ advance_position()</text>
</a>
</g>
</g>
<!-- Node5&#45;&gt;Node2 -->
<g id="edge4" class="edge">
<title>Node5&#45;&gt;Node2</title>
<path fill="none" stroke="#404040" d="M327.61,-331.43C325.17,-321.46 322.63,-311.62 320,-302 319.38,-299.74 318.73,-297.45 318.05,-295.15"/>
<polygon fill="none" stroke="#404040" points="318.01,-295.04 312.41,-290.5 314.45,-283.58 320.05,-288.12 318.01,-295.04"/>
<text text-anchor="middle" x="341.5" y="-305" font-family="Helvetica,sans-Serif" font-size="10.00"> #mySj</text>
</g>
<!-- Node6 -->
<g id="node6" class="node">
<title>Node6</title>
<g id="a_node6"><a xlink:href="classUoutPrinter.html" target="_top" xlink:title="Format and print output using the help of UoutWriter.">
<polygon fill="none" stroke="black" points="468.5,-485.5 468.5,-685.5 579.5,-685.5 579.5,-485.5 468.5,-485.5"/>
<text text-anchor="middle" x="524" y="-673.5" font-family="Helvetica,sans-Serif" font-size="10.00">UoutPrinter</text>
<polyline fill="none" stroke="black" points="468.5,-666.5 579.5,-666.5 "/>
<text text-anchor="middle" x="524" y="-654.5" font-family="Helvetica,sans-Serif" font-size="10.00"> </text>
<polyline fill="none" stroke="black" points="468.5,-647.5 579.5,-647.5 "/>
<text text-anchor="start" x="476.5" y="-635.5" font-family="Helvetica,sans-Serif" font-size="10.00">+ UoutPrinter()</text>
<text text-anchor="start" x="476.5" y="-624.5" font-family="Helvetica,sans-Serif" font-size="10.00">+ print()</text>
<text text-anchor="start" x="476.5" y="-613.5" font-family="Helvetica,sans-Serif" font-size="10.00">+ print()</text>
<text text-anchor="start" x="476.5" y="-602.5" font-family="Helvetica,sans-Serif" font-size="10.00">+ print()</text>
<text text-anchor="start" x="476.5" y="-591.5" font-family="Helvetica,sans-Serif" font-size="10.00">+ print()</text>
<text text-anchor="start" x="476.5" y="-580.5" font-family="Helvetica,sans-Serif" font-size="10.00">+ print()</text>
<text text-anchor="start" x="476.5" y="-569.5" font-family="Helvetica,sans-Serif" font-size="10.00">+ print()</text>
<text text-anchor="start" x="476.5" y="-558.5" font-family="Helvetica,sans-Serif" font-size="10.00">+ print()</text>
<text text-anchor="start" x="476.5" y="-547.5" font-family="Helvetica,sans-Serif" font-size="10.00">+ x_open()</text>
<text text-anchor="start" x="476.5" y="-536.5" font-family="Helvetica,sans-Serif" font-size="10.00">+ x_close()</text>
<text text-anchor="start" x="476.5" y="-525.5" font-family="Helvetica,sans-Serif" font-size="10.00">+ root_open()</text>
<text text-anchor="start" x="476.5" y="-514.5" font-family="Helvetica,sans-Serif" font-size="10.00">+ root_close()</text>
<text text-anchor="start" x="476.5" y="-503.5" font-family="Helvetica,sans-Serif" font-size="10.00">+ hasOutput_text()</text>
<text text-anchor="start" x="476.5" y="-492.5" font-family="Helvetica,sans-Serif" font-size="10.00">+ hasOutput_json()</text>
</a>
</g>
</g>
<!-- Node6&#45;&gt;Node2 -->
<g id="edge5" class="edge">
<title>Node6&#45;&gt;Node2</title>
<path fill="none" stroke="#404040" d="M515.46,-485.4C507.18,-435.43 490.92,-376.04 459,-331 431.2,-291.77 385.21,-262.28 348.07,-243.2"/>
<polygon fill="none" stroke="#404040" points="347.6,-242.96 340.44,-243.87 336.86,-237.61 344.01,-236.71 347.6,-242.96"/>
<text text-anchor="middle" x="461" y="-305" font-family="Helvetica,sans-Serif" font-size="10.00"> #mySo</text>
</g>
</g>
</svg>
