<?xml version="1.0" encoding="UTF-8" standalone="no"?>
<!DOCTYPE svg PUBLIC "-//W3C//DTD SVG 1.1//EN"
 "http://www.w3.org/Graphics/SVG/1.1/DTD/svg11.dtd">
<!-- Generated by graphviz version 2.43.0 (0)
 -->
<!-- Title: Fer_Trx_IncomingEvent Pages: 1 -->
<!--zoomable 1180 -->
<svg id="main" version="1.1" xmlns="http://www.w3.org/2000/svg" xmlns:xlink="http://www.w3.org/1999/xlink" xml:space="preserve" onload="init(evt)">
<style type="text/css"><![CDATA[
.edge:hover path { stroke: red; }
.edge:hover polygon { stroke: red; fill: red; }
]]></style>
<script type="text/javascript"><![CDATA[
var edges = document.getElementsByTagName('g');
if (edges && edges.length) {
  for (var i=0;i<edges.length;i++) {
    if (edges[i].id.substr(0,4)=='edge') {
      edges[i].setAttribute('class','edge');
    }
  }
}
]]></script>
        <defs>
                <circle id="rim" cx="0" cy="0" r="7"/>
                <circle id="rim2" cx="0" cy="0" r="3.5"/>
                <g id="zoomPlus">
                        <use xlink:href="#rim" fill="#404040">
                                <set attributeName="fill" to="#808080" begin="zoomplus.mouseover" end="zoomplus.mouseout"/>
                        </use>
                        <path d="M-4,0h8M0,-4v8" fill="none" stroke="white" stroke-width="1.5" pointer-events="none"/>
                </g>
                <g id="zoomMin">
                        <use xlink:href="#rim" fill="#404040">
                                <set attributeName="fill" to="#808080" begin="zoomminus.mouseover" end="zoomminus.mouseout"/>
                        </use>
                        <path d="M-4,0h8" fill="none" stroke="white" stroke-width="1.5" pointer-events="none"/>
                </g>
                <g id="dirArrow">
                        <path fill="none" stroke="white" stroke-width="1.5" d="M0,-3.0v7 M-2.5,-0.5L0,-3.0L2.5,-0.5"/>
                </g>
               <g id="resetDef">
                       <use xlink:href="#rim2" fill="#404040">
                               <set attributeName="fill" to="#808080" begin="reset.mouseover" end="reset.mouseout"/>
                       </use>
               </g>
        </defs>

<script type="text/javascript">
var viewWidth = 436;
var viewHeight = 1180;
var sectionId = 'dynsection-0';
</script>
<script xlink:href="svgpan.js"/>
<svg id="graph" class="graph">
<g id="viewport">
<title>Fer_Trx_IncomingEvent</title>
<!-- Node1 -->
<g id="node1" class="node">
<title>Node1</title>
<g id="a_node1"><a xlink:title=" ">
<polygon fill="#bfbfbf" stroke="black" points="251,-0.5 251,-79.5 380,-79.5 380,-0.5 251,-0.5"/>
<text text-anchor="middle" x="315.5" y="-67.5" font-family="Helvetica,sans-Serif" font-size="10.00">Fer_Trx_IncomingEvent</text>
<polyline fill="none" stroke="black" points="251,-60.5 380,-60.5 "/>
<text text-anchor="start" x="259" y="-48.5" font-family="Helvetica,sans-Serif" font-size="10.00">+ kind</text>
<text text-anchor="start" x="259" y="-37.5" font-family="Helvetica,sans-Serif" font-size="10.00">+ tx</text>
<text text-anchor="start" x="259" y="-26.5" font-family="Helvetica,sans-Serif" font-size="10.00">+ first</text>
<polyline fill="none" stroke="black" points="251,-19.5 380,-19.5 "/>
<text text-anchor="middle" x="315.5" y="-7.5" font-family="Helvetica,sans-Serif" font-size="10.00"> </text>
</a>
</g>
</g>
<!-- Node2 -->
<g id="node2" class="node">
<title>Node2</title>
<g id="a_node2"><a xlink:href="structfer__raw__msg.html" target="_top" xlink:title="Full size raw message.">
<polygon fill="none" stroke="black" points="221.5,-127.5 221.5,-184.5 301.5,-184.5 301.5,-127.5 221.5,-127.5"/>
<text text-anchor="middle" x="261.5" y="-172.5" font-family="Helvetica,sans-Serif" font-size="10.00">fer_raw_msg</text>
<polyline fill="none" stroke="black" points="221.5,-165.5 301.5,-165.5 "/>
<text text-anchor="start" x="229.5" y="-153.5" font-family="Helvetica,sans-Serif" font-size="10.00">+ last</text>
<polyline fill="none" stroke="black" points="221.5,-146.5 301.5,-146.5 "/>
<text text-anchor="middle" x="261.5" y="-134.5" font-family="Helvetica,sans-Serif" font-size="10.00"> </text>
</a>
</g>
</g>
<!-- Node2&#45;&gt;Node1 -->
<g id="edge1" class="edge">
<title>Node2&#45;&gt;Node1</title>
<path fill="none" stroke="#404040" d="M274.57,-127.4C279.83,-116.29 286.07,-103.13 292.07,-90.47"/>
<polygon fill="none" stroke="#404040" points="292.11,-90.39 291.06,-83.25 297.24,-79.54 298.29,-86.68 292.11,-90.39"/>
<text text-anchor="middle" x="303.5" y="-101" font-family="Helvetica,sans-Serif" font-size="10.00"> +raw</text>
</g>
<!-- Node3 -->
<g id="node3" class="node">
<title>Node3</title>
<g id="a_node3"><a xlink:href="unionfer__astro.html" target="_top" xlink:title="Block of astro rows.">
<polygon fill="none" stroke="black" points="13.5,-421.5 13.5,-478.5 73.5,-478.5 73.5,-421.5 13.5,-421.5"/>
<text text-anchor="middle" x="43.5" y="-466.5" font-family="Helvetica,sans-Serif" font-size="10.00">fer_astro</text>
<polyline fill="none" stroke="black" points="13.5,-459.5 73.5,-459.5 "/>
<text text-anchor="start" x="21.5" y="-447.5" font-family="Helvetica,sans-Serif" font-size="10.00">+ bd</text>
<polyline fill="none" stroke="black" points="13.5,-440.5 73.5,-440.5 "/>
<text text-anchor="middle" x="43.5" y="-428.5" font-family="Helvetica,sans-Serif" font-size="10.00"> </text>
</a>
</g>
</g>
<!-- Node3&#45;&gt;Node2 -->
<g id="edge2" class="edge">
<title>Node3&#45;&gt;Node2</title>
<path fill="none" stroke="#404040" d="M47.61,-421.47C53.88,-386.16 68.31,-324.11 97.5,-279 125.23,-236.16 173.55,-202.95 210.59,-182.07"/>
<polygon fill="none" stroke="#404040" points="210.67,-182.03 214.01,-175.63 221.19,-176.25 217.86,-182.65 210.67,-182.03"/>
<text text-anchor="middle" x="116" y="-338.5" font-family="Helvetica,sans-Serif" font-size="10.00"> +astro</text>
</g>
<!-- Node4 -->
<g id="node4" class="node">
<title>Node4</title>
<g id="a_node4"><a xlink:href="unionfer__astro__row.html" target="_top" xlink:title="Astro row.">
<polygon fill="none" stroke="black" points="0,-965.5 0,-1044.5 83,-1044.5 83,-965.5 0,-965.5"/>
<text text-anchor="middle" x="41.5" y="-1032.5" font-family="Helvetica,sans-Serif" font-size="10.00">fer_astro_row</text>
<polyline fill="none" stroke="black" points="0,-1025.5 83,-1025.5 "/>
<text text-anchor="start" x="8" y="-1013.5" font-family="Helvetica,sans-Serif" font-size="10.00">+ bd</text>
<text text-anchor="start" x="8" y="-1002.5" font-family="Helvetica,sans-Serif" font-size="10.00">+ checkSum</text>
<text text-anchor="start" x="8" y="-991.5" font-family="Helvetica,sans-Serif" font-size="10.00">+ sd</text>
<polyline fill="none" stroke="black" points="0,-984.5 83,-984.5 "/>
<text text-anchor="middle" x="41.5" y="-972.5" font-family="Helvetica,sans-Serif" font-size="10.00"> </text>
</a>
</g>
</g>
<!-- Node4&#45;&gt;Node3 -->
<g id="edge3" class="edge">
<title>Node4&#45;&gt;Node3</title>
<path fill="none" stroke="#404040" d="M41.64,-965.11C42.01,-863.85 42.99,-592.8 43.36,-490.67"/>
<polygon fill="none" stroke="#404040" points="43.36,-490.52 39.38,-484.5 43.4,-478.52 47.38,-484.53 43.36,-490.52"/>
<text text-anchor="middle" x="60" y="-939" font-family="Helvetica,sans-Serif" font-size="10.00"> +rows</text>
</g>
<!-- Node5 -->
<g id="node5" class="node">
<title>Node5</title>
<g id="a_node5"><a xlink:href="structfer__time.html" target="_top" xlink:title="Minute/Hour pair used in timers.">
<polygon fill="none" stroke="black" points="57.5,-1103.5 57.5,-1171.5 115.5,-1171.5 115.5,-1103.5 57.5,-1103.5"/>
<text text-anchor="middle" x="86.5" y="-1159.5" font-family="Helvetica,sans-Serif" font-size="10.00">fer_time</text>
<polyline fill="none" stroke="black" points="57.5,-1152.5 115.5,-1152.5 "/>
<text text-anchor="start" x="65.5" y="-1140.5" font-family="Helvetica,sans-Serif" font-size="10.00">+ mint</text>
<text text-anchor="start" x="65.5" y="-1129.5" font-family="Helvetica,sans-Serif" font-size="10.00">+ hour</text>
<polyline fill="none" stroke="black" points="57.5,-1122.5 115.5,-1122.5 "/>
<text text-anchor="middle" x="86.5" y="-1110.5" font-family="Helvetica,sans-Serif" font-size="10.00"> </text>
</a>
</g>
</g>
<!-- Node5&#45;&gt;Node4 -->
<g id="edge4" class="edge">
<title>Node5&#45;&gt;Node4</title>
<path fill="none" stroke="#404040" d="M70.8,-1103.27C68.2,-1097.26 65.66,-1090.99 63.5,-1085 60.17,-1075.76 57.04,-1065.77 54.24,-1056.1"/>
<polygon fill="none" stroke="#404040" points="54.24,-1056.09 48.77,-1051.39 51,-1044.53 56.47,-1049.23 54.24,-1056.09"/>
<text text-anchor="middle" x="83.5" y="-1071.5" font-family="Helvetica,sans-Serif" font-size="10.00"> +times</text>
</g>
<!-- Node9 -->
<g id="node9" class="node">
<title>Node9</title>
<g id="a_node9"><a xlink:href="structfer__timer.html" target="_top" xlink:title="Up/Down pair used in timers.">
<polygon fill="none" stroke="black" points="101.5,-976.5 101.5,-1033.5 163.5,-1033.5 163.5,-976.5 101.5,-976.5"/>
<text text-anchor="middle" x="132.5" y="-1021.5" font-family="Helvetica,sans-Serif" font-size="10.00">fer_timer</text>
<polyline fill="none" stroke="black" points="101.5,-1014.5 163.5,-1014.5 "/>
<text text-anchor="middle" x="132.5" y="-1002.5" font-family="Helvetica,sans-Serif" font-size="10.00"> </text>
<polyline fill="none" stroke="black" points="101.5,-995.5 163.5,-995.5 "/>
<text text-anchor="middle" x="132.5" y="-983.5" font-family="Helvetica,sans-Serif" font-size="10.00"> </text>
</a>
</g>
</g>
<!-- Node5&#45;&gt;Node9 -->
<g id="edge9" class="edge">
<title>Node5&#45;&gt;Node9</title>
<path fill="none" stroke="#404040" d="M98.23,-1103.23C104.43,-1085.64 112.08,-1063.93 118.58,-1045.48"/>
<polygon fill="none" stroke="#404040" points="118.67,-1045.23 116.89,-1038.24 122.66,-1033.91 124.44,-1040.9 118.67,-1045.23"/>
<text text-anchor="middle" x="131.5" y="-1077" font-family="Helvetica,sans-Serif" font-size="10.00"> +down</text>
<text text-anchor="middle" x="131.5" y="-1066" font-family="Helvetica,sans-Serif" font-size="10.00">+up</text>
</g>
<!-- Node6 -->
<g id="node6" class="node">
<title>Node6</title>
<g id="a_node6"><a xlink:href="unionfer__rtc.html" target="_top" xlink:title="RTC row.">
<polygon fill="none" stroke="black" points="237.5,-312.5 237.5,-369.5 285.5,-369.5 285.5,-312.5 237.5,-312.5"/>
<text text-anchor="middle" x="261.5" y="-357.5" font-family="Helvetica,sans-Serif" font-size="10.00">fer_rtc</text>
<polyline fill="none" stroke="black" points="237.5,-350.5 285.5,-350.5 "/>
<text text-anchor="start" x="245.5" y="-338.5" font-family="Helvetica,sans-Serif" font-size="10.00">+ bd</text>
<polyline fill="none" stroke="black" points="237.5,-331.5 285.5,-331.5 "/>
<text text-anchor="middle" x="261.5" y="-319.5" font-family="Helvetica,sans-Serif" font-size="10.00"> </text>
</a>
</g>
</g>
<!-- Node6&#45;&gt;Node2 -->
<g id="edge5" class="edge">
<title>Node6&#45;&gt;Node2</title>
<path fill="none" stroke="#404040" d="M261.5,-312.21C261.5,-281.48 261.5,-231.74 261.5,-196.87"/>
<polygon fill="none" stroke="#404040" points="261.5,-196.75 257.5,-190.75 261.5,-184.75 265.5,-190.75 261.5,-196.75"/>
<text text-anchor="middle" x="274" y="-229.5" font-family="Helvetica,sans-Serif" font-size="10.00"> +rtc</text>
</g>
<!-- Node7 -->
<g id="node7" class="node">
<title>Node7</title>
<g id="a_node7"><a xlink:href="structfer__rtc__sd.html" target="_top" xlink:title="Structured RTC message row (fer_fpr00 ). Programs the devices internal RTC.">
<polygon fill="none" stroke="black" points="249.5,-497.5 249.5,-917.5 331.5,-917.5 331.5,-497.5 249.5,-497.5"/>
<text text-anchor="middle" x="290.5" y="-905.5" font-family="Helvetica,sans-Serif" font-size="10.00">fer_rtc_sd</text>
<polyline fill="none" stroke="black" points="249.5,-898.5 331.5,-898.5 "/>
<text text-anchor="start" x="257.5" y="-886.5" font-family="Helvetica,sans-Serif" font-size="10.00">+ secs</text>
<text text-anchor="start" x="257.5" y="-875.5" font-family="Helvetica,sans-Serif" font-size="10.00">+ mint</text>
<text text-anchor="start" x="257.5" y="-864.5" font-family="Helvetica,sans-Serif" font-size="10.00">+ hour</text>
<text text-anchor="start" x="257.5" y="-853.5" font-family="Helvetica,sans-Serif" font-size="10.00">+ wDayMask</text>
<text text-anchor="start" x="257.5" y="-842.5" font-family="Helvetica,sans-Serif" font-size="10.00">+ sun</text>
<text text-anchor="start" x="257.5" y="-831.5" font-family="Helvetica,sans-Serif" font-size="10.00">+ mon</text>
<text text-anchor="start" x="257.5" y="-820.5" font-family="Helvetica,sans-Serif" font-size="10.00">+ tue</text>
<text text-anchor="start" x="257.5" y="-809.5" font-family="Helvetica,sans-Serif" font-size="10.00">+ wed</text>
<text text-anchor="start" x="257.5" y="-798.5" font-family="Helvetica,sans-Serif" font-size="10.00">+ thu</text>
<text text-anchor="start" x="257.5" y="-787.5" font-family="Helvetica,sans-Serif" font-size="10.00">+ fri</text>
<text text-anchor="start" x="257.5" y="-776.5" font-family="Helvetica,sans-Serif" font-size="10.00">+ sat</text>
<text text-anchor="start" x="257.5" y="-765.5" font-family="Helvetica,sans-Serif" font-size="10.00">+ wDayBits</text>
<text text-anchor="start" x="257.5" y="-754.5" font-family="Helvetica,sans-Serif" font-size="10.00">+ @19</text>
<text text-anchor="start" x="257.5" y="-743.5" font-family="Helvetica,sans-Serif" font-size="10.00">+ mday</text>
<text text-anchor="start" x="257.5" y="-732.5" font-family="Helvetica,sans-Serif" font-size="10.00">+ mont</text>
<text text-anchor="start" x="257.5" y="-721.5" font-family="Helvetica,sans-Serif" font-size="10.00">+ bd</text>
<text text-anchor="start" x="257.5" y="-710.5" font-family="Helvetica,sans-Serif" font-size="10.00">+ wday</text>
<text text-anchor="start" x="257.5" y="-699.5" font-family="Helvetica,sans-Serif" font-size="10.00">+ bit4</text>
<text text-anchor="start" x="257.5" y="-688.5" font-family="Helvetica,sans-Serif" font-size="10.00">+ bit5</text>
<text text-anchor="start" x="257.5" y="-677.5" font-family="Helvetica,sans-Serif" font-size="10.00">+ bit6</text>
<text text-anchor="start" x="257.5" y="-666.5" font-family="Helvetica,sans-Serif" font-size="10.00">+ rtc_only</text>
<text text-anchor="start" x="257.5" y="-655.5" font-family="Helvetica,sans-Serif" font-size="10.00">+ sd</text>
<text text-anchor="start" x="257.5" y="-644.5" font-family="Helvetica,sans-Serif" font-size="10.00">+ wd2</text>
<text text-anchor="start" x="257.5" y="-633.5" font-family="Helvetica,sans-Serif" font-size="10.00">+ random</text>
<text text-anchor="start" x="257.5" y="-622.5" font-family="Helvetica,sans-Serif" font-size="10.00">+ unused_1</text>
<text text-anchor="start" x="257.5" y="-611.5" font-family="Helvetica,sans-Serif" font-size="10.00">+ dst</text>
<text text-anchor="start" x="257.5" y="-600.5" font-family="Helvetica,sans-Serif" font-size="10.00">+ unused_3</text>
<text text-anchor="start" x="257.5" y="-589.5" font-family="Helvetica,sans-Serif" font-size="10.00">+ unused_4</text>
<text text-anchor="start" x="257.5" y="-578.5" font-family="Helvetica,sans-Serif" font-size="10.00">+ unused_5</text>
<text text-anchor="start" x="257.5" y="-567.5" font-family="Helvetica,sans-Serif" font-size="10.00">+ unused_6</text>
<text text-anchor="start" x="257.5" y="-556.5" font-family="Helvetica,sans-Serif" font-size="10.00">+ sunAuto</text>
<text text-anchor="start" x="257.5" y="-545.5" font-family="Helvetica,sans-Serif" font-size="10.00">+ bits</text>
<text text-anchor="start" x="257.5" y="-534.5" font-family="Helvetica,sans-Serif" font-size="10.00">+ flags</text>
<text text-anchor="start" x="257.5" y="-523.5" font-family="Helvetica,sans-Serif" font-size="10.00">+ checkSum</text>
<polyline fill="none" stroke="black" points="249.5,-516.5 331.5,-516.5 "/>
<text text-anchor="middle" x="290.5" y="-504.5" font-family="Helvetica,sans-Serif" font-size="10.00"> </text>
</a>
</g>
</g>
<!-- Node7&#45;&gt;Node6 -->
<g id="edge6" class="edge">
<title>Node7&#45;&gt;Node6</title>
<path fill="none" stroke="#404040" d="M273.86,-497.37C270.34,-453.09 266.99,-410.97 264.67,-381.79"/>
<polygon fill="none" stroke="#404040" points="264.66,-381.68 260.19,-376.01 263.71,-369.71 268.17,-375.38 264.66,-381.68"/>
<text text-anchor="middle" x="284" y="-447.5" font-family="Helvetica,sans-Serif" font-size="10.00"> +sd</text>
</g>
<!-- Node8 -->
<g id="node8" class="node">
<title>Node8</title>
<g id="a_node8"><a xlink:href="unionfer__wdtimer.html" target="_top" xlink:title="Block of weekly/daily timer rows.">
<polygon fill="none" stroke="black" points="143.5,-279.5 143.5,-402.5 219.5,-402.5 219.5,-279.5 143.5,-279.5"/>
<text text-anchor="middle" x="181.5" y="-390.5" font-family="Helvetica,sans-Serif" font-size="10.00">fer_wdtimer</text>
<polyline fill="none" stroke="black" points="143.5,-383.5 219.5,-383.5 "/>
<text text-anchor="start" x="151.5" y="-371.5" font-family="Helvetica,sans-Serif" font-size="10.00">+ bd</text>
<text text-anchor="start" x="151.5" y="-360.5" font-family="Helvetica,sans-Serif" font-size="10.00">+ rows</text>
<text text-anchor="start" x="151.5" y="-349.5" font-family="Helvetica,sans-Serif" font-size="10.00">+ cs0</text>
<text text-anchor="start" x="151.5" y="-338.5" font-family="Helvetica,sans-Serif" font-size="10.00">+ cs1</text>
<text text-anchor="start" x="151.5" y="-327.5" font-family="Helvetica,sans-Serif" font-size="10.00">+ cs2</text>
<text text-anchor="start" x="151.5" y="-316.5" font-family="Helvetica,sans-Serif" font-size="10.00">+ cs3</text>
<text text-anchor="start" x="151.5" y="-305.5" font-family="Helvetica,sans-Serif" font-size="10.00">+ days</text>
<polyline fill="none" stroke="black" points="143.5,-298.5 219.5,-298.5 "/>
<text text-anchor="middle" x="181.5" y="-286.5" font-family="Helvetica,sans-Serif" font-size="10.00"> </text>
</a>
</g>
</g>
<!-- Node8&#45;&gt;Node2 -->
<g id="edge7" class="edge">
<title>Node8&#45;&gt;Node2</title>
<path fill="none" stroke="#404040" d="M182.99,-279.19C185.86,-254.2 192.17,-225.84 205.5,-203 207.63,-199.36 210.15,-195.88 212.94,-192.59"/>
<polygon fill="none" stroke="#404040" points="213.06,-192.46 214.34,-185.37 221.38,-183.81 220.11,-190.91 213.06,-192.46"/>
<text text-anchor="middle" x="231.5" y="-229.5" font-family="Helvetica,sans-Serif" font-size="10.00"> +wdtimer</text>
</g>
<!-- Node9&#45;&gt;Node8 -->
<g id="edge8" class="edge">
<title>Node9&#45;&gt;Node8</title>
<path fill="none" stroke="#404040" d="M119.38,-976.44C112.24,-959.9 104.14,-938.23 100.5,-918 67.35,-733.85 55.88,-678.71 100.5,-497 107.98,-466.55 122.6,-435.44 137.39,-409.16"/>
<polygon fill="none" stroke="#404040" points="137.5,-408.98 137.03,-401.79 143.5,-398.59 143.96,-405.79 137.5,-408.98"/>
<text text-anchor="middle" x="118.5" y="-721.5" font-family="Helvetica,sans-Serif" font-size="10.00"> +daily</text>
<text text-anchor="middle" x="118.5" y="-710.5" font-family="Helvetica,sans-Serif" font-size="10.00">+fri</text>
<text text-anchor="middle" x="118.5" y="-699.5" font-family="Helvetica,sans-Serif" font-size="10.00">+mon</text>
<text text-anchor="middle" x="118.5" y="-688.5" font-family="Helvetica,sans-Serif" font-size="10.00">+wed</text>
</g>
<!-- Node10 -->
<g id="node10" class="node">
<title>Node10</title>
<g id="a_node10"><a xlink:href="structfer__timer__row.html" target="_top" xlink:title="A row containing 2 timers.">
<polygon fill="none" stroke="black" points="146,-679 146,-736 231,-736 231,-679 146,-679"/>
<text text-anchor="middle" x="188.5" y="-724" font-family="Helvetica,sans-Serif" font-size="10.00">fer_timer_row</text>
<polyline fill="none" stroke="black" points="146,-717 231,-717 "/>
<text text-anchor="start" x="154" y="-705" font-family="Helvetica,sans-Serif" font-size="10.00">+ checkSum</text>
<polyline fill="none" stroke="black" points="146,-698 231,-698 "/>
<text text-anchor="middle" x="188.5" y="-686" font-family="Helvetica,sans-Serif" font-size="10.00"> </text>
</a>
</g>
</g>
<!-- Node9&#45;&gt;Node10 -->
<g id="edge11" class="edge">
<title>Node9&#45;&gt;Node10</title>
<path fill="none" stroke="#404040" d="M137.72,-976.47C147.68,-923.9 169.44,-809.06 180.98,-748.2"/>
<polygon fill="none" stroke="#404040" points="181.04,-747.86 178.23,-741.22 183.27,-736.07 186.09,-742.71 181.04,-747.86"/>
<text text-anchor="middle" x="167" y="-939" font-family="Helvetica,sans-Serif" font-size="10.00"> +timers</text>
</g>
<!-- Node10&#45;&gt;Node8 -->
<g id="edge10" class="edge">
<title>Node10&#45;&gt;Node8</title>
<path fill="none" stroke="#404040" d="M187.97,-678.8C186.9,-623.1 184.46,-495.92 182.9,-414.76"/>
<polygon fill="none" stroke="#404040" points="182.9,-414.64 178.78,-408.72 182.66,-402.64 186.78,-408.56 182.9,-414.64"/>
<text text-anchor="middle" x="211.5" y="-453" font-family="Helvetica,sans-Serif" font-size="10.00"> +rows_arr</text>
<text text-anchor="middle" x="211.5" y="-442" font-family="Helvetica,sans-Serif" font-size="10.00">+sat_daily</text>
</g>
<!-- Node11 -->
<g id="node11" class="node">
<title>Node11</title>
<g id="a_node11"><a xlink:href="unionfer__cmd__row.html" target="_top" xlink:title="Plain message or header for extended messages (with checksum)">
<polygon fill="none" stroke="black" points="303.5,-301.5 303.5,-380.5 383.5,-380.5 383.5,-301.5 303.5,-301.5"/>
<text text-anchor="middle" x="343.5" y="-368.5" font-family="Helvetica,sans-Serif" font-size="10.00">fer_cmd_row</text>
<polyline fill="none" stroke="black" points="303.5,-361.5 383.5,-361.5 "/>
<text text-anchor="start" x="311.5" y="-349.5" font-family="Helvetica,sans-Serif" font-size="10.00">+ bd</text>
<text text-anchor="start" x="311.5" y="-338.5" font-family="Helvetica,sans-Serif" font-size="10.00">+ checkSum</text>
<text text-anchor="start" x="311.5" y="-327.5" font-family="Helvetica,sans-Serif" font-size="10.00">+ sd</text>
<polyline fill="none" stroke="black" points="303.5,-320.5 383.5,-320.5 "/>
<text text-anchor="middle" x="343.5" y="-308.5" font-family="Helvetica,sans-Serif" font-size="10.00"> </text>
</a>
</g>
</g>
<!-- Node11&#45;&gt;Node2 -->
<g id="edge12" class="edge">
<title>Node11&#45;&gt;Node2</title>
<path fill="none" stroke="#404040" d="M330.8,-301.35C321.09,-273.42 306.65,-235.13 290.5,-203 289.21,-200.44 287.82,-197.84 286.37,-195.24"/>
<polygon fill="none" stroke="#404040" points="286.26,-195.06 279.77,-191.92 280.18,-184.72 286.67,-187.86 286.26,-195.06"/>
<text text-anchor="middle" x="332" y="-229.5" font-family="Helvetica,sans-Serif" font-size="10.00"> +cmd</text>
</g>
<!-- Node12 -->
<g id="node12" class="node">
<title>Node12</title>
<g id="a_node12"><a xlink:href="structFer__Cmd.html" target="_top" xlink:title="Plain message or header for extended messages (w/o checksum)">
<polygon fill="none" stroke="black" points="366,-657 366,-758 425,-758 425,-657 366,-657"/>
<text text-anchor="middle" x="395.5" y="-746" font-family="Helvetica,sans-Serif" font-size="10.00">Fer_Cmd</text>
<polyline fill="none" stroke="black" points="366,-739 425,-739 "/>
<text text-anchor="start" x="374" y="-727" font-family="Helvetica,sans-Serif" font-size="10.00">+ addr</text>
<text text-anchor="start" x="374" y="-716" font-family="Helvetica,sans-Serif" font-size="10.00">+ memb</text>
<text text-anchor="start" x="374" y="-705" font-family="Helvetica,sans-Serif" font-size="10.00">+ tgl</text>
<text text-anchor="start" x="374" y="-694" font-family="Helvetica,sans-Serif" font-size="10.00">+ cmd</text>
<text text-anchor="start" x="374" y="-683" font-family="Helvetica,sans-Serif" font-size="10.00">+ grp</text>
<polyline fill="none" stroke="black" points="366,-676 425,-676 "/>
<text text-anchor="middle" x="395.5" y="-664" font-family="Helvetica,sans-Serif" font-size="10.00"> </text>
</a>
</g>
</g>
<!-- Node12&#45;&gt;Node11 -->
<g id="edge13" class="edge">
<title>Node12&#45;&gt;Node11</title>
<path fill="none" stroke="#404040" d="M385.9,-656.96C377.26,-610.98 364.69,-540.57 356.5,-479 352.72,-450.61 349.63,-418.76 347.42,-392.93"/>
<polygon fill="none" stroke="#404040" points="347.4,-392.73 342.91,-387.08 346.4,-380.77 350.88,-386.41 347.4,-392.73"/>
<text text-anchor="middle" x="373" y="-447.5" font-family="Helvetica,sans-Serif" font-size="10.00"> +cmd</text>
</g>
<!-- Node13 -->
<g id="node13" class="node">
<title>Node13</title>
<g id="a_node13"><a xlink:href="unionfer__sbT.html" target="_top" xlink:title="Raw message w/o checksum.">
<polygon fill="none" stroke="black" points="375,-203.5 375,-260.5 428,-260.5 428,-203.5 375,-203.5"/>
<text text-anchor="middle" x="401.5" y="-248.5" font-family="Helvetica,sans-Serif" font-size="10.00">fer_sbT</text>
<polyline fill="none" stroke="black" points="375,-241.5 428,-241.5 "/>
<text text-anchor="start" x="383" y="-229.5" font-family="Helvetica,sans-Serif" font-size="10.00">+ data</text>
<polyline fill="none" stroke="black" points="375,-222.5 428,-222.5 "/>
<text text-anchor="middle" x="401.5" y="-210.5" font-family="Helvetica,sans-Serif" font-size="10.00"> </text>
</a>
</g>
</g>
<!-- Node12&#45;&gt;Node13 -->
<g id="edge15" class="edge">
<title>Node12&#45;&gt;Node13</title>
<path fill="none" stroke="#404040" d="M396.13,-656.72C397.33,-562.22 399.91,-358.6 401,-272.61"/>
<polygon fill="none" stroke="#404040" points="401,-272.57 397.07,-266.52 401.15,-260.57 405.07,-266.62 401,-272.57"/>
<text text-anchor="middle" x="410" y="-447.5" font-family="Helvetica,sans-Serif" font-size="10.00"> +sd</text>
</g>
<!-- Node13&#45;&gt;Node1 -->
<g id="edge14" class="edge">
<title>Node13&#45;&gt;Node1</title>
<path fill="none" stroke="#404040" d="M388.99,-203.37C375.67,-173.93 354.29,-126.71 338.02,-90.76"/>
<polygon fill="none" stroke="#404040" points="337.88,-90.45 331.77,-86.64 332.94,-79.52 339.05,-83.34 337.88,-90.45"/>
<text text-anchor="middle" x="393" y="-153.5" font-family="Helvetica,sans-Serif" font-size="10.00"> +fsb</text>
</g>
</g>
</svg>
        <g id="navigator" transform="translate(0 0)" fill="#404254">
                <rect fill="#f2f5e9" fill-opacity="0.5" stroke="#606060" stroke-width=".5" x="0" y="0" width="60" height="60"/>
                <use id="zoomplus" xlink:href="#zoomPlus" x="17" y="9" onmousedown="handleZoom(evt,'in')"/>
                <use id="zoomminus" xlink:href="#zoomMin" x="42" y="9" onmousedown="handleZoom(evt,'out')"/>
                <use id="reset" xlink:href="#resetDef" x="30" y="36" onmousedown="handleReset()"/>
                <g id="arrowUp" xlink:href="#dirArrow" transform="translate(30 24)" onmousedown="handlePan(0,-1)">
                  <use xlink:href="#rim" fill="#404040">
                        <set attributeName="fill" to="#808080" begin="arrowUp.mouseover" end="arrowUp.mouseout"/>
                  </use>
                  <path fill="none" stroke="white" stroke-width="1.5" d="M0,-3.0v7 M-2.5,-0.5L0,-3.0L2.5,-0.5"/>
                </g>
                <g id="arrowRight" xlink:href="#dirArrow" transform="rotate(90) translate(36 -43)" onmousedown="handlePan(1,0)">
                  <use xlink:href="#rim" fill="#404040">
                        <set attributeName="fill" to="#808080" begin="arrowRight.mouseover" end="arrowRight.mouseout"/>
                  </use>
                  <path fill="none" stroke="white" stroke-width="1.5" d="M0,-3.0v7 M-2.5,-0.5L0,-3.0L2.5,-0.5"/>
                </g>
                <g id="arrowDown" xlink:href="#dirArrow" transform="rotate(180) translate(-30 -48)" onmousedown="handlePan(0,1)">
                  <use xlink:href="#rim" fill="#404040">
                        <set attributeName="fill" to="#808080" begin="arrowDown.mouseover" end="arrowDown.mouseout"/>
                  </use>
                  <path fill="none" stroke="white" stroke-width="1.5" d="M0,-3.0v7 M-2.5,-0.5L0,-3.0L2.5,-0.5"/>
                </g>
                <g id="arrowLeft" xlink:href="#dirArrow" transform="rotate(270) translate(-36 17)" onmousedown="handlePan(-1,0)">
                  <use xlink:href="#rim" fill="#404040">
                        <set attributeName="fill" to="#808080" begin="arrowLeft.mouseover" end="arrowLeft.mouseout"/>
                  </use>
                  <path fill="none" stroke="white" stroke-width="1.5" d="M0,-3.0v7 M-2.5,-0.5L0,-3.0L2.5,-0.5"/>
                </g>
        </g>
        <svg viewBox="0 0 15 15" width="100%" height="30px" preserveAspectRatio="xMaxYMin meet">
         <g id="arrow_out" transform="scale(0.3 0.3)">
          <a xlink:href="structFer__Trx__IncomingEvent__coll__graph_org.svg" target="_base">
           <rect id="button" ry="5" rx="5" y="6" x="6" height="38" width="38"
                fill="#f2f5e9" fill-opacity="0.5" stroke="#606060" stroke-width="1.0"/>
           <path id="arrow"
             d="M 11.500037,31.436501 C 11.940474,20.09759 22.043105,11.32322 32.158766,21.979434 L 37.068811,17.246167 C 37.068811,17.246167 37.088388,32 37.088388,32 L 22.160133,31.978069 C 22.160133,31.978069 26.997745,27.140456 26.997745,27.140456 C 18.528582,18.264221 13.291696,25.230495 11.500037,31.436501 z"
             style="fill:#404040;"/>
          </a>
         </g>
        </svg>
</svg>
