<?xml version="1.0" encoding="UTF-8" standalone="no"?>
<!DOCTYPE svg PUBLIC "-//W3C//DTD SVG 1.1//EN"
 "http://www.w3.org/Graphics/SVG/1.1/DTD/svg11.dtd">
<!-- Generated by graphviz version 2.43.0 (0)
 -->
<!-- Title: /home/bertw/proj/mcu/tronferno&#45;mcu/external/mbed&#45;net&#45;lib/components/net/include/net/tcp_cli_server_setup.hh Pages: 1 -->
<svg width="1117pt" height="352pt"
 viewBox="0.00 0.00 1116.50 352.00" xmlns="http://www.w3.org/2000/svg" xmlns:xlink="http://www.w3.org/1999/xlink">
<g id="graph0" class="graph" transform="scale(1 1) rotate(0) translate(4 348)">
<title>/home/bertw/proj/mcu/tronferno&#45;mcu/external/mbed&#45;net&#45;lib/components/net/include/net/tcp_cli_server_setup.hh</title>
<!-- Node1 -->
<g id="node1" class="node">
<title>Node1</title>
<g id="a_node1"><a xlink:title="Create TCP server for interactive and non&#45;interactive CLI clients.">
<polygon fill="#bfbfbf" stroke="black" points="0,-280.5 0,-343.5 146,-343.5 146,-280.5 0,-280.5"/>
<text text-anchor="start" x="8" y="-331.5" font-family="Helvetica,sans-Serif" font-size="10.00">/home/bertw/proj/mcu</text>
<text text-anchor="start" x="8" y="-320.5" font-family="Helvetica,sans-Serif" font-size="10.00">/tronferno&#45;mcu/external</text>
<text text-anchor="start" x="8" y="-309.5" font-family="Helvetica,sans-Serif" font-size="10.00">/mbed&#45;net&#45;lib/components</text>
<text text-anchor="start" x="8" y="-298.5" font-family="Helvetica,sans-Serif" font-size="10.00">/net/include/net/tcp_cli</text>
<text text-anchor="middle" x="73" y="-287.5" font-family="Helvetica,sans-Serif" font-size="10.00">_server_setup.hh</text>
</a>
</g>
</g>
<!-- Node2 -->
<g id="node2" class="node">
<title>Node2</title>
<g id="a_node2"><a xlink:href="tcp__cli__server_8h.html" target="_top" xlink:title="TCP server for interactive and non&#45;interactive CLI clients.">
<polygon fill="none" stroke="black" points="11,-112.5 11,-131.5 103,-131.5 103,-112.5 11,-112.5"/>
<text text-anchor="middle" x="57" y="-119.5" font-family="Helvetica,sans-Serif" font-size="10.00">tcp_cli_server.h</text>
</a>
</g>
</g>
<!-- Node1&#45;&gt;Node2 -->
<g id="edge1" class="edge">
<title>Node1&#45;&gt;Node2</title>
<path fill="none" stroke="midnightblue" d="M63.83,-280.49C56.18,-251.66 46.98,-207.11 50,-168 50.68,-159.22 52.09,-149.56 53.47,-141.45"/>
<polygon fill="midnightblue" stroke="midnightblue" points="56.92,-142.04 55.26,-131.58 50.03,-140.8 56.92,-142.04"/>
</g>
<!-- Node4 -->
<g id="node4" class="node">
<title>Node4</title>
<g id="a_node4"><a xlink:href="uo__callbacks_8h.html" target="_top" xlink:title="pub/sub interface to publish asynchronously to MQTT servers, HTTP&#45;client web&#45;sockets,...">
<polygon fill="none" stroke="black" points="79.5,-224.5 79.5,-243.5 192.5,-243.5 192.5,-224.5 79.5,-224.5"/>
<text text-anchor="middle" x="136" y="-231.5" font-family="Helvetica,sans-Serif" font-size="10.00">uout/uo_callbacks.h</text>
</a>
</g>
</g>
<!-- Node1&#45;&gt;Node4 -->
<g id="edge3" class="edge">
<title>Node1&#45;&gt;Node4</title>
<path fill="none" stroke="midnightblue" d="M98.62,-280.09C106.72,-270.33 115.34,-259.92 122.27,-251.57"/>
<polygon fill="midnightblue" stroke="midnightblue" points="125.09,-253.65 128.77,-243.72 119.7,-249.18 125.09,-253.65"/>
</g>
<!-- Node3 -->
<g id="node3" class="node">
<title>Node3</title>
<g id="a_node3"><a xlink:title=" ">
<polygon fill="none" stroke="#bfbfbf" points="152,-0.5 152,-19.5 214,-19.5 214,-0.5 152,-0.5"/>
<text text-anchor="middle" x="183" y="-7.5" font-family="Helvetica,sans-Serif" font-size="10.00">stdbool.h</text>
</a>
</g>
</g>
<!-- Node2&#45;&gt;Node3 -->
<g id="edge2" class="edge">
<title>Node2&#45;&gt;Node3</title>
<path fill="none" stroke="midnightblue" d="M66.89,-112.37C88.14,-93.81 138.43,-49.91 165.32,-26.44"/>
<polygon fill="midnightblue" stroke="midnightblue" points="167.93,-28.8 173.16,-19.59 163.32,-23.53 167.93,-28.8"/>
</g>
<!-- Node5 -->
<g id="node5" class="node">
<title>Node5</title>
<g id="a_node5"><a xlink:title=" ">
<polygon fill="none" stroke="#bfbfbf" points="278.5,-0.5 278.5,-19.5 331.5,-19.5 331.5,-0.5 278.5,-0.5"/>
<text text-anchor="middle" x="305" y="-7.5" font-family="Helvetica,sans-Serif" font-size="10.00">stdint.h</text>
</a>
</g>
</g>
<!-- Node4&#45;&gt;Node5 -->
<g id="edge4" class="edge">
<title>Node4&#45;&gt;Node5</title>
<path fill="none" stroke="midnightblue" d="M136.87,-224.15C140.21,-191.96 153.13,-81.62 176,-56 199.42,-29.76 238.99,-18.82 268.15,-14.26"/>
<polygon fill="midnightblue" stroke="midnightblue" points="268.94,-17.68 278.37,-12.85 267.98,-10.75 268.94,-17.68"/>
</g>
<!-- Node6 -->
<g id="node6" class="node">
<title>Node6</title>
<g id="a_node6"><a xlink:href="uo__types_8h.html" target="_top" xlink:title="API parameter and return types.">
<polygon fill="none" stroke="black" points="782.5,-168.5 782.5,-187.5 877.5,-187.5 877.5,-168.5 782.5,-168.5"/>
<text text-anchor="middle" x="830" y="-175.5" font-family="Helvetica,sans-Serif" font-size="10.00">uout/uo_types.h</text>
</a>
</g>
</g>
<!-- Node4&#45;&gt;Node6 -->
<g id="edge5" class="edge">
<title>Node4&#45;&gt;Node6</title>
<path fill="none" stroke="midnightblue" d="M192.79,-228.58C322.81,-218.46 640.93,-193.71 772.05,-183.51"/>
<polygon fill="midnightblue" stroke="midnightblue" points="772.59,-186.98 782.29,-182.71 772.05,-180 772.59,-186.98"/>
</g>
<!-- Node19 -->
<g id="node19" class="node">
<title>Node19</title>
<g id="a_node19"><a xlink:title=" ">
<polygon fill="none" stroke="#bfbfbf" points="59.5,-168.5 59.5,-187.5 128.5,-187.5 128.5,-168.5 59.5,-168.5"/>
<text text-anchor="middle" x="94" y="-175.5" font-family="Helvetica,sans-Serif" font-size="10.00">type_traits</text>
</a>
</g>
</g>
<!-- Node4&#45;&gt;Node19 -->
<g id="edge29" class="edge">
<title>Node4&#45;&gt;Node19</title>
<path fill="none" stroke="midnightblue" d="M129.06,-224.08C123.07,-216.38 114.25,-205.03 106.95,-195.65"/>
<polygon fill="midnightblue" stroke="midnightblue" points="109.71,-193.5 100.81,-187.75 104.18,-197.79 109.71,-193.5"/>
</g>
<!-- Node6&#45;&gt;Node5 -->
<g id="edge26" class="edge">
<title>Node6&#45;&gt;Node5</title>
<path fill="none" stroke="midnightblue" d="M782.4,-175.45C695.12,-170.76 505.86,-151.89 369,-76 347.67,-64.17 328.84,-43.04 317.22,-28.09"/>
<polygon fill="midnightblue" stroke="midnightblue" points="319.75,-25.63 310.96,-19.72 314.14,-29.82 319.75,-25.63"/>
</g>
<!-- Node7 -->
<g id="node7" class="node">
<title>Node7</title>
<g id="a_node7"><a xlink:href="so__target__bits_8h.html" target="_top" xlink:title="flags to select output formats and targets">
<polygon fill="none" stroke="black" points="1013.5,-0.5 1013.5,-19.5 1108.5,-19.5 1108.5,-0.5 1013.5,-0.5"/>
<text text-anchor="middle" x="1061" y="-7.5" font-family="Helvetica,sans-Serif" font-size="10.00">so_target_bits.h</text>
</a>
</g>
</g>
<!-- Node6&#45;&gt;Node7 -->
<g id="edge6" class="edge">
<title>Node6&#45;&gt;Node7</title>
<path fill="none" stroke="midnightblue" d="M877.7,-174.9C940.78,-169.24 1049.71,-148.81 1099,-76 1110.13,-59.56 1094.68,-39.75 1080.27,-26.35"/>
<polygon fill="midnightblue" stroke="midnightblue" points="1082.39,-23.56 1072.55,-19.63 1077.79,-28.84 1082.39,-23.56"/>
</g>
<!-- Node8 -->
<g id="node8" class="node">
<title>Node8</title>
<g id="a_node8"><a xlink:href="uout__writer_8hh.html" target="_top" xlink:title="Provide an output class hierarchy which knows about the required format (text or JSON) and write func...">
<polygon fill="none" stroke="black" points="727,-112.5 727,-131.5 813,-131.5 813,-112.5 727,-112.5"/>
<text text-anchor="middle" x="770" y="-119.5" font-family="Helvetica,sans-Serif" font-size="10.00">uout_writer.hh</text>
</a>
</g>
</g>
<!-- Node6&#45;&gt;Node8 -->
<g id="edge7" class="edge">
<title>Node6&#45;&gt;Node8</title>
<path fill="none" stroke="midnightblue" d="M820.36,-168.32C811.49,-160.34 798.13,-148.31 787.39,-138.65"/>
<polygon fill="midnightblue" stroke="midnightblue" points="789.59,-135.92 779.82,-131.83 784.91,-141.13 789.59,-135.92"/>
</g>
<!-- Node9 -->
<g id="node9" class="node">
<title>Node9</title>
<g id="a_node9"><a xlink:href="so__out_8h.html" target="_top" xlink:title="write formatted output to UoutWriter">
<polygon fill="none" stroke="black" points="1032,-56.5 1032,-75.5 1090,-75.5 1090,-56.5 1032,-56.5"/>
<text text-anchor="middle" x="1061" y="-63.5" font-family="Helvetica,sans-Serif" font-size="10.00">so_out.h</text>
</a>
</g>
</g>
<!-- Node6&#45;&gt;Node9 -->
<g id="edge24" class="edge">
<title>Node6&#45;&gt;Node9</title>
<path fill="none" stroke="midnightblue" d="M848.13,-168.37C888.52,-149.13 986.14,-102.65 1033.84,-79.93"/>
<polygon fill="midnightblue" stroke="midnightblue" points="1035.43,-83.05 1042.96,-75.59 1032.42,-76.73 1035.43,-83.05"/>
</g>
<!-- Node10 -->
<g id="node10" class="node">
<title>Node10</title>
<g id="a_node10"><a xlink:href="uout__builder__json_8hh.html" target="_top" xlink:title="Create JSON output from key/val pairs.">
<polygon fill="none" stroke="black" points="421,-56.5 421,-75.5 539,-75.5 539,-56.5 421,-56.5"/>
<text text-anchor="middle" x="480" y="-63.5" font-family="Helvetica,sans-Serif" font-size="10.00">uout_builder_json.hh</text>
</a>
</g>
</g>
<!-- Node6&#45;&gt;Node10 -->
<g id="edge25" class="edge">
<title>Node6&#45;&gt;Node10</title>
<path fill="none" stroke="midnightblue" d="M802.83,-168.46C740.67,-148.93 588.06,-100.96 517.23,-78.7"/>
<polygon fill="midnightblue" stroke="midnightblue" points="517.99,-75.27 507.4,-75.61 515.89,-81.95 517.99,-75.27"/>
</g>
<!-- Node14 -->
<g id="node14" class="node">
<title>Node14</title>
<g id="a_node14"><a xlink:title=" ">
<polygon fill="none" stroke="#bfbfbf" points="886,-56.5 886,-75.5 942,-75.5 942,-56.5 886,-56.5"/>
<text text-anchor="middle" x="914" y="-63.5" font-family="Helvetica,sans-Serif" font-size="10.00">unistd.h</text>
</a>
</g>
</g>
<!-- Node6&#45;&gt;Node14 -->
<g id="edge27" class="edge">
<title>Node6&#45;&gt;Node14</title>
<path fill="none" stroke="midnightblue" d="M836.59,-168.37C850.52,-150.14 883.13,-107.43 901.27,-83.68"/>
<polygon fill="midnightblue" stroke="midnightblue" points="904.15,-85.66 907.44,-75.59 898.59,-81.41 904.15,-85.66"/>
</g>
<!-- Node15 -->
<g id="node15" class="node">
<title>Node15</title>
<g id="a_node15"><a xlink:title=" ">
<polygon fill="none" stroke="#bfbfbf" points="960.5,-56.5 960.5,-75.5 1013.5,-75.5 1013.5,-56.5 960.5,-56.5"/>
<text text-anchor="middle" x="987" y="-63.5" font-family="Helvetica,sans-Serif" font-size="10.00">string.h</text>
</a>
</g>
</g>
<!-- Node6&#45;&gt;Node15 -->
<g id="edge28" class="edge">
<title>Node6&#45;&gt;Node15</title>
<path fill="none" stroke="midnightblue" d="M842.32,-168.37C869.15,-149.57 933.09,-104.77 966.26,-81.53"/>
<polygon fill="midnightblue" stroke="midnightblue" points="968.56,-84.2 974.74,-75.59 964.54,-78.46 968.56,-84.2"/>
</g>
<!-- Node8&#45;&gt;Node5 -->
<g id="edge17" class="edge">
<title>Node8&#45;&gt;Node5</title>
<path fill="none" stroke="midnightblue" d="M726.8,-121.33C658.16,-120.59 520.84,-113.95 412,-76 378.57,-64.34 344.36,-41.2 323.9,-25.91"/>
<polygon fill="midnightblue" stroke="midnightblue" points="325.84,-22.99 315.76,-19.7 321.59,-28.55 325.84,-22.99"/>
</g>
<!-- Node8&#45;&gt;Node7 -->
<g id="edge10" class="edge">
<title>Node8&#45;&gt;Node7</title>
<path fill="none" stroke="midnightblue" d="M783.1,-112.34C807.17,-96.56 857.72,-63.99 877,-56 917.68,-39.14 966.15,-27.61 1003.13,-20.44"/>
<polygon fill="midnightblue" stroke="midnightblue" points="1004.06,-23.83 1013.24,-18.53 1002.76,-16.95 1004.06,-23.83"/>
</g>
<!-- Node8&#45;&gt;Node9 -->
<g id="edge8" class="edge">
<title>Node8&#45;&gt;Node9</title>
<path fill="none" stroke="midnightblue" d="M813.12,-114.09C861.52,-106.17 942.61,-92.39 1021.84,-76.15"/>
<polygon fill="midnightblue" stroke="midnightblue" points="1022.91,-79.5 1031.99,-74.05 1021.49,-72.64 1022.91,-79.5"/>
</g>
<!-- Node8&#45;&gt;Node10 -->
<g id="edge11" class="edge">
<title>Node8&#45;&gt;Node10</title>
<path fill="none" stroke="midnightblue" d="M726.9,-112.97C676.1,-103.51 591.56,-87.77 535.8,-77.39"/>
<polygon fill="midnightblue" stroke="midnightblue" points="536.21,-73.91 525.74,-75.52 534.93,-80.79 536.21,-73.91"/>
</g>
<!-- Node12 -->
<g id="node12" class="node">
<title>Node12</title>
<g id="a_node12"><a xlink:title=" ">
<polygon fill="none" stroke="#bfbfbf" points="619.5,-0.5 619.5,-19.5 684.5,-19.5 684.5,-0.5 619.5,-0.5"/>
<text text-anchor="middle" x="652" y="-7.5" font-family="Helvetica,sans-Serif" font-size="10.00">functional</text>
</a>
</g>
</g>
<!-- Node8&#45;&gt;Node12 -->
<g id="edge22" class="edge">
<title>Node8&#45;&gt;Node12</title>
<path fill="none" stroke="midnightblue" d="M765.6,-112.13C758.62,-98.74 743.96,-73.1 726,-56 712.51,-43.15 694.75,-32.2 680.01,-24.32"/>
<polygon fill="midnightblue" stroke="midnightblue" points="681.33,-21.06 670.84,-19.6 678.13,-27.29 681.33,-21.06"/>
</g>
<!-- Node13 -->
<g id="node13" class="node">
<title>Node13</title>
<g id="a_node13"><a xlink:href="uout__builder__plaintext_8hh_source.html" target="_top" xlink:title=" ">
<polygon fill="none" stroke="black" points="185.5,-56.5 185.5,-75.5 326.5,-75.5 326.5,-56.5 185.5,-56.5"/>
<text text-anchor="middle" x="256" y="-63.5" font-family="Helvetica,sans-Serif" font-size="10.00">uout_builder_plaintext.hh</text>
</a>
</g>
</g>
<!-- Node8&#45;&gt;Node13 -->
<g id="edge14" class="edge">
<title>Node8&#45;&gt;Node13</title>
<path fill="none" stroke="midnightblue" d="M726.62,-116.44C640.6,-107.41 447.24,-87.09 337,-75.51"/>
<polygon fill="midnightblue" stroke="midnightblue" points="337.24,-72.02 326.93,-74.45 336.51,-78.98 337.24,-72.02"/>
</g>
<!-- Node8&#45;&gt;Node14 -->
<g id="edge18" class="edge">
<title>Node8&#45;&gt;Node14</title>
<path fill="none" stroke="midnightblue" d="M792.82,-112.44C816.83,-103.44 854.83,-89.19 881.87,-79.05"/>
<polygon fill="midnightblue" stroke="midnightblue" points="883.16,-82.3 891.29,-75.52 880.7,-75.75 883.16,-82.3"/>
</g>
<!-- Node8&#45;&gt;Node15 -->
<g id="edge19" class="edge">
<title>Node8&#45;&gt;Node15</title>
<path fill="none" stroke="midnightblue" d="M804.37,-112.47C838.78,-103.92 893.54,-90.32 950.38,-76.15"/>
<polygon fill="midnightblue" stroke="midnightblue" points="951.41,-79.5 960.26,-73.69 949.71,-72.71 951.41,-79.5"/>
</g>
<!-- Node16 -->
<g id="node16" class="node">
<title>Node16</title>
<g id="a_node16"><a xlink:title=" ">
<polygon fill="none" stroke="#bfbfbf" points="774,-56.5 774,-75.5 830,-75.5 830,-56.5 774,-56.5"/>
<text text-anchor="middle" x="802" y="-63.5" font-family="Helvetica,sans-Serif" font-size="10.00">assert.h</text>
</a>
</g>
</g>
<!-- Node8&#45;&gt;Node16 -->
<g id="edge20" class="edge">
<title>Node8&#45;&gt;Node16</title>
<path fill="none" stroke="midnightblue" d="M775.28,-112.08C779.71,-104.61 786.16,-93.72 791.62,-84.52"/>
<polygon fill="midnightblue" stroke="midnightblue" points="794.73,-86.14 796.81,-75.75 788.71,-82.57 794.73,-86.14"/>
</g>
<!-- Node17 -->
<g id="node17" class="node">
<title>Node17</title>
<g id="a_node17"><a xlink:href="itoa_8h_source.html" target="_top" xlink:title=" ">
<polygon fill="none" stroke="black" points="557.5,-56.5 557.5,-75.5 654.5,-75.5 654.5,-56.5 557.5,-56.5"/>
<text text-anchor="middle" x="606" y="-63.5" font-family="Helvetica,sans-Serif" font-size="10.00">utils_misc/itoa.h</text>
</a>
</g>
</g>
<!-- Node8&#45;&gt;Node17 -->
<g id="edge21" class="edge">
<title>Node8&#45;&gt;Node17</title>
<path fill="none" stroke="midnightblue" d="M744.01,-112.44C716.3,-103.32 672.25,-88.81 641.38,-78.65"/>
<polygon fill="midnightblue" stroke="midnightblue" points="642.46,-75.32 631.86,-75.52 640.27,-81.97 642.46,-75.32"/>
</g>
<!-- Node18 -->
<g id="node18" class="node">
<title>Node18</title>
<g id="a_node18"><a xlink:title=" ">
<polygon fill="none" stroke="#bfbfbf" points="672.5,-56.5 672.5,-75.5 717.5,-75.5 717.5,-56.5 672.5,-56.5"/>
<text text-anchor="middle" x="695" y="-63.5" font-family="Helvetica,sans-Serif" font-size="10.00">utility</text>
</a>
</g>
</g>
<!-- Node8&#45;&gt;Node18 -->
<g id="edge23" class="edge">
<title>Node8&#45;&gt;Node18</title>
<path fill="none" stroke="midnightblue" d="M757.95,-112.32C746.54,-104.11 729.17,-91.6 715.57,-81.81"/>
<polygon fill="midnightblue" stroke="midnightblue" points="717.43,-78.84 707.27,-75.83 713.34,-84.52 717.43,-78.84"/>
</g>
<!-- Node9&#45;&gt;Node7 -->
<g id="edge9" class="edge">
<title>Node9&#45;&gt;Node7</title>
<path fill="none" stroke="midnightblue" d="M1061,-56.08C1061,-49.01 1061,-38.86 1061,-29.99"/>
<polygon fill="midnightblue" stroke="midnightblue" points="1064.5,-29.75 1061,-19.75 1057.5,-29.75 1064.5,-29.75"/>
</g>
<!-- Node11 -->
<g id="node11" class="node">
<title>Node11</title>
<g id="a_node11"><a xlink:title=" ">
<polygon fill="none" stroke="#bfbfbf" points="453.5,-0.5 453.5,-19.5 506.5,-19.5 506.5,-0.5 453.5,-0.5"/>
<text text-anchor="middle" x="480" y="-7.5" font-family="Helvetica,sans-Serif" font-size="10.00">stdlib.h</text>
</a>
</g>
</g>
<!-- Node10&#45;&gt;Node11 -->
<g id="edge12" class="edge">
<title>Node10&#45;&gt;Node11</title>
<path fill="none" stroke="midnightblue" d="M480,-56.08C480,-49.01 480,-38.86 480,-29.99"/>
<polygon fill="midnightblue" stroke="midnightblue" points="483.5,-29.75 480,-19.75 476.5,-29.75 483.5,-29.75"/>
</g>
<!-- Node10&#45;&gt;Node12 -->
<g id="edge13" class="edge">
<title>Node10&#45;&gt;Node12</title>
<path fill="none" stroke="midnightblue" d="M507.25,-56.44C536.44,-47.28 582.92,-32.69 615.31,-22.52"/>
<polygon fill="midnightblue" stroke="midnightblue" points="616.38,-25.85 624.87,-19.52 614.28,-19.17 616.38,-25.85"/>
</g>
<!-- Node13&#45;&gt;Node3 -->
<g id="edge16" class="edge">
<title>Node13&#45;&gt;Node3</title>
<path fill="none" stroke="midnightblue" d="M244.27,-56.32C233.16,-48.11 216.26,-35.6 203.02,-25.81"/>
<polygon fill="midnightblue" stroke="midnightblue" points="205.06,-22.97 194.94,-19.83 200.9,-28.59 205.06,-22.97"/>
</g>
<!-- Node13&#45;&gt;Node5 -->
<g id="edge15" class="edge">
<title>Node13&#45;&gt;Node5</title>
<path fill="none" stroke="midnightblue" d="M264.09,-56.08C271.16,-48.3 281.59,-36.8 290.15,-27.37"/>
<polygon fill="midnightblue" stroke="midnightblue" points="292.93,-29.51 297.06,-19.75 287.75,-24.8 292.93,-29.51"/>
</g>
</g>
</svg>
