<?xml version="1.0" encoding="UTF-8" standalone="no"?>
<!DOCTYPE svg PUBLIC "-//W3C//DTD SVG 1.1//EN"
 "http://www.w3.org/Graphics/SVG/1.1/DTD/svg11.dtd">
<!-- Generated by graphviz version 2.43.0 (0)
 -->
<!-- Title: fernotron_trx/timer_data.h Pages: 1 -->
<svg width="1497pt" height="340pt"
 viewBox="0.00 0.00 1496.50 340.00" xmlns="http://www.w3.org/2000/svg" xmlns:xlink="http://www.w3.org/1999/xlink">
<g id="graph0" class="graph" transform="scale(1 1) rotate(0) translate(4 336)">
<title>fernotron_trx/timer_data.h</title>
<!-- Node1 -->
<g id="node1" class="node">
<title>Node1</title>
<g id="a_node1"><a xlink:title="vocabulary types to program Fernotron automatic (timers)">
<polygon fill="#bfbfbf" stroke="black" points="259.5,-301.5 259.5,-331.5 369.5,-331.5 369.5,-301.5 259.5,-301.5"/>
<text text-anchor="start" x="267.5" y="-319.5" font-family="Helvetica,sans-Serif" font-size="10.00">fernotron_trx/timer</text>
<text text-anchor="middle" x="314.5" y="-308.5" font-family="Helvetica,sans-Serif" font-size="10.00">_data.h</text>
</a>
</g>
</g>
<!-- Node2 -->
<g id="node2" class="node">
<title>Node2</title>
<g id="a_node2"><a xlink:href="cli__to__json_8hh_source.html" target="_top" xlink:title=" ">
<polygon fill="none" stroke="black" points="0,-240 0,-259 121,-259 121,-240 0,-240"/>
<text text-anchor="middle" x="60.5" y="-247" font-family="Helvetica,sans-Serif" font-size="10.00">app_cli/cli_to_json.hh</text>
</a>
</g>
</g>
<!-- Node1&#45;&gt;Node2 -->
<g id="edge1" class="edge">
<title>Node1&#45;&gt;Node2</title>
<path fill="none" stroke="midnightblue" d="M249.98,-298.99C200.21,-286.25 133.37,-269.15 93.83,-259.03"/>
<polygon fill="midnightblue" stroke="midnightblue" points="249.14,-302.39 259.7,-301.48 250.88,-295.61 249.14,-302.39"/>
</g>
<!-- Node3 -->
<g id="node3" class="node">
<title>Node3</title>
<g id="a_node3"><a xlink:href="fau__tdata__store_8h.html" target="_top" xlink:title="Persistent timer data storage.">
<polygon fill="none" stroke="black" points="139,-234.5 139,-264.5 244,-264.5 244,-234.5 139,-234.5"/>
<text text-anchor="start" x="147" y="-252.5" font-family="Helvetica,sans-Serif" font-size="10.00">fernotron/auto/fau</text>
<text text-anchor="middle" x="191.5" y="-241.5" font-family="Helvetica,sans-Serif" font-size="10.00">_tdata_store.h</text>
</a>
</g>
</g>
<!-- Node1&#45;&gt;Node3 -->
<g id="edge2" class="edge">
<title>Node1&#45;&gt;Node3</title>
<path fill="none" stroke="midnightblue" d="M278.95,-296.71C259.55,-286.46 235.94,-273.98 218.14,-264.58"/>
<polygon fill="midnightblue" stroke="midnightblue" points="277.33,-299.82 287.81,-301.4 280.6,-293.63 277.33,-299.82"/>
</g>
<!-- Node4 -->
<g id="node4" class="node">
<title>Node4</title>
<g id="a_node4"><a xlink:href="fau__tminutes_8h.html" target="_top" xlink:title="Represent when each kind of timer will be scheduled for a given day and g/m. Calculate the next event...">
<polygon fill="none" stroke="black" points="262,-234.5 262,-264.5 367,-264.5 367,-234.5 262,-234.5"/>
<text text-anchor="start" x="270" y="-252.5" font-family="Helvetica,sans-Serif" font-size="10.00">fernotron/auto/fau</text>
<text text-anchor="middle" x="314.5" y="-241.5" font-family="Helvetica,sans-Serif" font-size="10.00">_tminutes.h</text>
</a>
</g>
</g>
<!-- Node1&#45;&gt;Node4 -->
<g id="edge3" class="edge">
<title>Node1&#45;&gt;Node4</title>
<path fill="none" stroke="midnightblue" d="M314.5,-291.11C314.5,-282.15 314.5,-272.32 314.5,-264.58"/>
<polygon fill="midnightblue" stroke="midnightblue" points="311,-291.4 314.5,-301.4 318,-291.4 311,-291.4"/>
</g>
<!-- Node7 -->
<g id="node7" class="node">
<title>Node7</title>
<g id="a_node7"><a xlink:href="fer__trx__c__api_8h.html" target="_top" xlink:title="C&#45;API for sending and receiving Fernotron RF messages.">
<polygon fill="none" stroke="black" points="930.5,-234.5 930.5,-264.5 1046.5,-264.5 1046.5,-234.5 930.5,-234.5"/>
<text text-anchor="start" x="938.5" y="-252.5" font-family="Helvetica,sans-Serif" font-size="10.00">fernotron_trx/fer_trx</text>
<text text-anchor="middle" x="988.5" y="-241.5" font-family="Helvetica,sans-Serif" font-size="10.00">_c_api.h</text>
</a>
</g>
</g>
<!-- Node1&#45;&gt;Node7 -->
<g id="edge6" class="edge">
<title>Node1&#45;&gt;Node7</title>
<path fill="none" stroke="midnightblue" d="M379.96,-309.19C511.29,-296.52 805.01,-268.2 930.19,-256.12"/>
<polygon fill="midnightblue" stroke="midnightblue" points="379.27,-305.74 369.66,-310.18 379.95,-312.7 379.27,-305.74"/>
</g>
<!-- Node17 -->
<g id="node17" class="node">
<title>Node17</title>
<g id="a_node17"><a xlink:href="fer__api_8h_source.html" target="_top" xlink:title=" ">
<polygon fill="none" stroke="black" points="314.5,-0.5 314.5,-63.5 460.5,-63.5 460.5,-0.5 314.5,-0.5"/>
<text text-anchor="start" x="322.5" y="-51.5" font-family="Helvetica,sans-Serif" font-size="10.00">/home/bertw/proj/mcu</text>
<text text-anchor="start" x="322.5" y="-40.5" font-family="Helvetica,sans-Serif" font-size="10.00">/tronferno&#45;mcu/external</text>
<text text-anchor="start" x="322.5" y="-29.5" font-family="Helvetica,sans-Serif" font-size="10.00">/tronferno&#45;lib/components</text>
<text text-anchor="start" x="322.5" y="-18.5" font-family="Helvetica,sans-Serif" font-size="10.00">/fernotron_trx/priv_include</text>
<text text-anchor="middle" x="387.5" y="-7.5" font-family="Helvetica,sans-Serif" font-size="10.00">/fer_api.h</text>
</a>
</g>
</g>
<!-- Node1&#45;&gt;Node17 -->
<g id="edge33" class="edge">
<title>Node1&#45;&gt;Node17</title>
<path fill="none" stroke="midnightblue" d="M348.41,-295.45C358.96,-287.39 369.41,-277.12 375.5,-265 408.45,-199.41 400.61,-109.82 393.33,-63.51"/>
<polygon fill="midnightblue" stroke="midnightblue" points="346.13,-292.78 340.01,-301.43 350.19,-298.48 346.13,-292.78"/>
</g>
<!-- Node5 -->
<g id="node5" class="node">
<title>Node5</title>
<g id="a_node5"><a xlink:href="fau__tevent_8hh_source.html" target="_top" xlink:title=" ">
<polygon fill="none" stroke="black" points="262,-167.5 262,-197.5 367,-197.5 367,-167.5 262,-167.5"/>
<text text-anchor="start" x="270" y="-185.5" font-family="Helvetica,sans-Serif" font-size="10.00">fernotron/auto/fau</text>
<text text-anchor="middle" x="314.5" y="-174.5" font-family="Helvetica,sans-Serif" font-size="10.00">_tevent.hh</text>
</a>
</g>
</g>
<!-- Node4&#45;&gt;Node5 -->
<g id="edge4" class="edge">
<title>Node4&#45;&gt;Node5</title>
<path fill="none" stroke="midnightblue" d="M314.5,-224.11C314.5,-215.15 314.5,-205.32 314.5,-197.58"/>
<polygon fill="midnightblue" stroke="midnightblue" points="311,-224.4 314.5,-234.4 318,-224.4 311,-224.4"/>
</g>
<!-- Node6 -->
<g id="node6" class="node">
<title>Node6</title>
<g id="a_node6"><a xlink:href="fau__next__event_8hh_source.html" target="_top" xlink:title=" ">
<polygon fill="none" stroke="black" points="262,-100.5 262,-130.5 367,-130.5 367,-100.5 262,-100.5"/>
<text text-anchor="start" x="270" y="-118.5" font-family="Helvetica,sans-Serif" font-size="10.00">fernotron/auto/fau</text>
<text text-anchor="middle" x="314.5" y="-107.5" font-family="Helvetica,sans-Serif" font-size="10.00">_next_event.hh</text>
</a>
</g>
</g>
<!-- Node5&#45;&gt;Node6 -->
<g id="edge5" class="edge">
<title>Node5&#45;&gt;Node6</title>
<path fill="none" stroke="midnightblue" d="M314.5,-157.11C314.5,-148.15 314.5,-138.32 314.5,-130.58"/>
<polygon fill="midnightblue" stroke="midnightblue" points="311,-157.4 314.5,-167.4 318,-157.4 311,-157.4"/>
</g>
<!-- Node8 -->
<g id="node8" class="node">
<title>Node8</title>
<g id="a_node8"><a xlink:href="positions__dynamic_8h.html" target="_top" xlink:title="Keep track of positions for a currently moving shutter.">
<polygon fill="none" stroke="black" points="1146,-167.5 1146,-197.5 1275,-197.5 1275,-167.5 1146,-167.5"/>
<text text-anchor="start" x="1154" y="-185.5" font-family="Helvetica,sans-Serif" font-size="10.00">fernotron/pos/positions</text>
<text text-anchor="middle" x="1210.5" y="-174.5" font-family="Helvetica,sans-Serif" font-size="10.00">_dynamic.h</text>
</a>
</g>
</g>
<!-- Node7&#45;&gt;Node8 -->
<g id="edge7" class="edge">
<title>Node7&#45;&gt;Node8</title>
<path fill="none" stroke="midnightblue" d="M1046.29,-231.58C1082.35,-221.02 1128.22,-207.59 1162.31,-197.61"/>
<polygon fill="midnightblue" stroke="midnightblue" points="1045.01,-228.31 1036.4,-234.48 1046.98,-235.02 1045.01,-228.31"/>
</g>
<!-- Node11 -->
<g id="node11" class="node">
<title>Node11</title>
<g id="a_node11"><a xlink:href="set__endpos_8h.html" target="_top" xlink:title="Mode for setting shutter end positions.">
<polygon fill="none" stroke="black" points="1293,-173 1293,-192 1442,-192 1442,-173 1293,-173"/>
<text text-anchor="middle" x="1367.5" y="-180" font-family="Helvetica,sans-Serif" font-size="10.00">fernotron/sep/set_endpos.h</text>
</a>
</g>
</g>
<!-- Node7&#45;&gt;Node11 -->
<g id="edge10" class="edge">
<title>Node7&#45;&gt;Node11</title>
<path fill="none" stroke="midnightblue" d="M1056.75,-236.94C1116.75,-226.75 1206.44,-211.48 1284.5,-198 1295.6,-196.08 1307.53,-194.01 1318.79,-192.04"/>
<polygon fill="midnightblue" stroke="midnightblue" points="1055.92,-233.53 1046.64,-238.65 1057.09,-240.43 1055.92,-233.53"/>
</g>
<!-- Node12 -->
<g id="node12" class="node">
<title>Node12</title>
<g id="a_node12"><a xlink:href="fer__trx__api_8hh.html" target="_top" xlink:title="C++&#45;API for sending and receiving Fernotron RF messages.">
<polygon fill="none" stroke="black" points="973.5,-167.5 973.5,-197.5 1089.5,-197.5 1089.5,-167.5 973.5,-167.5"/>
<text text-anchor="start" x="981.5" y="-185.5" font-family="Helvetica,sans-Serif" font-size="10.00">fernotron_trx/fer_trx</text>
<text text-anchor="middle" x="1031.5" y="-174.5" font-family="Helvetica,sans-Serif" font-size="10.00">_api.hh</text>
</a>
</g>
</g>
<!-- Node7&#45;&gt;Node12 -->
<g id="edge11" class="edge">
<title>Node7&#45;&gt;Node12</title>
<path fill="none" stroke="midnightblue" d="M1003.47,-225.87C1009.7,-216.46 1016.73,-205.83 1022.19,-197.58"/>
<polygon fill="midnightblue" stroke="midnightblue" points="1000.43,-224.12 997.83,-234.4 1006.27,-227.99 1000.43,-224.12"/>
</g>
<!-- Node14 -->
<g id="node14" class="node">
<title>Node14</title>
<g id="a_node14"><a xlink:href="fer__fsb_8h.html" target="_top" xlink:title="Plain raw message.">
<polygon fill="none" stroke="black" points="886.5,-100.5 886.5,-130.5 1004.5,-130.5 1004.5,-100.5 886.5,-100.5"/>
<text text-anchor="start" x="894.5" y="-118.5" font-family="Helvetica,sans-Serif" font-size="10.00">fernotron_trx/raw/fer</text>
<text text-anchor="middle" x="945.5" y="-107.5" font-family="Helvetica,sans-Serif" font-size="10.00">_fsb.h</text>
</a>
</g>
</g>
<!-- Node7&#45;&gt;Node14 -->
<g id="edge13" class="edge">
<title>Node7&#45;&gt;Node14</title>
<path fill="none" stroke="midnightblue" d="M976.09,-225.1C972,-216.72 967.68,-207.09 964.5,-198 956.44,-174.96 950.78,-147.06 947.84,-130.6"/>
<polygon fill="midnightblue" stroke="midnightblue" points="973.09,-226.91 980.72,-234.26 979.34,-223.76 973.09,-226.91"/>
</g>
<!-- Node15 -->
<g id="node15" class="node">
<title>Node15</title>
<g id="a_node15"><a xlink:href="fer__msg__tx_8h.html" target="_top" xlink:title="Send raw messages.">
<polygon fill="none" stroke="black" points="1204.5,-17 1204.5,-47 1322.5,-47 1322.5,-17 1204.5,-17"/>
<text text-anchor="start" x="1212.5" y="-35" font-family="Helvetica,sans-Serif" font-size="10.00">fernotron_trx/raw/fer</text>
<text text-anchor="middle" x="1263.5" y="-24" font-family="Helvetica,sans-Serif" font-size="10.00">_msg_tx.h</text>
</a>
</g>
</g>
<!-- Node7&#45;&gt;Node15 -->
<g id="edge31" class="edge">
<title>Node7&#45;&gt;Node15</title>
<path fill="none" stroke="midnightblue" d="M1037.22,-230.54C1057.09,-222.12 1079.75,-211.05 1098.5,-198 1132.59,-174.28 1217.89,-82.74 1250.52,-47.21"/>
<polygon fill="midnightblue" stroke="midnightblue" points="1035.63,-227.41 1027.72,-234.46 1038.29,-233.88 1035.63,-227.41"/>
</g>
<!-- Node20 -->
<g id="node20" class="node">
<title>Node20</title>
<g id="a_node20"><a xlink:href="fer__msg__plain_8h.html" target="_top" xlink:title="Data structure of plain messages or header of extended messages.">
<polygon fill="none" stroke="black" points="773.5,-167.5 773.5,-197.5 891.5,-197.5 891.5,-167.5 773.5,-167.5"/>
<text text-anchor="start" x="781.5" y="-185.5" font-family="Helvetica,sans-Serif" font-size="10.00">fernotron_trx/raw/fer</text>
<text text-anchor="middle" x="832.5" y="-174.5" font-family="Helvetica,sans-Serif" font-size="10.00">_msg_plain.h</text>
</a>
</g>
</g>
<!-- Node7&#45;&gt;Node20 -->
<g id="edge19" class="edge">
<title>Node7&#45;&gt;Node20</title>
<path fill="none" stroke="midnightblue" d="M945.41,-230.54C920.44,-220.14 889.47,-207.24 866.28,-197.58"/>
<polygon fill="midnightblue" stroke="midnightblue" points="944.07,-233.78 954.65,-234.4 946.77,-227.32 944.07,-233.78"/>
</g>
<!-- Node22 -->
<g id="node22" class="node">
<title>Node22</title>
<g id="a_node22"><a xlink:href="fer__radio__trx_8h.html" target="_top" xlink:title="RF transceiver.">
<polygon fill="none" stroke="black" points="178.5,-17 178.5,-47 296.5,-47 296.5,-17 178.5,-17"/>
<text text-anchor="start" x="186.5" y="-35" font-family="Helvetica,sans-Serif" font-size="10.00">fernotron_trx/raw/fer</text>
<text text-anchor="middle" x="237.5" y="-24" font-family="Helvetica,sans-Serif" font-size="10.00">_radio_trx.h</text>
</a>
</g>
</g>
<!-- Node7&#45;&gt;Node22 -->
<g id="edge32" class="edge">
<title>Node7&#45;&gt;Node22</title>
<path fill="none" stroke="midnightblue" d="M920.49,-233.97C876,-224.26 816.66,-210.95 764.5,-198 558.24,-146.8 503.87,-140.24 305.5,-64 292.42,-58.97 278.27,-52.67 266.29,-47.06"/>
<polygon fill="midnightblue" stroke="midnightblue" points="919.81,-237.4 930.32,-236.11 921.3,-230.56 919.81,-237.4"/>
</g>
<!-- Node9 -->
<g id="node9" class="node">
<title>Node9</title>
<g id="a_node9"><a xlink:href="shutter__pct_8h.html" target="_top" xlink:title="include positions_static.h and positions_dynamic.h">
<polygon fill="none" stroke="black" points="1257,-100.5 1257,-130.5 1376,-130.5 1376,-100.5 1257,-100.5"/>
<text text-anchor="start" x="1265" y="-118.5" font-family="Helvetica,sans-Serif" font-size="10.00">fernotron/pos/shutter</text>
<text text-anchor="middle" x="1316.5" y="-107.5" font-family="Helvetica,sans-Serif" font-size="10.00">_pct.h</text>
</a>
</g>
</g>
<!-- Node8&#45;&gt;Node9 -->
<g id="edge8" class="edge">
<title>Node8&#45;&gt;Node9</title>
<path fill="none" stroke="midnightblue" d="M1242.28,-162.02C1258.77,-151.9 1278.55,-139.77 1293.54,-130.58"/>
<polygon fill="midnightblue" stroke="midnightblue" points="1240.2,-159.18 1233.5,-167.4 1243.85,-165.15 1240.2,-159.18"/>
</g>
<!-- Node10 -->
<g id="node10" class="node">
<title>Node10</title>
<g id="a_node10"><a xlink:href="commands_8h.html" target="_top" xlink:title="commands to move or stop a shutter with position support">
<polygon fill="none" stroke="black" points="1340.5,-22.5 1340.5,-41.5 1488.5,-41.5 1488.5,-22.5 1340.5,-22.5"/>
<text text-anchor="middle" x="1414.5" y="-29.5" font-family="Helvetica,sans-Serif" font-size="10.00">fernotron/pos/commands.h</text>
</a>
</g>
</g>
<!-- Node9&#45;&gt;Node10 -->
<g id="edge9" class="edge">
<title>Node9&#45;&gt;Node10</title>
<path fill="none" stroke="midnightblue" d="M1341.5,-93.71C1361.83,-76.8 1389.48,-53.81 1404.23,-41.54"/>
<polygon fill="midnightblue" stroke="midnightblue" points="1339.02,-91.22 1333.57,-100.3 1343.5,-96.6 1339.02,-91.22"/>
</g>
<!-- Node13 -->
<g id="node13" class="node">
<title>Node13</title>
<g id="a_node13"><a xlink:href="fer__print_8h.html" target="_top" xlink:title="Print raw message as formatted text to standard output (for debug purposes).">
<polygon fill="none" stroke="black" points="1082.5,-17 1082.5,-47 1186.5,-47 1186.5,-17 1082.5,-17"/>
<text text-anchor="start" x="1090.5" y="-35" font-family="Helvetica,sans-Serif" font-size="10.00">fernotron/txtio/fer</text>
<text text-anchor="middle" x="1134.5" y="-24" font-family="Helvetica,sans-Serif" font-size="10.00">_print.h</text>
</a>
</g>
</g>
<!-- Node12&#45;&gt;Node13 -->
<g id="edge12" class="edge">
<title>Node12&#45;&gt;Node13</title>
<path fill="none" stroke="midnightblue" d="M1047.22,-158.84C1068.68,-127.89 1106.54,-73.31 1124.5,-47.41"/>
<polygon fill="midnightblue" stroke="midnightblue" points="1044.2,-157.05 1041.38,-167.26 1049.95,-161.04 1044.2,-157.05"/>
</g>
<!-- Node14&#45;&gt;Node15 -->
<g id="edge14" class="edge">
<title>Node14&#45;&gt;Node15</title>
<path fill="none" stroke="midnightblue" d="M1014.46,-104.92C1065.28,-96.81 1135.68,-83.4 1195.5,-64 1209.32,-59.52 1224.07,-53.02 1236.28,-47.14"/>
<polygon fill="midnightblue" stroke="midnightblue" points="1013.9,-101.46 1004.56,-106.47 1014.98,-108.38 1013.9,-101.46"/>
</g>
<!-- Node16 -->
<g id="node16" class="node">
<title>Node16</title>
<g id="a_node16"><a xlink:href="fer__rawmsg__build_8h.html" target="_top" xlink:title="builder functions to construct (extended) raw messages">
<polygon fill="none" stroke="black" points="614.5,-17 614.5,-47 732.5,-47 732.5,-17 614.5,-17"/>
<text text-anchor="start" x="622.5" y="-35" font-family="Helvetica,sans-Serif" font-size="10.00">fernotron_trx/raw/fer</text>
<text text-anchor="middle" x="673.5" y="-24" font-family="Helvetica,sans-Serif" font-size="10.00">_rawmsg_build.h</text>
</a>
</g>
</g>
<!-- Node14&#45;&gt;Node16 -->
<g id="edge15" class="edge">
<title>Node14&#45;&gt;Node16</title>
<path fill="none" stroke="midnightblue" d="M876.37,-98.83C827.42,-87.46 766.24,-72.62 741.5,-64 727.9,-59.26 713.31,-52.81 701.14,-47.01"/>
<polygon fill="midnightblue" stroke="midnightblue" points="875.76,-102.28 886.3,-101.13 877.34,-95.46 875.76,-102.28"/>
</g>
<!-- Node14&#45;&gt;Node17 -->
<g id="edge16" class="edge">
<title>Node14&#45;&gt;Node17</title>
<path fill="none" stroke="midnightblue" d="M876.14,-99.93C695.61,-74.09 643.75,-103.83 469.5,-64 466.53,-63.32 463.53,-62.56 460.51,-61.73"/>
<polygon fill="midnightblue" stroke="midnightblue" points="875.84,-103.43 886.24,-101.42 876.85,-96.5 875.84,-103.43"/>
</g>
<!-- Node18 -->
<g id="node18" class="node">
<title>Node18</title>
<g id="a_node18"><a xlink:href="fer__msg__tx__queue_8h_source.html" target="_top" xlink:title=" ">
<polygon fill="none" stroke="black" points="918.5,-0.5 918.5,-63.5 1064.5,-63.5 1064.5,-0.5 918.5,-0.5"/>
<text text-anchor="start" x="926.5" y="-51.5" font-family="Helvetica,sans-Serif" font-size="10.00">/home/bertw/proj/mcu</text>
<text text-anchor="start" x="926.5" y="-40.5" font-family="Helvetica,sans-Serif" font-size="10.00">/tronferno&#45;mcu/external</text>
<text text-anchor="start" x="926.5" y="-29.5" font-family="Helvetica,sans-Serif" font-size="10.00">/tronferno&#45;lib/components</text>
<text text-anchor="start" x="926.5" y="-18.5" font-family="Helvetica,sans-Serif" font-size="10.00">/fernotron_trx/priv_include</text>
<text text-anchor="middle" x="991.5" y="-7.5" font-family="Helvetica,sans-Serif" font-size="10.00">/fer_msg_tx_queue.h</text>
</a>
</g>
</g>
<!-- Node14&#45;&gt;Node18 -->
<g id="edge17" class="edge">
<title>Node14&#45;&gt;Node18</title>
<path fill="none" stroke="midnightblue" d="M958.47,-91.51C963.37,-82.84 969.02,-72.83 974.24,-63.57"/>
<polygon fill="midnightblue" stroke="midnightblue" points="955.38,-89.87 953.51,-100.3 961.48,-93.32 955.38,-89.87"/>
</g>
<!-- Node19 -->
<g id="node19" class="node">
<title>Node19</title>
<g id="a_node19"><a xlink:href="fer__trx__incoming__event_8hh_source.html" target="_top" xlink:title=" ">
<polygon fill="none" stroke="black" points="750.5,-0.5 750.5,-63.5 900.5,-63.5 900.5,-0.5 750.5,-0.5"/>
<text text-anchor="start" x="758.5" y="-51.5" font-family="Helvetica,sans-Serif" font-size="10.00">/home/bertw/proj/mcu</text>
<text text-anchor="start" x="758.5" y="-40.5" font-family="Helvetica,sans-Serif" font-size="10.00">/tronferno&#45;mcu/external</text>
<text text-anchor="start" x="758.5" y="-29.5" font-family="Helvetica,sans-Serif" font-size="10.00">/tronferno&#45;lib/components</text>
<text text-anchor="start" x="758.5" y="-18.5" font-family="Helvetica,sans-Serif" font-size="10.00">/fernotron_trx/priv_include</text>
<text text-anchor="middle" x="825.5" y="-7.5" font-family="Helvetica,sans-Serif" font-size="10.00">/fer_trx_incoming_event.hh</text>
</a>
</g>
</g>
<!-- Node14&#45;&gt;Node19 -->
<g id="edge18" class="edge">
<title>Node14&#45;&gt;Node19</title>
<path fill="none" stroke="midnightblue" d="M916.3,-94.67C902.53,-85.31 885.79,-73.95 870.46,-63.53"/>
<polygon fill="midnightblue" stroke="midnightblue" points="914.63,-97.77 924.87,-100.49 918.57,-91.98 914.63,-97.77"/>
</g>
<!-- Node20&#45;&gt;Node10 -->
<g id="edge20" class="edge">
<title>Node20&#45;&gt;Node10</title>
<path fill="none" stroke="midnightblue" d="M901.49,-168.13C998.46,-148.69 1180.14,-109.89 1331.5,-64 1353.14,-57.44 1377.29,-48.19 1393.94,-41.51"/>
<polygon fill="midnightblue" stroke="midnightblue" points="900.64,-164.73 891.52,-170.12 902.01,-171.59 900.64,-164.73"/>
</g>
<!-- Node20&#45;&gt;Node14 -->
<g id="edge21" class="edge">
<title>Node20&#45;&gt;Node14</title>
<path fill="none" stroke="midnightblue" d="M865.89,-162.3C883.57,-152.12 904.9,-139.85 921.03,-130.58"/>
<polygon fill="midnightblue" stroke="midnightblue" points="863.94,-159.38 857.02,-167.4 867.43,-165.44 863.94,-159.38"/>
</g>
<!-- Node20&#45;&gt;Node17 -->
<g id="edge30" class="edge">
<title>Node20&#45;&gt;Node17</title>
<path fill="none" stroke="midnightblue" d="M762.93,-170.79C715.57,-162.47 651.86,-149.26 597.5,-131 543.73,-112.93 485.48,-85.04 444,-63.62"/>
<polygon fill="midnightblue" stroke="midnightblue" points="762.64,-174.29 773.09,-172.54 763.83,-167.39 762.64,-174.29"/>
</g>
<!-- Node21 -->
<g id="node21" class="node">
<title>Node21</title>
<g id="a_node21"><a xlink:href="fer__msg__attachment_8h.html" target="_top" xlink:title="Extended messages.">
<polygon fill="none" stroke="black" points="606.5,-100.5 606.5,-130.5 724.5,-130.5 724.5,-100.5 606.5,-100.5"/>
<text text-anchor="start" x="614.5" y="-118.5" font-family="Helvetica,sans-Serif" font-size="10.00">fernotron_trx/raw/fer</text>
<text text-anchor="middle" x="665.5" y="-107.5" font-family="Helvetica,sans-Serif" font-size="10.00">_msg_attachment.h</text>
</a>
</g>
</g>
<!-- Node20&#45;&gt;Node21 -->
<g id="edge22" class="edge">
<title>Node20&#45;&gt;Node21</title>
<path fill="none" stroke="midnightblue" d="M786.72,-163.68C759.94,-153.26 726.6,-140.28 701.67,-130.58"/>
<polygon fill="midnightblue" stroke="midnightblue" points="785.67,-167.03 796.26,-167.4 788.21,-160.51 785.67,-167.03"/>
</g>
<!-- Node24 -->
<g id="node24" class="node">
<title>Node24</title>
<g id="a_node24"><a xlink:href="repeater_8h_source.html" target="_top" xlink:title=" ">
<polygon fill="none" stroke="black" points="743,-100.5 743,-130.5 868,-130.5 868,-100.5 743,-100.5"/>
<text text-anchor="start" x="751" y="-118.5" font-family="Helvetica,sans-Serif" font-size="10.00">fernotron_trx/repeater</text>
<text text-anchor="middle" x="805.5" y="-107.5" font-family="Helvetica,sans-Serif" font-size="10.00">/repeater.h</text>
</a>
</g>
</g>
<!-- Node20&#45;&gt;Node24 -->
<g id="edge29" class="edge">
<title>Node20&#45;&gt;Node24</title>
<path fill="none" stroke="midnightblue" d="M822.73,-157.99C818.92,-148.8 814.67,-138.58 811.35,-130.58"/>
<polygon fill="midnightblue" stroke="midnightblue" points="819.57,-159.5 826.64,-167.4 826.04,-156.82 819.57,-159.5"/>
</g>
<!-- Node21&#45;&gt;Node13 -->
<g id="edge23" class="edge">
<title>Node21&#45;&gt;Node13</title>
<path fill="none" stroke="midnightblue" d="M734.19,-100.05C734.3,-100.03 734.4,-100.02 734.5,-100 884.16,-76.39 928.23,-107.03 1073.5,-64 1086.83,-60.05 1100.71,-53.24 1111.86,-47"/>
<polygon fill="midnightblue" stroke="midnightblue" points="733.8,-96.57 724.52,-101.69 734.97,-103.47 733.8,-96.57"/>
</g>
<!-- Node21&#45;&gt;Node16 -->
<g id="edge26" class="edge">
<title>Node21&#45;&gt;Node16</title>
<path fill="none" stroke="midnightblue" d="M667.88,-90.28C669.26,-76.18 670.96,-58.9 672.12,-47.03"/>
<polygon fill="midnightblue" stroke="midnightblue" points="664.39,-90.01 666.89,-100.3 671.35,-90.69 664.39,-90.01"/>
</g>
<!-- Node21&#45;&gt;Node17 -->
<g id="edge27" class="edge">
<title>Node21&#45;&gt;Node17</title>
<path fill="none" stroke="midnightblue" d="M596.39,-98.65C558.61,-89.5 511.17,-77.2 469.5,-64 466.6,-63.08 463.65,-62.12 460.68,-61.12"/>
<polygon fill="midnightblue" stroke="midnightblue" points="595.73,-102.09 606.27,-101.02 597.37,-95.28 595.73,-102.09"/>
</g>
<!-- Node21&#45;&gt;Node19 -->
<g id="edge28" class="edge">
<title>Node21&#45;&gt;Node19</title>
<path fill="none" stroke="midnightblue" d="M702.1,-95.86C720.88,-86.29 744.24,-74.39 765.56,-63.53"/>
<polygon fill="midnightblue" stroke="midnightblue" points="700.33,-92.83 693,-100.49 703.5,-99.07 700.33,-92.83"/>
</g>
<!-- Node21&#45;&gt;Node22 -->
<g id="edge24" class="edge">
<title>Node21&#45;&gt;Node22</title>
<path fill="none" stroke="midnightblue" d="M596.48,-107.21C507.7,-97.43 358.59,-79.47 305.5,-64 291.18,-59.83 276,-53.15 263.63,-47.05"/>
<polygon fill="midnightblue" stroke="midnightblue" points="596.15,-110.7 606.47,-108.31 596.91,-103.74 596.15,-110.7"/>
</g>
<!-- Node23 -->
<g id="node23" class="node">
<title>Node23</title>
<g id="a_node23"><a xlink:href="fer__rawmsg__buffer_8h.html" target="_top" xlink:title="Global static buffers for raw messages.">
<polygon fill="none" stroke="black" points="478.5,-17 478.5,-47 596.5,-47 596.5,-17 478.5,-17"/>
<text text-anchor="start" x="486.5" y="-35" font-family="Helvetica,sans-Serif" font-size="10.00">fernotron_trx/raw/fer</text>
<text text-anchor="middle" x="537.5" y="-24" font-family="Helvetica,sans-Serif" font-size="10.00">_rawmsg_buffer.h</text>
</a>
</g>
</g>
<!-- Node21&#45;&gt;Node23 -->
<g id="edge25" class="edge">
<title>Node21&#45;&gt;Node23</title>
<path fill="none" stroke="midnightblue" d="M635.05,-95.11C611.86,-80.35 580.48,-60.37 559.65,-47.1"/>
<polygon fill="midnightblue" stroke="midnightblue" points="633.18,-98.07 643.5,-100.49 636.94,-92.17 633.18,-98.07"/>
</g>
</g>
</svg>
