<?xml version="1.0" encoding="UTF-8" standalone="no"?>
<!DOCTYPE svg PUBLIC "-//W3C//DTD SVG 1.1//EN"
 "http://www.w3.org/Graphics/SVG/1.1/DTD/svg11.dtd">
<!-- Generated by graphviz version 2.43.0 (0)
 -->
<!-- Title: fer_astro_row Pages: 1 -->
<svg width="91pt" height="204pt"
 viewBox="0.00 0.00 91.00 204.00" xmlns="http://www.w3.org/2000/svg" xmlns:xlink="http://www.w3.org/1999/xlink">
<g id="graph0" class="graph" transform="scale(1 1) rotate(0) translate(4 200)">
<title>fer_astro_row</title>
<!-- Node1 -->
<g id="node1" class="node">
<title>Node1</title>
<g id="a_node1"><a xlink:title="Astro row.">
<polygon fill="#bfbfbf" stroke="black" points="0,-0.5 0,-79.5 83,-79.5 83,-0.5 0,-0.5"/>
<text text-anchor="middle" x="41.5" y="-67.5" font-family="Helvetica,sans-Serif" font-size="10.00">fer_astro_row</text>
<polyline fill="none" stroke="black" points="0,-60.5 83,-60.5 "/>
<text text-anchor="start" x="8" y="-48.5" font-family="Helvetica,sans-Serif" font-size="10.00">+ bd</text>
<text text-anchor="start" x="8" y="-37.5" font-family="Helvetica,sans-Serif" font-size="10.00">+ checkSum</text>
<text text-anchor="start" x="8" y="-26.5" font-family="Helvetica,sans-Serif" font-size="10.00">+ sd</text>
<polyline fill="none" stroke="black" points="0,-19.5 83,-19.5 "/>
<text text-anchor="middle" x="41.5" y="-7.5" font-family="Helvetica,sans-Serif" font-size="10.00"> </text>
</a>
</g>
</g>
<!-- Node2 -->
<g id="node2" class="node">
<title>Node2</title>
<g id="a_node2"><a xlink:href="structfer__time.html" target="_top" xlink:title="Minute/Hour pair used in timers.">
<polygon fill="none" stroke="black" points="12.5,-127.5 12.5,-195.5 70.5,-195.5 70.5,-127.5 12.5,-127.5"/>
<text text-anchor="middle" x="41.5" y="-183.5" font-family="Helvetica,sans-Serif" font-size="10.00">fer_time</text>
<polyline fill="none" stroke="black" points="12.5,-176.5 70.5,-176.5 "/>
<text text-anchor="start" x="20.5" y="-164.5" font-family="Helvetica,sans-Serif" font-size="10.00">+ mint</text>
<text text-anchor="start" x="20.5" y="-153.5" font-family="Helvetica,sans-Serif" font-size="10.00">+ hour</text>
<polyline fill="none" stroke="black" points="12.5,-146.5 70.5,-146.5 "/>
<text text-anchor="middle" x="41.5" y="-134.5" font-family="Helvetica,sans-Serif" font-size="10.00"> </text>
</a>
</g>
</g>
<!-- Node2&#45;&gt;Node1 -->
<g id="edge1" class="edge">
<title>Node2&#45;&gt;Node1</title>
<path fill="none" stroke="#404040" d="M41.5,-127.21C41.5,-116.24 41.5,-103.78 41.5,-91.81"/>
<polygon fill="none" stroke="#404040" points="41.5,-91.6 37.5,-85.6 41.5,-79.6 45.5,-85.6 41.5,-91.6"/>
<text text-anchor="middle" x="61.5" y="-101" font-family="Helvetica,sans-Serif" font-size="10.00"> +times</text>
</g>
</g>
</svg>
