<?xml version="1.0" encoding="UTF-8" standalone="no"?>
<!DOCTYPE svg PUBLIC "-//W3C//DTD SVG 1.1//EN"
 "http://www.w3.org/Graphics/SVG/1.1/DTD/svg11.dtd">
<!-- Generated by graphviz version 2.43.0 (0)
 -->
<!-- Title: fer_cmd_row Pages: 1 -->
<svg width="88pt" height="237pt"
 viewBox="0.00 0.00 88.00 237.00" xmlns="http://www.w3.org/2000/svg" xmlns:xlink="http://www.w3.org/1999/xlink">
<g id="graph0" class="graph" transform="scale(1 1) rotate(0) translate(4 233)">
<title>fer_cmd_row</title>
<!-- Node1 -->
<g id="node1" class="node">
<title>Node1</title>
<g id="a_node1"><a xlink:title="Plain message or header for extended messages (with checksum)">
<polygon fill="#bfbfbf" stroke="black" points="0,-0.5 0,-79.5 80,-79.5 80,-0.5 0,-0.5"/>
<text text-anchor="middle" x="40" y="-67.5" font-family="Helvetica,sans-Serif" font-size="10.00">fer_cmd_row</text>
<polyline fill="none" stroke="black" points="0,-60.5 80,-60.5 "/>
<text text-anchor="start" x="8" y="-48.5" font-family="Helvetica,sans-Serif" font-size="10.00">+ bd</text>
<text text-anchor="start" x="8" y="-37.5" font-family="Helvetica,sans-Serif" font-size="10.00">+ checkSum</text>
<text text-anchor="start" x="8" y="-26.5" font-family="Helvetica,sans-Serif" font-size="10.00">+ sd</text>
<polyline fill="none" stroke="black" points="0,-19.5 80,-19.5 "/>
<text text-anchor="middle" x="40" y="-7.5" font-family="Helvetica,sans-Serif" font-size="10.00"> </text>
</a>
</g>
</g>
<!-- Node2 -->
<g id="node2" class="node">
<title>Node2</title>
<g id="a_node2"><a xlink:href="structFer__Cmd.html" target="_top" xlink:title="Plain message or header for extended messages (w/o checksum)">
<polygon fill="none" stroke="black" points="10.5,-127.5 10.5,-228.5 69.5,-228.5 69.5,-127.5 10.5,-127.5"/>
<text text-anchor="middle" x="40" y="-216.5" font-family="Helvetica,sans-Serif" font-size="10.00">Fer_Cmd</text>
<polyline fill="none" stroke="black" points="10.5,-209.5 69.5,-209.5 "/>
<text text-anchor="start" x="18.5" y="-197.5" font-family="Helvetica,sans-Serif" font-size="10.00">+ addr</text>
<text text-anchor="start" x="18.5" y="-186.5" font-family="Helvetica,sans-Serif" font-size="10.00">+ memb</text>
<text text-anchor="start" x="18.5" y="-175.5" font-family="Helvetica,sans-Serif" font-size="10.00">+ tgl</text>
<text text-anchor="start" x="18.5" y="-164.5" font-family="Helvetica,sans-Serif" font-size="10.00">+ cmd</text>
<text text-anchor="start" x="18.5" y="-153.5" font-family="Helvetica,sans-Serif" font-size="10.00">+ grp</text>
<polyline fill="none" stroke="black" points="10.5,-146.5 69.5,-146.5 "/>
<text text-anchor="middle" x="40" y="-134.5" font-family="Helvetica,sans-Serif" font-size="10.00"> </text>
</a>
</g>
</g>
<!-- Node2&#45;&gt;Node1 -->
<g id="edge1" class="edge">
<title>Node2&#45;&gt;Node1</title>
<path fill="none" stroke="#404040" d="M40,-127.13C40,-115.66 40,-103.45 40,-91.94"/>
<polygon fill="none" stroke="#404040" points="40,-91.79 36,-85.79 40,-79.79 44,-85.79 40,-91.79"/>
<text text-anchor="middle" x="56.5" y="-101" font-family="Helvetica,sans-Serif" font-size="10.00"> +cmd</text>
</g>
</g>
</svg>
