<?xml version="1.0" encoding="UTF-8" standalone="no"?>
<!DOCTYPE svg PUBLIC "-//W3C//DTD SVG 1.1//EN"
 "http://www.w3.org/Graphics/SVG/1.1/DTD/svg11.dtd">
<!-- Generated by graphviz version 2.43.0 (0)
 -->
<!-- Title: fer_wdtimer Pages: 1 -->
<!--zoomable 480 -->
<svg id="main" version="1.1" xmlns="http://www.w3.org/2000/svg" xmlns:xlink="http://www.w3.org/1999/xlink" xml:space="preserve" onload="init(evt)">
<style type="text/css"><![CDATA[
.edge:hover path { stroke: red; }
.edge:hover polygon { stroke: red; fill: red; }
]]></style>
<script type="text/javascript"><![CDATA[
var edges = document.getElementsByTagName('g');
if (edges && edges.length) {
  for (var i=0;i<edges.length;i++) {
    if (edges[i].id.substr(0,4)=='edge') {
      edges[i].setAttribute('class','edge');
    }
  }
}
]]></script>
        <defs>
                <circle id="rim" cx="0" cy="0" r="7"/>
                <circle id="rim2" cx="0" cy="0" r="3.5"/>
                <g id="zoomPlus">
                        <use xlink:href="#rim" fill="#404040">
                                <set attributeName="fill" to="#808080" begin="zoomplus.mouseover" end="zoomplus.mouseout"/>
                        </use>
                        <path d="M-4,0h8M0,-4v8" fill="none" stroke="white" stroke-width="1.5" pointer-events="none"/>
                </g>
                <g id="zoomMin">
                        <use xlink:href="#rim" fill="#404040">
                                <set attributeName="fill" to="#808080" begin="zoomminus.mouseover" end="zoomminus.mouseout"/>
                        </use>
                        <path d="M-4,0h8" fill="none" stroke="white" stroke-width="1.5" pointer-events="none"/>
                </g>
                <g id="dirArrow">
                        <path fill="none" stroke="white" stroke-width="1.5" d="M0,-3.0v7 M-2.5,-0.5L0,-3.0L2.5,-0.5"/>
                </g>
               <g id="resetDef">
                       <use xlink:href="#rim2" fill="#404040">
                               <set attributeName="fill" to="#808080" begin="reset.mouseover" end="reset.mouseout"/>
                       </use>
               </g>
        </defs>

<script type="text/javascript">
var viewWidth = 170;
var viewHeight = 480;
var sectionId = 'dynsection-0';
</script>
<script xlink:href="svgpan.js"/>
<svg id="graph" class="graph">
<g id="viewport">
<title>fer_wdtimer</title>
<!-- Node1 -->
<g id="node1" class="node">
<title>Node1</title>
<g id="a_node1"><a xlink:title="Block of weekly/daily timer rows.">
<polygon fill="#bfbfbf" stroke="black" points="0,-0.5 0,-123.5 76,-123.5 76,-0.5 0,-0.5"/>
<text text-anchor="middle" x="38" y="-111.5" font-family="Helvetica,sans-Serif" font-size="10.00">fer_wdtimer</text>
<polyline fill="none" stroke="black" points="0,-104.5 76,-104.5 "/>
<text text-anchor="start" x="8" y="-92.5" font-family="Helvetica,sans-Serif" font-size="10.00">+ bd</text>
<text text-anchor="start" x="8" y="-81.5" font-family="Helvetica,sans-Serif" font-size="10.00">+ rows</text>
<text text-anchor="start" x="8" y="-70.5" font-family="Helvetica,sans-Serif" font-size="10.00">+ cs0</text>
<text text-anchor="start" x="8" y="-59.5" font-family="Helvetica,sans-Serif" font-size="10.00">+ cs1</text>
<text text-anchor="start" x="8" y="-48.5" font-family="Helvetica,sans-Serif" font-size="10.00">+ cs2</text>
<text text-anchor="start" x="8" y="-37.5" font-family="Helvetica,sans-Serif" font-size="10.00">+ cs3</text>
<text text-anchor="start" x="8" y="-26.5" font-family="Helvetica,sans-Serif" font-size="10.00">+ days</text>
<polyline fill="none" stroke="black" points="0,-19.5 76,-19.5 "/>
<text text-anchor="middle" x="38" y="-7.5" font-family="Helvetica,sans-Serif" font-size="10.00"> </text>
</a>
</g>
</g>
<!-- Node2 -->
<g id="node2" class="node">
<title>Node2</title>
<g id="a_node2"><a xlink:href="structfer__timer.html" target="_top" xlink:title="Up/Down pair used in timers.">
<polygon fill="none" stroke="black" points="7,-287.5 7,-344.5 69,-344.5 69,-287.5 7,-287.5"/>
<text text-anchor="middle" x="38" y="-332.5" font-family="Helvetica,sans-Serif" font-size="10.00">fer_timer</text>
<polyline fill="none" stroke="black" points="7,-325.5 69,-325.5 "/>
<text text-anchor="middle" x="38" y="-313.5" font-family="Helvetica,sans-Serif" font-size="10.00"> </text>
<polyline fill="none" stroke="black" points="7,-306.5 69,-306.5 "/>
<text text-anchor="middle" x="38" y="-294.5" font-family="Helvetica,sans-Serif" font-size="10.00"> </text>
</a>
</g>
</g>
<!-- Node2&#45;&gt;Node1 -->
<g id="edge1" class="edge">
<title>Node2&#45;&gt;Node1</title>
<path fill="none" stroke="#404040" d="M34.79,-287.26C33.31,-273.14 31.73,-255.68 31,-240 29.41,-205.83 30.52,-167.94 32.29,-136.01"/>
<polygon fill="none" stroke="#404040" points="32.31,-135.61 28.68,-129.38 33.02,-123.63 36.66,-129.86 32.31,-135.61"/>
<text text-anchor="middle" x="49" y="-225" font-family="Helvetica,sans-Serif" font-size="10.00"> +daily</text>
<text text-anchor="middle" x="49" y="-214" font-family="Helvetica,sans-Serif" font-size="10.00">+fri</text>
<text text-anchor="middle" x="49" y="-203" font-family="Helvetica,sans-Serif" font-size="10.00">+mon</text>
<text text-anchor="middle" x="49" y="-192" font-family="Helvetica,sans-Serif" font-size="10.00">+wed</text>
</g>
<!-- Node4 -->
<g id="node4" class="node">
<title>Node4</title>
<g id="a_node4"><a xlink:href="structfer__timer__row.html" target="_top" xlink:title="A row containing 2 timers.">
<polygon fill="none" stroke="black" points="76.5,-182.5 76.5,-239.5 161.5,-239.5 161.5,-182.5 76.5,-182.5"/>
<text text-anchor="middle" x="119" y="-227.5" font-family="Helvetica,sans-Serif" font-size="10.00">fer_timer_row</text>
<polyline fill="none" stroke="black" points="76.5,-220.5 161.5,-220.5 "/>
<text text-anchor="start" x="84.5" y="-208.5" font-family="Helvetica,sans-Serif" font-size="10.00">+ checkSum</text>
<polyline fill="none" stroke="black" points="76.5,-201.5 161.5,-201.5 "/>
<text text-anchor="middle" x="119" y="-189.5" font-family="Helvetica,sans-Serif" font-size="10.00"> </text>
</a>
</g>
</g>
<!-- Node2&#45;&gt;Node4 -->
<g id="edge4" class="edge">
<title>Node2&#45;&gt;Node4</title>
<path fill="none" stroke="#404040" d="M59.71,-287.4C68.88,-275.74 79.7,-261.98 89.57,-249.42"/>
<polygon fill="none" stroke="#404040" points="89.82,-249.11 90.38,-241.92 97.23,-239.68 96.67,-246.87 89.82,-249.11"/>
<text text-anchor="middle" x="101.5" y="-261" font-family="Helvetica,sans-Serif" font-size="10.00"> +timers</text>
</g>
<!-- Node3 -->
<g id="node3" class="node">
<title>Node3</title>
<g id="a_node3"><a xlink:href="structfer__time.html" target="_top" xlink:title="Minute/Hour pair used in timers.">
<polygon fill="none" stroke="black" points="9,-403.5 9,-471.5 67,-471.5 67,-403.5 9,-403.5"/>
<text text-anchor="middle" x="38" y="-459.5" font-family="Helvetica,sans-Serif" font-size="10.00">fer_time</text>
<polyline fill="none" stroke="black" points="9,-452.5 67,-452.5 "/>
<text text-anchor="start" x="17" y="-440.5" font-family="Helvetica,sans-Serif" font-size="10.00">+ mint</text>
<text text-anchor="start" x="17" y="-429.5" font-family="Helvetica,sans-Serif" font-size="10.00">+ hour</text>
<polyline fill="none" stroke="black" points="9,-422.5 67,-422.5 "/>
<text text-anchor="middle" x="38" y="-410.5" font-family="Helvetica,sans-Serif" font-size="10.00"> </text>
</a>
</g>
</g>
<!-- Node3&#45;&gt;Node2 -->
<g id="edge2" class="edge">
<title>Node3&#45;&gt;Node2</title>
<path fill="none" stroke="#404040" d="M38,-403.21C38,-388.86 38,-371.96 38,-356.94"/>
<polygon fill="none" stroke="#404040" points="38,-356.86 34,-350.86 38,-344.86 42,-350.86 38,-356.86"/>
<text text-anchor="middle" x="57" y="-377" font-family="Helvetica,sans-Serif" font-size="10.00"> +down</text>
<text text-anchor="middle" x="57" y="-366" font-family="Helvetica,sans-Serif" font-size="10.00">+up</text>
</g>
<!-- Node4&#45;&gt;Node1 -->
<g id="edge3" class="edge">
<title>Node4&#45;&gt;Node1</title>
<path fill="none" stroke="#404040" d="M103.76,-182.35C96.21,-168.64 86.71,-151.4 77.29,-134.31"/>
<polygon fill="none" stroke="#404040" points="77.25,-134.23 70.85,-130.91 71.46,-123.72 77.86,-127.05 77.25,-134.23"/>
<text text-anchor="middle" x="119" y="-156" font-family="Helvetica,sans-Serif" font-size="10.00"> +rows_arr</text>
<text text-anchor="middle" x="119" y="-145" font-family="Helvetica,sans-Serif" font-size="10.00">+sat_daily</text>
</g>
</g>
</svg>
        <g id="navigator" transform="translate(0 0)" fill="#404254">
                <rect fill="#f2f5e9" fill-opacity="0.5" stroke="#606060" stroke-width=".5" x="0" y="0" width="60" height="60"/>
                <use id="zoomplus" xlink:href="#zoomPlus" x="17" y="9" onmousedown="handleZoom(evt,'in')"/>
                <use id="zoomminus" xlink:href="#zoomMin" x="42" y="9" onmousedown="handleZoom(evt,'out')"/>
                <use id="reset" xlink:href="#resetDef" x="30" y="36" onmousedown="handleReset()"/>
                <g id="arrowUp" xlink:href="#dirArrow" transform="translate(30 24)" onmousedown="handlePan(0,-1)">
                  <use xlink:href="#rim" fill="#404040">
                        <set attributeName="fill" to="#808080" begin="arrowUp.mouseover" end="arrowUp.mouseout"/>
                  </use>
                  <path fill="none" stroke="white" stroke-width="1.5" d="M0,-3.0v7 M-2.5,-0.5L0,-3.0L2.5,-0.5"/>
                </g>
                <g id="arrowRight" xlink:href="#dirArrow" transform="rotate(90) translate(36 -43)" onmousedown="handlePan(1,0)">
                  <use xlink:href="#rim" fill="#404040">
                        <set attributeName="fill" to="#808080" begin="arrowRight.mouseover" end="arrowRight.mouseout"/>
                  </use>
                  <path fill="none" stroke="white" stroke-width="1.5" d="M0,-3.0v7 M-2.5,-0.5L0,-3.0L2.5,-0.5"/>
                </g>
                <g id="arrowDown" xlink:href="#dirArrow" transform="rotate(180) translate(-30 -48)" onmousedown="handlePan(0,1)">
                  <use xlink:href="#rim" fill="#404040">
                        <set attributeName="fill" to="#808080" begin="arrowDown.mouseover" end="arrowDown.mouseout"/>
                  </use>
                  <path fill="none" stroke="white" stroke-width="1.5" d="M0,-3.0v7 M-2.5,-0.5L0,-3.0L2.5,-0.5"/>
                </g>
                <g id="arrowLeft" xlink:href="#dirArrow" transform="rotate(270) translate(-36 17)" onmousedown="handlePan(-1,0)">
                  <use xlink:href="#rim" fill="#404040">
                        <set attributeName="fill" to="#808080" begin="arrowLeft.mouseover" end="arrowLeft.mouseout"/>
                  </use>
                  <path fill="none" stroke="white" stroke-width="1.5" d="M0,-3.0v7 M-2.5,-0.5L0,-3.0L2.5,-0.5"/>
                </g>
        </g>
        <svg viewBox="0 0 15 15" width="100%" height="30px" preserveAspectRatio="xMaxYMin meet">
         <g id="arrow_out" transform="scale(0.3 0.3)">
          <a xlink:href="unionfer__wdtimer__coll__graph_org.svg" target="_base">
           <rect id="button" ry="5" rx="5" y="6" x="6" height="38" width="38"
                fill="#f2f5e9" fill-opacity="0.5" stroke="#606060" stroke-width="1.0"/>
           <path id="arrow"
             d="M 11.500037,31.436501 C 11.940474,20.09759 22.043105,11.32322 32.158766,21.979434 L 37.068811,17.246167 C 37.068811,17.246167 37.088388,32 37.088388,32 L 22.160133,31.978069 C 22.160133,31.978069 26.997745,27.140456 26.997745,27.140456 C 18.528582,18.264221 13.291696,25.230495 11.500037,31.436501 z"
             style="fill:#404040;"/>
          </a>
         </g>
        </svg>
</svg>
