<?xml version="1.0" encoding="UTF-8" standalone="no"?>
<!DOCTYPE svg PUBLIC "-//W3C//DTD SVG 1.1//EN"
 "http://www.w3.org/Graphics/SVG/1.1/DTD/svg11.dtd">
<!-- Generated by graphviz version 2.43.0 (0)
 -->
<!-- Title: fer_sbT Pages: 1 -->
<svg width="67pt" height="215pt"
 viewBox="0.00 0.00 67.00 215.00" xmlns="http://www.w3.org/2000/svg" xmlns:xlink="http://www.w3.org/1999/xlink">
<g id="graph0" class="graph" transform="scale(1 1) rotate(0) translate(4 211)">
<title>fer_sbT</title>
<!-- Node1 -->
<g id="node1" class="node">
<title>Node1</title>
<g id="a_node1"><a xlink:title="Raw message w/o checksum.">
<polygon fill="#bfbfbf" stroke="black" points="3,-0.5 3,-57.5 56,-57.5 56,-0.5 3,-0.5"/>
<text text-anchor="middle" x="29.5" y="-45.5" font-family="Helvetica,sans-Serif" font-size="10.00">fer_sbT</text>
<polyline fill="none" stroke="black" points="3,-38.5 56,-38.5 "/>
<text text-anchor="start" x="11" y="-26.5" font-family="Helvetica,sans-Serif" font-size="10.00">+ data</text>
<polyline fill="none" stroke="black" points="3,-19.5 56,-19.5 "/>
<text text-anchor="middle" x="29.5" y="-7.5" font-family="Helvetica,sans-Serif" font-size="10.00"> </text>
</a>
</g>
</g>
<!-- Node2 -->
<g id="node2" class="node">
<title>Node2</title>
<g id="a_node2"><a xlink:href="structFer__Cmd.html" target="_top" xlink:title="Plain message or header for extended messages (w/o checksum)">
<polygon fill="none" stroke="black" points="0,-105.5 0,-206.5 59,-206.5 59,-105.5 0,-105.5"/>
<text text-anchor="middle" x="29.5" y="-194.5" font-family="Helvetica,sans-Serif" font-size="10.00">Fer_Cmd</text>
<polyline fill="none" stroke="black" points="0,-187.5 59,-187.5 "/>
<text text-anchor="start" x="8" y="-175.5" font-family="Helvetica,sans-Serif" font-size="10.00">+ addr</text>
<text text-anchor="start" x="8" y="-164.5" font-family="Helvetica,sans-Serif" font-size="10.00">+ memb</text>
<text text-anchor="start" x="8" y="-153.5" font-family="Helvetica,sans-Serif" font-size="10.00">+ tgl</text>
<text text-anchor="start" x="8" y="-142.5" font-family="Helvetica,sans-Serif" font-size="10.00">+ cmd</text>
<text text-anchor="start" x="8" y="-131.5" font-family="Helvetica,sans-Serif" font-size="10.00">+ grp</text>
<polyline fill="none" stroke="black" points="0,-124.5 59,-124.5 "/>
<text text-anchor="middle" x="29.5" y="-112.5" font-family="Helvetica,sans-Serif" font-size="10.00"> </text>
</a>
</g>
</g>
<!-- Node2&#45;&gt;Node1 -->
<g id="edge1" class="edge">
<title>Node2&#45;&gt;Node1</title>
<path fill="none" stroke="#404040" d="M29.5,-105.24C29.5,-93.46 29.5,-81.06 29.5,-69.8"/>
<polygon fill="none" stroke="#404040" points="29.5,-69.66 25.5,-63.66 29.5,-57.66 33.5,-63.66 29.5,-69.66"/>
<text text-anchor="middle" x="41" y="-79" font-family="Helvetica,sans-Serif" font-size="10.00"> +sd</text>
</g>
</g>
</svg>
