<?xml version="1.0" encoding="UTF-8" standalone="no"?>
<!DOCTYPE svg PUBLIC "-//W3C//DTD SVG 1.1//EN"
 "http://www.w3.org/Graphics/SVG/1.1/DTD/svg11.dtd">
<!-- Generated by graphviz version 2.43.0 (0)
 -->
<!-- Title: fer_astro Pages: 1 -->
<svg width="91pt" height="309pt"
 viewBox="0.00 0.00 91.00 309.00" xmlns="http://www.w3.org/2000/svg" xmlns:xlink="http://www.w3.org/1999/xlink">
<g id="graph0" class="graph" transform="scale(1 1) rotate(0) translate(4 305)">
<title>fer_astro</title>
<!-- Node1 -->
<g id="node1" class="node">
<title>Node1</title>
<g id="a_node1"><a xlink:title="Block of astro rows.">
<polygon fill="#bfbfbf" stroke="black" points="11.5,-0.5 11.5,-57.5 71.5,-57.5 71.5,-0.5 11.5,-0.5"/>
<text text-anchor="middle" x="41.5" y="-45.5" font-family="Helvetica,sans-Serif" font-size="10.00">fer_astro</text>
<polyline fill="none" stroke="black" points="11.5,-38.5 71.5,-38.5 "/>
<text text-anchor="start" x="19.5" y="-26.5" font-family="Helvetica,sans-Serif" font-size="10.00">+ bd</text>
<polyline fill="none" stroke="black" points="11.5,-19.5 71.5,-19.5 "/>
<text text-anchor="middle" x="41.5" y="-7.5" font-family="Helvetica,sans-Serif" font-size="10.00"> </text>
</a>
</g>
</g>
<!-- Node2 -->
<g id="node2" class="node">
<title>Node2</title>
<g id="a_node2"><a xlink:href="unionfer__astro__row.html" target="_top" xlink:title="Astro row.">
<polygon fill="none" stroke="black" points="0,-105.5 0,-184.5 83,-184.5 83,-105.5 0,-105.5"/>
<text text-anchor="middle" x="41.5" y="-172.5" font-family="Helvetica,sans-Serif" font-size="10.00">fer_astro_row</text>
<polyline fill="none" stroke="black" points="0,-165.5 83,-165.5 "/>
<text text-anchor="start" x="8" y="-153.5" font-family="Helvetica,sans-Serif" font-size="10.00">+ bd</text>
<text text-anchor="start" x="8" y="-142.5" font-family="Helvetica,sans-Serif" font-size="10.00">+ checkSum</text>
<text text-anchor="start" x="8" y="-131.5" font-family="Helvetica,sans-Serif" font-size="10.00">+ sd</text>
<polyline fill="none" stroke="black" points="0,-124.5 83,-124.5 "/>
<text text-anchor="middle" x="41.5" y="-112.5" font-family="Helvetica,sans-Serif" font-size="10.00"> </text>
</a>
</g>
</g>
<!-- Node2&#45;&gt;Node1 -->
<g id="edge1" class="edge">
<title>Node2&#45;&gt;Node1</title>
<path fill="none" stroke="#404040" d="M41.5,-105.4C41.5,-93.93 41.5,-81.33 41.5,-69.78"/>
<polygon fill="none" stroke="#404040" points="41.5,-69.75 37.5,-63.75 41.5,-57.75 45.5,-63.75 41.5,-69.75"/>
<text text-anchor="middle" x="59" y="-79" font-family="Helvetica,sans-Serif" font-size="10.00"> +rows</text>
</g>
<!-- Node3 -->
<g id="node3" class="node">
<title>Node3</title>
<g id="a_node3"><a xlink:href="structfer__time.html" target="_top" xlink:title="Minute/Hour pair used in timers.">
<polygon fill="none" stroke="black" points="12.5,-232.5 12.5,-300.5 70.5,-300.5 70.5,-232.5 12.5,-232.5"/>
<text text-anchor="middle" x="41.5" y="-288.5" font-family="Helvetica,sans-Serif" font-size="10.00">fer_time</text>
<polyline fill="none" stroke="black" points="12.5,-281.5 70.5,-281.5 "/>
<text text-anchor="start" x="20.5" y="-269.5" font-family="Helvetica,sans-Serif" font-size="10.00">+ mint</text>
<text text-anchor="start" x="20.5" y="-258.5" font-family="Helvetica,sans-Serif" font-size="10.00">+ hour</text>
<polyline fill="none" stroke="black" points="12.5,-251.5 70.5,-251.5 "/>
<text text-anchor="middle" x="41.5" y="-239.5" font-family="Helvetica,sans-Serif" font-size="10.00"> </text>
</a>
</g>
</g>
<!-- Node3&#45;&gt;Node2 -->
<g id="edge2" class="edge">
<title>Node3&#45;&gt;Node2</title>
<path fill="none" stroke="#404040" d="M41.5,-232.21C41.5,-221.24 41.5,-208.78 41.5,-196.81"/>
<polygon fill="none" stroke="#404040" points="41.5,-196.6 37.5,-190.6 41.5,-184.6 45.5,-190.6 41.5,-196.6"/>
<text text-anchor="middle" x="61.5" y="-206" font-family="Helvetica,sans-Serif" font-size="10.00"> +times</text>
</g>
</g>
</svg>
