<?xml version="1.0" encoding="UTF-8" standalone="no"?>
<!DOCTYPE svg PUBLIC "-//W3C//DTD SVG 1.1//EN"
 "http://www.w3.org/Graphics/SVG/1.1/DTD/svg11.dtd">
<!-- Generated by graphviz version 2.43.0 (0)
 -->
<!-- Title: uout/uo_types.h Pages: 1 -->
<svg width="909pt" height="196pt"
 viewBox="0.00 0.00 908.94 196.00" xmlns="http://www.w3.org/2000/svg" xmlns:xlink="http://www.w3.org/1999/xlink">
<g id="graph0" class="graph" transform="scale(1 1) rotate(0) translate(4 192)">
<title>uout/uo_types.h</title>
<!-- Node1 -->
<g id="node1" class="node">
<title>Node1</title>
<g id="a_node1"><a xlink:title="API parameter and return types.">
<polygon fill="#bfbfbf" stroke="black" points="397,-168.5 397,-187.5 492,-187.5 492,-168.5 397,-168.5"/>
<text text-anchor="middle" x="444.5" y="-175.5" font-family="Helvetica,sans-Serif" font-size="10.00">uout/uo_types.h</text>
</a>
</g>
</g>
<!-- Node2 -->
<g id="node2" class="node">
<title>Node2</title>
<g id="a_node2"><a xlink:href="so__target__bits_8h.html" target="_top" xlink:title="flags to select output formats and targets">
<polygon fill="none" stroke="black" points="0,-0.5 0,-19.5 95,-19.5 95,-0.5 0,-0.5"/>
<text text-anchor="middle" x="47.5" y="-7.5" font-family="Helvetica,sans-Serif" font-size="10.00">so_target_bits.h</text>
</a>
</g>
</g>
<!-- Node1&#45;&gt;Node2 -->
<g id="edge1" class="edge">
<title>Node1&#45;&gt;Node2</title>
<path fill="none" stroke="midnightblue" d="M396.71,-173.4C293.66,-164.51 56.05,-137.63 9.5,-76 -2.53,-60.07 13.31,-40.01 28.06,-26.42"/>
<polygon fill="midnightblue" stroke="midnightblue" points="30.67,-28.79 35.95,-19.61 26.1,-23.49 30.67,-28.79"/>
</g>
<!-- Node3 -->
<g id="node3" class="node">
<title>Node3</title>
<g id="a_node3"><a xlink:href="uout__writer_8hh.html" target="_top" xlink:title="Provide an output class hierarchy which knows about the required format (text or JSON) and write func...">
<polygon fill="none" stroke="black" points="401.5,-112.5 401.5,-131.5 487.5,-131.5 487.5,-112.5 401.5,-112.5"/>
<text text-anchor="middle" x="444.5" y="-119.5" font-family="Helvetica,sans-Serif" font-size="10.00">uout_writer.hh</text>
</a>
</g>
</g>
<!-- Node1&#45;&gt;Node3 -->
<g id="edge2" class="edge">
<title>Node1&#45;&gt;Node3</title>
<path fill="none" stroke="midnightblue" d="M444.5,-168.08C444.5,-161.01 444.5,-150.86 444.5,-141.99"/>
<polygon fill="midnightblue" stroke="midnightblue" points="448,-141.75 444.5,-131.75 441,-141.75 448,-141.75"/>
</g>
<!-- Node4 -->
<g id="node4" class="node">
<title>Node4</title>
<g id="a_node4"><a xlink:href="so__out_8h.html" target="_top" xlink:title="write formatted output to UoutWriter">
<polygon fill="none" stroke="black" points="18.5,-56.5 18.5,-75.5 76.5,-75.5 76.5,-56.5 18.5,-56.5"/>
<text text-anchor="middle" x="47.5" y="-63.5" font-family="Helvetica,sans-Serif" font-size="10.00">so_out.h</text>
</a>
</g>
</g>
<!-- Node1&#45;&gt;Node4 -->
<g id="edge19" class="edge">
<title>Node1&#45;&gt;Node4</title>
<path fill="none" stroke="midnightblue" d="M413.68,-168.46C342.28,-148.68 165.64,-99.73 86.7,-77.86"/>
<polygon fill="midnightblue" stroke="midnightblue" points="87.25,-74.38 76.68,-75.09 85.38,-81.13 87.25,-74.38"/>
</g>
<!-- Node5 -->
<g id="node5" class="node">
<title>Node5</title>
<g id="a_node5"><a xlink:href="uout__builder__json_8hh.html" target="_top" xlink:title="Create JSON output from key/val pairs.">
<polygon fill="none" stroke="black" points="132.5,-56.5 132.5,-75.5 250.5,-75.5 250.5,-56.5 132.5,-56.5"/>
<text text-anchor="middle" x="191.5" y="-63.5" font-family="Helvetica,sans-Serif" font-size="10.00">uout_builder_json.hh</text>
</a>
</g>
</g>
<!-- Node1&#45;&gt;Node5 -->
<g id="edge20" class="edge">
<title>Node1&#45;&gt;Node5</title>
<path fill="none" stroke="midnightblue" d="M424.65,-168.37C380.22,-149.05 272.6,-102.26 220.59,-79.65"/>
<polygon fill="midnightblue" stroke="midnightblue" points="221.83,-76.37 211.26,-75.59 219.04,-82.79 221.83,-76.37"/>
</g>
<!-- Node9 -->
<g id="node9" class="node">
<title>Node9</title>
<g id="a_node9"><a xlink:title=" ">
<polygon fill="none" stroke="#bfbfbf" points="702,-0.5 702,-19.5 755,-19.5 755,-0.5 702,-0.5"/>
<text text-anchor="middle" x="728.5" y="-7.5" font-family="Helvetica,sans-Serif" font-size="10.00">stdint.h</text>
</a>
</g>
</g>
<!-- Node1&#45;&gt;Node9 -->
<g id="edge21" class="edge">
<title>Node1&#45;&gt;Node9</title>
<path fill="none" stroke="midnightblue" d="M492.14,-173.72C597.44,-165.36 844.54,-139.27 893.5,-76 928.78,-30.4 824.17,-16.73 765.44,-12.68"/>
<polygon fill="midnightblue" stroke="midnightblue" points="765.59,-9.18 755.39,-12.05 765.15,-16.17 765.59,-9.18"/>
</g>
<!-- Node11 -->
<g id="node11" class="node">
<title>Node11</title>
<g id="a_node11"><a xlink:title=" ">
<polygon fill="none" stroke="#bfbfbf" points="756.5,-56.5 756.5,-75.5 812.5,-75.5 812.5,-56.5 756.5,-56.5"/>
<text text-anchor="middle" x="784.5" y="-63.5" font-family="Helvetica,sans-Serif" font-size="10.00">unistd.h</text>
</a>
</g>
</g>
<!-- Node1&#45;&gt;Node11 -->
<g id="edge22" class="edge">
<title>Node1&#45;&gt;Node11</title>
<path fill="none" stroke="midnightblue" d="M470.9,-168.46C531.27,-148.93 679.52,-100.96 748.33,-78.7"/>
<polygon fill="midnightblue" stroke="midnightblue" points="749.45,-82.02 757.89,-75.61 747.29,-75.36 749.45,-82.02"/>
</g>
<!-- Node12 -->
<g id="node12" class="node">
<title>Node12</title>
<g id="a_node12"><a xlink:title=" ">
<polygon fill="none" stroke="#bfbfbf" points="831,-56.5 831,-75.5 884,-75.5 884,-56.5 831,-56.5"/>
<text text-anchor="middle" x="857.5" y="-63.5" font-family="Helvetica,sans-Serif" font-size="10.00">string.h</text>
</a>
</g>
</g>
<!-- Node1&#45;&gt;Node12 -->
<g id="edge23" class="edge">
<title>Node1&#45;&gt;Node12</title>
<path fill="none" stroke="midnightblue" d="M481.26,-168.43C518.47,-159.66 577.63,-145.44 628.5,-132 696.85,-113.95 776.11,-91 821.17,-77.76"/>
<polygon fill="midnightblue" stroke="midnightblue" points="822.19,-81.11 830.79,-74.92 820.21,-74.39 822.19,-81.11"/>
</g>
<!-- Node3&#45;&gt;Node2 -->
<g id="edge5" class="edge">
<title>Node3&#45;&gt;Node2</title>
<path fill="none" stroke="midnightblue" d="M401.21,-117.95C325.45,-112.11 172.24,-97.97 123.5,-76 98.66,-64.8 75.71,-42.91 61.67,-27.64"/>
<polygon fill="midnightblue" stroke="midnightblue" points="64.1,-25.09 54.84,-19.95 58.86,-29.74 64.1,-25.09"/>
</g>
<!-- Node3&#45;&gt;Node4 -->
<g id="edge3" class="edge">
<title>Node3&#45;&gt;Node4</title>
<path fill="none" stroke="midnightblue" d="M401.29,-116.63C334.43,-109.62 202,-94.73 90.5,-76 89.23,-75.79 87.94,-75.56 86.64,-75.33"/>
<polygon fill="midnightblue" stroke="midnightblue" points="87.06,-71.85 76.58,-73.42 85.75,-78.72 87.06,-71.85"/>
</g>
<!-- Node3&#45;&gt;Node5 -->
<g id="edge6" class="edge">
<title>Node3&#45;&gt;Node5</title>
<path fill="none" stroke="midnightblue" d="M404.41,-112.44C360.18,-103 288.96,-87.8 241.22,-77.61"/>
<polygon fill="midnightblue" stroke="midnightblue" points="241.91,-74.18 231.4,-75.52 240.45,-81.03 241.91,-74.18"/>
</g>
<!-- Node7 -->
<g id="node7" class="node">
<title>Node7</title>
<g id="a_node7"><a xlink:title=" ">
<polygon fill="none" stroke="#bfbfbf" points="241,-0.5 241,-19.5 306,-19.5 306,-0.5 241,-0.5"/>
<text text-anchor="middle" x="273.5" y="-7.5" font-family="Helvetica,sans-Serif" font-size="10.00">functional</text>
</a>
</g>
</g>
<!-- Node3&#45;&gt;Node7 -->
<g id="edge17" class="edge">
<title>Node3&#45;&gt;Node7</title>
<path fill="none" stroke="midnightblue" d="M401.42,-117.95C369.05,-113.49 325.63,-102.58 297.5,-76 284.68,-63.89 278.67,-44.33 275.88,-29.82"/>
<polygon fill="midnightblue" stroke="midnightblue" points="279.33,-29.25 274.31,-19.93 272.42,-30.35 279.33,-29.25"/>
</g>
<!-- Node8 -->
<g id="node8" class="node">
<title>Node8</title>
<g id="a_node8"><a xlink:href="uout__builder__plaintext_8hh_source.html" target="_top" xlink:title=" ">
<polygon fill="none" stroke="black" points="485,-56.5 485,-75.5 626,-75.5 626,-56.5 485,-56.5"/>
<text text-anchor="middle" x="555.5" y="-63.5" font-family="Helvetica,sans-Serif" font-size="10.00">uout_builder_plaintext.hh</text>
</a>
</g>
</g>
<!-- Node3&#45;&gt;Node8 -->
<g id="edge9" class="edge">
<title>Node3&#45;&gt;Node8</title>
<path fill="none" stroke="midnightblue" d="M462.33,-112.32C480.22,-103.62 507.98,-90.12 528.55,-80.11"/>
<polygon fill="midnightblue" stroke="midnightblue" points="530.25,-83.18 537.71,-75.65 527.19,-76.88 530.25,-83.18"/>
</g>
<!-- Node3&#45;&gt;Node9 -->
<g id="edge12" class="edge">
<title>Node3&#45;&gt;Node9</title>
<path fill="none" stroke="midnightblue" d="M487.71,-119.11C554.23,-115.33 677.39,-104.58 709.5,-76 722.52,-64.41 726.83,-44.46 728.15,-29.7"/>
<polygon fill="midnightblue" stroke="midnightblue" points="731.65,-29.83 728.68,-19.66 724.66,-29.46 731.65,-29.83"/>
</g>
<!-- Node3&#45;&gt;Node11 -->
<g id="edge13" class="edge">
<title>Node3&#45;&gt;Node11</title>
<path fill="none" stroke="midnightblue" d="M487.57,-115.34C545.64,-107.52 652.17,-92.48 742.5,-76 743.74,-75.77 745,-75.54 746.26,-75.3"/>
<polygon fill="midnightblue" stroke="midnightblue" points="746.96,-78.73 756.08,-73.34 745.59,-71.86 746.96,-78.73"/>
</g>
<!-- Node3&#45;&gt;Node12 -->
<g id="edge14" class="edge">
<title>Node3&#45;&gt;Node12</title>
<path fill="none" stroke="midnightblue" d="M487.74,-117.63C556.31,-111.89 694.33,-98.75 820.97,-75.87"/>
<polygon fill="midnightblue" stroke="midnightblue" points="821.64,-79.31 830.85,-74.06 820.38,-72.42 821.64,-79.31"/>
</g>
<!-- Node13 -->
<g id="node13" class="node">
<title>Node13</title>
<g id="a_node13"><a xlink:title=" ">
<polygon fill="none" stroke="#bfbfbf" points="644.5,-56.5 644.5,-75.5 700.5,-75.5 700.5,-56.5 644.5,-56.5"/>
<text text-anchor="middle" x="672.5" y="-63.5" font-family="Helvetica,sans-Serif" font-size="10.00">assert.h</text>
</a>
</g>
</g>
<!-- Node3&#45;&gt;Node13 -->
<g id="edge15" class="edge">
<title>Node3&#45;&gt;Node13</title>
<path fill="none" stroke="midnightblue" d="M480.63,-112.44C522.71,-102.48 591.91,-86.09 634.69,-75.95"/>
<polygon fill="midnightblue" stroke="midnightblue" points="635.52,-79.35 644.45,-73.64 633.91,-72.54 635.52,-79.35"/>
</g>
<!-- Node14 -->
<g id="node14" class="node">
<title>Node14</title>
<g id="a_node14"><a xlink:href="itoa_8h_source.html" target="_top" xlink:title=" ">
<polygon fill="none" stroke="black" points="307,-56.5 307,-75.5 404,-75.5 404,-56.5 307,-56.5"/>
<text text-anchor="middle" x="355.5" y="-63.5" font-family="Helvetica,sans-Serif" font-size="10.00">utils_misc/itoa.h</text>
</a>
</g>
</g>
<!-- Node3&#45;&gt;Node14 -->
<g id="edge16" class="edge">
<title>Node3&#45;&gt;Node14</title>
<path fill="none" stroke="midnightblue" d="M430.2,-112.32C416.32,-103.9 395.01,-90.97 378.7,-81.07"/>
<polygon fill="midnightblue" stroke="midnightblue" points="380.13,-77.85 369.76,-75.65 376.5,-83.83 380.13,-77.85"/>
</g>
<!-- Node15 -->
<g id="node15" class="node">
<title>Node15</title>
<g id="a_node15"><a xlink:title=" ">
<polygon fill="none" stroke="#bfbfbf" points="422,-56.5 422,-75.5 467,-75.5 467,-56.5 422,-56.5"/>
<text text-anchor="middle" x="444.5" y="-63.5" font-family="Helvetica,sans-Serif" font-size="10.00">utility</text>
</a>
</g>
</g>
<!-- Node3&#45;&gt;Node15 -->
<g id="edge18" class="edge">
<title>Node3&#45;&gt;Node15</title>
<path fill="none" stroke="midnightblue" d="M444.5,-112.08C444.5,-105.01 444.5,-94.86 444.5,-85.99"/>
<polygon fill="midnightblue" stroke="midnightblue" points="448,-85.75 444.5,-75.75 441,-85.75 448,-85.75"/>
</g>
<!-- Node4&#45;&gt;Node2 -->
<g id="edge4" class="edge">
<title>Node4&#45;&gt;Node2</title>
<path fill="none" stroke="midnightblue" d="M47.5,-56.08C47.5,-49.01 47.5,-38.86 47.5,-29.99"/>
<polygon fill="midnightblue" stroke="midnightblue" points="51,-29.75 47.5,-19.75 44,-29.75 51,-29.75"/>
</g>
<!-- Node6 -->
<g id="node6" class="node">
<title>Node6</title>
<g id="a_node6"><a xlink:title=" ">
<polygon fill="none" stroke="#bfbfbf" points="165,-0.5 165,-19.5 218,-19.5 218,-0.5 165,-0.5"/>
<text text-anchor="middle" x="191.5" y="-7.5" font-family="Helvetica,sans-Serif" font-size="10.00">stdlib.h</text>
</a>
</g>
</g>
<!-- Node5&#45;&gt;Node6 -->
<g id="edge7" class="edge">
<title>Node5&#45;&gt;Node6</title>
<path fill="none" stroke="midnightblue" d="M191.5,-56.08C191.5,-49.01 191.5,-38.86 191.5,-29.99"/>
<polygon fill="midnightblue" stroke="midnightblue" points="195,-29.75 191.5,-19.75 188,-29.75 195,-29.75"/>
</g>
<!-- Node5&#45;&gt;Node7 -->
<g id="edge8" class="edge">
<title>Node5&#45;&gt;Node7</title>
<path fill="none" stroke="midnightblue" d="M204.67,-56.32C217.35,-47.98 236.73,-35.21 251.71,-25.35"/>
<polygon fill="midnightblue" stroke="midnightblue" points="253.93,-28.08 260.36,-19.65 250.08,-22.23 253.93,-28.08"/>
</g>
<!-- Node8&#45;&gt;Node9 -->
<g id="edge10" class="edge">
<title>Node8&#45;&gt;Node9</title>
<path fill="none" stroke="midnightblue" d="M582.91,-56.44C612.44,-47.23 659.57,-32.52 692.17,-22.34"/>
<polygon fill="midnightblue" stroke="midnightblue" points="693.28,-25.66 701.78,-19.34 691.2,-18.98 693.28,-25.66"/>
</g>
<!-- Node10 -->
<g id="node10" class="node">
<title>Node10</title>
<g id="a_node10"><a xlink:title=" ">
<polygon fill="none" stroke="#bfbfbf" points="524.5,-0.5 524.5,-19.5 586.5,-19.5 586.5,-0.5 524.5,-0.5"/>
<text text-anchor="middle" x="555.5" y="-7.5" font-family="Helvetica,sans-Serif" font-size="10.00">stdbool.h</text>
</a>
</g>
</g>
<!-- Node8&#45;&gt;Node10 -->
<g id="edge11" class="edge">
<title>Node8&#45;&gt;Node10</title>
<path fill="none" stroke="midnightblue" d="M555.5,-56.08C555.5,-49.01 555.5,-38.86 555.5,-29.99"/>
<polygon fill="midnightblue" stroke="midnightblue" points="559,-29.75 555.5,-19.75 552,-29.75 559,-29.75"/>
</g>
</g>
</svg>
