<?xml version="1.0" encoding="UTF-8" standalone="no"?>
<!DOCTYPE svg PUBLIC "-//W3C//DTD SVG 1.1//EN"
 "http://www.w3.org/Graphics/SVG/1.1/DTD/svg11.dtd">
<!-- Generated by graphviz version 2.43.0 (0)
 -->
<!-- Title: uout/uo_callbacks.h Pages: 1 -->
<svg width="932pt" height="252pt"
 viewBox="0.00 0.00 931.50 252.00" xmlns="http://www.w3.org/2000/svg" xmlns:xlink="http://www.w3.org/1999/xlink">
<g id="graph0" class="graph" transform="scale(1 1) rotate(0) translate(4 248)">
<title>uout/uo_callbacks.h</title>
<!-- Node1 -->
<g id="node1" class="node">
<title>Node1</title>
<g id="a_node1"><a xlink:title="pub/sub interface to publish asynchronously to MQTT servers, HTTP&#45;client web&#45;sockets,...">
<polygon fill="#bfbfbf" stroke="black" points="191,-224.5 191,-243.5 304,-243.5 304,-224.5 191,-224.5"/>
<text text-anchor="middle" x="247.5" y="-231.5" font-family="Helvetica,sans-Serif" font-size="10.00">uout/uo_callbacks.h</text>
</a>
</g>
</g>
<!-- Node2 -->
<g id="node2" class="node">
<title>Node2</title>
<g id="a_node2"><a xlink:title=" ">
<polygon fill="none" stroke="#bfbfbf" points="134,-0.5 134,-19.5 187,-19.5 187,-0.5 134,-0.5"/>
<text text-anchor="middle" x="160.5" y="-7.5" font-family="Helvetica,sans-Serif" font-size="10.00">stdint.h</text>
</a>
</g>
</g>
<!-- Node1&#45;&gt;Node2 -->
<g id="edge1" class="edge">
<title>Node1&#45;&gt;Node2</title>
<path fill="none" stroke="midnightblue" d="M215.97,-224.47C160.15,-207.35 46.35,-162.8 9.5,-76 6.03,-67.82 4.19,-63.13 9.5,-56 23.22,-37.59 83.89,-23.97 124.02,-16.78"/>
<polygon fill="midnightblue" stroke="midnightblue" points="124.74,-20.21 134,-15.05 123.54,-13.31 124.74,-20.21"/>
</g>
<!-- Node3 -->
<g id="node3" class="node">
<title>Node3</title>
<g id="a_node3"><a xlink:href="uo__types_8h.html" target="_top" xlink:title="API parameter and return types.">
<polygon fill="none" stroke="black" points="200,-168.5 200,-187.5 295,-187.5 295,-168.5 200,-168.5"/>
<text text-anchor="middle" x="247.5" y="-175.5" font-family="Helvetica,sans-Serif" font-size="10.00">uout/uo_types.h</text>
</a>
</g>
</g>
<!-- Node1&#45;&gt;Node3 -->
<g id="edge2" class="edge">
<title>Node1&#45;&gt;Node3</title>
<path fill="none" stroke="midnightblue" d="M247.5,-224.08C247.5,-217.01 247.5,-206.86 247.5,-197.99"/>
<polygon fill="midnightblue" stroke="midnightblue" points="251,-197.75 247.5,-187.75 244,-197.75 251,-197.75"/>
</g>
<!-- Node17 -->
<g id="node17" class="node">
<title>Node17</title>
<g id="a_node17"><a xlink:title=" ">
<polygon fill="none" stroke="#bfbfbf" points="313,-168.5 313,-187.5 382,-187.5 382,-168.5 313,-168.5"/>
<text text-anchor="middle" x="347.5" y="-175.5" font-family="Helvetica,sans-Serif" font-size="10.00">type_traits</text>
</a>
</g>
</g>
<!-- Node1&#45;&gt;Node17 -->
<g id="edge26" class="edge">
<title>Node1&#45;&gt;Node17</title>
<path fill="none" stroke="midnightblue" d="M263.57,-224.32C279.46,-215.74 304.01,-202.49 322.46,-192.52"/>
<polygon fill="midnightblue" stroke="midnightblue" points="324.34,-195.49 331.47,-187.65 321.01,-189.33 324.34,-195.49"/>
</g>
<!-- Node3&#45;&gt;Node2 -->
<g id="edge23" class="edge">
<title>Node3&#45;&gt;Node2</title>
<path fill="none" stroke="midnightblue" d="M239.99,-168.46C225.75,-151.82 194.7,-113.41 177.5,-76 170.65,-61.1 166.19,-42.95 163.57,-29.63"/>
<polygon fill="midnightblue" stroke="midnightblue" points="167.01,-28.96 161.79,-19.74 160.12,-30.2 167.01,-28.96"/>
</g>
<!-- Node4 -->
<g id="node4" class="node">
<title>Node4</title>
<g id="a_node4"><a xlink:href="so__target__bits_8h.html" target="_top" xlink:title="flags to select output formats and targets">
<polygon fill="none" stroke="black" points="0,-0.5 0,-19.5 95,-19.5 95,-0.5 0,-0.5"/>
<text text-anchor="middle" x="47.5" y="-7.5" font-family="Helvetica,sans-Serif" font-size="10.00">so_target_bits.h</text>
</a>
</g>
</g>
<!-- Node3&#45;&gt;Node4 -->
<g id="edge3" class="edge">
<title>Node3&#45;&gt;Node4</title>
<path fill="none" stroke="midnightblue" d="M199.91,-171.96C162.11,-166.4 108.91,-154.97 67.5,-132 36.17,-114.62 23.5,-108.98 9.5,-76 1.98,-58.3 15.66,-39.47 28.65,-26.66"/>
<polygon fill="midnightblue" stroke="midnightblue" points="31.05,-29.21 36.05,-19.87 26.32,-24.05 31.05,-29.21"/>
</g>
<!-- Node5 -->
<g id="node5" class="node">
<title>Node5</title>
<g id="a_node5"><a xlink:href="uout__writer_8hh.html" target="_top" xlink:title="Provide an output class hierarchy which knows about the required format (text or JSON) and write func...">
<polygon fill="none" stroke="black" points="381.5,-112.5 381.5,-131.5 467.5,-131.5 467.5,-112.5 381.5,-112.5"/>
<text text-anchor="middle" x="424.5" y="-119.5" font-family="Helvetica,sans-Serif" font-size="10.00">uout_writer.hh</text>
</a>
</g>
</g>
<!-- Node3&#45;&gt;Node5 -->
<g id="edge4" class="edge">
<title>Node3&#45;&gt;Node5</title>
<path fill="none" stroke="midnightblue" d="M275.55,-168.44C305.58,-159.28 353.41,-144.69 386.74,-134.52"/>
<polygon fill="midnightblue" stroke="midnightblue" points="388.04,-137.78 396.59,-131.52 386,-131.09 388.04,-137.78"/>
</g>
<!-- Node6 -->
<g id="node6" class="node">
<title>Node6</title>
<g id="a_node6"><a xlink:href="so__out_8h.html" target="_top" xlink:title="write formatted output to UoutWriter">
<polygon fill="none" stroke="black" points="18.5,-56.5 18.5,-75.5 76.5,-75.5 76.5,-56.5 18.5,-56.5"/>
<text text-anchor="middle" x="47.5" y="-63.5" font-family="Helvetica,sans-Serif" font-size="10.00">so_out.h</text>
</a>
</g>
</g>
<!-- Node3&#45;&gt;Node6 -->
<g id="edge21" class="edge">
<title>Node3&#45;&gt;Node6</title>
<path fill="none" stroke="midnightblue" d="M199.72,-172.11C166.46,-166.73 122.51,-155.47 90.5,-132 74.17,-120.02 62.24,-99.83 55.14,-85.13"/>
<polygon fill="midnightblue" stroke="midnightblue" points="58.14,-83.26 50.83,-75.58 51.76,-86.14 58.14,-83.26"/>
</g>
<!-- Node7 -->
<g id="node7" class="node">
<title>Node7</title>
<g id="a_node7"><a xlink:href="uout__builder__json_8hh.html" target="_top" xlink:title="Create JSON output from key/val pairs.">
<polygon fill="none" stroke="black" points="805.5,-56.5 805.5,-75.5 923.5,-75.5 923.5,-56.5 805.5,-56.5"/>
<text text-anchor="middle" x="864.5" y="-63.5" font-family="Helvetica,sans-Serif" font-size="10.00">uout_builder_json.hh</text>
</a>
</g>
</g>
<!-- Node3&#45;&gt;Node7 -->
<g id="edge22" class="edge">
<title>Node3&#45;&gt;Node7</title>
<path fill="none" stroke="midnightblue" d="M295.14,-169.24C297.97,-168.81 300.77,-168.4 303.5,-168 425.92,-150.18 457.73,-153.78 579.5,-132 666.27,-116.48 766.49,-92.1 821.97,-78.03"/>
<polygon fill="midnightblue" stroke="midnightblue" points="822.97,-81.38 831.79,-75.52 821.24,-74.6 822.97,-81.38"/>
</g>
<!-- Node12 -->
<g id="node12" class="node">
<title>Node12</title>
<g id="a_node12"><a xlink:title=" ">
<polygon fill="none" stroke="#bfbfbf" points="659.5,-56.5 659.5,-75.5 715.5,-75.5 715.5,-56.5 659.5,-56.5"/>
<text text-anchor="middle" x="687.5" y="-63.5" font-family="Helvetica,sans-Serif" font-size="10.00">unistd.h</text>
</a>
</g>
</g>
<!-- Node3&#45;&gt;Node12 -->
<g id="edge24" class="edge">
<title>Node3&#45;&gt;Node12</title>
<path fill="none" stroke="midnightblue" d="M295.19,-169.13C341.74,-161.1 414.42,-147.62 476.5,-132 539.52,-116.15 611.6,-92.79 653.11,-78.81"/>
<polygon fill="midnightblue" stroke="midnightblue" points="654.38,-82.08 662.73,-75.56 652.13,-75.45 654.38,-82.08"/>
</g>
<!-- Node13 -->
<g id="node13" class="node">
<title>Node13</title>
<g id="a_node13"><a xlink:title=" ">
<polygon fill="none" stroke="#bfbfbf" points="734,-56.5 734,-75.5 787,-75.5 787,-56.5 734,-56.5"/>
<text text-anchor="middle" x="760.5" y="-63.5" font-family="Helvetica,sans-Serif" font-size="10.00">string.h</text>
</a>
</g>
</g>
<!-- Node3&#45;&gt;Node13 -->
<g id="edge25" class="edge">
<title>Node3&#45;&gt;Node13</title>
<path fill="none" stroke="midnightblue" d="M295.17,-169.33C374.49,-156.56 525.09,-132.31 526.5,-132 597.15,-116.54 678.18,-92.62 723.96,-78.51"/>
<polygon fill="midnightblue" stroke="midnightblue" points="725.2,-81.79 733.72,-75.49 723.13,-75.1 725.2,-81.79"/>
</g>
<!-- Node5&#45;&gt;Node2 -->
<g id="edge14" class="edge">
<title>Node5&#45;&gt;Node2</title>
<path fill="none" stroke="midnightblue" d="M381.19,-116.54C324.3,-109.97 228.24,-96.25 199.5,-76 183.4,-64.65 172.79,-44.36 166.76,-29.45"/>
<polygon fill="midnightblue" stroke="midnightblue" points="169.93,-27.92 163.17,-19.76 163.36,-30.35 169.93,-27.92"/>
</g>
<!-- Node5&#45;&gt;Node4 -->
<g id="edge7" class="edge">
<title>Node5&#45;&gt;Node4</title>
<path fill="none" stroke="midnightblue" d="M381.18,-116.87C331.13,-111.24 246.76,-99.1 177.5,-76 138.02,-62.83 95.45,-39.65 70.16,-24.83"/>
<polygon fill="midnightblue" stroke="midnightblue" points="71.74,-21.69 61.36,-19.59 68.16,-27.71 71.74,-21.69"/>
</g>
<!-- Node5&#45;&gt;Node6 -->
<g id="edge5" class="edge">
<title>Node5&#45;&gt;Node6</title>
<path fill="none" stroke="midnightblue" d="M381.25,-114.81C307.48,-104.24 158.4,-82.89 87.16,-72.68"/>
<polygon fill="midnightblue" stroke="midnightblue" points="87.22,-69.15 76.82,-71.2 86.23,-76.08 87.22,-69.15"/>
</g>
<!-- Node5&#45;&gt;Node7 -->
<g id="edge8" class="edge">
<title>Node5&#45;&gt;Node7</title>
<path fill="none" stroke="midnightblue" d="M467.76,-115.93C535.32,-107.97 670.23,-91.94 795.05,-76.17"/>
<polygon fill="midnightblue" stroke="midnightblue" points="795.69,-79.62 805.17,-74.89 794.81,-72.68 795.69,-79.62"/>
</g>
<!-- Node9 -->
<g id="node9" class="node">
<title>Node9</title>
<g id="a_node9"><a xlink:title=" ">
<polygon fill="none" stroke="#bfbfbf" points="677,-0.5 677,-19.5 742,-19.5 742,-0.5 677,-0.5"/>
<text text-anchor="middle" x="709.5" y="-7.5" font-family="Helvetica,sans-Serif" font-size="10.00">functional</text>
</a>
</g>
</g>
<!-- Node5&#45;&gt;Node9 -->
<g id="edge19" class="edge">
<title>Node5&#45;&gt;Node9</title>
<path fill="none" stroke="midnightblue" d="M467.83,-114.98C506.64,-108.57 564.51,-96.47 611.5,-76 641.55,-62.91 672.46,-40.67 691.33,-25.9"/>
<polygon fill="midnightblue" stroke="midnightblue" points="693.7,-28.49 699.33,-19.52 689.33,-23.02 693.7,-28.49"/>
</g>
<!-- Node10 -->
<g id="node10" class="node">
<title>Node10</title>
<g id="a_node10"><a xlink:href="uout__builder__plaintext_8hh_source.html" target="_top" xlink:title=" ">
<polygon fill="none" stroke="black" points="209,-56.5 209,-75.5 350,-75.5 350,-56.5 209,-56.5"/>
<text text-anchor="middle" x="279.5" y="-63.5" font-family="Helvetica,sans-Serif" font-size="10.00">uout_builder_plaintext.hh</text>
</a>
</g>
</g>
<!-- Node5&#45;&gt;Node10 -->
<g id="edge11" class="edge">
<title>Node5&#45;&gt;Node10</title>
<path fill="none" stroke="midnightblue" d="M401.52,-112.44C377.34,-103.44 339.08,-89.19 311.85,-79.05"/>
<polygon fill="midnightblue" stroke="midnightblue" points="312.96,-75.73 302.37,-75.52 310.52,-82.29 312.96,-75.73"/>
</g>
<!-- Node5&#45;&gt;Node12 -->
<g id="edge15" class="edge">
<title>Node5&#45;&gt;Node12</title>
<path fill="none" stroke="midnightblue" d="M467.31,-112.42C511.85,-103.46 583.6,-88.93 645.5,-76 646.77,-75.73 648.07,-75.46 649.37,-75.19"/>
<polygon fill="midnightblue" stroke="midnightblue" points="650.44,-78.54 659.49,-73.04 648.99,-71.69 650.44,-78.54"/>
</g>
<!-- Node5&#45;&gt;Node13 -->
<g id="edge16" class="edge">
<title>Node5&#45;&gt;Node13</title>
<path fill="none" stroke="midnightblue" d="M467.7,-115.85C524.25,-108.81 626.64,-95.06 723.83,-75.96"/>
<polygon fill="midnightblue" stroke="midnightblue" points="724.7,-79.35 733.83,-73.97 723.34,-72.49 724.7,-79.35"/>
</g>
<!-- Node14 -->
<g id="node14" class="node">
<title>Node14</title>
<g id="a_node14"><a xlink:title=" ">
<polygon fill="none" stroke="#bfbfbf" points="431.5,-56.5 431.5,-75.5 487.5,-75.5 487.5,-56.5 431.5,-56.5"/>
<text text-anchor="middle" x="459.5" y="-63.5" font-family="Helvetica,sans-Serif" font-size="10.00">assert.h</text>
</a>
</g>
</g>
<!-- Node5&#45;&gt;Node14 -->
<g id="edge17" class="edge">
<title>Node5&#45;&gt;Node14</title>
<path fill="none" stroke="midnightblue" d="M430.28,-112.08C435.17,-104.53 442.33,-93.49 448.33,-84.23"/>
<polygon fill="midnightblue" stroke="midnightblue" points="451.33,-86.05 453.83,-75.75 445.45,-82.24 451.33,-86.05"/>
</g>
<!-- Node15 -->
<g id="node15" class="node">
<title>Node15</title>
<g id="a_node15"><a xlink:href="itoa_8h_source.html" target="_top" xlink:title=" ">
<polygon fill="none" stroke="black" points="506,-56.5 506,-75.5 603,-75.5 603,-56.5 506,-56.5"/>
<text text-anchor="middle" x="554.5" y="-63.5" font-family="Helvetica,sans-Serif" font-size="10.00">utils_misc/itoa.h</text>
</a>
</g>
</g>
<!-- Node5&#45;&gt;Node15 -->
<g id="edge18" class="edge">
<title>Node5&#45;&gt;Node15</title>
<path fill="none" stroke="midnightblue" d="M445.1,-112.44C466.49,-103.56 500.18,-89.56 524.52,-79.45"/>
<polygon fill="midnightblue" stroke="midnightblue" points="526.11,-82.58 534,-75.52 523.42,-76.12 526.11,-82.58"/>
</g>
<!-- Node16 -->
<g id="node16" class="node">
<title>Node16</title>
<g id="a_node16"><a xlink:title=" ">
<polygon fill="none" stroke="#bfbfbf" points="368,-56.5 368,-75.5 413,-75.5 413,-56.5 368,-56.5"/>
<text text-anchor="middle" x="390.5" y="-63.5" font-family="Helvetica,sans-Serif" font-size="10.00">utility</text>
</a>
</g>
</g>
<!-- Node5&#45;&gt;Node16 -->
<g id="edge20" class="edge">
<title>Node5&#45;&gt;Node16</title>
<path fill="none" stroke="midnightblue" d="M418.89,-112.08C414.13,-104.53 407.18,-93.49 401.35,-84.23"/>
<polygon fill="midnightblue" stroke="midnightblue" points="404.3,-82.35 396.01,-75.75 398.38,-86.08 404.3,-82.35"/>
</g>
<!-- Node6&#45;&gt;Node4 -->
<g id="edge6" class="edge">
<title>Node6&#45;&gt;Node4</title>
<path fill="none" stroke="midnightblue" d="M47.5,-56.08C47.5,-49.01 47.5,-38.86 47.5,-29.99"/>
<polygon fill="midnightblue" stroke="midnightblue" points="51,-29.75 47.5,-19.75 44,-29.75 51,-29.75"/>
</g>
<!-- Node8 -->
<g id="node8" class="node">
<title>Node8</title>
<g id="a_node8"><a xlink:title=" ">
<polygon fill="none" stroke="#bfbfbf" points="838,-0.5 838,-19.5 891,-19.5 891,-0.5 838,-0.5"/>
<text text-anchor="middle" x="864.5" y="-7.5" font-family="Helvetica,sans-Serif" font-size="10.00">stdlib.h</text>
</a>
</g>
</g>
<!-- Node7&#45;&gt;Node8 -->
<g id="edge9" class="edge">
<title>Node7&#45;&gt;Node8</title>
<path fill="none" stroke="midnightblue" d="M864.5,-56.08C864.5,-49.01 864.5,-38.86 864.5,-29.99"/>
<polygon fill="midnightblue" stroke="midnightblue" points="868,-29.75 864.5,-19.75 861,-29.75 868,-29.75"/>
</g>
<!-- Node7&#45;&gt;Node9 -->
<g id="edge10" class="edge">
<title>Node7&#45;&gt;Node9</title>
<path fill="none" stroke="midnightblue" d="M839.94,-56.44C813.98,-47.4 772.83,-33.06 743.7,-22.92"/>
<polygon fill="midnightblue" stroke="midnightblue" points="744.54,-19.5 733.95,-19.52 742.24,-26.11 744.54,-19.5"/>
</g>
<!-- Node10&#45;&gt;Node2 -->
<g id="edge12" class="edge">
<title>Node10&#45;&gt;Node2</title>
<path fill="none" stroke="midnightblue" d="M260.64,-56.44C241.23,-47.64 210.77,-33.81 188.54,-23.72"/>
<polygon fill="midnightblue" stroke="midnightblue" points="189.82,-20.46 179.27,-19.52 186.93,-26.84 189.82,-20.46"/>
</g>
<!-- Node11 -->
<g id="node11" class="node">
<title>Node11</title>
<g id="a_node11"><a xlink:title=" ">
<polygon fill="none" stroke="#bfbfbf" points="248.5,-0.5 248.5,-19.5 310.5,-19.5 310.5,-0.5 248.5,-0.5"/>
<text text-anchor="middle" x="279.5" y="-7.5" font-family="Helvetica,sans-Serif" font-size="10.00">stdbool.h</text>
</a>
</g>
</g>
<!-- Node10&#45;&gt;Node11 -->
<g id="edge13" class="edge">
<title>Node10&#45;&gt;Node11</title>
<path fill="none" stroke="midnightblue" d="M279.5,-56.08C279.5,-49.01 279.5,-38.86 279.5,-29.99"/>
<polygon fill="midnightblue" stroke="midnightblue" points="283,-29.75 279.5,-19.75 276,-29.75 283,-29.75"/>
</g>
</g>
</svg>
