<?xml version="1.0" encoding="UTF-8" standalone="no"?>
<!DOCTYPE svg PUBLIC "-//W3C//DTD SVG 1.1//EN"
 "http://www.w3.org/Graphics/SVG/1.1/DTD/svg11.dtd">
<!-- Generated by graphviz version 2.43.0 (0)
 -->
<!-- Title: uout/uo_callbacks.h Pages: 1 -->
<svg width="425pt" height="240pt"
 viewBox="0.00 0.00 425.00 240.00" xmlns="http://www.w3.org/2000/svg" xmlns:xlink="http://www.w3.org/1999/xlink">
<g id="graph0" class="graph" transform="scale(1 1) rotate(0) translate(4 236)">
<title>uout/uo_callbacks.h</title>
<!-- Node1 -->
<g id="node1" class="node">
<title>Node1</title>
<g id="a_node1"><a xlink:title="pub/sub interface to publish asynchronously to MQTT servers, HTTP&#45;client web&#45;sockets,...">
<polygon fill="#bfbfbf" stroke="black" points="146.5,-212.5 146.5,-231.5 259.5,-231.5 259.5,-212.5 146.5,-212.5"/>
<text text-anchor="middle" x="203" y="-219.5" font-family="Helvetica,sans-Serif" font-size="10.00">uout/uo_callbacks.h</text>
</a>
</g>
</g>
<!-- Node2 -->
<g id="node2" class="node">
<title>Node2</title>
<g id="a_node2"><a xlink:href="txtio__setup_8hh_source.html" target="_top" xlink:title=" ">
<polygon fill="none" stroke="black" points="0,-134.5 0,-153.5 112,-153.5 112,-134.5 0,-134.5"/>
<text text-anchor="middle" x="56" y="-141.5" font-family="Helvetica,sans-Serif" font-size="10.00">txtio/txtio_setup.hh</text>
</a>
</g>
</g>
<!-- Node1&#45;&gt;Node2 -->
<g id="edge1" class="edge">
<title>Node1&#45;&gt;Node2</title>
<path fill="none" stroke="midnightblue" d="M177.38,-207.75C147.31,-192.21 98.32,-166.88 72.74,-153.66"/>
<polygon fill="midnightblue" stroke="midnightblue" points="175.93,-210.95 186.42,-212.43 179.15,-204.73 175.93,-210.95"/>
</g>
<!-- Node3 -->
<g id="node3" class="node">
<title>Node3</title>
<g id="a_node3"><a xlink:href="tcp__cli__server__setup_8hh.html" target="_top" xlink:title="Create TCP server for interactive and non&#45;interactive CLI clients.">
<polygon fill="none" stroke="black" points="130,-112.5 130,-175.5 276,-175.5 276,-112.5 130,-112.5"/>
<text text-anchor="start" x="138" y="-163.5" font-family="Helvetica,sans-Serif" font-size="10.00">/home/bertw/proj/mcu</text>
<text text-anchor="start" x="138" y="-152.5" font-family="Helvetica,sans-Serif" font-size="10.00">/tronferno&#45;mcu/external</text>
<text text-anchor="start" x="138" y="-141.5" font-family="Helvetica,sans-Serif" font-size="10.00">/mbed&#45;net&#45;lib/components</text>
<text text-anchor="start" x="138" y="-130.5" font-family="Helvetica,sans-Serif" font-size="10.00">/net/include/net/tcp_cli</text>
<text text-anchor="middle" x="203" y="-119.5" font-family="Helvetica,sans-Serif" font-size="10.00">_server_setup.hh</text>
</a>
</g>
</g>
<!-- Node1&#45;&gt;Node3 -->
<g id="edge2" class="edge">
<title>Node1&#45;&gt;Node3</title>
<path fill="none" stroke="midnightblue" d="M203,-202.19C203,-194.16 203,-184.59 203,-175.59"/>
<polygon fill="midnightblue" stroke="midnightblue" points="199.5,-202.28 203,-212.28 206.5,-202.28 199.5,-202.28"/>
</g>
<!-- Node4 -->
<g id="node4" class="node">
<title>Node4</title>
<g id="a_node4"><a xlink:href="fer__uo__publish_8h.html" target="_top" xlink:title="publish fernotron_app state">
<polygon fill="none" stroke="black" points="294.5,-129 294.5,-159 399.5,-159 399.5,-129 294.5,-129"/>
<text text-anchor="start" x="302.5" y="-147" font-family="Helvetica,sans-Serif" font-size="10.00">fernotron_uout/fer</text>
<text text-anchor="middle" x="347" y="-136" font-family="Helvetica,sans-Serif" font-size="10.00">_uo_publish.h</text>
</a>
</g>
</g>
<!-- Node1&#45;&gt;Node4 -->
<g id="edge3" class="edge">
<title>Node1&#45;&gt;Node4</title>
<path fill="none" stroke="midnightblue" d="M228.39,-207.6C254.21,-193.97 294.05,-172.95 320.32,-159.08"/>
<polygon fill="midnightblue" stroke="midnightblue" points="226.45,-204.67 219.24,-212.43 229.72,-210.86 226.45,-204.67"/>
</g>
<!-- Node5 -->
<g id="node5" class="node">
<title>Node5</title>
<g id="a_node5"><a xlink:href="components_2tronferno_2app__uout_2include_2app__uout_2so__msg_8h_source.html" target="_top" xlink:title=" ">
<polygon fill="none" stroke="black" points="291.5,-56.5 291.5,-75.5 402.5,-75.5 402.5,-56.5 291.5,-56.5"/>
<text text-anchor="middle" x="347" y="-63.5" font-family="Helvetica,sans-Serif" font-size="10.00">app_uout/so_msg.h</text>
</a>
</g>
</g>
<!-- Node4&#45;&gt;Node5 -->
<g id="edge4" class="edge">
<title>Node4&#45;&gt;Node5</title>
<path fill="none" stroke="midnightblue" d="M347,-118.67C347,-103.9 347,-85.95 347,-75.56"/>
<polygon fill="midnightblue" stroke="midnightblue" points="343.5,-118.7 347,-128.7 350.5,-118.71 343.5,-118.7"/>
</g>
<!-- Node6 -->
<g id="node6" class="node">
<title>Node6</title>
<g id="a_node6"><a xlink:href="status__output_8h.html" target="_top" xlink:title=" ">
<polygon fill="none" stroke="black" points="277,-0.5 277,-19.5 417,-19.5 417,-0.5 277,-0.5"/>
<text text-anchor="middle" x="347" y="-7.5" font-family="Helvetica,sans-Serif" font-size="10.00">app_uout/status_output.h</text>
</a>
</g>
</g>
<!-- Node5&#45;&gt;Node6 -->
<g id="edge5" class="edge">
<title>Node5&#45;&gt;Node6</title>
<path fill="none" stroke="midnightblue" d="M347,-45.8C347,-36.91 347,-26.78 347,-19.75"/>
<polygon fill="midnightblue" stroke="midnightblue" points="343.5,-46.08 347,-56.08 350.5,-46.08 343.5,-46.08"/>
</g>
</g>
</svg>
