<?xml version="1.0" encoding="UTF-8" standalone="no"?>
<!DOCTYPE svg PUBLIC "-//W3C//DTD SVG 1.1//EN"
 "http://www.w3.org/Graphics/SVG/1.1/DTD/svg11.dtd">
<!-- Generated by graphviz version 2.43.0 (0)
 -->
<!-- Title: uout/uout_writer.hh Pages: 1 -->
<svg width="875pt" height="140pt"
 viewBox="0.00 0.00 874.50 140.00" xmlns="http://www.w3.org/2000/svg" xmlns:xlink="http://www.w3.org/1999/xlink">
<g id="graph0" class="graph" transform="scale(1 1) rotate(0) translate(4 136)">
<title>uout/uout_writer.hh</title>
<!-- Node1 -->
<g id="node1" class="node">
<title>Node1</title>
<g id="a_node1"><a xlink:title="Provide an output class hierarchy which knows about the required format (text or JSON) and write func...">
<polygon fill="#bfbfbf" stroke="black" points="341.5,-112.5 341.5,-131.5 452.5,-131.5 452.5,-112.5 341.5,-112.5"/>
<text text-anchor="middle" x="397" y="-119.5" font-family="Helvetica,sans-Serif" font-size="10.00">uout/uout_writer.hh</text>
</a>
</g>
</g>
<!-- Node2 -->
<g id="node2" class="node">
<title>Node2</title>
<g id="a_node2"><a xlink:href="so__out_8h.html" target="_top" xlink:title="write formatted output to UoutWriter">
<polygon fill="none" stroke="black" points="0,-56.5 0,-75.5 58,-75.5 58,-56.5 0,-56.5"/>
<text text-anchor="middle" x="29" y="-63.5" font-family="Helvetica,sans-Serif" font-size="10.00">so_out.h</text>
</a>
</g>
</g>
<!-- Node1&#45;&gt;Node2 -->
<g id="edge1" class="edge">
<title>Node1&#45;&gt;Node2</title>
<path fill="none" stroke="midnightblue" d="M341.33,-114.47C276.46,-106.59 166.14,-92.35 72,-76 70.73,-75.78 69.44,-75.55 68.14,-75.31"/>
<polygon fill="midnightblue" stroke="midnightblue" points="68.57,-71.83 58.09,-73.37 67.25,-78.7 68.57,-71.83"/>
</g>
<!-- Node3 -->
<g id="node3" class="node">
<title>Node3</title>
<g id="a_node3"><a xlink:href="so__target__bits_8h.html" target="_top" xlink:title="flags to select output formats and targets">
<polygon fill="none" stroke="black" points="7.5,-0.5 7.5,-19.5 102.5,-19.5 102.5,-0.5 7.5,-0.5"/>
<text text-anchor="middle" x="55" y="-7.5" font-family="Helvetica,sans-Serif" font-size="10.00">so_target_bits.h</text>
</a>
</g>
</g>
<!-- Node1&#45;&gt;Node3 -->
<g id="edge3" class="edge">
<title>Node1&#45;&gt;Node3</title>
<path fill="none" stroke="midnightblue" d="M341.28,-117.34C268,-111.7 143.96,-99.04 105,-76 86.3,-64.94 72.13,-43.98 63.73,-28.84"/>
<polygon fill="midnightblue" stroke="midnightblue" points="66.79,-27.14 59.06,-19.9 60.59,-30.38 66.79,-27.14"/>
</g>
<!-- Node4 -->
<g id="node4" class="node">
<title>Node4</title>
<g id="a_node4"><a xlink:href="uout__builder__json_8hh.html" target="_top" xlink:title="Create JSON output from key/val pairs.">
<polygon fill="none" stroke="black" points="114,-56.5 114,-75.5 232,-75.5 232,-56.5 114,-56.5"/>
<text text-anchor="middle" x="173" y="-63.5" font-family="Helvetica,sans-Serif" font-size="10.00">uout_builder_json.hh</text>
</a>
</g>
</g>
<!-- Node1&#45;&gt;Node4 -->
<g id="edge4" class="edge">
<title>Node1&#45;&gt;Node4</title>
<path fill="none" stroke="midnightblue" d="M361.51,-112.44C322.68,-103.08 260.34,-88.06 218.08,-77.87"/>
<polygon fill="midnightblue" stroke="midnightblue" points="218.87,-74.46 208.33,-75.52 217.23,-81.26 218.87,-74.46"/>
</g>
<!-- Node6 -->
<g id="node6" class="node">
<title>Node6</title>
<g id="a_node6"><a xlink:title=" ">
<polygon fill="none" stroke="#bfbfbf" points="214.5,-0.5 214.5,-19.5 279.5,-19.5 279.5,-0.5 214.5,-0.5"/>
<text text-anchor="middle" x="247" y="-7.5" font-family="Helvetica,sans-Serif" font-size="10.00">functional</text>
</a>
</g>
</g>
<!-- Node1&#45;&gt;Node6 -->
<g id="edge15" class="edge">
<title>Node1&#45;&gt;Node6</title>
<path fill="none" stroke="midnightblue" d="M374.93,-112.41C356.13,-104.51 328.93,-91.67 308,-76 289.33,-62.02 271.5,-41.97 259.99,-27.85"/>
<polygon fill="midnightblue" stroke="midnightblue" points="262.66,-25.57 253.69,-19.92 257.18,-29.93 262.66,-25.57"/>
</g>
<!-- Node7 -->
<g id="node7" class="node">
<title>Node7</title>
<g id="a_node7"><a xlink:href="uout__builder__plaintext_8hh_source.html" target="_top" xlink:title=" ">
<polygon fill="none" stroke="black" points="326.5,-56.5 326.5,-75.5 467.5,-75.5 467.5,-56.5 326.5,-56.5"/>
<text text-anchor="middle" x="397" y="-63.5" font-family="Helvetica,sans-Serif" font-size="10.00">uout_builder_plaintext.hh</text>
</a>
</g>
</g>
<!-- Node1&#45;&gt;Node7 -->
<g id="edge7" class="edge">
<title>Node1&#45;&gt;Node7</title>
<path fill="none" stroke="midnightblue" d="M397,-112.08C397,-105.01 397,-94.86 397,-85.99"/>
<polygon fill="midnightblue" stroke="midnightblue" points="400.5,-85.75 397,-75.75 393.5,-85.75 400.5,-85.75"/>
</g>
<!-- Node8 -->
<g id="node8" class="node">
<title>Node8</title>
<g id="a_node8"><a xlink:title=" ">
<polygon fill="none" stroke="#bfbfbf" points="297.5,-0.5 297.5,-19.5 350.5,-19.5 350.5,-0.5 297.5,-0.5"/>
<text text-anchor="middle" x="324" y="-7.5" font-family="Helvetica,sans-Serif" font-size="10.00">stdint.h</text>
</a>
</g>
</g>
<!-- Node1&#45;&gt;Node8 -->
<g id="edge10" class="edge">
<title>Node1&#45;&gt;Node8</title>
<path fill="none" stroke="midnightblue" d="M366.75,-112.49C348.87,-105.73 327.7,-94.29 317,-76 308.77,-61.93 311.98,-43.19 316.38,-29.45"/>
<polygon fill="midnightblue" stroke="midnightblue" points="319.8,-30.28 319.97,-19.68 313.23,-27.86 319.8,-30.28"/>
</g>
<!-- Node10 -->
<g id="node10" class="node">
<title>Node10</title>
<g id="a_node10"><a xlink:title=" ">
<polygon fill="none" stroke="#bfbfbf" points="486,-56.5 486,-75.5 542,-75.5 542,-56.5 486,-56.5"/>
<text text-anchor="middle" x="514" y="-63.5" font-family="Helvetica,sans-Serif" font-size="10.00">unistd.h</text>
</a>
</g>
</g>
<!-- Node1&#45;&gt;Node10 -->
<g id="edge11" class="edge">
<title>Node1&#45;&gt;Node10</title>
<path fill="none" stroke="midnightblue" d="M415.54,-112.44C434.62,-103.64 464.57,-89.81 486.44,-79.72"/>
<polygon fill="midnightblue" stroke="midnightblue" points="487.93,-82.88 495.55,-75.52 485,-76.53 487.93,-82.88"/>
</g>
<!-- Node11 -->
<g id="node11" class="node">
<title>Node11</title>
<g id="a_node11"><a xlink:title=" ">
<polygon fill="none" stroke="#bfbfbf" points="560.5,-56.5 560.5,-75.5 613.5,-75.5 613.5,-56.5 560.5,-56.5"/>
<text text-anchor="middle" x="587" y="-63.5" font-family="Helvetica,sans-Serif" font-size="10.00">string.h</text>
</a>
</g>
</g>
<!-- Node1&#45;&gt;Node11 -->
<g id="edge12" class="edge">
<title>Node1&#45;&gt;Node11</title>
<path fill="none" stroke="midnightblue" d="M427.11,-112.44C460.53,-102.94 514.5,-87.61 550.35,-77.41"/>
<polygon fill="midnightblue" stroke="midnightblue" points="551.74,-80.66 560.41,-74.56 549.83,-73.93 551.74,-80.66"/>
</g>
<!-- Node12 -->
<g id="node12" class="node">
<title>Node12</title>
<g id="a_node12"><a xlink:title=" ">
<polygon fill="none" stroke="#bfbfbf" points="632,-56.5 632,-75.5 688,-75.5 688,-56.5 632,-56.5"/>
<text text-anchor="middle" x="660" y="-63.5" font-family="Helvetica,sans-Serif" font-size="10.00">assert.h</text>
</a>
</g>
</g>
<!-- Node1&#45;&gt;Node12 -->
<g id="edge13" class="edge">
<title>Node1&#45;&gt;Node12</title>
<path fill="none" stroke="midnightblue" d="M443,-112.43C486.61,-104.17 554.18,-91.03 621.78,-76.2"/>
<polygon fill="midnightblue" stroke="midnightblue" points="622.74,-79.57 631.75,-74 621.23,-72.74 622.74,-79.57"/>
</g>
<!-- Node13 -->
<g id="node13" class="node">
<title>Node13</title>
<g id="a_node13"><a xlink:href="itoa_8h_source.html" target="_top" xlink:title=" ">
<polygon fill="none" stroke="black" points="706.5,-56.5 706.5,-75.5 803.5,-75.5 803.5,-56.5 706.5,-56.5"/>
<text text-anchor="middle" x="755" y="-63.5" font-family="Helvetica,sans-Serif" font-size="10.00">utils_misc/itoa.h</text>
</a>
</g>
</g>
<!-- Node1&#45;&gt;Node13 -->
<g id="edge14" class="edge">
<title>Node1&#45;&gt;Node13</title>
<path fill="none" stroke="midnightblue" d="M452.58,-112.75C510.69,-104.1 604.84,-90.04 696.28,-76.1"/>
<polygon fill="midnightblue" stroke="midnightblue" points="696.91,-79.55 706.27,-74.58 695.86,-72.63 696.91,-79.55"/>
</g>
<!-- Node14 -->
<g id="node14" class="node">
<title>Node14</title>
<g id="a_node14"><a xlink:title=" ">
<polygon fill="none" stroke="#bfbfbf" points="821.5,-56.5 821.5,-75.5 866.5,-75.5 866.5,-56.5 821.5,-56.5"/>
<text text-anchor="middle" x="844" y="-63.5" font-family="Helvetica,sans-Serif" font-size="10.00">utility</text>
</a>
</g>
</g>
<!-- Node1&#45;&gt;Node14 -->
<g id="edge16" class="edge">
<title>Node1&#45;&gt;Node14</title>
<path fill="none" stroke="midnightblue" d="M452.64,-118.08C530.92,-113.29 678.03,-101.8 811.44,-76.01"/>
<polygon fill="midnightblue" stroke="midnightblue" points="812.29,-79.41 821.43,-74.05 810.94,-72.54 812.29,-79.41"/>
</g>
<!-- Node2&#45;&gt;Node3 -->
<g id="edge2" class="edge">
<title>Node2&#45;&gt;Node3</title>
<path fill="none" stroke="midnightblue" d="M33.29,-56.08C36.85,-48.69 42.02,-37.95 46.42,-28.81"/>
<polygon fill="midnightblue" stroke="midnightblue" points="49.6,-30.28 50.79,-19.75 43.29,-27.24 49.6,-30.28"/>
</g>
<!-- Node5 -->
<g id="node5" class="node">
<title>Node5</title>
<g id="a_node5"><a xlink:title=" ">
<polygon fill="none" stroke="#bfbfbf" points="143.5,-0.5 143.5,-19.5 196.5,-19.5 196.5,-0.5 143.5,-0.5"/>
<text text-anchor="middle" x="170" y="-7.5" font-family="Helvetica,sans-Serif" font-size="10.00">stdlib.h</text>
</a>
</g>
</g>
<!-- Node4&#45;&gt;Node5 -->
<g id="edge5" class="edge">
<title>Node4&#45;&gt;Node5</title>
<path fill="none" stroke="midnightblue" d="M172.5,-56.08C172.11,-49.01 171.55,-38.86 171.05,-29.99"/>
<polygon fill="midnightblue" stroke="midnightblue" points="174.54,-29.54 170.49,-19.75 167.55,-29.93 174.54,-29.54"/>
</g>
<!-- Node4&#45;&gt;Node6 -->
<g id="edge6" class="edge">
<title>Node4&#45;&gt;Node6</title>
<path fill="none" stroke="midnightblue" d="M184.89,-56.32C196.15,-48.11 213.29,-35.6 226.71,-25.81"/>
<polygon fill="midnightblue" stroke="midnightblue" points="228.88,-28.56 234.89,-19.83 224.75,-22.9 228.88,-28.56"/>
</g>
<!-- Node7&#45;&gt;Node8 -->
<g id="edge8" class="edge">
<title>Node7&#45;&gt;Node8</title>
<path fill="none" stroke="midnightblue" d="M385.27,-56.32C374.16,-48.11 357.26,-35.6 344.02,-25.81"/>
<polygon fill="midnightblue" stroke="midnightblue" points="346.06,-22.97 335.94,-19.83 341.9,-28.59 346.06,-22.97"/>
</g>
<!-- Node9 -->
<g id="node9" class="node">
<title>Node9</title>
<g id="a_node9"><a xlink:title=" ">
<polygon fill="none" stroke="#bfbfbf" points="369,-0.5 369,-19.5 431,-19.5 431,-0.5 369,-0.5"/>
<text text-anchor="middle" x="400" y="-7.5" font-family="Helvetica,sans-Serif" font-size="10.00">stdbool.h</text>
</a>
</g>
</g>
<!-- Node7&#45;&gt;Node9 -->
<g id="edge9" class="edge">
<title>Node7&#45;&gt;Node9</title>
<path fill="none" stroke="midnightblue" d="M397.5,-56.08C397.89,-49.01 398.45,-38.86 398.95,-29.99"/>
<polygon fill="midnightblue" stroke="midnightblue" points="402.45,-29.93 399.51,-19.75 395.46,-29.54 402.45,-29.93"/>
</g>
</g>
</svg>
