<?xml version="1.0" encoding="UTF-8" standalone="no"?>
<!DOCTYPE svg PUBLIC "-//W3C//DTD SVG 1.1//EN"
 "http://www.w3.org/Graphics/SVG/1.1/DTD/svg11.dtd">
<!-- Generated by graphviz version 2.43.0 (0)
 -->
<!-- Title: uout/uout_writer.hh Pages: 1 -->
<svg width="1002pt" height="374pt"
 viewBox="0.00 0.00 1001.50 374.00" xmlns="http://www.w3.org/2000/svg" xmlns:xlink="http://www.w3.org/1999/xlink">
<g id="graph0" class="graph" transform="scale(1 1) rotate(0) translate(4 370)">
<title>uout/uout_writer.hh</title>
<!-- Node1 -->
<g id="node1" class="node">
<title>Node1</title>
<g id="a_node1"><a xlink:title="Provide an output class hierarchy which knows about the required format (text or JSON) and write func...">
<polygon fill="#bfbfbf" stroke="black" points="400,-346.5 400,-365.5 511,-365.5 511,-346.5 400,-346.5"/>
<text text-anchor="middle" x="455.5" y="-353.5" font-family="Helvetica,sans-Serif" font-size="10.00">uout/uout_writer.hh</text>
</a>
</g>
</g>
<!-- Node2 -->
<g id="node2" class="node">
<title>Node2</title>
<g id="a_node2"><a xlink:href="settings_8hh.html" target="_top" xlink:title=" ">
<polygon fill="none" stroke="black" points="156,-290.5 156,-309.5 281,-309.5 281,-290.5 156,-290.5"/>
<text text-anchor="middle" x="218.5" y="-297.5" font-family="Helvetica,sans-Serif" font-size="10.00">config_kvs/settings.hh</text>
</a>
</g>
</g>
<!-- Node1&#45;&gt;Node2 -->
<g id="edge1" class="edge">
<title>Node1&#45;&gt;Node2</title>
<path fill="none" stroke="midnightblue" d="M408.18,-344.22C363.39,-334.01 297.06,-318.9 255.88,-309.52"/>
<polygon fill="midnightblue" stroke="midnightblue" points="407.42,-347.63 417.95,-346.44 408.97,-340.81 407.42,-347.63"/>
</g>
<!-- Node8 -->
<g id="node8" class="node">
<title>Node8</title>
<g id="a_node8"><a xlink:href="uo__types_8h.html" target="_top" xlink:title="API parameter and return types.">
<polygon fill="none" stroke="black" points="592,-290.5 592,-309.5 687,-309.5 687,-290.5 592,-290.5"/>
<text text-anchor="middle" x="639.5" y="-297.5" font-family="Helvetica,sans-Serif" font-size="10.00">uout/uo_types.h</text>
</a>
</g>
</g>
<!-- Node1&#45;&gt;Node8 -->
<g id="edge10" class="edge">
<title>Node1&#45;&gt;Node8</title>
<path fill="none" stroke="midnightblue" d="M494.45,-343.57C529.16,-333.38 579.18,-318.7 610.48,-309.52"/>
<polygon fill="midnightblue" stroke="midnightblue" points="493.27,-340.27 484.66,-346.44 495.24,-346.99 493.27,-340.27"/>
</g>
<!-- Node3 -->
<g id="node3" class="node">
<title>Node3</title>
<g id="a_node3"><a xlink:href="app__register__settings_8hh.html" target="_top" xlink:title="Settings for application components.">
<polygon fill="none" stroke="black" points="0,-0.5 0,-30.5 143,-30.5 143,-0.5 0,-0.5"/>
<text text-anchor="start" x="8" y="-18.5" font-family="Helvetica,sans-Serif" font-size="10.00">app_settings/app_register</text>
<text text-anchor="middle" x="71.5" y="-7.5" font-family="Helvetica,sans-Serif" font-size="10.00">_settings.hh</text>
</a>
</g>
</g>
<!-- Node2&#45;&gt;Node3 -->
<g id="edge2" class="edge">
<title>Node2&#45;&gt;Node3</title>
<path fill="none" stroke="midnightblue" d="M189.76,-286.1C155.65,-268.99 100.5,-235.23 77.5,-187 52.26,-134.06 62.47,-61.02 68.4,-30.64"/>
<polygon fill="midnightblue" stroke="midnightblue" points="188.25,-289.25 198.78,-290.48 191.31,-282.96 188.25,-289.25"/>
</g>
<!-- Node4 -->
<g id="node4" class="node">
<title>Node4</title>
<g id="a_node4"><a xlink:href="settings__template_8hh_source.html" target="_top" xlink:title=" ">
<polygon fill="none" stroke="black" points="163.5,-223.5 163.5,-253.5 273.5,-253.5 273.5,-223.5 163.5,-223.5"/>
<text text-anchor="start" x="171.5" y="-241.5" font-family="Helvetica,sans-Serif" font-size="10.00">config_kvs/settings</text>
<text text-anchor="middle" x="218.5" y="-230.5" font-family="Helvetica,sans-Serif" font-size="10.00">_template.hh</text>
</a>
</g>
</g>
<!-- Node2&#45;&gt;Node4 -->
<g id="edge3" class="edge">
<title>Node2&#45;&gt;Node4</title>
<path fill="none" stroke="midnightblue" d="M218.5,-280.23C218.5,-271.59 218.5,-261.5 218.5,-253.52"/>
<polygon fill="midnightblue" stroke="midnightblue" points="215,-280.48 218.5,-290.48 222,-280.48 215,-280.48"/>
</g>
<!-- Node5 -->
<g id="node5" class="node">
<title>Node5</title>
<g id="a_node5"><a xlink:href="app__settings_8hh.html" target="_top" xlink:title="Settings for application components.">
<polygon fill="none" stroke="black" points="250,-67.5 250,-86.5 409,-86.5 409,-67.5 250,-67.5"/>
<text text-anchor="middle" x="329.5" y="-74.5" font-family="Helvetica,sans-Serif" font-size="10.00">app_settings/app_settings.hh</text>
</a>
</g>
</g>
<!-- Node4&#45;&gt;Node5 -->
<g id="edge4" class="edge">
<title>Node4&#45;&gt;Node5</title>
<path fill="none" stroke="midnightblue" d="M234.8,-214.71C240.81,-206.11 247.6,-196.19 253.5,-187 271.38,-159.17 272.32,-149.95 291.5,-123 300.99,-109.67 313.46,-95.42 321.48,-86.61"/>
<polygon fill="midnightblue" stroke="midnightblue" points="231.79,-212.91 228.88,-223.1 237.51,-216.94 231.79,-212.91"/>
</g>
<!-- Node6 -->
<g id="node6" class="node">
<title>Node6</title>
<g id="a_node6"><a xlink:href="comp__settings_8hh.html" target="_top" xlink:title="Settings for shared components.">
<polygon fill="none" stroke="black" points="86.5,-145.5 86.5,-164.5 244.5,-164.5 244.5,-145.5 86.5,-145.5"/>
<text text-anchor="middle" x="165.5" y="-152.5" font-family="Helvetica,sans-Serif" font-size="10.00">config_kvs/comp_settings.hh</text>
</a>
</g>
</g>
<!-- Node4&#45;&gt;Node6 -->
<g id="edge6" class="edge">
<title>Node4&#45;&gt;Node6</title>
<path fill="none" stroke="midnightblue" d="M203.64,-214.65C192.8,-197.98 178.71,-176.32 171.05,-164.54"/>
<polygon fill="midnightblue" stroke="midnightblue" points="200.88,-216.83 209.27,-223.3 206.75,-213.01 200.88,-216.83"/>
</g>
<!-- Node5&#45;&gt;Node3 -->
<g id="edge5" class="edge">
<title>Node5&#45;&gt;Node3</title>
<path fill="none" stroke="midnightblue" d="M282.53,-65.17C240.38,-55.45 178.24,-41.12 132.31,-30.52"/>
<polygon fill="midnightblue" stroke="midnightblue" points="282,-68.64 292.53,-67.48 283.58,-61.82 282,-68.64"/>
</g>
<!-- Node6&#45;&gt;Node3 -->
<g id="edge7" class="edge">
<title>Node6&#45;&gt;Node3</title>
<path fill="none" stroke="midnightblue" d="M143.43,-139.66C126.54,-127.56 103.92,-108.77 90.5,-87 79.66,-69.41 74.92,-45.64 72.91,-30.69"/>
<polygon fill="midnightblue" stroke="midnightblue" points="141.45,-142.54 151.66,-145.35 145.43,-136.78 141.45,-142.54"/>
</g>
<!-- Node6&#45;&gt;Node5 -->
<g id="edge8" class="edge">
<title>Node6&#45;&gt;Node5</title>
<path fill="none" stroke="midnightblue" d="M193.22,-141.16C226.68,-125.65 282.04,-99.99 310.82,-86.66"/>
<polygon fill="midnightblue" stroke="midnightblue" points="191.6,-138.05 183.99,-145.43 194.54,-144.4 191.6,-138.05"/>
</g>
<!-- Node7 -->
<g id="node7" class="node">
<title>Node7</title>
<g id="a_node7"><a xlink:href="config__kvs_8h.html" target="_top" xlink:title="read settings from kvs storage by cb_type">
<polygon fill="none" stroke="black" points="99.5,-67.5 99.5,-86.5 231.5,-86.5 231.5,-67.5 99.5,-67.5"/>
<text text-anchor="middle" x="165.5" y="-74.5" font-family="Helvetica,sans-Serif" font-size="10.00">config_kvs/config_kvs.h</text>
</a>
</g>
</g>
<!-- Node6&#45;&gt;Node7 -->
<g id="edge9" class="edge">
<title>Node6&#45;&gt;Node7</title>
<path fill="none" stroke="midnightblue" d="M165.5,-135.22C165.5,-119.7 165.5,-98.36 165.5,-86.62"/>
<polygon fill="midnightblue" stroke="midnightblue" points="162,-135.28 165.5,-145.28 169,-135.28 162,-135.28"/>
</g>
<!-- Node9 -->
<g id="node9" class="node">
<title>Node9</title>
<g id="a_node9"><a xlink:href="so__types_8h_source.html" target="_top" xlink:title=" ">
<polygon fill="none" stroke="black" points="841,-145.5 841,-164.5 958,-164.5 958,-145.5 841,-145.5"/>
<text text-anchor="middle" x="899.5" y="-152.5" font-family="Helvetica,sans-Serif" font-size="10.00">app_uout/so_types.h</text>
</a>
</g>
</g>
<!-- Node8&#45;&gt;Node9 -->
<g id="edge11" class="edge">
<title>Node8&#45;&gt;Node9</title>
<path fill="none" stroke="midnightblue" d="M663.99,-285.53C716.77,-256.5 840.03,-188.71 883.77,-164.65"/>
<polygon fill="midnightblue" stroke="midnightblue" points="662.06,-282.6 654.99,-290.48 665.43,-288.73 662.06,-282.6"/>
</g>
<!-- Node11 -->
<g id="node11" class="node">
<title>Node11</title>
<g id="a_node11"><a xlink:href="status__output_8h.html" target="_top" xlink:title=" ">
<polygon fill="none" stroke="black" points="853.5,-6 853.5,-25 993.5,-25 993.5,-6 853.5,-6"/>
<text text-anchor="middle" x="923.5" y="-13" font-family="Helvetica,sans-Serif" font-size="10.00">app_uout/status_output.h</text>
</a>
</g>
</g>
<!-- Node8&#45;&gt;Node11 -->
<g id="edge15" class="edge">
<title>Node8&#45;&gt;Node11</title>
<path fill="none" stroke="midnightblue" d="M697.56,-298.26C774,-293.77 905.9,-273.13 967.5,-187 1005.2,-134.29 950.29,-51.95 930.29,-25.21"/>
<polygon fill="midnightblue" stroke="midnightblue" points="696.96,-294.78 687.15,-298.79 697.32,-301.77 696.96,-294.78"/>
</g>
<!-- Node12 -->
<g id="node12" class="node">
<title>Node12</title>
<g id="a_node12"><a xlink:href="cli_8h.html" target="_top" xlink:title="cli framework">
<polygon fill="none" stroke="black" points="421,-229 421,-248 472,-248 472,-229 421,-229"/>
<text text-anchor="middle" x="446.5" y="-236" font-family="Helvetica,sans-Serif" font-size="10.00">cli/cli.h</text>
</a>
</g>
</g>
<!-- Node8&#45;&gt;Node12 -->
<g id="edge16" class="edge">
<title>Node8&#45;&gt;Node12</title>
<path fill="none" stroke="midnightblue" d="M602.12,-287.48C563.91,-275.7 505.58,-257.71 472.25,-247.44"/>
<polygon fill="midnightblue" stroke="midnightblue" points="601.26,-290.87 611.85,-290.48 603.32,-284.18 601.26,-290.87"/>
</g>
<!-- Node14 -->
<g id="node14" class="node">
<title>Node14</title>
<g id="a_node14"><a xlink:href="uo__callbacks_8h.html" target="_top" xlink:title="pub/sub interface to publish asynchronously to MQTT servers, HTTP&#45;client web&#45;sockets,...">
<polygon fill="none" stroke="black" points="583,-229 583,-248 696,-248 696,-229 583,-229"/>
<text text-anchor="middle" x="639.5" y="-236" font-family="Helvetica,sans-Serif" font-size="10.00">uout/uo_callbacks.h</text>
</a>
</g>
</g>
<!-- Node8&#45;&gt;Node14 -->
<g id="edge18" class="edge">
<title>Node8&#45;&gt;Node14</title>
<path fill="none" stroke="midnightblue" d="M639.5,-280.32C639.5,-269.5 639.5,-256.4 639.5,-248.01"/>
<polygon fill="midnightblue" stroke="midnightblue" points="636,-280.48 639.5,-290.48 643,-280.48 636,-280.48"/>
</g>
<!-- Node10 -->
<g id="node10" class="node">
<title>Node10</title>
<g id="a_node10"><a xlink:href="components_2tronferno_2app__uout_2include_2app__uout_2so__msg_8h_source.html" target="_top" xlink:title=" ">
<polygon fill="none" stroke="black" points="784,-67.5 784,-86.5 895,-86.5 895,-67.5 784,-67.5"/>
<text text-anchor="middle" x="839.5" y="-74.5" font-family="Helvetica,sans-Serif" font-size="10.00">app_uout/so_msg.h</text>
</a>
</g>
</g>
<!-- Node9&#45;&gt;Node10 -->
<g id="edge12" class="edge">
<title>Node9&#45;&gt;Node10</title>
<path fill="none" stroke="midnightblue" d="M886.08,-137.01C873.74,-121.37 855.93,-98.81 846.3,-86.62"/>
<polygon fill="midnightblue" stroke="midnightblue" points="883.67,-139.6 892.62,-145.28 889.17,-135.26 883.67,-139.6"/>
</g>
<!-- Node9&#45;&gt;Node11 -->
<g id="edge14" class="edge">
<title>Node9&#45;&gt;Node11</title>
<path fill="none" stroke="midnightblue" d="M902.75,-135.36C908.01,-105.23 918.18,-46.99 922,-25.1"/>
<polygon fill="midnightblue" stroke="midnightblue" points="899.27,-134.95 901,-145.4 906.17,-136.15 899.27,-134.95"/>
</g>
<!-- Node10&#45;&gt;Node11 -->
<g id="edge13" class="edge">
<title>Node10&#45;&gt;Node11</title>
<path fill="none" stroke="midnightblue" d="M859.81,-61.61C875.97,-50.17 898.02,-34.55 911.49,-25.01"/>
<polygon fill="midnightblue" stroke="midnightblue" points="857.67,-58.84 851.54,-67.48 861.72,-64.55 857.67,-58.84"/>
</g>
<!-- Node13 -->
<g id="node13" class="node">
<title>Node13</title>
<g id="a_node13"><a xlink:href="cli__app_8hh_source.html" target="_top" xlink:title=" ">
<polygon fill="none" stroke="black" points="300.5,-145.5 300.5,-164.5 404.5,-164.5 404.5,-145.5 300.5,-145.5"/>
<text text-anchor="middle" x="352.5" y="-152.5" font-family="Helvetica,sans-Serif" font-size="10.00">app_cli/cli_app.hh</text>
</a>
</g>
</g>
<!-- Node12&#45;&gt;Node13 -->
<g id="edge17" class="edge">
<title>Node12&#45;&gt;Node13</title>
<path fill="none" stroke="midnightblue" d="M428.81,-222.16C409.2,-205.16 378.27,-178.34 362.49,-164.66"/>
<polygon fill="midnightblue" stroke="midnightblue" points="426.59,-224.87 436.44,-228.78 431.18,-219.58 426.59,-224.87"/>
</g>
<!-- Node15 -->
<g id="node15" class="node">
<title>Node15</title>
<g id="a_node15"><a xlink:href="txtio__setup_8hh_source.html" target="_top" xlink:title=" ">
<polygon fill="none" stroke="black" points="710.5,-145.5 710.5,-164.5 822.5,-164.5 822.5,-145.5 710.5,-145.5"/>
<text text-anchor="middle" x="766.5" y="-152.5" font-family="Helvetica,sans-Serif" font-size="10.00">txtio/txtio_setup.hh</text>
</a>
</g>
</g>
<!-- Node14&#45;&gt;Node15 -->
<g id="edge19" class="edge">
<title>Node14&#45;&gt;Node15</title>
<path fill="none" stroke="midnightblue" d="M661.65,-223.28C688.02,-206.37 731.2,-178.65 753.01,-164.66"/>
<polygon fill="midnightblue" stroke="midnightblue" points="659.62,-220.43 653.09,-228.78 663.4,-226.32 659.62,-220.43"/>
</g>
<!-- Node16 -->
<g id="node16" class="node">
<title>Node16</title>
<g id="a_node16"><a xlink:href="tcp__cli__server__setup_8hh.html" target="_top" xlink:title="Create TCP server for interactive and non&#45;interactive CLI clients.">
<polygon fill="none" stroke="black" points="422.5,-123.5 422.5,-186.5 568.5,-186.5 568.5,-123.5 422.5,-123.5"/>
<text text-anchor="start" x="430.5" y="-174.5" font-family="Helvetica,sans-Serif" font-size="10.00">/home/bertw/proj/mcu</text>
<text text-anchor="start" x="430.5" y="-163.5" font-family="Helvetica,sans-Serif" font-size="10.00">/tronferno&#45;mcu/external</text>
<text text-anchor="start" x="430.5" y="-152.5" font-family="Helvetica,sans-Serif" font-size="10.00">/mbed&#45;net&#45;lib/components</text>
<text text-anchor="start" x="430.5" y="-141.5" font-family="Helvetica,sans-Serif" font-size="10.00">/net/include/net/tcp_cli</text>
<text text-anchor="middle" x="495.5" y="-130.5" font-family="Helvetica,sans-Serif" font-size="10.00">_server_setup.hh</text>
</a>
</g>
</g>
<!-- Node14&#45;&gt;Node16 -->
<g id="edge20" class="edge">
<title>Node14&#45;&gt;Node16</title>
<path fill="none" stroke="midnightblue" d="M615.21,-223.75C597.3,-213.61 572.22,-199.42 549.65,-186.65"/>
<polygon fill="midnightblue" stroke="midnightblue" points="613.93,-227.05 624.36,-228.93 617.38,-220.96 613.93,-227.05"/>
</g>
<!-- Node17 -->
<g id="node17" class="node">
<title>Node17</title>
<g id="a_node17"><a xlink:href="fer__uo__publish_8h.html" target="_top" xlink:title="publish fernotron_app state">
<polygon fill="none" stroke="black" points="587,-140 587,-170 692,-170 692,-140 587,-140"/>
<text text-anchor="start" x="595" y="-158" font-family="Helvetica,sans-Serif" font-size="10.00">fernotron_uout/fer</text>
<text text-anchor="middle" x="639.5" y="-147" font-family="Helvetica,sans-Serif" font-size="10.00">_uo_publish.h</text>
</a>
</g>
</g>
<!-- Node14&#45;&gt;Node17 -->
<g id="edge21" class="edge">
<title>Node14&#45;&gt;Node17</title>
<path fill="none" stroke="midnightblue" d="M639.5,-218.73C639.5,-203.91 639.5,-183.55 639.5,-170.1"/>
<polygon fill="midnightblue" stroke="midnightblue" points="636,-218.78 639.5,-228.78 643,-218.78 636,-218.78"/>
</g>
<!-- Node17&#45;&gt;Node10 -->
<g id="edge22" class="edge">
<title>Node17&#45;&gt;Node10</title>
<path fill="none" stroke="midnightblue" d="M674.72,-135.26C683.36,-130.98 692.67,-126.62 701.5,-123 737.64,-108.17 780.6,-94.8 808.88,-86.56"/>
<polygon fill="midnightblue" stroke="midnightblue" points="673,-132.21 665.65,-139.84 676.15,-138.46 673,-132.21"/>
</g>
</g>
</svg>
