<?xml version="1.0" encoding="UTF-8" standalone="no"?>
<!DOCTYPE svg PUBLIC "-//W3C//DTD SVG 1.1//EN"
 "http://www.w3.org/Graphics/SVG/1.1/DTD/svg11.dtd">
<!-- Generated by graphviz version 2.43.0 (0)
 -->
<!-- Title: uout/uout_builder_json.hh Pages: 1 -->
<!--zoomable 430 -->
<svg id="main" version="1.1" xmlns="http://www.w3.org/2000/svg" xmlns:xlink="http://www.w3.org/1999/xlink" xml:space="preserve" onload="init(evt)">
<style type="text/css"><![CDATA[
.edge:hover path { stroke: red; }
.edge:hover polygon { stroke: red; fill: red; }
]]></style>
<script type="text/javascript"><![CDATA[
var edges = document.getElementsByTagName('g');
if (edges && edges.length) {
  for (var i=0;i<edges.length;i++) {
    if (edges[i].id.substr(0,4)=='edge') {
      edges[i].setAttribute('class','edge');
    }
  }
}
]]></script>
        <defs>
                <circle id="rim" cx="0" cy="0" r="7"/>
                <circle id="rim2" cx="0" cy="0" r="3.5"/>
                <g id="zoomPlus">
                        <use xlink:href="#rim" fill="#404040">
                                <set attributeName="fill" to="#808080" begin="zoomplus.mouseover" end="zoomplus.mouseout"/>
                        </use>
                        <path d="M-4,0h8M0,-4v8" fill="none" stroke="white" stroke-width="1.5" pointer-events="none"/>
                </g>
                <g id="zoomMin">
                        <use xlink:href="#rim" fill="#404040">
                                <set attributeName="fill" to="#808080" begin="zoomminus.mouseover" end="zoomminus.mouseout"/>
                        </use>
                        <path d="M-4,0h8" fill="none" stroke="white" stroke-width="1.5" pointer-events="none"/>
                </g>
                <g id="dirArrow">
                        <path fill="none" stroke="white" stroke-width="1.5" d="M0,-3.0v7 M-2.5,-0.5L0,-3.0L2.5,-0.5"/>
                </g>
               <g id="resetDef">
                       <use xlink:href="#rim2" fill="#404040">
                               <set attributeName="fill" to="#808080" begin="reset.mouseover" end="reset.mouseout"/>
                       </use>
               </g>
        </defs>

<script type="text/javascript">
var viewWidth = 1109;
var viewHeight = 430;
var sectionId = 'dynsection-1';
</script>
<script xlink:href="svgpan.js"/>
<svg id="graph" class="graph">
<g id="viewport">
<title>uout/uout_builder_json.hh</title>
<!-- Node1 -->
<g id="node1" class="node">
<title>Node1</title>
<g id="a_node1"><a xlink:title="Create JSON output from key/val pairs.">
<polygon fill="#bfbfbf" stroke="black" points="567.5,-402.5 567.5,-421.5 710.5,-421.5 710.5,-402.5 567.5,-402.5"/>
<text text-anchor="middle" x="639" y="-409.5" font-family="Helvetica,sans-Serif" font-size="10.00">uout/uout_builder_json.hh</text>
</a>
</g>
</g>
<!-- Node2 -->
<g id="node2" class="node">
<title>Node2</title>
<g id="a_node2"><a xlink:href="uo__types_8h.html" target="_top" xlink:title="API parameter and return types.">
<polygon fill="none" stroke="black" points="549.5,-290.5 549.5,-309.5 644.5,-309.5 644.5,-290.5 549.5,-290.5"/>
<text text-anchor="middle" x="597" y="-297.5" font-family="Helvetica,sans-Serif" font-size="10.00">uout/uo_types.h</text>
</a>
</g>
</g>
<!-- Node1&#45;&gt;Node2 -->
<g id="edge1" class="edge">
<title>Node1&#45;&gt;Node2</title>
<path fill="none" stroke="midnightblue" d="M629,-393.35C624.64,-385.19 619.69,-375.27 616,-366 608.18,-346.33 601.96,-322.19 598.96,-309.59"/>
<polygon fill="midnightblue" stroke="midnightblue" points="626.02,-395.19 633.91,-402.26 632.16,-391.82 626.02,-395.19"/>
</g>
<!-- Node12 -->
<g id="node12" class="node">
<title>Node12</title>
<g id="a_node12"><a xlink:href="uout__writer_8hh.html" target="_top" xlink:title="Provide an output class hierarchy which knows about the required format (text or JSON) and write func...">
<polygon fill="none" stroke="black" points="625.5,-346.5 625.5,-365.5 736.5,-365.5 736.5,-346.5 625.5,-346.5"/>
<text text-anchor="middle" x="681" y="-353.5" font-family="Helvetica,sans-Serif" font-size="10.00">uout/uout_writer.hh</text>
</a>
</g>
</g>
<!-- Node1&#45;&gt;Node12 -->
<g id="edge14" class="edge">
<title>Node1&#45;&gt;Node12</title>
<path fill="none" stroke="midnightblue" d="M652.11,-394.14C659.43,-384.74 668.24,-373.4 674.19,-365.75"/>
<polygon fill="midnightblue" stroke="midnightblue" points="649.31,-392.04 645.94,-402.08 654.84,-396.34 649.31,-392.04"/>
</g>
<!-- Node3 -->
<g id="node3" class="node">
<title>Node3</title>
<g id="a_node3"><a xlink:href="so__types_8h_source.html" target="_top" xlink:title=" ">
<polygon fill="none" stroke="black" points="540.5,-145.5 540.5,-164.5 657.5,-164.5 657.5,-145.5 540.5,-145.5"/>
<text text-anchor="middle" x="599" y="-152.5" font-family="Helvetica,sans-Serif" font-size="10.00">app_uout/so_types.h</text>
</a>
</g>
</g>
<!-- Node2&#45;&gt;Node3 -->
<g id="edge2" class="edge">
<title>Node2&#45;&gt;Node3</title>
<path fill="none" stroke="midnightblue" d="M597.26,-280.1C597.7,-248.77 598.56,-187.31 598.88,-164.65"/>
<polygon fill="midnightblue" stroke="midnightblue" points="593.76,-280.43 597.12,-290.48 600.76,-280.53 593.76,-280.43"/>
</g>
<!-- Node5 -->
<g id="node5" class="node">
<title>Node5</title>
<g id="a_node5"><a xlink:href="status__output_8h.html" target="_top" xlink:title=" ">
<polygon fill="none" stroke="black" points="531,-6 531,-25 671,-25 671,-6 531,-6"/>
<text text-anchor="middle" x="601" y="-13" font-family="Helvetica,sans-Serif" font-size="10.00">app_uout/status_output.h</text>
</a>
</g>
</g>
<!-- Node2&#45;&gt;Node5 -->
<g id="edge6" class="edge">
<title>Node2&#45;&gt;Node5</title>
<path fill="none" stroke="midnightblue" d="M611.36,-282.45C628.26,-261.76 655.38,-224.49 666,-187 673.75,-159.63 673.7,-150.38 666,-123 654.63,-82.54 623.16,-42.24 608.59,-25.1"/>
<polygon fill="midnightblue" stroke="midnightblue" points="608.56,-280.34 604.82,-290.25 613.92,-284.84 608.56,-280.34"/>
</g>
<!-- Node6 -->
<g id="node6" class="node">
<title>Node6</title>
<g id="a_node6"><a xlink:href="cli_8h.html" target="_top" xlink:title="cli framework">
<polygon fill="none" stroke="black" points="120.5,-229 120.5,-248 171.5,-248 171.5,-229 120.5,-229"/>
<text text-anchor="middle" x="146" y="-236" font-family="Helvetica,sans-Serif" font-size="10.00">cli/cli.h</text>
</a>
</g>
</g>
<!-- Node2&#45;&gt;Node6 -->
<g id="edge7" class="edge">
<title>Node2&#45;&gt;Node6</title>
<path fill="none" stroke="midnightblue" d="M539.03,-291.35C440.01,-278.29 242.16,-252.19 171.67,-242.89"/>
<polygon fill="midnightblue" stroke="midnightblue" points="538.79,-294.85 549.16,-292.69 539.71,-287.91 538.79,-294.85"/>
</g>
<!-- Node8 -->
<g id="node8" class="node">
<title>Node8</title>
<g id="a_node8"><a xlink:href="uo__callbacks_8h.html" target="_top" xlink:title="pub/sub interface to publish asynchronously to MQTT servers, HTTP&#45;client web&#45;sockets,...">
<polygon fill="none" stroke="black" points="346.5,-229 346.5,-248 459.5,-248 459.5,-229 346.5,-229"/>
<text text-anchor="middle" x="403" y="-236" font-family="Helvetica,sans-Serif" font-size="10.00">uout/uo_callbacks.h</text>
</a>
</g>
</g>
<!-- Node2&#45;&gt;Node8 -->
<g id="edge9" class="edge">
<title>Node2&#45;&gt;Node8</title>
<path fill="none" stroke="midnightblue" d="M559.6,-287.53C521.89,-275.96 464.57,-258.38 430.74,-248.01"/>
<polygon fill="midnightblue" stroke="midnightblue" points="558.62,-290.89 569.2,-290.48 560.67,-284.2 558.62,-290.89"/>
</g>
<!-- Node4 -->
<g id="node4" class="node">
<title>Node4</title>
<g id="a_node4"><a xlink:href="components_2tronferno_2app__uout_2include_2app__uout_2so__msg_8h_source.html" target="_top" xlink:title=" ">
<polygon fill="none" stroke="black" points="461.5,-67.5 461.5,-86.5 572.5,-86.5 572.5,-67.5 461.5,-67.5"/>
<text text-anchor="middle" x="517" y="-74.5" font-family="Helvetica,sans-Serif" font-size="10.00">app_uout/so_msg.h</text>
</a>
</g>
</g>
<!-- Node3&#45;&gt;Node4 -->
<g id="edge3" class="edge">
<title>Node3&#45;&gt;Node4</title>
<path fill="none" stroke="midnightblue" d="M582.06,-138.3C565.17,-122.64 539.83,-99.16 526.3,-86.62"/>
<polygon fill="midnightblue" stroke="midnightblue" points="579.88,-141.05 589.59,-145.28 584.64,-135.92 579.88,-141.05"/>
</g>
<!-- Node3&#45;&gt;Node5 -->
<g id="edge5" class="edge">
<title>Node3&#45;&gt;Node5</title>
<path fill="none" stroke="midnightblue" d="M599.27,-135.36C599.71,-105.23 600.56,-46.99 600.87,-25.1"/>
<polygon fill="midnightblue" stroke="midnightblue" points="595.77,-135.35 599.13,-145.4 602.77,-135.45 595.77,-135.35"/>
</g>
<!-- Node4&#45;&gt;Node5 -->
<g id="edge4" class="edge">
<title>Node4&#45;&gt;Node5</title>
<path fill="none" stroke="midnightblue" d="M537.31,-61.61C553.47,-50.17 575.52,-34.55 588.99,-25.01"/>
<polygon fill="midnightblue" stroke="midnightblue" points="535.17,-58.84 529.04,-67.48 539.22,-64.55 535.17,-58.84"/>
</g>
<!-- Node7 -->
<g id="node7" class="node">
<title>Node7</title>
<g id="a_node7"><a xlink:href="cli__app_8hh_source.html" target="_top" xlink:title=" ">
<polygon fill="none" stroke="black" points="0,-145.5 0,-164.5 104,-164.5 104,-145.5 0,-145.5"/>
<text text-anchor="middle" x="52" y="-152.5" font-family="Helvetica,sans-Serif" font-size="10.00">app_cli/cli_app.hh</text>
</a>
</g>
</g>
<!-- Node6&#45;&gt;Node7 -->
<g id="edge8" class="edge">
<title>Node6&#45;&gt;Node7</title>
<path fill="none" stroke="midnightblue" d="M128.31,-222.16C108.7,-205.16 77.77,-178.34 61.99,-164.66"/>
<polygon fill="midnightblue" stroke="midnightblue" points="126.09,-224.87 135.94,-228.78 130.68,-219.58 126.09,-224.87"/>
</g>
<!-- Node9 -->
<g id="node9" class="node">
<title>Node9</title>
<g id="a_node9"><a xlink:href="txtio__setup_8hh_source.html" target="_top" xlink:title=" ">
<polygon fill="none" stroke="black" points="410,-145.5 410,-164.5 522,-164.5 522,-145.5 410,-145.5"/>
<text text-anchor="middle" x="466" y="-152.5" font-family="Helvetica,sans-Serif" font-size="10.00">txtio/txtio_setup.hh</text>
</a>
</g>
</g>
<!-- Node8&#45;&gt;Node9 -->
<g id="edge10" class="edge">
<title>Node8&#45;&gt;Node9</title>
<path fill="none" stroke="midnightblue" d="M415.93,-220.77C429.1,-203.73 449.01,-177.98 459.31,-164.66"/>
<polygon fill="midnightblue" stroke="midnightblue" points="413.09,-218.73 409.74,-228.78 418.63,-223.01 413.09,-218.73"/>
</g>
<!-- Node10 -->
<g id="node10" class="node">
<title>Node10</title>
<g id="a_node10"><a xlink:href="tcp__cli__server__setup_8hh.html" target="_top" xlink:title="Create TCP server for interactive and non&#45;interactive CLI clients.">
<polygon fill="none" stroke="black" points="122,-123.5 122,-186.5 268,-186.5 268,-123.5 122,-123.5"/>
<text text-anchor="start" x="130" y="-174.5" font-family="Helvetica,sans-Serif" font-size="10.00">/home/bertw/proj/mcu</text>
<text text-anchor="start" x="130" y="-163.5" font-family="Helvetica,sans-Serif" font-size="10.00">/tronferno&#45;mcu/external</text>
<text text-anchor="start" x="130" y="-152.5" font-family="Helvetica,sans-Serif" font-size="10.00">/mbed&#45;net&#45;lib/components</text>
<text text-anchor="start" x="130" y="-141.5" font-family="Helvetica,sans-Serif" font-size="10.00">/net/include/net/tcp_cli</text>
<text text-anchor="middle" x="195" y="-130.5" font-family="Helvetica,sans-Serif" font-size="10.00">_server_setup.hh</text>
</a>
</g>
</g>
<!-- Node8&#45;&gt;Node10 -->
<g id="edge11" class="edge">
<title>Node8&#45;&gt;Node10</title>
<path fill="none" stroke="midnightblue" d="M371.69,-225.23C344.33,-214.51 303.54,-198.53 268.04,-184.62"/>
<polygon fill="midnightblue" stroke="midnightblue" points="370.55,-228.54 381.13,-228.93 373.1,-222.03 370.55,-228.54"/>
</g>
<!-- Node11 -->
<g id="node11" class="node">
<title>Node11</title>
<g id="a_node11"><a xlink:href="fer__uo__publish_8h.html" target="_top" xlink:title="publish fernotron_app state">
<polygon fill="none" stroke="black" points="286.5,-140 286.5,-170 391.5,-170 391.5,-140 286.5,-140"/>
<text text-anchor="start" x="294.5" y="-158" font-family="Helvetica,sans-Serif" font-size="10.00">fernotron_uout/fer</text>
<text text-anchor="middle" x="339" y="-147" font-family="Helvetica,sans-Serif" font-size="10.00">_uo_publish.h</text>
</a>
</g>
</g>
<!-- Node8&#45;&gt;Node11 -->
<g id="edge12" class="edge">
<title>Node8&#45;&gt;Node11</title>
<path fill="none" stroke="midnightblue" d="M389.94,-220.87C378.2,-205.92 361.15,-184.21 350.07,-170.1"/>
<polygon fill="midnightblue" stroke="midnightblue" points="387.22,-223.07 396.15,-228.78 392.73,-218.75 387.22,-223.07"/>
</g>
<!-- Node11&#45;&gt;Node4 -->
<g id="edge13" class="edge">
<title>Node11&#45;&gt;Node4</title>
<path fill="none" stroke="midnightblue" d="M374.84,-135.37C383.35,-131.15 392.43,-126.79 401,-123 432.21,-109.18 469.08,-95.28 492.74,-86.66"/>
<polygon fill="midnightblue" stroke="midnightblue" points="373.26,-132.24 365.9,-139.86 376.41,-138.5 373.26,-132.24"/>
</g>
<!-- Node12&#45;&gt;Node2 -->
<g id="edge24" class="edge">
<title>Node12&#45;&gt;Node2</title>
<path fill="none" stroke="midnightblue" d="M659.07,-340.9C643.66,-331 623.55,-318.07 610.46,-309.65"/>
<polygon fill="midnightblue" stroke="midnightblue" points="657.2,-343.86 667.5,-346.32 660.98,-337.97 657.2,-343.86"/>
</g>
<!-- Node13 -->
<g id="node13" class="node">
<title>Node13</title>
<g id="a_node13"><a xlink:href="settings_8hh.html" target="_top" xlink:title=" ">
<polygon fill="none" stroke="black" points="662.5,-290.5 662.5,-309.5 787.5,-309.5 787.5,-290.5 662.5,-290.5"/>
<text text-anchor="middle" x="725" y="-297.5" font-family="Helvetica,sans-Serif" font-size="10.00">config_kvs/settings.hh</text>
</a>
</g>
</g>
<!-- Node12&#45;&gt;Node13 -->
<g id="edge15" class="edge">
<title>Node12&#45;&gt;Node13</title>
<path fill="none" stroke="midnightblue" d="M694.73,-338.14C702.4,-328.74 711.63,-317.4 717.87,-309.75"/>
<polygon fill="midnightblue" stroke="midnightblue" points="691.87,-336.12 688.27,-346.08 697.3,-340.54 691.87,-336.12"/>
</g>
<!-- Node14 -->
<g id="node14" class="node">
<title>Node14</title>
<g id="a_node14"><a xlink:href="app__register__settings_8hh.html" target="_top" xlink:title="Settings for application components.">
<polygon fill="none" stroke="black" points="691.5,-0.5 691.5,-30.5 834.5,-30.5 834.5,-0.5 691.5,-0.5"/>
<text text-anchor="start" x="699.5" y="-18.5" font-family="Helvetica,sans-Serif" font-size="10.00">app_settings/app_register</text>
<text text-anchor="middle" x="763" y="-7.5" font-family="Helvetica,sans-Serif" font-size="10.00">_settings.hh</text>
</a>
</g>
</g>
<!-- Node13&#45;&gt;Node14 -->
<g id="edge16" class="edge">
<title>Node13&#45;&gt;Node14</title>
<path fill="none" stroke="midnightblue" d="M727.53,-280.23C734.64,-227.32 754.76,-77.79 761.08,-30.81"/>
<polygon fill="midnightblue" stroke="midnightblue" points="724.04,-279.86 726.18,-290.24 730.98,-280.79 724.04,-279.86"/>
</g>
<!-- Node15 -->
<g id="node15" class="node">
<title>Node15</title>
<g id="a_node15"><a xlink:href="settings__template_8hh_source.html" target="_top" xlink:title=" ">
<polygon fill="none" stroke="black" points="802,-223.5 802,-253.5 912,-253.5 912,-223.5 802,-223.5"/>
<text text-anchor="start" x="810" y="-241.5" font-family="Helvetica,sans-Serif" font-size="10.00">config_kvs/settings</text>
<text text-anchor="middle" x="857" y="-230.5" font-family="Helvetica,sans-Serif" font-size="10.00">_template.hh</text>
</a>
</g>
</g>
<!-- Node13&#45;&gt;Node15 -->
<g id="edge17" class="edge">
<title>Node13&#45;&gt;Node15</title>
<path fill="none" stroke="midnightblue" d="M753.11,-286.33C774.46,-276.7 803.83,-263.47 825.89,-253.52"/>
<polygon fill="midnightblue" stroke="midnightblue" points="751.59,-283.17 743.91,-290.48 754.47,-289.56 751.59,-283.17"/>
</g>
<!-- Node16 -->
<g id="node16" class="node">
<title>Node16</title>
<g id="a_node16"><a xlink:href="app__settings_8hh.html" target="_top" xlink:title="Settings for application components.">
<polygon fill="none" stroke="black" points="941.5,-67.5 941.5,-86.5 1100.5,-86.5 1100.5,-67.5 941.5,-67.5"/>
<text text-anchor="middle" x="1021" y="-74.5" font-family="Helvetica,sans-Serif" font-size="10.00">app_settings/app_settings.hh</text>
</a>
</g>
</g>
<!-- Node15&#45;&gt;Node16 -->
<g id="edge18" class="edge">
<title>Node15&#45;&gt;Node16</title>
<path fill="none" stroke="midnightblue" d="M897.98,-218.83C913.72,-210.47 931.21,-199.63 945,-187 979.2,-155.68 1006.55,-106.35 1016.72,-86.6"/>
<polygon fill="midnightblue" stroke="midnightblue" points="896.25,-215.78 888.95,-223.46 899.44,-222.01 896.25,-215.78"/>
</g>
<!-- Node17 -->
<g id="node17" class="node">
<title>Node17</title>
<g id="a_node17"><a xlink:href="comp__settings_8hh.html" target="_top" xlink:title="Settings for shared components.">
<polygon fill="none" stroke="black" points="778,-145.5 778,-164.5 936,-164.5 936,-145.5 778,-145.5"/>
<text text-anchor="middle" x="857" y="-152.5" font-family="Helvetica,sans-Serif" font-size="10.00">config_kvs/comp_settings.hh</text>
</a>
</g>
</g>
<!-- Node15&#45;&gt;Node17 -->
<g id="edge20" class="edge">
<title>Node15&#45;&gt;Node17</title>
<path fill="none" stroke="midnightblue" d="M857,-213.25C857,-196.78 857,-175.99 857,-164.54"/>
<polygon fill="midnightblue" stroke="midnightblue" points="853.5,-213.3 857,-223.3 860.5,-213.3 853.5,-213.3"/>
</g>
<!-- Node16&#45;&gt;Node14 -->
<g id="edge19" class="edge">
<title>Node16&#45;&gt;Node14</title>
<path fill="none" stroke="midnightblue" d="M974.03,-65.17C931.88,-55.45 869.74,-41.12 823.81,-30.52"/>
<polygon fill="midnightblue" stroke="midnightblue" points="973.5,-68.64 984.03,-67.48 975.08,-61.82 973.5,-68.64"/>
</g>
<!-- Node17&#45;&gt;Node14 -->
<g id="edge21" class="edge">
<title>Node17&#45;&gt;Node14</title>
<path fill="none" stroke="midnightblue" d="M834.93,-139.66C818.04,-127.56 795.42,-108.77 782,-87 771.16,-69.41 766.42,-45.64 764.41,-30.69"/>
<polygon fill="midnightblue" stroke="midnightblue" points="832.95,-142.54 843.16,-145.35 836.93,-136.78 832.95,-142.54"/>
</g>
<!-- Node17&#45;&gt;Node16 -->
<g id="edge22" class="edge">
<title>Node17&#45;&gt;Node16</title>
<path fill="none" stroke="midnightblue" d="M884.72,-141.16C918.18,-125.65 973.54,-99.99 1002.32,-86.66"/>
<polygon fill="midnightblue" stroke="midnightblue" points="883.1,-138.05 875.49,-145.43 886.04,-144.4 883.1,-138.05"/>
</g>
<!-- Node18 -->
<g id="node18" class="node">
<title>Node18</title>
<g id="a_node18"><a xlink:href="config__kvs_8h.html" target="_top" xlink:title="read settings from kvs storage by cb_type">
<polygon fill="none" stroke="black" points="791,-67.5 791,-86.5 923,-86.5 923,-67.5 791,-67.5"/>
<text text-anchor="middle" x="857" y="-74.5" font-family="Helvetica,sans-Serif" font-size="10.00">config_kvs/config_kvs.h</text>
</a>
</g>
</g>
<!-- Node17&#45;&gt;Node18 -->
<g id="edge23" class="edge">
<title>Node17&#45;&gt;Node18</title>
<path fill="none" stroke="midnightblue" d="M857,-135.22C857,-119.7 857,-98.36 857,-86.62"/>
<polygon fill="midnightblue" stroke="midnightblue" points="853.5,-135.28 857,-145.28 860.5,-135.28 853.5,-135.28"/>
</g>
</g>
</svg>
        <g id="navigator" transform="translate(0 0)" fill="#404254">
                <rect fill="#f2f5e9" fill-opacity="0.5" stroke="#606060" stroke-width=".5" x="0" y="0" width="60" height="60"/>
                <use id="zoomplus" xlink:href="#zoomPlus" x="17" y="9" onmousedown="handleZoom(evt,'in')"/>
                <use id="zoomminus" xlink:href="#zoomMin" x="42" y="9" onmousedown="handleZoom(evt,'out')"/>
                <use id="reset" xlink:href="#resetDef" x="30" y="36" onmousedown="handleReset()"/>
                <g id="arrowUp" xlink:href="#dirArrow" transform="translate(30 24)" onmousedown="handlePan(0,-1)">
                  <use xlink:href="#rim" fill="#404040">
                        <set attributeName="fill" to="#808080" begin="arrowUp.mouseover" end="arrowUp.mouseout"/>
                  </use>
                  <path fill="none" stroke="white" stroke-width="1.5" d="M0,-3.0v7 M-2.5,-0.5L0,-3.0L2.5,-0.5"/>
                </g>
                <g id="arrowRight" xlink:href="#dirArrow" transform="rotate(90) translate(36 -43)" onmousedown="handlePan(1,0)">
                  <use xlink:href="#rim" fill="#404040">
                        <set attributeName="fill" to="#808080" begin="arrowRight.mouseover" end="arrowRight.mouseout"/>
                  </use>
                  <path fill="none" stroke="white" stroke-width="1.5" d="M0,-3.0v7 M-2.5,-0.5L0,-3.0L2.5,-0.5"/>
                </g>
                <g id="arrowDown" xlink:href="#dirArrow" transform="rotate(180) translate(-30 -48)" onmousedown="handlePan(0,1)">
                  <use xlink:href="#rim" fill="#404040">
                        <set attributeName="fill" to="#808080" begin="arrowDown.mouseover" end="arrowDown.mouseout"/>
                  </use>
                  <path fill="none" stroke="white" stroke-width="1.5" d="M0,-3.0v7 M-2.5,-0.5L0,-3.0L2.5,-0.5"/>
                </g>
                <g id="arrowLeft" xlink:href="#dirArrow" transform="rotate(270) translate(-36 17)" onmousedown="handlePan(-1,0)">
                  <use xlink:href="#rim" fill="#404040">
                        <set attributeName="fill" to="#808080" begin="arrowLeft.mouseover" end="arrowLeft.mouseout"/>
                  </use>
                  <path fill="none" stroke="white" stroke-width="1.5" d="M0,-3.0v7 M-2.5,-0.5L0,-3.0L2.5,-0.5"/>
                </g>
        </g>
        <svg viewBox="0 0 15 15" width="100%" height="30px" preserveAspectRatio="xMaxYMin meet">
         <g id="arrow_out" transform="scale(0.3 0.3)">
          <a xlink:href="uout__builder__json_8hh__dep__incl_org.svg" target="_base">
           <rect id="button" ry="5" rx="5" y="6" x="6" height="38" width="38"
                fill="#f2f5e9" fill-opacity="0.5" stroke="#606060" stroke-width="1.0"/>
           <path id="arrow"
             d="M 11.500037,31.436501 C 11.940474,20.09759 22.043105,11.32322 32.158766,21.979434 L 37.068811,17.246167 C 37.068811,17.246167 37.088388,32 37.088388,32 L 22.160133,31.978069 C 22.160133,31.978069 26.997745,27.140456 26.997745,27.140456 C 18.528582,18.264221 13.291696,25.230495 11.500037,31.436501 z"
             style="fill:#404040;"/>
          </a>
         </g>
        </svg>
</svg>
