<?xml version="1.0" encoding="UTF-8" standalone="no"?>
<!DOCTYPE svg PUBLIC "-//W3C//DTD SVG 1.1//EN"
 "http://www.w3.org/Graphics/SVG/1.1/DTD/svg11.dtd">
<!-- Generated by graphviz version 2.43.0 (0)
 -->
<!-- Title: /home/bertw/proj/mcu/tronferno&#45;mcu/external/components&#45;misc/components/weather/include/weather/weather_data.hh Pages: 1 -->
<svg width="607pt" height="361pt"
 viewBox="0.00 0.00 607.00 361.00" xmlns="http://www.w3.org/2000/svg" xmlns:xlink="http://www.w3.org/1999/xlink">
<g id="graph0" class="graph" transform="scale(1 1) rotate(0) translate(4 357)">
<title>/home/bertw/proj/mcu/tronferno&#45;mcu/external/components&#45;misc/components/weather/include/weather/weather_data.hh</title>
<!-- Node1 -->
<g id="node1" class="node">
<title>Node1</title>
<g id="a_node1"><a xlink:title="weather data like temperature, humidity, ...">
<polygon fill="#bfbfbf" stroke="black" points="90,-300.5 90,-352.5 315,-352.5 315,-300.5 90,-300.5"/>
<text text-anchor="start" x="98" y="-340.5" font-family="Helvetica,sans-Serif" font-size="10.00">/home/bertw/proj/mcu</text>
<text text-anchor="start" x="98" y="-329.5" font-family="Helvetica,sans-Serif" font-size="10.00">/tronferno&#45;mcu/external</text>
<text text-anchor="start" x="98" y="-318.5" font-family="Helvetica,sans-Serif" font-size="10.00">/components&#45;misc/components</text>
<text text-anchor="middle" x="202.5" y="-307.5" font-family="Helvetica,sans-Serif" font-size="10.00">/weather/include/weather/weather_data.hh</text>
</a>
</g>
</g>
<!-- Node2 -->
<g id="node2" class="node">
<title>Node2</title>
<g id="a_node2"><a xlink:href="weather_8hh.html" target="_top" xlink:title="create and maintain weather data archive of last seven days">
<polygon fill="none" stroke="black" points="0,-106 0,-158 197,-158 197,-106 0,-106"/>
<text text-anchor="start" x="8" y="-146" font-family="Helvetica,sans-Serif" font-size="10.00">/home/bertw/proj/mcu</text>
<text text-anchor="start" x="8" y="-135" font-family="Helvetica,sans-Serif" font-size="10.00">/tronferno&#45;mcu/external</text>
<text text-anchor="start" x="8" y="-124" font-family="Helvetica,sans-Serif" font-size="10.00">/components&#45;misc/components</text>
<text text-anchor="middle" x="98.5" y="-113" font-family="Helvetica,sans-Serif" font-size="10.00">/weather/include/weather/weather.hh</text>
</a>
</g>
</g>
<!-- Node1&#45;&gt;Node2 -->
<g id="edge1" class="edge">
<title>Node1&#45;&gt;Node2</title>
<path fill="none" stroke="midnightblue" d="M183.94,-291.14C163.3,-252.95 130.48,-192.19 112.1,-158.17"/>
<polygon fill="midnightblue" stroke="midnightblue" points="181.07,-293.2 188.9,-300.33 187.23,-289.87 181.07,-293.2"/>
</g>
<!-- Node4 -->
<g id="node4" class="node">
<title>Node4</title>
<g id="a_node4"><a xlink:href="weather__provider_8hh.html" target="_top" xlink:title="Interface for weather data provider.">
<polygon fill="none" stroke="black" points="193,-200.5 193,-263.5 376,-263.5 376,-200.5 193,-200.5"/>
<text text-anchor="start" x="201" y="-251.5" font-family="Helvetica,sans-Serif" font-size="10.00">/home/bertw/proj/mcu</text>
<text text-anchor="start" x="201" y="-240.5" font-family="Helvetica,sans-Serif" font-size="10.00">/tronferno&#45;mcu/external</text>
<text text-anchor="start" x="201" y="-229.5" font-family="Helvetica,sans-Serif" font-size="10.00">/components&#45;misc/components</text>
<text text-anchor="start" x="201" y="-218.5" font-family="Helvetica,sans-Serif" font-size="10.00">/weather/include/weather/weather</text>
<text text-anchor="middle" x="284.5" y="-207.5" font-family="Helvetica,sans-Serif" font-size="10.00">_provider.hh</text>
</a>
</g>
</g>
<!-- Node1&#45;&gt;Node4 -->
<g id="edge3" class="edge">
<title>Node1&#45;&gt;Node4</title>
<path fill="none" stroke="midnightblue" d="M231.74,-292.51C240.12,-283.06 249.21,-272.81 257.45,-263.51"/>
<polygon fill="midnightblue" stroke="midnightblue" points="228.92,-290.42 224.91,-300.22 234.16,-295.06 228.92,-290.42"/>
</g>
<!-- Node3 -->
<g id="node3" class="node">
<title>Node3</title>
<g id="a_node3"><a xlink:href="weather__irrigation_8hh.html" target="_top" xlink:title="calculations about when to irrigate based on weather data">
<polygon fill="none" stroke="black" points="7,-0.5 7,-63.5 190,-63.5 190,-0.5 7,-0.5"/>
<text text-anchor="start" x="15" y="-51.5" font-family="Helvetica,sans-Serif" font-size="10.00">/home/bertw/proj/mcu</text>
<text text-anchor="start" x="15" y="-40.5" font-family="Helvetica,sans-Serif" font-size="10.00">/tronferno&#45;mcu/external</text>
<text text-anchor="start" x="15" y="-29.5" font-family="Helvetica,sans-Serif" font-size="10.00">/components&#45;misc/components</text>
<text text-anchor="start" x="15" y="-18.5" font-family="Helvetica,sans-Serif" font-size="10.00">/weather/include/weather/weather</text>
<text text-anchor="middle" x="98.5" y="-7.5" font-family="Helvetica,sans-Serif" font-size="10.00">_irrigation.hh</text>
</a>
</g>
</g>
<!-- Node2&#45;&gt;Node3 -->
<g id="edge2" class="edge">
<title>Node2&#45;&gt;Node3</title>
<path fill="none" stroke="midnightblue" d="M98.5,-95.69C98.5,-85.24 98.5,-73.89 98.5,-63.75"/>
<polygon fill="midnightblue" stroke="midnightblue" points="95,-95.76 98.5,-105.76 102,-95.76 95,-95.76"/>
</g>
<!-- Node4&#45;&gt;Node2 -->
<g id="edge4" class="edge">
<title>Node4&#45;&gt;Node2</title>
<path fill="none" stroke="midnightblue" d="M217.5,-195.7C193.9,-183.26 167.86,-169.55 146.18,-158.12"/>
<polygon fill="midnightblue" stroke="midnightblue" points="215.93,-198.83 226.41,-200.4 219.2,-192.64 215.93,-198.83"/>
</g>
<!-- Node5 -->
<g id="node5" class="node">
<title>Node5</title>
<g id="a_node5"><a xlink:href="weather__provider__owm_8hh.html" target="_top" xlink:title="get weather data from api.openweathermap.org">
<polygon fill="none" stroke="black" points="215,-100.5 215,-163.5 398,-163.5 398,-100.5 215,-100.5"/>
<text text-anchor="start" x="223" y="-151.5" font-family="Helvetica,sans-Serif" font-size="10.00">/home/bertw/proj/mcu</text>
<text text-anchor="start" x="223" y="-140.5" font-family="Helvetica,sans-Serif" font-size="10.00">/tronferno&#45;mcu/external</text>
<text text-anchor="start" x="223" y="-129.5" font-family="Helvetica,sans-Serif" font-size="10.00">/components&#45;misc/components</text>
<text text-anchor="start" x="223" y="-118.5" font-family="Helvetica,sans-Serif" font-size="10.00">/weather/include/weather/weather</text>
<text text-anchor="middle" x="306.5" y="-107.5" font-family="Helvetica,sans-Serif" font-size="10.00">_provider_owm.hh</text>
</a>
</g>
</g>
<!-- Node4&#45;&gt;Node5 -->
<g id="edge5" class="edge">
<title>Node4&#45;&gt;Node5</title>
<path fill="none" stroke="midnightblue" d="M293.62,-190.39C295.63,-181.44 297.72,-172.11 299.62,-163.63"/>
<polygon fill="midnightblue" stroke="midnightblue" points="290.18,-189.74 291.4,-200.26 297.01,-191.27 290.18,-189.74"/>
</g>
<!-- Node6 -->
<g id="node6" class="node">
<title>Node6</title>
<g id="a_node6"><a xlink:href="weather__provider__random_8hh.html" target="_top" xlink:title="provide random mock weather data for testing purposes">
<polygon fill="none" stroke="black" points="416,-100.5 416,-163.5 599,-163.5 599,-100.5 416,-100.5"/>
<text text-anchor="start" x="424" y="-151.5" font-family="Helvetica,sans-Serif" font-size="10.00">/home/bertw/proj/mcu</text>
<text text-anchor="start" x="424" y="-140.5" font-family="Helvetica,sans-Serif" font-size="10.00">/tronferno&#45;mcu/external</text>
<text text-anchor="start" x="424" y="-129.5" font-family="Helvetica,sans-Serif" font-size="10.00">/components&#45;misc/components</text>
<text text-anchor="start" x="424" y="-118.5" font-family="Helvetica,sans-Serif" font-size="10.00">/weather/include/weather/weather</text>
<text text-anchor="middle" x="507.5" y="-107.5" font-family="Helvetica,sans-Serif" font-size="10.00">_provider_random.hh</text>
</a>
</g>
</g>
<!-- Node4&#45;&gt;Node6 -->
<g id="edge6" class="edge">
<title>Node4&#45;&gt;Node6</title>
<path fill="none" stroke="midnightblue" d="M363.35,-196.35C387.7,-185.65 414.33,-173.94 438,-163.54"/>
<polygon fill="midnightblue" stroke="midnightblue" points="361.89,-193.17 354.14,-200.4 364.7,-199.58 361.89,-193.17"/>
</g>
</g>
</svg>
