<?xml version="1.0" encoding="UTF-8" standalone="no"?>
<!DOCTYPE svg PUBLIC "-//W3C//DTD SVG 1.1//EN"
 "http://www.w3.org/Graphics/SVG/1.1/DTD/svg11.dtd">
<!-- Generated by graphviz version 2.43.0 (0)
 -->
<!-- Title: /home/bertw/proj/mcu/tronferno&#45;mcu/external/components&#45;misc/components/weather/include/weather/weather_provider.hh Pages: 1 -->
<svg width="607pt" height="272pt"
 viewBox="0.00 0.00 607.00 272.00" xmlns="http://www.w3.org/2000/svg" xmlns:xlink="http://www.w3.org/1999/xlink">
<g id="graph0" class="graph" transform="scale(1 1) rotate(0) translate(4 268)">
<title>/home/bertw/proj/mcu/tronferno&#45;mcu/external/components&#45;misc/components/weather/include/weather/weather_provider.hh</title>
<!-- Node1 -->
<g id="node1" class="node">
<title>Node1</title>
<g id="a_node1"><a xlink:title="Interface for weather data provider.">
<polygon fill="#bfbfbf" stroke="black" points="215,-200.5 215,-263.5 398,-263.5 398,-200.5 215,-200.5"/>
<text text-anchor="start" x="223" y="-251.5" font-family="Helvetica,sans-Serif" font-size="10.00">/home/bertw/proj/mcu</text>
<text text-anchor="start" x="223" y="-240.5" font-family="Helvetica,sans-Serif" font-size="10.00">/tronferno&#45;mcu/external</text>
<text text-anchor="start" x="223" y="-229.5" font-family="Helvetica,sans-Serif" font-size="10.00">/components&#45;misc/components</text>
<text text-anchor="start" x="223" y="-218.5" font-family="Helvetica,sans-Serif" font-size="10.00">/weather/include/weather/weather</text>
<text text-anchor="middle" x="306.5" y="-207.5" font-family="Helvetica,sans-Serif" font-size="10.00">_provider.hh</text>
</a>
</g>
</g>
<!-- Node2 -->
<g id="node2" class="node">
<title>Node2</title>
<g id="a_node2"><a xlink:href="weather_8hh.html" target="_top" xlink:title="create and maintain weather data archive of last seven days">
<polygon fill="none" stroke="black" points="0,-106 0,-158 197,-158 197,-106 0,-106"/>
<text text-anchor="start" x="8" y="-146" font-family="Helvetica,sans-Serif" font-size="10.00">/home/bertw/proj/mcu</text>
<text text-anchor="start" x="8" y="-135" font-family="Helvetica,sans-Serif" font-size="10.00">/tronferno&#45;mcu/external</text>
<text text-anchor="start" x="8" y="-124" font-family="Helvetica,sans-Serif" font-size="10.00">/components&#45;misc/components</text>
<text text-anchor="middle" x="98.5" y="-113" font-family="Helvetica,sans-Serif" font-size="10.00">/weather/include/weather/weather.hh</text>
</a>
</g>
</g>
<!-- Node1&#45;&gt;Node2 -->
<g id="edge1" class="edge">
<title>Node1&#45;&gt;Node2</title>
<path fill="none" stroke="midnightblue" d="M232.27,-196.03C205.69,-183.5 176.28,-169.65 151.82,-158.12"/>
<polygon fill="midnightblue" stroke="midnightblue" points="231.01,-199.3 241.54,-200.4 233.99,-192.97 231.01,-199.3"/>
</g>
<!-- Node4 -->
<g id="node4" class="node">
<title>Node4</title>
<g id="a_node4"><a xlink:href="weather__provider__owm_8hh.html" target="_top" xlink:title="get weather data from api.openweathermap.org">
<polygon fill="none" stroke="black" points="215,-100.5 215,-163.5 398,-163.5 398,-100.5 215,-100.5"/>
<text text-anchor="start" x="223" y="-151.5" font-family="Helvetica,sans-Serif" font-size="10.00">/home/bertw/proj/mcu</text>
<text text-anchor="start" x="223" y="-140.5" font-family="Helvetica,sans-Serif" font-size="10.00">/tronferno&#45;mcu/external</text>
<text text-anchor="start" x="223" y="-129.5" font-family="Helvetica,sans-Serif" font-size="10.00">/components&#45;misc/components</text>
<text text-anchor="start" x="223" y="-118.5" font-family="Helvetica,sans-Serif" font-size="10.00">/weather/include/weather/weather</text>
<text text-anchor="middle" x="306.5" y="-107.5" font-family="Helvetica,sans-Serif" font-size="10.00">_provider_owm.hh</text>
</a>
</g>
</g>
<!-- Node1&#45;&gt;Node4 -->
<g id="edge3" class="edge">
<title>Node1&#45;&gt;Node4</title>
<path fill="none" stroke="midnightblue" d="M306.5,-190.1C306.5,-181.24 306.5,-172.01 306.5,-163.63"/>
<polygon fill="midnightblue" stroke="midnightblue" points="303,-190.26 306.5,-200.26 310,-190.26 303,-190.26"/>
</g>
<!-- Node5 -->
<g id="node5" class="node">
<title>Node5</title>
<g id="a_node5"><a xlink:href="weather__provider__random_8hh.html" target="_top" xlink:title="provide random mock weather data for testing purposes">
<polygon fill="none" stroke="black" points="416,-100.5 416,-163.5 599,-163.5 599,-100.5 416,-100.5"/>
<text text-anchor="start" x="424" y="-151.5" font-family="Helvetica,sans-Serif" font-size="10.00">/home/bertw/proj/mcu</text>
<text text-anchor="start" x="424" y="-140.5" font-family="Helvetica,sans-Serif" font-size="10.00">/tronferno&#45;mcu/external</text>
<text text-anchor="start" x="424" y="-129.5" font-family="Helvetica,sans-Serif" font-size="10.00">/components&#45;misc/components</text>
<text text-anchor="start" x="424" y="-118.5" font-family="Helvetica,sans-Serif" font-size="10.00">/weather/include/weather/weather</text>
<text text-anchor="middle" x="507.5" y="-107.5" font-family="Helvetica,sans-Serif" font-size="10.00">_provider_random.hh</text>
</a>
</g>
</g>
<!-- Node1&#45;&gt;Node5 -->
<g id="edge4" class="edge">
<title>Node1&#45;&gt;Node5</title>
<path fill="none" stroke="midnightblue" d="M378.44,-195.92C400.16,-185.34 423.81,-173.81 444.86,-163.54"/>
<polygon fill="midnightblue" stroke="midnightblue" points="376.73,-192.87 369.27,-200.4 379.79,-199.16 376.73,-192.87"/>
</g>
<!-- Node3 -->
<g id="node3" class="node">
<title>Node3</title>
<g id="a_node3"><a xlink:href="weather__irrigation_8hh.html" target="_top" xlink:title="calculations about when to irrigate based on weather data">
<polygon fill="none" stroke="black" points="7,-0.5 7,-63.5 190,-63.5 190,-0.5 7,-0.5"/>
<text text-anchor="start" x="15" y="-51.5" font-family="Helvetica,sans-Serif" font-size="10.00">/home/bertw/proj/mcu</text>
<text text-anchor="start" x="15" y="-40.5" font-family="Helvetica,sans-Serif" font-size="10.00">/tronferno&#45;mcu/external</text>
<text text-anchor="start" x="15" y="-29.5" font-family="Helvetica,sans-Serif" font-size="10.00">/components&#45;misc/components</text>
<text text-anchor="start" x="15" y="-18.5" font-family="Helvetica,sans-Serif" font-size="10.00">/weather/include/weather/weather</text>
<text text-anchor="middle" x="98.5" y="-7.5" font-family="Helvetica,sans-Serif" font-size="10.00">_irrigation.hh</text>
</a>
</g>
</g>
<!-- Node2&#45;&gt;Node3 -->
<g id="edge2" class="edge">
<title>Node2&#45;&gt;Node3</title>
<path fill="none" stroke="midnightblue" d="M98.5,-95.69C98.5,-85.24 98.5,-73.89 98.5,-63.75"/>
<polygon fill="midnightblue" stroke="midnightblue" points="95,-95.76 98.5,-105.76 102,-95.76 95,-95.76"/>
</g>
</g>
</svg>
