<?xml version="1.0" encoding="UTF-8" standalone="no"?>
<!DOCTYPE svg PUBLIC "-//W3C//DTD SVG 1.1//EN"
 "http://www.w3.org/Graphics/SVG/1.1/DTD/svg11.dtd">
<!-- Generated by graphviz version 2.43.0 (0)
 -->
<!-- Title: /home/bertw/proj/mcu/tronferno&#45;mcu/external/components&#45;misc/components/weather/include/weather/weather.hh Pages: 1 -->
<svg width="251pt" height="229pt"
 viewBox="0.00 0.00 250.50 229.00" xmlns="http://www.w3.org/2000/svg" xmlns:xlink="http://www.w3.org/1999/xlink">
<g id="graph0" class="graph" transform="scale(1 1) rotate(0) translate(4 225)">
<title>/home/bertw/proj/mcu/tronferno&#45;mcu/external/components&#45;misc/components/weather/include/weather/weather.hh</title>
<!-- Node1 -->
<g id="node1" class="node">
<title>Node1</title>
<g id="a_node1"><a xlink:title="create and maintain weather data archive of last seven days">
<polygon fill="#bfbfbf" stroke="black" points="45.5,-168.5 45.5,-220.5 242.5,-220.5 242.5,-168.5 45.5,-168.5"/>
<text text-anchor="start" x="53.5" y="-208.5" font-family="Helvetica,sans-Serif" font-size="10.00">/home/bertw/proj/mcu</text>
<text text-anchor="start" x="53.5" y="-197.5" font-family="Helvetica,sans-Serif" font-size="10.00">/tronferno&#45;mcu/external</text>
<text text-anchor="start" x="53.5" y="-186.5" font-family="Helvetica,sans-Serif" font-size="10.00">/components&#45;misc/components</text>
<text text-anchor="middle" x="144" y="-175.5" font-family="Helvetica,sans-Serif" font-size="10.00">/weather/include/weather/weather.hh</text>
</a>
</g>
</g>
<!-- Node2 -->
<g id="node2" class="node">
<title>Node2</title>
<g id="a_node2"><a xlink:href="weather__provider_8hh.html" target="_top" xlink:title="Interface for weather data provider.">
<polygon fill="none" stroke="black" points="0,-112.5 0,-131.5 116,-131.5 116,-112.5 0,-112.5"/>
<text text-anchor="middle" x="58" y="-119.5" font-family="Helvetica,sans-Serif" font-size="10.00">weather_provider.hh</text>
</a>
</g>
</g>
<!-- Node1&#45;&gt;Node2 -->
<g id="edge1" class="edge">
<title>Node1&#45;&gt;Node2</title>
<path fill="none" stroke="midnightblue" d="M113.44,-168.45C101.09,-158.33 87.26,-146.98 76.49,-138.16"/>
<polygon fill="midnightblue" stroke="midnightblue" points="78.56,-135.33 68.61,-131.7 74.12,-140.74 78.56,-135.33"/>
</g>
<!-- Node3 -->
<g id="node3" class="node">
<title>Node3</title>
<g id="a_node3"><a xlink:href="weather__data_8hh.html" target="_top" xlink:title="weather data like temperature, humidity, ...">
<polygon fill="none" stroke="black" points="52,-56.5 52,-75.5 150,-75.5 150,-56.5 52,-56.5"/>
<text text-anchor="middle" x="101" y="-63.5" font-family="Helvetica,sans-Serif" font-size="10.00">weather_data.hh</text>
</a>
</g>
</g>
<!-- Node1&#45;&gt;Node3 -->
<g id="edge4" class="edge">
<title>Node1&#45;&gt;Node3</title>
<path fill="none" stroke="midnightblue" d="M139.9,-168.39C136.81,-152.02 131.9,-130.36 125,-112 121.46,-102.57 116.32,-92.64 111.71,-84.51"/>
<polygon fill="midnightblue" stroke="midnightblue" points="114.58,-82.48 106.49,-75.64 108.55,-86.04 114.58,-82.48"/>
</g>
<!-- Node5 -->
<g id="node5" class="node">
<title>Node5</title>
<g id="a_node5"><a xlink:title=" ">
<polygon fill="none" stroke="#bfbfbf" points="172,-112.5 172,-131.5 224,-131.5 224,-112.5 172,-112.5"/>
<text text-anchor="middle" x="198" y="-119.5" font-family="Helvetica,sans-Serif" font-size="10.00">cassert</text>
</a>
</g>
</g>
<!-- Node1&#45;&gt;Node5 -->
<g id="edge5" class="edge">
<title>Node1&#45;&gt;Node5</title>
<path fill="none" stroke="midnightblue" d="M163.19,-168.45C170.48,-158.93 178.6,-148.33 185.16,-139.76"/>
<polygon fill="midnightblue" stroke="midnightblue" points="188.04,-141.76 191.34,-131.7 182.48,-137.51 188.04,-141.76"/>
</g>
<!-- Node2&#45;&gt;Node3 -->
<g id="edge2" class="edge">
<title>Node2&#45;&gt;Node3</title>
<path fill="none" stroke="midnightblue" d="M65.1,-112.08C71.24,-104.38 80.27,-93.03 87.74,-83.65"/>
<polygon fill="midnightblue" stroke="midnightblue" points="90.54,-85.75 94.03,-75.75 85.06,-81.39 90.54,-85.75"/>
</g>
<!-- Node4 -->
<g id="node4" class="node">
<title>Node4</title>
<g id="a_node4"><a xlink:title=" ">
<polygon fill="none" stroke="#bfbfbf" points="78,-0.5 78,-19.5 124,-19.5 124,-0.5 78,-0.5"/>
<text text-anchor="middle" x="101" y="-7.5" font-family="Helvetica,sans-Serif" font-size="10.00">cstdio</text>
</a>
</g>
</g>
<!-- Node3&#45;&gt;Node4 -->
<g id="edge3" class="edge">
<title>Node3&#45;&gt;Node4</title>
<path fill="none" stroke="midnightblue" d="M101,-56.08C101,-49.01 101,-38.86 101,-29.99"/>
<polygon fill="midnightblue" stroke="midnightblue" points="104.5,-29.75 101,-19.75 97.5,-29.75 104.5,-29.75"/>
</g>
</g>
</svg>
